<svg width="592" height="103" viewBox="0 0 592 103" fill="none" xmlns="http://www.w3.org/2000/svg">
<path d="M410.034 0.361735C406.172 1.62056 403.797 4.96789 403.454 9.60266C403.139 13.6652 404.283 16.9553 406.801 19.2155C408.546 20.789 410.349 21.4185 412.981 21.4185C416.7 21.4185 419.761 19.4444 421.335 16.0398C422.393 13.7225 422.565 9.431 421.707 6.62725C420.505 2.6219 417.558 0.304516 413.438 0.0756385C412.037 0.0184192 410.806 0.104248 410.034 0.361735ZM416.643 2.53607C419.275 4.13821 420.391 6.65586 420.362 10.8329C420.333 16.6406 417.615 19.8163 412.752 19.7877C408.088 19.7591 405.256 16.2115 405.313 10.5468C405.37 4.51014 408.889 1.01976 414.154 1.70639C414.983 1.82083 416.099 2.19275 416.643 2.53607Z" fill="#1D1D23"/>
<path d="M445.281 0.218673C442.735 0.848086 440.761 2.59328 439.502 5.25398C438.758 6.85612 438.701 7.22804 438.701 10.5468C438.701 13.2647 438.815 14.4949 439.216 15.6107C439.96 17.7278 441.476 19.5588 443.221 20.5029C444.566 21.1896 444.995 21.2754 447.57 21.2754C450.202 21.2754 450.545 21.2182 451.947 20.4457C452.805 19.9593 453.721 19.2155 454.035 18.7863C454.865 17.642 455.151 17.785 455.151 19.4158C455.151 20.7604 455.208 20.8462 455.866 20.8462H456.582V15.5535V10.2321L452.376 10.3179L448.142 10.4037L448.056 11.1762L447.97 11.9772H451.461H454.951L454.751 13.4363C454.35 16.3545 452.691 18.5861 450.316 19.3872C448.829 19.8735 446.025 19.7591 444.68 19.1583C441.562 17.7278 439.845 13.4936 440.56 9.00184C441.361 3.90932 443.707 1.67777 448.17 1.67777C450.974 1.70638 453.149 3.07964 454.15 5.45424C454.493 6.31253 454.751 6.54141 455.294 6.54141C456.324 6.54141 456.439 5.912 455.723 4.39568C454.837 2.56467 452.948 0.991134 450.917 0.418941C449.2 -0.0674237 446.797 -0.124643 445.281 0.218673Z" fill="#1D1D23"/>
<path d="M545.071 0.361479C541.524 1.53448 539.321 4.36683 538.634 8.65828C538.062 12.4062 539.149 16.4687 541.352 18.7861C543.441 20.9891 547.189 21.9332 550.536 21.1321C555.314 19.9877 558.232 14.6091 557.288 8.68689C556.43 3.25106 553.368 0.27565 548.447 0.0467724C547.131 -0.0104469 545.787 0.132601 545.071 0.361479ZM551.137 2.22111C552.624 2.90774 553.94 4.33822 554.77 6.11202C555.342 7.34224 555.428 8.00026 555.428 10.6896C555.428 13.6936 555.371 13.9511 554.484 15.7535C552.911 18.9864 549.992 20.4455 546.531 19.7302C542.354 18.9005 540.208 15.4102 540.465 10.0029C540.723 4.65293 543.412 1.67752 547.99 1.67752C549.334 1.67752 550.364 1.84918 551.137 2.22111Z" fill="#1D1D23"/>
<path d="M578.802 0.361737C575.913 1.30586 574.597 3.16548 574.797 6.02645C574.997 8.94464 576.371 10.0318 581.377 11.2906C585.726 12.3492 587.042 13.3505 587.042 15.6393C587.042 18.2428 585.211 19.7019 581.921 19.7019C580.805 19.7019 579.46 19.5302 578.945 19.3013C577.715 18.815 576.542 17.3845 576.17 15.9826C575.884 14.9527 575.77 14.8382 574.969 14.8382C574.082 14.8382 574.082 14.8382 574.253 16.1257C574.711 19.4158 577.515 21.4185 581.635 21.4185C586.384 21.4185 589.531 18.5289 588.93 14.7524C588.472 11.9487 587.156 10.9187 582.321 9.65988C578.087 8.5441 577.372 8.20079 576.828 6.88474C576.027 4.93928 576.886 2.93661 578.945 2.07832C580.29 1.50612 582.979 1.56334 584.181 2.22137C585.354 2.82217 586.47 4.33848 586.47 5.2826C586.47 5.85479 586.613 5.96923 587.299 5.96923C588.387 5.96923 588.53 5.74036 588.158 4.36709C587.729 2.82217 586.67 1.50612 585.24 0.762272C583.723 -0.0101891 580.548 -0.210457 578.802 0.361737Z" fill="#1D1D23"/>
<path d="M347.207 0.762201C347.121 0.87664 345.548 4.79617 343.717 9.48815C341.886 14.2087 340.141 18.6146 339.826 19.3299C339.54 20.0165 339.282 20.6745 339.282 20.7318C339.282 20.789 339.711 20.8462 340.255 20.8462H341.228L342.372 17.7563L343.516 14.6951L348.208 14.6093L352.929 14.5521L354.045 17.6133C355.132 20.6173 355.189 20.7031 356.105 20.789C356.591 20.8462 357.02 20.789 357.02 20.6459C357.02 20.5315 355.332 15.9539 353.244 10.4895L349.439 0.533324H348.38C347.808 0.533324 347.264 0.619153 347.207 0.762201ZM350.411 7.74296C351.356 10.3751 352.157 12.6066 352.157 12.6924C352.157 12.7783 350.354 12.8355 348.18 12.8355H344.203L345.891 8.31515C348.037 2.59322 348.123 2.39295 348.409 2.70766C348.523 2.85071 349.439 5.11087 350.411 7.74296Z" fill="#1D1D23"/>
<path d="M373.042 10.6898V20.8462H378.134C383.656 20.8462 384.857 20.6459 386.231 19.5015C387.461 18.4716 387.919 17.2128 387.919 15.0384C387.919 12.8069 387.203 11.548 385.401 10.6611L384.199 10.0317L385.201 9.43093C387.547 8.05767 387.747 4.05231 385.573 2.04964C384.256 0.819421 382.769 0.533324 377.733 0.533324H373.042V10.6898ZM383.57 2.79349C384.514 3.27985 384.8 3.62317 385.058 4.56729C385.458 6.05499 384.943 7.82879 383.913 8.60125C382.912 9.31649 380.394 9.71703 377.419 9.6312L374.901 9.54537L374.815 6.14082C374.787 4.25258 374.815 2.536 374.901 2.30712C375.159 1.62049 382.025 2.02103 383.57 2.79349ZM384.228 11.7769C385.573 12.4349 386.059 13.4077 386.059 15.4676C386.03 16.9267 385.944 17.2414 385.201 17.9852C384.085 19.0724 382.111 19.4729 377.991 19.3585L374.901 19.2727L374.815 15.582C374.787 13.5221 374.815 11.6911 374.901 11.4622C375.13 10.8328 382.826 11.0903 384.228 11.7769Z" fill="#1D1D23"/>
<path d="M478.268 6.16943C477.066 9.28788 475.292 13.8082 474.348 16.24C473.375 18.6432 472.603 20.6745 472.603 20.7318C472.603 20.789 473.032 20.8462 473.547 20.8462C474.463 20.8462 474.491 20.8176 475.636 17.7563L476.809 14.6951L481.529 14.6093L486.221 14.5521L487.366 17.6991C488.481 20.8176 488.481 20.8462 489.426 20.8462C489.912 20.8462 490.341 20.7604 490.341 20.6173C490.341 20.5029 488.624 15.9825 486.536 10.5467L482.731 0.676372L481.615 0.590543L480.471 0.533324L478.268 6.16943ZM481.901 2.87932C481.958 3.07958 482.788 5.36836 483.732 7.94323C484.705 10.5181 485.449 12.6924 485.363 12.7497C485.306 12.8069 483.532 12.8069 481.415 12.7783L477.553 12.6924L479.441 7.59991C481.186 2.85071 481.615 2.02103 481.901 2.87932Z" fill="#1D1D23"/>
<path d="M506.363 10.6897V20.9033L511.598 20.7889C516.605 20.7031 516.863 20.6744 518.407 19.902C521.555 18.3857 523.157 14.7236 522.871 9.83138C522.613 5.42549 521.097 2.62174 518.322 1.36291C516.948 0.7335 516.348 0.67628 511.598 0.590451L506.363 0.476013V10.6897ZM515.232 2.24981C518.636 2.7934 520.353 4.68163 520.954 8.60116C521.526 12.2918 520.324 16.5833 518.35 18.0137C517.034 18.9579 514.402 19.4442 511.169 19.3584L508.222 19.2726L508.137 10.9758C508.108 6.42683 508.137 2.53591 508.222 2.33564C508.394 1.87789 512.542 1.84928 515.232 2.24981Z" fill="#1D1D23"/>
<path d="M0.457836 34.2069C0.343397 34.2927 0.257568 34.7505 0.257568 35.2082V36.0093H295.796H591.333V35.0079V34.0066H295.996C133.55 34.0066 0.543665 34.0924 0.457836 34.2069Z" fill="#1D1D23"/>
<path d="M178.21 53.5757C170.027 55.3209 164.506 60.8997 161.959 69.9976C161.273 72.5153 161.187 73.2019 161.187 77.7795C161.187 83.7017 161.645 85.8474 163.905 90.5108C166.222 95.2886 169.026 98.2354 173.203 100.209C176.608 101.84 178.639 102.241 183.645 102.241C188.795 102.212 191.084 101.726 194.86 99.7517C204.13 94.9453 208.708 80.5832 204.788 68.6244C203.415 64.4187 200.954 60.4134 198.265 58.0102C196.52 56.4652 192.972 54.6056 190.369 53.8904C188.023 53.2324 180.727 53.0607 178.21 53.5757ZM186.936 61.9011C190.626 62.8738 193.344 65.1054 194.946 68.4813C198.294 75.5479 197.206 85.8188 192.629 90.4535C187.336 95.8322 177.323 94.9739 173.203 88.7656C168.597 81.8134 169.512 69.454 175.034 64.5904C176.379 63.3888 178.667 62.1872 180.413 61.7866C182.129 61.3861 185.105 61.4433 186.936 61.9011Z" fill="#1D1D23"/>
<path d="M16.2789 53.8616C16.2789 53.9188 15.3348 56.7226 14.1618 60.0699C12.9888 63.4458 11.7586 67.0221 11.4153 68.052C11.0719 69.0819 10.4997 70.7413 10.1278 71.7713C9.29814 74.0314 5.95081 83.6157 2.51765 93.5718L0 100.953H4.94947H9.89895L11.5583 96.2325L13.1891 91.5119H21.8578H30.4979L31.442 94.144C31.9284 95.6031 32.6722 97.7488 33.0728 98.8932L33.8166 100.953H38.6231C42.3995 100.953 43.4581 100.867 43.4581 100.581C43.4581 100.181 43.3437 99.8087 37.6503 83.2151C35.6763 77.4646 32.6436 68.6242 30.9271 63.5603C29.1819 58.4678 27.6656 54.2049 27.5797 54.0333C27.4081 53.7758 16.2789 53.6041 16.2789 53.8616ZM22.8877 67.6801C23.2311 68.7672 24.5185 72.5723 25.7487 76.1771C27.0075 79.7534 28.0089 82.9004 28.0089 83.1007C28.0089 83.4154 26.9503 83.5012 22.1439 83.5012C18.911 83.5012 16.2789 83.4154 16.2789 83.3296C16.2789 82.786 21.8578 65.7632 22.0294 65.7632C22.1439 65.7632 22.5158 66.6215 22.8877 67.6801Z" fill="#1D1D23"/>
<path d="M56.5328 53.9474C56.4183 54.0333 56.3325 64.6761 56.3325 77.5504V100.953H61.1962H66.0598V91.655V82.3568H72.4684C82.9967 82.3568 83.2256 82.5571 83.2256 91.655C83.2256 96.4042 83.3114 97.4341 83.7978 99.0649L84.3986 100.953H89.6628H94.9556V100.152C94.9556 99.6657 94.6981 99.0935 94.3548 98.7788C94.0401 98.4927 93.6395 98.0063 93.4965 97.7202C93.3248 97.4341 93.0959 94.4015 92.9529 90.9397C92.8099 87.5066 92.5524 84.1879 92.4093 83.5584C91.9516 81.8991 90.9788 80.6116 89.1764 79.3814L87.5457 78.2657L89.4625 76.921C92.8671 74.4892 94.2403 71.5138 94.2117 66.7646C94.1259 59.3833 90.7786 55.0918 84.37 54.0619C82.3387 53.7186 56.8475 53.6327 56.5328 53.9474ZM82.4818 62.4731C83.9981 63.217 84.5989 64.1325 84.9708 66.1924C85.4572 68.8531 84.9422 70.6555 83.2256 72.3721C82.3959 73.2017 81.4232 73.8598 80.7652 74.0314C80.1072 74.2031 76.817 74.3461 72.8689 74.3461H66.0598V68.2523C66.0598 64.8763 66.1456 62.044 66.2601 61.9295C66.3745 61.8151 69.8363 61.7579 73.9275 61.8151C80.6221 61.9295 81.4804 61.9867 82.4818 62.4731Z" fill="#1D1D23"/>
<path d="M123.107 53.976C122.907 54.0905 121.706 57.2089 120.418 60.8996C119.131 64.5902 117.643 68.8531 117.128 70.3408C114.01 79.1526 106.685 100.438 106.685 100.667C106.685 100.839 108.516 100.953 111.52 100.953H116.327L117.986 96.2325L119.617 91.5119L128.372 91.5692L137.126 91.655L138.7 96.2897L140.302 100.953H145.223H150.144L147.283 92.5705C145.68 87.9929 143.563 81.756 142.533 78.7806C141.532 75.7766 139.873 70.9702 138.871 68.052C137.899 65.1338 136.411 60.8424 135.61 58.4964C134.809 56.1218 133.979 54.0905 133.779 53.976C133.35 53.6899 123.537 53.6899 123.107 53.976ZM131.69 74.4606C133.35 79.3528 134.723 83.3582 134.723 83.4154C134.723 83.4726 132.034 83.5012 128.715 83.5012C125.425 83.5012 122.707 83.444 122.707 83.3582C122.707 83.1293 128.2 65.9063 128.343 65.6774C128.429 65.5344 128.515 65.4771 128.572 65.5344C128.629 65.5916 130.031 69.5969 131.69 74.4606Z" fill="#1D1D23"/>
<path d="M217.462 57.8097L217.548 61.9009H229.364C235.83 61.9009 241.151 62.0154 241.151 62.1584C241.151 62.2728 240.264 63.5031 239.206 64.8763C238.118 66.221 235 70.2263 232.282 73.7739C229.535 77.3215 225.072 83.0721 222.354 86.5625L217.405 92.9424V96.9478V100.953H235.143H252.881V96.9478V92.9424H241.008C233.026 92.9424 229.135 92.8566 229.135 92.6563C229.135 92.3988 234.971 84.7314 239.463 79.0667C240.207 78.1226 243.526 73.8598 246.844 69.6255L252.852 61.9009L252.881 57.8097V53.7472H235.143H217.376L217.462 57.8097Z" fill="#1D1D23"/>
<path d="M339.196 53.9188C339.082 54.0333 338.996 64.6761 338.996 77.5504V100.953H343.86H348.723V91.655V82.3568H355.132C361.798 82.3568 363.257 82.5571 364.545 83.7301C365.574 84.6456 365.718 85.5897 365.889 92.0841C366.032 97.4055 366.147 98.7216 366.576 99.7229L367.091 100.953H372.355H377.619V100.209C377.619 99.7801 377.247 99.0363 376.789 98.4927C375.788 97.3769 375.702 96.7189 375.502 89.5093C375.302 82.786 374.787 81.3841 371.697 79.3242C370.867 78.7806 370.181 78.2657 370.181 78.2084C370.181 78.1226 370.581 77.8651 371.096 77.6076C371.583 77.3501 372.67 76.4919 373.499 75.7194C376.818 72.5723 377.819 67.3368 376.131 61.7579C375.359 59.1544 373.9 57.1231 371.926 55.8929C368.779 53.9188 368.979 53.9188 353.444 53.8044C345.719 53.7472 339.311 53.8044 339.196 53.9188ZM365.145 62.4731C366.662 63.2456 367.262 64.1611 367.606 66.1924C368.064 68.9103 367.577 70.6841 365.918 72.3148C364.03 74.2317 363.372 74.3461 355.475 74.3461H348.723V68.0234V61.7007L356.391 61.8151C363.343 61.9009 364.115 61.9581 365.145 62.4731Z" fill="#1D1D23"/>
<path d="M392.983 53.9189C392.668 54.2622 392.754 87.5066 393.068 89.2518C393.555 91.9411 395.214 94.8307 397.503 97.0909C401.623 101.125 404.484 102.155 411.379 102.212C415.212 102.241 416.128 102.155 418.102 101.583C424.081 99.8374 428.173 95.9751 429.546 90.7967C429.918 89.3663 429.975 86.3622 429.975 71.428V53.7472L425.34 53.8044L420.677 53.8903L420.534 71.1991L420.391 88.508L419.733 89.8812C418.502 92.3703 416.185 93.6863 412.494 94.001C408.203 94.3729 404.713 92.9139 403.368 90.2245L402.653 88.7941L402.51 71.3422L402.367 53.8903L397.76 53.8044C395.243 53.7758 393.097 53.833 392.983 53.9189Z" fill="#1D1D23"/>
<path d="M447.141 77.3501V100.953H464.736H482.331V96.9478V92.9424H469.599H456.868V86.7913V80.6403H468.169H479.47V76.6349V72.6295H468.169H456.868V67.3368V62.044H469.027H481.186V57.8956V53.7472H464.163H447.141V77.3501Z" fill="#1D1D23"/>
<path d="M497.78 77.3501V100.953H509.023C521.211 100.953 522.155 100.867 525.102 99.3224C531.425 96.0609 535.344 89.3948 536.403 80.2111C537.233 72.9729 536.317 67.5656 533.485 62.7878C530.566 57.867 526.389 54.7485 521.812 54.0333C520.782 53.8902 514.974 53.7472 508.88 53.7472H497.78V77.3501ZM520.238 62.4731C522.041 63.1597 524.301 65.3627 525.302 67.4798C526.618 70.2263 527.076 73.3162 526.876 78.0654C526.618 84.3595 525.474 87.621 522.584 90.2531C520.153 92.4847 519.18 92.7421 512.743 92.8852L507.221 92.9996V77.579C507.221 69.0819 507.307 62.044 507.45 61.9295C507.564 61.8151 510.168 61.7579 513.229 61.8437C517.692 61.9295 519.094 62.0726 520.238 62.4731Z" fill="#1D1D23"/>
<path d="M564.24 54.0905C564.097 54.2907 562.581 58.4391 560.893 63.3314C559.205 68.195 557.374 73.4306 556.859 74.9183C556.344 76.406 555.314 79.3814 554.57 81.4985C553.826 83.6157 552.024 88.8226 550.536 93.0569C549.048 97.2911 547.847 100.81 547.847 100.867C547.847 100.925 550.078 100.925 552.768 100.896L557.717 100.81L559.319 96.2325L560.921 91.655L569.647 91.5692L578.402 91.5119L579.575 95.0023C580.233 96.9478 580.977 99.0649 581.234 99.7229L581.692 100.953H586.498C589.159 100.953 591.333 100.867 591.333 100.724C591.333 100.61 590.218 97.2911 588.873 93.3716C585.611 83.8159 583.208 76.7779 579.06 64.6474C577.143 59.0686 575.455 54.348 575.283 54.1191C574.826 53.6041 564.641 53.5755 564.24 54.0905ZM572.308 72.3434C575.741 82.3854 575.856 82.7574 575.884 83.1293C575.884 83.4154 574.511 83.5012 570.019 83.5012C565.871 83.5012 564.154 83.4154 564.154 83.1865C564.154 82.9004 564.955 80.2683 568.16 70.1977C568.76 68.3095 569.333 66.4499 569.447 66.0779C569.561 65.7346 569.762 65.5343 569.876 65.6488C570.019 65.7918 571.106 68.7958 572.308 72.3434Z" fill="#1D1D23"/>
<path d="M291.304 64.0752C286.669 64.8763 283.951 67.9375 283.951 72.3434C283.951 74.7752 284.18 75.3474 286.354 78.1798L287.785 80.0394L286.211 80.9263C283.407 82.5284 281.891 83.9303 281.033 85.7041C280.289 87.1918 280.203 87.6496 280.232 90.0814C280.26 93.1426 280.718 94.6876 282.12 96.49C283.379 98.1493 284.409 98.9218 286.44 99.7801C287.985 100.438 288.614 100.524 291.361 100.524C293.106 100.524 295.023 100.352 295.681 100.152C296.625 99.8659 299.143 98.4068 300.831 97.1194C301.088 96.9191 301.575 97.2624 302.519 98.321L303.863 99.8087H307.382C309.328 99.8087 310.987 99.6942 311.073 99.5798C311.159 99.4368 309.871 97.663 308.269 95.6031L305.322 91.8838L306.295 90.3389C307.411 88.5651 308.527 85.275 308.813 82.8431L309.013 81.2124H306.152H303.291L302.948 83.1292C302.69 84.7028 302.09 86.3907 301.632 86.9057C301.575 86.9915 301.346 86.8199 301.145 86.591C300.974 86.3335 299.801 84.903 298.599 83.4153C297.369 81.899 296.368 80.583 296.368 80.4399C296.368 80.2969 296.997 79.6961 297.77 79.1239C300.545 77.0068 301.775 74.6894 301.803 71.6282C301.803 66.2495 297.312 62.988 291.304 64.0752ZM294.422 69.4824C295.681 69.8544 296.082 70.4552 296.082 72.0287C296.082 73.5164 295.71 74.4033 294.737 75.3188C293.621 76.3488 292.992 76.5204 292.477 75.8624C289.959 72.7439 289.644 70.4552 291.618 69.5969C292.706 69.1391 293.078 69.1105 294.422 69.4824ZM294.365 88.1645C297.541 92.0555 297.569 92.1127 297.054 92.7135C295.538 94.3728 292.305 95.46 290.417 94.9736C288.328 94.4015 286.354 91.7694 286.354 89.5092C286.354 87.5351 286.984 86.5052 288.958 85.2177C289.959 84.5883 290.846 84.102 290.96 84.1306C291.075 84.1878 292.591 85.9902 294.365 88.1645Z" fill="#1D1D23"/>
</svg>
