<svg width="600" height="137" viewBox="0 0 600 137" fill="none" xmlns="http://www.w3.org/2000/svg">
<path d="M270.1 92.1001C266.8 94.0001 264.4 94.9001 261.5 94.9001C256.3 94.9001 252.5 91.1001 252.5 84.6001C252.5 76.5001 256.9 72.1001 270.1 71.2001C270.1 71.1001 270.1 92.1001 270.1 92.1001ZM277.4 101.6H296V99.5001L288.5 96.0001V52.6001C288.5 39.3001 280.9 32.4001 268.2 32.4001C254.7 32.4001 235.7 39.0001 235.7 51.4001C235.7 56.6001 239.1 61.1001 245 61.1001C250.3 61.1001 254 56.5001 254 51.7001C254 48.0001 252 43.4001 248 40.2001C250.3 39.8001 252.7 39.6001 255 39.6001C266.9 39.6001 270.2 45.5001 270.2 53.9001V67.5001C248.3 67.6001 233.4 74.9001 233.4 88.5001C233.4 97.6001 240 104 250.7 104C258.7 104 265 100.2 270.2 94.7001L270.9 95.0001C270.9 98.7001 273.8 101.6 277.4 101.6ZM491.9 0.600098H512.2L497.3 24.0001H485.8C485.7 24.0001 491.9 0.600098 491.9 0.600098ZM430.7 12.3001C430.7 5.80008 435.8 0.600098 442.1 0.600098C448.4 0.600098 453.5 5.80008 453.5 12.3001C453.5 18.8001 448.4 24.0001 442.1 24.0001C435.8 24.0001 430.7 18.8001 430.7 12.3001ZM592.2 52.8001C592.2 42.3001 587.5 32.4001 574.6 32.4001C566.9 32.4001 558.6 36.4001 550.1 44.6001L549.5 44.3001V34.6001H524.2V36.6001L532.4 40.7001V96.0001L524.8 99.5001V101.6H556.8V99.5001L550.7 96.0001V47.2001C555.6 45.1001 558.7 44.4001 563.7 44.4001C571.9 44.4001 573.9 50.4001 573.9 58.7001V96.0001L566.7 99.5001V101.6H599.7V99.5001L592.1 96.0001L592.2 52.8001ZM433.8 40.8001V96.0001L425.8 99.5001V101.6H459.7V99.5001L452.1 96.0001V34.6001H425.5V36.7001L433.8 40.8001ZM213.4 70.0001C213.4 90.8001 206.7 98.5001 199.4 98.5001C193.1 98.5001 189.4 95.9001 185.9 90.4001V44.2001C189.5 43.3001 192.6 42.9001 195.6 42.9001C207.1 42.9001 213.4 51.1001 213.4 70.0001ZM167.6 130.7L160.1 134.2V136.1H194.9V134.2L185.9 130.7V102.4C188.9 103 191.9 103.3 194.8 103.3C219 103.3 233 85.4001 233 65.5001C233 45.1001 221.6 31.7001 207.7 31.7001C199.3 31.7001 190.8 36.7001 185.5 41.9001L184.9 41.6001V34.7001H159.4V36.8001L167.5 40.8001C167.6 40.7001 167.6 130.7 167.6 130.7ZM507 67.3001C507 85.7001 502.6 98.3001 492.3 98.3001C482 98.3001 477.6 85.8001 477.6 67.3001C477.6 48.9001 482 36.3001 492.3 36.3001C502.5 36.4001 507 48.9001 507 67.3001ZM526.6 67.3001C526.6 48.4001 516.2 31.6001 493.1 31.6001C470.2 31.6001 457.9 49.6001 457.9 67.3001C457.9 86.3001 468.3 103.2 491.4 103.2C514.4 103.2 526.6 85.1001 526.6 67.3001ZM426.2 80.8001C426.2 68.0001 416.2 63.4001 406.9 59.6001C398.7 56.2001 391 53.3001 391 45.7001C391 41.3001 394.1 36.7001 399.7 36.7001C406.6 36.7001 410.3 41.3001 418.9 53.2001L421.8 52.6001L421.4 34.3001C417.4 32.8001 409.1 31.6001 403.5 31.6001C388 31.6001 376.9 41.2001 376.9 52.8001C376.9 65.8001 386.9 70.4001 396.2 74.3001C404.4 77.7001 411.9 80.6001 411.9 88.0001C411.9 93.9001 408.5 98.0001 402.7 98.0001C395.3 98.0001 390 93.1001 379.5 78.5001L376.6 78.8001L377 99.0001C383.6 101.7 390.9 103 399.5 103C413.3 103.2 426.2 94.5001 426.2 80.8001ZM366.4 52.8001C366.4 42.3001 361.7 32.4001 348.8 32.4001C341.1 32.4001 332.8 36.4001 324.3 44.6001L323.7 44.3001V34.6001H298.4V36.6001L306.6 40.7001V96.0001L299.1 99.5001V101.6H331.1V99.5001L325 96.0001V47.2001C329.9 45.1001 333 44.4001 338 44.4001C346.2 44.4001 348.2 50.4001 348.2 58.7001V96.0001L342.1 99.5001V101.6H374.1V99.5001L366.6 96.0001L366.4 52.8001ZM126.2 59.2001L115 39.7001L121.4 36.7001V34.6001H86.7V36.7001L93.5 39.7001L114.5 71.7001L95 95.6001L87.4 99.6001V101.7H110.9V99.6001L105.1 96.4001L118 77.0001L129.6 96.5001L122.8 99.6001V101.7H157.9V99.6001L151.1 96.5001L129.4 64.3001L148.2 40.7001L156.3 36.7001V34.6001H132.3V36.7001L137.8 40.1001C137.7 40.1001 126.2 59.2001 126.2 59.2001ZM81.5 0.600098H0.0999756V3.30008L12.5 7.1001V95.2001L0.0999756 99.0001V101.7H84.7L87.6 68.8001L84.7 68.2001L72.2 84.7001C67.1 91.4001 62 94.7001 53.4 95.2001L34.5 96.2001V54.6001H39.7C48.5 54.6001 51.9 57.8001 55.6 67.6001L57.5 72.5001H60.7V29.8001H57.5L55.6 35.0001C52.1 44.8001 48.5 48.0001 39.7 48.0001H34.5V6.00009L48.5 6.6001C59.3 7.1001 63.1 9.90009 68.7 18.0001L80.7 35.5001L83.6 34.7001L81.5 0.600098Z" fill="#1D1D23"/>
</svg>
