<svg width="64" height="64" viewBox="0 0 64 64" fill="none" xmlns="http://www.w3.org/2000/svg">
<g clip-path="url(#clip0_719_530)">
<circle cx="32" cy="32" r="32" fill="#29327A"/>
<path d="M21.3987 36.1758C19.2207 36.1758 17.6367 34.4818 17.6367 32.1498C17.6367 29.8068 19.1987 28.1348 21.3987 28.1348C23.3897 28.1348 24.9407 29.4658 25.0177 31.2258L23.7087 31.3358C23.6427 30.0818 22.7077 29.2348 21.3987 29.2348C19.9027 29.2348 18.9347 30.3678 18.9347 32.1498C18.9347 33.9428 19.9027 35.0758 21.3987 35.0758C22.6637 35.0758 23.7087 34.2838 23.8737 33.2058H21.2337V32.1058H25.2817V35.9998H24.0387L24.2037 34.3168C23.7307 35.5158 22.7627 36.1758 21.3987 36.1758Z" fill="white"/>
<path d="M26.8385 35.9998V28.2998H29.2585C31.7005 28.2998 32.9765 29.6198 32.9765 32.1498C32.9765 34.6798 31.7005 35.9998 29.2585 35.9998H26.8385ZM28.1365 34.8998H29.2585C30.9525 34.8998 31.6785 34.0748 31.6785 32.1498C31.6785 30.2248 30.9525 29.3998 29.2585 29.3998H28.1365V34.8998Z" fill="white"/>
<path d="M34.2721 35.9998V28.2998H36.9121C38.5731 28.2998 39.6731 29.2238 39.6731 30.5988C39.6731 31.9848 38.5731 32.8978 36.9121 32.8978H35.5701V35.9998H34.2721ZM35.5701 31.8088H36.9121C37.8141 31.8088 38.3751 31.3358 38.3751 30.5988C38.3751 29.8618 37.8031 29.3998 36.9121 29.3998H35.5701V31.8088Z" fill="white"/>
<path d="M40.7926 35.9998V28.2998H43.4326C45.1046 28.2998 46.1936 29.2018 46.1936 30.5878C46.1936 31.6328 45.5886 32.2488 44.4336 32.3918C45.8306 32.4578 46.0836 32.8428 46.1936 34.3938L46.3146 35.9998H44.9946L44.8736 34.2398C44.8076 33.1508 44.5436 32.8978 43.4436 32.8978H42.0906V35.9998H40.7926ZM42.0906 31.8088H43.4326C44.3566 31.8088 44.8956 31.3578 44.8956 30.5988C44.8956 29.8508 44.3456 29.3998 43.4326 29.3998H42.0906V31.8088Z" fill="white"/>
<path d="M30.412 9.4056L28.4926 7.65301L31.0284 7.42118L32 5L32.9716 7.42118L35.5074 7.65301L33.588 9.4056L34.1554 11.9892L32 10.6198L29.8446 11.9892L30.412 9.4056Z" fill="#F2EE14"/>
<path d="M18.155 12.4715L16.2356 10.7189L18.7714 10.4871L19.743 8.06592L20.7146 10.4871L23.2503 10.7189L21.3309 12.4715L21.8984 15.0552L19.743 13.6858L17.5875 15.0552L18.155 12.4715Z" fill="#F2EE14"/>
<path d="M42.6691 12.4715L40.7497 10.7189L43.2854 10.4871L44.257 8.06592L45.2286 10.4871L47.7644 10.7189L45.845 12.4715L46.4124 15.0552L44.257 13.6858L42.1016 15.0552L42.6691 12.4715Z" fill="#F2EE14"/>
<path d="M18.155 53.3504L16.2356 51.5978L18.7714 51.366L19.743 48.9448L20.7146 51.366L23.2503 51.5978L21.3309 53.3504L21.8984 55.9341L19.743 54.5647L17.5875 55.9341L18.155 53.3504Z" fill="#F2EE14"/>
<path d="M42.6691 53.3504L40.7497 51.5978L43.2854 51.366L44.257 48.9448L45.2286 51.366L47.7644 51.5978L45.845 53.3504L46.4124 55.9341L44.257 54.5647L42.1016 55.9341L42.6691 53.3504Z" fill="#F2EE14"/>
<path d="M9.98365 20.6473L8.06426 18.8947L10.6 18.6629L11.5716 16.2417L12.5432 18.6629L15.079 18.8947L13.1596 20.6473L13.727 23.2309L11.5716 21.8615L9.4162 23.2309L9.98365 20.6473Z" fill="#F2EE14"/>
<path d="M50.8404 20.6473L48.921 18.8947L51.4568 18.6629L52.4284 16.2417L53.4 18.6629L55.9357 18.8947L54.0164 20.6473L54.5838 23.231L52.4284 21.8615L50.273 23.2309L50.8404 20.6473Z" fill="#F2EE14"/>
<path d="M9.98365 45.1747L8.06426 43.4221L10.6 43.1902L11.5716 40.7691L12.5432 43.1902L15.079 43.4221L13.1596 45.1747L13.727 47.7583L11.5716 46.3889L9.4162 47.7583L9.98365 45.1747Z" fill="#F2EE14"/>
<path d="M50.8404 45.1747L48.921 43.4221L51.4568 43.1902L52.4284 40.7691L53.4 43.1902L55.9357 43.4221L54.0164 45.1747L54.5838 47.7583L52.4284 46.3889L50.273 47.7583L50.8404 45.1747Z" fill="#F2EE14"/>
<path d="M6.91939 32.911L5 31.1584L7.53576 30.9266L8.50736 28.5054L9.47896 30.9266L12.0147 31.1584L10.0953 32.911L10.6628 35.4946L8.50736 34.1252L6.35194 35.4946L6.91939 32.911Z" fill="#F2EE14"/>
<path d="M53.9047 32.911L51.9853 31.1584L54.521 30.9266L55.4926 28.5054L56.4642 30.9266L59 31.1584L57.0806 32.911L57.6481 35.4946L55.4926 34.1252L53.3372 35.4946L53.9047 32.911Z" fill="#F2EE14"/>
<path d="M30.412 56.4164L28.4926 54.6638L31.0284 54.4319L32 52.0107L32.9716 54.4319L35.5074 54.6638L33.588 56.4164L34.1554 59L32 57.6306L29.8446 59L30.412 56.4164Z" fill="#F2EE14"/>
</g>
<defs>
<clipPath id="clip0_719_530">
<rect width="64" height="64" fill="white"/>
</clipPath>
</defs>
</svg>
