<svg width="100%" height="100%" viewBox="0 0 18 18" fill="none" xmlns="http://www.w3.org/2000/svg">
<path fill-rule="evenodd" clip-rule="evenodd" d="M5.80052 0.866699C6.16871 0.866699 6.46719 1.16518 6.46719 1.53337V3.6667C6.46719 4.03489 6.16871 4.33337 5.80052 4.33337C5.43233 4.33337 5.13385 4.03489 5.13385 3.6667V1.53337C5.13385 1.16518 5.43233 0.866699 5.80052 0.866699ZM1.59548 1.59533C1.85583 1.33498 2.27794 1.33498 2.53829 1.59533L4.13829 3.19533C4.39864 3.45568 4.39864 3.87779 4.13829 4.13814C3.87794 4.39849 3.45583 4.39849 3.19548 4.13814L1.59548 2.53814C1.33513 2.27779 1.33513 1.85568 1.59548 1.59533ZM0.867188 5.80003C0.867188 5.43184 1.16566 5.13337 1.53385 5.13337H3.66719C4.03538 5.13337 4.33385 5.43184 4.33385 5.80003C4.33385 6.16822 4.03538 6.4667 3.66719 6.4667H1.53385C1.16566 6.4667 0.867188 6.16822 0.867188 5.80003ZM13.6672 12.2C13.6672 11.8318 13.9657 11.5334 14.3339 11.5334H16.4672C16.8354 11.5334 17.1339 11.8318 17.1339 12.2C17.1339 12.5682 16.8354 12.8667 16.4672 12.8667H14.3339C13.9657 12.8667 13.6672 12.5682 13.6672 12.2ZM12.2005 13.6667C12.5687 13.6667 12.8672 13.9652 12.8672 14.3334V16.4667C12.8672 16.8349 12.5687 17.1334 12.2005 17.1334C11.8323 17.1334 11.5339 16.8349 11.5339 16.4667V14.3334C11.5339 13.9652 11.8323 13.6667 12.2005 13.6667ZM13.8621 13.862C14.1225 13.6016 14.5446 13.6016 14.805 13.862L16.405 15.462C16.6653 15.7223 16.6653 16.1445 16.405 16.4048C16.1446 16.6652 15.7225 16.6652 15.4621 16.4048L13.8621 14.8048C13.6018 14.5445 13.6018 14.1223 13.8621 13.862ZM9.28279 4.94608C9.73826 4.49061 9.91476 4.31749 10.0794 4.20564C10.8009 3.71554 11.713 3.70594 12.3907 4.151C12.5446 4.25206 12.709 4.41245 13.1483 4.8518C13.5877 5.29115 13.748 5.45549 13.8491 5.60937C14.2942 6.28707 14.2846 7.19925 13.7945 7.92069C13.6826 8.08535 13.5095 8.26185 13.054 8.71732L12.3941 9.37729C12.1858 9.58556 12.1858 9.92325 12.3941 10.1315C12.6023 10.3398 12.94 10.3398 13.1483 10.1315L13.8083 9.47157L13.854 9.4258C14.2483 9.03163 14.5007 8.77939 14.6768 8.52008C15.3971 7.45984 15.4342 6.07989 14.7407 5.02384C14.5716 4.76629 14.325 4.51988 13.9502 4.14516L13.9026 4.09755L13.8549 4.04993C13.4802 3.67507 13.2338 3.42856 12.9763 3.25941C11.9202 2.56588 10.5403 2.60306 9.48003 3.3233C9.22072 3.49946 8.96849 3.75177 8.57432 4.14605L8.57431 4.14606L8.52854 4.19183L7.86858 4.8518C7.6603 5.06008 7.6603 5.39777 7.86858 5.60605C8.07686 5.81433 8.41455 5.81433 8.62283 5.60605L9.28279 4.94608ZM4.19162 8.52876L4.14584 8.57453L4.14584 8.57453C3.75155 8.9687 3.49925 9.22093 3.32309 9.48024C2.60285 10.5405 2.56567 11.9204 3.2592 12.9765C3.42834 13.234 3.67485 13.4804 4.04971 13.8552L4.04973 13.8552L4.09734 13.9028L4.14495 13.9504C4.51966 14.3253 4.76608 14.5718 5.02363 14.7409C6.07968 15.4344 7.45963 15.3973 8.51987 14.677C8.77918 14.5009 9.03141 14.2486 9.42558 13.8543L9.42559 13.8543L9.47135 13.8085L10.1313 13.1485C10.3396 12.9402 10.3396 12.6026 10.1313 12.3943C9.92304 12.186 9.58535 12.186 9.37707 12.3943L8.71711 13.0542C8.26164 13.5097 8.08514 13.6828 7.92048 13.7947C7.19904 14.2848 6.28686 14.2944 5.60916 13.8493C5.45528 13.7483 5.29094 13.5879 4.85159 13.1485C4.41224 12.7092 4.25185 12.5448 4.15079 12.3909C3.70573 11.7132 3.71533 10.8011 4.20543 10.0796C4.31728 9.91497 4.4904 9.73847 4.94587 9.283L5.60584 8.62304C5.81412 8.41476 5.81412 8.07707 5.60584 7.86879C5.39756 7.66051 5.05987 7.66051 4.85159 7.86879L4.19162 8.52876Z" fill="black" fill-opacity="0.7"/>
</svg>