<svg xmlns="http://www.w3.org/2000/svg" xmlns:xlink="http://www.w3.org/1999/xlink" viewBox="0 0 252 248" width="252" height="248" preserveAspectRatio="xMidYMid meet" style="width: 100%; height: 100%; transform: translate3d(0px, 0px, 0px); content-visibility: visible;"><defs><clipPath id="__lottie_element_278"><rect width="252" height="248" x="0" y="0"/></clipPath><clipPath id="__lottie_element_292"><path d="M0,0 L220,0 L220,29 L0,29z"/></clipPath><clipPath id="__lottie_element_296"><path d="M0,0 L236,0 L236,32 L0,32z"/></clipPath><clipPath id="__lottie_element_300"><path d="M0,0 L236,0 L236,32 L0,32z"/></clipPath><clipPath id="__lottie_element_304"><path d="M0,0 L236,0 L236,32 L0,32z"/></clipPath><clipPath id="__lottie_element_308"><path d="M0,0 L236,0 L236,32 L0,32z"/></clipPath><clipPath id="__lottie_element_315"><path d="M0,0 L40,0 L40,40 L0,40z"/></clipPath><clipPath id="__lottie_element_337"><path d="M0,0 L24,0 L24,24 L0,24z"/></clipPath><clipPath id="__lottie_element_341"><path d="M0,0 L15,0 L15,15 L0,15z"/></clipPath><clipPath id="__lottie_element_345"><path d="M0,0 L15,0 L15,15 L0,15z"/></clipPath><clipPath id="__lottie_element_370"><path d="M0,0 L24,0 L24,24 L0,24z"/></clipPath><clipPath id="__lottie_element_377"><path d="M0,0 L15,0 L15,15 L0,15z"/></clipPath><clipPath id="__lottie_element_381"><path d="M0,0 L15,0 L15,15 L0,15z"/></clipPath><clipPath id="__lottie_element_409"><path d="M0,0 L15,0 L15,15 L0,15z"/></clipPath><clipPath id="__lottie_element_413"><path d="M0,0 L15,0 L15,15 L0,15z"/></clipPath><clipPath id="__lottie_element_417"><path d="M0,0 L24,0 L24,24 L0,24z"/></clipPath><clipPath id="__lottie_element_442"><path d="M0,0 L24,0 L24,24 L0,24z"/></clipPath><clipPath id="__lottie_element_449"><path d="M0,0 L15,0 L15,15 L0,15z"/></clipPath></defs><g clip-path="url(#__lottie_element_278)"><g transform="matrix(1,0,0,1,126,124)" opacity="1" style="display: block;"><g opacity="1" transform="matrix(1,0,0,1,0,0)"><path fill="rgb(251,252,252)" fill-opacity="1" d=" M126,-124 C126,-124 126,124 126,124 C126,124 -126,124 -126,124 C-126,124 -126,-124 -126,-124 C-126,-124 126,-124 126,-124z"/></g></g><g style="display: none;"><g><path/></g></g><g style="display: none;"><g><path/></g></g><g style="display: none;"><g><path/></g></g><g clip-path="url(#__lottie_element_292)" transform="matrix(1,0,0,1,16,203)" opacity="1" style="display: block;"><g transform="matrix(1,0,0,1,110,14.5)" opacity="1" style="display: block;"><g opacity="1" transform="matrix(1,0,0,1,0,0)"><path fill="rgb(245,246,248)" fill-opacity="1" d=" M110,-6.5 C110,-6.5 110,6.5 110,6.5 C110,10.915200233459473 106.41519927978516,14.5 102,14.5 C102,14.5 -102,14.5 -102,14.5 C-106.41519927978516,14.5 -110,10.915200233459473 -110,6.5 C-110,6.5 -110,-6.5 -110,-6.5 C-110,-10.915200233459473 -106.41519927978516,-14.5 -102,-14.5 C-102,-14.5 102,-14.5 102,-14.5 C106.41519927978516,-14.5 110,-10.915200233459473 110,-6.5z"/></g></g><g transform="matrix(1,0,0,1,13.5,14.5)" opacity="1" style="display: block;"><g opacity="1" transform="matrix(1,0,0,1,0,0)"><path fill="rgb(160,160,166)" fill-opacity="1" d=" M-1,3.5 C0.06300000101327896,3.5 1.0390000343322754,3.131999969482422 1.809000015258789,2.5160000324249268 C1.809000015258789,2.5160000324249268 4.645999908447266,5.354000091552734 4.645999908447266,5.354000091552734 C4.841000080108643,5.548999786376953 5.158999919891357,5.548999786376953 5.354000091552734,5.354000091552734 C5.548999786376953,5.158999919891357 5.548999786376953,4.841000080108643 5.354000091552734,4.645999908447266 C5.354000091552734,4.645999908447266 2.5160000324249268,1.809000015258789 2.5160000324249268,1.809000015258789 C3.131999969482422,1.0390000343322754 3.5,0.06300000101327896 3.5,-1 C3.5,-3.484999895095825 1.4850000143051147,-5.5 -1,-5.5 C-3.484999895095825,-5.5 -5.5,-3.484999895095825 -5.5,-1 C-5.5,1.4850000143051147 -3.484999895095825,3.5 -1,3.5z"/></g></g><g transform="matrix(1,0,0,1,13.5,14.5)" opacity="1" style="display: block;"><g opacity="1" transform="matrix(1,0,0,1,0,0)"><path fill="rgb(245,246,248)" fill-opacity="1" d=" M-1,2.5 C0.9330000281333923,2.5 2.5,0.9330000281333923 2.5,-1 C2.5,-2.933000087738037 0.9330000281333923,-4.5 -1,-4.5 C-2.933000087738037,-4.5 -4.5,-2.933000087738037 -4.5,-1 C-4.5,0.9330000281333923 -2.933000087738037,2.5 -1,2.5z"/></g></g><g transform="matrix(1,0,0,1,50.5,19.388999938964844)" opacity="1" fill="rgb(192,192,195)" font-size="14" font-family="Inter" font-style="normal" font-weight="400" aria-label="Search" style="display: block;"><g stroke-linecap="butt" stroke-linejoin="round" stroke-miterlimit="4" transform="matrix(1,0,0,1,-23.5,-0.31829833984375)" opacity="1" style="display: inherit;"><g><g transform="matrix(1,0,0,1,0,0)" opacity="1" style="display: block;"><path d=" M7.99,-7.64 C7.98,-8.15 7.82,-8.61 7.52,-9.01 C7.22,-9.42 6.81,-9.74 6.3,-9.97 C5.79,-10.2 5.21,-10.32 4.55,-10.32 C3.9,-10.32 3.32,-10.2 2.79,-9.97 C2.27,-9.73 1.85,-9.4 1.54,-8.97 C1.23,-8.55 1.07,-8.05 1.07,-7.48 C1.07,-6.79 1.31,-6.24 1.77,-5.81 C2.23,-5.39 2.86,-5.06 3.66,-4.83 C3.66,-4.83 4.91,-4.47 4.91,-4.47 C5.27,-4.38 5.6,-4.26 5.91,-4.13 C6.22,-3.99 6.47,-3.82 6.66,-3.61 C6.85,-3.4 6.94,-3.12 6.94,-2.78 C6.94,-2.41 6.83,-2.09 6.61,-1.81 C6.39,-1.54 6.1,-1.32 5.72,-1.17 C5.35,-1.01 4.93,-0.93 4.45,-0.93 C4.05,-0.93 3.67,-1 3.32,-1.12 C2.97,-1.24 2.69,-1.42 2.46,-1.67 C2.23,-1.92 2.1,-2.24 2.07,-2.63 C2.07,-2.63 0.8,-2.63 0.8,-2.63 C0.84,-2.07 1.01,-1.58 1.31,-1.16 C1.61,-0.74 2.03,-0.41 2.56,-0.17 C3.09,0.06 3.73,0.18 4.45,0.18 C5.24,0.18 5.9,0.05 6.45,-0.21 C7,-0.48 7.42,-0.83 7.7,-1.27 C7.99,-1.72 8.13,-2.21 8.13,-2.76 C8.13,-3.24 8.04,-3.64 7.84,-3.97 C7.64,-4.3 7.4,-4.57 7.1,-4.78 C6.8,-4.99 6.48,-5.16 6.16,-5.28 C5.83,-5.4 5.54,-5.5 5.27,-5.57 C5.27,-5.57 4.24,-5.85 4.24,-5.85 C4.05,-5.9 3.84,-5.96 3.61,-6.04 C3.39,-6.12 3.17,-6.23 2.97,-6.36 C2.76,-6.48 2.59,-6.64 2.46,-6.84 C2.33,-7.03 2.27,-7.27 2.27,-7.54 C2.27,-7.86 2.36,-8.15 2.55,-8.41 C2.74,-8.66 3,-8.86 3.33,-9.01 C3.67,-9.15 4.06,-9.23 4.51,-9.23 C5.13,-9.23 5.65,-9.09 6.08,-8.81 C6.5,-8.53 6.74,-8.14 6.8,-7.64 C6.8,-7.64 7.99,-7.64 7.99,-7.64z"/><g opacity="1" transform="matrix(0.14000000059604645,0,0,0.14000000059604645,0,0)"/></g></g></g><g stroke-linecap="butt" stroke-linejoin="round" stroke-miterlimit="4" transform="matrix(1,0,0,1,-14.570799827575684,-0.31829833984375)" opacity="1" style="display: inherit;"><g><g transform="matrix(1,0,0,1,0,0)" opacity="1" style="display: block;"><path d=" M5.67,-0.08 C6.09,-0.24 6.43,-0.47 6.72,-0.76 C7,-1.05 7.2,-1.39 7.32,-1.77 C7.32,-1.77 6.18,-2.09 6.18,-2.09 C6.09,-1.82 5.94,-1.6 5.76,-1.42 C5.58,-1.25 5.36,-1.11 5.11,-1.03 C4.86,-0.94 4.58,-0.89 4.28,-0.89 C3.8,-0.89 3.39,-1 3.03,-1.21 C2.67,-1.41 2.39,-1.72 2.19,-2.12 C1.99,-2.51 1.89,-3 1.89,-3.58 C1.89,-3.58 1.89,-4.26 1.89,-4.26 C1.89,-4.68 1.98,-5.07 2.16,-5.44 C2.34,-5.81 2.61,-6.11 2.95,-6.34 C3.29,-6.57 3.69,-6.68 4.16,-6.68 C4.58,-6.68 4.95,-6.58 5.26,-6.39 C5.58,-6.19 5.82,-5.93 5.99,-5.59 C6.16,-5.25 6.24,-4.87 6.24,-4.43 C6.24,-4.43 1.55,-4.43 1.55,-4.43 C1.55,-4.43 1.55,-3.42 1.55,-3.42 C1.55,-3.42 7.44,-3.42 7.44,-3.42 C7.44,-3.42 7.44,-3.92 7.44,-3.92 C7.44,-4.63 7.34,-5.23 7.15,-5.72 C6.97,-6.2 6.71,-6.6 6.39,-6.89 C6.08,-7.19 5.72,-7.4 5.33,-7.54 C4.95,-7.67 4.55,-7.74 4.16,-7.74 C3.47,-7.74 2.86,-7.57 2.35,-7.23 C1.83,-6.89 1.43,-6.43 1.15,-5.83 C0.86,-5.23 0.72,-4.54 0.72,-3.76 C0.72,-2.98 0.86,-2.29 1.15,-1.7 C1.43,-1.11 1.84,-0.66 2.37,-0.33 C2.91,0 3.54,0.16 4.28,0.16 C4.79,0.16 5.26,0.08 5.67,-0.08z"/><g opacity="1" transform="matrix(0.14000000059604645,0,0,0.14000000059604645,0,0)"/></g></g></g><g stroke-linecap="butt" stroke-linejoin="round" stroke-miterlimit="4" transform="matrix(1,0,0,1,-6.417200088500977,-0.31829833984375)" opacity="1" style="display: inherit;"><g><g transform="matrix(1,0,0,1,0,0)" opacity="1" style="display: block;"><path d=" M2.34,-1.19 C2.04,-1.39 1.89,-1.7 1.89,-2.11 C1.89,-2.41 1.97,-2.64 2.13,-2.82 C2.29,-2.99 2.5,-3.12 2.77,-3.21 C3.03,-3.3 3.31,-3.36 3.62,-3.4 C3.75,-3.42 3.91,-3.44 4.11,-3.46 C4.32,-3.49 4.53,-3.52 4.75,-3.55 C4.96,-3.59 5.15,-3.63 5.32,-3.68 C5.49,-3.72 5.6,-3.78 5.65,-3.84 C5.65,-3.84 5.65,-2.76 5.65,-2.76 C5.65,-2.45 5.57,-2.14 5.4,-1.85 C5.24,-1.57 5,-1.33 4.68,-1.15 C4.36,-0.97 3.96,-0.88 3.5,-0.88 C3.03,-0.88 2.65,-0.98 2.34,-1.19z M4.45,-0.02 C4.76,-0.15 5,-0.31 5.19,-0.5 C5.38,-0.69 5.51,-0.87 5.59,-1.03 C5.59,-1.03 5.65,-1.03 5.65,-1.03 C5.65,-1.03 5.65,0 5.65,0 C5.65,0 6.82,0 6.82,0 C6.82,0 6.82,-5.03 6.82,-5.03 C6.82,-5.64 6.72,-6.12 6.52,-6.48 C6.32,-6.84 6.07,-7.11 5.77,-7.29 C5.47,-7.47 5.16,-7.59 4.84,-7.65 C4.52,-7.71 4.24,-7.74 4,-7.74 C3.61,-7.74 3.22,-7.68 2.83,-7.58 C2.43,-7.47 2.07,-7.29 1.73,-7.03 C1.4,-6.77 1.13,-6.41 0.93,-5.95 C0.93,-5.95 2.05,-5.55 2.05,-5.55 C2.18,-5.83 2.4,-6.09 2.72,-6.33 C3.04,-6.58 3.48,-6.7 4.04,-6.7 C4.58,-6.7 4.98,-6.57 5.25,-6.29 C5.51,-6.02 5.65,-5.64 5.65,-5.15 C5.65,-5.15 5.65,-5.11 5.65,-5.11 C5.65,-4.92 5.58,-4.79 5.45,-4.71 C5.31,-4.64 5.1,-4.58 4.81,-4.55 C4.52,-4.52 4.14,-4.47 3.68,-4.41 C3.32,-4.37 2.97,-4.31 2.62,-4.23 C2.27,-4.15 1.95,-4.03 1.67,-3.88 C1.38,-3.72 1.15,-3.51 0.97,-3.23 C0.8,-2.96 0.72,-2.61 0.72,-2.17 C0.72,-1.67 0.83,-1.25 1.06,-0.9 C1.3,-0.55 1.61,-0.28 2,-0.1 C2.4,0.09 2.84,0.18 3.32,0.18 C3.77,0.18 4.14,0.11 4.45,-0.02z"/><g opacity="1" transform="matrix(0.14000000059604645,0,0,0.14000000059604645,0,0)"/></g></g></g><g stroke-linecap="butt" stroke-linejoin="round" stroke-miterlimit="4" transform="matrix(1,0,0,1,1.4773997068405151,-0.31829833984375)" opacity="1" style="display: inherit;"><g><g transform="matrix(1,0,0,1,0,0)" opacity="1" style="display: block;"><path d=" M2.25,0 C2.25,0 2.25,-4.83 2.25,-4.83 C2.25,-5.18 2.33,-5.48 2.5,-5.75 C2.67,-6.02 2.89,-6.24 3.18,-6.39 C3.47,-6.55 3.8,-6.62 4.18,-6.62 C4.33,-6.62 4.48,-6.61 4.62,-6.59 C4.76,-6.57 4.85,-6.55 4.89,-6.54 C4.89,-6.54 4.89,-7.74 4.89,-7.74 C4.83,-7.74 4.73,-7.75 4.6,-7.75 C4.47,-7.75 4.36,-7.76 4.28,-7.76 C3.82,-7.76 3.41,-7.64 3.04,-7.4 C2.68,-7.17 2.43,-6.86 2.29,-6.48 C2.29,-6.48 2.21,-6.48 2.21,-6.48 C2.21,-6.48 2.21,-7.64 2.21,-7.64 C2.21,-7.64 1.07,-7.64 1.07,-7.64 C1.07,-7.64 1.07,0 1.07,0 C1.07,0 2.25,0 2.25,0z"/><g opacity="1" transform="matrix(0.14000000059604645,0,0,0.14000000059604645,0,0)"/></g></g></g><g stroke-linecap="butt" stroke-linejoin="round" stroke-miterlimit="4" transform="matrix(1,0,0,1,6.688199996948242,-0.31829833984375)" opacity="1" style="display: inherit;"><g><g transform="matrix(1,0,0,1,0,0)" opacity="1" style="display: block;"><path d=" M5.66,-0.16 C6.09,-0.37 6.43,-0.65 6.69,-1.01 C6.95,-1.37 7.11,-1.78 7.18,-2.23 C7.18,-2.23 6.01,-2.23 6.01,-2.23 C5.93,-1.95 5.81,-1.71 5.64,-1.51 C5.47,-1.31 5.26,-1.16 5.01,-1.05 C4.76,-0.95 4.48,-0.89 4.18,-0.89 C3.71,-0.89 3.31,-1.02 2.97,-1.26 C2.62,-1.5 2.36,-1.84 2.17,-2.28 C1.98,-2.71 1.89,-3.23 1.89,-3.82 C1.89,-4.39 1.98,-4.9 2.18,-5.33 C2.37,-5.76 2.63,-6.09 2.98,-6.33 C3.32,-6.56 3.72,-6.68 4.18,-6.68 C4.69,-6.68 5.1,-6.55 5.41,-6.28 C5.72,-6.01 5.92,-5.7 6.01,-5.35 C6.01,-5.35 7.18,-5.35 7.18,-5.35 C7.11,-5.83 6.94,-6.24 6.67,-6.6 C6.39,-6.96 6.04,-7.24 5.61,-7.44 C5.18,-7.64 4.69,-7.74 4.16,-7.74 C3.47,-7.74 2.86,-7.57 2.35,-7.23 C1.83,-6.89 1.43,-6.43 1.15,-5.83 C0.86,-5.24 0.72,-4.55 0.72,-3.78 C0.72,-3.02 0.86,-2.34 1.13,-1.74 C1.41,-1.15 1.81,-0.69 2.33,-0.35 C2.84,-0.01 3.46,0.16 4.18,0.16 C4.74,0.16 5.23,0.05 5.66,-0.16z"/><g opacity="1" transform="matrix(0.14000000059604645,0,0,0.14000000059604645,0,0)"/></g></g></g><g stroke-linecap="butt" stroke-linejoin="round" stroke-miterlimit="4" transform="matrix(1,0,0,1,14.502999305725098,-0.31829833984375)" opacity="1" style="display: inherit;"><g><g transform="matrix(1,0,0,1,0,0)" opacity="1" style="display: block;"><path d=" M2.51,-5.73 C2.68,-6.04 2.92,-6.28 3.22,-6.44 C3.53,-6.6 3.87,-6.68 4.26,-6.68 C4.81,-6.68 5.24,-6.52 5.56,-6.18 C5.87,-5.85 6.03,-5.38 6.03,-4.77 C6.03,-4.77 6.03,0 6.03,0 C6.03,0 7.2,0 7.2,0 C7.2,0 7.2,-4.85 7.2,-4.85 C7.2,-5.51 7.09,-6.05 6.87,-6.48 C6.66,-6.9 6.35,-7.22 5.96,-7.43 C5.57,-7.63 5.11,-7.74 4.59,-7.74 C3.99,-7.74 3.51,-7.62 3.15,-7.39 C2.79,-7.15 2.53,-6.84 2.35,-6.44 C2.35,-6.44 2.25,-6.44 2.25,-6.44 C2.25,-6.44 2.25,-10.18 2.25,-10.18 C2.25,-10.18 1.07,-10.18 1.07,-10.18 C1.07,-10.18 1.07,0 1.07,0 C1.07,0 2.25,0 2.25,0 C2.25,0 2.25,-4.59 2.25,-4.59 C2.25,-5.04 2.33,-5.42 2.51,-5.73z"/><g opacity="1" transform="matrix(0.14000000059604645,0,0,0.14000000059604645,0,0)"/></g></g></g></g></g><g clip-path="url(#__lottie_element_296)" transform="matrix(1,0,0,1,8,155)" opacity="1" style="display: block;"><g transform="matrix(1,0,0,1,118,16)" opacity="1" style="display: block;"><g opacity="1" transform="matrix(1,0,0,1,0,0)"/></g><g transform="matrix(1,0,0,1,134,21.180999755859375)" opacity="1" fill="rgb(100,100,107)" font-size="14" font-family="Inter" font-style="normal" font-weight="500" aria-label="Philip" style="display: block;"><g stroke-linecap="butt" stroke-linejoin="round" stroke-miterlimit="4" transform="matrix(1,0,0,1,-94,-0.31829833984375)" opacity="1" style="display: inherit;"><g><g transform="matrix(1,0,0,1,0,0)" opacity="1" style="display: block;"><path d=" M2.65,0 C2.65,0 2.65,-8.86 2.65,-8.86 C2.65,-8.86 4.58,-8.86 4.58,-8.86 C5.09,-8.86 5.51,-8.78 5.82,-8.61 C6.13,-8.44 6.36,-8.21 6.51,-7.91 C6.65,-7.61 6.73,-7.27 6.73,-6.89 C6.73,-6.5 6.65,-6.16 6.51,-5.86 C6.36,-5.55 6.13,-5.32 5.82,-5.14 C5.51,-4.97 5.1,-4.88 4.6,-4.88 C4.6,-4.88 2.25,-4.88 2.25,-4.88 C2.25,-4.88 2.25,-3.58 2.25,-3.58 C2.25,-3.58 4.74,-3.58 4.74,-3.58 C5.53,-3.58 6.19,-3.72 6.71,-4.01 C7.23,-4.3 7.62,-4.7 7.88,-5.2 C8.14,-5.7 8.27,-6.26 8.27,-6.89 C8.27,-7.51 8.14,-8.07 7.88,-8.57 C7.63,-9.07 7.24,-9.46 6.72,-9.75 C6.2,-10.04 5.54,-10.18 4.75,-10.18 C4.75,-10.18 1.12,-10.18 1.12,-10.18 C1.12,-10.18 1.12,0 1.12,0 C1.12,0 2.65,0 2.65,0z"/><g opacity="1" transform="matrix(0.14000000059604645,0,0,0.14000000059604645,0,0)"/></g></g></g><g stroke-linecap="butt" stroke-linejoin="round" stroke-miterlimit="4" transform="matrix(1,0,0,1,-85.05120086669922,-0.31829833984375)" opacity="1" style="display: inherit;"><g><g transform="matrix(1,0,0,1,0,0)" opacity="1" style="display: block;"><path d=" M2.72,-5.57 C2.88,-5.86 3.1,-6.08 3.37,-6.22 C3.65,-6.37 3.96,-6.45 4.32,-6.45 C4.83,-6.45 5.23,-6.29 5.52,-5.98 C5.81,-5.67 5.95,-5.24 5.95,-4.68 C5.95,-4.68 5.95,0 5.95,0 C5.95,0 7.44,0 7.44,0 C7.44,0 7.44,-4.86 7.44,-4.86 C7.44,-5.49 7.33,-6.02 7.11,-6.45 C6.89,-6.88 6.59,-7.2 6.2,-7.41 C5.8,-7.63 5.35,-7.74 4.82,-7.74 C4.23,-7.74 3.75,-7.61 3.38,-7.37 C3.01,-7.13 2.74,-6.8 2.56,-6.39 C2.56,-6.39 2.47,-6.39 2.47,-6.39 C2.47,-6.39 2.47,-10.18 2.47,-10.18 C2.47,-10.18 1,-10.18 1,-10.18 C1,-10.18 1,0 1,0 C1,0 2.49,0 2.49,0 C2.49,0 2.49,-4.53 2.49,-4.53 C2.49,-4.94 2.56,-5.28 2.72,-5.57z"/><g opacity="1" transform="matrix(0.14000000059604645,0,0,0.14000000059604645,0,0)"/></g></g></g><g stroke-linecap="butt" stroke-linejoin="round" stroke-miterlimit="4" transform="matrix(1,0,0,1,-76.62459564208984,-0.31829833984375)" opacity="1" style="display: inherit;"><g><g transform="matrix(1,0,0,1,0,0)" opacity="1" style="display: block;"><path d=" M2.41,-9.08 C2.6,-9.25 2.69,-9.46 2.69,-9.7 C2.69,-9.94 2.6,-10.15 2.41,-10.33 C2.23,-10.5 2.01,-10.59 1.75,-10.59 C1.49,-10.59 1.27,-10.5 1.09,-10.33 C0.9,-10.15 0.81,-9.94 0.81,-9.7 C0.81,-9.46 0.9,-9.25 1.09,-9.08 C1.27,-8.9 1.49,-8.81 1.75,-8.81 C2.01,-8.81 2.23,-8.9 2.41,-9.08z M2.49,0 C2.49,0 2.49,-7.64 2.49,-7.64 C2.49,-7.64 1,-7.64 1,-7.64 C1,-7.64 1,0 1,0 C1,0 2.49,0 2.49,0z"/><g opacity="1" transform="matrix(0.14000000059604645,0,0,0.14000000059604645,0,0)"/></g></g></g><g stroke-linecap="butt" stroke-linejoin="round" stroke-miterlimit="4" transform="matrix(1,0,0,1,-73.13999938964844,-0.31829833984375)" opacity="1" style="display: inherit;"><g><g transform="matrix(1,0,0,1,0,0)" opacity="1" style="display: block;"><path d=" M1,-10.18 C1,-10.18 1,0 1,0 C1,0 2.49,0 2.49,0 C2.49,0 2.49,-10.18 2.49,-10.18 C2.49,-10.18 1,-10.18 1,-10.18z"/><g opacity="1" transform="matrix(0.14000000059604645,0,0,0.14000000059604645,0,0)"/></g></g></g><g stroke-linecap="butt" stroke-linejoin="round" stroke-miterlimit="4" transform="matrix(1,0,0,1,-69.6553955078125,-0.31829833984375)" opacity="1" style="display: inherit;"><g><g transform="matrix(1,0,0,1,0,0)" opacity="1" style="display: block;"><path d=" M2.41,-9.08 C2.6,-9.25 2.69,-9.46 2.69,-9.7 C2.69,-9.94 2.6,-10.15 2.41,-10.33 C2.23,-10.5 2.01,-10.59 1.75,-10.59 C1.49,-10.59 1.27,-10.5 1.09,-10.33 C0.9,-10.15 0.81,-9.94 0.81,-9.7 C0.81,-9.46 0.9,-9.25 1.09,-9.08 C1.27,-8.9 1.49,-8.81 1.75,-8.81 C2.01,-8.81 2.23,-8.9 2.41,-9.08z M2.49,0 C2.49,0 2.49,-7.64 2.49,-7.64 C2.49,-7.64 1,-7.64 1,-7.64 C1,-7.64 1,0 1,0 C1,0 2.49,0 2.49,0z"/><g opacity="1" transform="matrix(0.14000000059604645,0,0,0.14000000059604645,0,0)"/></g></g></g><g stroke-linecap="butt" stroke-linejoin="round" stroke-miterlimit="4" transform="matrix(1,0,0,1,-66.1707992553711,-0.31829833984375)" opacity="1" style="display: inherit;"><g><g transform="matrix(1,0,0,1,0,0)" opacity="1" style="display: block;"><path d=" M2.68,-5.21 C2.84,-5.61 3.06,-5.92 3.36,-6.14 C3.65,-6.36 4.02,-6.47 4.45,-6.47 C4.9,-6.47 5.27,-6.36 5.57,-6.13 C5.87,-5.89 6.1,-5.58 6.25,-5.18 C6.4,-4.77 6.47,-4.32 6.47,-3.82 C6.47,-3.31 6.4,-2.85 6.24,-2.44 C6.09,-2.03 5.86,-1.71 5.56,-1.47 C5.26,-1.24 4.89,-1.12 4.45,-1.12 C4.02,-1.12 3.66,-1.23 3.37,-1.46 C3.07,-1.69 2.85,-2 2.69,-2.41 C2.53,-2.81 2.46,-3.28 2.46,-3.82 C2.46,-4.35 2.53,-4.81 2.68,-5.21z M2.49,2.86 C2.49,2.86 2.49,-1.19 2.49,-1.19 C2.49,-1.19 2.58,-1.19 2.58,-1.19 C2.66,-1.03 2.79,-0.84 2.96,-0.63 C3.12,-0.42 3.35,-0.24 3.65,-0.08 C3.94,0.07 4.32,0.15 4.78,0.15 C5.4,0.15 5.95,-0.01 6.43,-0.33 C6.91,-0.64 7.29,-1.09 7.56,-1.68 C7.84,-2.27 7.97,-2.98 7.97,-3.8 C7.97,-4.63 7.84,-5.33 7.56,-5.92 C7.28,-6.51 6.9,-6.96 6.42,-7.27 C5.93,-7.58 5.38,-7.74 4.77,-7.74 C4.29,-7.74 3.91,-7.66 3.62,-7.5 C3.34,-7.34 3.11,-7.16 2.95,-6.95 C2.79,-6.74 2.66,-6.56 2.58,-6.4 C2.58,-6.4 2.45,-6.4 2.45,-6.4 C2.45,-6.4 2.45,-7.64 2.45,-7.64 C2.45,-7.64 1,-7.64 1,-7.64 C1,-7.64 1,2.86 1,2.86 C1,2.86 2.49,2.86 2.49,2.86z"/><g opacity="1" transform="matrix(0.14000000059604645,0,0,0.14000000059604645,0,0)"/></g></g></g></g><g clip-path="url(#__lottie_element_337)" transform="matrix(1,0,0,1,8,4)" opacity="1" style="display: block;"><g transform="matrix(1,0,0,1,12,12)" opacity="1" style="display: block;"><g opacity="1" transform="matrix(1,0,0,1,0,0)"><path fill="rgb(45,116,192)" fill-opacity="1" d=" M12,0 C12,0 12,0 12,0 C12,6.622799873352051 6.622799873352051,12 0,12 C0,12 0,12 0,12 C-6.622799873352051,12 -12,6.622799873352051 -12,0 C-12,0 -12,0 -12,0 C-12,-6.622799873352051 -6.622799873352051,-12 0,-12 C0,-12 0,-12 0,-12 C6.622799873352051,-12 12,-6.622799873352051 12,0z"/></g></g><g transform="matrix(1,0,0,1,13.291999816894531,13.909000396728516)" opacity="1" fill="rgb(255,255,255)" font-size="14" font-family="Inter" font-style="normal" font-weight="normal" aria-label="P" style="display: block;"><g stroke-linecap="butt" stroke-linejoin="round" stroke-miterlimit="4" transform="matrix(1,0,0,1,-5.499999523162842,3.18170166015625)" opacity="1" style="display: inherit;"><g><g transform="matrix(1,0,0,1,0,0)" opacity="1" style="display: block;"><path d=" M2.85,0 C2.85,0 2.85,-8.64 2.85,-8.64 C2.85,-8.64 4.54,-8.64 4.54,-8.64 C5,-8.64 5.38,-8.56 5.67,-8.41 C5.96,-8.26 6.18,-8.04 6.32,-7.77 C6.46,-7.49 6.53,-7.17 6.53,-6.81 C6.53,-6.45 6.46,-6.13 6.32,-5.85 C6.18,-5.57 5.96,-5.35 5.67,-5.2 C5.38,-5.04 5.01,-4.96 4.55,-4.96 C4.55,-4.96 2.27,-4.96 2.27,-4.96 C2.27,-4.96 2.27,-3.44 2.27,-3.44 C2.27,-3.44 4.8,-3.44 4.8,-3.44 C5.58,-3.44 6.24,-3.59 6.78,-3.88 C7.32,-4.17 7.72,-4.56 8,-5.07 C8.27,-5.58 8.41,-6.16 8.41,-6.81 C8.41,-7.46 8.28,-8.03 8,-8.54 C7.73,-9.05 7.33,-9.45 6.79,-9.74 C6.26,-10.04 5.6,-10.18 4.82,-10.18 C4.82,-10.18 1,-10.18 1,-10.18 C1,-10.18 1,0 1,0 C1,0 2.85,0 2.85,0z"/><g opacity="1" transform="matrix(0.14000000059604645,0,0,0.14000000059604645,0,0)"/></g></g></g></g></g><g clip-path="url(#__lottie_element_341)" transform="matrix(1,0,0,1,213,8.5)" opacity="1" style="display: block;"><g transform="matrix(1,0,0,1,7.5,7.5)" opacity="1" style="display: block;"><g opacity="1" transform="matrix(1,0,0,1,0,0)"/></g><g transform="matrix(1,0,0,1,7.5,7.5)" opacity="1" style="display: block;"><g opacity="1" transform="matrix(1,0,0,1,0,0)"><path fill="rgb(20,20,21)" fill-opacity="1" d=" M0,-5.25 C0.2759999930858612,-5.25 0.5,-5.026000022888184 0.5,-4.75 C0.5,-4.75 0.5,-0.5 0.5,-0.5 C0.5,-0.5 4.75,-0.5 4.75,-0.5 C5.026000022888184,-0.5 5.25,-0.2759999930858612 5.25,0 C5.25,0.2759999930858612 5.026000022888184,0.5 4.75,0.5 C4.75,0.5 0.5,0.5 0.5,0.5 C0.5,0.5 0.5,4.75 0.5,4.75 C0.5,5.026000022888184 0.2759999930858612,5.25 0,5.25 C-0.2759999930858612,5.25 -0.5,5.026000022888184 -0.5,4.75 C-0.5,4.75 -0.5,0.5 -0.5,0.5 C-0.5,0.5 -4.75,0.5 -4.75,0.5 C-5.026000022888184,0.5 -5.25,0.2759999930858612 -5.25,0 C-5.25,-0.2759999930858612 -5.026000022888184,-0.5 -4.75,-0.5 C-4.75,-0.5 -0.5,-0.5 -0.5,-0.5 C-0.5,-0.5 -0.5,-4.75 -0.5,-4.75 C-0.5,-5.026000022888184 -0.2759999930858612,-5.25 0,-5.25z"/></g></g></g><g clip-path="url(#__lottie_element_345)" transform="matrix(0,0,0,0,220.5,16)" opacity="1" style="display: block;"><g transform="matrix(1,0,0,1,7.5,7.5)" opacity="1" style="display: block;"><g opacity="1" transform="matrix(1,0,0,1,0,0)"/></g><g transform="matrix(1,0,0,1,7.625,7.5)" opacity="1" style="display: block;"><g opacity="1" transform="matrix(1,0,0,1,0,0)"><path fill="rgb(3,151,84)" fill-opacity="1" d=" M4.0229997634887695,-2.9079999923706055 C4.211999893188477,-3.197000026702881 4.13100004196167,-3.5840001106262207 3.8420000076293945,-3.7730000019073486 C3.552999973297119,-3.9619998931884766 3.1659998893737793,-3.88100004196167 2.9769999980926514,-3.5920000076293945 C2.9769999980926514,-3.5920000076293945 -0.871999979019165,2.2939999103546143 -0.871999979019165,2.2939999103546143 C-0.871999979019165,2.2939999103546143 -3.0799999237060547,0.2879999876022339 -3.0799999237060547,0.2879999876022339 C-3.3350000381469727,0.0560000017285347 -3.7300000190734863,0.07500000298023224 -3.9619998931884766,0.33000001311302185 C-4.193999767303467,0.5849999785423279 -4.175000190734863,0.9800000190734863 -3.9200000762939453,1.2120000123977661 C-3.9200000762939453,1.2120000123977661 -1.1699999570846558,3.7119998931884766 -1.1699999570846558,3.7119998931884766 C-1.034999966621399,3.8350000381469727 -0.8529999852180481,3.8929998874664307 -0.6710000038146973,3.869999885559082 C-0.48899999260902405,3.8469998836517334 -0.3269999921321869,3.744999885559082 -0.22699999809265137,3.5920000076293945 C-0.22699999809265137,3.5920000076293945 4.0229997634887695,-2.9079999923706055 4.0229997634887695,-2.9079999923706055z"/></g></g></g></g><g clip-path="url(#__lottie_element_300)" transform="matrix(1,0,0,1,8,121)" opacity="1" style="display: block;"><g transform="matrix(1,0,0,1,118,16)" opacity="1" style="display: block;"><g opacity="1" transform="matrix(1,0,0,1,0,0)"/></g><g clip-path="url(#__lottie_element_370)" transform="matrix(1,0,0,1,8,4)" opacity="1" style="display: block;"><g transform="matrix(1,0,0,1,12,12)" opacity="1" style="display: block;"><g opacity="1" transform="matrix(1,0,0,1,0,0)"><path fill="rgb(160,160,166)" fill-opacity="1" d=" M12,0 C12,0 12,0 12,0 C12,6.622799873352051 6.622799873352051,12 0,12 C0,12 0,12 0,12 C-6.622799873352051,12 -12,6.622799873352051 -12,0 C-12,0 -12,0 -12,0 C-12,-6.622799873352051 -6.622799873352051,-12 0,-12 C0,-12 0,-12 0,-12 C6.622799873352051,-12 12,-6.622799873352051 12,0z"/></g></g><g transform="matrix(1,0,0,1,12.312000274658203,13.909000396728516)" opacity="1" fill="rgb(29,29,35)" font-size="14" font-family="Inter" font-style="normal" font-weight="normal" aria-label="N" style="display: block;"><g stroke-linecap="butt" stroke-linejoin="round" stroke-miterlimit="4" transform="matrix(1,0,0,1,-5.500000476837158,3.18170166015625)" opacity="1" style="display: inherit;"><g><g transform="matrix(1,0,0,1,0,0)" opacity="1" style="display: block;"><path d=" M7.54,-10.18 C7.54,-10.18 7.54,-3.24 7.54,-3.24 C7.54,-3.24 7.45,-3.24 7.45,-3.24 C7.45,-3.24 2.65,-10.18 2.65,-10.18 C2.65,-10.18 1,-10.18 1,-10.18 C1,-10.18 1,0 1,0 C1,0 2.85,0 2.85,0 C2.85,0 2.85,-6.94 2.85,-6.94 C2.85,-6.94 2.93,-6.94 2.93,-6.94 C2.93,-6.94 7.73,0 7.73,0 C7.73,0 9.37,0 9.37,0 C9.37,0 9.37,-10.18 9.37,-10.18 C9.37,-10.18 7.54,-10.18 7.54,-10.18z"/><g opacity="1" transform="matrix(0.14000000059604645,0,0,0.14000000059604645,0,0)"/></g></g></g></g></g><g transform="matrix(1,0,0,1,134,20.180999755859375)" opacity="1" fill="rgb(100,100,107)" font-size="14" font-family="Inter" font-style="normal" font-weight="500" aria-label="Nikolaj" style="display: block;"><g stroke-linecap="butt" stroke-linejoin="round" stroke-miterlimit="4" transform="matrix(1,0,0,1,-94,-0.31829833984375)" opacity="1" style="display: inherit;"><g><g transform="matrix(1,0,0,1,0,0)" opacity="1" style="display: block;"><path d=" M7.82,-10.18 C7.82,-10.18 7.82,-2.7 7.82,-2.7 C7.82,-2.7 7.72,-2.7 7.72,-2.7 C7.72,-2.7 2.54,-10.18 2.54,-10.18 C2.54,-10.18 1.12,-10.18 1.12,-10.18 C1.12,-10.18 1.12,0 1.12,0 C1.12,0 2.65,0 2.65,0 C2.65,0 2.65,-7.47 2.65,-7.47 C2.65,-7.47 2.75,-7.47 2.75,-7.47 C2.75,-7.47 7.92,0 7.92,0 C7.92,0 9.34,0 9.34,0 C9.34,0 9.34,-10.18 9.34,-10.18 C9.34,-10.18 7.82,-10.18 7.82,-10.18z"/><g opacity="1" transform="matrix(0.14000000059604645,0,0,0.14000000059604645,0,0)"/></g></g></g><g stroke-linecap="butt" stroke-linejoin="round" stroke-miterlimit="4" transform="matrix(1,0,0,1,-83.5447998046875,-0.31829833984375)" opacity="1" style="display: inherit;"><g><g transform="matrix(1,0,0,1,0,0)" opacity="1" style="display: block;"><path d=" M2.41,-9.08 C2.6,-9.25 2.69,-9.46 2.69,-9.7 C2.69,-9.94 2.6,-10.15 2.41,-10.33 C2.23,-10.5 2.01,-10.59 1.75,-10.59 C1.49,-10.59 1.27,-10.5 1.09,-10.33 C0.9,-10.15 0.81,-9.94 0.81,-9.7 C0.81,-9.46 0.9,-9.25 1.09,-9.08 C1.27,-8.9 1.49,-8.81 1.75,-8.81 C2.01,-8.81 2.23,-8.9 2.41,-9.08z M2.49,0 C2.49,0 2.49,-7.64 2.49,-7.64 C2.49,-7.64 1,-7.64 1,-7.64 C1,-7.64 1,0 1,0 C1,0 2.49,0 2.49,0z"/><g opacity="1" transform="matrix(0.14000000059604645,0,0,0.14000000059604645,0,0)"/></g></g></g><g stroke-linecap="butt" stroke-linejoin="round" stroke-miterlimit="4" transform="matrix(1,0,0,1,-80.0602035522461,-0.31829833984375)" opacity="1" style="display: inherit;"><g><g transform="matrix(1,0,0,1,0,0)" opacity="1" style="display: block;"><path d=" M7.65,0 C7.65,0 4.11,-4.67 4.11,-4.67 C4.11,-4.67 3.09,-3.63 3.09,-3.63 C3.09,-3.63 5.82,0 5.82,0 C5.82,0 7.65,0 7.65,0z M2.49,0 C2.49,0 2.49,-10.18 2.49,-10.18 C2.49,-10.18 1,-10.18 1,-10.18 C1,-10.18 1,0 1,0 C1,0 2.49,0 2.49,0z M3.73,-3.96 C3.73,-3.96 3.97,-3.96 3.97,-3.96 C3.97,-3.96 7.44,-7.64 7.44,-7.64 C7.44,-7.64 5.66,-7.64 5.66,-7.64 C5.66,-7.64 2.62,-4.4 2.62,-4.4 C2.62,-4.4 2.36,-4.4 2.36,-4.4 C2.36,-4.4 2.37,-2.59 2.37,-2.59 C2.37,-2.59 3.73,-3.96 3.73,-3.96z"/><g opacity="1" transform="matrix(0.14000000059604645,0,0,0.14000000059604645,0,0)"/></g></g></g><g stroke-linecap="butt" stroke-linejoin="round" stroke-miterlimit="4" transform="matrix(1,0,0,1,-72.26919555664062,-0.31829833984375)" opacity="1" style="display: inherit;"><g><g transform="matrix(1,0,0,1,0,0)" opacity="1" style="display: block;"><path d=" M3.06,-1.46 C2.75,-1.71 2.53,-2.03 2.38,-2.44 C2.23,-2.85 2.16,-3.3 2.16,-3.79 C2.16,-4.28 2.23,-4.72 2.38,-5.13 C2.53,-5.54 2.75,-5.87 3.06,-6.12 C3.37,-6.37 3.75,-6.49 4.22,-6.49 C4.68,-6.49 5.07,-6.37 5.37,-6.12 C5.68,-5.87 5.91,-5.54 6.05,-5.13 C6.2,-4.72 6.27,-4.28 6.27,-3.79 C6.27,-3.3 6.2,-2.85 6.05,-2.44 C5.91,-2.03 5.68,-1.71 5.37,-1.46 C5.07,-1.22 4.68,-1.09 4.22,-1.09 C3.75,-1.09 3.37,-1.22 3.06,-1.46z M6.09,-0.34 C6.62,-0.67 7.04,-1.13 7.33,-1.72 C7.63,-2.31 7.78,-2.99 7.78,-3.78 C7.78,-4.58 7.63,-5.27 7.33,-5.86 C7.04,-6.45 6.62,-6.92 6.09,-7.24 C5.56,-7.57 4.93,-7.74 4.22,-7.74 C3.5,-7.74 2.88,-7.57 2.34,-7.24 C1.81,-6.92 1.39,-6.45 1.1,-5.86 C0.8,-5.27 0.66,-4.58 0.66,-3.78 C0.66,-2.99 0.8,-2.31 1.1,-1.72 C1.39,-1.13 1.81,-0.67 2.34,-0.34 C2.88,-0.01 3.5,0.15 4.22,0.15 C4.93,0.15 5.56,-0.01 6.09,-0.34z"/><g opacity="1" transform="matrix(0.14000000059604645,0,0,0.14000000059604645,0,0)"/></g></g></g><g stroke-linecap="butt" stroke-linejoin="round" stroke-miterlimit="4" transform="matrix(1,0,0,1,-63.83700180053711,-0.31829833984375)" opacity="1" style="display: inherit;"><g><g transform="matrix(1,0,0,1,0,0)" opacity="1" style="display: block;"><path d=" M1,-10.18 C1,-10.18 1,0 1,0 C1,0 2.49,0 2.49,0 C2.49,0 2.49,-10.18 2.49,-10.18 C2.49,-10.18 1,-10.18 1,-10.18z"/><g opacity="1" transform="matrix(0.14000000059604645,0,0,0.14000000059604645,0,0)"/></g></g></g><g stroke-linecap="butt" stroke-linejoin="round" stroke-miterlimit="4" transform="matrix(1,0,0,1,-60.35239791870117,-0.31829833984375)" opacity="1" style="display: inherit;"><g><g transform="matrix(1,0,0,1,0,0)" opacity="1" style="display: block;"><path d=" M2.51,-1.31 C2.23,-1.49 2.1,-1.77 2.1,-2.14 C2.1,-2.4 2.17,-2.62 2.31,-2.78 C2.45,-2.94 2.64,-3.06 2.88,-3.15 C3.11,-3.23 3.38,-3.29 3.66,-3.33 C3.79,-3.35 3.94,-3.37 4.12,-3.39 C4.3,-3.42 4.49,-3.45 4.68,-3.48 C4.88,-3.51 5.05,-3.55 5.2,-3.59 C5.35,-3.64 5.45,-3.69 5.5,-3.74 C5.5,-3.74 5.5,-2.75 5.5,-2.75 C5.5,-2.45 5.43,-2.17 5.27,-1.91 C5.12,-1.64 4.89,-1.43 4.6,-1.27 C4.31,-1.11 3.96,-1.02 3.54,-1.02 C3.12,-1.02 2.78,-1.12 2.51,-1.31z M4.31,-0.01 C4.61,-0.14 4.85,-0.29 5.05,-0.48 C5.24,-0.66 5.38,-0.85 5.48,-1.04 C5.48,-1.04 5.54,-1.04 5.54,-1.04 C5.54,-1.04 5.54,0 5.54,0 C5.54,0 6.99,0 6.99,0 C6.99,0 6.99,-5.07 6.99,-5.07 C6.99,-5.63 6.89,-6.08 6.7,-6.43 C6.51,-6.78 6.26,-7.05 5.96,-7.24 C5.66,-7.43 5.34,-7.56 5,-7.63 C4.66,-7.7 4.33,-7.74 4.03,-7.74 C3.57,-7.74 3.13,-7.67 2.71,-7.54 C2.29,-7.41 1.92,-7.2 1.6,-6.91 C1.28,-6.63 1.04,-6.25 0.88,-5.79 C0.88,-5.79 2.27,-5.47 2.27,-5.47 C2.38,-5.74 2.58,-5.98 2.87,-6.2 C3.15,-6.42 3.55,-6.53 4.05,-6.53 C4.53,-6.53 4.89,-6.41 5.13,-6.17 C5.38,-5.94 5.5,-5.6 5.5,-5.17 C5.5,-5.17 5.5,-5.13 5.5,-5.13 C5.5,-4.95 5.43,-4.82 5.3,-4.74 C5.18,-4.66 4.97,-4.61 4.68,-4.57 C4.4,-4.54 4.03,-4.49 3.57,-4.44 C3.21,-4.4 2.85,-4.33 2.51,-4.25 C2.16,-4.17 1.84,-4.05 1.56,-3.88 C1.28,-3.72 1.06,-3.5 0.89,-3.22 C0.72,-2.94 0.64,-2.59 0.64,-2.16 C0.64,-1.66 0.75,-1.23 0.98,-0.89 C1.21,-0.55 1.52,-0.28 1.91,-0.1 C2.3,0.08 2.74,0.17 3.22,0.17 C3.64,0.17 4,0.11 4.31,-0.01z"/><g opacity="1" transform="matrix(0.14000000059604645,0,0,0.14000000059604645,0,0)"/></g></g></g><g stroke-linecap="butt" stroke-linejoin="round" stroke-miterlimit="4" transform="matrix(1,0,0,1,-52.383602142333984,-0.31829833984375)" opacity="1" style="display: inherit;"><g><g transform="matrix(1,0,0,1,0,0)" opacity="1" style="display: block;"><path d=" M2.4,-9.08 C2.58,-9.25 2.67,-9.46 2.67,-9.7 C2.67,-9.94 2.58,-10.15 2.4,-10.33 C2.21,-10.5 1.99,-10.59 1.74,-10.59 C1.48,-10.59 1.26,-10.5 1.07,-10.33 C0.89,-10.15 0.8,-9.94 0.8,-9.7 C0.8,-9.46 0.89,-9.25 1.07,-9.08 C1.26,-8.9 1.48,-8.81 1.74,-8.81 C1.99,-8.81 2.21,-8.9 2.4,-9.08z M1,0.49 C1,0.84 0.92,1.11 0.76,1.3 C0.61,1.49 0.35,1.58 0,1.58 C-0.04,1.58 -0.08,1.58 -0.12,1.58 C-0.15,1.58 -0.19,1.58 -0.24,1.58 C-0.24,1.58 -0.24,2.86 -0.24,2.86 C-0.19,2.86 -0.13,2.86 -0.09,2.86 C-0.04,2.86 0.01,2.86 0.06,2.86 C0.59,2.86 1.03,2.77 1.39,2.59 C1.75,2.41 2.03,2.14 2.21,1.79 C2.39,1.44 2.49,1.01 2.49,0.5 C2.49,0.5 2.49,-7.64 2.49,-7.64 C2.49,-7.64 1,-7.64 1,-7.64 C1,-7.64 1,0.49 1,0.49z"/><g opacity="1" transform="matrix(0.14000000059604645,0,0,0.14000000059604645,0,0)"/></g></g></g></g><g clip-path="url(#__lottie_element_377)" transform="matrix(1,0,0,1,213,8.5)" opacity="1" style="display: block;"><g transform="matrix(1,0,0,1,7.5,7.5)" opacity="1" style="display: block;"><g opacity="1" transform="matrix(1,0,0,1,0,0)"/></g><g transform="matrix(1,0,0,1,7.5,7.5)" opacity="1" style="display: block;"><g opacity="1" transform="matrix(1,0,0,1,0,0)"><path fill="rgb(20,20,21)" fill-opacity="1" d=" M0,-5.25 C0.2759999930858612,-5.25 0.5,-5.026000022888184 0.5,-4.75 C0.5,-4.75 0.5,-0.5 0.5,-0.5 C0.5,-0.5 4.75,-0.5 4.75,-0.5 C5.026000022888184,-0.5 5.25,-0.2759999930858612 5.25,0 C5.25,0.2759999930858612 5.026000022888184,0.5 4.75,0.5 C4.75,0.5 0.5,0.5 0.5,0.5 C0.5,0.5 0.5,4.75 0.5,4.75 C0.5,5.026000022888184 0.2759999930858612,5.25 0,5.25 C-0.2759999930858612,5.25 -0.5,5.026000022888184 -0.5,4.75 C-0.5,4.75 -0.5,0.5 -0.5,0.5 C-0.5,0.5 -4.75,0.5 -4.75,0.5 C-5.026000022888184,0.5 -5.25,0.2759999930858612 -5.25,0 C-5.25,-0.2759999930858612 -5.026000022888184,-0.5 -4.75,-0.5 C-4.75,-0.5 -0.5,-0.5 -0.5,-0.5 C-0.5,-0.5 -0.5,-4.75 -0.5,-4.75 C-0.5,-5.026000022888184 -0.2759999930858612,-5.25 0,-5.25z"/></g></g></g><g clip-path="url(#__lottie_element_381)" transform="matrix(0,0,0,0,220.5,16)" opacity="1" style="display: block;"><g transform="matrix(1,0,0,1,7.5,7.5)" opacity="1" style="display: block;"><g opacity="1" transform="matrix(1,0,0,1,0,0)"/></g><g transform="matrix(1,0,0,1,7.625,7.5)" opacity="1" style="display: block;"><g opacity="1" transform="matrix(1,0,0,1,0,0)"><path fill="rgb(3,151,84)" fill-opacity="1" d=" M4.0229997634887695,-2.9079999923706055 C4.211999893188477,-3.197000026702881 4.13100004196167,-3.5840001106262207 3.8420000076293945,-3.7730000019073486 C3.552999973297119,-3.9619998931884766 3.1659998893737793,-3.88100004196167 2.9769999980926514,-3.5920000076293945 C2.9769999980926514,-3.5920000076293945 -0.871999979019165,2.2939999103546143 -0.871999979019165,2.2939999103546143 C-0.871999979019165,2.2939999103546143 -3.0799999237060547,0.2879999876022339 -3.0799999237060547,0.2879999876022339 C-3.3350000381469727,0.0560000017285347 -3.7300000190734863,0.07500000298023224 -3.9619998931884766,0.33000001311302185 C-4.193999767303467,0.5849999785423279 -4.175000190734863,0.9800000190734863 -3.9200000762939453,1.2120000123977661 C-3.9200000762939453,1.2120000123977661 -1.1699999570846558,3.7119998931884766 -1.1699999570846558,3.7119998931884766 C-1.034999966621399,3.8350000381469727 -0.8529999852180481,3.8929998874664307 -0.6710000038146973,3.869999885559082 C-0.48899999260902405,3.8469998836517334 -0.3269999921321869,3.744999885559082 -0.22699999809265137,3.5920000076293945 C-0.22699999809265137,3.5920000076293945 4.0229997634887695,-2.9079999923706055 4.0229997634887695,-2.9079999923706055z"/></g></g></g></g><g clip-path="url(#__lottie_element_304)" transform="matrix(1,0,0,1,8,87)" opacity="1" style="display: block;"><g transform="matrix(1,0,0,1,118,16)" opacity="1" style="display: block;"><g opacity="1" transform="matrix(1,0,0,1,0,0)"/></g><g transform="matrix(1,0,0,1,122.5,21.180999755859375)" opacity="1" fill="rgb(100,100,107)" font-size="14" font-family="Inter" font-style="normal" font-weight="500" aria-label="Nadja" style="display: block;"><g stroke-linecap="butt" stroke-linejoin="round" stroke-miterlimit="4" transform="matrix(1,0,0,1,-82.5,-0.31829833984375)" opacity="1" style="display: inherit;"><g><g transform="matrix(1,0,0,1,0,0)" opacity="1" style="display: block;"><path d=" M7.82,-10.18 C7.82,-10.18 7.82,-2.7 7.82,-2.7 C7.82,-2.7 7.72,-2.7 7.72,-2.7 C7.72,-2.7 2.54,-10.18 2.54,-10.18 C2.54,-10.18 1.12,-10.18 1.12,-10.18 C1.12,-10.18 1.12,0 1.12,0 C1.12,0 2.65,0 2.65,0 C2.65,0 2.65,-7.47 2.65,-7.47 C2.65,-7.47 2.75,-7.47 2.75,-7.47 C2.75,-7.47 7.92,0 7.92,0 C7.92,0 9.34,0 9.34,0 C9.34,0 9.34,-10.18 9.34,-10.18 C9.34,-10.18 7.82,-10.18 7.82,-10.18z"/><g opacity="1" transform="matrix(0.14000000059604645,0,0,0.14000000059604645,0,0)"/></g></g></g><g stroke-linecap="butt" stroke-linejoin="round" stroke-miterlimit="4" transform="matrix(1,0,0,1,-72.0447998046875,-0.31829833984375)" opacity="1" style="display: inherit;"><g><g transform="matrix(1,0,0,1,0,0)" opacity="1" style="display: block;"><path d=" M2.51,-1.31 C2.23,-1.49 2.1,-1.77 2.1,-2.14 C2.1,-2.4 2.17,-2.62 2.31,-2.78 C2.45,-2.94 2.64,-3.06 2.88,-3.15 C3.11,-3.23 3.38,-3.29 3.66,-3.33 C3.79,-3.35 3.94,-3.37 4.12,-3.39 C4.3,-3.42 4.49,-3.45 4.68,-3.48 C4.88,-3.51 5.05,-3.55 5.2,-3.59 C5.35,-3.64 5.45,-3.69 5.5,-3.74 C5.5,-3.74 5.5,-2.75 5.5,-2.75 C5.5,-2.45 5.43,-2.17 5.27,-1.91 C5.12,-1.64 4.89,-1.43 4.6,-1.27 C4.31,-1.11 3.96,-1.02 3.54,-1.02 C3.12,-1.02 2.78,-1.12 2.51,-1.31z M4.31,-0.01 C4.61,-0.14 4.85,-0.29 5.05,-0.48 C5.24,-0.66 5.38,-0.85 5.48,-1.04 C5.48,-1.04 5.54,-1.04 5.54,-1.04 C5.54,-1.04 5.54,0 5.54,0 C5.54,0 6.99,0 6.99,0 C6.99,0 6.99,-5.07 6.99,-5.07 C6.99,-5.63 6.89,-6.08 6.7,-6.43 C6.51,-6.78 6.26,-7.05 5.96,-7.24 C5.66,-7.43 5.34,-7.56 5,-7.63 C4.66,-7.7 4.33,-7.74 4.03,-7.74 C3.57,-7.74 3.13,-7.67 2.71,-7.54 C2.29,-7.41 1.92,-7.2 1.6,-6.91 C1.28,-6.63 1.04,-6.25 0.88,-5.79 C0.88,-5.79 2.27,-5.47 2.27,-5.47 C2.38,-5.74 2.58,-5.98 2.87,-6.2 C3.15,-6.42 3.55,-6.53 4.05,-6.53 C4.53,-6.53 4.89,-6.41 5.13,-6.17 C5.38,-5.94 5.5,-5.6 5.5,-5.17 C5.5,-5.17 5.5,-5.13 5.5,-5.13 C5.5,-4.95 5.43,-4.82 5.3,-4.74 C5.18,-4.66 4.97,-4.61 4.68,-4.57 C4.4,-4.54 4.03,-4.49 3.57,-4.44 C3.21,-4.4 2.85,-4.33 2.51,-4.25 C2.16,-4.17 1.84,-4.05 1.56,-3.88 C1.28,-3.72 1.06,-3.5 0.89,-3.22 C0.72,-2.94 0.64,-2.59 0.64,-2.16 C0.64,-1.66 0.75,-1.23 0.98,-0.89 C1.21,-0.55 1.52,-0.28 1.91,-0.1 C2.3,0.08 2.74,0.17 3.22,0.17 C3.64,0.17 4,0.11 4.31,-0.01z"/><g opacity="1" transform="matrix(0.14000000059604645,0,0,0.14000000059604645,0,0)"/></g></g></g><g stroke-linecap="butt" stroke-linejoin="round" stroke-miterlimit="4" transform="matrix(1,0,0,1,-64.07600402832031,-0.31829833984375)" opacity="1" style="display: inherit;"><g><g transform="matrix(1,0,0,1,0,0)" opacity="1" style="display: block;"><path d=" M3.07,-1.47 C2.77,-1.71 2.55,-2.03 2.4,-2.44 C2.24,-2.85 2.17,-3.31 2.17,-3.82 C2.17,-4.32 2.24,-4.77 2.39,-5.18 C2.54,-5.58 2.77,-5.89 3.07,-6.13 C3.37,-6.36 3.74,-6.47 4.19,-6.47 C4.62,-6.47 4.98,-6.36 5.28,-6.14 C5.57,-5.92 5.8,-5.61 5.95,-5.21 C6.1,-4.81 6.18,-4.35 6.18,-3.82 C6.18,-3.28 6.1,-2.81 5.95,-2.41 C5.79,-2 5.57,-1.69 5.27,-1.46 C4.98,-1.23 4.61,-1.12 4.19,-1.12 C3.75,-1.12 3.37,-1.24 3.07,-1.47z M4.99,-0.08 C5.28,-0.24 5.51,-0.42 5.68,-0.63 C5.85,-0.84 5.98,-1.03 6.07,-1.19 C6.07,-1.19 6.19,-1.19 6.19,-1.19 C6.19,-1.19 6.19,0 6.19,0 C6.19,0 7.64,0 7.64,0 C7.64,0 7.64,-10.18 7.64,-10.18 C7.64,-10.18 6.15,-10.18 6.15,-10.18 C6.15,-10.18 6.15,-6.4 6.15,-6.4 C6.15,-6.4 6.07,-6.4 6.07,-6.4 C5.98,-6.56 5.85,-6.74 5.69,-6.95 C5.53,-7.16 5.3,-7.34 5.01,-7.5 C4.72,-7.66 4.34,-7.74 3.87,-7.74 C3.25,-7.74 2.71,-7.58 2.22,-7.27 C1.74,-6.96 1.36,-6.51 1.08,-5.92 C0.8,-5.33 0.67,-4.63 0.67,-3.8 C0.67,-2.98 0.8,-2.27 1.08,-1.68 C1.35,-1.09 1.73,-0.64 2.21,-0.33 C2.69,-0.01 3.24,0.15 3.86,0.15 C4.32,0.15 4.7,0.07 4.99,-0.08z"/><g opacity="1" transform="matrix(0.14000000059604645,0,0,0.14000000059604645,0,0)"/></g></g></g><g stroke-linecap="butt" stroke-linejoin="round" stroke-miterlimit="4" transform="matrix(1,0,0,1,-55.31620407104492,-0.31829833984375)" opacity="1" style="display: inherit;"><g><g transform="matrix(1,0,0,1,0,0)" opacity="1" style="display: block;"><path d=" M2.4,-9.08 C2.58,-9.25 2.67,-9.46 2.67,-9.7 C2.67,-9.94 2.58,-10.15 2.4,-10.33 C2.21,-10.5 1.99,-10.59 1.74,-10.59 C1.48,-10.59 1.26,-10.5 1.07,-10.33 C0.89,-10.15 0.8,-9.94 0.8,-9.7 C0.8,-9.46 0.89,-9.25 1.07,-9.08 C1.26,-8.9 1.48,-8.81 1.74,-8.81 C1.99,-8.81 2.21,-8.9 2.4,-9.08z M1,0.49 C1,0.84 0.92,1.11 0.76,1.3 C0.61,1.49 0.35,1.58 0,1.58 C-0.04,1.58 -0.08,1.58 -0.12,1.58 C-0.15,1.58 -0.19,1.58 -0.24,1.58 C-0.24,1.58 -0.24,2.86 -0.24,2.86 C-0.19,2.86 -0.13,2.86 -0.09,2.86 C-0.04,2.86 0.01,2.86 0.06,2.86 C0.59,2.86 1.03,2.77 1.39,2.59 C1.75,2.41 2.03,2.14 2.21,1.79 C2.39,1.44 2.49,1.01 2.49,0.5 C2.49,0.5 2.49,-7.64 2.49,-7.64 C2.49,-7.64 1,-7.64 1,-7.64 C1,-7.64 1,0.49 1,0.49z"/><g opacity="1" transform="matrix(0.14000000059604645,0,0,0.14000000059604645,0,0)"/></g></g></g><g stroke-linecap="butt" stroke-linejoin="round" stroke-miterlimit="4" transform="matrix(1,0,0,1,-51.831600189208984,-0.31829833984375)" opacity="1" style="display: inherit;"><g><g transform="matrix(1,0,0,1,0,0)" opacity="1" style="display: block;"><path d=" M2.51,-1.31 C2.23,-1.49 2.1,-1.77 2.1,-2.14 C2.1,-2.4 2.17,-2.62 2.31,-2.78 C2.45,-2.94 2.64,-3.06 2.88,-3.15 C3.11,-3.23 3.38,-3.29 3.66,-3.33 C3.79,-3.35 3.94,-3.37 4.12,-3.39 C4.3,-3.42 4.49,-3.45 4.68,-3.48 C4.88,-3.51 5.05,-3.55 5.2,-3.59 C5.35,-3.64 5.45,-3.69 5.5,-3.74 C5.5,-3.74 5.5,-2.75 5.5,-2.75 C5.5,-2.45 5.43,-2.17 5.27,-1.91 C5.12,-1.64 4.89,-1.43 4.6,-1.27 C4.31,-1.11 3.96,-1.02 3.54,-1.02 C3.12,-1.02 2.78,-1.12 2.51,-1.31z M4.31,-0.01 C4.61,-0.14 4.85,-0.29 5.05,-0.48 C5.24,-0.66 5.38,-0.85 5.48,-1.04 C5.48,-1.04 5.54,-1.04 5.54,-1.04 C5.54,-1.04 5.54,0 5.54,0 C5.54,0 6.99,0 6.99,0 C6.99,0 6.99,-5.07 6.99,-5.07 C6.99,-5.63 6.89,-6.08 6.7,-6.43 C6.51,-6.78 6.26,-7.05 5.96,-7.24 C5.66,-7.43 5.34,-7.56 5,-7.63 C4.66,-7.7 4.33,-7.74 4.03,-7.74 C3.57,-7.74 3.13,-7.67 2.71,-7.54 C2.29,-7.41 1.92,-7.2 1.6,-6.91 C1.28,-6.63 1.04,-6.25 0.88,-5.79 C0.88,-5.79 2.27,-5.47 2.27,-5.47 C2.38,-5.74 2.58,-5.98 2.87,-6.2 C3.15,-6.42 3.55,-6.53 4.05,-6.53 C4.53,-6.53 4.89,-6.41 5.13,-6.17 C5.38,-5.94 5.5,-5.6 5.5,-5.17 C5.5,-5.17 5.5,-5.13 5.5,-5.13 C5.5,-4.95 5.43,-4.82 5.3,-4.74 C5.18,-4.66 4.97,-4.61 4.68,-4.57 C4.4,-4.54 4.03,-4.49 3.57,-4.44 C3.21,-4.4 2.85,-4.33 2.51,-4.25 C2.16,-4.17 1.84,-4.05 1.56,-3.88 C1.28,-3.72 1.06,-3.5 0.89,-3.22 C0.72,-2.94 0.64,-2.59 0.64,-2.16 C0.64,-1.66 0.75,-1.23 0.98,-0.89 C1.21,-0.55 1.52,-0.28 1.91,-0.1 C2.3,0.08 2.74,0.17 3.22,0.17 C3.64,0.17 4,0.11 4.31,-0.01z"/><g opacity="1" transform="matrix(0.14000000059604645,0,0,0.14000000059604645,0,0)"/></g></g></g></g><g clip-path="url(#__lottie_element_409)" transform="matrix(1,0,0,1,213,8.5)" opacity="1" style="display: block;"><g transform="matrix(1,0,0,1,7.5,7.5)" opacity="1" style="display: block;"><g opacity="1" transform="matrix(1,0,0,1,0,0)"/></g><g transform="matrix(1,0,0,1,7.5,7.5)" opacity="1" style="display: block;"><g opacity="1" transform="matrix(1,0,0,1,0,0)"><path fill="rgb(20,20,21)" fill-opacity="1" d=" M0,-5.25 C0.2759999930858612,-5.25 0.5,-5.026000022888184 0.5,-4.75 C0.5,-4.75 0.5,-0.5 0.5,-0.5 C0.5,-0.5 4.75,-0.5 4.75,-0.5 C5.026000022888184,-0.5 5.25,-0.2759999930858612 5.25,0 C5.25,0.2759999930858612 5.026000022888184,0.5 4.75,0.5 C4.75,0.5 0.5,0.5 0.5,0.5 C0.5,0.5 0.5,4.75 0.5,4.75 C0.5,5.026000022888184 0.2759999930858612,5.25 0,5.25 C-0.2759999930858612,5.25 -0.5,5.026000022888184 -0.5,4.75 C-0.5,4.75 -0.5,0.5 -0.5,0.5 C-0.5,0.5 -4.75,0.5 -4.75,0.5 C-5.026000022888184,0.5 -5.25,0.2759999930858612 -5.25,0 C-5.25,-0.2759999930858612 -5.026000022888184,-0.5 -4.75,-0.5 C-4.75,-0.5 -0.5,-0.5 -0.5,-0.5 C-0.5,-0.5 -0.5,-4.75 -0.5,-4.75 C-0.5,-5.026000022888184 -0.2759999930858612,-5.25 0,-5.25z"/></g></g></g><g clip-path="url(#__lottie_element_413)" transform="matrix(0,0,0,0,220.5,16)" opacity="1" style="display: block;"><g transform="matrix(1,0,0,1,7.5,7.5)" opacity="1" style="display: block;"><g opacity="1" transform="matrix(1,0,0,1,0,0)"/></g><g transform="matrix(1,0,0,1,7.625,7.5)" opacity="1" style="display: block;"><g opacity="1" transform="matrix(1,0,0,1,0,0)"><path fill="rgb(3,151,84)" fill-opacity="1" d=" M4.0229997634887695,-2.9079999923706055 C4.211999893188477,-3.197000026702881 4.13100004196167,-3.5840001106262207 3.8420000076293945,-3.7730000019073486 C3.552999973297119,-3.9619998931884766 3.1659998893737793,-3.88100004196167 2.9769999980926514,-3.5920000076293945 C2.9769999980926514,-3.5920000076293945 -0.871999979019165,2.2939999103546143 -0.871999979019165,2.2939999103546143 C-0.871999979019165,2.2939999103546143 -3.0799999237060547,0.2879999876022339 -3.0799999237060547,0.2879999876022339 C-3.3350000381469727,0.0560000017285347 -3.7300000190734863,0.07500000298023224 -3.9619998931884766,0.33000001311302185 C-4.193999767303467,0.5849999785423279 -4.175000190734863,0.9800000190734863 -3.9200000762939453,1.2120000123977661 C-3.9200000762939453,1.2120000123977661 -1.1699999570846558,3.7119998931884766 -1.1699999570846558,3.7119998931884766 C-1.034999966621399,3.8350000381469727 -0.8529999852180481,3.8929998874664307 -0.6710000038146973,3.869999885559082 C-0.48899999260902405,3.8469998836517334 -0.3269999921321869,3.744999885559082 -0.22699999809265137,3.5920000076293945 C-0.22699999809265137,3.5920000076293945 4.0229997634887695,-2.9079999923706055 4.0229997634887695,-2.9079999923706055z"/></g></g></g><g clip-path="url(#__lottie_element_417)" transform="matrix(1,0,0,1,8,4)" opacity="1" style="display: block;"><g transform="matrix(1,0,0,1,12,12)" opacity="1" style="display: block;"><g opacity="1" transform="matrix(1,0,0,1,0,0)"><path fill="rgb(213,226,240)" fill-opacity="1" d=" M12,0 C12,0 12,0 12,0 C12,6.622799873352051 6.622799873352051,12 0,12 C0,12 0,12 0,12 C-6.622799873352051,12 -12,6.622799873352051 -12,0 C-12,0 -12,0 -12,0 C-12,-6.622799873352051 -6.622799873352051,-12 0,-12 C0,-12 0,-12 0,-12 C6.622799873352051,-12 12,-6.622799873352051 12,0z"/></g></g><g transform="matrix(1,0,0,1,12.430999755859375,13.909000396728516)" opacity="1" fill="rgb(0,0,0)" font-size="14" font-family="Inter" font-style="normal" font-weight="normal" aria-label="N" style="display: block;"><g stroke-linecap="butt" stroke-linejoin="round" stroke-miterlimit="4" transform="matrix(1,0,0,1,-5.500000476837158,3.18170166015625)" opacity="1" style="display: inherit;"><g><g transform="matrix(1,0,0,1,0,0)" opacity="1" style="display: block;"><path d=" M7.54,-10.18 C7.54,-10.18 7.54,-3.24 7.54,-3.24 C7.54,-3.24 7.45,-3.24 7.45,-3.24 C7.45,-3.24 2.65,-10.18 2.65,-10.18 C2.65,-10.18 1,-10.18 1,-10.18 C1,-10.18 1,0 1,0 C1,0 2.85,0 2.85,0 C2.85,0 2.85,-6.94 2.85,-6.94 C2.85,-6.94 2.93,-6.94 2.93,-6.94 C2.93,-6.94 7.73,0 7.73,0 C7.73,0 9.37,0 9.37,0 C9.37,0 9.37,-10.18 9.37,-10.18 C9.37,-10.18 7.54,-10.18 7.54,-10.18z"/><g opacity="1" transform="matrix(0.14000000059604645,0,0,0.14000000059604645,0,0)"/></g></g></g></g></g></g><g clip-path="url(#__lottie_element_308)" transform="matrix(1,0,0,1,8,53)" opacity="1" style="display: block;"><g transform="matrix(1,0,0,1,118,16)" opacity="1" style="display: block;"><g opacity="1" transform="matrix(1,0,0,1,0,0)"/></g><g clip-path="url(#__lottie_element_442)" transform="matrix(1,0,0,1,8,4)" opacity="1" style="display: block;"><g transform="matrix(1,0,0,1,12,12)" opacity="1" style="display: block;"><g opacity="1" transform="matrix(1,0,0,1,0,0)"><path fill="rgb(254,222,136)" fill-opacity="1" d=" M12,0 C12,0 12,0 12,0 C12,6.622799873352051 6.622799873352051,12 0,12 C0,12 0,12 0,12 C-6.622799873352051,12 -12,6.622799873352051 -12,0 C-12,0 -12,0 -12,0 C-12,-6.622799873352051 -6.622799873352051,-12 0,-12 C0,-12 0,-12 0,-12 C6.622799873352051,-12 12,-6.622799873352051 12,0z"/></g></g><g transform="matrix(1,0,0,1,12.430999755859375,13.909000396728516)" opacity="1" fill="rgb(182,71,8)" font-size="14" font-family="Inter" font-style="normal" font-weight="normal" aria-label="A" style="display: block;"><g stroke-linecap="butt" stroke-linejoin="round" stroke-miterlimit="4" transform="matrix(1,0,0,1,-5.5,3.18170166015625)" opacity="1" style="display: inherit;"><g><g transform="matrix(1,0,0,1,0,0)" opacity="1" style="display: block;"><path d=" M2.38,-2.51 C2.38,-2.51 7.75,-2.51 7.75,-2.51 C7.75,-2.51 7.75,-3.99 7.75,-3.99 C7.75,-3.99 2.38,-3.99 2.38,-3.99 C2.38,-3.99 2.38,-2.51 2.38,-2.51z M5.03,-8.09 C5.03,-8.09 5.11,-8.09 5.11,-8.09 C5.11,-8.09 7.83,0 7.83,0 C7.83,0 9.79,0 9.79,0 C9.79,0 6.2,-10.18 6.2,-10.18 C6.2,-10.18 3.93,-10.18 3.93,-10.18 C3.93,-10.18 0.34,0 0.34,0 C0.34,0 2.31,0 2.31,0 C2.31,0 5.03,-8.09 5.03,-8.09z"/><g opacity="1" transform="matrix(0.14000000059604645,0,0,0.14000000059604645,0,0)"/></g></g></g></g></g><g transform="matrix(1,0,0,1,122.5,21.325000762939453)" opacity="1" fill="rgb(100,100,107)" font-size="14" font-family="Inter" font-style="normal" font-weight="500" aria-label="Alexandra" style="display: block;"><g stroke-linecap="butt" stroke-linejoin="round" stroke-miterlimit="4" transform="matrix(1,0,0,1,-82.5,-0.31829833984375)" opacity="1" style="display: inherit;"><g><g transform="matrix(1,0,0,1,0,0)" opacity="1" style="display: block;"><path d=" M2.25,-2.69 C2.25,-2.69 7.54,-2.69 7.54,-2.69 C7.54,-2.69 7.54,-3.99 7.54,-3.99 C7.54,-3.99 2.25,-3.99 2.25,-3.99 C2.25,-3.99 2.25,-2.69 2.25,-2.69z M4.86,-8.33 C4.86,-8.33 4.94,-8.33 4.94,-8.33 C4.94,-8.33 7.82,0 7.82,0 C7.82,0 9.45,0 9.45,0 C9.45,0 5.79,-10.18 5.79,-10.18 C5.79,-10.18 4.01,-10.18 4.01,-10.18 C4.01,-10.18 0.35,0 0.35,0 C0.35,0 1.98,0 1.98,0 C1.98,0 4.86,-8.33 4.86,-8.33z"/><g opacity="1" transform="matrix(0.14000000059604645,0,0,0.14000000059604645,0,0)"/></g></g></g><g stroke-linecap="butt" stroke-linejoin="round" stroke-miterlimit="4" transform="matrix(1,0,0,1,-72.70140075683594,-0.31829833984375)" opacity="1" style="display: inherit;"><g><g transform="matrix(1,0,0,1,0,0)" opacity="1" style="display: block;"><path d=" M1,-10.18 C1,-10.18 1,0 1,0 C1,0 2.49,0 2.49,0 C2.49,0 2.49,-10.18 2.49,-10.18 C2.49,-10.18 1,-10.18 1,-10.18z"/><g opacity="1" transform="matrix(0.14000000059604645,0,0,0.14000000059604645,0,0)"/></g></g></g><g stroke-linecap="butt" stroke-linejoin="round" stroke-miterlimit="4" transform="matrix(1,0,0,1,-69.216796875,-0.31829833984375)" opacity="1" style="display: inherit;"><g><g transform="matrix(1,0,0,1,0,0)" opacity="1" style="display: block;"><path d=" M5.78,-0.1 C6.22,-0.27 6.58,-0.51 6.87,-0.82 C7.16,-1.13 7.36,-1.49 7.47,-1.91 C7.47,-1.91 6.07,-2.16 6.07,-2.16 C5.98,-1.92 5.85,-1.72 5.68,-1.56 C5.51,-1.4 5.31,-1.28 5.08,-1.2 C4.84,-1.11 4.59,-1.07 4.31,-1.07 C3.87,-1.07 3.49,-1.17 3.17,-1.35 C2.84,-1.54 2.59,-1.81 2.41,-2.17 C2.23,-2.53 2.14,-2.96 2.14,-3.48 C2.14,-3.48 2.14,-4.35 2.14,-4.35 C2.14,-4.73 2.22,-5.08 2.39,-5.41 C2.56,-5.73 2.79,-6 3.1,-6.2 C3.41,-6.41 3.78,-6.51 4.2,-6.51 C4.58,-6.51 4.92,-6.42 5.2,-6.24 C5.49,-6.07 5.71,-5.83 5.87,-5.53 C6.03,-5.22 6.11,-4.88 6.11,-4.48 C6.11,-4.48 1.5,-4.48 1.5,-4.48 C1.5,-4.48 1.5,-3.37 1.5,-3.37 C1.5,-3.37 7.57,-3.37 7.57,-3.37 C7.57,-3.37 7.57,-3.9 7.57,-3.9 C7.57,-4.59 7.47,-5.18 7.29,-5.67 C7.1,-6.15 6.85,-6.55 6.53,-6.85 C6.21,-7.16 5.84,-7.38 5.44,-7.52 C5.03,-7.66 4.62,-7.74 4.19,-7.74 C3.48,-7.74 2.86,-7.57 2.33,-7.23 C1.8,-6.9 1.39,-6.43 1.1,-5.84 C0.8,-5.24 0.66,-4.55 0.66,-3.77 C0.66,-2.98 0.8,-2.29 1.1,-1.7 C1.39,-1.11 1.81,-0.65 2.35,-0.33 C2.89,-0.01 3.54,0.15 4.29,0.15 C4.85,0.15 5.34,0.07 5.78,-0.1z"/><g opacity="1" transform="matrix(0.14000000059604645,0,0,0.14000000059604645,0,0)"/></g></g></g><g stroke-linecap="butt" stroke-linejoin="round" stroke-miterlimit="4" transform="matrix(1,0,0,1,-60.99319839477539,-0.31829833984375)" opacity="1" style="display: inherit;"><g><g transform="matrix(1,0,0,1,0,0)" opacity="1" style="display: block;"><path d=" M0.54,-7.64 C0.54,-7.64 2.89,-3.82 2.89,-3.82 C2.89,-3.82 0.51,0 0.51,0 C0.51,0 2.14,0 2.14,0 C2.14,0 3.86,-2.85 3.86,-2.85 C3.86,-2.85 5.58,0 5.58,0 C5.58,0 7.2,0 7.2,0 C7.2,0 4.8,-3.82 4.8,-3.82 C4.8,-3.82 7.18,-7.64 7.18,-7.64 C7.18,-7.64 5.56,-7.64 5.56,-7.64 C5.56,-7.64 3.86,-4.66 3.86,-4.66 C3.86,-4.66 2.17,-7.64 2.17,-7.64 C2.17,-7.64 0.54,-7.64 0.54,-7.64z"/><g opacity="1" transform="matrix(0.14000000059604645,0,0,0.14000000059604645,0,0)"/></g></g></g><g stroke-linecap="butt" stroke-linejoin="round" stroke-miterlimit="4" transform="matrix(1,0,0,1,-53.27779769897461,-0.31829833984375)" opacity="1" style="display: inherit;"><g><g transform="matrix(1,0,0,1,0,0)" opacity="1" style="display: block;"><path d=" M2.51,-1.31 C2.23,-1.49 2.1,-1.77 2.1,-2.14 C2.1,-2.4 2.17,-2.62 2.31,-2.78 C2.45,-2.94 2.64,-3.06 2.88,-3.15 C3.11,-3.23 3.38,-3.29 3.66,-3.33 C3.79,-3.35 3.94,-3.37 4.12,-3.39 C4.3,-3.42 4.49,-3.45 4.68,-3.48 C4.88,-3.51 5.05,-3.55 5.2,-3.59 C5.35,-3.64 5.45,-3.69 5.5,-3.74 C5.5,-3.74 5.5,-2.75 5.5,-2.75 C5.5,-2.45 5.43,-2.17 5.27,-1.91 C5.12,-1.64 4.89,-1.43 4.6,-1.27 C4.31,-1.11 3.96,-1.02 3.54,-1.02 C3.12,-1.02 2.78,-1.12 2.51,-1.31z M4.31,-0.01 C4.61,-0.14 4.85,-0.29 5.05,-0.48 C5.24,-0.66 5.38,-0.85 5.48,-1.04 C5.48,-1.04 5.54,-1.04 5.54,-1.04 C5.54,-1.04 5.54,0 5.54,0 C5.54,0 6.99,0 6.99,0 C6.99,0 6.99,-5.07 6.99,-5.07 C6.99,-5.63 6.89,-6.08 6.7,-6.43 C6.51,-6.78 6.26,-7.05 5.96,-7.24 C5.66,-7.43 5.34,-7.56 5,-7.63 C4.66,-7.7 4.33,-7.74 4.03,-7.74 C3.57,-7.74 3.13,-7.67 2.71,-7.54 C2.29,-7.41 1.92,-7.2 1.6,-6.91 C1.28,-6.63 1.04,-6.25 0.88,-5.79 C0.88,-5.79 2.27,-5.47 2.27,-5.47 C2.38,-5.74 2.58,-5.98 2.87,-6.2 C3.15,-6.42 3.55,-6.53 4.05,-6.53 C4.53,-6.53 4.89,-6.41 5.13,-6.17 C5.38,-5.94 5.5,-5.6 5.5,-5.17 C5.5,-5.17 5.5,-5.13 5.5,-5.13 C5.5,-4.95 5.43,-4.82 5.3,-4.74 C5.18,-4.66 4.97,-4.61 4.68,-4.57 C4.4,-4.54 4.03,-4.49 3.57,-4.44 C3.21,-4.4 2.85,-4.33 2.51,-4.25 C2.16,-4.17 1.84,-4.05 1.56,-3.88 C1.28,-3.72 1.06,-3.5 0.89,-3.22 C0.72,-2.94 0.64,-2.59 0.64,-2.16 C0.64,-1.66 0.75,-1.23 0.98,-0.89 C1.21,-0.55 1.52,-0.28 1.91,-0.1 C2.3,0.08 2.74,0.17 3.22,0.17 C3.64,0.17 4,0.11 4.31,-0.01z"/><g opacity="1" transform="matrix(0.14000000059604645,0,0,0.14000000059604645,0,0)"/></g></g></g><g stroke-linecap="butt" stroke-linejoin="round" stroke-miterlimit="4" transform="matrix(1,0,0,1,-45.30900192260742,-0.31829833984375)" opacity="1" style="display: inherit;"><g><g transform="matrix(1,0,0,1,0,0)" opacity="1" style="display: block;"><path d=" M2.72,-5.57 C2.87,-5.86 3.08,-6.08 3.35,-6.22 C3.62,-6.37 3.92,-6.45 4.27,-6.45 C4.77,-6.45 5.17,-6.29 5.45,-5.98 C5.74,-5.67 5.89,-5.23 5.89,-4.68 C5.89,-4.68 5.89,0 5.89,0 C5.89,0 7.37,0 7.37,0 C7.37,0 7.37,-4.86 7.37,-4.86 C7.37,-5.49 7.27,-6.02 7.05,-6.44 C6.83,-6.87 6.53,-7.19 6.14,-7.41 C5.75,-7.63 5.29,-7.74 4.77,-7.74 C4.2,-7.74 3.72,-7.61 3.35,-7.37 C2.97,-7.12 2.7,-6.8 2.52,-6.39 C2.52,-6.39 2.43,-6.39 2.43,-6.39 C2.43,-6.39 2.43,-7.64 2.43,-7.64 C2.43,-7.64 1,-7.64 1,-7.64 C1,-7.64 1,0 1,0 C1,0 2.49,0 2.49,0 C2.49,0 2.49,-4.53 2.49,-4.53 C2.49,-4.94 2.56,-5.28 2.72,-5.57z"/><g opacity="1" transform="matrix(0.14000000059604645,0,0,0.14000000059604645,0,0)"/></g></g></g><g stroke-linecap="butt" stroke-linejoin="round" stroke-miterlimit="4" transform="matrix(1,0,0,1,-36.94679641723633,-0.31829833984375)" opacity="1" style="display: inherit;"><g><g transform="matrix(1,0,0,1,0,0)" opacity="1" style="display: block;"><path d=" M3.07,-1.47 C2.77,-1.71 2.55,-2.03 2.4,-2.44 C2.24,-2.85 2.17,-3.31 2.17,-3.82 C2.17,-4.32 2.24,-4.77 2.39,-5.18 C2.54,-5.58 2.77,-5.89 3.07,-6.13 C3.37,-6.36 3.74,-6.47 4.19,-6.47 C4.62,-6.47 4.98,-6.36 5.28,-6.14 C5.57,-5.92 5.8,-5.61 5.95,-5.21 C6.1,-4.81 6.18,-4.35 6.18,-3.82 C6.18,-3.28 6.1,-2.81 5.95,-2.41 C5.79,-2 5.57,-1.69 5.27,-1.46 C4.98,-1.23 4.61,-1.12 4.19,-1.12 C3.75,-1.12 3.37,-1.24 3.07,-1.47z M4.99,-0.08 C5.28,-0.24 5.51,-0.42 5.68,-0.63 C5.85,-0.84 5.98,-1.03 6.07,-1.19 C6.07,-1.19 6.19,-1.19 6.19,-1.19 C6.19,-1.19 6.19,0 6.19,0 C6.19,0 7.64,0 7.64,0 C7.64,0 7.64,-10.18 7.64,-10.18 C7.64,-10.18 6.15,-10.18 6.15,-10.18 C6.15,-10.18 6.15,-6.4 6.15,-6.4 C6.15,-6.4 6.07,-6.4 6.07,-6.4 C5.98,-6.56 5.85,-6.74 5.69,-6.95 C5.53,-7.16 5.3,-7.34 5.01,-7.5 C4.72,-7.66 4.34,-7.74 3.87,-7.74 C3.25,-7.74 2.71,-7.58 2.22,-7.27 C1.74,-6.96 1.36,-6.51 1.08,-5.92 C0.8,-5.33 0.67,-4.63 0.67,-3.8 C0.67,-2.98 0.8,-2.27 1.08,-1.68 C1.35,-1.09 1.73,-0.64 2.21,-0.33 C2.69,-0.01 3.24,0.15 3.86,0.15 C4.32,0.15 4.7,0.07 4.99,-0.08z"/><g opacity="1" transform="matrix(0.14000000059604645,0,0,0.14000000059604645,0,0)"/></g></g></g><g stroke-linecap="butt" stroke-linejoin="round" stroke-miterlimit="4" transform="matrix(1,0,0,1,-28.187000274658203,-0.31829833984375)" opacity="1" style="display: inherit;"><g><g transform="matrix(1,0,0,1,0,0)" opacity="1" style="display: block;"><path d=" M2.49,0 C2.49,0 2.49,-4.66 2.49,-4.66 C2.49,-4.99 2.57,-5.29 2.72,-5.55 C2.88,-5.81 3.1,-6.01 3.37,-6.16 C3.65,-6.31 3.96,-6.38 4.31,-6.38 C4.46,-6.38 4.62,-6.37 4.77,-6.35 C4.92,-6.33 5.03,-6.31 5.09,-6.29 C5.09,-6.29 5.09,-7.72 5.09,-7.72 C5.01,-7.73 4.91,-7.73 4.79,-7.74 C4.66,-7.75 4.55,-7.75 4.45,-7.75 C4.01,-7.75 3.61,-7.63 3.25,-7.4 C2.9,-7.16 2.65,-6.83 2.52,-6.42 C2.52,-6.42 2.44,-6.42 2.44,-6.42 C2.44,-6.42 2.44,-7.64 2.44,-7.64 C2.44,-7.64 1,-7.64 1,-7.64 C1,-7.64 1,0 1,0 C1,0 2.49,0 2.49,0z"/><g opacity="1" transform="matrix(0.14000000059604645,0,0,0.14000000059604645,0,0)"/></g></g></g><g stroke-linecap="butt" stroke-linejoin="round" stroke-miterlimit="4" transform="matrix(1,0,0,1,-22.808198928833008,-0.31829833984375)" opacity="1" style="display: inherit;"><g><g transform="matrix(1,0,0,1,0,0)" opacity="1" style="display: block;"><path d=" M2.51,-1.31 C2.23,-1.49 2.1,-1.77 2.1,-2.14 C2.1,-2.4 2.17,-2.62 2.31,-2.78 C2.45,-2.94 2.64,-3.06 2.88,-3.15 C3.11,-3.23 3.38,-3.29 3.66,-3.33 C3.79,-3.35 3.94,-3.37 4.12,-3.39 C4.3,-3.42 4.49,-3.45 4.68,-3.48 C4.88,-3.51 5.05,-3.55 5.2,-3.59 C5.35,-3.64 5.45,-3.69 5.5,-3.74 C5.5,-3.74 5.5,-2.75 5.5,-2.75 C5.5,-2.45 5.43,-2.17 5.27,-1.91 C5.12,-1.64 4.89,-1.43 4.6,-1.27 C4.31,-1.11 3.96,-1.02 3.54,-1.02 C3.12,-1.02 2.78,-1.12 2.51,-1.31z M4.31,-0.01 C4.61,-0.14 4.85,-0.29 5.05,-0.48 C5.24,-0.66 5.38,-0.85 5.48,-1.04 C5.48,-1.04 5.54,-1.04 5.54,-1.04 C5.54,-1.04 5.54,0 5.54,0 C5.54,0 6.99,0 6.99,0 C6.99,0 6.99,-5.07 6.99,-5.07 C6.99,-5.63 6.89,-6.08 6.7,-6.43 C6.51,-6.78 6.26,-7.05 5.96,-7.24 C5.66,-7.43 5.34,-7.56 5,-7.63 C4.66,-7.7 4.33,-7.74 4.03,-7.74 C3.57,-7.74 3.13,-7.67 2.71,-7.54 C2.29,-7.41 1.92,-7.2 1.6,-6.91 C1.28,-6.63 1.04,-6.25 0.88,-5.79 C0.88,-5.79 2.27,-5.47 2.27,-5.47 C2.38,-5.74 2.58,-5.98 2.87,-6.2 C3.15,-6.42 3.55,-6.53 4.05,-6.53 C4.53,-6.53 4.89,-6.41 5.13,-6.17 C5.38,-5.94 5.5,-5.6 5.5,-5.17 C5.5,-5.17 5.5,-5.13 5.5,-5.13 C5.5,-4.95 5.43,-4.82 5.3,-4.74 C5.18,-4.66 4.97,-4.61 4.68,-4.57 C4.4,-4.54 4.03,-4.49 3.57,-4.44 C3.21,-4.4 2.85,-4.33 2.51,-4.25 C2.16,-4.17 1.84,-4.05 1.56,-3.88 C1.28,-3.72 1.06,-3.5 0.89,-3.22 C0.72,-2.94 0.64,-2.59 0.64,-2.16 C0.64,-1.66 0.75,-1.23 0.98,-0.89 C1.21,-0.55 1.52,-0.28 1.91,-0.1 C2.3,0.08 2.74,0.17 3.22,0.17 C3.64,0.17 4,0.11 4.31,-0.01z"/><g opacity="1" transform="matrix(0.14000000059604645,0,0,0.14000000059604645,0,0)"/></g></g></g></g><g clip-path="url(#__lottie_element_449)" transform="matrix(1,0,0,1,213,8.5)" opacity="1" style="display: block;"><g transform="matrix(1,0,0,1,7.5,7.5)" opacity="1" style="display: block;"><g opacity="1" transform="matrix(1,0,0,1,0,0)"/></g><g transform="matrix(1,0,0,1,7.625,7.5)" opacity="1" style="display: block;"><g opacity="1" transform="matrix(1,0,0,1,0,0)"><path fill="rgb(3,151,84)" fill-opacity="1" d=" M4.0229997634887695,-2.9079999923706055 C4.211999893188477,-3.197000026702881 4.13100004196167,-3.5840001106262207 3.8420000076293945,-3.7730000019073486 C3.552999973297119,-3.9619998931884766 3.1659998893737793,-3.88100004196167 2.9769999980926514,-3.5920000076293945 C2.9769999980926514,-3.5920000076293945 -0.871999979019165,2.2939999103546143 -0.871999979019165,2.2939999103546143 C-0.871999979019165,2.2939999103546143 -3.0799999237060547,0.2879999876022339 -3.0799999237060547,0.2879999876022339 C-3.3350000381469727,0.0560000017285347 -3.7300000190734863,0.07500000298023224 -3.9619998931884766,0.33000001311302185 C-4.193999767303467,0.5849999785423279 -4.175000190734863,0.9800000190734863 -3.9200000762939453,1.2120000123977661 C-3.9200000762939453,1.2120000123977661 -1.1699999570846558,3.7119998931884766 -1.1699999570846558,3.7119998931884766 C-1.034999966621399,3.8350000381469727 -0.8529999852180481,3.8929998874664307 -0.6710000038146973,3.869999885559082 C-0.48899999260902405,3.8469998836517334 -0.3269999921321869,3.744999885559082 -0.22699999809265137,3.5920000076293945 C-0.22699999809265137,3.5920000076293945 4.0229997634887695,-2.9079999923706055 4.0229997634887695,-2.9079999923706055z"/></g></g></g></g><g transform="matrix(1,0,0,1,52,30.5)" opacity="1" fill="rgb(21,21,21)" font-size="14" font-family="Inter" font-style="normal" font-weight="500" aria-label="NDA_2023" style="display: block;"><g stroke-linecap="butt" stroke-linejoin="round" stroke-miterlimit="4" transform="matrix(1,0,0,1,-36,-0.31829833984375)" opacity="1" style="display: inherit;"><g><g transform="matrix(1,0,0,1,0,0)" opacity="1" style="display: block;"><path d=" M7.82,-10.18 C7.82,-10.18 7.82,-2.7 7.82,-2.7 C7.82,-2.7 7.72,-2.7 7.72,-2.7 C7.72,-2.7 2.54,-10.18 2.54,-10.18 C2.54,-10.18 1.12,-10.18 1.12,-10.18 C1.12,-10.18 1.12,0 1.12,0 C1.12,0 2.65,0 2.65,0 C2.65,0 2.65,-7.47 2.65,-7.47 C2.65,-7.47 2.75,-7.47 2.75,-7.47 C2.75,-7.47 7.92,0 7.92,0 C7.92,0 9.34,0 9.34,0 C9.34,0 9.34,-10.18 9.34,-10.18 C9.34,-10.18 7.82,-10.18 7.82,-10.18z"/><g opacity="1" transform="matrix(0.14000000059604645,0,0,0.14000000059604645,0,0)"/></g></g></g><g stroke-linecap="butt" stroke-linejoin="round" stroke-miterlimit="4" transform="matrix(1,0,0,1,-25.5447998046875,-0.31829833984375)" opacity="1" style="display: inherit;"><g><g transform="matrix(1,0,0,1,0,0)" opacity="1" style="display: block;"><path d=" M2.65,-8.84 C2.65,-8.84 4.42,-8.84 4.42,-8.84 C5.17,-8.84 5.79,-8.7 6.29,-8.41 C6.79,-8.12 7.17,-7.7 7.42,-7.14 C7.67,-6.58 7.8,-5.9 7.8,-5.11 C7.8,-4.3 7.67,-3.62 7.42,-3.06 C7.16,-2.5 6.78,-2.08 6.26,-1.78 C5.75,-1.49 5.11,-1.34 4.33,-1.34 C4.33,-1.34 2.65,-1.34 2.65,-1.34 C2.65,-1.34 2.65,-8.84 2.65,-8.84z M7.06,-0.61 C7.79,-1.02 8.35,-1.61 8.73,-2.37 C9.12,-3.13 9.31,-4.05 9.31,-5.11 C9.31,-6.16 9.12,-7.07 8.74,-7.83 C8.35,-8.59 7.81,-9.17 7.09,-9.57 C6.37,-9.98 5.52,-10.18 4.52,-10.18 C4.52,-10.18 1.12,-10.18 1.12,-10.18 C1.12,-10.18 1.12,0 1.12,0 C1.12,0 4.41,0 4.41,0 C5.45,0 6.33,-0.2 7.06,-0.61z"/><g opacity="1" transform="matrix(0.14000000059604645,0,0,0.14000000059604645,0,0)"/></g></g></g><g stroke-linecap="butt" stroke-linejoin="round" stroke-miterlimit="4" transform="matrix(1,0,0,1,-15.442401885986328,-0.31829833984375)" opacity="1" style="display: inherit;"><g><g transform="matrix(1,0,0,1,0,0)" opacity="1" style="display: block;"><path d=" M2.25,-2.69 C2.25,-2.69 7.54,-2.69 7.54,-2.69 C7.54,-2.69 7.54,-3.99 7.54,-3.99 C7.54,-3.99 2.25,-3.99 2.25,-3.99 C2.25,-3.99 2.25,-2.69 2.25,-2.69z M4.86,-8.33 C4.86,-8.33 4.94,-8.33 4.94,-8.33 C4.94,-8.33 7.82,0 7.82,0 C7.82,0 9.45,0 9.45,0 C9.45,0 5.79,-10.18 5.79,-10.18 C5.79,-10.18 4.01,-10.18 4.01,-10.18 C4.01,-10.18 0.35,0 0.35,0 C0.35,0 1.98,0 1.98,0 C1.98,0 4.86,-8.33 4.86,-8.33z"/><g opacity="1" transform="matrix(0.14000000059604645,0,0,0.14000000059604645,0,0)"/></g></g></g><g stroke-linecap="butt" stroke-linejoin="round" stroke-miterlimit="4" transform="matrix(1,0,0,1,-5.643800258636475,-0.31829833984375)" opacity="1" style="display: inherit;"><g><g transform="matrix(1,0,0,1,0,0)" opacity="1" style="display: block;"><path d=" M-0.01,0 C-0.01,0 -0.01,1.26 -0.01,1.26 C-0.01,1.26 6.45,1.26 6.45,1.26 C6.45,1.26 6.45,0 6.45,0 C6.45,0 -0.01,0 -0.01,0z"/><g opacity="1" transform="matrix(0.14000000059604645,0,0,0.14000000059604645,0,0)"/></g></g></g><g stroke-linecap="butt" stroke-linejoin="round" stroke-miterlimit="4" transform="matrix(1,0,0,1,0.7948013544082642,-0.31829833984375)" opacity="1" style="display: inherit;"><g><g transform="matrix(1,0,0,1,0,0)" opacity="1" style="display: block;"><path d=" M7.68,0 C7.68,0 7.68,-1.32 7.68,-1.32 C7.68,-1.32 3.1,-1.32 3.1,-1.32 C3.1,-1.32 3.1,-1.39 3.1,-1.39 C3.1,-1.39 5.12,-3.51 5.12,-3.51 C5.74,-4.14 6.22,-4.68 6.57,-5.12 C6.92,-5.56 7.16,-5.96 7.31,-6.32 C7.45,-6.69 7.52,-7.05 7.52,-7.43 C7.52,-7.98 7.38,-8.47 7.1,-8.91 C6.83,-9.34 6.45,-9.69 5.96,-9.94 C5.47,-10.19 4.91,-10.32 4.27,-10.32 C3.63,-10.32 3.07,-10.19 2.57,-9.94 C2.07,-9.68 1.68,-9.32 1.4,-8.85 C1.11,-8.39 0.97,-7.85 0.97,-7.23 C0.97,-7.23 2.44,-7.23 2.44,-7.23 C2.44,-7.59 2.51,-7.91 2.65,-8.18 C2.8,-8.46 3.01,-8.67 3.28,-8.81 C3.55,-8.96 3.87,-9.04 4.24,-9.04 C4.58,-9.04 4.89,-8.97 5.17,-8.84 C5.44,-8.7 5.66,-8.51 5.82,-8.27 C5.98,-8.02 6.06,-7.73 6.06,-7.39 C6.06,-7.09 6,-6.81 5.88,-6.54 C5.76,-6.28 5.58,-6 5.34,-5.7 C5.1,-5.41 4.79,-5.07 4.42,-4.68 C4.42,-4.68 0.98,-1.11 0.98,-1.11 C0.98,-1.11 0.98,0 0.98,0 C0.98,0 7.68,0 7.68,0z"/><g opacity="1" transform="matrix(0.14000000059604645,0,0,0.14000000059604645,0,0)"/></g></g></g><g stroke-linecap="butt" stroke-linejoin="round" stroke-miterlimit="4" transform="matrix(1,0,0,1,9.381001472473145,-0.31829833984375)" opacity="1" style="display: inherit;"><g><g transform="matrix(1,0,0,1,0,0)" opacity="1" style="display: block;"><path d=" M3.34,-1.61 C3.01,-1.91 2.76,-2.35 2.58,-2.94 C2.41,-3.52 2.32,-4.24 2.32,-5.09 C2.32,-6.36 2.52,-7.33 2.91,-8 C3.3,-8.68 3.84,-9.02 4.52,-9.02 C4.98,-9.02 5.37,-8.87 5.7,-8.56 C6.03,-8.26 6.28,-7.82 6.46,-7.23 C6.64,-6.65 6.73,-5.93 6.73,-5.09 C6.73,-3.81 6.53,-2.84 6.14,-2.17 C5.75,-1.49 5.21,-1.16 4.52,-1.16 C4.06,-1.16 3.67,-1.31 3.34,-1.61z M6.53,-0.45 C7.09,-0.86 7.52,-1.46 7.81,-2.24 C8.11,-3.03 8.25,-3.98 8.25,-5.09 C8.25,-6.19 8.1,-7.13 7.81,-7.91 C7.51,-8.69 7.08,-9.29 6.53,-9.7 C5.97,-10.11 5.3,-10.32 4.52,-10.32 C3.75,-10.32 3.08,-10.12 2.52,-9.7 C1.96,-9.29 1.53,-8.7 1.24,-7.91 C0.94,-7.13 0.79,-6.19 0.79,-5.09 C0.79,-3.98 0.94,-3.03 1.23,-2.25 C1.53,-1.46 1.95,-0.86 2.51,-0.45 C3.07,-0.04 3.74,0.17 4.52,0.17 C5.31,0.17 5.98,-0.04 6.53,-0.45z"/><g opacity="1" transform="matrix(0.14000000059604645,0,0,0.14000000059604645,0,0)"/></g></g></g><g stroke-linecap="butt" stroke-linejoin="round" stroke-miterlimit="4" transform="matrix(1,0,0,1,18.42500114440918,-0.31829833984375)" opacity="1" style="display: inherit;"><g><g transform="matrix(1,0,0,1,0,0)" opacity="1" style="display: block;"><path d=" M7.68,0 C7.68,0 7.68,-1.32 7.68,-1.32 C7.68,-1.32 3.1,-1.32 3.1,-1.32 C3.1,-1.32 3.1,-1.39 3.1,-1.39 C3.1,-1.39 5.12,-3.51 5.12,-3.51 C5.74,-4.14 6.22,-4.68 6.57,-5.12 C6.92,-5.56 7.16,-5.96 7.31,-6.32 C7.45,-6.69 7.52,-7.05 7.52,-7.43 C7.52,-7.98 7.38,-8.47 7.1,-8.91 C6.83,-9.34 6.45,-9.69 5.96,-9.94 C5.47,-10.19 4.91,-10.32 4.27,-10.32 C3.63,-10.32 3.07,-10.19 2.57,-9.94 C2.07,-9.68 1.68,-9.32 1.4,-8.85 C1.11,-8.39 0.97,-7.85 0.97,-7.23 C0.97,-7.23 2.44,-7.23 2.44,-7.23 C2.44,-7.59 2.51,-7.91 2.65,-8.18 C2.8,-8.46 3.01,-8.67 3.28,-8.81 C3.55,-8.96 3.87,-9.04 4.24,-9.04 C4.58,-9.04 4.89,-8.97 5.17,-8.84 C5.44,-8.7 5.66,-8.51 5.82,-8.27 C5.98,-8.02 6.06,-7.73 6.06,-7.39 C6.06,-7.09 6,-6.81 5.88,-6.54 C5.76,-6.28 5.58,-6 5.34,-5.7 C5.1,-5.41 4.79,-5.07 4.42,-4.68 C4.42,-4.68 0.98,-1.11 0.98,-1.11 C0.98,-1.11 0.98,0 0.98,0 C0.98,0 7.68,0 7.68,0z"/><g opacity="1" transform="matrix(0.14000000059604645,0,0,0.14000000059604645,0,0)"/></g></g></g><g stroke-linecap="butt" stroke-linejoin="round" stroke-miterlimit="4" transform="matrix(1,0,0,1,27.011199951171875,-0.31829833984375)" opacity="1" style="display: inherit;"><g><g transform="matrix(1,0,0,1,0,0)" opacity="1" style="display: block;"><path d=" M6.38,-0.24 C6.92,-0.49 7.35,-0.84 7.66,-1.29 C7.97,-1.73 8.13,-2.23 8.12,-2.79 C8.13,-3.44 7.94,-3.98 7.57,-4.41 C7.2,-4.84 6.67,-5.11 6,-5.22 C6,-5.22 6,-5.29 6,-5.29 C6.53,-5.43 6.95,-5.7 7.27,-6.1 C7.59,-6.49 7.75,-6.98 7.75,-7.55 C7.75,-8.05 7.62,-8.51 7.36,-8.93 C7.1,-9.35 6.73,-9.69 6.26,-9.94 C5.78,-10.19 5.22,-10.32 4.56,-10.32 C3.94,-10.32 3.37,-10.2 2.86,-9.97 C2.35,-9.73 1.94,-9.41 1.63,-8.99 C1.32,-8.57 1.16,-8.09 1.14,-7.54 C1.14,-7.54 2.63,-7.54 2.63,-7.54 C2.64,-7.85 2.74,-8.12 2.92,-8.34 C3.1,-8.56 3.33,-8.74 3.62,-8.86 C3.9,-8.98 4.21,-9.04 4.54,-9.04 C4.89,-9.04 5.19,-8.97 5.45,-8.84 C5.71,-8.71 5.91,-8.52 6.05,-8.29 C6.19,-8.06 6.26,-7.78 6.26,-7.47 C6.26,-7.14 6.18,-6.85 6.02,-6.61 C5.85,-6.37 5.63,-6.18 5.34,-6.04 C5.06,-5.9 4.72,-5.84 4.35,-5.84 C4.35,-5.84 3.49,-5.84 3.49,-5.84 C3.49,-5.84 3.49,-4.58 3.49,-4.58 C3.49,-4.58 4.35,-4.58 4.35,-4.58 C4.82,-4.58 5.22,-4.51 5.55,-4.36 C5.88,-4.21 6.14,-4.01 6.31,-3.75 C6.49,-3.49 6.57,-3.19 6.57,-2.84 C6.57,-2.52 6.48,-2.23 6.31,-1.98 C6.13,-1.73 5.89,-1.53 5.58,-1.39 C5.27,-1.25 4.92,-1.18 4.51,-1.18 C4.15,-1.18 3.82,-1.24 3.52,-1.36 C3.22,-1.48 2.98,-1.65 2.8,-1.87 C2.61,-2.09 2.51,-2.35 2.49,-2.65 C2.49,-2.65 0.93,-2.65 0.93,-2.65 C0.95,-2.1 1.12,-1.61 1.43,-1.2 C1.74,-0.78 2.16,-0.45 2.7,-0.21 C3.23,0.02 3.84,0.14 4.52,0.14 C5.22,0.14 5.84,0.01 6.38,-0.24z"/><g opacity="1" transform="matrix(0.14000000059604645,0,0,0.14000000059604645,0,0)"/></g></g></g></g><g clip-path="url(#__lottie_element_315)" transform="matrix(1,0,0,1,198.56500244140625,5.0410003662109375)" opacity="0" style="display: block;"><g transform="matrix(1,0,0,1,20.197999954223633,20.15399932861328)" opacity="1" style="display: block;"><g opacity="1" transform="matrix(1,0,0,1,0,0)"/></g><g transform="matrix(1,0,0,1,20.197999954223633,20.15399932861328)" opacity="1" style="display: block;"><g opacity="1" transform="matrix(1,0,0,1,0,0)"><path fill="rgb(255,255,255)" fill-opacity="1" d=" M-5.533999919891357,2.239000082015991 C-4.923999786376953,3.1489999294281006 -4.573999881744385,3.878999948501587 -4.294000148773193,4.238999843597412 C-4.294000148773193,4.238999843597412 -3.4539999961853027,5.198999881744385 -3.4539999961853027,5.198999881744385 C-3.1440000534057617,5.479000091552734 -2.7239999771118164,5.89900016784668 -2.313999891281128,6.258999824523926 C-1.9040000438690186,6.61899995803833 -2.0840001106262207,7.61899995803833 -2.0840001106262207,7.61899995803833 C-0.9940000176429749,7.61899995803833 0.38600000739097595,7.698999881744385 1.055999994277954,7.61899995803833 C1.3960000276565552,7.578999996185303 1.8860000371932983,6.888999938964844 2.1059999465942383,6.508999824523926 C2.1700000762939453,6.380000114440918 2.302000045776367,6.298999786376953 2.446000099182129,6.298999786376953 C2.5899999141693115,6.298999786376953 2.7219998836517334,6.380000114440918 2.7860000133514404,6.508999824523926 C2.9159998893737793,6.749000072479248 3.3959999084472656,7.5289998054504395 3.7860000133514404,7.589000225067139 C4.195000171661377,7.631999969482422 4.60699987411499,7.631999969482422 5.015999794006348,7.589000225067139 C4.934999942779541,7.289000034332275 4.894999980926514,6.980000019073486 4.895999908447266,6.669000148773193 C4.88700008392334,6.333000183105469 4.921000003814697,5.997000217437744 4.995999813079834,5.669000148773193 C5.298999786376953,5.008999824523926 5.699999809265137,4.39900016784668 6.185999870300293,3.8589999675750732 C6.489999771118164,3.4170000553131104 6.73199987411499,2.936000108718872 6.906000137329102,2.428999900817871 C7.0289998054504395,1.8559999465942383 7.110000133514404,1.2740000486373901 7.145999908447266,0.6890000104904175 C7.145999908447266,0.3190000057220459 7.145999908447266,-0.07100000232458115 7.145999908447266,-0.5109999775886536 C7.145999908447266,-0.9509999752044678 7.145999908447266,-0.9210000038146973 7.145999908447266,-1.5709999799728394 C7.260000228881836,-1.909999966621399 7.184999942779541,-2.2850000858306885 6.947999954223633,-2.553999900817871 C6.710999965667725,-2.822999954223633 6.348999977111816,-2.944999933242798 5.998000144958496,-2.874000072479248 C5.646999835968018,-2.802999973297119 5.360000133514404,-2.549999952316284 5.245999813079834,-2.2109999656677246 C5.026000022888184,-1.8609999418258667 4.955999851226807,-1.3309999704360962 4.955999851226807,-1.4709999561309814 C4.915999889373779,-2.0409998893737793 4.788000106811523,-2.6010000705718994 4.576000213623047,-3.13100004196167 C4.4039998054504395,-3.3589999675750732 4.166999816894531,-3.5299999713897705 3.8959999084472656,-3.621000051498413 C3.565000057220459,-3.680999994277954 3.2269999980926514,-3.680999994277954 2.8959999084472656,-3.621000051498413 C2.617000102996826,-3.5460000038146973 2.372999906539917,-3.375999927520752 2.2060000896453857,-3.1410000324249268 C2.046999931335449,-2.614000082015991 1.9529999494552612,-2.069999933242798 1.9259999990463257,-1.5210000276565552 C1.906000018119812,-2.1480000019073486 1.777999997138977,-2.7679998874664307 1.5460000038146973,-3.3510000705718994 C1.3609999418258667,-3.6080000400543213 1.0859999656677246,-3.7860000133514404 0.7760000228881836,-3.8510000705718994 C0.4690000116825104,-3.9030001163482666 0.15399999916553497,-3.881999969482422 -0.14399999380111694,-3.7909998893737793 C-0.4909999966621399,-3.6589999198913574 -0.7450000047683716,-3.3559999465942383 -0.8140000104904175,-2.990999937057495 C-0.8840000033378601,-2.6410000324249268 -0.8140000104904175,-1.8609999418258667 -0.8140000104904175,-1.4910000562667847 C-0.8240000009536743,-1.7910000085830688 -1.1339999437332153,-3.250999927520752 -1.2940000295639038,-4.250999927520752 C-1.3769999742507935,-4.938000202178955 -1.5520000457763672,-5.611000061035156 -1.8140000104904175,-6.250999927520752 C-1.9850000143051147,-6.770999908447266 -2.312999963760376,-7.22599983215332 -2.753999948501587,-7.551000118255615 C-3.191999912261963,-7.745999813079834 -3.7049999237060547,-7.659999847412109 -4.053999900817871,-7.330999851226807 C-4.3480000495910645,-6.76200008392334 -4.440000057220459,-6.109000205993652 -4.314000129699707,-5.480999946594238 C-4.245999813079834,-4.989999771118164 -4.1529998779296875,-4.501999855041504 -4.033999919891357,-4.020999908447266 C-3.9040000438690186,-3.5309998989105225 -3.8340001106262207,-3.1710000038146973 -3.7139999866485596,-2.740999937057495 C-3.5940001010894775,-2.311000108718872 -3.563999891281128,-2.2209999561309814 -3.434000015258789,-1.6510000228881836 C-3.2639999389648438,-0.9010000228881836 -3.1440000534057617,-0.061000000685453415 -3.0739998817443848,0.4390000104904175 C-2.9839999675750732,0.7789999842643738 -3.1040000915527344,0.5490000247955322 -3.2839999198913574,0.3190000057220459 C-3.4639999866485596,0.08900000154972076 -3.503999948501587,0.008999999612569809 -3.6640000343322754,-0.19099999964237213 C-3.878000020980835,-0.4740000069141388 -4.116000175476074,-0.7379999756813049 -4.374000072479248,-0.9810000061988831 C-4.74399995803833,-1.3480000495910645 -5.2129998207092285,-1.5980000495910645 -5.723999977111816,-1.7009999752044678 C-6.383999824523926,-1.774999976158142 -6.997000217437744,-1.347000002861023 -7.1539998054504395,-0.7009999752044678 C-7.245999813079834,-0.3610000014305115 -7.190999984741211,0.0010000000474974513 -7.004000186920166,0.29899999499320984 C-6.74399995803833,0.7889999747276306 -5.883999824523926,1.7389999628067017 -5.533999919891357,2.239000082015991z"/></g></g><g transform="matrix(1,0,0,1,20.197999954223633,20.15399932861328)" opacity="1" style="display: block;"><g opacity="1" transform="matrix(1,0,0,1,0,0)"><path stroke-linecap="round" stroke-linejoin="round" fill-opacity="0" stroke="rgb(32,33,37)" stroke-opacity="1" stroke-width="0.75" d=" M-5.533999919891357,2.239000082015991 C-4.923999786376953,3.1489999294281006 -4.573999881744385,3.878999948501587 -4.294000148773193,4.238999843597412 C-4.294000148773193,4.238999843597412 -3.4539999961853027,5.198999881744385 -3.4539999961853027,5.198999881744385 C-3.1440000534057617,5.479000091552734 -2.7239999771118164,5.89900016784668 -2.313999891281128,6.258999824523926 C-1.9040000438690186,6.61899995803833 -2.0840001106262207,7.61899995803833 -2.0840001106262207,7.61899995803833 C-0.9940000176429749,7.61899995803833 0.38600000739097595,7.698999881744385 1.055999994277954,7.61899995803833 C1.3960000276565552,7.578999996185303 1.8860000371932983,6.888999938964844 2.1059999465942383,6.508999824523926 C2.1700000762939453,6.380000114440918 2.302000045776367,6.298999786376953 2.446000099182129,6.298999786376953 C2.5899999141693115,6.298999786376953 2.7219998836517334,6.380000114440918 2.7860000133514404,6.508999824523926 C2.9159998893737793,6.749000072479248 3.3959999084472656,7.5289998054504395 3.7860000133514404,7.589000225067139 C4.195000171661377,7.631999969482422 4.60699987411499,7.631999969482422 5.015999794006348,7.589000225067139 C4.934999942779541,7.289000034332275 4.894999980926514,6.980000019073486 4.895999908447266,6.669000148773193 C4.88700008392334,6.333000183105469 4.921000003814697,5.997000217437744 4.995999813079834,5.669000148773193 C5.298999786376953,5.008999824523926 5.699999809265137,4.39900016784668 6.185999870300293,3.8589999675750732 C6.489999771118164,3.4170000553131104 6.73199987411499,2.936000108718872 6.906000137329102,2.428999900817871 C7.0289998054504395,1.8559999465942383 7.110000133514404,1.2740000486373901 7.145999908447266,0.6890000104904175 C7.145999908447266,0.3190000057220459 7.145999908447266,-0.07100000232458115 7.145999908447266,-0.5109999775886536 C7.145999908447266,-0.9509999752044678 7.145999908447266,-0.9210000038146973 7.145999908447266,-1.5709999799728394 C7.260000228881836,-1.909999966621399 7.184999942779541,-2.2850000858306885 6.947999954223633,-2.553999900817871 C6.710999965667725,-2.822999954223633 6.348999977111816,-2.944999933242798 5.998000144958496,-2.874000072479248 C5.646999835968018,-2.802999973297119 5.360000133514404,-2.549999952316284 5.245999813079834,-2.2109999656677246 C5.026000022888184,-1.8609999418258667 4.955999851226807,-1.3309999704360962 4.955999851226807,-1.4709999561309814 C4.915999889373779,-2.0409998893737793 4.788000106811523,-2.6010000705718994 4.576000213623047,-3.13100004196167 C4.4039998054504395,-3.3589999675750732 4.166999816894531,-3.5299999713897705 3.8959999084472656,-3.621000051498413 C3.565000057220459,-3.680999994277954 3.2269999980926514,-3.680999994277954 2.8959999084472656,-3.621000051498413 C2.617000102996826,-3.5460000038146973 2.372999906539917,-3.375999927520752 2.2060000896453857,-3.1410000324249268 C2.046999931335449,-2.614000082015991 1.9529999494552612,-2.069999933242798 1.9259999990463257,-1.5210000276565552 C1.906000018119812,-2.1480000019073486 1.777999997138977,-2.7679998874664307 1.5460000038146973,-3.3510000705718994 C1.3609999418258667,-3.6080000400543213 1.0859999656677246,-3.7860000133514404 0.7760000228881836,-3.8510000705718994 C0.4690000116825104,-3.9030001163482666 0.15399999916553497,-3.881999969482422 -0.14399999380111694,-3.7909998893737793 C-0.4909999966621399,-3.6589999198913574 -0.7450000047683716,-3.3559999465942383 -0.8140000104904175,-2.990999937057495 C-0.8840000033378601,-2.6410000324249268 -0.8140000104904175,-1.8609999418258667 -0.8140000104904175,-1.4910000562667847 C-0.8240000009536743,-1.7910000085830688 -1.1339999437332153,-3.250999927520752 -1.2940000295639038,-4.250999927520752 C-1.3769999742507935,-4.938000202178955 -1.5520000457763672,-5.611000061035156 -1.8140000104904175,-6.250999927520752 C-1.9850000143051147,-6.770999908447266 -2.312999963760376,-7.22599983215332 -2.753999948501587,-7.551000118255615 C-3.191999912261963,-7.745999813079834 -3.7049999237060547,-7.659999847412109 -4.053999900817871,-7.330999851226807 C-4.3480000495910645,-6.76200008392334 -4.440000057220459,-6.109000205993652 -4.314000129699707,-5.480999946594238 C-4.245999813079834,-4.989999771118164 -4.1529998779296875,-4.501999855041504 -4.033999919891357,-4.020999908447266 C-3.9040000438690186,-3.5309998989105225 -3.8340001106262207,-3.1710000038146973 -3.7139999866485596,-2.740999937057495 C-3.5940001010894775,-2.311000108718872 -3.563999891281128,-2.2209999561309814 -3.434000015258789,-1.6510000228881836 C-3.2639999389648438,-0.9010000228881836 -3.1440000534057617,-0.061000000685453415 -3.0739998817443848,0.4390000104904175 C-2.9839999675750732,0.7789999842643738 -3.1040000915527344,0.5490000247955322 -3.2839999198913574,0.3190000057220459 C-3.4639999866485596,0.08900000154972076 -3.503999948501587,0.008999999612569809 -3.6640000343322754,-0.19099999964237213 C-3.878000020980835,-0.4740000069141388 -4.116000175476074,-0.7379999756813049 -4.374000072479248,-0.9810000061988831 C-4.74399995803833,-1.3480000495910645 -5.2129998207092285,-1.5980000495910645 -5.723999977111816,-1.7009999752044678 C-6.383999824523926,-1.774999976158142 -6.997000217437744,-1.347000002861023 -7.1539998054504395,-0.7009999752044678 C-7.245999813079834,-0.3610000014305115 -7.190999984741211,0.0010000000474974513 -7.004000186920166,0.29899999499320984 C-6.74399995803833,0.7889999747276306 -5.883999824523926,1.7389999628067017 -5.533999919891357,2.239000082015991z"/></g></g><g transform="matrix(1,0,0,1,24.00899887084961,23.213001251220703)" opacity="1" style="display: block;"><g opacity="1" transform="matrix(1,0,0,1,0,0)"><path fill="rgb(32,33,37)" fill-opacity="1" d=" M0.375,-1.7259999513626099 C0.375,-1.7259999513626099 0.375,1.7259999513626099 0.375,1.7259999513626099 C0.375,1.9329999685287476 0.2070000022649765,2.0999999046325684 0,2.0999999046325684 C-0.2070000022649765,2.0999999046325684 -0.375,1.9329999685287476 -0.375,1.7259999513626099 C-0.375,1.7259999513626099 -0.375,-1.7259999513626099 -0.375,-1.7259999513626099 C-0.375,-1.9329999685287476 -0.2070000022649765,-2.0999999046325684 0,-2.0999999046325684 C0.2070000022649765,-2.0999999046325684 0.375,-1.9329999685287476 0.375,-1.7259999513626099z"/></g></g><g transform="matrix(1,0,0,1,22.019001007080078,23.213001251220703)" opacity="1" style="display: block;"><g opacity="1" transform="matrix(1,0,0,1,0,0)"><path fill="rgb(32,33,37)" fill-opacity="1" d=" M0.36500000953674316,-1.7289999723434448 C0.36500000953674316,-1.7289999723434448 0.38499999046325684,1.725000023841858 0.38499999046325684,1.725000023841858 C0.38600000739097595,1.930999994277954 0.21899999678134918,2.0989999771118164 0.012000000104308128,2.0999999046325684 C-0.19499999284744263,2.1010000705718994 -0.36399999260902405,1.934999942779541 -0.36500000953674316,1.7289999723434448 C-0.36500000953674316,1.7289999723434448 -0.38499999046325684,-1.725000023841858 -0.38499999046325684,-1.725000023841858 C-0.38600000739097595,-1.930999994277954 -0.21899999678134918,-2.0989999771118164 -0.012000000104308128,-2.0999999046325684 C0.19499999284744263,-2.1010000705718994 0.36399999260902405,-1.934999942779541 0.36500000953674316,-1.7289999723434448z"/></g></g><g transform="matrix(1,0,0,1,20.019001007080078,23.213001251220703)" opacity="1" style="display: block;"><g opacity="1" transform="matrix(1,0,0,1,0,0)"><path fill="rgb(32,33,37)" fill-opacity="1" d=" M-0.36500000953674316,1.725000023841858 C-0.36500000953674316,1.725000023841858 -0.38499999046325684,-1.7209999561309814 -0.38499999046325684,-1.7209999561309814 C-0.38600000739097595,-1.9290000200271606 -0.21899999678134918,-2.0989999771118164 -0.012000000104308128,-2.0999999046325684 C0.19499999284744263,-2.1010000705718994 0.36399999260902405,-1.9329999685287476 0.36500000953674316,-1.725000023841858 C0.36500000953674316,-1.725000023841858 0.38499999046325684,1.7209999561309814 0.38499999046325684,1.7209999561309814 C0.38600000739097595,1.9290000200271606 0.21899999678134918,2.0989999771118164 0.012000000104308128,2.0999999046325684 C-0.19499999284744263,2.1010000705718994 -0.36399999260902405,1.9329999685287476 -0.36500000953674316,1.725000023841858z"/></g></g></g></g></svg>