<svg width="64" height="64" viewBox="0 0 64 64" fill="none" xmlns="http://www.w3.org/2000/svg">
<g clip-path="url(#clip0_719_528)">
<path d="M31.9968 9.3335C44.5196 9.34517 54.6609 19.3164 54.649 31.6051C54.6371 43.8939 44.476 53.8457 31.9532 53.834C19.4463 53.8224 9.31025 43.8744 9.30101 31.6C9.28912 19.3138 19.4278 9.34517 31.9479 9.3335C31.9638 9.3335 31.9796 9.3335 31.9968 9.3335ZM24.3743 43.0086C29.2904 41.2938 34.6596 41.2925 39.577 43.006L40.2837 40.3969C40.6099 40.3969 40.9084 40.3891 41.2096 40.3995C41.52 40.3749 41.8317 40.3917 42.1368 40.4526C41.9241 41.5349 41.656 42.6068 41.3311 43.6619C42.1685 44.1155 43.0006 44.5264 43.7918 45.0034C44.583 45.4791 45.3319 46.0157 46.0966 46.5251C55.2896 38.2583 54.7163 24.1977 46.061 16.623C44.6001 17.7507 43.0085 18.7059 41.3192 19.4668C41.6401 20.5827 41.9466 21.6521 42.1487 22.7551H40.2665C40.1516 22.3105 40.0472 21.8854 39.9323 21.4641C39.8333 21.0234 39.7025 20.5918 39.5387 20.1706C34.6332 21.8763 29.2785 21.8737 24.3743 20.1628L23.665 22.7797C23.3388 22.7797 23.0376 22.781 22.7378 22.7797C22.4314 22.7771 22.1249 22.7719 21.7604 22.7667L22.6149 19.4577C20.9296 18.6994 19.3433 17.7468 17.889 16.6165C8.75419 24.7913 9.13855 38.8506 17.889 46.5432C19.3538 45.4143 20.9481 44.4577 22.6387 43.6943C22.2993 42.6146 22.0179 41.5168 21.7974 40.4086H23.6743L24.3743 43.0086ZM38.9258 18.4337C38.9153 18.3611 38.8994 18.2899 38.8796 18.2186C38.3037 16.6956 37.5139 15.2595 36.5351 13.9504C35.9051 13.091 35.11 12.36 34.1946 11.7988C32.9174 10.9861 31.2862 10.942 29.9654 11.6847C29.1161 12.1526 28.3672 12.7774 27.7609 13.5252C26.7861 14.7073 25.9923 16.0229 25.4019 17.4292C25.2632 17.7442 25.1364 18.0643 24.9885 18.4195C29.4938 20.006 34.4192 20.0111 38.9258 18.4337ZM25.0109 44.7338C25.0426 44.8401 25.0558 44.9023 25.0783 44.9593C25.6159 46.3721 26.3344 47.711 27.2167 48.9463C27.7939 49.7615 28.5006 50.4822 29.3102 51.0784C31.0101 52.2955 32.854 52.311 34.5711 51.1251C35.1588 50.7129 35.6898 50.2268 36.1508 49.6812C37.3237 48.2567 38.2483 46.6508 38.8862 44.9295C38.9047 44.8634 38.9166 44.796 38.9232 44.7286C34.4231 43.1577 29.5097 43.1603 25.0109 44.7338ZM37.2788 51.2793C39.9429 50.6209 42.4406 49.4297 44.612 47.7784C43.4193 46.8685 42.1249 46.0947 40.7552 45.4713C40.2348 46.5121 39.7566 47.527 39.2257 48.5146C38.6775 49.4997 38.025 50.4265 37.2788 51.2793ZM26.6923 51.2871C25.9395 50.4446 25.283 49.5217 24.7362 48.5367C24.1947 47.5412 23.7178 46.5134 23.1974 45.47C21.8264 46.0947 20.5307 46.8685 19.338 47.7784C21.5173 49.431 24.0203 50.6261 26.6923 51.2871ZM40.6865 17.6884C41.689 17.3566 44.2039 15.8272 44.5539 15.3398C42.3917 13.7067 39.9099 12.5285 37.2629 11.8778C38.7911 13.5952 39.8385 15.5718 40.6865 17.6884ZM26.6554 11.8921C24.0058 12.5453 21.5213 13.73 19.3591 15.3696C20.1358 16.0786 22.5397 17.494 23.274 17.6729C24.0613 15.5731 25.2038 13.6186 26.6554 11.8921Z" fill="white"/>
<path d="M44.0559 60.0141C44.0599 60.6881 43.9132 61.3543 43.6266 61.9674C43.0864 63.1508 41.9109 63.9311 40.5914 63.9829C40.1198 64.0257 39.6443 63.9881 39.1873 63.8702C38.0144 63.5837 37.0806 62.714 36.7253 61.5799C36.3687 60.5598 36.3634 59.4529 36.7094 58.4302C37.1387 57.0434 38.4027 56.0661 39.8768 55.9818C40.6653 55.8976 41.4618 56.0531 42.1579 56.4264C43.0877 56.941 43.7336 57.8366 43.9185 58.8683C43.9951 59.2429 44.0123 59.6318 44.0559 60.0141ZM39.1398 59.9714L39.2058 59.9765C39.2058 60.2721 39.186 60.5689 39.2098 60.8631C39.2137 61.379 39.326 61.8871 39.5387 62.3589C39.6602 62.6246 39.927 62.7982 40.2228 62.806C40.5346 62.8268 40.8265 62.6518 40.9506 62.3705C41.0563 62.1644 41.1329 61.9454 41.1778 61.7186C41.3561 60.6907 41.3759 59.6421 41.2359 58.6091C41.1897 58.2799 41.1012 57.9559 40.9744 57.6474C40.8767 57.3557 40.5966 57.16 40.2836 57.1652C39.9587 57.1535 39.6615 57.3389 39.5334 57.6305C39.4449 57.7886 39.3841 57.9597 39.3537 58.1373C39.2692 58.7478 39.2085 59.3596 39.1398 59.9714Z" fill="white"/>
<path d="M35.7356 60.0115C35.7792 60.6958 35.6418 61.3789 35.338 61.9959C34.7753 63.2 33.5536 63.9751 32.205 63.9881C31.6014 64.0321 30.9951 63.9375 30.4338 63.7133C29.4828 63.3296 28.7563 62.5506 28.4512 61.5876C28.0999 60.5805 28.0893 59.4891 28.4195 58.4743C28.8448 57.0265 30.1775 56.0168 31.7123 55.9779C32.913 55.9196 33.967 56.2423 34.7859 57.1522C35.3473 57.7912 35.6788 58.5922 35.7303 59.4347C35.7488 59.6239 35.7356 59.8184 35.7356 60.0115ZM33.0728 60.0815C33.0371 59.5371 33.0358 59.1223 32.9764 58.7179C32.9262 58.3628 32.839 58.0128 32.7162 57.6758C32.6224 57.3673 32.3305 57.1574 32.0029 57.16C31.6621 57.1457 31.3518 57.3544 31.2421 57.6719C31.1219 57.9286 31.044 58.2034 31.0123 58.4833C30.9634 59.3155 30.9344 60.1515 30.9463 60.9849C30.937 61.4632 31.048 61.9375 31.2672 62.3653C31.4389 62.7463 31.8933 62.9187 32.2829 62.7502C32.4454 62.6789 32.5788 62.5558 32.6594 62.399C32.7849 62.1877 32.8681 61.9557 32.9037 61.7133C32.9843 61.1275 33.0266 60.539 33.0702 60.0815H33.0728Z" fill="white"/>
<path d="M13.4017 57.7834C13.4453 57.8016 13.4915 57.8145 13.5377 57.8249C13.9948 57.8184 14.3712 58.1774 14.3778 58.6259C14.3778 58.6531 14.3778 58.6803 14.3752 58.7063C14.4135 59.2312 14.0489 59.7017 13.5245 59.8067C13.3436 59.8365 13.1587 59.8456 12.9751 59.8339C12.3966 59.8209 11.9224 59.3803 11.8761 58.8138C11.7692 58.0841 12.0439 57.3518 12.6066 56.8631C13.2009 56.3447 13.9564 56.0388 14.7503 55.9947C15.7079 55.8651 16.6826 56.0543 17.5187 56.5313C18.442 57.0498 18.8937 58.1139 18.6176 59.1223C18.4829 59.6421 18.1355 60.0841 17.6574 60.3433C17.1119 60.6544 16.5281 60.8942 15.9205 61.0601C15.482 61.1923 15.0369 61.3089 14.6076 61.467C14.2048 61.5785 13.8587 61.8352 13.6381 62.1851C13.724 62.1644 13.8085 62.1397 13.8917 62.1099C14.5984 61.7833 15.4001 61.712 16.1556 61.909C16.396 61.9738 16.6404 62.0257 16.886 62.0659C17.4183 62.1436 17.631 61.9712 17.6944 61.4346C17.7036 61.3582 17.7076 61.2817 17.7195 61.156C18.1276 61.1288 18.5371 61.13 18.9452 61.1612C18.9928 61.8624 18.9928 62.5351 18.6427 63.1598C18.3165 63.7444 17.7538 63.9323 17.1291 63.9855C16.5255 64.0243 15.9192 63.9531 15.342 63.7742C14.9642 63.6679 14.5878 63.5487 14.2034 63.4709C13.8244 63.3944 13.4321 63.3465 13.1957 63.756H11.892C11.8352 63.1728 11.9461 62.5843 12.2156 62.0607C12.5537 61.4593 13.0424 60.9525 13.6355 60.5883C14.078 60.2889 14.5429 60.0205 14.9946 59.7354C15.1624 59.6343 15.3248 59.5241 15.4794 59.4049C15.8175 59.1469 16.0064 58.7438 15.9866 58.3239C15.9945 57.9389 15.762 57.5877 15.4001 57.4373C14.7278 57.1302 13.9287 57.2675 13.4017 57.7834Z" fill="white"/>
<path d="M21.858 56.1905C21.8739 56.438 21.8857 56.6351 21.9003 56.8813C21.9518 56.8411 22.002 56.7958 22.0469 56.7478C22.5329 56.0959 23.2119 55.9429 23.97 56.0725C24.353 56.1555 24.7308 56.2631 25.1006 56.3927C25.3252 56.4601 25.5484 56.5366 25.7703 56.613C25.9539 56.6856 26.1626 56.6428 26.3026 56.5067L26.4347 56.206H27.4279C27.4979 56.4186 27.4874 56.648 27.3976 56.8528C27.1664 57.37 26.9379 57.8897 26.6685 58.3874C26.3237 59.0226 25.9275 59.6317 25.5748 60.263C25.0729 61.2169 24.8074 62.272 24.7968 63.3452C24.7916 63.4709 24.7836 63.5966 24.7757 63.7444H22.2358C22.1737 63.4554 22.1644 63.1573 22.208 62.8643C22.2833 61.76 22.7707 60.7218 23.579 59.9493C24.1127 59.4347 24.6674 58.9422 25.2103 58.438C25.3318 58.3239 25.444 58.2008 25.6276 58.0142C25.4718 58.0492 25.4057 58.0569 25.3437 58.0777C24.8008 58.2371 24.2262 58.2604 23.6715 58.1477C23.3756 58.0919 23.0771 58.0517 22.7773 58.0297C22.3652 57.9805 21.9914 58.2682 21.9412 58.6726C21.9412 58.6765 21.9399 58.6804 21.9399 58.683C21.9029 58.8722 21.8791 59.0627 21.8686 59.2559C21.8567 59.3803 21.8567 59.5073 21.8488 59.6525H20.4883V56.206C20.7142 56.2009 20.9321 56.1931 21.15 56.1892C21.3693 56.1892 21.5938 56.1905 21.858 56.1905Z" fill="white"/>
<path d="M46.0977 57.1756C46.8281 57.0615 47.5546 56.9539 47.9257 56.2073H49.8964C49.903 56.3499 49.9122 56.486 49.9136 56.6234C49.9149 58.3732 49.9149 60.1243 49.9136 61.8741C49.9136 61.9648 49.9109 62.0543 49.9136 62.145C49.9268 62.539 50.0509 62.6699 50.4604 62.6945C50.6545 62.7062 50.85 62.6971 51.0653 62.6971C51.1076 63.0328 51.1181 63.3711 51.0983 63.7081C50.7853 63.7846 46.7502 63.8105 46.1043 63.7431V62.7438C46.4662 62.6297 46.8862 62.8008 47.2957 62.5377C47.3485 62.4003 47.3828 62.2577 47.3987 62.1126C47.4093 60.8903 47.4053 59.6668 47.404 58.4445C47.3961 58.381 47.3829 58.3188 47.363 58.2578H46.0964L46.0977 57.1756Z" fill="white"/>
<path d="M31.7339 0L32.3124 2.31621L32.397 2.31491L33.0376 0.0362919H34.6199V3.97398H33.6385V1.18597C33.2819 2.08679 33.0666 3.0252 32.7747 3.96102H31.8713L31.1725 1.12765L31.0893 1.13024C31.0854 1.35966 31.0801 1.58907 31.0775 1.81849C31.0748 2.04791 31.0735 2.28251 31.0708 2.51452C31.0682 2.75949 31.0722 3.00446 31.0616 3.24943C31.051 3.47755 31.0246 3.70568 31.0022 3.96879L30.1291 3.92213C30.0432 3.64087 30.0459 0.593634 30.1304 0H31.7339Z" fill="white"/>
<path d="M52.2093 12.3833L51.3507 11.629L51.7007 9.0665L51.6321 9.03798L50.1871 10.5908L49.3391 9.82345L52.0679 6.87083L52.9146 7.64592L52.5514 10.2123L52.6161 10.2473L54.0782 8.68154L54.9394 9.43849L52.2093 12.3833Z" fill="white"/>
<path d="M14.8614 7.34006L13.6119 5.67063L14.5365 4.99015L16.947 8.18904L16.0198 8.8734L13.4362 7.99332C13.8774 8.64787 14.3278 9.18707 14.7531 9.782L13.8298 10.4586L11.4154 7.2597L12.3426 6.58571L14.794 7.41913L14.8614 7.34006Z" fill="white"/>
<path d="M61.7031 33.1113C61.2408 33.6233 60.8274 33.8748 59.8711 34.217V32.9092L61.1563 32.2637C61.3571 32.1937 61.5116 32.0317 61.5711 31.8295C61.5777 31.7517 61.579 31.6739 61.5724 31.5949H59.9715C59.9293 31.1905 59.9279 30.7835 59.9663 30.3791C61.3175 30.3324 62.6436 30.462 63.9974 30.4452C63.9974 30.834 64.004 31.1788 63.9961 31.5236C63.9855 31.9487 63.9618 32.3725 63.9419 32.7964C63.938 32.8729 63.9367 32.9506 63.9248 33.0271C63.8389 33.6052 63.5246 33.9409 63.0213 33.9927C62.4666 34.1081 61.9158 33.7853 61.7546 33.2526C61.7401 33.2099 61.7243 33.1645 61.7031 33.1113ZM62.9817 32.7381C63.1996 32.4283 63.23 32.2028 63.1283 31.6636L62.3886 31.6156C62.3001 31.8463 62.2817 32.0965 62.3371 32.3376C62.4204 32.751 62.5194 32.8158 62.9817 32.7381Z" fill="white"/>
<path d="M25.0132 0.699944C25.7277 0.583291 26.3961 0.471823 27.0671 0.368131C27.2863 0.329247 27.5082 0.307212 27.7301 0.302028C28.2083 0.265736 28.6441 0.57033 28.767 1.02398C28.9281 1.49189 28.7538 2.00775 28.3403 2.28902C28.269 2.33827 28.195 2.38234 28.1105 2.43548C28.7075 2.76989 28.9717 3.05245 29.5608 3.98178C29.3349 4.02326 29.1223 4.06473 28.9083 4.10103C28.689 4.13861 28.4698 4.17102 28.2254 4.2099C27.923 3.82884 27.6165 3.44518 27.3127 3.06022C27.1767 2.82821 26.8821 2.73619 26.6338 2.84895L26.8795 4.42377L25.6723 4.62208L25.0132 0.699944ZM27.6139 1.61891C27.5769 1.30265 27.4329 1.13415 27.1754 1.151C26.8953 1.14193 26.6167 1.19896 26.3631 1.31691L26.5097 2.08552C26.9574 2.01812 27.3946 2.0583 27.6139 1.61891Z" fill="white"/>
<path d="M20.1498 3.39853C20.1564 2.05054 21.4126 1.48412 22.4613 1.4582C23.7676 1.4258 24.4016 2.57159 24.4386 3.71608C24.4782 4.9863 23.3568 5.61234 22.0954 5.65382C20.8882 5.694 20.2106 4.57672 20.1498 3.39853ZM23.234 3.88329C23.2168 3.47111 23.0794 3.0719 22.839 2.73361C22.6198 2.44457 22.2301 2.33828 21.8907 2.47567C21.5526 2.58066 21.3293 2.89562 21.3452 3.24299C21.3624 3.66942 21.5143 4.0803 21.7797 4.4173C21.9937 4.69597 22.3754 4.78929 22.6977 4.64412C23.0398 4.5495 23.2644 4.23065 23.234 3.88329Z" fill="white"/>
<path d="M50.2584 6.49631C50.2121 7.36083 49.7129 8.13982 48.9389 8.55458C48.5373 8.76196 48.0658 8.79437 47.6392 8.64531C47.1465 8.49755 46.704 8.22147 46.358 7.84818C45.9498 7.42823 45.7953 6.82941 45.9512 6.26818C46.078 5.73676 46.3725 5.25978 46.7925 4.90205C47.2759 4.45877 47.9747 4.32526 48.5915 4.55857C49.0934 4.72059 49.5372 5.02 49.8714 5.4218C50.1316 5.72121 50.2689 6.10357 50.2584 6.49631ZM49.1119 6.34336C49.1119 5.78343 48.4488 5.23516 47.8941 5.57345C47.4226 5.84823 47.1122 6.32651 47.0593 6.86182C47.0012 7.42694 47.6894 7.90781 48.1886 7.64858C48.68 7.3725 49.0194 6.89293 49.1119 6.34336Z" fill="white"/>
<path d="M2.1892 37.399C1.15235 37.399 0.489292 36.9129 0.26211 35.9706C0.174935 35.6349 0.145876 35.2875 0.176255 34.9415C0.275317 34.064 0.733643 33.5818 1.60803 33.3654C1.97522 33.2669 2.35826 33.2396 2.73602 33.285C3.42285 33.3511 4.00137 33.8151 4.20214 34.4632C4.35271 34.878 4.40554 35.3199 4.35535 35.758C4.30252 36.3776 3.90495 36.9168 3.32379 37.1618C2.96981 37.329 2.58148 37.4106 2.1892 37.399ZM2.49167 34.458C2.13636 34.4489 1.7837 34.528 1.46802 34.6887C1.1814 34.8637 1.03479 35.1955 1.09951 35.5208C1.13518 35.854 1.39538 36.1223 1.73219 36.1728C2.14825 36.2506 2.57752 36.2 2.9632 36.0302C3.2802 35.9084 3.47568 35.5934 3.44134 35.2603C3.41757 34.738 3.09132 34.4606 2.49167 34.458Z" fill="white"/>
<path d="M63.942 28.8923C63.6527 28.9403 63.3991 28.9857 63.1442 29.022C62.6 29.0997 62.0545 29.1814 61.509 29.2475C60.7218 29.3447 59.8778 28.996 59.6823 28.0434C59.6004 27.6662 59.5594 27.2825 59.5594 26.8976C59.537 26.3208 59.9095 25.7997 60.4708 25.6261C60.8829 25.5016 61.3056 25.4122 61.7335 25.3591C62.2632 25.2735 62.7968 25.2152 63.3291 25.1452C63.4823 25.5185 63.5457 25.9216 63.5127 26.3221C62.9527 26.4025 62.3847 26.4815 61.8154 26.5632C61.5684 26.5982 61.3188 26.6163 61.0771 26.6695C60.6967 26.7187 60.4286 27.0609 60.4787 27.4342C60.4893 27.5171 60.5157 27.5962 60.5567 27.6701C60.6452 27.9241 60.9027 28.0849 61.1748 28.0537C61.5143 28.0265 61.8511 27.9812 62.1892 27.9358C62.6172 27.8788 63.0451 27.8114 63.4731 27.7543C63.5695 27.7479 63.6659 27.7479 63.7636 27.753L63.942 28.8923Z" fill="white"/>
<path d="M59.3022 19.9061L58.4252 18.181L57.6816 18.5413L58.6365 20.4414L57.8625 20.829C57.8256 20.7849 57.7925 20.7369 57.7622 20.689C57.2893 19.7545 56.8191 18.82 56.3225 17.8375L59.9679 16.0747L61.446 19.0196L60.7023 19.389L59.7513 17.5381L59.149 17.8245L60.0089 19.551L59.3022 19.9061Z" fill="white"/>
<path d="M58.3166 15.4825L57.6535 14.6568C57.8715 14.1462 57.816 13.8079 57.4964 13.6251C57.3194 13.524 57.2401 13.5525 57.0301 13.8117L57.2058 14.3341C57.3128 14.6516 57.4396 14.964 57.5215 15.2868C57.6535 15.6925 57.5281 16.1357 57.2031 16.4183C56.861 16.7384 56.3631 16.8395 55.9193 16.6801C55.7463 16.6218 55.5851 16.5337 55.4425 16.4209C54.9815 16.0515 54.6434 15.5564 54.4703 14.9977C54.3066 14.4637 54.5219 13.8869 54.9987 13.581L55.6855 14.43C55.5019 14.6905 55.321 14.9537 55.4742 15.2803C55.5587 15.5175 55.7687 15.6899 56.0223 15.7274C56.375 15.5939 56.4648 15.454 56.3776 15.1234C56.3248 14.9251 56.2204 14.7398 56.1716 14.5415C56.0818 14.2213 56.0197 13.8934 55.9853 13.5629C55.9378 12.9044 56.6576 12.4599 57.2586 12.6193C57.3999 12.6504 57.5333 12.7061 57.6549 12.7826C58.2453 13.1818 58.6534 13.7923 58.7908 14.4831C58.8581 14.8292 58.6996 15.1403 58.3166 15.4825Z" fill="white"/>
<path d="M1.90944 38.5966L2.29776 39.631C2.00322 39.8474 1.8434 40.1054 2.01114 40.4644C2.10888 40.6744 2.18153 40.7158 2.47475 40.7068C2.68609 40.5473 2.62797 40.3218 2.62533 40.1054C2.60684 39.7087 2.61212 39.3108 2.63722 38.9155C2.72967 37.968 3.88672 37.679 4.57619 38.1961C4.72412 38.3037 4.8496 38.4372 4.94866 38.5889C5.30529 39.1358 5.46246 39.7865 5.39378 40.4333C5.33038 40.9466 4.96716 41.2252 4.48637 41.4456L4.08748 40.4125C4.72544 39.872 4.71752 39.3303 4.08088 39.0529C3.73086 39.154 3.6635 39.2214 3.65161 39.548C3.64236 39.8046 3.6701 40.0639 3.65821 40.3205C3.65557 40.5642 3.62784 40.8079 3.57368 41.0464C3.43896 41.5868 2.88421 41.9187 2.3321 41.7877C2.20398 41.7566 2.08379 41.7022 1.97548 41.627C1.83283 41.535 1.71131 41.4158 1.61489 41.2771C1.24903 40.7508 1.08392 40.1144 1.14732 39.4793C1.20412 39.0645 1.5013 38.7185 1.90944 38.5966Z" fill="white"/>
<path d="M39.3864 4.86048L38.1527 4.62718C38.1131 4.37313 38.0814 4.16186 38.0471 3.94022L36.6483 3.6784L36.2785 4.2837L35.0752 4.05039L37.3246 0.428968L38.6441 0.675235C38.9122 2.04785 39.1473 3.42047 39.3864 4.86048ZM37.9533 3.07699C37.948 2.59223 37.8687 2.11136 37.7195 1.64864L37.0525 2.89294L37.9533 3.07699Z" fill="white"/>
<path d="M6.13853 19.2465C5.92324 19.1972 5.70266 19.1648 5.49265 19.0961C4.98281 18.9276 4.50731 18.6697 4.09125 18.3353C3.54575 17.9724 3.35291 17.2712 3.63953 16.6879C3.72934 16.4611 3.85086 16.2459 4.00011 16.0515C4.29333 15.6367 4.81638 15.441 5.31698 15.5577C6.02758 15.7002 6.68403 16.0282 7.22029 16.5077C7.73805 16.8888 7.88599 17.5874 7.56502 18.1396C7.45408 18.3716 7.31539 18.5894 7.15161 18.789C6.90065 19.0832 6.5295 19.2517 6.13853 19.2465ZM6.29175 18.2342C6.58101 18.2446 6.73951 18.1681 6.8148 17.9892C6.90329 17.7922 6.84385 17.5615 6.6695 17.4306C6.17684 17.0055 5.59171 16.697 4.95771 16.5272C4.7477 16.4598 4.5192 16.5492 4.41485 16.7411C4.31843 16.9018 4.3356 17.104 4.45844 17.2453C4.49542 17.2984 4.54033 17.3451 4.59184 17.3852C5.04621 17.7326 5.55473 18.0074 6.09627 18.1992C6.15967 18.2174 6.22571 18.229 6.29175 18.2342Z" fill="white"/>
<path d="M60.4684 23.5937V24.5852C59.8066 24.7524 59.1185 24.4349 58.8266 23.8283C58.6337 23.4615 58.5201 23.0584 58.4937 22.6462C58.433 21.9839 58.779 21.3513 59.3747 21.0351C59.8344 20.7538 60.3693 20.6112 60.9122 20.6268C61.3652 20.6268 61.7971 20.816 62.0983 21.1479C62.5421 21.6339 62.7732 22.2716 62.7428 22.9236C62.7164 23.4343 62.4298 23.897 61.982 24.1575L61.4418 23.2411C61.492 23.1854 61.5369 23.14 61.5779 23.0921C61.8698 22.7771 61.846 22.2911 61.5264 22.0046C61.356 21.8517 61.1248 21.7804 60.895 21.8102C60.5225 21.8789 60.1619 21.9968 59.8212 22.1601C59.5161 22.2911 59.3602 22.6255 59.4593 22.9378C59.5108 23.2541 59.7644 23.5004 60.0866 23.5496C60.1989 23.5703 60.3165 23.5755 60.4684 23.5937Z" fill="white"/>
<path d="M4.35291 22.7811C3.61457 22.7046 2.91189 22.4363 2.31355 22.0047C1.91202 21.7312 1.72446 21.2439 1.84202 20.7785C1.89881 20.5025 1.98731 20.2342 2.10618 19.9788C2.33469 19.4617 2.89207 19.1636 3.45871 19.2556C4.15347 19.3178 4.82048 19.555 5.39504 19.9438C5.94451 20.2497 6.18622 20.9017 5.96564 21.4824C5.91677 21.6547 5.85205 21.8245 5.77544 21.9866C5.51656 22.5374 5.06484 22.785 4.35291 22.7811ZM4.62368 21.7805C4.94068 21.7779 5.10842 21.6742 5.18107 21.4772C5.25371 21.2892 5.18371 21.0767 5.01332 20.9652C4.89445 20.8641 4.76237 20.7798 4.62104 20.7137C4.30932 20.5828 3.98836 20.4675 3.6674 20.3573C3.51815 20.308 3.36493 20.2743 3.20907 20.2536C2.96868 20.2095 2.72829 20.3353 2.63187 20.5556C2.55526 20.7461 2.61338 20.9172 2.82999 21.0909C2.91849 21.1674 3.01887 21.2296 3.12718 21.2763C3.52871 21.4305 3.93289 21.577 4.3397 21.7183C4.43348 21.7455 4.5299 21.7649 4.62764 21.7779L4.62368 21.7805Z" fill="white"/>
<path d="M1.32293 29.3253L1.13669 30.335C0.337593 30.1742 -0.0190315 29.7504 0.000780868 28.9701C0.00870583 28.6487 0.0549352 28.3298 0.139468 28.0188C0.283438 27.4186 0.896302 27.0454 1.50785 27.1866C1.67163 27.2242 1.82484 27.2968 1.95561 27.3992C2.25279 27.6338 2.49715 27.9254 2.67414 28.2573C2.82603 28.4944 2.97793 28.7316 3.1536 29.0077C3.3438 28.7174 3.25794 28.4413 3.30021 28.1873C3.3438 27.9228 3.36097 27.6545 3.39531 27.3383L4.27498 27.3849C4.17195 28.5048 4.07421 29.5767 3.97383 30.6901C3.58551 30.611 3.23021 30.4205 2.95151 30.1431C2.68999 29.8567 2.4628 29.5391 2.23034 29.2294C2.09033 29.0427 1.96881 28.8431 1.83673 28.6526C1.79314 28.5891 1.74295 28.5281 1.6888 28.4724C1.54615 28.2961 1.30972 28.2197 1.08782 28.2767C0.896303 28.3441 0.765541 28.5178 0.758937 28.7174C0.751012 28.9442 0.893661 29.1503 1.1116 29.2255C1.17103 29.2488 1.22783 29.2786 1.32293 29.3253Z" fill="white"/>
<path d="M19.0644 4.34855L19.4276 5.02385L18.0355 5.76265L18.7936 7.20396L17.7106 7.77167L15.8231 4.24616L18.5519 2.84114L18.9561 3.5605L17.3315 4.41336L17.6617 5.05884L19.0644 4.34855Z" fill="white"/>
<path d="M58.8981 43.6192L57.3461 42.9529L57.8348 41.8538L59.4066 42.5084L62.1883 42.0249L61.6454 43.2342L60.0432 43.4494L60.9718 44.7429L60.4355 45.9652L58.8981 43.6192Z" fill="white"/>
<path d="M41.5463 5.62007L40.3906 5.23382L41.3601 2.4186C40.9982 2.1814 40.5649 2.1464 40.1661 1.94032L40.4778 1.05894L44.077 2.26047L43.7653 3.15869L42.5435 2.76985L41.5463 5.62007Z" fill="white"/>
<path d="M59.1657 37.8124L62.1363 38.5745L62.4823 37.3626L63.4135 37.6024L62.4559 41.1992L61.5115 40.9737L61.8285 39.7514L58.862 38.975L59.1657 37.8124Z" fill="white"/>
<path d="M1.2805 26.1951L0.403472 25.9903L1.12068 22.8653L1.83261 23.0182C2.48906 24.072 3.53119 24.8419 4.74503 25.1698L4.50992 26.1977C3.41232 25.862 2.4534 25.1893 1.77317 24.2781C1.55127 24.9314 1.48655 25.5561 1.2805 26.1951Z" fill="white"/>
<path d="M7.16778 13.7962C7.08985 14.1799 7.02513 14.5065 6.95513 14.8318C6.93267 14.8979 6.90229 14.9627 6.86663 15.0236L6.16659 14.5207C6.36075 13.9362 6.44132 13.3568 6.11244 12.7878L6.65794 12.0581L9.97454 14.4572L9.32205 15.3412L7.16778 13.7962Z" fill="white"/>
<path d="M13.1142 11.0911L12.2676 11.9803L9.47797 9.10155L10.3325 8.22925L13.1142 11.0911Z" fill="white"/>
<path d="M44.4677 6.85921L43.3582 6.33557L45.0872 2.74266L46.2073 3.25334L44.4677 6.85921Z" fill="white"/>
<path d="M6.0645 41.7267L6.55056 42.8375L2.82979 44.4149L2.3424 43.3054L6.0645 41.7267Z" fill="white"/>
<path d="M59.5569 35.9252L59.7326 34.7574C61.0693 34.9156 62.3769 35.1126 63.7308 35.3122L63.5657 36.4852C62.2144 36.3219 60.9015 36.1326 59.5569 35.9252Z" fill="white"/>
<path d="M49.5624 31.6039C49.5743 32.6396 49.3392 33.6648 48.8782 34.5954C48.2865 35.7322 47.2919 36.6174 46.0807 37.084C45.201 37.4262 44.2685 37.6167 43.3228 37.6504C42.2212 37.736 41.1131 37.618 40.0564 37.3044C37.77 36.585 36.4003 35.0724 36.0516 32.716C35.8786 31.6428 35.9486 30.5463 36.2564 29.5029C36.72 27.9112 37.9259 26.6319 39.5069 26.0525C40.8621 25.5471 42.3229 25.3708 43.7626 25.5406C44.5895 25.595 45.4005 25.7881 46.1613 26.1096C47.9642 26.8393 49.2229 28.4724 49.4475 30.3739C49.5082 30.7809 49.5254 31.1944 49.5624 31.6039ZM45.0716 31.6039C45.0346 31.0531 45.0161 30.4983 44.954 29.9501C44.9078 29.3318 44.7374 28.7304 44.4521 28.1769C44.1364 27.5613 43.4839 27.1815 42.7826 27.2061C42.068 27.1711 41.397 27.5483 41.0668 28.1717C40.8344 28.606 40.6838 29.0765 40.6204 29.5625C40.4355 30.7601 40.413 31.9759 40.5543 33.1788C40.5979 33.7309 40.7327 34.274 40.9532 34.7834C41.3785 35.7594 42.5316 36.213 43.5262 35.7957C43.9634 35.6116 44.3174 35.2785 44.5234 34.8586C44.6449 34.6019 44.74 34.3349 44.8048 34.0588C44.9831 33.2513 45.0716 32.4296 45.0716 31.6039Z" fill="white"/>
<path d="M32.4112 29.7335C32.3332 29.5223 32.2738 29.3525 32.2104 29.184C31.7798 28.0485 30.9134 27.4705 29.7167 27.3447C29.261 27.276 28.7947 27.3007 28.3496 27.4173C28.0577 27.5003 27.7949 27.6584 27.5875 27.8774C27.1609 28.3402 27.2071 28.8612 27.7486 29.1853C28.0643 29.368 28.4051 29.5067 28.7591 29.5974C29.504 29.7983 30.2661 29.9435 31.0137 30.1405C31.8828 30.3466 32.7123 30.6862 33.4731 31.1476C34.2907 31.6466 34.8151 32.5008 34.8811 33.4431C35.0198 34.3996 34.7464 35.3692 34.1256 36.1196C33.6541 36.6627 33.0412 37.0697 32.3517 37.2965C31.4298 37.6011 30.4537 37.723 29.4829 37.6543C28.3404 37.5933 27.2216 37.3095 26.1914 36.8196C26.1465 36.7988 26.0963 36.7858 26.0197 36.7599L25.5812 37.3652H24.0332V33.1644C24.3 33.1242 24.5721 33.1139 24.8415 33.132C25.103 33.1255 25.3646 33.1307 25.6591 33.1307C25.7133 33.2694 25.7608 33.399 25.815 33.526C26.3539 34.7859 27.2586 35.6297 28.6547 35.8928C29.1183 35.9978 29.6004 35.9874 30.0588 35.863C30.3097 35.7904 30.5435 35.6738 30.7509 35.5169C31.1511 35.237 31.2449 34.6913 30.9609 34.2985C30.9028 34.2182 30.8315 34.1482 30.7496 34.0912C30.4128 33.8475 30.039 33.6557 29.6427 33.5235C28.8753 33.2616 28.0841 33.0698 27.3101 32.8274C26.7699 32.668 26.2389 32.4801 25.7199 32.2649C24.7332 31.8346 24.0107 31.1347 23.7915 30.0705C23.4414 28.3713 24.1692 26.8937 25.7568 26.0719C26.4371 25.731 27.186 25.5405 27.9481 25.5107C29.3944 25.4057 30.846 25.6636 32.1629 26.2599C32.2104 26.2819 32.2606 26.2975 32.3464 26.3299L32.6674 25.8036H34.2973V29.7245C33.9948 29.727 33.6858 29.7322 33.378 29.7335C33.061 29.7348 32.7467 29.7335 32.4112 29.7335Z" fill="white"/>
<path d="M22.6492 35.7179V37.2979H15.7638V35.7179C15.9764 35.7179 16.1838 35.7218 16.3885 35.7166C16.5325 35.7166 16.6765 35.7049 16.8191 35.6816C17.037 35.6609 17.2114 35.4924 17.2365 35.2785C17.2682 35.1139 17.2893 34.948 17.2972 34.7821C17.3012 32.6434 17.3012 30.5035 17.2972 28.3649C17.2959 27.6079 17.1123 27.4355 16.341 27.4226C16.1587 27.42 15.9751 27.4226 15.7638 27.4226V25.8504H22.6017C22.6915 26.361 22.6994 26.8834 22.6241 27.3967C22.529 27.4057 22.4287 27.4174 22.327 27.4239C22.2253 27.4304 22.1169 27.4239 22.0113 27.4265C21.3086 27.4511 21.1422 27.5989 21.1422 28.2793C21.1356 30.4698 21.1356 32.6603 21.1422 34.8508C21.1448 35.5533 21.3126 35.7049 22.0324 35.7179C22.2279 35.7205 22.4221 35.7179 22.6492 35.7179Z" fill="white"/>
</g>
<defs>
<clipPath id="clip0_719_528">
<rect width="64" height="64" fill="white"/>
</clipPath>
</defs>
</svg>
