<svg xmlns="http://www.w3.org/2000/svg" xmlns:xlink="http://www.w3.org/1999/xlink" viewBox="0 0 252 248" width="252" height="248" preserveAspectRatio="xMidYMid meet" style="width: 100%; height: 100%; transform: translate3d(0px, 0px, 0px); content-visibility: visible;"><defs><clipPath id="__lottie_element_618"><rect width="252" height="248" x="0" y="0"/></clipPath><clipPath id="__lottie_element_623"><path d="M0,0 L117,0 L117,29 L0,29z"/></clipPath><clipPath id="__lottie_element_627"><path d="M0,0 L40,0 L40,40 L0,40z"/></clipPath></defs><g clip-path="url(#__lottie_element_618)"><g transform="matrix(1,0,0,1,126,124)" opacity="1" style="display: block;"><g opacity="1" transform="matrix(1,0,0,1,0,0)"><path fill="rgb(251,252,252)" fill-opacity="1" d=" M126,-124 C126,-124 126,124 126,124 C126,124 -126,124 -126,124 C-126,124 -126,-124 -126,-124 C-126,-124 126,-124 126,-124z"/></g></g><g clip-path="url(#__lottie_element_623)" transform="matrix(1,0,0,1,67.5,109.5)" opacity="1" style="display: block;"><g transform="matrix(1,0,0,1,58.5,14.5)" opacity="1" style="display: block;"><g opacity="1" transform="matrix(1,0,0,1,0,0)"><path fill="rgb(255,255,255)" fill-opacity="1" d=" M58.5,-8.5 C58.5,-8.5 58.5,8.5 58.5,8.5 C58.5,11.811400413513184 55.8114013671875,14.5 52.5,14.5 C52.5,14.5 -52.5,14.5 -52.5,14.5 C-55.8114013671875,14.5 -58.5,11.811400413513184 -58.5,8.5 C-58.5,8.5 -58.5,-8.5 -58.5,-8.5 C-58.5,-11.811400413513184 -55.8114013671875,-14.5 -52.5,-14.5 C-52.5,-14.5 52.5,-14.5 52.5,-14.5 C55.8114013671875,-14.5 58.5,-11.811400413513184 58.5,-8.5z"/><path stroke-linecap="butt" stroke-linejoin="miter" fill-opacity="0" stroke-miterlimit="4" stroke="rgb(245,246,248)" stroke-opacity="1" stroke-width="1" d=" M58.5,-8.5 C58.5,-8.5 58.5,8.5 58.5,8.5 C58.5,11.811400413513184 55.8114013671875,14.5 52.5,14.5 C52.5,14.5 -52.5,14.5 -52.5,14.5 C-55.8114013671875,14.5 -58.5,11.811400413513184 -58.5,8.5 C-58.5,8.5 -58.5,-8.5 -58.5,-8.5 C-58.5,-11.811400413513184 -55.8114013671875,-14.5 -52.5,-14.5 C-52.5,-14.5 52.5,-14.5 52.5,-14.5 C55.8114013671875,-14.5 58.5,-11.811400413513184 58.5,-8.5z"/></g></g><g transform="matrix(1,0,0,1,48.75,20.082000732421875)" opacity="1" fill="rgb(21,21,21)" font-size="14" font-family="Inter" font-style="normal" font-weight="500" aria-label="Create draft" style="display: block;"><g stroke-linecap="butt" stroke-linejoin="round" stroke-miterlimit="4" transform="matrix(1,0,0,1,-42.9827995300293,-0.31829833984375)" opacity="1" style="display: inherit;"><g><g transform="matrix(1,0,0,1,0,0)" opacity="1" style="display: block;"><path d=" M9.08,-8.33 C8.83,-8.76 8.52,-9.12 8.15,-9.41 C7.77,-9.71 7.35,-9.94 6.88,-10.09 C6.41,-10.24 5.91,-10.32 5.37,-10.32 C4.49,-10.32 3.71,-10.11 3.02,-9.69 C2.33,-9.27 1.78,-8.67 1.39,-7.89 C0.99,-7.11 0.79,-6.18 0.79,-5.09 C0.79,-4.01 0.99,-3.07 1.38,-2.29 C1.78,-1.51 2.32,-0.91 3.01,-0.49 C3.7,-0.07 4.49,0.14 5.37,0.14 C5.93,0.14 6.45,0.06 6.92,-0.11 C7.39,-0.28 7.82,-0.51 8.19,-0.81 C8.56,-1.12 8.86,-1.48 9.1,-1.9 C9.33,-2.32 9.49,-2.78 9.58,-3.28 C9.58,-3.28 8.02,-3.28 8.02,-3.28 C7.96,-2.96 7.85,-2.67 7.68,-2.42 C7.52,-2.17 7.32,-1.96 7.08,-1.78 C6.85,-1.61 6.59,-1.48 6.3,-1.39 C6.01,-1.31 5.7,-1.26 5.38,-1.26 C4.8,-1.26 4.28,-1.41 3.81,-1.7 C3.35,-1.99 2.98,-2.42 2.72,-2.99 C2.45,-3.56 2.32,-4.26 2.32,-5.09 C2.32,-5.91 2.45,-6.61 2.72,-7.18 C2.98,-7.75 3.35,-8.18 3.81,-8.48 C4.27,-8.77 4.8,-8.92 5.38,-8.92 C5.71,-8.92 6.02,-8.87 6.31,-8.78 C6.6,-8.7 6.86,-8.56 7.09,-8.39 C7.33,-8.21 7.53,-8 7.69,-7.75 C7.85,-7.49 7.96,-7.2 8.02,-6.87 C8.02,-6.87 9.58,-6.87 9.58,-6.87 C9.49,-7.42 9.32,-7.9 9.08,-8.33z"/><g opacity="1" transform="matrix(0.14000000059604645,0,0,0.14000000059604645,0,0)"/></g></g></g><g stroke-linecap="butt" stroke-linejoin="round" stroke-miterlimit="4" transform="matrix(1,0,0,1,-32.687198638916016,-0.31829833984375)" opacity="1" style="display: inherit;"><g><g transform="matrix(1,0,0,1,0,0)" opacity="1" style="display: block;"><path d=" M2.49,0 C2.49,0 2.49,-4.66 2.49,-4.66 C2.49,-4.99 2.57,-5.29 2.72,-5.55 C2.88,-5.81 3.1,-6.01 3.37,-6.16 C3.65,-6.31 3.96,-6.38 4.31,-6.38 C4.46,-6.38 4.62,-6.37 4.77,-6.35 C4.92,-6.33 5.03,-6.31 5.09,-6.29 C5.09,-6.29 5.09,-7.72 5.09,-7.72 C5.01,-7.73 4.91,-7.73 4.79,-7.74 C4.66,-7.75 4.55,-7.75 4.45,-7.75 C4.01,-7.75 3.61,-7.63 3.25,-7.4 C2.9,-7.16 2.65,-6.83 2.52,-6.42 C2.52,-6.42 2.44,-6.42 2.44,-6.42 C2.44,-6.42 2.44,-7.64 2.44,-7.64 C2.44,-7.64 1,-7.64 1,-7.64 C1,-7.64 1,0 1,0 C1,0 2.49,0 2.49,0z"/><g opacity="1" transform="matrix(0.14000000059604645,0,0,0.14000000059604645,0,0)"/></g></g></g><g stroke-linecap="butt" stroke-linejoin="round" stroke-miterlimit="4" transform="matrix(1,0,0,1,-27.308401107788086,-0.31829833984375)" opacity="1" style="display: inherit;"><g><g transform="matrix(1,0,0,1,0,0)" opacity="1" style="display: block;"><path d=" M5.78,-0.1 C6.22,-0.27 6.58,-0.51 6.87,-0.82 C7.16,-1.13 7.36,-1.49 7.47,-1.91 C7.47,-1.91 6.07,-2.16 6.07,-2.16 C5.98,-1.92 5.85,-1.72 5.68,-1.56 C5.51,-1.4 5.31,-1.28 5.08,-1.2 C4.84,-1.11 4.59,-1.07 4.31,-1.07 C3.87,-1.07 3.49,-1.17 3.17,-1.35 C2.84,-1.54 2.59,-1.81 2.41,-2.17 C2.23,-2.53 2.14,-2.96 2.14,-3.48 C2.14,-3.48 2.14,-4.35 2.14,-4.35 C2.14,-4.73 2.22,-5.08 2.39,-5.41 C2.56,-5.73 2.79,-6 3.1,-6.2 C3.41,-6.41 3.78,-6.51 4.2,-6.51 C4.58,-6.51 4.92,-6.42 5.2,-6.24 C5.49,-6.07 5.71,-5.83 5.87,-5.53 C6.03,-5.22 6.11,-4.88 6.11,-4.48 C6.11,-4.48 1.5,-4.48 1.5,-4.48 C1.5,-4.48 1.5,-3.37 1.5,-3.37 C1.5,-3.37 7.57,-3.37 7.57,-3.37 C7.57,-3.37 7.57,-3.9 7.57,-3.9 C7.57,-4.59 7.47,-5.18 7.29,-5.67 C7.1,-6.15 6.85,-6.55 6.53,-6.85 C6.21,-7.16 5.84,-7.38 5.44,-7.52 C5.03,-7.66 4.62,-7.74 4.19,-7.74 C3.48,-7.74 2.86,-7.57 2.33,-7.23 C1.8,-6.9 1.39,-6.43 1.1,-5.84 C0.8,-5.24 0.66,-4.55 0.66,-3.77 C0.66,-2.98 0.8,-2.29 1.1,-1.7 C1.39,-1.11 1.81,-0.65 2.35,-0.33 C2.89,-0.01 3.54,0.15 4.29,0.15 C4.85,0.15 5.34,0.07 5.78,-0.1z"/><g opacity="1" transform="matrix(0.14000000059604645,0,0,0.14000000059604645,0,0)"/></g></g></g><g stroke-linecap="butt" stroke-linejoin="round" stroke-miterlimit="4" transform="matrix(1,0,0,1,-19.084800720214844,-0.31829833984375)" opacity="1" style="display: inherit;"><g><g transform="matrix(1,0,0,1,0,0)" opacity="1" style="display: block;"><path d=" M2.51,-1.31 C2.23,-1.49 2.1,-1.77 2.1,-2.14 C2.1,-2.4 2.17,-2.62 2.31,-2.78 C2.45,-2.94 2.64,-3.06 2.88,-3.15 C3.11,-3.23 3.38,-3.29 3.66,-3.33 C3.79,-3.35 3.94,-3.37 4.12,-3.39 C4.3,-3.42 4.49,-3.45 4.68,-3.48 C4.88,-3.51 5.05,-3.55 5.2,-3.59 C5.35,-3.64 5.45,-3.69 5.5,-3.74 C5.5,-3.74 5.5,-2.75 5.5,-2.75 C5.5,-2.45 5.43,-2.17 5.27,-1.91 C5.12,-1.64 4.89,-1.43 4.6,-1.27 C4.31,-1.11 3.96,-1.02 3.54,-1.02 C3.12,-1.02 2.78,-1.12 2.51,-1.31z M4.31,-0.01 C4.61,-0.14 4.85,-0.29 5.05,-0.48 C5.24,-0.66 5.38,-0.85 5.48,-1.04 C5.48,-1.04 5.54,-1.04 5.54,-1.04 C5.54,-1.04 5.54,0 5.54,0 C5.54,0 6.99,0 6.99,0 C6.99,0 6.99,-5.07 6.99,-5.07 C6.99,-5.63 6.89,-6.08 6.7,-6.43 C6.51,-6.78 6.26,-7.05 5.96,-7.24 C5.66,-7.43 5.34,-7.56 5,-7.63 C4.66,-7.7 4.33,-7.74 4.03,-7.74 C3.57,-7.74 3.13,-7.67 2.71,-7.54 C2.29,-7.41 1.92,-7.2 1.6,-6.91 C1.28,-6.63 1.04,-6.25 0.88,-5.79 C0.88,-5.79 2.27,-5.47 2.27,-5.47 C2.38,-5.74 2.58,-5.98 2.87,-6.2 C3.15,-6.42 3.55,-6.53 4.05,-6.53 C4.53,-6.53 4.89,-6.41 5.13,-6.17 C5.38,-5.94 5.5,-5.6 5.5,-5.17 C5.5,-5.17 5.5,-5.13 5.5,-5.13 C5.5,-4.95 5.43,-4.82 5.3,-4.74 C5.18,-4.66 4.97,-4.61 4.68,-4.57 C4.4,-4.54 4.03,-4.49 3.57,-4.44 C3.21,-4.4 2.85,-4.33 2.51,-4.25 C2.16,-4.17 1.84,-4.05 1.56,-3.88 C1.28,-3.72 1.06,-3.5 0.89,-3.22 C0.72,-2.94 0.64,-2.59 0.64,-2.16 C0.64,-1.66 0.75,-1.23 0.98,-0.89 C1.21,-0.55 1.52,-0.28 1.91,-0.1 C2.3,0.08 2.74,0.17 3.22,0.17 C3.64,0.17 4,0.11 4.31,-0.01z"/><g opacity="1" transform="matrix(0.14000000059604645,0,0,0.14000000059604645,0,0)"/></g></g></g><g stroke-linecap="butt" stroke-linejoin="round" stroke-miterlimit="4" transform="matrix(1,0,0,1,-11.115999221801758,-0.31829833984375)" opacity="1" style="display: inherit;"><g><g transform="matrix(1,0,0,1,0,0)" opacity="1" style="display: block;"><path d=" M1.51,-1.93 C1.51,-1.47 1.62,-1.09 1.82,-0.79 C2.03,-0.48 2.31,-0.26 2.64,-0.11 C2.98,0.04 3.35,0.11 3.74,0.1 C3.98,0.1 4.18,0.08 4.34,0.04 C4.49,0.01 4.62,-0.03 4.7,-0.06 C4.7,-0.06 4.43,-1.29 4.43,-1.29 C4.38,-1.28 4.32,-1.26 4.23,-1.25 C4.14,-1.23 4.03,-1.22 3.91,-1.22 C3.75,-1.22 3.6,-1.25 3.46,-1.3 C3.33,-1.35 3.21,-1.45 3.13,-1.59 C3.04,-1.74 3,-1.95 3,-2.24 C3,-2.24 3,-9.47 3,-9.47 C3,-9.47 1.51,-9.47 1.51,-9.47 C1.51,-9.47 1.51,-1.93 1.51,-1.93z M0.39,-7.64 C0.39,-7.64 0.39,-6.44 0.39,-6.44 C0.39,-6.44 4.56,-6.44 4.56,-6.44 C4.56,-6.44 4.56,-7.64 4.56,-7.64 C4.56,-7.64 0.39,-7.64 0.39,-7.64z"/><g opacity="1" transform="matrix(0.14000000059604645,0,0,0.14000000059604645,0,0)"/></g></g></g><g stroke-linecap="butt" stroke-linejoin="round" stroke-miterlimit="4" transform="matrix(1,0,0,1,-5.910798072814941,-0.31829833984375)" opacity="1" style="display: inherit;"><g><g transform="matrix(1,0,0,1,0,0)" opacity="1" style="display: block;"><path d=" M5.78,-0.1 C6.22,-0.27 6.58,-0.51 6.87,-0.82 C7.16,-1.13 7.36,-1.49 7.47,-1.91 C7.47,-1.91 6.07,-2.16 6.07,-2.16 C5.98,-1.92 5.85,-1.72 5.68,-1.56 C5.51,-1.4 5.31,-1.28 5.08,-1.2 C4.84,-1.11 4.59,-1.07 4.31,-1.07 C3.87,-1.07 3.49,-1.17 3.17,-1.35 C2.84,-1.54 2.59,-1.81 2.41,-2.17 C2.23,-2.53 2.14,-2.96 2.14,-3.48 C2.14,-3.48 2.14,-4.35 2.14,-4.35 C2.14,-4.73 2.22,-5.08 2.39,-5.41 C2.56,-5.73 2.79,-6 3.1,-6.2 C3.41,-6.41 3.78,-6.51 4.2,-6.51 C4.58,-6.51 4.92,-6.42 5.2,-6.24 C5.49,-6.07 5.71,-5.83 5.87,-5.53 C6.03,-5.22 6.11,-4.88 6.11,-4.48 C6.11,-4.48 1.5,-4.48 1.5,-4.48 C1.5,-4.48 1.5,-3.37 1.5,-3.37 C1.5,-3.37 7.57,-3.37 7.57,-3.37 C7.57,-3.37 7.57,-3.9 7.57,-3.9 C7.57,-4.59 7.47,-5.18 7.29,-5.67 C7.1,-6.15 6.85,-6.55 6.53,-6.85 C6.21,-7.16 5.84,-7.38 5.44,-7.52 C5.03,-7.66 4.62,-7.74 4.19,-7.74 C3.48,-7.74 2.86,-7.57 2.33,-7.23 C1.8,-6.9 1.39,-6.43 1.1,-5.84 C0.8,-5.24 0.66,-4.55 0.66,-3.77 C0.66,-2.98 0.8,-2.29 1.1,-1.7 C1.39,-1.11 1.81,-0.65 2.35,-0.33 C2.89,-0.01 3.54,0.15 4.29,0.15 C4.85,0.15 5.34,0.07 5.78,-0.1z"/><g opacity="1" transform="matrix(0.14000000059604645,0,0,0.14000000059604645,0,0)"/></g></g></g><g stroke-linecap="butt" stroke-linejoin="round" stroke-miterlimit="4" transform="matrix(1,0,0,1,2.3127994537353516,-0.31829833984375)" opacity="1" style="display: inherit;"><g><g style="display: none;"/></g></g><g stroke-linecap="butt" stroke-linejoin="round" stroke-miterlimit="4" transform="matrix(1,0,0,1,6.021401882171631,-0.31829833984375)" opacity="1" style="display: inherit;"><g><g transform="matrix(1,0,0,1,0,0)" opacity="1" style="display: block;"><path d=" M3.07,-1.47 C2.77,-1.71 2.55,-2.03 2.4,-2.44 C2.24,-2.85 2.17,-3.31 2.17,-3.82 C2.17,-4.32 2.24,-4.77 2.39,-5.18 C2.54,-5.58 2.77,-5.89 3.07,-6.13 C3.37,-6.36 3.74,-6.47 4.19,-6.47 C4.62,-6.47 4.98,-6.36 5.28,-6.14 C5.57,-5.92 5.8,-5.61 5.95,-5.21 C6.1,-4.81 6.18,-4.35 6.18,-3.82 C6.18,-3.28 6.1,-2.81 5.95,-2.41 C5.79,-2 5.57,-1.69 5.27,-1.46 C4.98,-1.23 4.61,-1.12 4.19,-1.12 C3.75,-1.12 3.37,-1.24 3.07,-1.47z M4.99,-0.08 C5.28,-0.24 5.51,-0.42 5.68,-0.63 C5.85,-0.84 5.98,-1.03 6.07,-1.19 C6.07,-1.19 6.19,-1.19 6.19,-1.19 C6.19,-1.19 6.19,0 6.19,0 C6.19,0 7.64,0 7.64,0 C7.64,0 7.64,-10.18 7.64,-10.18 C7.64,-10.18 6.15,-10.18 6.15,-10.18 C6.15,-10.18 6.15,-6.4 6.15,-6.4 C6.15,-6.4 6.07,-6.4 6.07,-6.4 C5.98,-6.56 5.85,-6.74 5.69,-6.95 C5.53,-7.16 5.3,-7.34 5.01,-7.5 C4.72,-7.66 4.34,-7.74 3.87,-7.74 C3.25,-7.74 2.71,-7.58 2.22,-7.27 C1.74,-6.96 1.36,-6.51 1.08,-5.92 C0.8,-5.33 0.67,-4.63 0.67,-3.8 C0.67,-2.98 0.8,-2.27 1.08,-1.68 C1.35,-1.09 1.73,-0.64 2.21,-0.33 C2.69,-0.01 3.24,0.15 3.86,0.15 C4.32,0.15 4.7,0.07 4.99,-0.08z"/><g opacity="1" transform="matrix(0.14000000059604645,0,0,0.14000000059604645,0,0)"/></g></g></g><g stroke-linecap="butt" stroke-linejoin="round" stroke-miterlimit="4" transform="matrix(1,0,0,1,14.781200408935547,-0.31829833984375)" opacity="1" style="display: inherit;"><g><g transform="matrix(1,0,0,1,0,0)" opacity="1" style="display: block;"><path d=" M2.49,0 C2.49,0 2.49,-4.66 2.49,-4.66 C2.49,-4.99 2.57,-5.29 2.72,-5.55 C2.88,-5.81 3.1,-6.01 3.37,-6.16 C3.65,-6.31 3.96,-6.38 4.31,-6.38 C4.46,-6.38 4.62,-6.37 4.77,-6.35 C4.92,-6.33 5.03,-6.31 5.09,-6.29 C5.09,-6.29 5.09,-7.72 5.09,-7.72 C5.01,-7.73 4.91,-7.73 4.79,-7.74 C4.66,-7.75 4.55,-7.75 4.45,-7.75 C4.01,-7.75 3.61,-7.63 3.25,-7.4 C2.9,-7.16 2.65,-6.83 2.52,-6.42 C2.52,-6.42 2.44,-6.42 2.44,-6.42 C2.44,-6.42 2.44,-7.64 2.44,-7.64 C2.44,-7.64 1,-7.64 1,-7.64 C1,-7.64 1,0 1,0 C1,0 2.49,0 2.49,0z"/><g opacity="1" transform="matrix(0.14000000059604645,0,0,0.14000000059604645,0,0)"/></g></g></g><g stroke-linecap="butt" stroke-linejoin="round" stroke-miterlimit="4" transform="matrix(1,0,0,1,20.160001754760742,-0.31829833984375)" opacity="1" style="display: inherit;"><g><g transform="matrix(1,0,0,1,0,0)" opacity="1" style="display: block;"><path d=" M2.51,-1.31 C2.23,-1.49 2.1,-1.77 2.1,-2.14 C2.1,-2.4 2.17,-2.62 2.31,-2.78 C2.45,-2.94 2.64,-3.06 2.88,-3.15 C3.11,-3.23 3.38,-3.29 3.66,-3.33 C3.79,-3.35 3.94,-3.37 4.12,-3.39 C4.3,-3.42 4.49,-3.45 4.68,-3.48 C4.88,-3.51 5.05,-3.55 5.2,-3.59 C5.35,-3.64 5.45,-3.69 5.5,-3.74 C5.5,-3.74 5.5,-2.75 5.5,-2.75 C5.5,-2.45 5.43,-2.17 5.27,-1.91 C5.12,-1.64 4.89,-1.43 4.6,-1.27 C4.31,-1.11 3.96,-1.02 3.54,-1.02 C3.12,-1.02 2.78,-1.12 2.51,-1.31z M4.31,-0.01 C4.61,-0.14 4.85,-0.29 5.05,-0.48 C5.24,-0.66 5.38,-0.85 5.48,-1.04 C5.48,-1.04 5.54,-1.04 5.54,-1.04 C5.54,-1.04 5.54,0 5.54,0 C5.54,0 6.99,0 6.99,0 C6.99,0 6.99,-5.07 6.99,-5.07 C6.99,-5.63 6.89,-6.08 6.7,-6.43 C6.51,-6.78 6.26,-7.05 5.96,-7.24 C5.66,-7.43 5.34,-7.56 5,-7.63 C4.66,-7.7 4.33,-7.74 4.03,-7.74 C3.57,-7.74 3.13,-7.67 2.71,-7.54 C2.29,-7.41 1.92,-7.2 1.6,-6.91 C1.28,-6.63 1.04,-6.25 0.88,-5.79 C0.88,-5.79 2.27,-5.47 2.27,-5.47 C2.38,-5.74 2.58,-5.98 2.87,-6.2 C3.15,-6.42 3.55,-6.53 4.05,-6.53 C4.53,-6.53 4.89,-6.41 5.13,-6.17 C5.38,-5.94 5.5,-5.6 5.5,-5.17 C5.5,-5.17 5.5,-5.13 5.5,-5.13 C5.5,-4.95 5.43,-4.82 5.3,-4.74 C5.18,-4.66 4.97,-4.61 4.68,-4.57 C4.4,-4.54 4.03,-4.49 3.57,-4.44 C3.21,-4.4 2.85,-4.33 2.51,-4.25 C2.16,-4.17 1.84,-4.05 1.56,-3.88 C1.28,-3.72 1.06,-3.5 0.89,-3.22 C0.72,-2.94 0.64,-2.59 0.64,-2.16 C0.64,-1.66 0.75,-1.23 0.98,-0.89 C1.21,-0.55 1.52,-0.28 1.91,-0.1 C2.3,0.08 2.74,0.17 3.22,0.17 C3.64,0.17 4,0.11 4.31,-0.01z"/><g opacity="1" transform="matrix(0.14000000059604645,0,0,0.14000000059604645,0,0)"/></g></g></g><g stroke-linecap="butt" stroke-linejoin="round" stroke-miterlimit="4" transform="matrix(1,0,0,1,28.128803253173828,-0.31829833984375)" opacity="1" style="display: inherit;"><g><g transform="matrix(1,0,0,1,0,0)" opacity="1" style="display: block;"><path d=" M2.99,0 C2.99,0 2.99,-8.32 2.99,-8.32 C2.99,-8.66 3.07,-8.92 3.22,-9.1 C3.37,-9.28 3.63,-9.37 3.99,-9.37 C4.15,-9.37 4.28,-9.35 4.39,-9.32 C4.5,-9.3 4.59,-9.27 4.66,-9.25 C4.66,-9.25 5.01,-10.46 5.01,-10.46 C4.9,-10.49 4.75,-10.54 4.53,-10.59 C4.32,-10.63 4.07,-10.66 3.77,-10.66 C3.36,-10.66 2.99,-10.58 2.64,-10.42 C2.3,-10.27 2.02,-10.03 1.81,-9.71 C1.61,-9.4 1.5,-9 1.5,-8.52 C1.5,-8.52 1.5,0 1.5,0 C1.5,0 2.99,0 2.99,0z M0.32,-7.64 C0.32,-7.64 0.32,-6.44 0.32,-6.44 C0.32,-6.44 4.63,-6.44 4.63,-6.44 C4.63,-6.44 4.63,-7.64 4.63,-7.64 C4.63,-7.64 0.32,-7.64 0.32,-7.64z"/><g opacity="1" transform="matrix(0.14000000059604645,0,0,0.14000000059604645,0,0)"/></g></g></g><g stroke-linecap="butt" stroke-linejoin="round" stroke-miterlimit="4" transform="matrix(1,0,0,1,33.294803619384766,-0.31829833984375)" opacity="1" style="display: inherit;"><g><g transform="matrix(1,0,0,1,0,0)" opacity="1" style="display: block;"><path d=" M1.51,-1.93 C1.51,-1.47 1.62,-1.09 1.82,-0.79 C2.03,-0.48 2.31,-0.26 2.64,-0.11 C2.98,0.04 3.35,0.11 3.74,0.1 C3.98,0.1 4.18,0.08 4.34,0.04 C4.49,0.01 4.62,-0.03 4.7,-0.06 C4.7,-0.06 4.43,-1.29 4.43,-1.29 C4.38,-1.28 4.32,-1.26 4.23,-1.25 C4.14,-1.23 4.03,-1.22 3.91,-1.22 C3.75,-1.22 3.6,-1.25 3.46,-1.3 C3.33,-1.35 3.21,-1.45 3.13,-1.59 C3.04,-1.74 3,-1.95 3,-2.24 C3,-2.24 3,-9.47 3,-9.47 C3,-9.47 1.51,-9.47 1.51,-9.47 C1.51,-9.47 1.51,-1.93 1.51,-1.93z M0.39,-7.64 C0.39,-7.64 0.39,-6.44 0.39,-6.44 C0.39,-6.44 4.56,-6.44 4.56,-6.44 C4.56,-6.44 4.56,-7.64 4.56,-7.64 C4.56,-7.64 0.39,-7.64 0.39,-7.64z"/><g opacity="1" transform="matrix(0.14000000059604645,0,0,0.14000000059604645,0,0)"/></g></g></g></g><g transform="matrix(1,0,0,1,99,15)" opacity="1" style="display: block;"><g opacity="1" transform="matrix(1,0,0,1,0,0)"><path stroke-linecap="round" stroke-linejoin="miter" fill-opacity="0" stroke-miterlimit="4" stroke="rgb(0,0,0)" stroke-opacity="1" stroke-width="1" d=" M5.5,0 C5.5,0 5.5,3.5 5.5,3.5 C5.5,4.603799819946289 4.603799819946289,5.5 3.5,5.5 C3.5,5.5 -3.5,5.5 -3.5,5.5 C-4.603799819946289,5.5 -5.5,4.603799819946289 -5.5,3.5 C-5.5,3.5 -5.5,-3.5 -5.5,-3.5 C-5.5,-4.603799819946289 -4.603799819946289,-5.5 -3.5,-5.5 C-3.5,-5.5 0,-5.5 0,-5.5"/></g></g><g transform="matrix(1,0,0,1,101.5,12.5)" opacity="1" style="display: block;"><g opacity="1" transform="matrix(1,0,0,1,0,0)"><path stroke-linecap="round" stroke-linejoin="round" fill-opacity="0" stroke="rgb(0,0,0)" stroke-opacity="1" stroke-width="1" d=" M0,2 C0,2 -4,4 -4,4 C-4,4 -2,0 -2,0 C-2,0 2,-4 2,-4 C2,-4 4,-2 4,-2 C4,-2 0,2 0,2z"/></g></g><g transform="matrix(1,0,0,1,98.5,15.5)" opacity="1" style="display: block;"><g opacity="1" transform="matrix(1,0,0,1,0,0)"><path stroke-linecap="butt" stroke-linejoin="round" fill-opacity="0" stroke="rgb(0,0,0)" stroke-opacity="1" stroke-width="1.5" d=" M0.5,-0.5 C0.5,-0.5 -0.5,0.5 -0.5,0.5"/></g></g></g><g clip-path="url(#__lottie_element_627)" transform="matrix(1,0,0,1,26.564998626708984,203)" opacity="0" style="display: block;"><g transform="matrix(1,0,0,1,20.197999954223633,20.15399932861328)" opacity="1" style="display: block;"><g opacity="1" transform="matrix(1,0,0,1,0,0)"/></g><g transform="matrix(1,0,0,1,20.197999954223633,20.15399932861328)" opacity="1" style="display: block;"><g opacity="1" transform="matrix(1,0,0,1,0,0)"><path fill="rgb(255,255,255)" fill-opacity="1" d=" M-5.533999919891357,2.239000082015991 C-4.923999786376953,3.1489999294281006 -4.573999881744385,3.878999948501587 -4.294000148773193,4.238999843597412 C-4.294000148773193,4.238999843597412 -3.4539999961853027,5.198999881744385 -3.4539999961853027,5.198999881744385 C-3.1440000534057617,5.479000091552734 -2.7239999771118164,5.89900016784668 -2.313999891281128,6.258999824523926 C-1.9040000438690186,6.61899995803833 -2.0840001106262207,7.61899995803833 -2.0840001106262207,7.61899995803833 C-0.9940000176429749,7.61899995803833 0.38600000739097595,7.698999881744385 1.055999994277954,7.61899995803833 C1.3960000276565552,7.578999996185303 1.8860000371932983,6.888999938964844 2.1059999465942383,6.508999824523926 C2.1700000762939453,6.380000114440918 2.302000045776367,6.298999786376953 2.446000099182129,6.298999786376953 C2.5899999141693115,6.298999786376953 2.7219998836517334,6.380000114440918 2.7860000133514404,6.508999824523926 C2.9159998893737793,6.749000072479248 3.3959999084472656,7.5289998054504395 3.7860000133514404,7.589000225067139 C4.195000171661377,7.631999969482422 4.60699987411499,7.631999969482422 5.015999794006348,7.589000225067139 C4.934999942779541,7.289000034332275 4.894999980926514,6.980000019073486 4.895999908447266,6.669000148773193 C4.88700008392334,6.333000183105469 4.921000003814697,5.997000217437744 4.995999813079834,5.669000148773193 C5.298999786376953,5.008999824523926 5.699999809265137,4.39900016784668 6.185999870300293,3.8589999675750732 C6.489999771118164,3.4170000553131104 6.73199987411499,2.936000108718872 6.906000137329102,2.428999900817871 C7.0289998054504395,1.8559999465942383 7.110000133514404,1.2740000486373901 7.145999908447266,0.6890000104904175 C7.145999908447266,0.3190000057220459 7.145999908447266,-0.07100000232458115 7.145999908447266,-0.5109999775886536 C7.145999908447266,-0.9509999752044678 7.145999908447266,-0.9210000038146973 7.145999908447266,-1.5709999799728394 C7.260000228881836,-1.909999966621399 7.184999942779541,-2.2850000858306885 6.947999954223633,-2.553999900817871 C6.710999965667725,-2.822999954223633 6.348999977111816,-2.944999933242798 5.998000144958496,-2.874000072479248 C5.646999835968018,-2.802999973297119 5.360000133514404,-2.549999952316284 5.245999813079834,-2.2109999656677246 C5.026000022888184,-1.8609999418258667 4.955999851226807,-1.3309999704360962 4.955999851226807,-1.4709999561309814 C4.915999889373779,-2.0409998893737793 4.788000106811523,-2.6010000705718994 4.576000213623047,-3.13100004196167 C4.4039998054504395,-3.3589999675750732 4.166999816894531,-3.5299999713897705 3.8959999084472656,-3.621000051498413 C3.565000057220459,-3.680999994277954 3.2269999980926514,-3.680999994277954 2.8959999084472656,-3.621000051498413 C2.617000102996826,-3.5460000038146973 2.372999906539917,-3.375999927520752 2.2060000896453857,-3.1410000324249268 C2.046999931335449,-2.614000082015991 1.9529999494552612,-2.069999933242798 1.9259999990463257,-1.5210000276565552 C1.906000018119812,-2.1480000019073486 1.777999997138977,-2.7679998874664307 1.5460000038146973,-3.3510000705718994 C1.3609999418258667,-3.6080000400543213 1.0859999656677246,-3.7860000133514404 0.7760000228881836,-3.8510000705718994 C0.4690000116825104,-3.9030001163482666 0.15399999916553497,-3.881999969482422 -0.14399999380111694,-3.7909998893737793 C-0.4909999966621399,-3.6589999198913574 -0.7450000047683716,-3.3559999465942383 -0.8140000104904175,-2.990999937057495 C-0.8840000033378601,-2.6410000324249268 -0.8140000104904175,-1.8609999418258667 -0.8140000104904175,-1.4910000562667847 C-0.8240000009536743,-1.7910000085830688 -1.1339999437332153,-3.250999927520752 -1.2940000295639038,-4.250999927520752 C-1.3769999742507935,-4.938000202178955 -1.5520000457763672,-5.611000061035156 -1.8140000104904175,-6.250999927520752 C-1.9850000143051147,-6.770999908447266 -2.312999963760376,-7.22599983215332 -2.753999948501587,-7.551000118255615 C-3.191999912261963,-7.745999813079834 -3.7049999237060547,-7.659999847412109 -4.053999900817871,-7.330999851226807 C-4.3480000495910645,-6.76200008392334 -4.440000057220459,-6.109000205993652 -4.314000129699707,-5.480999946594238 C-4.245999813079834,-4.989999771118164 -4.1529998779296875,-4.501999855041504 -4.033999919891357,-4.020999908447266 C-3.9040000438690186,-3.5309998989105225 -3.8340001106262207,-3.1710000038146973 -3.7139999866485596,-2.740999937057495 C-3.5940001010894775,-2.311000108718872 -3.563999891281128,-2.2209999561309814 -3.434000015258789,-1.6510000228881836 C-3.2639999389648438,-0.9010000228881836 -3.1440000534057617,-0.061000000685453415 -3.0739998817443848,0.4390000104904175 C-2.9839999675750732,0.7789999842643738 -3.1040000915527344,0.5490000247955322 -3.2839999198913574,0.3190000057220459 C-3.4639999866485596,0.08900000154972076 -3.503999948501587,0.008999999612569809 -3.6640000343322754,-0.19099999964237213 C-3.878000020980835,-0.4740000069141388 -4.116000175476074,-0.7379999756813049 -4.374000072479248,-0.9810000061988831 C-4.74399995803833,-1.3480000495910645 -5.2129998207092285,-1.5980000495910645 -5.723999977111816,-1.7009999752044678 C-6.383999824523926,-1.774999976158142 -6.997000217437744,-1.347000002861023 -7.1539998054504395,-0.7009999752044678 C-7.245999813079834,-0.3610000014305115 -7.190999984741211,0.0010000000474974513 -7.004000186920166,0.29899999499320984 C-6.74399995803833,0.7889999747276306 -5.883999824523926,1.7389999628067017 -5.533999919891357,2.239000082015991z"/></g></g><g transform="matrix(1,0,0,1,20.197999954223633,20.15399932861328)" opacity="1" style="display: block;"><g opacity="1" transform="matrix(1,0,0,1,0,0)"><path stroke-linecap="round" stroke-linejoin="round" fill-opacity="0" stroke="rgb(32,33,37)" stroke-opacity="1" stroke-width="0.75" d=" M-5.533999919891357,2.239000082015991 C-4.923999786376953,3.1489999294281006 -4.573999881744385,3.878999948501587 -4.294000148773193,4.238999843597412 C-4.294000148773193,4.238999843597412 -3.4539999961853027,5.198999881744385 -3.4539999961853027,5.198999881744385 C-3.1440000534057617,5.479000091552734 -2.7239999771118164,5.89900016784668 -2.313999891281128,6.258999824523926 C-1.9040000438690186,6.61899995803833 -2.0840001106262207,7.61899995803833 -2.0840001106262207,7.61899995803833 C-0.9940000176429749,7.61899995803833 0.38600000739097595,7.698999881744385 1.055999994277954,7.61899995803833 C1.3960000276565552,7.578999996185303 1.8860000371932983,6.888999938964844 2.1059999465942383,6.508999824523926 C2.1700000762939453,6.380000114440918 2.302000045776367,6.298999786376953 2.446000099182129,6.298999786376953 C2.5899999141693115,6.298999786376953 2.7219998836517334,6.380000114440918 2.7860000133514404,6.508999824523926 C2.9159998893737793,6.749000072479248 3.3959999084472656,7.5289998054504395 3.7860000133514404,7.589000225067139 C4.195000171661377,7.631999969482422 4.60699987411499,7.631999969482422 5.015999794006348,7.589000225067139 C4.934999942779541,7.289000034332275 4.894999980926514,6.980000019073486 4.895999908447266,6.669000148773193 C4.88700008392334,6.333000183105469 4.921000003814697,5.997000217437744 4.995999813079834,5.669000148773193 C5.298999786376953,5.008999824523926 5.699999809265137,4.39900016784668 6.185999870300293,3.8589999675750732 C6.489999771118164,3.4170000553131104 6.73199987411499,2.936000108718872 6.906000137329102,2.428999900817871 C7.0289998054504395,1.8559999465942383 7.110000133514404,1.2740000486373901 7.145999908447266,0.6890000104904175 C7.145999908447266,0.3190000057220459 7.145999908447266,-0.07100000232458115 7.145999908447266,-0.5109999775886536 C7.145999908447266,-0.9509999752044678 7.145999908447266,-0.9210000038146973 7.145999908447266,-1.5709999799728394 C7.260000228881836,-1.909999966621399 7.184999942779541,-2.2850000858306885 6.947999954223633,-2.553999900817871 C6.710999965667725,-2.822999954223633 6.348999977111816,-2.944999933242798 5.998000144958496,-2.874000072479248 C5.646999835968018,-2.802999973297119 5.360000133514404,-2.549999952316284 5.245999813079834,-2.2109999656677246 C5.026000022888184,-1.8609999418258667 4.955999851226807,-1.3309999704360962 4.955999851226807,-1.4709999561309814 C4.915999889373779,-2.0409998893737793 4.788000106811523,-2.6010000705718994 4.576000213623047,-3.13100004196167 C4.4039998054504395,-3.3589999675750732 4.166999816894531,-3.5299999713897705 3.8959999084472656,-3.621000051498413 C3.565000057220459,-3.680999994277954 3.2269999980926514,-3.680999994277954 2.8959999084472656,-3.621000051498413 C2.617000102996826,-3.5460000038146973 2.372999906539917,-3.375999927520752 2.2060000896453857,-3.1410000324249268 C2.046999931335449,-2.614000082015991 1.9529999494552612,-2.069999933242798 1.9259999990463257,-1.5210000276565552 C1.906000018119812,-2.1480000019073486 1.777999997138977,-2.7679998874664307 1.5460000038146973,-3.3510000705718994 C1.3609999418258667,-3.6080000400543213 1.0859999656677246,-3.7860000133514404 0.7760000228881836,-3.8510000705718994 C0.4690000116825104,-3.9030001163482666 0.15399999916553497,-3.881999969482422 -0.14399999380111694,-3.7909998893737793 C-0.4909999966621399,-3.6589999198913574 -0.7450000047683716,-3.3559999465942383 -0.8140000104904175,-2.990999937057495 C-0.8840000033378601,-2.6410000324249268 -0.8140000104904175,-1.8609999418258667 -0.8140000104904175,-1.4910000562667847 C-0.8240000009536743,-1.7910000085830688 -1.1339999437332153,-3.250999927520752 -1.2940000295639038,-4.250999927520752 C-1.3769999742507935,-4.938000202178955 -1.5520000457763672,-5.611000061035156 -1.8140000104904175,-6.250999927520752 C-1.9850000143051147,-6.770999908447266 -2.312999963760376,-7.22599983215332 -2.753999948501587,-7.551000118255615 C-3.191999912261963,-7.745999813079834 -3.7049999237060547,-7.659999847412109 -4.053999900817871,-7.330999851226807 C-4.3480000495910645,-6.76200008392334 -4.440000057220459,-6.109000205993652 -4.314000129699707,-5.480999946594238 C-4.245999813079834,-4.989999771118164 -4.1529998779296875,-4.501999855041504 -4.033999919891357,-4.020999908447266 C-3.9040000438690186,-3.5309998989105225 -3.8340001106262207,-3.1710000038146973 -3.7139999866485596,-2.740999937057495 C-3.5940001010894775,-2.311000108718872 -3.563999891281128,-2.2209999561309814 -3.434000015258789,-1.6510000228881836 C-3.2639999389648438,-0.9010000228881836 -3.1440000534057617,-0.061000000685453415 -3.0739998817443848,0.4390000104904175 C-2.9839999675750732,0.7789999842643738 -3.1040000915527344,0.5490000247955322 -3.2839999198913574,0.3190000057220459 C-3.4639999866485596,0.08900000154972076 -3.503999948501587,0.008999999612569809 -3.6640000343322754,-0.19099999964237213 C-3.878000020980835,-0.4740000069141388 -4.116000175476074,-0.7379999756813049 -4.374000072479248,-0.9810000061988831 C-4.74399995803833,-1.3480000495910645 -5.2129998207092285,-1.5980000495910645 -5.723999977111816,-1.7009999752044678 C-6.383999824523926,-1.774999976158142 -6.997000217437744,-1.347000002861023 -7.1539998054504395,-0.7009999752044678 C-7.245999813079834,-0.3610000014305115 -7.190999984741211,0.0010000000474974513 -7.004000186920166,0.29899999499320984 C-6.74399995803833,0.7889999747276306 -5.883999824523926,1.7389999628067017 -5.533999919891357,2.239000082015991z"/></g></g><g transform="matrix(1,0,0,1,24.00899887084961,23.213001251220703)" opacity="1" style="display: block;"><g opacity="1" transform="matrix(1,0,0,1,0,0)"><path fill="rgb(32,33,37)" fill-opacity="1" d=" M0.375,-1.7259999513626099 C0.375,-1.7259999513626099 0.375,1.7259999513626099 0.375,1.7259999513626099 C0.375,1.9329999685287476 0.2070000022649765,2.0999999046325684 0,2.0999999046325684 C-0.2070000022649765,2.0999999046325684 -0.375,1.9329999685287476 -0.375,1.7259999513626099 C-0.375,1.7259999513626099 -0.375,-1.7259999513626099 -0.375,-1.7259999513626099 C-0.375,-1.9329999685287476 -0.2070000022649765,-2.0999999046325684 0,-2.0999999046325684 C0.2070000022649765,-2.0999999046325684 0.375,-1.9329999685287476 0.375,-1.7259999513626099z"/></g></g><g transform="matrix(1,0,0,1,22.019001007080078,23.213001251220703)" opacity="1" style="display: block;"><g opacity="1" transform="matrix(1,0,0,1,0,0)"><path fill="rgb(32,33,37)" fill-opacity="1" d=" M0.36500000953674316,-1.7289999723434448 C0.36500000953674316,-1.7289999723434448 0.38499999046325684,1.725000023841858 0.38499999046325684,1.725000023841858 C0.38600000739097595,1.930999994277954 0.21899999678134918,2.0989999771118164 0.012000000104308128,2.0999999046325684 C-0.19499999284744263,2.1010000705718994 -0.36399999260902405,1.934999942779541 -0.36500000953674316,1.7289999723434448 C-0.36500000953674316,1.7289999723434448 -0.38499999046325684,-1.725000023841858 -0.38499999046325684,-1.725000023841858 C-0.38600000739097595,-1.930999994277954 -0.21899999678134918,-2.0989999771118164 -0.012000000104308128,-2.0999999046325684 C0.19499999284744263,-2.1010000705718994 0.36399999260902405,-1.934999942779541 0.36500000953674316,-1.7289999723434448z"/></g></g><g transform="matrix(1,0,0,1,20.019001007080078,23.213001251220703)" opacity="1" style="display: block;"><g opacity="1" transform="matrix(1,0,0,1,0,0)"><path fill="rgb(32,33,37)" fill-opacity="1" d=" M-0.36500000953674316,1.725000023841858 C-0.36500000953674316,1.725000023841858 -0.38499999046325684,-1.7209999561309814 -0.38499999046325684,-1.7209999561309814 C-0.38600000739097595,-1.9290000200271606 -0.21899999678134918,-2.0989999771118164 -0.012000000104308128,-2.0999999046325684 C0.19499999284744263,-2.1010000705718994 0.36399999260902405,-1.9329999685287476 0.36500000953674316,-1.725000023841858 C0.36500000953674316,-1.725000023841858 0.38499999046325684,1.7209999561309814 0.38499999046325684,1.7209999561309814 C0.38600000739097595,1.9290000200271606 0.21899999678134918,2.0989999771118164 0.012000000104308128,2.0999999046325684 C-0.19499999284744263,2.1010000705718994 -0.36399999260902405,1.9329999685287476 -0.36500000953674316,1.725000023841858z"/></g></g></g></g></svg>