<svg width="16" height="16" viewBox="0 0 16 16" fill="none" xmlns="http://www.w3.org/2000/svg">
<path fill-rule="evenodd" clip-rule="evenodd" d="M4.14645 11.8536C3.95118 11.6583 3.95118 11.3417 4.14645 11.1465L10.7929 4.5H6.5C6.22386 4.5 6 4.27614 6 4C6 3.72386 6.22386 3.5 6.5 3.5H12C12.1326 3.5 12.2598 3.55268 12.3536 3.64645C12.4473 3.74022 12.5 3.86739 12.5 4V9.50001C12.5 9.77615 12.2761 10 12 10C11.7239 10 11.5 9.77615 11.5 9.50001V5.20711L4.85355 11.8536C4.65829 12.0488 4.34171 12.0488 4.14645 11.8536Z" fill="currentColor"/>
</svg>