<svg width="601" height="112" viewBox="0 0 601 112" fill="none" xmlns="http://www.w3.org/2000/svg">
<path d="M0.899994 0.200195V111.6L598.1 111.7H600.9V0.300201L0.899994 0.200195Z" fill="#1D1D23"/>
<path d="M63.4 75.0999C70.5 75.0999 71.9 71.1999 71.9 51.4999C71.9 41.4999 71.1 36.0999 69.3 34.0999C68.2 32.5999 66.3 32.0999 61.7 32.1999V75.0999C61.8 75.0999 63.4 75.0999 63.4 75.0999ZM45.9 32.1999H41.8V22.0999H67.2C73.2 22.0999 78.2 23.6999 81.3 26.5999C86.5 31.1999 89.2 40.4999 89.2 53.5999C89.2 69.3999 85.5 79.2999 78.2 82.7999C75 84.2999 69 85.3999 63.2 85.3999H41.8V75.2999H45.9V32.1999ZM106.1 70.3999C106.1 74.8999 106.8 76.1999 108.8 76.1999C111.3 76.1999 111.8 74.8999 111.8 69.2999C111.8 66.8999 111.7 66.1999 111.4 65.3999C111 64.4999 109.9 63.8999 108.9 63.8999C106.8 63.7999 106.1 65.3999 106.1 70.3999ZM128.3 85.2999H112V80.8999C108.6 84.6999 106.2 85.8999 102 85.8999C98.3 85.8999 96 84.9999 93.9 82.2999C91.5 79.4999 90.4 75.6999 90.4 70.6999C90.4 60.9999 95 55.3999 103.2 55.3999C106.5 55.3999 108.7 56.2999 111.5 58.5999V55.5999C111.5 51.0999 109.3 49.0999 104.4 49.0999C100.7 49.0999 96.8 49.9999 92.6 51.7999V40.7999C98.5 38.9999 102.5 38.2999 107.1 38.2999C112.7 38.2999 117.6 39.5999 120.9 42.0999C123.5 43.9999 124.6 46.0999 125.3 50.2999C125.6 52.1999 125.8 54.1999 125.8 55.5999V74.8999H128.3C128.3 75.0999 128.3 85.2999 128.3 85.2999ZM146 60.9999C146 69.5999 146.7 71.8999 149.4 71.8999C152 71.8999 152.8 68.9999 152.8 59.5999C152.8 52.9999 152 50.7999 149.7 50.7999C147 50.7999 146 53.2999 146 60.9999ZM170.7 49.1999H168.1V79.9999C168.1 87.4999 167.2 91.6999 165.1 94.7999C162.2 99.2999 155 102.4 147.7 102.4C143 102.4 137.7 101.7 133.6 100.7V88.1999C136.8 89.6999 139.3 90.1999 143.5 90.1999C149.9 90.1999 152.6 87.8999 152.6 82.5999C152.6 81.6999 152.6 80.8999 152.5 79.3999C149.7 82.9999 146.5 84.5999 142.2 84.5999C138 84.5999 134.2 82.5999 132.4 79.3999C130.2 75.6999 129.3 70.0999 129.3 61.4999C129.3 45.3999 133.3 38.4999 142.6 38.4999C147.3 38.4999 150.1 39.9999 152.5 44.1999V39.1999H170.8C170.7 39.0999 170.7 49.1999 170.7 49.1999ZM193.8 55.4999L193.9 53.2999C193.9 49.7999 192.9 47.9999 190.8 47.9999C189.7 47.9999 188.8 48.6999 188.2 49.6999C187.7 50.7999 187.6 51.4999 187.6 55.4999V57.3999H193.8V55.4999ZM187.6 64.4999C187.6 68.9999 187.7 70.7999 188.3 72.5999C189.1 74.9999 190.8 76.2999 193 76.2999C195.9 76.2999 197.5 74.2999 197.6 69.9999H208C207.6 79.8999 201.2 85.8999 190.7 85.8999C185.1 85.8999 179.7 83.8999 176.5 80.4999C172.9 76.6999 171.2 70.9999 171.2 62.3999C171.2 52.6999 173.1 46.6999 177.2 42.8999C180.4 39.9999 185 38.3999 190.4 38.3999C195.9 38.3999 200.8 40.1999 203.4 43.0999C206.5 46.6999 208.3 53.0999 208.3 60.6999C208.3 61.3999 208.2 62.7999 208.1 64.3999C208.1 64.4999 187.6 64.4999 187.6 64.4999ZM227.2 43.2999C230.8 39.4999 233.1 38.4999 237.6 38.4999C245.3 38.4999 248.7 42.2999 248.7 50.5999V75.0999H251.2V85.1999H233.3V56.7999C233.3 54.0999 233.3 53.9999 233 52.8999C232.7 51.7999 231.6 50.9999 230.3 50.9999C228.4 50.9999 227.2 52.4999 227.2 54.7999V75.0999H229.8V85.1999H209.2V75.0999H211.8V49.1999H209.2V39.0999H227.2V43.2999ZM283.9 52.0999H275.8V50.9999C275.8 47.9999 273.8 45.8999 271.1 45.8999C268.8 45.8999 267.2 47.2999 267.2 49.2999C267.2 51.4999 268.1 52.1999 274.2 54.6999C282.9 58.1999 285.6 61.6999 285.6 70.1999C285.6 80.0999 280.1 85.8999 270.6 85.8999C266.9 85.8999 264.5 85.0999 261.6 82.8999L260.1 85.2999H253.3V70.0999H261.6C261.7 72.9999 261.9 73.9999 262.5 74.8999C263.4 76.1999 265.2 76.9999 266.8 76.9999C269.4 76.9999 271.2 75.2999 271.2 72.8999C271.2 71.4999 270.5 70.1999 269.4 69.5999C268.6 69.0999 268.6 69.0999 262.9 66.4999C258 64.1999 257.4 63.7999 255.7 61.9999C253.6 59.7999 252.7 56.9999 252.7 53.1999C252.7 43.5999 258 38.3999 267.8 38.3999C271.7 38.3999 273.8 39.0999 276.6 41.0999L277.5 39.0999H284.1V52.0999H283.9ZM318 27.7999C318 32.3999 314.4 35.2999 308.6 35.2999C302.8 35.2999 299.1 32.4999 299.1 27.8999C299.1 23.2999 302.7 20.3999 308.7 20.3999C314.4 20.3999 318 23.3999 318 27.7999ZM317.1 75.0999H319.7V85.1999H299.1V75.0999H301.7V49.0999H299.1V39.0999H317.1V75.0999ZM339.8 43.2999C343.4 39.4999 345.7 38.4999 350.2 38.4999C357.9 38.4999 361.3 42.2999 361.3 50.5999V75.0999H363.8V85.1999H345.9V56.7999C345.9 54.0999 345.9 53.9999 345.6 52.8999C345.3 51.7999 344.2 50.9999 342.9 50.9999C341 50.9999 339.8 52.4999 339.8 54.7999V75.0999H342.4V85.1999H321.8V75.0999H324.4V49.1999H321.8V39.0999H339.8V43.2999ZM381.2 61.4999C381.2 70.4999 382.1 73.2999 384.9 73.2999C385.9 73.2999 387 72.5999 387.6 71.5999C388.3 70.2999 388.4 68.9999 388.4 60.9999C388.4 53.2999 387.5 50.7999 384.7 50.7999C381.9 50.6999 381.2 53.1999 381.2 61.4999ZM403.3 75.0999H405.9V85.1999H388.7V79.3999C385.3 84.2999 382.7 85.7999 377.8 85.7999C368.6 85.7999 365 78.6999 365 60.4999C365 45.0999 368.9 38.2999 377.9 38.2999C382.4 38.2999 385.4 39.7999 387.9 43.4999V31.9999H384.2V21.9999H403.3V75.0999ZM429.6 82.0999C426.4 84.7999 423.5 85.8999 419.2 85.8999C415 85.8999 411.8 84.3999 410 81.4999C409.1 79.8999 408.5 77.1999 408.5 73.6999V49.1999H405.9V39.0999H423.9V67.4999C423.9 71.5999 424.8 73.2999 426.7 73.2999C428.7 73.2999 429.5 71.8999 429.5 68.7999V49.1999H427V39.0999H445V75.0999H447.6V85.1999H429.6V82.0999ZM480.6 52.0999H472.5V50.9999C472.5 47.9999 470.5 45.8999 467.8 45.8999C465.5 45.8999 463.9 47.2999 463.9 49.2999C463.9 51.4999 464.8 52.1999 470.9 54.6999C479.6 58.1999 482.3 61.6999 482.3 70.1999C482.3 80.0999 476.8 85.8999 467.3 85.8999C463.6 85.8999 461.2 85.0999 458.3 82.8999L456.8 85.2999H450V70.0999H458.3C458.4 72.9999 458.6 73.9999 459.2 74.8999C460.1 76.1999 461.9 76.9999 463.5 76.9999C466.1 76.9999 467.9 75.2999 467.9 72.8999C467.9 71.4999 467.2 70.1999 466.1 69.5999C465.3 69.0999 465.3 69.0999 459.6 66.4999C454.7 64.1999 454.1 63.7999 452.4 61.9999C450.3 59.7999 449.4 56.9999 449.4 53.1999C449.4 43.5999 454.7 38.3999 464.5 38.3999C468.4 38.3999 470.5 39.0999 473.3 41.0999L474.2 39.0999H480.8L480.6 52.0999ZM500.7 39.0999H506.2V49.1999H500.7V68.2999C500.7 72.6999 501.3 73.6999 503.5 73.6999C504.3 73.6999 504.8 73.5999 506.2 73.1999V83.7999C502.5 85.2999 500.2 85.7999 496.6 85.7999C491.5 85.7999 488.5 84.3999 486.6 80.8999C485.6 78.9999 485.3 77.4999 485.3 74.0999V49.1999H482.5V39.0999H485.3V30.1999L500.7 25.9999V39.0999ZM526.3 39.0999V45.0999C528.8 40.4999 531.9 38.2999 536.2 38.1999V54.1999C534.1 53.6999 533.3 53.4999 532 53.4999C528.8 53.4999 526.8 55.7999 526.8 59.4999V75.0999H530.4V85.1999H508.6V75.0999H511.1V49.1999H508.6V39.0999H526.3ZM557.1 27.7999C557.1 32.3999 553.5 35.2999 547.7 35.2999C541.9 35.2999 538.2 32.4999 538.2 27.8999C538.2 23.2999 541.8 20.3999 547.8 20.3999C553.5 20.3999 557.1 23.3999 557.1 27.7999ZM556.2 75.0999H558.8V85.1999H538.2V75.0999H540.8V49.0999H538.2V39.0999H556.2V75.0999Z" fill="white"/>
</svg>
