<svg xmlns="http://www.w3.org/2000/svg" width="160" height="28.259" viewBox="0 0 160 28.259">
    <g transform="translate(0 0)">
        <path data-name="Fill 1" d="M2.605,0A2.476,2.476,0,0,0,0,2.388,2.568,2.568,0,0,0,2.605,4.776,2.547,2.547,0,0,0,5.174,2.388,2.486,2.486,0,0,0,2.605,0" transform="translate(22.687 1.99)" fill="#333f48"></path>
        <path data-name="Fill 3" d="M2.606,0A2.477,2.477,0,0,0,0,2.388,2.569,2.569,0,0,0,2.606,4.776,2.547,2.547,0,0,0,5.174,2.388,2.485,2.485,0,0,0,2.606,0" transform="translate(119.005 1.99)" fill="#333f48"></path>
        <path data-name="Fill 5" d="M10.984,24.676,0,24.674V22.821l1.923-.009a.792.792,0,0,0,.913-.688A6.366,6.366,0,0,0,2.908,21V3.639a7.964,7.964,0,0,0-.043-.931c-.1-.609-.362-.846-.941-.846L0,1.854V0H10.1c5.9,0,8.89,1.981,8.89,5.888,0,3.066-1.82,4.943-5.563,5.739,4.563.514,6.876,2.546,6.876,6.037C20.3,22.055,16.816,24.676,10.984,24.676ZM7.1,12.833v7.4c0,2.364.3,2.581,3.53,2.581,3.522,0,5.234-1.523,5.234-4.655,0-3.782-1.557-5.324-5.376-5.324ZM9.777,1.865a16.174,16.174,0,0,0-2.678.18v8.891H9.989c3.033,0,4.773-1.584,4.773-4.346C14.762,3.057,13.5,1.865,9.777,1.865Z" transform="translate(0 3.184)" fill="#333f48"></path>
        <path data-name="Fill 7" d="M11.418,0A8.552,8.552,0,0,0,6.386,2.137c.021-.414.038-.632.036-.632A.423.423,0,0,0,6.36,1.15.417.417,0,0,0,6.009,1L0,1V2.848l1.519.008a.806.806,0,0,1,.924.72l.01.063a5.878,5.878,0,0,1,.04.794V15.291c0,.2,0,.381,0,.547l-.007.121c0,1.021-.468,1.159-.928,1.159l-1.484.008v1.581H9.121l-.008-1.581L7.3,17.118c-.447,0-.907-.132-.924-1.106,0-.213,0-.447,0-.721V4.11A5.186,5.186,0,0,1,9,2.661c.3,0,.488.078.67.5.337.81.765,1.222,2.18,1.222A1.993,1.993,0,0,0,13.93,2.26,2.2,2.2,0,0,0,11.418,0" transform="translate(30.647 9.154)" fill="#333f48"></path>
        <path data-name="Fill 9" d="M7.318,16.3c-.44,0-.891-.137-.9-1.148.005-.208.01-.432.01-.7V3.535c.007-2.018.089-3.077.086-3.077A.4.4,0,0,0,6.462.135.355.355,0,0,0,6.16,0H0V1.6L1.751,1.6a.773.773,0,0,1,.837.581l.009.037c.007.027.012.056.016.083l.007.035a8.224,8.224,0,0,1,.048,1.133V14.455c0,.211,0,.4-.011.569l-.008.106c0,.092-.008.173-.015.253,0,.042-.009.082-.018.146a.786.786,0,0,1-.867.773l-1.436.009v1.436l.009.161,8.264,0,.155,0,.014-1.6Z" transform="translate(21.095 9.95)" fill="#333f48"></path>
        <path data-name="Fill 11" d="M10.983,24.676,0,24.674V22.821l1.924-.009a.793.793,0,0,0,.913-.688A6.45,6.45,0,0,0,2.91,21V3.639a7.97,7.97,0,0,0-.044-.931c-.1-.609-.362-.846-.941-.846L0,1.854V0H10.094c5.9,0,8.891,1.981,8.891,5.888,0,3.066-1.82,4.943-5.564,5.739,4.563.514,6.877,2.546,6.877,6.037C20.3,22.055,16.816,24.676,10.983,24.676ZM7.1,12.833v7.4c0,2.364.3,2.581,3.531,2.581,3.522,0,5.234-1.523,5.234-4.655,0-3.782-1.558-5.324-5.377-5.324ZM9.777,1.865a16.213,16.213,0,0,0-2.679.18v8.891H9.991c3.032,0,4.771-1.584,4.771-4.346C14.762,3.057,13.5,1.865,9.777,1.865Z" transform="translate(96.318 3.184)" fill="#333f48"></path>
        <path data-name="Fill 13" d="M11.417,0A8.555,8.555,0,0,0,6.385,2.137c.021-.414.038-.632.036-.632a.423.423,0,0,0-.061-.353A.418.418,0,0,0,6.008,1L0,1V2.848l1.519.008a.806.806,0,0,1,.924.719l.01.064a6.141,6.141,0,0,1,.037.794V15.291c0,.2,0,.386,0,.552l-.006.116c0,1.021-.469,1.159-.93,1.159L.07,17.125v1.581H9.12l-.008-1.581L7.3,17.118c-.448,0-.908-.132-.924-1.106,0-.213-.006-.447-.006-.721V4.11A5.194,5.194,0,0,1,8.994,2.661c.3,0,.487.078.67.5.337.81.768,1.222,2.181,1.222A1.993,1.993,0,0,0,13.93,2.26,2.2,2.2,0,0,0,11.417,0" transform="translate(126.965 9.154)" fill="#333f48"></path>
        <path data-name="Fill 15" d="M7.319,16.3c-.44,0-.891-.137-.9-1.146.007-.208.011-.433.011-.7V3.535c.005-2.018.089-3.079.086-3.079A.4.4,0,0,0,6.462.135.353.353,0,0,0,6.16,0H0V1.6L1.752,1.6a.77.77,0,0,1,.836.577c0,.016.007.029.01.044a.537.537,0,0,1,.015.075l.009.04a8.257,8.257,0,0,1,.047,1.133V14.455c0,.206,0,.388-.011.556l-.008.118c0,.092-.008.173-.014.253,0,.038-.009.072-.013.107l-.005.039a.786.786,0,0,1-.867.773l-1.436.009v1.436l.01.161,8.264,0,.155,0,.013-1.6Z" transform="translate(117.413 9.95)" fill="#333f48"></path>
        <path data-name="Fill 17" d="M7.214,28.259C3.886,28.259,0,25.793,0,18.844c0-7.226,5.2-9.8,10.058-9.8a12.475,12.475,0,0,1,3.175.372L13.21,3.877c0-.031,0-.06,0-.1l0-.066a1.956,1.956,0,0,0-.2-.932l-.04-.071a.825.825,0,0,0-.729-.282l-1.9-.009V.562h.7l1.028,0L16.618.548h.04A.42.42,0,0,1,17,.7a.44.44,0,0,1,.063.357c0,.008,0,.012,0,.018-.026.36-.11,1.714-.11,4.041V23.9c0,1.865.37,2.009.893,2.009.581,0,1.1,0,1.29,0h.013l.157,0v1.879l-5.835-.005-.175-.333.036-1.218A11.085,11.085,0,0,1,7.214,28.259Zm2.6-17.212C5.849,11.047,4,13.474,4,18.683c0,4.681,1.634,6.861,5.142,6.861a7.484,7.484,0,0,0,3.73-.974c.106-.055.189-.1.255-.128V12.3A4.627,4.627,0,0,0,9.813,11.047ZM32.4,28.17c-.133,0-.271,0-.422-.007a8.434,8.434,0,0,1-5.667-2.526,8.036,8.036,0,0,1-2.272-6.378,8.561,8.561,0,0,1,2.832-5.833,13.015,13.015,0,0,1,3.89-2.386c-.072-.092-.143-.181-.2-.248l-.011-.014a8.18,8.18,0,0,1-2.171-4.3A6.088,6.088,0,0,1,34.557,0c.172,0,.347.006.521.019A5,5,0,0,1,40,5.1c.016,2.681-1.867,4.9-5.756,6.769,1.615,2.117,4.371,5.631,6.889,8.7a8.556,8.556,0,0,0,.882-3.321c.081-1.261.086-2.276.076-2.906a.542.542,0,0,1,.49-.495l.581,0h3.4v2.194H44.244l0,.066a11.746,11.746,0,0,1-1.674,6.2,26.327,26.327,0,0,0,2.707,2.975,2.629,2.629,0,0,0,1.292.248v2.2l-.15,0c-.146,0-.3.009-.443.009a3.154,3.154,0,0,1-2.058-.636,25.054,25.054,0,0,1-2.777-2.966A11.541,11.541,0,0,1,32.4,28.17ZM32.1,12.8l-.121.049-.136.055-.155.063c-2.21.889-5.18,2.508-5.459,6.284a6.265,6.265,0,0,0,1.578,4.722,6.365,6.365,0,0,0,4.427,2.146c.107,0,.214.005.32.005a9.36,9.36,0,0,0,7.223-3.614C37.01,19.155,33.67,14.865,32.1,12.8ZM34.37,2.192a3.726,3.726,0,0,0-2.724,1.071,3.786,3.786,0,0,0-1.077,2.843A6.566,6.566,0,0,0,32.33,9.343l.1.124c.169.214.343.436.513.664,3.285-1.5,4.878-3.08,4.867-4.839a3.041,3.041,0,0,0-3.065-3.084C34.618,2.2,34.5,2.192,34.37,2.192Z" transform="translate(44.179)" fill="#333f48"></path>
        <path data-name="Fill 23" d="M7.287,27.86C3.926,27.86,0,25.381,0,18.4,0,11.13,5.248,8.542,10.16,8.542a12.716,12.716,0,0,1,3.208.373l-.023-5.568c0-.027,0-.051,0-.074V3.25l0-.067a1.966,1.966,0,0,0-.2-.938l-.041-.071a.843.843,0,0,0-.735-.283l-1.923-.009V.014h.71l1.04,0h.032L16.786,0h.041a.415.415,0,0,1,.349.149.434.434,0,0,1,.064.358c0,.006,0,.018,0,.037-.033.486-.109,1.852-.109,4.046V23.475c0,1.874.373,2.019.9,2.019.707,0,1.31,0,1.316,0l.157,0v1.89l-5.892-.005-.175-.335.034-1.225A11.212,11.212,0,0,1,7.287,27.86Zm2.624-17.3c-4,0-5.868,2.439-5.868,7.677,0,4.706,1.651,6.9,5.195,6.9a7.576,7.576,0,0,0,3.77-.982l.253-.127V11.82A4.685,4.685,0,0,0,9.912,10.556Z" transform="translate(140.498 0.398)" fill="#333f48"></path>
    </g>
</svg>
