<svg width="537" height="58" viewBox="0 0 537 58" fill="none" xmlns="http://www.w3.org/2000/svg">
<g clip-path="url(#clip0_1140_1067)">
<path d="M536.73 15.1001C534.35 5.42008 526.88 8.18041e-05 517.94 8.18041e-05C508.5 8.18041e-05 500.3 5.74008 500.3 16.5801C500.3 35.9401 526.3 30.1101 526.3 41.5801C526.3 45.5801 523.18 48.0601 518.3 48.0601C512.88 48.0601 508.78 44.7801 507.71 38.1301L499.42 42.5601C501.64 53.4801 510.34 57.4201 518.3 57.4201C527.4 57.4201 535.69 52.4201 535.69 41.1701C535.69 21.1701 509.69 27.3801 509.69 16.0601C509.69 12.1201 512.81 9.33008 517.89 9.33008C522.97 9.33008 526.68 12.5301 527.99 18.6901L536.73 15.1001ZM422.55 31.1001C422.485 34.577 423.122 38.0314 424.422 41.2565C425.723 44.4817 427.661 47.4114 430.12 49.8704C432.579 52.3294 435.508 54.2672 438.734 55.5678C441.959 56.8685 445.413 57.5052 448.89 57.4401C463.89 57.4401 475.31 46.1101 475.31 31.1001V8.18041e-05H466V31.1001C466 35.6154 464.206 39.9458 461.013 43.1386C457.821 46.3314 453.49 48.1251 448.975 48.1251C444.46 48.1251 440.129 46.3314 436.936 43.1386C433.744 39.9458 431.95 35.6154 431.95 31.1001V8.18041e-05H422.6L422.55 31.1001ZM390.23 8.18041e-05H380.88V57.4401H390.23V8.18041e-05ZM347.75 57.4401V8.18041e-05H338.4V41.6801L304.27 8.18041e-05H296V57.4401H305.35V16.1601L339.35 57.4401H347.75ZM228.22 57.4401H264.41V48.0801H237.58V33.3901H264.41V24.0001H237.58V9.35008H264.41V8.18041e-05H228.22V57.4401ZM171.76 30.1101H161.17V9.35008H174.22C175.591 9.31617 176.954 9.55985 178.229 10.0665C179.503 10.5731 180.662 11.3321 181.635 12.298C182.608 13.2639 183.376 14.4167 183.893 15.687C184.409 16.9574 184.663 18.319 184.64 19.6901C184.666 21.6868 184.113 23.6484 183.048 25.3378C181.984 27.0272 180.453 28.3721 178.64 29.2101C178.64 29.2101 176.64 30.1101 171.75 30.1101M161.16 39.4701H175L189.6 57.4701H201.7L184.8 36.6001C187.663 34.8228 190.011 32.3265 191.609 29.3596C193.208 26.3927 194.001 23.0589 193.91 19.6901C193.91 8.37008 185.54 8.18041e-05 174.22 8.18041e-05H151.82V57.4401H161.17L161.16 39.4701ZM96.55 48.0801C85.39 48.0801 77.27 39.8801 77.27 28.7201C77.27 17.5601 85.39 9.35008 96.55 9.35008C107.71 9.35008 115.83 17.5601 115.83 28.7201C115.83 39.8801 107.71 48.0801 96.55 48.0801ZM96.55 8.18041e-05C80.14 8.18041e-05 67.91 12.3101 67.91 28.7201C67.91 45.1301 80.14 57.4401 96.55 57.4401C112.96 57.4401 125.18 45.1301 125.18 28.7201C125.18 12.3101 113 8.18041e-05 96.55 8.18041e-05ZM9.35 9.35008H24.29C25.2355 9.30481 26.18 9.45922 27.0619 9.80324C27.9438 10.1473 28.7433 10.6732 29.4084 11.3468C30.0735 12.0204 30.5892 12.8265 30.922 13.7127C31.2548 14.5989 31.3973 15.5452 31.34 16.4901C31.34 20.8401 28.55 24.0401 24.7 24.0401H9.35V9.35008ZM9.35 33.3501H24.7C28.55 33.3501 31.34 36.5601 31.34 40.9001C31.3967 41.8406 31.2556 42.7825 30.9257 43.6651C30.5959 44.5476 30.0847 45.3513 29.4251 46.0241C28.7655 46.6969 27.9721 47.2239 27.0962 47.5711C26.2204 47.9184 25.2814 48.0781 24.34 48.0401H9.35V33.3501ZM0 57.4401H24.29C26.4681 57.497 28.635 57.1084 30.6576 56.2982C32.6803 55.488 34.5161 54.2732 36.0526 52.7283C37.5891 51.1834 38.7938 49.3409 39.593 47.3138C40.3921 45.2868 40.7688 43.1179 40.7 40.9401C40.6813 38.5927 40.1414 36.2787 39.1194 34.1654C38.0973 32.0521 36.6186 30.1922 34.79 28.7201C36.6062 27.2349 38.0761 25.3709 39.097 23.2584C40.1178 21.1459 40.6649 18.836 40.7 16.4901C40.7674 14.3131 40.3897 12.1453 39.5899 10.1194C38.7902 8.09355 37.5852 6.2523 36.0489 4.70847C34.5125 3.16463 32.6771 1.95072 30.6552 1.14111C28.6332 0.331498 26.4673 -0.0567744 24.29 8.18041e-05H0V57.4401Z" fill="#1D1D23"/>
</g>
<defs>
<clipPath id="clip0_1140_1067">
<rect width="536.73" height="57.44" fill="white"/>
</clipPath>
</defs>
</svg>
