<svg width="670" height="160" viewBox="0 0 670 160" fill="none" xmlns="http://www.w3.org/2000/svg">
<g clip-path="url(#clip0_1140_1101)">
<path d="M133.203 104.358C143.983 133.97 128.891 160 89.8464 160H58.4491L0 0H31.6193C70.9061 0 91.0263 9.55377 99.1706 32.0016C104.425 46.3138 100.848 60.1793 92.4653 69.2658C110.908 74.2702 126 84.7748 133.203 104.358ZM55.5754 65.9091C65.8534 65.9091 77.8499 57.3021 72.1024 41.789C67.3129 28.6572 54.3749 23.4028 40.4831 24.5914L55.5754 65.9091ZM81.4431 135.663C99.1706 135.9 107.315 125.633 101.086 110.112C94.6195 94.1278 80.2467 87.4225 63.0002 87.4225L81.4431 135.663ZM194.987 80.2377L252.716 160H216.538L173.189 97.1935L196.425 160H164.806L106.357 0H137.495C178.221 0 198.103 12.181 206.247 33.432C213.191 50.6255 207.444 70.2085 194.987 80.2377ZM163.626 69.9708C175.606 69.9708 185.905 60.417 179.919 43.9408C175.105 31.0467 162.89 23.1651 147.079 24.5914L163.626 69.9708ZM287.69 133.732H326.977L336.556 160H265.654L207.205 0H282.44L292.262 26.2677H248.404L263.019 66.3968H299.909L309.249 91.7096H272.36L287.69 133.732ZM316.436 0H361.708L449.38 160H414.887L394.767 120.838H366.741L373.927 160H344.7L316.436 0ZM361.708 94.5663H381.109L348.775 30.0917L361.708 94.5663ZM490.106 0L484.116 69.2658L554.302 160.012H518.124L467.099 93.6155L491.532 160.012H460.151L401.715 0H433.322L456.077 63.0442L460.867 0H490.106ZM506.394 0H538.014L596.463 160H564.839L506.394 0ZM621.134 26.2677L670 160H638.381L589.515 26.2677H561.489L552.136 0H644.839L654.184 26.2677H621.134Z" fill="#1D1D23"/>
</g>
<defs>
<clipPath id="clip0_1140_1101">
<rect width="670" height="160" fill="white"/>
</clipPath>
</defs>
</svg>
