<svg width=" 100%" height=" 100%" viewBox="0 0 24 24" fill="none" xmlns="http://www.w3.org/2000/svg">
<path fill-rule="evenodd" clip-rule="evenodd" d="M12 24C18.6274 24 24 18.6274 24 12C24 5.37258 18.6274 0 12 0C5.37258 0 0 5.37258 0 12C0 18.6274 5.37258 24 12 24ZM8.40737 7.59322C8.18282 7.36867 7.81875 7.36867 7.59419 7.59322C7.36964 7.81777 7.36964 8.18184 7.59419 8.40639L11.1876 11.9998L7.59419 15.5932C7.36964 15.8178 7.36964 16.1818 7.59419 16.4064C7.81875 16.6309 8.18282 16.6309 8.40737 16.4064L12.0008 12.813L15.5942 16.4064C15.8187 16.6309 16.1828 16.6309 16.4074 16.4064C16.6319 16.1818 16.6319 15.8178 16.4074 15.5932L12.814 11.9998L16.4074 8.40639C16.6319 8.18184 16.6319 7.81777 16.4074 7.59322C16.1828 7.36867 15.8187 7.36867 15.5942 7.59322L12.0008 11.1866L8.40737 7.59322Z" fill="currentColor"/>
</svg>