<svg width="100%" height="100%" viewBox="0 0 16 16" fill="none" xmlns="http://www.w3.org/2000/svg">
<g opacity="1">
<path d="M2.732 13.268C2.96416 13.5002 3.23978 13.6844 3.54314 13.8101C3.8465 13.9358 4.17164 14.0005 4.5 14.0005M2.732 13.268C3.20084 13.7368 3.83696 14.0005 4.5 14.0005M2.732 13.268C2.26316 12.7992 2 12.163 2 11.5V2.75C2 2.336 2.336 2 2.75 2H6.25C6.664 2 7 2.336 7 2.75V5.46467M4.5 14.0005C4.82836 14.0005 5.1535 13.9358 5.45686 13.8101C5.76022 13.6844 6.03585 13.5002 6.268 13.268M4.5 14.0005C5.16304 14.0005 5.79916 13.7368 6.268 13.268M4.5 14.0005L13.25 14C13.664 14 14 13.664 14 13.25V9.75C14 9.336 13.664 9 13.25 9H10.5353M6.268 13.268L10.5353 9M6.268 13.268C6.73684 12.7992 7 12.163 7 11.5V5.46467M10.5353 9L12.4547 7.08C12.748 6.788 12.748 6.31333 12.4547 6.02L9.98 3.54467C9.68667 3.252 9.212 3.252 8.92 3.54467L7 5.46467M4.5 11.5H4.50533V11.5053H4.5V11.5Z" stroke="black" stroke-linecap="round" stroke-linejoin="round"/>
</g>
</svg>