<svg width="409" height="67" viewBox="0 0 409 67" fill="none" xmlns="http://www.w3.org/2000/svg">
<path d="M12.6152 1.23682V53.962H45.4325V65.1049H0.588989V1.23682H12.6152Z" fill="#1D1D23"/>
<path d="M84.9764 14.6899L73.154 41.8678H96.8667L84.9764 14.6899ZM101.691 53.0107H68.3299L62.8943 65.037H49.781L78.3858 1.23682H91.4991L120.104 65.037H106.991L101.691 53.0107Z" fill="#1D1D23"/>
<path d="M177.857 65.1049H167.665L159.716 44.9933L152.989 24.8816L146.331 45.1971L138.585 65.1049H128.393L104.952 1.23682H118.473L133.489 47.3034L148.98 1.23682H156.794L172.761 47.3034L187.369 1.23682H200.822L177.857 65.1049Z" fill="#1D1D23"/>
<path d="M207.141 59.3297C207.141 67.9586 194.028 67.9586 194.028 59.3297C194.028 50.7007 207.141 50.7007 207.141 59.3297Z" fill="#1D1D23"/>
<path d="M268.563 57.0872C261.973 63.542 253.547 66.5995 244.307 66.5995C220.594 66.5995 210.606 50.2927 210.47 33.7142C210.402 17.0677 221.206 0.081543 244.307 0.081543C252.936 0.081543 261.157 3.34289 267.748 9.86559L259.73 17.4754C255.518 13.3987 249.878 11.4283 244.307 11.4283C228.883 11.4283 222.225 22.911 222.361 33.5783C222.429 44.1777 228.544 55.1848 244.307 55.1848C249.878 55.1848 256.129 52.8746 260.342 48.73L268.563 57.0872Z" fill="#1D1D23"/>
<path d="M279.163 33.7822C279.434 44.2457 285.074 55.4566 300.158 55.4566C315.173 55.4566 320.881 44.1778 321.017 33.6463C321.221 22.9111 315.173 10.8848 300.158 10.8848C285.074 10.9528 278.891 23.047 279.163 33.7822ZM332.839 33.5105C332.635 50.021 322.511 66.5316 300.09 66.5316C277.668 66.5316 267.272 50.4287 267.272 33.6463C267.272 16.864 278.008 0.0136719 300.09 0.0136719C322.104 0.0136719 333.043 16.864 332.839 33.5105Z" fill="#1D1D23"/>
<path d="M396.231 18.8344L375.44 46.5558H373.062L352.747 18.7664V65.1727H340.721V1.37256H354.581L374.557 28.8223L394.465 1.37256H408.258V65.1727H396.231V18.8344Z" fill="#1D1D23"/>
</svg>
