<svg width="auto" height="100%" viewBox="0 0 88 24" fill="none" xmlns="http://www.w3.org/2000/svg">
<path d="M0 0H7.83471V15.7686C3.51037 15.7686 0 12.236 0 7.8843V0Z" fill="currentColor"/>
<path d="M7.83471 15.7686H23.5041V23.5041H15.6694C11.3451 23.5041 7.83471 20.0382 7.83471 15.7686Z" fill="currentColor"/>
<path d="M38.5194 1.88477H35.4531V19.8352H47.0564V17.1413H38.5194V1.88477Z" fill="currentColor"/>
<path d="M54.0654 5.65414C49.8645 5.65414 47.2548 8.41809 47.2548 12.8682C47.2548 17.3183 49.704 20.1327 53.9742 20.1327C59.1492 20.1327 60.1458 16.8178 60.3336 15.3932L60.3788 15.0533H57.5471L57.5065 15.2201C57.1107 16.8698 56.0447 17.6054 54.0498 17.6054C51.6949 17.6054 50.5261 16.4415 50.2845 13.8397H60.4918L60.5222 13.3827C60.544 13.0575 60.544 12.7813 60.544 12.4616C60.544 8.32575 58.0006 5.65336 54.0638 5.65336L54.0654 5.65414ZM50.3671 11.338C50.7177 9.15758 51.8749 8.18142 54.0911 8.18142C56.3073 8.18142 57.325 9.18629 57.5416 11.338H50.3671Z" fill="currentColor"/>
<path d="M81.4907 5.75253C78.9012 5.75253 75.8333 6.89498 75.713 10.1158L75.6968 10.5435H78.5116L78.5309 10.1522C78.5949 8.93314 79.7289 8.17589 81.4899 8.17589C82.6416 8.17589 84.5732 8.48142 84.5732 10.5273V10.7315L79.7427 11.4625C76.7875 11.9861 75.0234 13.6151 75.0234 15.8203C75.0234 18.5863 77.5396 20.0335 80.0251 20.0335C81.2053 20.0335 83.2765 19.7721 84.6519 18.1354V19.7961H87.3209V10.5273C87.3209 7.49289 85.1957 5.75253 81.4899 5.75253H81.4907ZM84.574 12.8617V13.9786C84.574 16.5056 82.4226 17.6372 80.2904 17.6372C78.8942 17.6372 77.7579 16.8344 77.7579 15.8474C77.7579 14.8604 78.7469 14.0003 80.3429 13.7133L84.5747 12.8617H84.574Z" fill="currentColor"/>
<path d="M72.0059 6.2484L67.9587 16.2057L63.9091 6.2484H60.7424L66.4365 19.7892L65.7794 21.3852H61.8069V24.0005H64.3313C66.75 24.0005 68.1743 22.9889 69.0902 20.6232L75.1225 6.24918H72.0066L72.0059 6.2484Z" fill="currentColor"/>
</svg>