<svg width="100%" height="100%" viewBox="0 0 24 24" fill="none" xmlns="http://www.w3.org/2000/svg">
<path fill-rule="evenodd" clip-rule="evenodd" d="M4.5 3C3.67157 3 3 3.67157 3 4.5V19.5C3 20.3284 3.67157 21 4.5 21H19.5C20.3284 21 21 20.3284 21 19.5V4.5C21 3.67157 20.3284 3 19.5 3H4.5ZM8.52076 7.00272C8.52639 7.95897 7.81061 8.54819 6.96123 8.54397C6.16107 8.53975 5.46357 7.90272 5.46779 7.00413C5.47201 6.15897 6.13998 5.47975 7.00764 5.49944C7.88795 5.51913 8.52639 6.1646 8.52076 7.00272ZM12.2797 9.76176H9.75971H9.7583V18.3216H12.4217V18.1219C12.4217 17.742 12.4214 17.362 12.4211 16.9819V16.9818V16.9816V16.9815V16.9812C12.4203 15.9674 12.4194 14.9532 12.4246 13.9397C12.426 13.6936 12.4372 13.4377 12.5005 13.2028C12.7381 12.3253 13.5271 11.7586 14.4074 11.8979C14.9727 11.9864 15.3467 12.3141 15.5042 12.8471C15.6013 13.1803 15.6449 13.5389 15.6491 13.8863C15.6605 14.9339 15.6589 15.9815 15.6573 17.0292V17.0294C15.6567 17.3992 15.6561 17.769 15.6561 18.1388V18.3202H18.328V18.1149C18.328 17.6629 18.3278 17.211 18.3275 16.7591V16.759V16.7588C18.327 15.6293 18.3264 14.5001 18.3294 13.3702C18.3308 12.8597 18.276 12.3563 18.1508 11.8627C17.9638 11.1286 17.5771 10.5211 16.9485 10.0824C16.5027 9.77019 16.0133 9.5691 15.4663 9.5466C15.404 9.54401 15.3412 9.54062 15.2781 9.53721L15.2781 9.53721L15.2781 9.53721C14.9984 9.52209 14.7141 9.50673 14.4467 9.56066C13.6817 9.71394 13.0096 10.0641 12.5019 10.6814C12.4429 10.7522 12.3852 10.8241 12.2991 10.9314L12.2991 10.9315L12.2797 10.9557V9.76176ZM5.68164 18.3244H8.33242V9.76733H5.68164V18.3244Z" fill="CurrentColor"/>
</svg>