<svg width="100%" height="100%" viewBox="0 0 40 40" fill="none" xmlns="http://www.w3.org/2000/svg">
<rect x="0.5" y="0.5" width="39" height="39" rx="7.5" fill="#2D2D30"/>
<path fill-rule="evenodd" clip-rule="evenodd" d="M28.5307 10.6671C28.5307 10.3726 28.2919 10.1338 27.9974 10.1338C27.7028 10.1338 27.4641 10.3726 27.4641 10.6671V11.4671H26.6641C26.3695 11.4671 26.1307 11.7059 26.1307 12.0005C26.1307 12.295 26.3695 12.5338 26.6641 12.5338H27.4641V13.3338C27.4641 13.6283 27.7028 13.8671 27.9974 13.8671C28.2919 13.8671 28.5307 13.6283 28.5307 13.3338V12.5338H29.3307C29.6253 12.5338 29.8641 12.295 29.8641 12.0005C29.8641 11.7059 29.6253 11.4671 29.3307 11.4671H28.5307V10.6671ZM25.8021 14.1957C26.0625 14.4561 26.0625 14.8782 25.8021 15.1385L24.4688 16.4719C24.2085 16.7322 23.7863 16.7322 23.526 16.4719C23.2656 16.2115 23.2656 15.7894 23.526 15.5291L24.8593 14.1957C25.1196 13.9354 25.5418 13.9354 25.8021 14.1957ZM23.1355 16.8624C23.3958 17.1227 23.3958 17.5448 23.1355 17.8052L13.8021 27.1385C13.5418 27.3989 13.1197 27.3989 12.8593 27.1385C12.599 26.8782 12.599 26.4561 12.8593 26.1957L22.1927 16.8624C22.453 16.602 22.8751 16.602 23.1355 16.8624ZM27.9974 16.8005C28.2919 16.8005 28.5307 17.0392 28.5307 17.3338V18.1338H29.3307C29.6253 18.1338 29.8641 18.3726 29.8641 18.6671C29.8641 18.9617 29.6253 19.2005 29.3307 19.2005H28.5307V20.0005C28.5307 20.295 28.2919 20.5338 27.9974 20.5338C27.7028 20.5338 27.4641 20.295 27.4641 20.0005V19.2005H26.6641C26.3695 19.2005 26.1307 18.9617 26.1307 18.6671C26.1307 18.3726 26.3695 18.1338 26.6641 18.1338H27.4641V17.3338C27.4641 17.0392 27.7028 16.8005 27.9974 16.8005ZM21.8641 10.6671C21.8641 10.3726 21.6253 10.1338 21.3307 10.1338C21.0362 10.1338 20.7974 10.3726 20.7974 10.6671V11.4671H19.9974C19.7028 11.4671 19.4641 11.7059 19.4641 12.0005C19.4641 12.295 19.7028 12.5338 19.9974 12.5338H20.7974V13.3338C20.7974 13.6283 21.0362 13.8671 21.3307 13.8671C21.6253 13.8671 21.8641 13.6283 21.8641 13.3338V12.5338H22.6641C22.9586 12.5338 23.1974 12.295 23.1974 12.0005C23.1974 11.7059 22.9586 11.4671 22.6641 11.4671H21.8641V10.6671Z" fill="#C0C0C3"/>
<rect x="0.5" y="0.5" width="39" height="39" rx="7.5" stroke="#45454B"/>
</svg>