<svg width="678" height="105" viewBox="0 0 678 105" fill="none" xmlns="http://www.w3.org/2000/svg">
<path d="M210.001 34.5L224.901 1.5C226.801 1.5 229.101 1.8 231.301 1.8C233.501 1.8 235.801 1.5 238.001 1.5V3.4H237.401C235.501 3.4 231.701 3.5 231.501 6.3C231.401 7.9 231.701 9.8 231.801 11.2L234.201 40.1C234.501 43.3 236.001 43.5 239.801 43.6V45.5C236.801 45.4 233.701 45.2 230.701 45.2C227.201 45.2 223.801 45.3 220.301 45.5V43.6C223.601 43.4 225.701 43.4 225.701 40.6C225.701 39.8 225.701 39.1 225.601 37.5L223.801 10.9H223.701L207.601 46.4H206.101L190.801 11.6H190.701L188.601 39.3C188.601 41.3 189.101 42.3 189.901 42.9C190.801 43.5 192.201 43.5 193.901 43.6H194.701V45.5C191.901 45.4 189.001 45.2 186.101 45.2C183.601 45.2 181.101 45.3 178.701 45.5V43.6H179.601C184.601 43.4 184.801 41.3 185.301 36.7L187.201 19.2C187.701 14.7 188.001 10.6 188.001 8.1C188.001 4.6 185.301 3.4 182.501 3.4H181.701V1.5C184.301 1.5 186.801 1.8 189.401 1.8C191.301 1.8 193.201 1.5 195.101 1.5L210.001 34.5ZM253.601 36.5C253.001 38.6 252.201 40.3 252.201 41.4C252.201 43.3 254.801 43.6 256.901 43.6H257.601V45.5C255.101 45.4 252.501 45.2 250.001 45.2C247.701 45.2 245.501 45.3 243.201 45.5V43.6H243.601C246.101 43.6 248.101 42.1 249.101 39.5L259.201 10.6C260.001 8.3 261.201 5.1 261.501 2.8C263.501 2.1 266.001 0.8 267.201 0.0999999C267.401 -9.68575e-08 267.501 0 267.701 0C267.901 0 268.001 -1.93715e-07 268.101 0.2C268.301 0.7 268.501 1.3 268.701 1.8L280.301 34.8C281.101 37 281.801 39.3 282.601 41.2C283.401 43 284.701 43.7 286.801 43.7H287.201V45.6C284.401 45.5 281.501 45.3 278.501 45.3C275.401 45.3 272.301 45.4 269.001 45.6V43.7H269.701C271.201 43.7 273.601 43.4 273.601 41.9C273.601 41.1 273.001 39.4 272.301 37.4L269.801 30.1H255.601L253.601 36.5ZM262.801 8.6H262.701L256.801 26.4H268.601L262.801 8.6ZM331.601 33.1L331.701 33V9.3C331.701 4.1 328.101 3.4 326.201 3.4H324.801V1.5C327.801 1.5 330.701 1.8 333.601 1.8C336.201 1.8 338.801 1.5 341.401 1.5V3.4H340.501C337.901 3.4 334.901 3.9 334.901 11.4V40.1C334.901 42.3 335.001 44.5 335.301 46.5H332.901L300.401 10.3V36.3C300.401 41.8 301.501 43.7 306.301 43.7H307.401V45.6C304.701 45.6 302.001 45.3 299.301 45.3C296.501 45.3 293.601 45.6 290.701 45.6V43.7H291.601C295.901 43.7 297.301 40.7 297.301 35.7V9.1C297.301 5.6 294.401 3.4 291.601 3.4H290.801V1.5C293.201 1.5 295.701 1.8 298.101 1.8C300.001 1.8 301.801 1.5 303.701 1.5L331.601 33.1ZM386.001 33.1L386.101 33V9.3C386.101 4.1 382.501 3.4 380.601 3.4H379.201V1.5C382.201 1.5 385.101 1.8 388.001 1.8C390.601 1.8 393.201 1.5 395.801 1.5V3.4H394.901C392.301 3.4 389.301 3.9 389.301 11.4V40.1C389.301 42.3 389.401 44.5 389.701 46.5H387.301L354.801 10.3V36.3C354.801 41.8 355.901 43.7 360.701 43.7H361.801V45.6C359.101 45.6 356.401 45.3 353.701 45.3C350.901 45.3 348.001 45.6 345.101 45.6V43.7H346.001C350.301 43.7 351.701 40.7 351.701 35.7V9.1C351.701 5.6 348.801 3.4 346.001 3.4H345.201V1.5C347.601 1.5 350.101 1.8 352.401 1.8C354.301 1.8 356.101 1.5 358.001 1.5L386.001 33.1ZM414.701 40C414.701 43.4 417.301 43.6 419.601 43.6H420.801V45.5C418.001 45.5 414.001 45.2 410.601 45.2C407.401 45.2 403.601 45.5 401.101 45.5V43.6H402.001C404.301 43.6 406.701 43.3 406.701 40V7C406.701 3.7 404.301 3.4 402.001 3.4H401.101V1.5C403.601 1.5 407.401 1.8 410.601 1.8C414.001 1.8 418.001 1.5 420.801 1.5V3.4H419.601C417.301 3.4 414.701 3.6 414.701 7V20.8H437.601V7C437.601 3.6 435.001 3.4 432.701 3.4H431.501V1.5C434.301 1.5 438.301 1.8 441.701 1.8C444.901 1.8 448.701 1.5 451.201 1.5V3.4H450.301C448.001 3.4 445.601 3.7 445.601 7V40C445.601 43.3 448.001 43.6 450.301 43.6H451.201V45.5C448.701 45.5 444.901 45.2 441.701 45.2C438.301 45.2 434.301 45.5 431.501 45.5V43.6H432.701C435.001 43.6 437.601 43.4 437.601 40V24.3H414.701V40ZM458.201 43.6H459.101C461.401 43.6 463.801 43.3 463.801 40V7C463.801 3.7 461.401 3.4 459.101 3.4H458.201V1.5C462.001 1.5 468.601 1.8 473.901 1.8C479.201 1.8 485.801 1.5 490.001 1.5C489.901 4.2 489.901 8.4 490.101 11.1L488.201 11.6C487.901 7.5 487.101 4.2 480.501 4.2H471.701V20.7H479.201C483.001 20.7 483.801 18.6 484.201 15.2H486.101C486.001 17.7 485.901 20.1 485.901 22.6C485.901 25 486.001 27.4 486.101 29.8L484.201 30.2C483.801 26.4 483.601 24 479.301 24H471.701V38.7C471.701 42.8 475.401 42.8 479.401 42.8C487.001 42.8 490.301 42.3 492.201 35.1L494.001 35.5C493.201 38.8 492.401 42.2 491.901 45.5C487.901 45.5 480.601 45.2 474.901 45.2C469.201 45.2 461.701 45.5 458.101 45.5V43.6H458.201ZM500.201 43.6H501.101C503.401 43.6 505.801 43.3 505.801 40V7C505.801 3.7 503.401 3.4 501.101 3.4H500.201V1.5C502.701 1.5 506.401 1.8 509.501 1.8C512.701 1.8 516.401 1.5 519.401 1.5V3.4H518.601C516.301 3.4 513.901 3.7 513.901 7V40C513.901 43.3 516.301 43.6 518.601 43.6H519.501V45.5C516.501 45.5 512.701 45.2 509.501 45.2C506.401 45.2 502.701 45.5 500.201 45.5V43.6ZM556.701 34.5L571.601 1.5C573.501 1.5 575.801 1.8 578.001 1.8C580.201 1.8 582.501 1.5 584.701 1.5V3.4H584.101C582.201 3.4 578.401 3.5 578.201 6.3C578.101 7.9 578.401 9.8 578.501 11.2L580.901 40.1C581.101 43.3 582.701 43.5 586.501 43.6V45.5C583.501 45.4 580.401 45.2 577.401 45.2C573.901 45.2 570.501 45.3 567.001 45.5V43.6C570.301 43.4 572.401 43.4 572.401 40.6C572.401 39.8 572.401 39.1 572.301 37.5L570.501 10.9H570.601L554.501 46.4H553.001L537.701 11.6H537.601L535.501 39.3C535.501 41.3 536.001 42.3 536.801 42.9C537.701 43.5 539.101 43.5 540.801 43.6H541.601V45.5C538.801 45.4 535.901 45.2 533.001 45.2C530.501 45.2 528.001 45.3 525.601 45.5V43.6H526.501C531.501 43.4 531.701 41.3 532.201 36.7L534.101 19.2C534.601 14.7 534.901 10.6 534.901 8.1C534.901 4.6 532.201 3.4 529.401 3.4H528.601V1.5C531.201 1.5 533.701 1.8 536.301 1.8C538.201 1.8 540.101 1.5 542.001 1.5L556.701 34.5ZM593.101 43.6H594.001C596.301 43.6 598.701 43.3 598.701 40V7C598.701 3.7 596.301 3.4 594.001 3.4H593.101V1.5C596.901 1.5 603.501 1.8 608.801 1.8C614.101 1.8 620.601 1.5 624.901 1.5C624.801 4.2 624.801 8.4 625.001 11.1L623.101 11.6C622.801 7.5 622.001 4.2 615.401 4.2H606.601V20.7H614.101C617.901 20.7 618.701 18.6 619.101 15.2H621.001C620.901 17.7 620.801 20.1 620.801 22.6C620.801 25 620.901 27.4 621.001 29.8L619.101 30.2C618.701 26.4 618.501 24 614.201 24H606.601V38.7C606.601 42.8 610.301 42.8 614.301 42.8C621.901 42.8 625.201 42.3 627.101 35.1L628.901 35.5C628.101 38.8 627.301 42.2 626.801 45.5C622.801 45.5 615.501 45.2 609.801 45.2C604.101 45.2 596.601 45.5 593.001 45.5V43.6H593.101ZM640.101 8.2C640.101 3.6 637.601 3.4 635.601 3.4H634.501V1.5C636.501 1.5 640.401 1.8 644.301 1.8C648.101 1.8 651.101 1.5 654.501 1.5C662.401 1.5 669.501 3.6 669.501 12.6C669.501 18.3 665.701 21.7 660.701 23.7L671.501 39.8C673.301 42.4 674.501 43.2 677.601 43.6V45.5C675.501 45.5 673.501 45.2 671.401 45.2C669.401 45.2 667.401 45.5 665.501 45.5C660.601 39.1 656.501 32.3 652.401 25.1H648.201V38.6C648.201 43.5 650.501 43.6 653.401 43.6H654.501V45.5C650.901 45.5 647.201 45.2 643.701 45.2C640.701 45.2 637.701 45.5 634.501 45.5V43.6H635.601C637.901 43.6 640.101 42.5 640.101 40.2V8.2ZM648.201 22.8H651.301C657.601 22.8 661.001 20.4 661.001 13C661.001 7.4 657.401 3.8 651.801 3.8C649.901 3.8 649.101 4 648.201 4.1V22.8ZM202.4 68.5C202 64.4 199.3 60.5 195 60.5C190 60.5 187.2 63.5 187.2 68.4C187.2 78.9 206.1 75.7 206.1 90.8C206.1 99.5 198.9 104 190.8 104C187.3 104 183.9 102.7 180.8 101.2C180.5 98 180 94.8 179.7 91.6L181.5 91.2C182.3 96.6 185.3 101.2 191.3 101.2C195.6 101.2 199.1 98.5 199.1 94C199.1 82.8 180.6 86.3 180.6 71.1C180.6 62.9 186.4 58.1 194.5 58.1C196.3 58.1 201.6 58.8 203.6 59C203.6 62 203.9 65 204.2 68L202.4 68.5ZM242.1 84.4L233.8 104.1H231.7L215.8 66.7C214.5 63.7 213.7 61.1 210.3 61.1H209.4V59.2C211.8 59.2 215.5 59.5 218.5 59.5C221.2 59.5 224.4 59.2 226.5 59.2V61.1H225.9C224.5 61.1 223.2 61.4 223.2 62.6C223.2 63.4 223.8 65.3 225.3 69.1L235.6 93.4L240.7 81.1L232.8 62.8C232.2 61.3 230.6 61.1 229 61.1V59.2C232 59.2 234.9 59.5 237.9 59.5C240.2 59.5 242.5 59.2 244.8 59.2C246.8 59.2 248.8 59.5 250.9 59.5C252.8 59.5 254.7 59.2 256.6 59.2V61.1H255.7C252.6 61.1 251.8 62.3 250.2 65.9L246.5 74.5L254.3 92.8L264 66.3C264.4 65.2 264.9 63.7 264.9 62.8C264.9 61.4 263.8 61 261.1 61H260.3V59.2C262.4 59.2 264.5 59.5 266.5 59.5C268.4 59.5 270.2 59.2 272.1 59.2V61.1H271.3C269.4 61.1 268.3 63.2 267.6 65.2L252.7 104.2H250.5L242.1 84.4ZM247.3 65.6C247.7 64.4 248.1 63.6 248.1 63C248.1 61.4 246.6 61.1 244.6 61.1C242.9 61.1 241.5 61.4 241.5 62.7C241.5 63.6 242 64.5 242.5 65.7L244.9 71.3H245L247.3 65.6ZM276 94.2C275.4 96.3 274.6 98 274.6 99.1C274.6 101 277.2 101.3 279.3 101.3H280V103.2C277.5 103.1 274.9 102.9 272.4 102.9C270.1 102.9 267.9 103 265.6 103.2V101.3H266C268.5 101.3 270.5 99.8 271.5 97.2L281.6 68.3C282.4 66 283.6 62.8 283.9 60.5C285.9 59.8 288.4 58.5 289.6 57.8C289.8 57.7 289.9 57.7 290.1 57.7C290.3 57.7 290.4 57.7 290.5 57.9C290.7 58.4 290.9 59 291.1 59.5L302.7 92.5C303.5 94.7 304.2 97 305 98.9C305.8 100.7 307.1 101.4 309.2 101.4H309.6V103.3C306.8 103.2 303.9 103 300.9 103C297.8 103 294.7 103.1 291.5 103.3V101.4H292.2C293.6 101.4 296.1 101.1 296.1 99.6C296.1 98.8 295.5 97.1 294.8 95.1L292.3 87.8H278L276 94.2ZM285.2 66.3H285.1L279.2 84.1H291L285.2 66.3ZM319.2 65.9C319.2 61.3 316.7 61.1 314.7 61.1H313.6V59.2C315.6 59.2 319.5 59.5 323.4 59.5C327.2 59.5 330.2 59.2 333.5 59.2C341.4 59.2 348.5 61.3 348.5 70.3C348.5 76 344.7 79.4 339.7 81.4L350.5 97.5C352.3 100.1 353.5 100.9 356.6 101.3V103.2C354.5 103.2 352.5 102.9 350.4 102.9C348.5 102.9 346.4 103.2 344.5 103.2C339.6 96.8 335.5 90 331.4 82.8H327.2V96.3C327.2 101.2 329.5 101.3 332.4 101.3H333.5V103.2C329.9 103.2 326.3 102.9 322.7 102.9C319.7 102.9 316.7 103.2 313.6 103.2V101.3H314.7C317 101.3 319.2 100.2 319.2 97.9V65.9ZM327.2 80.5H330.3C336.6 80.5 340 78.1 340 70.7C340 65.1 336.4 61.5 330.8 61.5C328.9 61.5 328.1 61.7 327.2 61.8V80.5ZM363.7 62.4C359 62.4 358.8 63.5 357.8 68.1H355.9C356.2 66.3 356.5 64.6 356.7 62.7C356.9 60.9 357.1 59.2 357.1 57.3H358.6C359.1 59.2 360.7 59.1 362.4 59.1H394.9C396.6 59.1 398.2 59 398.3 57.2L399.8 57.4C399.5 59.1 399.3 60.8 399.1 62.5C399 64.2 399 65.9 399 67.6L397.1 68.3C397 66 396.7 62.2 392.4 62.2H382.1V95.7C382.1 100.6 384.3 101.1 387.3 101.1H388.5V103C386 103 381.6 102.7 378.2 102.7C374.4 102.7 370 103 367.5 103V101.1H368.7C372.2 101.1 373.9 100.8 373.9 95.8V62.4H363.7ZM419.4 97.5C419.4 100.1 421.2 100.8 423.2 101.1C425.8 101.3 428.7 101.3 431.6 101C434.3 100.7 436.6 99.1 437.7 97.5C438.7 96.1 439.3 94.3 439.7 92.9H441.5C440.8 96.5 439.9 100.1 439.1 103.8C433.5 103.8 427.9 103.5 422.2 103.5C416.6 103.5 411 103.8 405.3 103.8V101.9H406.2C408.5 101.9 411 101.6 411 97.6V64.8C411 61.5 408.5 61.2 406.2 61.2H405.3V59.2C408.7 59.2 412 59.5 415.4 59.5C418.6 59.5 421.8 59.2 425.1 59.2V61.1H423.5C421.1 61.1 419.2 61.2 419.2 64.6V97.5H419.4ZM446.9 101.3H447.8C450.1 101.3 452.5 101 452.5 97.7V64.7C452.5 61.4 450.1 61.1 447.8 61.1H446.9V59.2C449.4 59.2 453.1 59.5 456.2 59.5C459.4 59.5 463.1 59.2 466.1 59.2V61.1H465.2C462.9 61.1 460.5 61.4 460.5 64.7V97.7C460.5 101 462.9 101.3 465.2 101.3H466.1V103.2C463.1 103.2 459.3 102.9 456.1 102.9C453 102.9 449.3 103.2 446.8 103.2V101.3H446.9ZM515.2 90.8L515.3 90.7V67C515.3 61.8 511.7 61.1 509.8 61.1H508.4V59.2C511.4 59.2 514.3 59.5 517.2 59.5C519.8 59.5 522.4 59.2 525 59.2V61.1H524C521.4 61.1 518.4 61.6 518.4 69.1V97.8C518.4 100 518.5 102.2 518.8 104.2H516.4L483.9 68V94C483.9 99.5 485 101.4 489.8 101.4H490.9V103.3C488.2 103.3 485.5 103 482.8 103C480 103 477.1 103.3 474.2 103.3V101.4H475.1C479.4 101.4 480.8 98.4 480.8 93.4V66.8C480.8 63.3 477.9 61.1 475.1 61.1H474.3V59.2C476.7 59.2 479.1 59.5 481.5 59.5C483.4 59.5 485.2 59.2 487.1 59.2L515.2 90.8ZM569.1 71.5C567.2 63.7 561.9 61 554.5 61C543.2 61 537.7 69.3 537.7 79.8C537.7 90.2 542.7 101.3 554.7 101.3C557.7 101.4 560.9 100.9 561.7 100.1V89.9C561.7 87.3 559.2 86.7 556.9 86.7H556.1V84.8C559.3 84.9 562.4 85.1 565.6 85.1C568.4 85.1 571.2 85 574.1 84.8V86.7H573.3C571.1 86.7 569.9 87.7 569.9 89.9V99.5L571.3 100.3V101.4C565.7 103 560.2 104.1 553.7 104.1C539.6 104.1 528.9 95.7 528.9 80.5C528.9 65.9 541.4 58.2 554.1 58.2C558 58.2 560.7 58.8 563.2 59.3C565.7 59.9 567.8 60.4 570.3 60.5C570.3 62.8 570.3 67.6 571.1 71.3L569.1 71.5Z" fill="#1D1D23"/>
<path d="M129.803 7.25527C130.005 2.41842 134.245 0.604606 138.686 0V0.201532H151V105C141.512 104.597 137.475 103.791 136.869 95.7294L130.611 20.1536C130.207 16.5259 129.602 11.4875 129.803 7.25527Z" fill="#1D1D23"/>
<path d="M108.203 0L110.02 19.3474L114.461 88.8772C114.663 93.1094 114.663 94.9232 114.663 96.9386C114.663 104.194 109.213 104.194 100.532 104.597V104.798H71.0588L77.3169 90.8925L73.0775 81.2188L36.7406 0H108.203Z" fill="#1D1D23"/>
<path d="M4.03743 0C14.131 1.00768 17.361 9.27063 17.361 9.27063L23.619 21.5643L60.3596 105H0V0H4.03743Z" fill="#1D1D23"/>
</svg>
