<svg xmlns="http://www.w3.org/2000/svg" xmlns:xlink="http://www.w3.org/1999/xlink" viewBox="0 0 640 360" width="640" height="360" preserveAspectRatio="xMidYMid meet" style="width: 100%; height: 100%; transform: translate3d(0px, 0px, 0px); content-visibility: visible;"><defs><clipPath id="__lottie_element_2977"><rect width="640" height="360" x="0" y="0"/></clipPath><filter id="__lottie_element_2980" x="0%" y="0%" width="100%" height="100%"><feGaussianBlur in="SourceAlpha" result="filter_result_0_drop_shadow_1" stdDeviation="16"/><feOffset dx="1.959434878635765e-15" dy="32" in="filter_result_0_drop_shadow_1" result="filter_result_0_drop_shadow_2"/><feFlood flood-color="#000000" flood-opacity="0.1" result="filter_result_0_drop_shadow_3"/><feComposite in="filter_result_0_drop_shadow_3" in2="filter_result_0_drop_shadow_2" operator="in" result="filter_result_0_drop_shadow_4"/><feMerge result="filter_result_0"><feMergeNode in="filter_result_0_drop_shadow_4"/><feMergeNode in="SourceGraphic"/></feMerge></filter><clipPath id="__lottie_element_2991"><path d="M0,0 L1280,0 L1280,720 L0,720z"/></clipPath></defs><g clip-path="url(#__lottie_element_2977)"><g filter="url(#__lottie_element_2980)" transform="matrix(1,0,0,1,320,180)" opacity="0.1" style="display: block;"><g opacity="1" transform="matrix(1,0,0,1,0,0)"><path fill="rgb(17,17,17)" fill-opacity="1" d=" M272,-14 C272,-14 272,14 272,14 C272,18.415199279785156 268.4151916503906,22 264,22 C264,22 -264,22 -264,22 C-268.4151916503906,22 -272,18.415199279785156 -272,14 C-272,14 -272,-14 -272,-14 C-272,-18.415199279785156 -268.4151916503906,-22 -264,-22 C-264,-22 264,-22 264,-22 C268.4151916503906,-22 272,-18.415199279785156 272,-14z"/><path stroke-linecap="butt" stroke-linejoin="miter" fill-opacity="0" stroke-miterlimit="4" stroke="rgb(45,45,48)" stroke-opacity="1" stroke-width="1" d=" M272,-14 C272,-14 272,14 272,14 C272,18.415199279785156 268.4151916503906,22 264,22 C264,22 -264,22 -264,22 C-268.4151916503906,22 -272,18.415199279785156 -272,14 C-272,14 -272,-14 -272,-14 C-272,-18.415199279785156 -268.4151916503906,-22 -264,-22 C-264,-22 264,-22 264,-22 C268.4151916503906,-22 272,-18.415199279785156 272,-14z"/></g></g><g transform="matrix(1,0,0,1,196,185.53399658203125)" opacity="0.04" fill="rgb(192,192,195)" font-size="16" font-family="Inter" font-style="normal" font-weight="400" aria-label="Start your legal research here..." style="display: block;"><g stroke-linecap="butt" stroke-linejoin="round" stroke-miterlimit="4" transform="matrix(1,0,0,1,-136,-0.36376953125)" opacity="1" style="display: inherit;"><g><g transform="matrix(1,0,0,1,0,0)" opacity="1" style="display: block;"><path d=" M9.14,-8.73 C9.12,-9.31 8.94,-9.84 8.59,-10.3 C8.25,-10.76 7.79,-11.13 7.2,-11.39 C6.62,-11.66 5.95,-11.8 5.2,-11.8 C4.46,-11.8 3.79,-11.66 3.19,-11.39 C2.59,-11.12 2.11,-10.74 1.76,-10.25 C1.4,-9.77 1.23,-9.2 1.23,-8.55 C1.23,-7.76 1.49,-7.13 2.02,-6.64 C2.55,-6.16 3.27,-5.78 4.18,-5.52 C4.18,-5.52 5.61,-5.11 5.61,-5.11 C6.02,-5 6.4,-4.87 6.76,-4.72 C7.11,-4.56 7.39,-4.37 7.61,-4.12 C7.82,-3.88 7.93,-3.57 7.93,-3.18 C7.93,-2.76 7.81,-2.39 7.56,-2.07 C7.31,-1.75 6.97,-1.51 6.54,-1.33 C6.11,-1.16 5.63,-1.07 5.09,-1.07 C4.63,-1.07 4.2,-1.14 3.8,-1.28 C3.4,-1.41 3.07,-1.63 2.81,-1.91 C2.55,-2.2 2.4,-2.56 2.36,-3 C2.36,-3 0.91,-3 0.91,-3 C0.95,-2.36 1.15,-1.8 1.5,-1.32 C1.84,-0.84 2.32,-0.47 2.93,-0.2 C3.54,0.07 4.26,0.2 5.09,0.2 C5.98,0.2 6.75,0.05 7.37,-0.24 C8,-0.54 8.48,-0.95 8.8,-1.45 C9.13,-1.96 9.3,-2.53 9.3,-3.16 C9.3,-3.7 9.18,-4.16 8.96,-4.54 C8.74,-4.91 8.45,-5.22 8.11,-5.46 C7.77,-5.7 7.41,-5.89 7.04,-6.03 C6.66,-6.17 6.33,-6.28 6.02,-6.36 C6.02,-6.36 4.84,-6.68 4.84,-6.68 C4.63,-6.74 4.39,-6.81 4.13,-6.91 C3.87,-7 3.63,-7.12 3.39,-7.26 C3.16,-7.41 2.96,-7.59 2.82,-7.82 C2.67,-8.04 2.59,-8.3 2.59,-8.61 C2.59,-8.98 2.7,-9.32 2.91,-9.61 C3.13,-9.9 3.43,-10.13 3.81,-10.3 C4.19,-10.46 4.64,-10.55 5.16,-10.55 C5.86,-10.55 6.46,-10.39 6.94,-10.07 C7.43,-9.75 7.7,-9.3 7.77,-8.73 C7.77,-8.73 9.14,-8.73 9.14,-8.73z"/><g opacity="1" transform="matrix(0.1599999964237213,0,0,0.1599999964237213,0,0)"/></g></g></g><g stroke-linecap="butt" stroke-linejoin="round" stroke-miterlimit="4" transform="matrix(1,0,0,1,-125.79519653320312,-0.36376953125)" opacity="1" style="display: inherit;"><g><g transform="matrix(1,0,0,1,0,0)" opacity="1" style="display: block;"><path d=" M1.82,-2.14 C1.82,-1.63 1.94,-1.21 2.17,-0.88 C2.41,-0.54 2.71,-0.29 3.07,-0.13 C3.43,0.03 3.8,0.11 4.18,0.11 C4.43,0.11 4.64,0.1 4.8,0.06 C4.96,0.02 5.09,-0.01 5.18,-0.05 C5.18,-0.05 4.91,-1.25 4.91,-1.25 C4.85,-1.24 4.78,-1.22 4.68,-1.21 C4.59,-1.19 4.47,-1.18 4.32,-1.18 C4.12,-1.18 3.93,-1.21 3.76,-1.28 C3.58,-1.34 3.44,-1.46 3.33,-1.65 C3.21,-1.84 3.16,-2.12 3.16,-2.5 C3.16,-2.5 3.16,-10.82 3.16,-10.82 C3.16,-10.82 1.82,-10.82 1.82,-10.82 C1.82,-10.82 1.82,-2.14 1.82,-2.14z M0.5,-8.73 C0.5,-8.73 0.5,-7.59 0.5,-7.59 C0.5,-7.59 5.02,-7.59 5.02,-7.59 C5.02,-7.59 5.02,-8.73 5.02,-8.73 C5.02,-8.73 0.5,-8.73 0.5,-8.73z"/><g opacity="1" transform="matrix(0.1599999964237213,0,0,0.1599999964237213,0,0)"/></g></g></g><g stroke-linecap="butt" stroke-linejoin="round" stroke-miterlimit="4" transform="matrix(1,0,0,1,-119.97760009765625,-0.36376953125)" opacity="1" style="display: inherit;"><g><g transform="matrix(1,0,0,1,0,0)" opacity="1" style="display: block;"><path d=" M2.68,-1.36 C2.33,-1.59 2.16,-1.94 2.16,-2.41 C2.16,-2.75 2.25,-3.02 2.43,-3.22 C2.62,-3.42 2.86,-3.57 3.16,-3.67 C3.46,-3.77 3.79,-3.84 4.14,-3.89 C4.28,-3.91 4.47,-3.93 4.7,-3.96 C4.93,-3.99 5.18,-4.02 5.42,-4.06 C5.67,-4.1 5.89,-4.15 6.08,-4.2 C6.27,-4.26 6.4,-4.32 6.45,-4.39 C6.45,-4.39 6.45,-3.16 6.45,-3.16 C6.45,-2.8 6.36,-2.45 6.17,-2.12 C5.99,-1.79 5.71,-1.52 5.34,-1.31 C4.98,-1.1 4.53,-1 4,-1 C3.47,-1 3.03,-1.12 2.68,-1.36z M5.09,-0.02 C5.44,-0.17 5.72,-0.36 5.93,-0.57 C6.14,-0.79 6.3,-0.99 6.39,-1.18 C6.39,-1.18 6.45,-1.18 6.45,-1.18 C6.45,-1.18 6.45,0 6.45,0 C6.45,0 7.8,0 7.8,0 C7.8,0 7.8,-5.75 7.8,-5.75 C7.8,-6.44 7.68,-7 7.45,-7.41 C7.23,-7.82 6.94,-8.13 6.6,-8.34 C6.26,-8.54 5.9,-8.68 5.54,-8.74 C5.17,-8.81 4.85,-8.84 4.57,-8.84 C4.13,-8.84 3.68,-8.78 3.23,-8.66 C2.78,-8.54 2.36,-8.33 1.98,-8.04 C1.6,-7.74 1.3,-7.33 1.07,-6.8 C1.07,-6.8 2.34,-6.34 2.34,-6.34 C2.49,-6.66 2.74,-6.96 3.11,-7.24 C3.47,-7.52 3.97,-7.66 4.61,-7.66 C5.23,-7.66 5.69,-7.5 6,-7.19 C6.3,-6.88 6.45,-6.45 6.45,-5.89 C6.45,-5.89 6.45,-5.84 6.45,-5.84 C6.45,-5.63 6.38,-5.47 6.22,-5.39 C6.07,-5.3 5.83,-5.24 5.5,-5.2 C5.17,-5.17 4.73,-5.11 4.2,-5.05 C3.8,-4.99 3.4,-4.92 3,-4.83 C2.6,-4.74 2.23,-4.61 1.9,-4.43 C1.57,-4.25 1.31,-4.01 1.11,-3.7 C0.92,-3.38 0.82,-2.98 0.82,-2.48 C0.82,-1.91 0.95,-1.43 1.22,-1.03 C1.48,-0.63 1.84,-0.32 2.29,-0.11 C2.74,0.1 3.24,0.2 3.8,0.2 C4.3,0.2 4.73,0.13 5.09,-0.02z"/><g opacity="1" transform="matrix(0.1599999964237213,0,0,0.1599999964237213,0,0)"/></g></g></g><g stroke-linecap="butt" stroke-linejoin="round" stroke-miterlimit="4" transform="matrix(1,0,0,1,-110.9552001953125,-0.36376953125)" opacity="1" style="display: inherit;"><g><g transform="matrix(1,0,0,1,0,0)" opacity="1" style="display: block;"><path d=" M2.57,0 C2.57,0 2.57,-5.52 2.57,-5.52 C2.57,-5.92 2.66,-6.27 2.86,-6.58 C3.05,-6.89 3.31,-7.13 3.64,-7.3 C3.97,-7.48 4.35,-7.57 4.77,-7.57 C4.95,-7.57 5.12,-7.56 5.28,-7.53 C5.44,-7.51 5.55,-7.49 5.59,-7.48 C5.59,-7.48 5.59,-8.84 5.59,-8.84 C5.52,-8.85 5.4,-8.85 5.26,-8.86 C5.11,-8.86 4.98,-8.86 4.89,-8.86 C4.36,-8.86 3.89,-8.73 3.48,-8.46 C3.06,-8.19 2.77,-7.84 2.61,-7.41 C2.61,-7.41 2.52,-7.41 2.52,-7.41 C2.52,-7.41 2.52,-8.73 2.52,-8.73 C2.52,-8.73 1.23,-8.73 1.23,-8.73 C1.23,-8.73 1.23,0 1.23,0 C1.23,0 2.57,0 2.57,0z"/><g opacity="1" transform="matrix(0.1599999964237213,0,0,0.1599999964237213,0,0)"/></g></g></g><g stroke-linecap="butt" stroke-linejoin="round" stroke-miterlimit="4" transform="matrix(1,0,0,1,-105,-0.36376953125)" opacity="1" style="display: inherit;"><g><g transform="matrix(1,0,0,1,0,0)" opacity="1" style="display: block;"><path d=" M1.82,-2.14 C1.82,-1.63 1.94,-1.21 2.17,-0.88 C2.41,-0.54 2.71,-0.29 3.07,-0.13 C3.43,0.03 3.8,0.11 4.18,0.11 C4.43,0.11 4.64,0.1 4.8,0.06 C4.96,0.02 5.09,-0.01 5.18,-0.05 C5.18,-0.05 4.91,-1.25 4.91,-1.25 C4.85,-1.24 4.78,-1.22 4.68,-1.21 C4.59,-1.19 4.47,-1.18 4.32,-1.18 C4.12,-1.18 3.93,-1.21 3.76,-1.28 C3.58,-1.34 3.44,-1.46 3.33,-1.65 C3.21,-1.84 3.16,-2.12 3.16,-2.5 C3.16,-2.5 3.16,-10.82 3.16,-10.82 C3.16,-10.82 1.82,-10.82 1.82,-10.82 C1.82,-10.82 1.82,-2.14 1.82,-2.14z M0.5,-8.73 C0.5,-8.73 0.5,-7.59 0.5,-7.59 C0.5,-7.59 5.02,-7.59 5.02,-7.59 C5.02,-7.59 5.02,-8.73 5.02,-8.73 C5.02,-8.73 0.5,-8.73 0.5,-8.73z"/><g opacity="1" transform="matrix(0.1599999964237213,0,0,0.1599999964237213,0,0)"/></g></g></g><g stroke-linecap="butt" stroke-linejoin="round" stroke-miterlimit="4" transform="matrix(1,0,0,1,-99.1823959350586,-0.36376953125)" opacity="1" style="display: inherit;"><g><g style="display: none;"/></g></g><g stroke-linecap="butt" stroke-linejoin="round" stroke-miterlimit="4" transform="matrix(1,0,0,1,-94.6832046508789,-0.36376953125)" opacity="1" style="display: inherit;"><g><g transform="matrix(1,0,0,1,0,0)" opacity="1" style="display: block;"><path d=" M3.18,3.06 C3.51,2.91 3.79,2.69 4.04,2.39 C4.29,2.1 4.49,1.72 4.66,1.27 C4.66,1.27 8.36,-8.73 8.36,-8.73 C8.36,-8.73 6.91,-8.73 6.91,-8.73 C6.91,-8.73 4.5,-1.77 4.5,-1.77 C4.5,-1.77 4.41,-1.77 4.41,-1.77 C4.41,-1.77 2,-8.73 2,-8.73 C2,-8.73 0.55,-8.73 0.55,-8.73 C0.55,-8.73 3.77,0.05 3.77,0.05 C3.77,0.05 3.52,0.73 3.52,0.73 C3.36,1.17 3.18,1.49 2.99,1.69 C2.79,1.89 2.57,2 2.32,2.02 C2.07,2.05 1.78,2.02 1.45,1.93 C1.45,1.93 1.11,3.11 1.11,3.11 C1.18,3.15 1.3,3.18 1.48,3.22 C1.66,3.25 1.86,3.27 2.09,3.27 C2.5,3.27 2.86,3.2 3.18,3.06z"/><g opacity="1" transform="matrix(0.1599999964237213,0,0,0.1599999964237213,0,0)"/></g></g></g><g stroke-linecap="butt" stroke-linejoin="round" stroke-miterlimit="4" transform="matrix(1,0,0,1,-85.77439880371094,-0.36376953125)" opacity="1" style="display: inherit;"><g><g transform="matrix(1,0,0,1,0,0)" opacity="1" style="display: block;"><path d=" M3.3,-1.48 C2.91,-1.79 2.62,-2.19 2.44,-2.69 C2.25,-3.19 2.16,-3.73 2.16,-4.32 C2.16,-4.9 2.25,-5.44 2.44,-5.95 C2.62,-6.45 2.91,-6.86 3.3,-7.17 C3.68,-7.48 4.17,-7.64 4.77,-7.64 C5.37,-7.64 5.86,-7.48 6.25,-7.17 C6.64,-6.86 6.92,-6.45 7.11,-5.95 C7.29,-5.44 7.39,-4.9 7.39,-4.32 C7.39,-3.73 7.29,-3.19 7.11,-2.69 C6.92,-2.19 6.64,-1.79 6.25,-1.48 C5.86,-1.18 5.37,-1.02 4.77,-1.02 C4.17,-1.02 3.68,-1.18 3.3,-1.48z M6.84,-0.38 C7.44,-0.76 7.9,-1.28 8.23,-1.95 C8.56,-2.63 8.73,-3.42 8.73,-4.32 C8.73,-5.23 8.56,-6.02 8.23,-6.7 C7.9,-7.38 7.44,-7.9 6.84,-8.28 C6.25,-8.65 5.56,-8.84 4.77,-8.84 C3.98,-8.84 3.29,-8.65 2.7,-8.28 C2.11,-7.9 1.65,-7.38 1.32,-6.7 C0.98,-6.02 0.82,-5.23 0.82,-4.32 C0.82,-3.42 0.98,-2.63 1.32,-1.95 C1.65,-1.28 2.11,-0.76 2.7,-0.38 C3.29,-0.01 3.98,0.18 4.77,0.18 C5.56,0.18 6.25,-0.01 6.84,-0.38z"/><g opacity="1" transform="matrix(0.1599999964237213,0,0,0.1599999964237213,0,0)"/></g></g></g><g stroke-linecap="butt" stroke-linejoin="round" stroke-miterlimit="4" transform="matrix(1,0,0,1,-76.22879791259766,-0.36376953125)" opacity="1" style="display: inherit;"><g><g transform="matrix(1,0,0,1,0,0)" opacity="1" style="display: block;"><path d=" M6.37,-2.22 C6.14,-1.87 5.84,-1.61 5.5,-1.44 C5.15,-1.27 4.81,-1.18 4.48,-1.18 C3.92,-1.18 3.46,-1.37 3.11,-1.75 C2.75,-2.13 2.57,-2.64 2.57,-3.27 C2.57,-3.27 2.57,-8.73 2.57,-8.73 C2.57,-8.73 1.23,-8.73 1.23,-8.73 C1.23,-8.73 1.23,-3.18 1.23,-3.18 C1.23,-2.44 1.35,-1.82 1.59,-1.34 C1.83,-0.85 2.17,-0.49 2.59,-0.25 C3.02,-0.01 3.5,0.11 4.05,0.11 C4.7,0.11 5.25,-0.04 5.68,-0.35 C6.11,-0.66 6.43,-1.03 6.64,-1.48 C6.64,-1.48 6.73,-1.48 6.73,-1.48 C6.73,-1.48 6.73,0 6.73,0 C6.73,0 8.07,0 8.07,0 C8.07,0 8.07,-8.73 8.07,-8.73 C8.07,-8.73 6.73,-8.73 6.73,-8.73 C6.73,-8.73 6.73,-3.57 6.73,-3.57 C6.73,-3.02 6.61,-2.57 6.37,-2.22z"/><g opacity="1" transform="matrix(0.1599999964237213,0,0,0.1599999964237213,0,0)"/></g></g></g><g stroke-linecap="butt" stroke-linejoin="round" stroke-miterlimit="4" transform="matrix(1,0,0,1,-66.93280029296875,-0.36376953125)" opacity="1" style="display: inherit;"><g><g transform="matrix(1,0,0,1,0,0)" opacity="1" style="display: block;"><path d=" M2.57,0 C2.57,0 2.57,-5.52 2.57,-5.52 C2.57,-5.92 2.66,-6.27 2.86,-6.58 C3.05,-6.89 3.31,-7.13 3.64,-7.3 C3.97,-7.48 4.35,-7.57 4.77,-7.57 C4.95,-7.57 5.12,-7.56 5.28,-7.53 C5.44,-7.51 5.55,-7.49 5.59,-7.48 C5.59,-7.48 5.59,-8.84 5.59,-8.84 C5.52,-8.85 5.4,-8.85 5.26,-8.86 C5.11,-8.86 4.98,-8.86 4.89,-8.86 C4.36,-8.86 3.89,-8.73 3.48,-8.46 C3.06,-8.19 2.77,-7.84 2.61,-7.41 C2.61,-7.41 2.52,-7.41 2.52,-7.41 C2.52,-7.41 2.52,-8.73 2.52,-8.73 C2.52,-8.73 1.23,-8.73 1.23,-8.73 C1.23,-8.73 1.23,0 1.23,0 C1.23,0 2.57,0 2.57,0z"/><g opacity="1" transform="matrix(0.1599999964237213,0,0,0.1599999964237213,0,0)"/></g></g></g><g stroke-linecap="butt" stroke-linejoin="round" stroke-miterlimit="4" transform="matrix(1,0,0,1,-60.977603912353516,-0.36376953125)" opacity="1" style="display: inherit;"><g><g style="display: none;"/></g></g><g stroke-linecap="butt" stroke-linejoin="round" stroke-miterlimit="4" transform="matrix(1,0,0,1,-56.47840118408203,-0.36376953125)" opacity="1" style="display: inherit;"><g><g transform="matrix(1,0,0,1,0,0)" opacity="1" style="display: block;"><path d=" M1.23,-11.64 C1.23,-11.64 1.23,0 1.23,0 C1.23,0 2.57,0 2.57,0 C2.57,0 2.57,-11.64 2.57,-11.64 C2.57,-11.64 1.23,-11.64 1.23,-11.64z"/><g opacity="1" transform="matrix(0.1599999964237213,0,0,0.1599999964237213,0,0)"/></g></g></g><g stroke-linecap="butt" stroke-linejoin="round" stroke-miterlimit="4" transform="matrix(1,0,0,1,-52.68320083618164,-0.36376953125)" opacity="1" style="display: inherit;"><g><g transform="matrix(1,0,0,1,0,0)" opacity="1" style="display: block;"><path d=" M6.48,-0.09 C6.96,-0.28 7.35,-0.53 7.68,-0.87 C8,-1.2 8.23,-1.58 8.36,-2.02 C8.36,-2.02 7.07,-2.39 7.07,-2.39 C6.95,-2.08 6.79,-1.83 6.59,-1.63 C6.38,-1.43 6.13,-1.27 5.84,-1.17 C5.56,-1.07 5.24,-1.02 4.89,-1.02 C4.34,-1.02 3.87,-1.14 3.46,-1.38 C3.05,-1.61 2.73,-1.96 2.5,-2.42 C2.27,-2.87 2.16,-3.43 2.16,-4.09 C2.16,-4.09 2.16,-4.86 2.16,-4.86 C2.16,-5.34 2.26,-5.8 2.47,-6.22 C2.68,-6.64 2.98,-6.98 3.37,-7.24 C3.75,-7.5 4.22,-7.64 4.75,-7.64 C5.23,-7.64 5.66,-7.52 6.01,-7.3 C6.37,-7.08 6.65,-6.77 6.84,-6.39 C7.04,-6 7.14,-5.56 7.14,-5.07 C7.14,-5.07 1.77,-5.07 1.77,-5.07 C1.77,-5.07 1.77,-3.91 1.77,-3.91 C1.77,-3.91 8.5,-3.91 8.5,-3.91 C8.5,-3.91 8.5,-4.48 8.5,-4.48 C8.5,-5.29 8.39,-5.98 8.18,-6.53 C7.96,-7.09 7.67,-7.54 7.31,-7.88 C6.94,-8.22 6.54,-8.46 6.1,-8.61 C5.65,-8.77 5.2,-8.84 4.75,-8.84 C3.96,-8.84 3.27,-8.65 2.68,-8.26 C2.1,-7.88 1.64,-7.35 1.31,-6.66 C0.98,-5.98 0.82,-5.19 0.82,-4.3 C0.82,-3.4 0.98,-2.62 1.31,-1.95 C1.64,-1.27 2.11,-0.75 2.71,-0.38 C3.32,0 4.05,0.18 4.89,0.18 C5.48,0.18 6.01,0.09 6.48,-0.09z"/><g opacity="1" transform="matrix(0.1599999964237213,0,0,0.1599999964237213,0,0)"/></g></g></g><g stroke-linecap="butt" stroke-linejoin="round" stroke-miterlimit="4" transform="matrix(1,0,0,1,-43.36479949951172,-0.36376953125)" opacity="1" style="display: inherit;"><g><g transform="matrix(1,0,0,1,0,0)" opacity="1" style="display: block;"><path d=" M3.3,-1.74 C2.92,-2 2.64,-2.36 2.45,-2.83 C2.25,-3.29 2.16,-3.83 2.16,-4.43 C2.16,-5.02 2.25,-5.56 2.44,-6.05 C2.63,-6.53 2.91,-6.92 3.29,-7.2 C3.66,-7.49 4.14,-7.64 4.7,-7.64 C5.25,-7.64 5.71,-7.5 6.08,-7.23 C6.45,-6.95 6.73,-6.58 6.92,-6.1 C7.11,-5.62 7.2,-5.06 7.2,-4.43 C7.2,-3.79 7.11,-3.23 6.91,-2.77 C6.72,-2.31 6.44,-1.96 6.07,-1.71 C5.7,-1.46 5.24,-1.34 4.7,-1.34 C4.14,-1.34 3.68,-1.47 3.3,-1.74z M6.65,3.12 C7.22,2.9 7.68,2.55 8.01,2.08 C8.35,1.61 8.52,1 8.52,0.25 C8.52,0.25 8.52,-8.73 8.52,-8.73 C8.52,-8.73 7.23,-8.73 7.23,-8.73 C7.23,-8.73 7.23,-7.34 7.23,-7.34 C7.23,-7.34 7.09,-7.34 7.09,-7.34 C6.99,-7.49 6.85,-7.69 6.67,-7.92 C6.49,-8.16 6.24,-8.37 5.9,-8.56 C5.57,-8.75 5.11,-8.84 4.55,-8.84 C3.81,-8.84 3.16,-8.66 2.6,-8.29 C2.04,-7.93 1.6,-7.41 1.29,-6.75 C0.98,-6.08 0.82,-5.3 0.82,-4.41 C0.82,-3.5 0.98,-2.73 1.3,-2.09 C1.63,-1.45 2.07,-0.97 2.63,-0.64 C3.19,-0.3 3.82,-0.14 4.52,-0.14 C5.09,-0.14 5.54,-0.23 5.88,-0.41 C6.21,-0.59 6.47,-0.79 6.65,-1.03 C6.83,-1.26 6.97,-1.45 7.07,-1.61 C7.07,-1.61 7.18,-1.61 7.18,-1.61 C7.18,-1.61 7.18,0.16 7.18,0.16 C7.18,0.89 6.95,1.42 6.49,1.76 C6.04,2.1 5.45,2.27 4.75,2.27 C4.22,2.27 3.8,2.2 3.47,2.04 C3.15,1.89 2.9,1.71 2.71,1.5 C2.52,1.3 2.37,1.11 2.25,0.95 C2.25,0.95 1.18,1.7 1.18,1.7 C1.36,2.01 1.61,2.29 1.92,2.56 C2.23,2.83 2.61,3.04 3.08,3.21 C3.55,3.37 4.1,3.45 4.75,3.45 C5.45,3.45 6.08,3.34 6.65,3.12z"/><g opacity="1" transform="matrix(0.1599999964237213,0,0,0.1599999964237213,0,0)"/></g></g></g><g stroke-linecap="butt" stroke-linejoin="round" stroke-miterlimit="4" transform="matrix(1,0,0,1,-33.614402770996094,-0.36376953125)" opacity="1" style="display: inherit;"><g><g transform="matrix(1,0,0,1,0,0)" opacity="1" style="display: block;"><path d=" M2.68,-1.36 C2.33,-1.59 2.16,-1.94 2.16,-2.41 C2.16,-2.75 2.25,-3.02 2.43,-3.22 C2.62,-3.42 2.86,-3.57 3.16,-3.67 C3.46,-3.77 3.79,-3.84 4.14,-3.89 C4.28,-3.91 4.47,-3.93 4.7,-3.96 C4.93,-3.99 5.18,-4.02 5.42,-4.06 C5.67,-4.1 5.89,-4.15 6.08,-4.2 C6.27,-4.26 6.4,-4.32 6.45,-4.39 C6.45,-4.39 6.45,-3.16 6.45,-3.16 C6.45,-2.8 6.36,-2.45 6.17,-2.12 C5.99,-1.79 5.71,-1.52 5.34,-1.31 C4.98,-1.1 4.53,-1 4,-1 C3.47,-1 3.03,-1.12 2.68,-1.36z M5.09,-0.02 C5.44,-0.17 5.72,-0.36 5.93,-0.57 C6.14,-0.79 6.3,-0.99 6.39,-1.18 C6.39,-1.18 6.45,-1.18 6.45,-1.18 C6.45,-1.18 6.45,0 6.45,0 C6.45,0 7.8,0 7.8,0 C7.8,0 7.8,-5.75 7.8,-5.75 C7.8,-6.44 7.68,-7 7.45,-7.41 C7.23,-7.82 6.94,-8.13 6.6,-8.34 C6.26,-8.54 5.9,-8.68 5.54,-8.74 C5.17,-8.81 4.85,-8.84 4.57,-8.84 C4.13,-8.84 3.68,-8.78 3.23,-8.66 C2.78,-8.54 2.36,-8.33 1.98,-8.04 C1.6,-7.74 1.3,-7.33 1.07,-6.8 C1.07,-6.8 2.34,-6.34 2.34,-6.34 C2.49,-6.66 2.74,-6.96 3.11,-7.24 C3.47,-7.52 3.97,-7.66 4.61,-7.66 C5.23,-7.66 5.69,-7.5 6,-7.19 C6.3,-6.88 6.45,-6.45 6.45,-5.89 C6.45,-5.89 6.45,-5.84 6.45,-5.84 C6.45,-5.63 6.38,-5.47 6.22,-5.39 C6.07,-5.3 5.83,-5.24 5.5,-5.2 C5.17,-5.17 4.73,-5.11 4.2,-5.05 C3.8,-4.99 3.4,-4.92 3,-4.83 C2.6,-4.74 2.23,-4.61 1.9,-4.43 C1.57,-4.25 1.31,-4.01 1.11,-3.7 C0.92,-3.38 0.82,-2.98 0.82,-2.48 C0.82,-1.91 0.95,-1.43 1.22,-1.03 C1.48,-0.63 1.84,-0.32 2.29,-0.11 C2.74,0.1 3.24,0.2 3.8,0.2 C4.3,0.2 4.73,0.13 5.09,-0.02z"/><g opacity="1" transform="matrix(0.1599999964237213,0,0,0.1599999964237213,0,0)"/></g></g></g><g stroke-linecap="butt" stroke-linejoin="round" stroke-miterlimit="4" transform="matrix(1,0,0,1,-24.59200096130371,-0.36376953125)" opacity="1" style="display: inherit;"><g><g transform="matrix(1,0,0,1,0,0)" opacity="1" style="display: block;"><path d=" M1.23,-11.64 C1.23,-11.64 1.23,0 1.23,0 C1.23,0 2.57,0 2.57,0 C2.57,0 2.57,-11.64 2.57,-11.64 C2.57,-11.64 1.23,-11.64 1.23,-11.64z"/><g opacity="1" transform="matrix(0.1599999964237213,0,0,0.1599999964237213,0,0)"/></g></g></g><g stroke-linecap="butt" stroke-linejoin="round" stroke-miterlimit="4" transform="matrix(1,0,0,1,-20.796802520751953,-0.36376953125)" opacity="1" style="display: inherit;"><g><g style="display: none;"/></g></g><g stroke-linecap="butt" stroke-linejoin="round" stroke-miterlimit="4" transform="matrix(1,0,0,1,-16.29759979248047,-0.36376953125)" opacity="1" style="display: inherit;"><g><g transform="matrix(1,0,0,1,0,0)" opacity="1" style="display: block;"><path d=" M2.57,0 C2.57,0 2.57,-5.52 2.57,-5.52 C2.57,-5.92 2.66,-6.27 2.86,-6.58 C3.05,-6.89 3.31,-7.13 3.64,-7.3 C3.97,-7.48 4.35,-7.57 4.77,-7.57 C4.95,-7.57 5.12,-7.56 5.28,-7.53 C5.44,-7.51 5.55,-7.49 5.59,-7.48 C5.59,-7.48 5.59,-8.84 5.59,-8.84 C5.52,-8.85 5.4,-8.85 5.26,-8.86 C5.11,-8.86 4.98,-8.86 4.89,-8.86 C4.36,-8.86 3.89,-8.73 3.48,-8.46 C3.06,-8.19 2.77,-7.84 2.61,-7.41 C2.61,-7.41 2.52,-7.41 2.52,-7.41 C2.52,-7.41 2.52,-8.73 2.52,-8.73 C2.52,-8.73 1.23,-8.73 1.23,-8.73 C1.23,-8.73 1.23,0 1.23,0 C1.23,0 2.57,0 2.57,0z"/><g opacity="1" transform="matrix(0.1599999964237213,0,0,0.1599999964237213,0,0)"/></g></g></g><g stroke-linecap="butt" stroke-linejoin="round" stroke-miterlimit="4" transform="matrix(1,0,0,1,-10.342402458190918,-0.36376953125)" opacity="1" style="display: inherit;"><g><g transform="matrix(1,0,0,1,0,0)" opacity="1" style="display: block;"><path d=" M6.48,-0.09 C6.96,-0.28 7.35,-0.53 7.68,-0.87 C8,-1.2 8.23,-1.58 8.36,-2.02 C8.36,-2.02 7.07,-2.39 7.07,-2.39 C6.95,-2.08 6.79,-1.83 6.59,-1.63 C6.38,-1.43 6.13,-1.27 5.84,-1.17 C5.56,-1.07 5.24,-1.02 4.89,-1.02 C4.34,-1.02 3.87,-1.14 3.46,-1.38 C3.05,-1.61 2.73,-1.96 2.5,-2.42 C2.27,-2.87 2.16,-3.43 2.16,-4.09 C2.16,-4.09 2.16,-4.86 2.16,-4.86 C2.16,-5.34 2.26,-5.8 2.47,-6.22 C2.68,-6.64 2.98,-6.98 3.37,-7.24 C3.75,-7.5 4.22,-7.64 4.75,-7.64 C5.23,-7.64 5.66,-7.52 6.01,-7.3 C6.37,-7.08 6.65,-6.77 6.84,-6.39 C7.04,-6 7.14,-5.56 7.14,-5.07 C7.14,-5.07 1.77,-5.07 1.77,-5.07 C1.77,-5.07 1.77,-3.91 1.77,-3.91 C1.77,-3.91 8.5,-3.91 8.5,-3.91 C8.5,-3.91 8.5,-4.48 8.5,-4.48 C8.5,-5.29 8.39,-5.98 8.18,-6.53 C7.96,-7.09 7.67,-7.54 7.31,-7.88 C6.94,-8.22 6.54,-8.46 6.1,-8.61 C5.65,-8.77 5.2,-8.84 4.75,-8.84 C3.96,-8.84 3.27,-8.65 2.68,-8.26 C2.1,-7.88 1.64,-7.35 1.31,-6.66 C0.98,-5.98 0.82,-5.19 0.82,-4.3 C0.82,-3.4 0.98,-2.62 1.31,-1.95 C1.64,-1.27 2.11,-0.75 2.71,-0.38 C3.32,0 4.05,0.18 4.89,0.18 C5.48,0.18 6.01,0.09 6.48,-0.09z"/><g opacity="1" transform="matrix(0.1599999964237213,0,0,0.1599999964237213,0,0)"/></g></g></g><g stroke-linecap="butt" stroke-linejoin="round" stroke-miterlimit="4" transform="matrix(1,0,0,1,-1.0239969491958618,-0.36376953125)" opacity="1" style="display: inherit;"><g><g transform="matrix(1,0,0,1,0,0)" opacity="1" style="display: block;"><path d=" M6.36,-8.27 C5.86,-8.65 5.18,-8.84 4.32,-8.84 C3.7,-8.84 3.16,-8.73 2.67,-8.52 C2.19,-8.3 1.81,-8 1.53,-7.62 C1.25,-7.25 1.11,-6.81 1.11,-6.32 C1.11,-5.72 1.3,-5.21 1.67,-4.82 C2.05,-4.42 2.63,-4.12 3.43,-3.93 C3.43,-3.93 4.89,-3.59 4.89,-3.59 C5.33,-3.49 5.65,-3.33 5.86,-3.13 C6.08,-2.92 6.18,-2.67 6.18,-2.36 C6.18,-1.99 6,-1.67 5.63,-1.4 C5.26,-1.13 4.76,-1 4.14,-1 C3.59,-1 3.14,-1.12 2.8,-1.35 C2.46,-1.59 2.23,-1.94 2.11,-2.41 C2.11,-2.41 0.84,-2.09 0.84,-2.09 C1,-1.35 1.37,-0.78 1.95,-0.4 C2.53,-0.01 3.27,0.18 4.16,0.18 C4.84,0.18 5.43,0.07 5.94,-0.16 C6.45,-0.39 6.85,-0.7 7.14,-1.09 C7.43,-1.48 7.57,-1.93 7.57,-2.43 C7.57,-3.04 7.38,-3.54 6.99,-3.93 C6.61,-4.32 6.03,-4.61 5.25,-4.8 C5.25,-4.8 3.95,-5.11 3.95,-5.11 C3.44,-5.24 3.06,-5.4 2.82,-5.6 C2.58,-5.79 2.45,-6.05 2.45,-6.39 C2.45,-6.76 2.63,-7.07 2.99,-7.32 C3.34,-7.56 3.78,-7.68 4.32,-7.68 C4.71,-7.68 5.03,-7.62 5.28,-7.49 C5.53,-7.37 5.73,-7.21 5.87,-7.02 C6.02,-6.83 6.13,-6.63 6.2,-6.43 C6.2,-6.43 7.41,-6.77 7.41,-6.77 C7.2,-7.39 6.85,-7.89 6.36,-8.27z"/><g opacity="1" transform="matrix(0.1599999964237213,0,0,0.1599999964237213,0,0)"/></g></g></g><g stroke-linecap="butt" stroke-linejoin="round" stroke-miterlimit="4" transform="matrix(1,0,0,1,7.339192867279053,-0.36376953125)" opacity="1" style="display: inherit;"><g><g transform="matrix(1,0,0,1,0,0)" opacity="1" style="display: block;"><path d=" M6.48,-0.09 C6.96,-0.28 7.35,-0.53 7.68,-0.87 C8,-1.2 8.23,-1.58 8.36,-2.02 C8.36,-2.02 7.07,-2.39 7.07,-2.39 C6.95,-2.08 6.79,-1.83 6.59,-1.63 C6.38,-1.43 6.13,-1.27 5.84,-1.17 C5.56,-1.07 5.24,-1.02 4.89,-1.02 C4.34,-1.02 3.87,-1.14 3.46,-1.38 C3.05,-1.61 2.73,-1.96 2.5,-2.42 C2.27,-2.87 2.16,-3.43 2.16,-4.09 C2.16,-4.09 2.16,-4.86 2.16,-4.86 C2.16,-5.34 2.26,-5.8 2.47,-6.22 C2.68,-6.64 2.98,-6.98 3.37,-7.24 C3.75,-7.5 4.22,-7.64 4.75,-7.64 C5.23,-7.64 5.66,-7.52 6.01,-7.3 C6.37,-7.08 6.65,-6.77 6.84,-6.39 C7.04,-6 7.14,-5.56 7.14,-5.07 C7.14,-5.07 1.77,-5.07 1.77,-5.07 C1.77,-5.07 1.77,-3.91 1.77,-3.91 C1.77,-3.91 8.5,-3.91 8.5,-3.91 C8.5,-3.91 8.5,-4.48 8.5,-4.48 C8.5,-5.29 8.39,-5.98 8.18,-6.53 C7.96,-7.09 7.67,-7.54 7.31,-7.88 C6.94,-8.22 6.54,-8.46 6.1,-8.61 C5.65,-8.77 5.2,-8.84 4.75,-8.84 C3.96,-8.84 3.27,-8.65 2.68,-8.26 C2.1,-7.88 1.64,-7.35 1.31,-6.66 C0.98,-5.98 0.82,-5.19 0.82,-4.3 C0.82,-3.4 0.98,-2.62 1.31,-1.95 C1.64,-1.27 2.11,-0.75 2.71,-0.38 C3.32,0 4.05,0.18 4.89,0.18 C5.48,0.18 6.01,0.09 6.48,-0.09z"/><g opacity="1" transform="matrix(0.1599999964237213,0,0,0.1599999964237213,0,0)"/></g></g></g><g stroke-linecap="butt" stroke-linejoin="round" stroke-miterlimit="4" transform="matrix(1,0,0,1,16.6575927734375,-0.36376953125)" opacity="1" style="display: inherit;"><g><g transform="matrix(1,0,0,1,0,0)" opacity="1" style="display: block;"><path d=" M2.68,-1.36 C2.33,-1.59 2.16,-1.94 2.16,-2.41 C2.16,-2.75 2.25,-3.02 2.43,-3.22 C2.62,-3.42 2.86,-3.57 3.16,-3.67 C3.46,-3.77 3.79,-3.84 4.14,-3.89 C4.28,-3.91 4.47,-3.93 4.7,-3.96 C4.93,-3.99 5.18,-4.02 5.42,-4.06 C5.67,-4.1 5.89,-4.15 6.08,-4.2 C6.27,-4.26 6.4,-4.32 6.45,-4.39 C6.45,-4.39 6.45,-3.16 6.45,-3.16 C6.45,-2.8 6.36,-2.45 6.17,-2.12 C5.99,-1.79 5.71,-1.52 5.34,-1.31 C4.98,-1.1 4.53,-1 4,-1 C3.47,-1 3.03,-1.12 2.68,-1.36z M5.09,-0.02 C5.44,-0.17 5.72,-0.36 5.93,-0.57 C6.14,-0.79 6.3,-0.99 6.39,-1.18 C6.39,-1.18 6.45,-1.18 6.45,-1.18 C6.45,-1.18 6.45,0 6.45,0 C6.45,0 7.8,0 7.8,0 C7.8,0 7.8,-5.75 7.8,-5.75 C7.8,-6.44 7.68,-7 7.45,-7.41 C7.23,-7.82 6.94,-8.13 6.6,-8.34 C6.26,-8.54 5.9,-8.68 5.54,-8.74 C5.17,-8.81 4.85,-8.84 4.57,-8.84 C4.13,-8.84 3.68,-8.78 3.23,-8.66 C2.78,-8.54 2.36,-8.33 1.98,-8.04 C1.6,-7.74 1.3,-7.33 1.07,-6.8 C1.07,-6.8 2.34,-6.34 2.34,-6.34 C2.49,-6.66 2.74,-6.96 3.11,-7.24 C3.47,-7.52 3.97,-7.66 4.61,-7.66 C5.23,-7.66 5.69,-7.5 6,-7.19 C6.3,-6.88 6.45,-6.45 6.45,-5.89 C6.45,-5.89 6.45,-5.84 6.45,-5.84 C6.45,-5.63 6.38,-5.47 6.22,-5.39 C6.07,-5.3 5.83,-5.24 5.5,-5.2 C5.17,-5.17 4.73,-5.11 4.2,-5.05 C3.8,-4.99 3.4,-4.92 3,-4.83 C2.6,-4.74 2.23,-4.61 1.9,-4.43 C1.57,-4.25 1.31,-4.01 1.11,-3.7 C0.92,-3.38 0.82,-2.98 0.82,-2.48 C0.82,-1.91 0.95,-1.43 1.22,-1.03 C1.48,-0.63 1.84,-0.32 2.29,-0.11 C2.74,0.1 3.24,0.2 3.8,0.2 C4.3,0.2 4.73,0.13 5.09,-0.02z"/><g opacity="1" transform="matrix(0.1599999964237213,0,0,0.1599999964237213,0,0)"/></g></g></g><g stroke-linecap="butt" stroke-linejoin="round" stroke-miterlimit="4" transform="matrix(1,0,0,1,25.67999267578125,-0.36376953125)" opacity="1" style="display: inherit;"><g><g transform="matrix(1,0,0,1,0,0)" opacity="1" style="display: block;"><path d=" M2.57,0 C2.57,0 2.57,-5.52 2.57,-5.52 C2.57,-5.92 2.66,-6.27 2.86,-6.58 C3.05,-6.89 3.31,-7.13 3.64,-7.3 C3.97,-7.48 4.35,-7.57 4.77,-7.57 C4.95,-7.57 5.12,-7.56 5.28,-7.53 C5.44,-7.51 5.55,-7.49 5.59,-7.48 C5.59,-7.48 5.59,-8.84 5.59,-8.84 C5.52,-8.85 5.4,-8.85 5.26,-8.86 C5.11,-8.86 4.98,-8.86 4.89,-8.86 C4.36,-8.86 3.89,-8.73 3.48,-8.46 C3.06,-8.19 2.77,-7.84 2.61,-7.41 C2.61,-7.41 2.52,-7.41 2.52,-7.41 C2.52,-7.41 2.52,-8.73 2.52,-8.73 C2.52,-8.73 1.23,-8.73 1.23,-8.73 C1.23,-8.73 1.23,0 1.23,0 C1.23,0 2.57,0 2.57,0z"/><g opacity="1" transform="matrix(0.1599999964237213,0,0,0.1599999964237213,0,0)"/></g></g></g><g stroke-linecap="butt" stroke-linejoin="round" stroke-miterlimit="4" transform="matrix(1,0,0,1,31.63520050048828,-0.36376953125)" opacity="1" style="display: inherit;"><g><g transform="matrix(1,0,0,1,0,0)" opacity="1" style="display: block;"><path d=" M6.47,-0.18 C6.96,-0.42 7.35,-0.75 7.64,-1.16 C7.94,-1.57 8.13,-2.03 8.2,-2.55 C8.2,-2.55 6.86,-2.55 6.86,-2.55 C6.78,-2.23 6.64,-1.95 6.44,-1.73 C6.25,-1.5 6.01,-1.33 5.72,-1.2 C5.44,-1.08 5.12,-1.02 4.77,-1.02 C4.24,-1.02 3.78,-1.16 3.39,-1.44 C3,-1.71 2.69,-2.1 2.48,-2.6 C2.27,-3.1 2.16,-3.69 2.16,-4.36 C2.16,-5.02 2.27,-5.6 2.49,-6.09 C2.7,-6.58 3.01,-6.96 3.4,-7.23 C3.79,-7.5 4.25,-7.64 4.77,-7.64 C5.36,-7.64 5.83,-7.48 6.18,-7.17 C6.53,-6.86 6.76,-6.51 6.86,-6.11 C6.86,-6.11 8.2,-6.11 8.2,-6.11 C8.13,-6.66 7.93,-7.14 7.62,-7.55 C7.3,-7.95 6.9,-8.27 6.41,-8.5 C5.92,-8.73 5.36,-8.84 4.75,-8.84 C3.96,-8.84 3.27,-8.65 2.68,-8.26 C2.1,-7.88 1.64,-7.35 1.31,-6.67 C0.98,-5.99 0.82,-5.2 0.82,-4.32 C0.82,-3.45 0.98,-2.67 1.3,-1.99 C1.61,-1.32 2.07,-0.78 2.66,-0.4 C3.25,-0.01 3.95,0.18 4.77,0.18 C5.42,0.18 5.98,0.06 6.47,-0.18z"/><g opacity="1" transform="matrix(0.1599999964237213,0,0,0.1599999964237213,0,0)"/></g></g></g><g stroke-linecap="butt" stroke-linejoin="round" stroke-miterlimit="4" transform="matrix(1,0,0,1,40.566402435302734,-0.36376953125)" opacity="1" style="display: inherit;"><g><g transform="matrix(1,0,0,1,0,0)" opacity="1" style="display: block;"><path d=" M2.87,-6.55 C3.07,-6.9 3.34,-7.17 3.68,-7.36 C4.03,-7.54 4.42,-7.64 4.86,-7.64 C5.5,-7.64 5.99,-7.45 6.35,-7.07 C6.71,-6.68 6.89,-6.15 6.89,-5.45 C6.89,-5.45 6.89,0 6.89,0 C6.89,0 8.23,0 8.23,0 C8.23,0 8.23,-5.55 8.23,-5.55 C8.23,-6.3 8.1,-6.91 7.86,-7.4 C7.61,-7.89 7.26,-8.25 6.81,-8.49 C6.37,-8.72 5.84,-8.84 5.25,-8.84 C4.56,-8.84 4.02,-8.71 3.61,-8.44 C3.19,-8.17 2.89,-7.81 2.68,-7.36 C2.68,-7.36 2.57,-7.36 2.57,-7.36 C2.57,-7.36 2.57,-11.64 2.57,-11.64 C2.57,-11.64 1.23,-11.64 1.23,-11.64 C1.23,-11.64 1.23,0 1.23,0 C1.23,0 2.57,0 2.57,0 C2.57,0 2.57,-5.25 2.57,-5.25 C2.57,-5.76 2.67,-6.19 2.87,-6.55z"/><g opacity="1" transform="matrix(0.1599999964237213,0,0,0.1599999964237213,0,0)"/></g></g></g><g stroke-linecap="butt" stroke-linejoin="round" stroke-miterlimit="4" transform="matrix(1,0,0,1,50.02079391479492,-0.36376953125)" opacity="1" style="display: inherit;"><g><g style="display: none;"/></g></g><g stroke-linecap="butt" stroke-linejoin="round" stroke-miterlimit="4" transform="matrix(1,0,0,1,54.52000045776367,-0.36376953125)" opacity="1" style="display: inherit;"><g><g transform="matrix(1,0,0,1,0,0)" opacity="1" style="display: block;"><path d=" M2.87,-6.55 C3.07,-6.9 3.34,-7.17 3.68,-7.36 C4.03,-7.54 4.42,-7.64 4.86,-7.64 C5.5,-7.64 5.99,-7.45 6.35,-7.07 C6.71,-6.68 6.89,-6.15 6.89,-5.45 C6.89,-5.45 6.89,0 6.89,0 C6.89,0 8.23,0 8.23,0 C8.23,0 8.23,-5.55 8.23,-5.55 C8.23,-6.3 8.1,-6.91 7.86,-7.4 C7.61,-7.89 7.26,-8.25 6.81,-8.49 C6.37,-8.72 5.84,-8.84 5.25,-8.84 C4.56,-8.84 4.02,-8.71 3.61,-8.44 C3.19,-8.17 2.89,-7.81 2.68,-7.36 C2.68,-7.36 2.57,-7.36 2.57,-7.36 C2.57,-7.36 2.57,-11.64 2.57,-11.64 C2.57,-11.64 1.23,-11.64 1.23,-11.64 C1.23,-11.64 1.23,0 1.23,0 C1.23,0 2.57,0 2.57,0 C2.57,0 2.57,-5.25 2.57,-5.25 C2.57,-5.76 2.67,-6.19 2.87,-6.55z"/><g opacity="1" transform="matrix(0.1599999964237213,0,0,0.1599999964237213,0,0)"/></g></g></g><g stroke-linecap="butt" stroke-linejoin="round" stroke-miterlimit="4" transform="matrix(1,0,0,1,63.97439956665039,-0.36376953125)" opacity="1" style="display: inherit;"><g><g transform="matrix(1,0,0,1,0,0)" opacity="1" style="display: block;"><path d=" M6.48,-0.09 C6.96,-0.28 7.35,-0.53 7.68,-0.87 C8,-1.2 8.23,-1.58 8.36,-2.02 C8.36,-2.02 7.07,-2.39 7.07,-2.39 C6.95,-2.08 6.79,-1.83 6.59,-1.63 C6.38,-1.43 6.13,-1.27 5.84,-1.17 C5.56,-1.07 5.24,-1.02 4.89,-1.02 C4.34,-1.02 3.87,-1.14 3.46,-1.38 C3.05,-1.61 2.73,-1.96 2.5,-2.42 C2.27,-2.87 2.16,-3.43 2.16,-4.09 C2.16,-4.09 2.16,-4.86 2.16,-4.86 C2.16,-5.34 2.26,-5.8 2.47,-6.22 C2.68,-6.64 2.98,-6.98 3.37,-7.24 C3.75,-7.5 4.22,-7.64 4.75,-7.64 C5.23,-7.64 5.66,-7.52 6.01,-7.3 C6.37,-7.08 6.65,-6.77 6.84,-6.39 C7.04,-6 7.14,-5.56 7.14,-5.07 C7.14,-5.07 1.77,-5.07 1.77,-5.07 C1.77,-5.07 1.77,-3.91 1.77,-3.91 C1.77,-3.91 8.5,-3.91 8.5,-3.91 C8.5,-3.91 8.5,-4.48 8.5,-4.48 C8.5,-5.29 8.39,-5.98 8.18,-6.53 C7.96,-7.09 7.67,-7.54 7.31,-7.88 C6.94,-8.22 6.54,-8.46 6.1,-8.61 C5.65,-8.77 5.2,-8.84 4.75,-8.84 C3.96,-8.84 3.27,-8.65 2.68,-8.26 C2.1,-7.88 1.64,-7.35 1.31,-6.66 C0.98,-5.98 0.82,-5.19 0.82,-4.3 C0.82,-3.4 0.98,-2.62 1.31,-1.95 C1.64,-1.27 2.11,-0.75 2.71,-0.38 C3.32,0 4.05,0.18 4.89,0.18 C5.48,0.18 6.01,0.09 6.48,-0.09z"/><g opacity="1" transform="matrix(0.1599999964237213,0,0,0.1599999964237213,0,0)"/></g></g></g><g stroke-linecap="butt" stroke-linejoin="round" stroke-miterlimit="4" transform="matrix(1,0,0,1,73.29280090332031,-0.36376953125)" opacity="1" style="display: inherit;"><g><g transform="matrix(1,0,0,1,0,0)" opacity="1" style="display: block;"><path d=" M2.57,0 C2.57,0 2.57,-5.52 2.57,-5.52 C2.57,-5.92 2.66,-6.27 2.86,-6.58 C3.05,-6.89 3.31,-7.13 3.64,-7.3 C3.97,-7.48 4.35,-7.57 4.77,-7.57 C4.95,-7.57 5.12,-7.56 5.28,-7.53 C5.44,-7.51 5.55,-7.49 5.59,-7.48 C5.59,-7.48 5.59,-8.84 5.59,-8.84 C5.52,-8.85 5.4,-8.85 5.26,-8.86 C5.11,-8.86 4.98,-8.86 4.89,-8.86 C4.36,-8.86 3.89,-8.73 3.48,-8.46 C3.06,-8.19 2.77,-7.84 2.61,-7.41 C2.61,-7.41 2.52,-7.41 2.52,-7.41 C2.52,-7.41 2.52,-8.73 2.52,-8.73 C2.52,-8.73 1.23,-8.73 1.23,-8.73 C1.23,-8.73 1.23,0 1.23,0 C1.23,0 2.57,0 2.57,0z"/><g opacity="1" transform="matrix(0.1599999964237213,0,0,0.1599999964237213,0,0)"/></g></g></g><g stroke-linecap="butt" stroke-linejoin="round" stroke-miterlimit="4" transform="matrix(1,0,0,1,79.24800872802734,-0.36376953125)" opacity="1" style="display: inherit;"><g><g transform="matrix(1,0,0,1,0,0)" opacity="1" style="display: block;"><path d=" M6.48,-0.09 C6.96,-0.28 7.35,-0.53 7.68,-0.87 C8,-1.2 8.23,-1.58 8.36,-2.02 C8.36,-2.02 7.07,-2.39 7.07,-2.39 C6.95,-2.08 6.79,-1.83 6.59,-1.63 C6.38,-1.43 6.13,-1.27 5.84,-1.17 C5.56,-1.07 5.24,-1.02 4.89,-1.02 C4.34,-1.02 3.87,-1.14 3.46,-1.38 C3.05,-1.61 2.73,-1.96 2.5,-2.42 C2.27,-2.87 2.16,-3.43 2.16,-4.09 C2.16,-4.09 2.16,-4.86 2.16,-4.86 C2.16,-5.34 2.26,-5.8 2.47,-6.22 C2.68,-6.64 2.98,-6.98 3.37,-7.24 C3.75,-7.5 4.22,-7.64 4.75,-7.64 C5.23,-7.64 5.66,-7.52 6.01,-7.3 C6.37,-7.08 6.65,-6.77 6.84,-6.39 C7.04,-6 7.14,-5.56 7.14,-5.07 C7.14,-5.07 1.77,-5.07 1.77,-5.07 C1.77,-5.07 1.77,-3.91 1.77,-3.91 C1.77,-3.91 8.5,-3.91 8.5,-3.91 C8.5,-3.91 8.5,-4.48 8.5,-4.48 C8.5,-5.29 8.39,-5.98 8.18,-6.53 C7.96,-7.09 7.67,-7.54 7.31,-7.88 C6.94,-8.22 6.54,-8.46 6.1,-8.61 C5.65,-8.77 5.2,-8.84 4.75,-8.84 C3.96,-8.84 3.27,-8.65 2.68,-8.26 C2.1,-7.88 1.64,-7.35 1.31,-6.66 C0.98,-5.98 0.82,-5.19 0.82,-4.3 C0.82,-3.4 0.98,-2.62 1.31,-1.95 C1.64,-1.27 2.11,-0.75 2.71,-0.38 C3.32,0 4.05,0.18 4.89,0.18 C5.48,0.18 6.01,0.09 6.48,-0.09z"/><g opacity="1" transform="matrix(0.1599999964237213,0,0,0.1599999964237213,0,0)"/></g></g></g><g stroke-linecap="butt" stroke-linejoin="round" stroke-miterlimit="4" transform="matrix(1,0,0,1,88.56640625,-0.36376953125)" opacity="1" style="display: inherit;"><g><g transform="matrix(1,0,0,1,0,0)" opacity="1" style="display: block;"><path d=" M2.72,-0.05 C2.87,-0.14 3,-0.27 3.09,-0.42 C3.18,-0.58 3.23,-0.75 3.23,-0.93 C3.23,-1.21 3.13,-1.45 2.93,-1.65 C2.73,-1.85 2.48,-1.95 2.2,-1.95 C1.92,-1.95 1.68,-1.85 1.48,-1.65 C1.28,-1.45 1.18,-1.21 1.18,-0.93 C1.18,-0.65 1.28,-0.41 1.48,-0.21 C1.68,-0.01 1.92,0.09 2.2,0.09 C2.39,0.09 2.57,0.04 2.72,-0.05z"/><g opacity="1" transform="matrix(0.1599999964237213,0,0,0.1599999964237213,0,0)"/></g></g></g><g stroke-linecap="butt" stroke-linejoin="round" stroke-miterlimit="4" transform="matrix(1,0,0,1,92.97599792480469,-0.36376953125)" opacity="1" style="display: inherit;"><g><g transform="matrix(1,0,0,1,0,0)" opacity="1" style="display: block;"><path d=" M2.72,-0.05 C2.87,-0.14 3,-0.27 3.09,-0.42 C3.18,-0.58 3.23,-0.75 3.23,-0.93 C3.23,-1.21 3.13,-1.45 2.93,-1.65 C2.73,-1.85 2.48,-1.95 2.2,-1.95 C1.92,-1.95 1.68,-1.85 1.48,-1.65 C1.28,-1.45 1.18,-1.21 1.18,-0.93 C1.18,-0.65 1.28,-0.41 1.48,-0.21 C1.68,-0.01 1.92,0.09 2.2,0.09 C2.39,0.09 2.57,0.04 2.72,-0.05z"/><g opacity="1" transform="matrix(0.1599999964237213,0,0,0.1599999964237213,0,0)"/></g></g></g><g stroke-linecap="butt" stroke-linejoin="round" stroke-miterlimit="4" transform="matrix(1,0,0,1,97.38560485839844,-0.36376953125)" opacity="1" style="display: inherit;"><g><g transform="matrix(1,0,0,1,0,0)" opacity="1" style="display: block;"><path d=" M2.72,-0.05 C2.87,-0.14 3,-0.27 3.09,-0.42 C3.18,-0.58 3.23,-0.75 3.23,-0.93 C3.23,-1.21 3.13,-1.45 2.93,-1.65 C2.73,-1.85 2.48,-1.95 2.2,-1.95 C1.92,-1.95 1.68,-1.85 1.48,-1.65 C1.28,-1.45 1.18,-1.21 1.18,-0.93 C1.18,-0.65 1.28,-0.41 1.48,-0.21 C1.68,-0.01 1.92,0.09 2.2,0.09 C2.39,0.09 2.57,0.04 2.72,-0.05z"/><g opacity="1" transform="matrix(0.1599999964237213,0,0,0.1599999964237213,0,0)"/></g></g></g></g><g transform="matrix(1,0,0,1,570,180)" opacity="0.04" style="display: block;"><g opacity="1" transform="matrix(1,0,0,1,0,0)"><path fill="rgb(29,29,29)" fill-opacity="1" d=" M14,-8 C14,-8 14,8 14,8 C14,11.311400413513184 11.311400413513184,14 8,14 C8,14 -8,14 -8,14 C-11.311400413513184,14 -14,11.311400413513184 -14,8 C-14,8 -14,-8 -14,-8 C-14,-11.311400413513184 -11.311400413513184,-14 -8,-14 C-8,-14 8,-14 8,-14 C11.311400413513184,-14 14,-11.311400413513184 14,-8z"/></g></g><g transform="matrix(1,0,0,1,570.25,180)" opacity="0.04" style="display: block;"><g opacity="1" transform="matrix(1,0,0,1,0,0)"><path fill="rgb(192,192,195)" fill-opacity="1" d=" M-5.538000106811523,-4.914000034332275 C-5.538000106811523,-4.914000034332275 -2.9040000438690186,-0.4000000059604645 -2.9040000438690186,-0.4000000059604645 C-2.9040000438690186,-0.4000000059604645 1.25,-0.4000000059604645 1.25,-0.4000000059604645 C1.4709999561309814,-0.4000000059604645 1.649999976158142,-0.22100000083446503 1.649999976158142,0 C1.649999976158142,0.22100000083446503 1.4709999561309814,0.4000000059604645 1.25,0.4000000059604645 C1.25,0.4000000059604645 -2.9040000438690186,0.4000000059604645 -2.9040000438690186,0.4000000059604645 C-2.9040000438690186,0.4000000059604645 -5.538000106811523,4.914000034332275 -5.538000106811523,4.914000034332275 C-5.538000106811523,4.914000034332275 5.519000053405762,0 5.519000053405762,0 C5.519000053405762,0 -5.538000106811523,-4.914000034332275 -5.538000106811523,-4.914000034332275z M-7.122000217437744,-6.334000110626221 C-6.9770002365112305,-6.495999813079834 -6.744999885559082,-6.545000076293945 -6.546999931335449,-6.456999778747559 C-6.546999931335449,-6.456999778747559 6.953000068664551,-0.4569999873638153 6.953000068664551,-0.4569999873638153 C7.132999897003174,-0.37700000405311584 7.25,-0.1979999989271164 7.25,0 C7.25,0.1979999989271164 7.132999897003174,0.37700000405311584 6.953000068664551,0.4569999873638153 C6.953000068664551,0.4569999873638153 -6.546999931335449,6.456999778747559 -6.546999931335449,6.456999778747559 C-6.744999885559082,6.545000076293945 -6.9770002365112305,6.495999813079834 -7.122000217437744,6.334000110626221 C-7.267000198364258,6.171999931335449 -7.290999889373779,5.934999942779541 -7.182000160217285,5.748000144958496 C-7.182000160217285,5.748000144958496 -3.8289999961853027,0 -3.8289999961853027,0 C-3.8289999961853027,0 -7.182000160217285,-5.748000144958496 -7.182000160217285,-5.748000144958496 C-7.290999889373779,-5.934999942779541 -7.267000198364258,-6.171999931335449 -7.122000217437744,-6.334000110626221z"/></g></g><g clip-path="url(#__lottie_element_2991)" transform="matrix(1,0,0,1,-320,-180)" opacity="0.1" style="display: block;"><g transform="matrix(1,0,0,1,380.5,360)" opacity="0.8" style="display: block;"><g opacity="1" transform="matrix(1,0,0,1,0,0)"><path fill="rgb(44,115,192)" fill-opacity="1" d=" M0.5,-12 C0.5,-12 0.5,12 0.5,12 C0.5,12 -0.5,12 -0.5,12 C-0.5,12 -0.5,-12 -0.5,-12 C-0.5,-12 0.5,-12 0.5,-12z"/></g></g></g></g></svg>