<svg width="415" height="58" viewBox="0 0 415 58" fill="none" xmlns="http://www.w3.org/2000/svg">
<path d="M89.1399 21.46C91.1799 20.08 93.0699 19.08 94.7899 18.43C96.5099 17.79 98.1899 17.46 99.8399 17.46C100.62 17.46 101.35 17.54 102.04 17.72C102.72 17.89 103.42 18.17 104.12 18.55V26.91H98.5899L96.5699 23.76C95.1999 23.81 93.8899 23.93 92.6499 24.11C91.4199 24.28 90.2399 24.53 89.1399 24.85V50.97L95.9999 52.38V56.66H76.8999V52.38L82.6299 50.97V24.32L76.8999 23.19V19.19L89.1399 17.78V21.46Z" fill="#1D1D23"/>
<path d="M145.45 56.6699V51.8599L166.21 22.8199H153.41L151.76 26.8199H146.55V18.3799H174.41V23.1099L153.25 52.1799H168.19L169.69 47.0499H174.9V56.6599H145.45V56.6699Z" fill="#1D1D23"/>
<path d="M186.43 38.5499V34.1099H203.68V38.5499H186.43Z" fill="#1D1D23"/>
<path d="M226.34 51.6997H240.47L242.77 44.5897H247.9V56.6597H213.66V52.3797L219.39 50.9697V6.63971L213.66 5.22971V0.949707H232.03V5.22971L226.34 6.63971V51.6997Z" fill="#1D1D23"/>
<path d="M265.61 50.9699L271.18 52.3799V56.6599H253.37V52.3799L259.18 50.9699V7.43994L253.69 6.38994V2.30994L265.6 0.939941V50.9699H265.61Z" fill="#1D1D23"/>
<path d="M309.81 36.6398C309.81 43.0698 308.21 48.1698 305.02 51.9398C301.83 55.7098 297.51 57.5898 292.08 57.5898C287.04 57.5898 283.05 55.8698 280.09 52.4398C277.13 49.0098 275.65 44.3398 275.65 38.4498C275.65 32.0698 277.26 26.9898 280.47 23.2098C283.69 19.4298 288 17.5298 293.42 17.5298C298.48 17.5298 302.48 19.2398 305.41 22.6598C308.33 26.0798 309.81 30.7398 309.81 36.6398ZM292.52 52.4698C295.78 52.4698 298.24 51.2198 299.91 48.7198C301.58 46.2198 302.41 42.4998 302.41 37.5798C302.41 32.5198 301.63 28.7798 300.05 26.3798C298.48 23.9698 296.02 22.7598 292.68 22.7598C289.5 22.7598 287.08 24.0498 285.42 26.6198C283.75 29.1898 282.92 32.9198 282.92 37.8198C282.92 42.6898 283.72 46.3498 285.32 48.8098C286.91 51.2398 289.32 52.4698 292.52 52.4698Z" fill="#1D1D23"/>
<path d="M327.35 21.46C329.4 20.08 331.28 19.08 333.01 18.43C334.74 17.79 336.42 17.46 338.06 17.46C338.84 17.46 339.58 17.54 340.26 17.72C340.95 17.89 341.64 18.17 342.34 18.55V26.91H336.81L334.79 23.76C333.42 23.81 332.11 23.93 330.87 24.11C329.63 24.28 328.46 24.53 327.35 24.85V50.97L334.22 52.38V56.66H315.12V52.38L320.85 50.97V24.32L315.12 23.19V19.19L327.35 17.78V21.46Z" fill="#1D1D23"/>
<path d="M376.4 54.61C374.46 55.58 372.45 56.3 370.36 56.77C368.27 57.24 366.07 57.48 363.76 57.48C358.81 57.48 354.91 55.83 352.07 52.55C349.23 49.27 347.81 44.74 347.81 38.98C347.81 32.57 349.47 27.4 352.8 23.46C356.12 19.51 360.44 17.54 365.74 17.54C367.63 17.54 369.42 17.75 371.13 18.16C372.84 18.58 374.6 19.23 376.4 20.12V26.82H370.3L368.57 22.18H368C363.72 22.18 360.41 23.48 358.08 26.08C355.76 28.68 354.59 32.35 354.59 37.09C354.59 41.88 355.77 45.46 358.12 47.83C360.47 50.2 364.04 51.38 368.8 51.38C370.09 51.38 371.36 51.31 372.62 51.18C373.87 51.05 375.13 50.83 376.4 50.54V54.61Z" fill="#1D1D23"/>
<path d="M12.7499 5.82971H16.4699C20.6099 5.82971 23.5799 6.59971 25.3699 8.13971C27.1599 9.66971 28.0599 12.1497 28.0599 15.5697C28.0599 19.0997 27.0699 21.7397 25.0699 23.4797C23.0799 25.2297 19.8799 26.2097 15.9299 26.2097C15.9299 26.2097 15.8999 27.7297 15.8999 28.8497C21.0599 30.9697 27.3499 29.7297 30.7099 27.1197C34.0599 24.5097 35.7299 20.5797 35.7299 15.3297C35.7299 11.8297 34.8799 8.87971 33.1699 6.48971C31.4599 4.08971 29.0799 2.48971 26.0399 1.67971C24.9899 1.40971 23.6999 1.21971 22.1799 1.10971C20.6599 0.999707 18.4499 0.949707 15.5399 0.949707H0.0699463V5.22971L5.80995 6.63971V51.0597L0.0699463 52.4697V56.7497H18.4499V52.4697L12.7599 51.0597V5.82971H12.7499Z" fill="#1D1D23"/>
<path d="M49.08 12.2097L57.36 0.949707L63.05 4.17971L52.79 14.1097L49.08 12.2097Z" fill="#1D1D23"/>
<path d="M49.1399 25.1098C50.4099 23.2198 52.6299 22.4198 55.3799 22.4198C57.8499 22.4198 59.7599 23.2098 61.0699 24.7798C62.3899 26.3598 63.0499 28.6198 63.0499 31.5798V31.8598L48.4899 33.3598V37.3098H68.4799C68.9999 36.6598 70.0199 35.0898 70.4499 34.3998C70.4499 28.9898 69.2499 24.8198 66.8299 21.9098C64.4199 18.9798 60.9899 17.5298 56.5499 17.5298C51.1899 17.5298 47.0399 19.3898 44.0899 23.1198C41.1399 26.8398 39.6699 32.0998 39.6699 38.8898C39.6699 45.0298 41.1099 49.6798 43.9899 52.8498C46.8699 56.0098 51.1099 57.5898 56.7099 57.5898C58.8399 57.5898 60.8999 57.3398 62.9099 56.8398C64.9099 56.3398 66.8699 55.5898 68.7799 54.5998V50.7198C67.2199 50.9898 65.6999 51.1898 64.2199 51.3198C62.7399 51.4498 61.2499 51.5198 59.7399 51.5198C55.4799 51.5198 52.2199 50.4298 49.9399 48.2498C47.6699 46.0698 46.5099 41.4198 46.3499 38.2798C46.2099 35.1798 47.0899 28.1498 49.1399 25.1098Z" fill="#1D1D23"/>
<path d="M117.59 25.1098C118.87 23.2198 121.08 22.4198 123.83 22.4198C126.31 22.4198 128.2 23.2098 129.52 24.7798C130.84 26.3598 131.5 28.6198 131.5 31.5798V31.8598L116.94 33.3598V37.3098H136.93C137.45 36.6598 138.47 35.0898 138.9 34.3998C138.9 28.9898 137.69 24.8198 135.28 21.9098C132.87 18.9798 129.45 17.5298 125 17.5298C119.65 17.5298 115.49 19.3898 112.55 23.1198C109.6 26.8398 108.12 32.0998 108.12 38.8898C108.12 45.0298 109.56 49.6798 112.44 52.8498C115.32 56.0098 119.56 57.5898 125.16 57.5898C127.28 57.5898 129.35 57.3398 131.36 56.8398C133.36 56.3398 135.32 55.5898 137.23 54.5998V50.7198C135.67 50.9898 134.15 51.1898 132.67 51.3198C131.19 51.4498 129.7 51.5198 128.19 51.5198C123.94 51.5198 120.68 50.4298 118.4 48.2498C116.13 46.0698 114.97 41.4198 114.81 38.2798C114.65 35.1798 115.54 28.1498 117.59 25.1098Z" fill="#1D1D23"/>
<path d="M402.02 38.2497V30.7397C402.02 27.5597 401.49 25.3597 400.45 24.1397C399.4 22.9097 397.53 22.2997 394.84 22.2997C394.76 22.2997 394.4 22.3197 393.77 22.3597C393.14 22.3997 392.55 22.4297 392.01 22.4597L390.36 26.8597H383.78V21.5697C386.02 20.1397 388.23 19.1097 390.42 18.4597C392.61 17.8097 395 17.4897 397.58 17.4897C400.01 17.4897 402.04 17.8497 403.68 18.5797C405.32 19.3097 406.56 20.4097 407.39 21.8897C407.83 22.5897 408.13 23.5397 408.3 24.7397C408.48 25.9397 408.57 27.9697 408.57 30.8197V32.5597V50.7697L414.26 51.8997V55.9797L402.02 57.4297V54.1597C400.81 55.2897 399.41 56.1497 397.8 56.7397C396.2 57.3297 394.44 57.6297 392.53 57.6297C388.92 57.6297 386.08 56.5797 383.99 54.4797C381.91 52.3797 380.86 49.5397 380.86 45.9597C380.86 41.6497 382.25 38.5897 385.02 36.7697C387.79 34.9597 393.94 34.0497 400.2 34.0497C400.2 35.0697 400.2 37.3597 400.16 37.9997C396.15 38.3497 392.08 39.4097 390.58 40.2397C388.73 41.2597 387.79 42.9997 387.79 45.4497C387.79 47.4697 388.45 49.0197 389.76 50.1097C391.06 51.1997 392.91 51.7497 395.31 51.7497C396.06 51.7497 396.93 51.6897 397.91 51.5697C398.89 51.4497 400.26 51.2397 402.01 50.9497V38.2497" fill="#1D1D23"/>
</svg>
