<svg width="100%" height="100%" viewBox="0 0 40 40" fill="none" xmlns="http://www.w3.org/2000/svg">
<rect x="0.5" y="0.5" width="39" height="39" rx="7.5" fill="#2D2D30"/>
<path fill-rule="evenodd" clip-rule="evenodd" d="M16.0026 11.334C15.6344 11.334 15.3359 11.6325 15.3359 12.0007C15.3359 12.3688 15.6344 12.6673 16.0026 12.6673C17.2321 12.6673 18.0558 12.9747 18.5636 13.419C19.0598 13.8532 19.3359 14.489 19.3359 15.334V19.334H17.6693C17.3011 19.334 17.0026 19.6325 17.0026 20.0007C17.0026 20.3688 17.3011 20.6673 17.6693 20.6673H19.3359V24.6673C19.3359 25.5123 19.0598 26.1481 18.5636 26.5823C18.0558 27.0266 17.2321 27.334 16.0026 27.334C15.6344 27.334 15.3359 27.6325 15.3359 28.0007C15.3359 28.3688 15.6344 28.6673 16.0026 28.6673C17.4397 28.6673 18.6161 28.308 19.4416 27.5857C19.6582 27.3962 19.8449 27.1867 20.0026 26.9603C20.1604 27.1867 20.347 27.3962 20.5636 27.5857C21.3891 28.308 22.5655 28.6673 24.0026 28.6673C24.3708 28.6673 24.6693 28.3688 24.6693 28.0007C24.6693 27.6325 24.3708 27.334 24.0026 27.334C22.7731 27.334 21.9494 27.0266 21.4416 26.5823C20.9455 26.1481 20.6693 25.5123 20.6693 24.6673V20.6673H22.3359C22.7041 20.6673 23.0026 20.3688 23.0026 20.0007C23.0026 19.6325 22.7041 19.334 22.3359 19.334H20.6693V15.334C20.6693 14.489 20.9455 13.8532 21.4416 13.419C21.9494 12.9747 22.7731 12.6673 24.0026 12.6673C24.3708 12.6673 24.6693 12.3688 24.6693 12.0007C24.6693 11.6325 24.3708 11.334 24.0026 11.334C22.5655 11.334 21.3891 11.6933 20.5636 12.4156C20.347 12.6051 20.1604 12.8146 20.0026 13.041C19.8448 12.8146 19.6582 12.6051 19.4416 12.4156C18.6161 11.6933 17.4397 11.334 16.0026 11.334Z" fill="#C0C0C3"/>
<rect x="0.5" y="0.5" width="39" height="39" rx="7.5" stroke="#45454B"/>
</svg>