<svg width=" 100%" height=" 100%" viewBox="0 0 16 15" fill="none" xmlns="http://www.w3.org/2000/svg">
<g clip-path="url(#clip0_650_3930)">
<path fill-rule="evenodd" clip-rule="evenodd" d="M1.70308 1.04605C1.50481 0.957927 1.27234 1.00773 1.12758 1.16934C0.982813 1.33095 0.958794 1.56748 1.06812 1.75489L4.42115 7.50295L1.06812 13.251C0.958794 13.4384 0.982813 13.6749 1.12758 13.8365C1.27234 13.9981 1.50481 14.0479 1.70308 13.9598L15.2031 7.95986C15.3836 7.87961 15.5 7.70055 15.5 7.50295C15.5 7.30536 15.3836 7.1263 15.2031 7.04605L1.70308 1.04605ZM5.34553 7.10295L2.71234 2.58893L13.7689 7.50295L2.71234 12.4169L5.34552 7.90295H9.5C9.72092 7.90295 9.9 7.72387 9.9 7.50295C9.9 7.28204 9.72092 7.10295 9.5 7.10295H5.34553Z" fill="currentColor"/>
</g>
<defs>
<clipPath id="clip0_650_3930">
<rect width="15" height="15" fill="currentColor" transform="translate(0.5 0.00292969)"/>
</clipPath>
</defs>
</svg>