<svg width="100%" height="100%" viewBox="0 0 16 16" fill="none" xmlns="http://www.w3.org/2000/svg">
<path d="M7.2 3.05C7.2 2.91211 7.17284 2.77557 7.12007 2.64818C7.06731 2.52079 6.98996 2.40504 6.89246 2.30754C6.79496 2.21004 6.67921 2.13269 6.55182 2.07993C6.42443 2.02716 6.28789 2 6.15 2C6.01211 2 5.87557 2.02716 5.74818 2.07993C5.62079 2.13269 5.50504 2.21004 5.40754 2.30754C5.31004 2.40504 5.23269 2.52079 5.17993 2.64818C5.12716 2.77557 5.1 2.91211 5.1 3.05V5.05M7.2 3.05V2.05C7.2 1.77152 7.31062 1.50445 7.50754 1.30754C7.70445 1.11062 7.97152 1 8.25 1C8.52848 1 8.79555 1.11062 8.99246 1.30754C9.18938 1.50445 9.3 1.77152 9.3 2.05V3.05M7.2 3.05L7.25 7M5.1 5.05C5.1 4.77152 4.98938 4.50445 4.79246 4.30754C4.59555 4.11062 4.32848 4 4.05 4C3.77152 4 3.50445 4.11062 3.30754 4.30754C3.11062 4.50445 3 4.77152 3 5.05V10.5C3 11.6935 3.47411 12.8381 4.31802 13.682C5.16193 14.5259 6.30653 15 7.5 15H8.84533C9.77355 14.9999 10.6637 14.6311 11.32 13.9747L12.4747 12.82C13.1311 12.1637 13.4999 11.2735 13.5 10.3453L13.502 8.996C13.5027 8.87798 13.5501 8.76504 13.634 8.682C13.7315 8.58447 13.8089 8.46869 13.8617 8.34126C13.9145 8.21383 13.9416 8.07726 13.9416 7.93933C13.9416 7.80141 13.9145 7.66483 13.8617 7.53741C13.8089 7.40998 13.7315 7.2942 13.634 7.19667C13.5365 7.09914 13.4207 7.02178 13.2933 6.96899C13.1658 6.91621 13.0293 6.88904 12.8913 6.88904C12.7534 6.88904 12.6168 6.91621 12.4894 6.96899C12.362 7.02178 12.2462 7.09914 12.1487 7.19667C11.673 7.67174 11.4046 8.31571 11.402 8.988M5.1 5.05V8M9.3 3.05V7.5M9.3 3.05C9.3 2.77152 9.41062 2.50445 9.60754 2.30754C9.80445 2.11062 10.0715 2 10.35 2C10.6285 2 10.8955 2.11062 11.0925 2.30754C11.2894 2.50445 11.4 2.77152 11.4 3.05V8.996" stroke="black" stroke-opacity="1" stroke-linecap="round" stroke-linejoin="round"/>
</svg>