<svg width="674" height="44" viewBox="0 0 674 44" fill="none" xmlns="http://www.w3.org/2000/svg">
<rect x="0.5" y="0.5" width="673" height="43" rx="7.5" fill="#222222"/>
<path d="M19.7727 19.2727C19.7045 18.697 19.428 18.25 18.9432 17.9318C18.4583 17.6136 17.8636 17.4545 17.1591 17.4545C16.6439 17.4545 16.1932 17.5379 15.8068 17.7045C15.4242 17.8712 15.125 18.1004 14.9091 18.392C14.697 18.6837 14.5909 19.0152 14.5909 19.3864C14.5909 19.697 14.6648 19.964 14.8125 20.1875C14.964 20.4072 15.1572 20.5909 15.392 20.7386C15.6269 20.8826 15.8731 21.0019 16.1307 21.0966C16.3883 21.1875 16.625 21.2614 16.8409 21.3182L18.0227 21.6364C18.3258 21.7159 18.6629 21.8258 19.0341 21.9659C19.4091 22.1061 19.767 22.2973 20.108 22.5398C20.4527 22.7784 20.7367 23.0852 20.9602 23.4602C21.1837 23.8352 21.2955 24.2955 21.2955 24.8409C21.2955 25.4697 21.1307 26.0379 20.8011 26.5455C20.4754 27.053 19.9981 27.4564 19.3693 27.7557C18.7443 28.0549 17.9848 28.2045 17.0909 28.2045C16.2576 28.2045 15.536 28.0701 14.9261 27.8011C14.3201 27.5322 13.8428 27.1572 13.4943 26.6761C13.1496 26.1951 12.9545 25.6364 12.9091 25H14.3636C14.4015 25.4394 14.5492 25.803 14.8068 26.0909C15.0682 26.375 15.3977 26.5871 15.7955 26.7273C16.197 26.8636 16.6288 26.9318 17.0909 26.9318C17.6288 26.9318 18.1117 26.8447 18.5398 26.6705C18.9678 26.4924 19.3068 26.2462 19.5568 25.9318C19.8068 25.6136 19.9318 25.2424 19.9318 24.8182C19.9318 24.4318 19.8239 24.1174 19.608 23.875C19.392 23.6326 19.108 23.4356 18.7557 23.2841C18.4034 23.1326 18.0227 23 17.6136 22.8864L16.1818 22.4773C15.2727 22.2159 14.553 21.8428 14.0227 21.358C13.4924 20.8731 13.2273 20.2386 13.2273 19.4545C13.2273 18.803 13.4034 18.2348 13.7557 17.75C14.1117 17.2614 14.589 16.8826 15.1875 16.6136C15.7898 16.3409 16.4621 16.2045 17.2045 16.2045C17.9545 16.2045 18.6212 16.339 19.2045 16.608C19.7879 16.8731 20.25 17.2367 20.5909 17.6989C20.9356 18.161 21.1174 18.6856 21.1364 19.2727H19.7727ZM28.9304 24.4318V19.2727H30.2713V28H28.9304V26.5227H28.8395C28.6349 26.9659 28.3168 27.3428 27.8849 27.6534C27.4531 27.9602 26.9077 28.1136 26.2486 28.1136C25.7031 28.1136 25.2183 27.9943 24.794 27.7557C24.3698 27.5133 24.0365 27.1496 23.794 26.6648C23.5516 26.1761 23.4304 25.5606 23.4304 24.8182V19.2727H24.7713V24.7273C24.7713 25.3636 24.9493 25.8712 25.3054 26.25C25.6652 26.6288 26.1236 26.8182 26.6804 26.8182C27.0137 26.8182 27.3527 26.733 27.6974 26.5625C28.0459 26.392 28.3376 26.1307 28.5724 25.7784C28.8111 25.4261 28.9304 24.9773 28.9304 24.4318ZM32.7273 28V19.2727H34.0227V20.6364H34.1364C34.3182 20.1705 34.6117 19.8087 35.017 19.5511C35.4223 19.2898 35.9091 19.1591 36.4773 19.1591C37.053 19.1591 37.5322 19.2898 37.9148 19.5511C38.3011 19.8087 38.6023 20.1705 38.8182 20.6364H38.9091C39.1326 20.1856 39.4678 19.8277 39.9148 19.5625C40.3617 19.2936 40.8977 19.1591 41.5227 19.1591C42.303 19.1591 42.9413 19.4034 43.4375 19.892C43.9337 20.3769 44.1818 21.1326 44.1818 22.1591V28H42.8409V22.1591C42.8409 21.5152 42.6648 21.0549 42.3125 20.7784C41.9602 20.5019 41.5455 20.3636 41.0682 20.3636C40.4545 20.3636 39.9792 20.5492 39.642 20.9205C39.3049 21.2879 39.1364 21.7538 39.1364 22.3182V28H37.7727V22.0227C37.7727 21.5265 37.6117 21.1269 37.2898 20.8239C36.9678 20.517 36.553 20.3636 36.0455 20.3636C35.697 20.3636 35.3712 20.4564 35.0682 20.642C34.7689 20.8277 34.5265 21.0852 34.3409 21.4148C34.1591 21.7405 34.0682 22.1174 34.0682 22.5455V28H32.7273ZM46.6335 28V19.2727H47.929V20.6364H48.0426C48.2244 20.1705 48.518 19.8087 48.9233 19.5511C49.3286 19.2898 49.8153 19.1591 50.3835 19.1591C50.9593 19.1591 51.4384 19.2898 51.821 19.5511C52.2074 19.8087 52.5085 20.1705 52.7244 20.6364H52.8153C53.0388 20.1856 53.3741 19.8277 53.821 19.5625C54.268 19.2936 54.804 19.1591 55.429 19.1591C56.2093 19.1591 56.8475 19.4034 57.3438 19.892C57.84 20.3769 58.0881 21.1326 58.0881 22.1591V28H56.7472V22.1591C56.7472 21.5152 56.571 21.0549 56.2188 20.7784C55.8665 20.5019 55.4517 20.3636 54.9744 20.3636C54.3608 20.3636 53.8854 20.5492 53.5483 20.9205C53.2112 21.2879 53.0426 21.7538 53.0426 22.3182V28H51.679V22.0227C51.679 21.5265 51.518 21.1269 51.196 20.8239C50.8741 20.517 50.4593 20.3636 49.9517 20.3636C49.6032 20.3636 49.2775 20.4564 48.9744 20.642C48.6752 20.8277 48.4328 21.0852 48.2472 21.4148C48.0653 21.7405 47.9744 22.1174 47.9744 22.5455V28H46.6335ZM63.108 28.2045C62.5549 28.2045 62.053 28.1004 61.6023 27.892C61.1515 27.6799 60.7936 27.375 60.5284 26.9773C60.2633 26.5758 60.1307 26.0909 60.1307 25.5227C60.1307 25.0227 60.2292 24.6174 60.4261 24.3068C60.6231 23.9924 60.8864 23.7462 61.2159 23.5682C61.5455 23.3902 61.9091 23.2576 62.3068 23.1705C62.7083 23.0795 63.1117 23.0076 63.517 22.9545C64.0473 22.8864 64.4773 22.8352 64.8068 22.8011C65.1402 22.7633 65.3826 22.7008 65.5341 22.6136C65.6894 22.5265 65.767 22.375 65.767 22.1591V22.1136C65.767 21.553 65.6136 21.1174 65.3068 20.8068C65.0038 20.4962 64.5436 20.3409 63.9261 20.3409C63.286 20.3409 62.7841 20.4811 62.4205 20.7614C62.0568 21.0417 61.8011 21.3409 61.6534 21.6591L60.3807 21.2045C60.608 20.6742 60.911 20.2614 61.2898 19.9659C61.6723 19.6667 62.089 19.4583 62.5398 19.3409C62.9943 19.2197 63.4413 19.1591 63.8807 19.1591C64.161 19.1591 64.483 19.1932 64.8466 19.2614C65.214 19.3258 65.5682 19.4602 65.9091 19.6648C66.2538 19.8693 66.5398 20.178 66.767 20.5909C66.9943 21.0038 67.108 21.5568 67.108 22.25V28H65.767V26.8182H65.6989C65.608 27.0076 65.4564 27.2102 65.2443 27.4261C65.0322 27.642 64.75 27.8258 64.3977 27.9773C64.0455 28.1288 63.6155 28.2045 63.108 28.2045ZM63.3125 27C63.8428 27 64.2898 26.8958 64.6534 26.6875C65.0208 26.4792 65.2973 26.2102 65.483 25.8807C65.6723 25.5511 65.767 25.2045 65.767 24.8409V23.6136C65.7102 23.6818 65.5852 23.7443 65.392 23.8011C65.2027 23.8542 64.983 23.9015 64.733 23.9432C64.4867 23.9811 64.2462 24.0152 64.0114 24.0455C63.7803 24.072 63.5928 24.0947 63.4489 24.1136C63.1004 24.1591 62.7746 24.233 62.4716 24.3352C62.1723 24.4337 61.9299 24.5833 61.7443 24.7841C61.5625 24.9811 61.4716 25.25 61.4716 25.5909C61.4716 26.0568 61.6439 26.4091 61.9886 26.6477C62.3371 26.8826 62.7784 27 63.3125 27ZM69.5554 28V19.2727H70.8509V20.5909H70.9418C71.1009 20.1591 71.3887 19.8087 71.8054 19.5398C72.2221 19.2708 72.6918 19.1364 73.2145 19.1364C73.313 19.1364 73.4361 19.1383 73.5838 19.142C73.7315 19.1458 73.8433 19.1515 73.919 19.1591V20.5227C73.8736 20.5114 73.7694 20.4943 73.6065 20.4716C73.4474 20.4451 73.2789 20.4318 73.1009 20.4318C72.6766 20.4318 72.2978 20.5208 71.9645 20.6989C71.6349 20.8731 71.3736 21.1155 71.1804 21.4261C70.991 21.733 70.8963 22.0833 70.8963 22.4773V28H69.5554ZM75.5085 28V19.2727H76.8494V28H75.5085ZM76.1903 17.8182C75.929 17.8182 75.7036 17.7292 75.5142 17.5511C75.3286 17.3731 75.2358 17.1591 75.2358 16.9091C75.2358 16.6591 75.3286 16.4451 75.5142 16.267C75.7036 16.089 75.929 16 76.1903 16C76.4517 16 76.6752 16.089 76.8608 16.267C77.0502 16.4451 77.1449 16.6591 77.1449 16.9091C77.1449 17.1591 77.0502 17.3731 76.8608 17.5511C76.6752 17.7292 76.4517 17.8182 76.1903 17.8182ZM79.0554 28V26.9773L84.0099 20.6136V20.5227H79.2145V19.2727H85.7372V20.3409L80.919 26.6591V26.75H85.8963V28H79.0554ZM91.3707 28.1818C90.5298 28.1818 89.8045 27.9962 89.1946 27.625C88.5885 27.25 88.1207 26.7273 87.7912 26.0568C87.4654 25.3826 87.3026 24.5985 87.3026 23.7045C87.3026 22.8106 87.4654 22.0227 87.7912 21.3409C88.1207 20.6553 88.5791 20.1212 89.1662 19.7386C89.7571 19.3523 90.4465 19.1591 91.2344 19.1591C91.6889 19.1591 92.1378 19.2348 92.581 19.3864C93.0241 19.5379 93.4276 19.7841 93.7912 20.125C94.1548 20.4621 94.4446 20.9091 94.6605 21.4659C94.8764 22.0227 94.9844 22.7083 94.9844 23.5227V24.0909H88.2571V22.9318H93.6207C93.6207 22.4394 93.5223 22 93.3253 21.6136C93.1321 21.2273 92.8556 20.9223 92.4957 20.6989C92.1397 20.4754 91.7192 20.3636 91.2344 20.3636C90.7003 20.3636 90.2382 20.4962 89.848 20.7614C89.4616 21.0227 89.1643 21.3636 88.956 21.7841C88.7476 22.2045 88.6435 22.6553 88.6435 23.1364V23.9091C88.6435 24.5682 88.7571 25.1269 88.9844 25.5852C89.2154 26.0398 89.5355 26.3864 89.9446 26.625C90.3537 26.8598 90.8291 26.9773 91.3707 26.9773C91.723 26.9773 92.0412 26.928 92.3253 26.8295C92.6132 26.7273 92.8613 26.5758 93.0696 26.375C93.2779 26.1705 93.4389 25.9167 93.5526 25.6136L94.848 25.9773C94.7116 26.4167 94.4825 26.803 94.1605 27.1364C93.8385 27.4659 93.4408 27.7235 92.9673 27.9091C92.4938 28.0909 91.9616 28.1818 91.3707 28.1818ZM105.32 19.2727V20.4091H100.797V19.2727H105.32ZM102.115 17.1818H103.456V25.5C103.456 25.8788 103.511 26.1629 103.621 26.3523C103.734 26.5379 103.878 26.6629 104.053 26.7273C104.231 26.7879 104.418 26.8182 104.615 26.8182C104.763 26.8182 104.884 26.8106 104.979 26.7955C105.073 26.7765 105.149 26.7614 105.206 26.75L105.479 27.9545C105.388 27.9886 105.261 28.0227 105.098 28.0568C104.935 28.0947 104.729 28.1136 104.479 28.1136C104.1 28.1136 103.729 28.0322 103.365 27.8693C103.005 27.7064 102.706 27.4583 102.467 27.125C102.232 26.7917 102.115 26.3712 102.115 25.8636V17.1818ZM108.865 22.75V28H107.524V16.3636H108.865V20.6364H108.979C109.183 20.1856 109.49 19.8277 109.899 19.5625C110.312 19.2936 110.861 19.1591 111.547 19.1591C112.142 19.1591 112.662 19.2784 113.109 19.517C113.556 19.7519 113.903 20.1136 114.149 20.6023C114.399 21.0871 114.524 21.7045 114.524 22.4545V28H113.183V22.5455C113.183 21.8523 113.003 21.3163 112.643 20.9375C112.287 20.5549 111.793 20.3636 111.161 20.3636C110.721 20.3636 110.327 20.4564 109.979 20.642C109.634 20.8277 109.361 21.0985 109.161 21.4545C108.964 21.8106 108.865 22.2424 108.865 22.75ZM120.636 28.1818C119.795 28.1818 119.07 27.9962 118.46 27.625C117.854 27.25 117.386 26.7273 117.057 26.0568C116.731 25.3826 116.568 24.5985 116.568 23.7045C116.568 22.8106 116.731 22.0227 117.057 21.3409C117.386 20.6553 117.845 20.1212 118.432 19.7386C119.023 19.3523 119.712 19.1591 120.5 19.1591C120.955 19.1591 121.403 19.2348 121.847 19.3864C122.29 19.5379 122.693 19.7841 123.057 20.125C123.42 20.4621 123.71 20.9091 123.926 21.4659C124.142 22.0227 124.25 22.7083 124.25 23.5227V24.0909H117.523V22.9318H122.886C122.886 22.4394 122.788 22 122.591 21.6136C122.398 21.2273 122.121 20.9223 121.761 20.6989C121.405 20.4754 120.985 20.3636 120.5 20.3636C119.966 20.3636 119.504 20.4962 119.114 20.7614C118.727 21.0227 118.43 21.3636 118.222 21.7841C118.013 22.2045 117.909 22.6553 117.909 23.1364V23.9091C117.909 24.5682 118.023 25.1269 118.25 25.5852C118.481 26.0398 118.801 26.3864 119.21 26.625C119.619 26.8598 120.095 26.9773 120.636 26.9773C120.989 26.9773 121.307 26.928 121.591 26.8295C121.879 26.7273 122.127 26.5758 122.335 26.375C122.544 26.1705 122.705 25.9167 122.818 25.6136L124.114 25.9773C123.977 26.4167 123.748 26.803 123.426 27.1364C123.104 27.4659 122.706 27.7235 122.233 27.9091C121.759 28.0909 121.227 28.1818 120.636 28.1818ZM132.04 24.8182L132.017 23.1591H132.29L136.108 19.2727H137.767L133.699 23.3864H133.585L132.04 24.8182ZM130.79 28V16.3636H132.131V28H130.79ZM136.335 28L132.926 23.6818L133.881 22.75L138.04 28H136.335ZM142.793 28.1818C141.952 28.1818 141.226 27.9962 140.616 27.625C140.01 27.25 139.543 26.7273 139.213 26.0568C138.887 25.3826 138.724 24.5985 138.724 23.7045C138.724 22.8106 138.887 22.0227 139.213 21.3409C139.543 20.6553 140.001 20.1212 140.588 19.7386C141.179 19.3523 141.868 19.1591 142.656 19.1591C143.111 19.1591 143.56 19.2348 144.003 19.3864C144.446 19.5379 144.849 19.7841 145.213 20.125C145.577 20.4621 145.866 20.9091 146.082 21.4659C146.298 22.0227 146.406 22.7083 146.406 23.5227V24.0909H139.679V22.9318H145.043C145.043 22.4394 144.944 22 144.747 21.6136C144.554 21.2273 144.277 20.9223 143.918 20.6989C143.562 20.4754 143.141 20.3636 142.656 20.3636C142.122 20.3636 141.66 20.4962 141.27 20.7614C140.884 21.0227 140.586 21.3636 140.378 21.7841C140.17 22.2045 140.065 22.6553 140.065 23.1364V23.9091C140.065 24.5682 140.179 25.1269 140.406 25.5852C140.637 26.0398 140.957 26.3864 141.366 26.625C141.776 26.8598 142.251 26.9773 142.793 26.9773C143.145 26.9773 143.463 26.928 143.747 26.8295C144.035 26.7273 144.283 26.5758 144.491 26.375C144.7 26.1705 144.861 25.9167 144.974 25.6136L146.27 25.9773C146.134 26.4167 145.904 26.803 145.582 27.1364C145.26 27.4659 144.863 27.7235 144.389 27.9091C143.916 28.0909 143.384 28.1818 142.793 28.1818ZM149.044 31.2727C148.817 31.2727 148.614 31.2538 148.436 31.2159C148.258 31.1818 148.135 31.1477 148.067 31.1136L148.408 29.9318C148.733 30.0152 149.021 30.0455 149.271 30.0227C149.521 30 149.743 29.8883 149.936 29.6875C150.133 29.4905 150.313 29.1705 150.476 28.7273L150.726 28.0455L147.499 19.2727H148.953L151.362 26.2273H151.453L153.862 19.2727H155.317L151.612 29.2727C151.446 29.7235 151.239 30.0966 150.993 30.392C150.747 30.6913 150.461 30.9129 150.135 31.0568C149.813 31.2008 149.449 31.2727 149.044 31.2727ZM162.928 16.3636V28H161.587V16.3636H162.928ZM169.043 28.1818C168.202 28.1818 167.476 27.9962 166.866 27.625C166.26 27.25 165.793 26.7273 165.463 26.0568C165.137 25.3826 164.974 24.5985 164.974 23.7045C164.974 22.8106 165.137 22.0227 165.463 21.3409C165.793 20.6553 166.251 20.1212 166.838 19.7386C167.429 19.3523 168.118 19.1591 168.906 19.1591C169.361 19.1591 169.81 19.2348 170.253 19.3864C170.696 19.5379 171.099 19.7841 171.463 20.125C171.827 20.4621 172.116 20.9091 172.332 21.4659C172.548 22.0227 172.656 22.7083 172.656 23.5227V24.0909H165.929V22.9318H171.293C171.293 22.4394 171.194 22 170.997 21.6136C170.804 21.2273 170.527 20.9223 170.168 20.6989C169.812 20.4754 169.391 20.3636 168.906 20.3636C168.372 20.3636 167.91 20.4962 167.52 20.7614C167.134 21.0227 166.836 21.3636 166.628 21.7841C166.42 22.2045 166.315 22.6553 166.315 23.1364V23.9091C166.315 24.5682 166.429 25.1269 166.656 25.5852C166.887 26.0398 167.207 26.3864 167.616 26.625C168.026 26.8598 168.501 26.9773 169.043 26.9773C169.395 26.9773 169.713 26.928 169.997 26.8295C170.285 26.7273 170.533 26.5758 170.741 26.375C170.95 26.1705 171.111 25.9167 171.224 25.6136L172.52 25.9773C172.384 26.4167 172.154 26.803 171.832 27.1364C171.51 27.4659 171.113 27.7235 170.639 27.9091C170.166 28.0909 169.634 28.1818 169.043 28.1818ZM178.219 31.4545C177.571 31.4545 177.014 31.3712 176.548 31.2045C176.082 31.0417 175.694 30.8258 175.384 30.5568C175.077 30.2917 174.832 30.0076 174.651 29.7045L175.719 28.9545C175.84 29.1136 175.993 29.2955 176.179 29.5C176.365 29.7083 176.618 29.8883 176.94 30.0398C177.266 30.1951 177.692 30.2727 178.219 30.2727C178.923 30.2727 179.505 30.1023 179.963 29.7614C180.421 29.4205 180.651 28.8864 180.651 28.1591V26.3864H180.537C180.438 26.5455 180.298 26.7424 180.116 26.9773C179.938 27.2083 179.681 27.4148 179.344 27.5966C179.01 27.7746 178.56 27.8636 177.991 27.8636C177.287 27.8636 176.654 27.697 176.094 27.3636C175.537 27.0303 175.096 26.5455 174.77 25.9091C174.448 25.2727 174.287 24.5 174.287 23.5909C174.287 22.697 174.444 21.9186 174.759 21.2557C175.073 20.589 175.51 20.0739 176.071 19.7102C176.632 19.3428 177.279 19.1591 178.014 19.1591C178.582 19.1591 179.033 19.2538 179.366 19.4432C179.704 19.6288 179.961 19.8409 180.139 20.0795C180.321 20.3144 180.461 20.5076 180.56 20.6591H180.696V19.2727H181.991V28.25C181.991 29 181.821 29.6098 181.48 30.0795C181.143 30.553 180.688 30.8996 180.116 31.1193C179.548 31.3428 178.916 31.4545 178.219 31.4545ZM178.173 26.6591C178.711 26.6591 179.166 26.536 179.537 26.2898C179.908 26.0436 180.19 25.6894 180.384 25.2273C180.577 24.7652 180.673 24.2121 180.673 23.5682C180.673 22.9394 180.579 22.3845 180.389 21.9034C180.2 21.4223 179.92 21.0455 179.548 20.7727C179.177 20.5 178.719 20.3636 178.173 20.3636C177.605 20.3636 177.132 20.5076 176.753 20.7955C176.378 21.0833 176.096 21.4697 175.906 21.9545C175.721 22.4394 175.628 22.9773 175.628 23.5682C175.628 24.1742 175.723 24.7102 175.912 25.1761C176.105 25.6383 176.389 26.0019 176.764 26.267C177.143 26.5284 177.613 26.6591 178.173 26.6591ZM187.014 28.2045C186.461 28.2045 185.959 28.1004 185.509 27.892C185.058 27.6799 184.7 27.375 184.435 26.9773C184.17 26.5758 184.037 26.0909 184.037 25.5227C184.037 25.0227 184.135 24.6174 184.332 24.3068C184.529 23.9924 184.793 23.7462 185.122 23.5682C185.452 23.3902 185.815 23.2576 186.213 23.1705C186.615 23.0795 187.018 23.0076 187.423 22.9545C187.954 22.8864 188.384 22.8352 188.713 22.8011C189.046 22.7633 189.289 22.7008 189.44 22.6136C189.596 22.5265 189.673 22.375 189.673 22.1591V22.1136C189.673 21.553 189.52 21.1174 189.213 20.8068C188.91 20.4962 188.45 20.3409 187.832 20.3409C187.192 20.3409 186.69 20.4811 186.327 20.7614C185.963 21.0417 185.707 21.3409 185.56 21.6591L184.287 21.2045C184.514 20.6742 184.817 20.2614 185.196 19.9659C185.579 19.6667 185.995 19.4583 186.446 19.3409C186.901 19.2197 187.348 19.1591 187.787 19.1591C188.067 19.1591 188.389 19.1932 188.753 19.2614C189.12 19.3258 189.474 19.4602 189.815 19.6648C190.16 19.8693 190.446 20.178 190.673 20.5909C190.901 21.0038 191.014 21.5568 191.014 22.25V28H189.673V26.8182H189.605C189.514 27.0076 189.363 27.2102 189.151 27.4261C188.938 27.642 188.656 27.8258 188.304 27.9773C187.952 28.1288 187.522 28.2045 187.014 28.2045ZM187.219 27C187.749 27 188.196 26.8958 188.56 26.6875C188.927 26.4792 189.204 26.2102 189.389 25.8807C189.579 25.5511 189.673 25.2045 189.673 24.8409V23.6136C189.616 23.6818 189.491 23.7443 189.298 23.8011C189.109 23.8542 188.889 23.9015 188.639 23.9432C188.393 23.9811 188.152 24.0152 187.918 24.0455C187.687 24.072 187.499 24.0947 187.355 24.1136C187.007 24.1591 186.681 24.233 186.378 24.3352C186.079 24.4337 185.836 24.5833 185.651 24.7841C185.469 24.9811 185.378 25.25 185.378 25.5909C185.378 26.0568 185.55 26.4091 185.895 26.6477C186.243 26.8826 186.685 27 187.219 27ZM194.803 16.3636V28H193.462V16.3636H194.803ZM201.759 31.2727V19.2727H203.054V20.6591H203.213C203.312 20.5076 203.448 20.3144 203.622 20.0795C203.8 19.8409 204.054 19.6288 204.384 19.4432C204.717 19.2538 205.168 19.1591 205.736 19.1591C206.471 19.1591 207.118 19.3428 207.679 19.7102C208.24 20.0777 208.677 20.5985 208.991 21.2727C209.306 21.947 209.463 22.7424 209.463 23.6591C209.463 24.5833 209.306 25.3845 208.991 26.0625C208.677 26.7367 208.241 27.2595 207.685 27.6307C207.128 27.9981 206.486 28.1818 205.759 28.1818C205.198 28.1818 204.749 28.089 204.412 27.9034C204.075 27.714 203.815 27.5 203.634 27.2614C203.452 27.0189 203.312 26.8182 203.213 26.6591H203.099V31.2727H201.759ZM203.077 23.6364C203.077 24.2955 203.173 24.8769 203.366 25.3807C203.56 25.8807 203.842 26.2727 204.213 26.5568C204.584 26.8371 205.039 26.9773 205.577 26.9773C206.137 26.9773 206.605 26.8295 206.98 26.5341C207.359 26.2348 207.643 25.8333 207.832 25.3295C208.026 24.822 208.122 24.2576 208.122 23.6364C208.122 23.0227 208.027 22.4697 207.838 21.9773C207.652 21.4811 207.37 21.089 206.991 20.8011C206.616 20.5095 206.145 20.3636 205.577 20.3636C205.031 20.3636 204.573 20.5019 204.202 20.7784C203.83 21.0511 203.55 21.4337 203.361 21.9261C203.171 22.4148 203.077 22.9848 203.077 23.6364ZM211.509 28V19.2727H212.804V20.5909H212.895C213.054 20.1591 213.342 19.8087 213.759 19.5398C214.175 19.2708 214.645 19.1364 215.168 19.1364C215.266 19.1364 215.389 19.1383 215.537 19.142C215.685 19.1458 215.796 19.1515 215.872 19.1591V20.5227C215.827 20.5114 215.723 20.4943 215.56 20.4716C215.401 20.4451 215.232 20.4318 215.054 20.4318C214.63 20.4318 214.251 20.5208 213.918 20.6989C213.588 20.8731 213.327 21.1155 213.134 21.4261C212.944 21.733 212.849 22.0833 212.849 22.4773V28H211.509ZM220.855 28.1818C220.014 28.1818 219.289 27.9962 218.679 27.625C218.073 27.25 217.605 26.7273 217.276 26.0568C216.95 25.3826 216.787 24.5985 216.787 23.7045C216.787 22.8106 216.95 22.0227 217.276 21.3409C217.605 20.6553 218.063 20.1212 218.651 19.7386C219.241 19.3523 219.931 19.1591 220.719 19.1591C221.173 19.1591 221.622 19.2348 222.065 19.3864C222.509 19.5379 222.912 19.7841 223.276 20.125C223.639 20.4621 223.929 20.9091 224.145 21.4659C224.361 22.0227 224.469 22.7083 224.469 23.5227V24.0909H217.741V22.9318H223.105C223.105 22.4394 223.007 22 222.81 21.6136C222.616 21.2273 222.34 20.9223 221.98 20.6989C221.624 20.4754 221.204 20.3636 220.719 20.3636C220.185 20.3636 219.723 20.4962 219.332 20.7614C218.946 21.0227 218.649 21.3636 218.44 21.7841C218.232 22.2045 218.128 22.6553 218.128 23.1364V23.9091C218.128 24.5682 218.241 25.1269 218.469 25.5852C218.7 26.0398 219.02 26.3864 219.429 26.625C219.838 26.8598 220.313 26.9773 220.855 26.9773C221.207 26.9773 221.526 26.928 221.81 26.8295C222.098 26.7273 222.346 26.5758 222.554 26.375C222.762 26.1705 222.923 25.9167 223.037 25.6136L224.332 25.9773C224.196 26.4167 223.967 26.803 223.645 27.1364C223.323 27.4659 222.925 27.7235 222.452 27.9091C221.978 28.0909 221.446 28.1818 220.855 28.1818ZM230.054 28.1818C229.236 28.1818 228.531 27.9886 227.94 27.6023C227.349 27.2159 226.895 26.6837 226.577 26.0057C226.259 25.3277 226.099 24.553 226.099 23.6818C226.099 22.7955 226.262 22.0133 226.588 21.3352C226.918 20.6534 227.376 20.1212 227.963 19.7386C228.554 19.3523 229.243 19.1591 230.031 19.1591C230.645 19.1591 231.198 19.2727 231.69 19.5C232.183 19.7273 232.586 20.0455 232.901 20.4545C233.215 20.8636 233.41 21.3409 233.486 21.8864H232.145C232.043 21.4886 231.815 21.1364 231.463 20.8295C231.115 20.5189 230.645 20.3636 230.054 20.3636C229.531 20.3636 229.073 20.5 228.679 20.7727C228.289 21.0417 227.984 21.4223 227.764 21.9148C227.548 22.4034 227.44 22.9773 227.44 23.6364C227.44 24.3106 227.546 24.8977 227.759 25.3977C227.974 25.8977 228.277 26.286 228.668 26.5625C229.062 26.839 229.524 26.9773 230.054 26.9773C230.402 26.9773 230.719 26.9167 231.003 26.7955C231.287 26.6742 231.527 26.5 231.724 26.2727C231.921 26.0455 232.062 25.7727 232.145 25.4545H233.486C233.41 25.9697 233.223 26.4337 232.923 26.8466C232.628 27.2557 232.236 27.5814 231.747 27.8239C231.262 28.0625 230.698 28.1818 230.054 28.1818ZM239.105 28.1818C238.264 28.1818 237.539 27.9962 236.929 27.625C236.323 27.25 235.855 26.7273 235.526 26.0568C235.2 25.3826 235.037 24.5985 235.037 23.7045C235.037 22.8106 235.2 22.0227 235.526 21.3409C235.855 20.6553 236.313 20.1212 236.901 19.7386C237.491 19.3523 238.181 19.1591 238.969 19.1591C239.423 19.1591 239.872 19.2348 240.315 19.3864C240.759 19.5379 241.162 19.7841 241.526 20.125C241.889 20.4621 242.179 20.9091 242.395 21.4659C242.611 22.0227 242.719 22.7083 242.719 23.5227V24.0909H235.991V22.9318H241.355C241.355 22.4394 241.257 22 241.06 21.6136C240.866 21.2273 240.59 20.9223 240.23 20.6989C239.874 20.4754 239.454 20.3636 238.969 20.3636C238.435 20.3636 237.973 20.4962 237.582 20.7614C237.196 21.0227 236.899 21.3636 236.69 21.7841C236.482 22.2045 236.378 22.6553 236.378 23.1364V23.9091C236.378 24.5682 236.491 25.1269 236.719 25.5852C236.95 26.0398 237.27 26.3864 237.679 26.625C238.088 26.8598 238.563 26.9773 239.105 26.9773C239.457 26.9773 239.776 26.928 240.06 26.8295C240.348 26.7273 240.596 26.5758 240.804 26.375C241.012 26.1705 241.173 25.9167 241.287 25.6136L242.582 25.9773C242.446 26.4167 242.217 26.803 241.895 27.1364C241.573 27.4659 241.175 27.7235 240.702 27.9091C240.228 28.0909 239.696 28.1818 239.105 28.1818ZM248.054 28.1818C247.327 28.1818 246.685 27.9981 246.128 27.6307C245.571 27.2595 245.135 26.7367 244.821 26.0625C244.507 25.3845 244.349 24.5833 244.349 23.6591C244.349 22.7424 244.507 21.947 244.821 21.2727C245.135 20.5985 245.573 20.0777 246.134 19.7102C246.694 19.3428 247.342 19.1591 248.077 19.1591C248.645 19.1591 249.094 19.2538 249.423 19.4432C249.757 19.6288 250.01 19.8409 250.185 20.0795C250.363 20.3144 250.501 20.5076 250.599 20.6591H250.713V16.3636H252.054V28H250.759V26.6591H250.599C250.501 26.8182 250.361 27.0189 250.179 27.2614C249.997 27.5 249.738 27.714 249.401 27.9034C249.063 28.089 248.615 28.1818 248.054 28.1818ZM248.236 26.9773C248.774 26.9773 249.228 26.8371 249.599 26.5568C249.971 26.2727 250.253 25.8807 250.446 25.3807C250.639 24.8769 250.736 24.2955 250.736 23.6364C250.736 22.9848 250.641 22.4148 250.452 21.9261C250.262 21.4337 249.982 21.0511 249.611 20.7784C249.24 20.5019 248.781 20.3636 248.236 20.3636C247.668 20.3636 247.194 20.5095 246.815 20.8011C246.44 21.089 246.158 21.4811 245.969 21.9773C245.783 22.4697 245.69 23.0227 245.69 23.6364C245.69 24.2576 245.785 24.822 245.974 25.3295C246.168 25.8333 246.452 26.2348 246.827 26.5341C247.205 26.8295 247.675 26.9773 248.236 26.9773ZM258.355 28.1818C257.514 28.1818 256.789 27.9962 256.179 27.625C255.573 27.25 255.105 26.7273 254.776 26.0568C254.45 25.3826 254.287 24.5985 254.287 23.7045C254.287 22.8106 254.45 22.0227 254.776 21.3409C255.105 20.6553 255.563 20.1212 256.151 19.7386C256.741 19.3523 257.431 19.1591 258.219 19.1591C258.673 19.1591 259.122 19.2348 259.565 19.3864C260.009 19.5379 260.412 19.7841 260.776 20.125C261.139 20.4621 261.429 20.9091 261.645 21.4659C261.861 22.0227 261.969 22.7083 261.969 23.5227V24.0909H255.241V22.9318H260.605C260.605 22.4394 260.507 22 260.31 21.6136C260.116 21.2273 259.84 20.9223 259.48 20.6989C259.124 20.4754 258.704 20.3636 258.219 20.3636C257.685 20.3636 257.223 20.4962 256.832 20.7614C256.446 21.0227 256.149 21.3636 255.94 21.7841C255.732 22.2045 255.628 22.6553 255.628 23.1364V23.9091C255.628 24.5682 255.741 25.1269 255.969 25.5852C256.2 26.0398 256.52 26.3864 256.929 26.625C257.338 26.8598 257.813 26.9773 258.355 26.9773C258.707 26.9773 259.026 26.928 259.31 26.8295C259.598 26.7273 259.846 26.5758 260.054 26.375C260.262 26.1705 260.423 25.9167 260.537 25.6136L261.832 25.9773C261.696 26.4167 261.467 26.803 261.145 27.1364C260.823 27.4659 260.425 27.7235 259.952 27.9091C259.478 28.0909 258.946 28.1818 258.355 28.1818ZM265.349 22.75V28H264.009V19.2727H265.304V20.6364H265.418C265.622 20.1932 265.933 19.8371 266.349 19.5682C266.766 19.2955 267.304 19.1591 267.963 19.1591C268.554 19.1591 269.071 19.2803 269.514 19.5227C269.957 19.7614 270.302 20.125 270.548 20.6136C270.795 21.0985 270.918 21.7121 270.918 22.4545V28H269.577V22.5455C269.577 21.8598 269.399 21.3258 269.043 20.9432C268.687 20.5568 268.198 20.3636 267.577 20.3636C267.149 20.3636 266.766 20.4564 266.429 20.642C266.096 20.8277 265.832 21.0985 265.639 21.4545C265.446 21.8106 265.349 22.2424 265.349 22.75ZM277.163 19.2727V20.4091H272.641V19.2727H277.163ZM273.959 17.1818H275.3V25.5C275.3 25.8788 275.355 26.1629 275.464 26.3523C275.578 26.5379 275.722 26.6629 275.896 26.7273C276.074 26.7879 276.262 26.8182 276.459 26.8182C276.607 26.8182 276.728 26.8106 276.822 26.7955C276.917 26.7765 276.993 26.7614 277.05 26.75L277.322 27.9545C277.232 27.9886 277.105 28.0227 276.942 28.0568C276.779 28.0947 276.572 28.1136 276.322 28.1136C275.944 28.1136 275.572 28.0322 275.209 27.8693C274.849 27.7064 274.55 27.4583 274.311 27.125C274.076 26.7917 273.959 26.3712 273.959 25.8636V17.1818ZM285.206 21.2273L284.001 21.5682C283.926 21.3674 283.814 21.1723 283.666 20.983C283.522 20.7898 283.325 20.6307 283.075 20.5057C282.825 20.3807 282.505 20.3182 282.115 20.3182C281.581 20.3182 281.136 20.4413 280.78 20.6875C280.428 20.9299 280.251 21.2386 280.251 21.6136C280.251 21.947 280.373 22.2102 280.615 22.4034C280.857 22.5966 281.236 22.7576 281.751 22.8864L283.047 23.2045C283.827 23.3939 284.409 23.6837 284.791 24.0739C285.174 24.4602 285.365 24.9583 285.365 25.5682C285.365 26.0682 285.221 26.5152 284.933 26.9091C284.649 27.303 284.251 27.6136 283.74 27.8409C283.229 28.0682 282.634 28.1818 281.956 28.1818C281.066 28.1818 280.329 27.9886 279.746 27.6023C279.162 27.2159 278.793 26.6515 278.638 25.9091L279.911 25.5909C280.032 26.0606 280.261 26.4129 280.598 26.6477C280.939 26.8826 281.384 27 281.933 27C282.558 27 283.054 26.8674 283.422 26.6023C283.793 26.3333 283.979 26.0114 283.979 25.6364C283.979 25.3333 283.873 25.0795 283.661 24.875C283.448 24.6667 283.123 24.5114 282.683 24.4091L281.229 24.0682C280.429 23.8788 279.842 23.5852 279.467 23.1875C279.096 22.786 278.911 22.2841 278.911 21.6818C278.911 21.1894 279.049 20.7538 279.325 20.375C279.606 19.9962 279.986 19.6989 280.467 19.483C280.952 19.267 281.501 19.1591 282.115 19.1591C282.979 19.1591 283.657 19.3485 284.149 19.7273C284.645 20.1061 284.998 20.6061 285.206 21.2273ZM291.884 28V19.2727H293.179V20.5909H293.27C293.429 20.1591 293.717 19.8087 294.134 19.5398C294.55 19.2708 295.02 19.1364 295.543 19.1364C295.641 19.1364 295.764 19.1383 295.912 19.142C296.06 19.1458 296.171 19.1515 296.247 19.1591V20.5227C296.202 20.5114 296.098 20.4943 295.935 20.4716C295.776 20.4451 295.607 20.4318 295.429 20.4318C295.005 20.4318 294.626 20.5208 294.293 20.6989C293.963 20.8731 293.702 21.1155 293.509 21.4261C293.319 21.733 293.224 22.0833 293.224 22.4773V28H291.884ZM301.23 28.1818C300.389 28.1818 299.664 27.9962 299.054 27.625C298.448 27.25 297.98 26.7273 297.651 26.0568C297.325 25.3826 297.162 24.5985 297.162 23.7045C297.162 22.8106 297.325 22.0227 297.651 21.3409C297.98 20.6553 298.438 20.1212 299.026 19.7386C299.616 19.3523 300.306 19.1591 301.094 19.1591C301.548 19.1591 301.997 19.2348 302.44 19.3864C302.884 19.5379 303.287 19.7841 303.651 20.125C304.014 20.4621 304.304 20.9091 304.52 21.4659C304.736 22.0227 304.844 22.7083 304.844 23.5227V24.0909H298.116V22.9318H303.48C303.48 22.4394 303.382 22 303.185 21.6136C302.991 21.2273 302.715 20.9223 302.355 20.6989C301.999 20.4754 301.579 20.3636 301.094 20.3636C300.56 20.3636 300.098 20.4962 299.707 20.7614C299.321 21.0227 299.024 21.3636 298.815 21.7841C298.607 22.2045 298.503 22.6553 298.503 23.1364V23.9091C298.503 24.5682 298.616 25.1269 298.844 25.5852C299.075 26.0398 299.395 26.3864 299.804 26.625C300.213 26.8598 300.688 26.9773 301.23 26.9773C301.582 26.9773 301.901 26.928 302.185 26.8295C302.473 26.7273 302.721 26.5758 302.929 26.375C303.137 26.1705 303.298 25.9167 303.412 25.6136L304.707 25.9773C304.571 26.4167 304.342 26.803 304.02 27.1364C303.698 27.4659 303.3 27.7235 302.827 27.9091C302.353 28.0909 301.821 28.1818 301.23 28.1818ZM308.224 16.3636V28H306.884V16.3636H308.224ZM313.249 28.2045C312.696 28.2045 312.194 28.1004 311.743 27.892C311.292 27.6799 310.934 27.375 310.669 26.9773C310.404 26.5758 310.271 26.0909 310.271 25.5227C310.271 25.0227 310.37 24.6174 310.567 24.3068C310.764 23.9924 311.027 23.7462 311.357 23.5682C311.686 23.3902 312.05 23.2576 312.447 23.1705C312.849 23.0795 313.252 23.0076 313.658 22.9545C314.188 22.8864 314.618 22.8352 314.947 22.8011C315.281 22.7633 315.523 22.7008 315.675 22.6136C315.83 22.5265 315.908 22.375 315.908 22.1591V22.1136C315.908 21.553 315.754 21.1174 315.447 20.8068C315.144 20.4962 314.684 20.3409 314.067 20.3409C313.427 20.3409 312.925 20.4811 312.561 20.7614C312.197 21.0417 311.942 21.3409 311.794 21.6591L310.521 21.2045C310.749 20.6742 311.052 20.2614 311.43 19.9659C311.813 19.6667 312.23 19.4583 312.68 19.3409C313.135 19.2197 313.582 19.1591 314.021 19.1591C314.302 19.1591 314.624 19.1932 314.987 19.2614C315.355 19.3258 315.709 19.4602 316.05 19.6648C316.394 19.8693 316.68 20.178 316.908 20.5909C317.135 21.0038 317.249 21.5568 317.249 22.25V28H315.908V26.8182H315.839C315.749 27.0076 315.597 27.2102 315.385 27.4261C315.173 27.642 314.891 27.8258 314.538 27.9773C314.186 28.1288 313.756 28.2045 313.249 28.2045ZM313.453 27C313.983 27 314.43 26.8958 314.794 26.6875C315.161 26.4792 315.438 26.2102 315.624 25.8807C315.813 25.5511 315.908 25.2045 315.908 24.8409V23.6136C315.851 23.6818 315.726 23.7443 315.533 23.8011C315.343 23.8542 315.124 23.9015 314.874 23.9432C314.627 23.9811 314.387 24.0152 314.152 24.0455C313.921 24.072 313.733 24.0947 313.589 24.1136C313.241 24.1591 312.915 24.233 312.612 24.3352C312.313 24.4337 312.071 24.5833 311.885 24.7841C311.703 24.9811 311.612 25.25 311.612 25.5909C311.612 26.0568 311.785 26.4091 312.129 26.6477C312.478 26.8826 312.919 27 313.453 27ZM323.491 19.2727V20.4091H318.969V19.2727H323.491ZM320.287 17.1818H321.628V25.5C321.628 25.8788 321.683 26.1629 321.793 26.3523C321.906 26.5379 322.05 26.6629 322.224 26.7273C322.402 26.7879 322.59 26.8182 322.787 26.8182C322.935 26.8182 323.056 26.8106 323.151 26.7955C323.245 26.7765 323.321 26.7614 323.378 26.75L323.651 27.9545C323.56 27.9886 323.433 28.0227 323.27 28.0568C323.107 28.0947 322.901 28.1136 322.651 28.1136C322.272 28.1136 321.901 28.0322 321.537 27.8693C321.177 27.7064 320.878 27.4583 320.639 27.125C320.404 26.7917 320.287 26.3712 320.287 25.8636V17.1818ZM329.074 28.1818C328.233 28.1818 327.508 27.9962 326.898 27.625C326.292 27.25 325.824 26.7273 325.494 26.0568C325.169 25.3826 325.006 24.5985 325.006 23.7045C325.006 22.8106 325.169 22.0227 325.494 21.3409C325.824 20.6553 326.282 20.1212 326.869 19.7386C327.46 19.3523 328.15 19.1591 328.938 19.1591C329.392 19.1591 329.841 19.2348 330.284 19.3864C330.727 19.5379 331.131 19.7841 331.494 20.125C331.858 20.4621 332.148 20.9091 332.364 21.4659C332.58 22.0227 332.688 22.7083 332.688 23.5227V24.0909H325.96V22.9318H331.324C331.324 22.4394 331.225 22 331.028 21.6136C330.835 21.2273 330.559 20.9223 330.199 20.6989C329.843 20.4754 329.422 20.3636 328.938 20.3636C328.403 20.3636 327.941 20.4962 327.551 20.7614C327.165 21.0227 326.867 21.3636 326.659 21.7841C326.451 22.2045 326.347 22.6553 326.347 23.1364V23.9091C326.347 24.5682 326.46 25.1269 326.688 25.5852C326.919 26.0398 327.239 26.3864 327.648 26.625C328.057 26.8598 328.532 26.9773 329.074 26.9773C329.426 26.9773 329.744 26.928 330.028 26.8295C330.316 26.7273 330.564 26.5758 330.773 26.375C330.981 26.1705 331.142 25.9167 331.256 25.6136L332.551 25.9773C332.415 26.4167 332.186 26.803 331.864 27.1364C331.542 27.4659 331.144 27.7235 330.67 27.9091C330.197 28.0909 329.665 28.1818 329.074 28.1818ZM338.023 28.1818C337.295 28.1818 336.653 27.9981 336.097 27.6307C335.54 27.2595 335.104 26.7367 334.79 26.0625C334.475 25.3845 334.318 24.5833 334.318 23.6591C334.318 22.7424 334.475 21.947 334.79 21.2727C335.104 20.5985 335.542 20.0777 336.102 19.7102C336.663 19.3428 337.311 19.1591 338.045 19.1591C338.614 19.1591 339.063 19.2538 339.392 19.4432C339.725 19.6288 339.979 19.8409 340.153 20.0795C340.331 20.3144 340.47 20.5076 340.568 20.6591H340.682V16.3636H342.023V28H340.727V26.6591H340.568C340.47 26.8182 340.33 27.0189 340.148 27.2614C339.966 27.5 339.706 27.714 339.369 27.9034C339.032 28.089 338.583 28.1818 338.023 28.1818ZM338.205 26.9773C338.742 26.9773 339.197 26.8371 339.568 26.5568C339.939 26.2727 340.222 25.8807 340.415 25.3807C340.608 24.8769 340.705 24.2955 340.705 23.6364C340.705 22.9848 340.61 22.4148 340.42 21.9261C340.231 21.4337 339.951 21.0511 339.58 20.7784C339.208 20.5019 338.75 20.3636 338.205 20.3636C337.636 20.3636 337.163 20.5095 336.784 20.8011C336.409 21.089 336.127 21.4811 335.938 21.9773C335.752 22.4697 335.659 23.0227 335.659 23.6364C335.659 24.2576 335.754 24.822 335.943 25.3295C336.136 25.8333 336.42 26.2348 336.795 26.5341C337.174 26.8295 337.644 26.9773 338.205 26.9773ZM352.96 19.2727V20.4091H348.438V19.2727H352.96ZM349.756 17.1818H351.097V25.5C351.097 25.8788 351.152 26.1629 351.261 26.3523C351.375 26.5379 351.519 26.6629 351.693 26.7273C351.871 26.7879 352.059 26.8182 352.256 26.8182C352.403 26.8182 352.525 26.8106 352.619 26.7955C352.714 26.7765 352.79 26.7614 352.847 26.75L353.119 27.9545C353.028 27.9886 352.902 28.0227 352.739 28.0568C352.576 28.0947 352.369 28.1136 352.119 28.1136C351.741 28.1136 351.369 28.0322 351.006 27.8693C350.646 27.7064 350.347 27.4583 350.108 27.125C349.873 26.7917 349.756 26.3712 349.756 25.8636V17.1818ZM358.429 28.1818C357.641 28.1818 356.95 27.9943 356.355 27.6193C355.764 27.2443 355.302 26.7197 354.969 26.0455C354.639 25.3712 354.474 24.5833 354.474 23.6818C354.474 22.7727 354.639 21.9792 354.969 21.3011C355.302 20.6231 355.764 20.0966 356.355 19.7216C356.95 19.3466 357.641 19.1591 358.429 19.1591C359.217 19.1591 359.906 19.3466 360.497 19.7216C361.092 20.0966 361.554 20.6231 361.884 21.3011C362.217 21.9792 362.384 22.7727 362.384 23.6818C362.384 24.5833 362.217 25.3712 361.884 26.0455C361.554 26.7197 361.092 27.2443 360.497 27.6193C359.906 27.9943 359.217 28.1818 358.429 28.1818ZM358.429 26.9773C359.027 26.9773 359.52 26.8239 359.906 26.517C360.293 26.2102 360.579 25.8068 360.764 25.3068C360.95 24.8068 361.043 24.2652 361.043 23.6818C361.043 23.0985 360.95 22.5549 360.764 22.0511C360.579 21.5473 360.293 21.1402 359.906 20.8295C359.52 20.5189 359.027 20.3636 358.429 20.3636C357.83 20.3636 357.338 20.5189 356.952 20.8295C356.565 21.1402 356.279 21.5473 356.094 22.0511C355.908 22.5549 355.815 23.0985 355.815 23.6818C355.815 24.2652 355.908 24.8068 356.094 25.3068C356.279 25.8068 356.565 26.2102 356.952 26.517C357.338 26.8239 357.83 26.9773 358.429 26.9773ZM370.521 16.3636V28H369.112V16.3636H370.521ZM373.347 28V16.3636H377.278C378.191 16.3636 378.938 16.5284 379.517 16.858C380.1 17.1837 380.532 17.625 380.812 18.1818C381.093 18.7386 381.233 19.3598 381.233 20.0455C381.233 20.7311 381.093 21.3542 380.812 21.9148C380.536 22.4754 380.108 22.9223 379.528 23.2557C378.949 23.5852 378.206 23.75 377.301 23.75H374.483V22.5H377.256C377.881 22.5 378.383 22.392 378.761 22.1761C379.14 21.9602 379.415 21.6686 379.585 21.3011C379.759 20.9299 379.847 20.5114 379.847 20.0455C379.847 19.5795 379.759 19.1629 379.585 18.7955C379.415 18.428 379.138 18.1402 378.756 17.9318C378.373 17.7197 377.866 17.6136 377.233 17.6136H374.756V28H373.347ZM387.821 28V19.2727H389.116V20.5909H389.207C389.366 20.1591 389.654 19.8087 390.071 19.5398C390.488 19.2708 390.957 19.1364 391.48 19.1364C391.579 19.1364 391.702 19.1383 391.849 19.142C391.997 19.1458 392.109 19.1515 392.185 19.1591V20.5227C392.139 20.5114 392.035 20.4943 391.872 20.4716C391.713 20.4451 391.545 20.4318 391.366 20.4318C390.942 20.4318 390.563 20.5208 390.23 20.6989C389.901 20.8731 389.639 21.1155 389.446 21.4261C389.257 21.733 389.162 22.0833 389.162 22.4773V28H387.821ZM393.774 28V19.2727H395.115V28H393.774ZM394.456 17.8182C394.195 17.8182 393.969 17.7292 393.78 17.5511C393.594 17.3731 393.501 17.1591 393.501 16.9091C393.501 16.6591 393.594 16.4451 393.78 16.267C393.969 16.089 394.195 16 394.456 16C394.717 16 394.941 16.089 395.126 16.267C395.316 16.4451 395.411 16.6591 395.411 16.9091C395.411 17.1591 395.316 17.3731 395.126 17.5511C394.941 17.7292 394.717 17.8182 394.456 17.8182ZM401.094 31.4545C400.446 31.4545 399.889 31.3712 399.423 31.2045C398.957 31.0417 398.569 30.8258 398.259 30.5568C397.952 30.2917 397.707 30.0076 397.526 29.7045L398.594 28.9545C398.715 29.1136 398.868 29.2955 399.054 29.5C399.24 29.7083 399.493 29.8883 399.815 30.0398C400.141 30.1951 400.567 30.2727 401.094 30.2727C401.798 30.2727 402.38 30.1023 402.838 29.7614C403.296 29.4205 403.526 28.8864 403.526 28.1591V26.3864H403.412C403.313 26.5455 403.173 26.7424 402.991 26.9773C402.813 27.2083 402.556 27.4148 402.219 27.5966C401.885 27.7746 401.435 27.8636 400.866 27.8636C400.162 27.8636 399.529 27.697 398.969 27.3636C398.412 27.0303 397.971 26.5455 397.645 25.9091C397.323 25.2727 397.162 24.5 397.162 23.5909C397.162 22.697 397.319 21.9186 397.634 21.2557C397.948 20.589 398.385 20.0739 398.946 19.7102C399.507 19.3428 400.154 19.1591 400.889 19.1591C401.457 19.1591 401.908 19.2538 402.241 19.4432C402.579 19.6288 402.836 19.8409 403.014 20.0795C403.196 20.3144 403.336 20.5076 403.435 20.6591H403.571V19.2727H404.866V28.25C404.866 29 404.696 29.6098 404.355 30.0795C404.018 30.553 403.563 30.8996 402.991 31.1193C402.423 31.3428 401.791 31.4545 401.094 31.4545ZM401.048 26.6591C401.586 26.6591 402.041 26.536 402.412 26.2898C402.783 26.0436 403.065 25.6894 403.259 25.2273C403.452 24.7652 403.548 24.2121 403.548 23.5682C403.548 22.9394 403.454 22.3845 403.264 21.9034C403.075 21.4223 402.795 21.0455 402.423 20.7727C402.052 20.5 401.594 20.3636 401.048 20.3636C400.48 20.3636 400.007 20.5076 399.628 20.7955C399.253 21.0833 398.971 21.4697 398.781 21.9545C398.596 22.4394 398.503 22.9773 398.503 23.5682C398.503 24.1742 398.598 24.7102 398.787 25.1761C398.98 25.6383 399.264 26.0019 399.639 26.267C400.018 26.5284 400.488 26.6591 401.048 26.6591ZM408.662 22.75V28H407.321V16.3636H408.662V20.6364H408.776C408.98 20.1856 409.287 19.8277 409.696 19.5625C410.109 19.2936 410.658 19.1591 411.344 19.1591C411.938 19.1591 412.459 19.2784 412.906 19.517C413.353 19.7519 413.7 20.1136 413.946 20.6023C414.196 21.0871 414.321 21.7045 414.321 22.4545V28H412.98V22.5455C412.98 21.8523 412.8 21.3163 412.44 20.9375C412.084 20.5549 411.59 20.3636 410.957 20.3636C410.518 20.3636 410.124 20.4564 409.776 20.642C409.431 20.8277 409.158 21.0985 408.957 21.4545C408.76 21.8106 408.662 22.2424 408.662 22.75ZM420.57 19.2727V20.4091H416.047V19.2727H420.57ZM417.365 17.1818H418.706V25.5C418.706 25.8788 418.761 26.1629 418.871 26.3523C418.984 26.5379 419.128 26.6629 419.303 26.7273C419.481 26.7879 419.668 26.8182 419.865 26.8182C420.013 26.8182 420.134 26.8106 420.229 26.7955C420.323 26.7765 420.399 26.7614 420.456 26.75L420.729 27.9545C420.638 27.9886 420.511 28.0227 420.348 28.0568C420.185 28.0947 419.979 28.1136 419.729 28.1136C419.35 28.1136 418.979 28.0322 418.615 27.8693C418.255 27.7064 417.956 27.4583 417.717 27.125C417.482 26.7917 417.365 26.3712 417.365 25.8636V17.1818ZM428.612 21.2273L427.408 21.5682C427.332 21.3674 427.22 21.1723 427.072 20.983C426.929 20.7898 426.732 20.6307 426.482 20.5057C426.232 20.3807 425.911 20.3182 425.521 20.3182C424.987 20.3182 424.542 20.4413 424.186 20.6875C423.834 20.9299 423.658 21.2386 423.658 21.6136C423.658 21.947 423.779 22.2102 424.021 22.4034C424.264 22.5966 424.643 22.7576 425.158 22.8864L426.453 23.2045C427.233 23.3939 427.815 23.6837 428.197 24.0739C428.58 24.4602 428.771 24.9583 428.771 25.5682C428.771 26.0682 428.627 26.5152 428.339 26.9091C428.055 27.303 427.658 27.6136 427.146 27.8409C426.635 28.0682 426.04 28.1818 425.362 28.1818C424.472 28.1818 423.735 27.9886 423.152 27.6023C422.569 27.2159 422.199 26.6515 422.044 25.9091L423.317 25.5909C423.438 26.0606 423.667 26.4129 424.004 26.6477C424.345 26.8826 424.79 27 425.339 27C425.964 27 426.461 26.8674 426.828 26.6023C427.199 26.3333 427.385 26.0114 427.385 25.6364C427.385 25.3333 427.279 25.0795 427.067 24.875C426.855 24.6667 426.529 24.5114 426.089 24.4091L424.635 24.0682C423.836 23.8788 423.249 23.5852 422.874 23.1875C422.502 22.786 422.317 22.2841 422.317 21.6818C422.317 21.1894 422.455 20.7538 422.732 20.375C423.012 19.9962 423.393 19.6989 423.874 19.483C424.358 19.267 424.908 19.1591 425.521 19.1591C426.385 19.1591 427.063 19.3485 427.555 19.7273C428.052 20.1061 428.404 20.6061 428.612 21.2273ZM435.29 28V19.2727H436.631V28H435.29ZM435.972 17.8182C435.71 17.8182 435.485 17.7292 435.295 17.5511C435.11 17.3731 435.017 17.1591 435.017 16.9091C435.017 16.6591 435.11 16.4451 435.295 16.267C435.485 16.089 435.71 16 435.972 16C436.233 16 436.456 16.089 436.642 16.267C436.831 16.4451 436.926 16.6591 436.926 16.9091C436.926 17.1591 436.831 17.3731 436.642 17.5511C436.456 17.7292 436.233 17.8182 435.972 17.8182ZM440.428 22.75V28H439.087V19.2727H440.382V20.6364H440.496C440.7 20.1932 441.011 19.8371 441.428 19.5682C441.844 19.2955 442.382 19.1591 443.041 19.1591C443.632 19.1591 444.149 19.2803 444.592 19.5227C445.036 19.7614 445.38 20.125 445.626 20.6136C445.873 21.0985 445.996 21.7121 445.996 22.4545V28H444.655V22.5455C444.655 21.8598 444.477 21.3258 444.121 20.9432C443.765 20.5568 443.276 20.3636 442.655 20.3636C442.227 20.3636 441.844 20.4564 441.507 20.642C441.174 20.8277 440.911 21.0985 440.717 21.4545C440.524 21.8106 440.428 22.2424 440.428 22.75ZM456.741 19.2727V20.4091H452.219V19.2727H456.741ZM453.537 17.1818H454.878V25.5C454.878 25.8788 454.933 26.1629 455.043 26.3523C455.156 26.5379 455.3 26.6629 455.474 26.7273C455.652 26.7879 455.84 26.8182 456.037 26.8182C456.185 26.8182 456.306 26.8106 456.401 26.7955C456.495 26.7765 456.571 26.7614 456.628 26.75L456.901 27.9545C456.81 27.9886 456.683 28.0227 456.52 28.0568C456.357 28.0947 456.151 28.1136 455.901 28.1136C455.522 28.1136 455.151 28.0322 454.787 27.8693C454.427 27.7064 454.128 27.4583 453.889 27.125C453.654 26.7917 453.537 26.3712 453.537 25.8636V17.1818ZM460.287 22.75V28H458.946V16.3636H460.287V20.6364H460.401C460.605 20.1856 460.912 19.8277 461.321 19.5625C461.734 19.2936 462.283 19.1591 462.969 19.1591C463.563 19.1591 464.084 19.2784 464.531 19.517C464.978 19.7519 465.325 20.1136 465.571 20.6023C465.821 21.0871 465.946 21.7045 465.946 22.4545V28H464.605V22.5455C464.605 21.8523 464.425 21.3163 464.065 20.9375C463.709 20.5549 463.215 20.3636 462.582 20.3636C462.143 20.3636 461.749 20.4564 461.401 20.642C461.056 20.8277 460.783 21.0985 460.582 21.4545C460.385 21.8106 460.287 22.2424 460.287 22.75ZM472.058 28.1818C471.217 28.1818 470.492 27.9962 469.882 27.625C469.276 27.25 468.808 26.7273 468.479 26.0568C468.153 25.3826 467.99 24.5985 467.99 23.7045C467.99 22.8106 468.153 22.0227 468.479 21.3409C468.808 20.6553 469.267 20.1212 469.854 19.7386C470.445 19.3523 471.134 19.1591 471.922 19.1591C472.376 19.1591 472.825 19.2348 473.268 19.3864C473.712 19.5379 474.115 19.7841 474.479 20.125C474.842 20.4621 475.132 20.9091 475.348 21.4659C475.564 22.0227 475.672 22.7083 475.672 23.5227V24.0909H468.945V22.9318H474.308C474.308 22.4394 474.21 22 474.013 21.6136C473.82 21.2273 473.543 20.9223 473.183 20.6989C472.827 20.4754 472.407 20.3636 471.922 20.3636C471.388 20.3636 470.926 20.4962 470.536 20.7614C470.149 21.0227 469.852 21.3636 469.643 21.7841C469.435 22.2045 469.331 22.6553 469.331 23.1364V23.9091C469.331 24.5682 469.445 25.1269 469.672 25.5852C469.903 26.0398 470.223 26.3864 470.632 26.625C471.041 26.8598 471.517 26.9773 472.058 26.9773C472.411 26.9773 472.729 26.928 473.013 26.8295C473.301 26.7273 473.549 26.5758 473.757 26.375C473.965 26.1705 474.126 25.9167 474.24 25.6136L475.536 25.9773C475.399 26.4167 475.17 26.803 474.848 27.1364C474.526 27.4659 474.128 27.7235 473.655 27.9091C473.181 28.0909 472.649 28.1818 472.058 28.1818ZM488.393 21.2273L487.189 21.5682C487.113 21.3674 487.001 21.1723 486.854 20.983C486.71 20.7898 486.513 20.6307 486.263 20.5057C486.013 20.3807 485.693 20.3182 485.303 20.3182C484.768 20.3182 484.323 20.4413 483.967 20.6875C483.615 20.9299 483.439 21.2386 483.439 21.6136C483.439 21.947 483.56 22.2102 483.803 22.4034C484.045 22.5966 484.424 22.7576 484.939 22.8864L486.234 23.2045C487.015 23.3939 487.596 23.6837 487.979 24.0739C488.361 24.4602 488.553 24.9583 488.553 25.5682C488.553 26.0682 488.409 26.5152 488.121 26.9091C487.837 27.303 487.439 27.6136 486.928 27.8409C486.416 28.0682 485.821 28.1818 485.143 28.1818C484.253 28.1818 483.517 27.9886 482.933 27.6023C482.35 27.2159 481.981 26.6515 481.825 25.9091L483.098 25.5909C483.219 26.0606 483.448 26.4129 483.786 26.6477C484.126 26.8826 484.571 27 485.121 27C485.746 27 486.242 26.8674 486.609 26.6023C486.981 26.3333 487.166 26.0114 487.166 25.6364C487.166 25.3333 487.06 25.0795 486.848 24.875C486.636 24.6667 486.31 24.5114 485.871 24.4091L484.416 24.0682C483.617 23.8788 483.03 23.5852 482.655 23.1875C482.284 22.786 482.098 22.2841 482.098 21.6818C482.098 21.1894 482.236 20.7538 482.513 20.375C482.793 19.9962 483.174 19.6989 483.655 19.483C484.14 19.267 484.689 19.1591 485.303 19.1591C486.166 19.1591 486.844 19.3485 487.337 19.7273C487.833 20.1061 488.185 20.6061 488.393 21.2273ZM494.116 28.1818C493.329 28.1818 492.637 27.9943 492.043 27.6193C491.452 27.2443 490.99 26.7197 490.656 26.0455C490.327 25.3712 490.162 24.5833 490.162 23.6818C490.162 22.7727 490.327 21.9792 490.656 21.3011C490.99 20.6231 491.452 20.0966 492.043 19.7216C492.637 19.3466 493.329 19.1591 494.116 19.1591C494.904 19.1591 495.594 19.3466 496.185 19.7216C496.779 20.0966 497.241 20.6231 497.571 21.3011C497.904 21.9792 498.071 22.7727 498.071 23.6818C498.071 24.5833 497.904 25.3712 497.571 26.0455C497.241 26.7197 496.779 27.2443 496.185 27.6193C495.594 27.9943 494.904 28.1818 494.116 28.1818ZM494.116 26.9773C494.715 26.9773 495.207 26.8239 495.594 26.517C495.98 26.2102 496.266 25.8068 496.452 25.3068C496.637 24.8068 496.73 24.2652 496.73 23.6818C496.73 23.0985 496.637 22.5549 496.452 22.0511C496.266 21.5473 495.98 21.1402 495.594 20.8295C495.207 20.5189 494.715 20.3636 494.116 20.3636C493.518 20.3636 493.026 20.5189 492.639 20.8295C492.253 21.1402 491.967 21.5473 491.781 22.0511C491.596 22.5549 491.503 23.0985 491.503 23.6818C491.503 24.2652 491.596 24.8068 491.781 25.3068C491.967 25.8068 492.253 26.2102 492.639 26.517C493.026 26.8239 493.518 26.9773 494.116 26.9773ZM504.004 19.2727V20.4091H499.3V19.2727H504.004ZM500.709 28V18.0682C500.709 17.5682 500.826 17.1515 501.061 16.8182C501.296 16.4848 501.601 16.2348 501.976 16.0682C502.351 15.9015 502.747 15.8182 503.163 15.8182C503.493 15.8182 503.762 15.8447 503.97 15.8977C504.179 15.9508 504.334 16 504.436 16.0455L504.05 17.2045C503.982 17.1818 503.887 17.1534 503.766 17.1193C503.648 17.0852 503.493 17.0682 503.3 17.0682C502.857 17.0682 502.536 17.1799 502.339 17.4034C502.146 17.6269 502.05 17.9545 502.05 18.3864V28H500.709ZM509.679 19.2727V20.4091H505.156V19.2727H509.679ZM506.474 17.1818H507.815V25.5C507.815 25.8788 507.87 26.1629 507.98 26.3523C508.094 26.5379 508.238 26.6629 508.412 26.7273C508.59 26.7879 508.777 26.8182 508.974 26.8182C509.122 26.8182 509.243 26.8106 509.338 26.7955C509.433 26.7765 509.509 26.7614 509.565 26.75L509.838 27.9545C509.747 27.9886 509.62 28.0227 509.457 28.0568C509.295 28.0947 509.088 28.1136 508.838 28.1136C508.459 28.1136 508.088 28.0322 507.724 27.8693C507.365 27.7064 507.065 27.4583 506.827 27.125C506.592 26.7917 506.474 26.3712 506.474 25.8636V17.1818ZM513.673 28L511.014 19.2727H512.423L514.31 25.9545H514.401L516.264 19.2727H517.696L519.537 25.9318H519.628L521.514 19.2727H522.923L520.264 28H518.946L517.037 21.2955H516.901L514.991 28H513.673ZM527.264 28.2045C526.711 28.2045 526.209 28.1004 525.759 27.892C525.308 27.6799 524.95 27.375 524.685 26.9773C524.42 26.5758 524.287 26.0909 524.287 25.5227C524.287 25.0227 524.385 24.6174 524.582 24.3068C524.779 23.9924 525.043 23.7462 525.372 23.5682C525.702 23.3902 526.065 23.2576 526.463 23.1705C526.865 23.0795 527.268 23.0076 527.673 22.9545C528.204 22.8864 528.634 22.8352 528.963 22.8011C529.296 22.7633 529.539 22.7008 529.69 22.6136C529.846 22.5265 529.923 22.375 529.923 22.1591V22.1136C529.923 21.553 529.77 21.1174 529.463 20.8068C529.16 20.4962 528.7 20.3409 528.082 20.3409C527.442 20.3409 526.94 20.4811 526.577 20.7614C526.213 21.0417 525.957 21.3409 525.81 21.6591L524.537 21.2045C524.764 20.6742 525.067 20.2614 525.446 19.9659C525.829 19.6667 526.245 19.4583 526.696 19.3409C527.151 19.2197 527.598 19.1591 528.037 19.1591C528.317 19.1591 528.639 19.1932 529.003 19.2614C529.37 19.3258 529.724 19.4602 530.065 19.6648C530.41 19.8693 530.696 20.178 530.923 20.5909C531.151 21.0038 531.264 21.5568 531.264 22.25V28H529.923V26.8182H529.855C529.764 27.0076 529.613 27.2102 529.401 27.4261C529.188 27.642 528.906 27.8258 528.554 27.9773C528.202 28.1288 527.772 28.2045 527.264 28.2045ZM527.469 27C527.999 27 528.446 26.8958 528.81 26.6875C529.177 26.4792 529.454 26.2102 529.639 25.8807C529.829 25.5511 529.923 25.2045 529.923 24.8409V23.6136C529.866 23.6818 529.741 23.7443 529.548 23.8011C529.359 23.8542 529.139 23.9015 528.889 23.9432C528.643 23.9811 528.402 24.0152 528.168 24.0455C527.937 24.072 527.749 24.0947 527.605 24.1136C527.257 24.1591 526.931 24.233 526.628 24.3352C526.329 24.4337 526.086 24.5833 525.901 24.7841C525.719 24.9811 525.628 25.25 525.628 25.5909C525.628 26.0568 525.8 26.4091 526.145 26.6477C526.493 26.8826 526.935 27 527.469 27ZM533.712 28V19.2727H535.007V20.5909H535.098C535.257 20.1591 535.545 19.8087 535.962 19.5398C536.378 19.2708 536.848 19.1364 537.371 19.1364C537.469 19.1364 537.592 19.1383 537.74 19.142C537.888 19.1458 538 19.1515 538.075 19.1591V20.5227C538.03 20.5114 537.926 20.4943 537.763 20.4716C537.604 20.4451 537.435 20.4318 537.257 20.4318C536.833 20.4318 536.454 20.5208 536.121 20.6989C535.791 20.8731 535.53 21.1155 535.337 21.4261C535.147 21.733 535.053 22.0833 535.053 22.4773V28H533.712ZM543.058 28.1818C542.217 28.1818 541.492 27.9962 540.882 27.625C540.276 27.25 539.808 26.7273 539.479 26.0568C539.153 25.3826 538.99 24.5985 538.99 23.7045C538.99 22.8106 539.153 22.0227 539.479 21.3409C539.808 20.6553 540.267 20.1212 540.854 19.7386C541.445 19.3523 542.134 19.1591 542.922 19.1591C543.376 19.1591 543.825 19.2348 544.268 19.3864C544.712 19.5379 545.115 19.7841 545.479 20.125C545.842 20.4621 546.132 20.9091 546.348 21.4659C546.564 22.0227 546.672 22.7083 546.672 23.5227V24.0909H539.945V22.9318H545.308C545.308 22.4394 545.21 22 545.013 21.6136C544.82 21.2273 544.543 20.9223 544.183 20.6989C543.827 20.4754 543.407 20.3636 542.922 20.3636C542.388 20.3636 541.926 20.4962 541.536 20.7614C541.149 21.0227 540.852 21.3636 540.643 21.7841C540.435 22.2045 540.331 22.6553 540.331 23.1364V23.9091C540.331 24.5682 540.445 25.1269 540.672 25.5852C540.903 26.0398 541.223 26.3864 541.632 26.625C542.041 26.8598 542.517 26.9773 543.058 26.9773C543.411 26.9773 543.729 26.928 544.013 26.8295C544.301 26.7273 544.549 26.5758 544.757 26.375C544.965 26.1705 545.126 25.9167 545.24 25.6136L546.536 25.9773C546.399 26.4167 546.17 26.803 545.848 27.1364C545.526 27.4659 545.128 27.7235 544.655 27.9091C544.181 28.0909 543.649 28.1818 543.058 28.1818ZM553.212 28V19.2727H554.553V28H553.212ZM553.893 17.8182C553.632 17.8182 553.407 17.7292 553.217 17.5511C553.032 17.3731 552.939 17.1591 552.939 16.9091C552.939 16.6591 553.032 16.4451 553.217 16.267C553.407 16.089 553.632 16 553.893 16C554.155 16 554.378 16.089 554.564 16.267C554.753 16.4451 554.848 16.6591 554.848 16.9091C554.848 17.1591 554.753 17.3731 554.564 17.5511C554.378 17.7292 554.155 17.8182 553.893 17.8182ZM558.349 22.75V28H557.009V19.2727H558.304V20.6364H558.418C558.622 20.1932 558.933 19.8371 559.349 19.5682C559.766 19.2955 560.304 19.1591 560.963 19.1591C561.554 19.1591 562.071 19.2803 562.514 19.5227C562.957 19.7614 563.302 20.125 563.548 20.6136C563.795 21.0985 563.918 21.7121 563.918 22.4545V28H562.577V22.5455C562.577 21.8598 562.399 21.3258 562.043 20.9432C561.687 20.5568 561.198 20.3636 560.577 20.3636C560.149 20.3636 559.766 20.4564 559.429 20.642C559.096 20.8277 558.832 21.0985 558.639 21.4545C558.446 21.8106 558.349 22.2424 558.349 22.75ZM569.663 28.1818C568.936 28.1818 568.294 27.9981 567.737 27.6307C567.18 27.2595 566.745 26.7367 566.43 26.0625C566.116 25.3845 565.959 24.5833 565.959 23.6591C565.959 22.7424 566.116 21.947 566.43 21.2727C566.745 20.5985 567.182 20.0777 567.743 19.7102C568.304 19.3428 568.951 19.1591 569.686 19.1591C570.254 19.1591 570.703 19.2538 571.033 19.4432C571.366 19.6288 571.62 19.8409 571.794 20.0795C571.972 20.3144 572.11 20.5076 572.209 20.6591H572.322V16.3636H573.663V28H572.368V26.6591H572.209C572.11 26.8182 571.97 27.0189 571.788 27.2614C571.607 27.5 571.347 27.714 571.01 27.9034C570.673 28.089 570.224 28.1818 569.663 28.1818ZM569.845 26.9773C570.383 26.9773 570.838 26.8371 571.209 26.5568C571.58 26.2727 571.862 25.8807 572.055 25.3807C572.249 24.8769 572.345 24.2955 572.345 23.6364C572.345 22.9848 572.25 22.4148 572.061 21.9261C571.872 21.4337 571.591 21.0511 571.22 20.7784C570.849 20.5019 570.391 20.3636 569.845 20.3636C569.277 20.3636 568.804 20.5095 568.425 20.8011C568.05 21.089 567.768 21.4811 567.578 21.9773C567.393 22.4697 567.3 23.0227 567.3 23.6364C567.3 24.2576 567.394 24.822 567.584 25.3295C567.777 25.8333 568.061 26.2348 568.436 26.5341C568.815 26.8295 569.285 26.9773 569.845 26.9773ZM581.805 24.4318V19.2727H583.146V28H581.805V26.5227H581.714C581.51 26.9659 581.192 27.3428 580.76 27.6534C580.328 27.9602 579.783 28.1136 579.124 28.1136C578.578 28.1136 578.093 27.9943 577.669 27.7557C577.245 27.5133 576.911 27.1496 576.669 26.6648C576.427 26.1761 576.305 25.5606 576.305 24.8182V19.2727H577.646V24.7273C577.646 25.3636 577.824 25.8712 578.18 26.25C578.54 26.6288 578.999 26.8182 579.555 26.8182C579.889 26.8182 580.228 26.733 580.572 26.5625C580.921 26.392 581.213 26.1307 581.447 25.7784C581.686 25.4261 581.805 24.9773 581.805 24.4318ZM591.784 21.2273L590.58 21.5682C590.504 21.3674 590.392 21.1723 590.244 20.983C590.1 20.7898 589.903 20.6307 589.653 20.5057C589.403 20.3807 589.083 20.3182 588.693 20.3182C588.159 20.3182 587.714 20.4413 587.358 20.6875C587.006 20.9299 586.83 21.2386 586.83 21.6136C586.83 21.947 586.951 22.2102 587.193 22.4034C587.436 22.5966 587.814 22.7576 588.33 22.8864L589.625 23.2045C590.405 23.3939 590.987 23.6837 591.369 24.0739C591.752 24.4602 591.943 24.9583 591.943 25.5682C591.943 26.0682 591.799 26.5152 591.511 26.9091C591.227 27.303 590.83 27.6136 590.318 27.8409C589.807 28.0682 589.212 28.1818 588.534 28.1818C587.644 28.1818 586.907 27.9886 586.324 27.6023C585.741 27.2159 585.371 26.6515 585.216 25.9091L586.489 25.5909C586.61 26.0606 586.839 26.4129 587.176 26.6477C587.517 26.8826 587.962 27 588.511 27C589.136 27 589.633 26.8674 590 26.6023C590.371 26.3333 590.557 26.0114 590.557 25.6364C590.557 25.3333 590.451 25.0795 590.239 24.875C590.027 24.6667 589.701 24.5114 589.261 24.4091L587.807 24.0682C587.008 23.8788 586.42 23.5852 586.045 23.1875C585.674 22.786 585.489 22.2841 585.489 21.6818C585.489 21.1894 585.627 20.7538 585.903 20.375C586.184 19.9962 586.564 19.6989 587.045 19.483C587.53 19.267 588.08 19.1591 588.693 19.1591C589.557 19.1591 590.235 19.3485 590.727 19.7273C591.223 20.1061 591.576 20.6061 591.784 21.2273ZM597.757 19.2727V20.4091H593.234V19.2727H597.757ZM594.553 17.1818H595.893V25.5C595.893 25.8788 595.948 26.1629 596.058 26.3523C596.172 26.5379 596.316 26.6629 596.49 26.7273C596.668 26.7879 596.856 26.8182 597.053 26.8182C597.2 26.8182 597.321 26.8106 597.416 26.7955C597.511 26.7765 597.587 26.7614 597.643 26.75L597.916 27.9545C597.825 27.9886 597.698 28.0227 597.536 28.0568C597.373 28.0947 597.166 28.1136 596.916 28.1136C596.537 28.1136 596.166 28.0322 595.803 27.8693C595.443 27.7064 595.143 27.4583 594.905 27.125C594.67 26.7917 594.553 26.3712 594.553 25.8636V17.1818ZM599.774 28V19.2727H601.07V20.5909H601.161C601.32 20.1591 601.607 19.8087 602.024 19.5398C602.441 19.2708 602.911 19.1364 603.433 19.1364C603.532 19.1364 603.655 19.1383 603.803 19.142C603.95 19.1458 604.062 19.1515 604.138 19.1591V20.5227C604.092 20.5114 603.988 20.4943 603.825 20.4716C603.666 20.4451 603.498 20.4318 603.32 20.4318C602.895 20.4318 602.517 20.5208 602.183 20.6989C601.854 20.8731 601.592 21.1155 601.399 21.4261C601.21 21.733 601.115 22.0833 601.115 22.4773V28H599.774ZM606.857 31.2727C606.629 31.2727 606.427 31.2538 606.249 31.2159C606.071 31.1818 605.947 31.1477 605.879 31.1136L606.22 29.9318C606.546 30.0152 606.834 30.0455 607.084 30.0227C607.334 30 607.555 29.8883 607.749 29.6875C607.946 29.4905 608.125 29.1705 608.288 28.7273L608.538 28.0455L605.311 19.2727H606.766L609.175 26.2273H609.266L611.675 19.2727H613.129L609.425 29.2727C609.258 29.7235 609.052 30.0966 608.805 30.392C608.559 30.6913 608.273 30.9129 607.947 31.0568C607.625 31.2008 607.262 31.2727 606.857 31.2727Z" fill="#C0C0C3"/>
<rect x="638" y="8" width="28" height="28" rx="6" fill="#1D1D1D"/>
<path fill-rule="evenodd" clip-rule="evenodd" d="M645.703 15.5431C645.505 15.455 645.272 15.5048 645.128 15.6664C644.983 15.828 644.959 16.0645 645.068 16.252L648.421 22L645.068 27.7481C644.959 27.9355 644.983 28.172 645.128 28.3336C645.272 28.4952 645.505 28.545 645.703 28.4569L659.203 22.4569C659.384 22.3767 659.5 22.1976 659.5 22C659.5 21.8024 659.384 21.6234 659.203 21.5431L645.703 15.5431ZM649.346 21.6L646.712 17.086L657.769 22L646.712 26.914L649.346 22.4H653.5C653.721 22.4 653.9 22.2209 653.9 22C653.9 21.7791 653.721 21.6 653.5 21.6H649.346Z" fill="#C0C0C3"/>
<rect x="0.5" y="0.5" width="673" height="43" rx="7.5" stroke="#2D2D30"/>
</svg>
