<svg width="840" height="44" viewBox="0 0 840 44" fill="none" xmlns="http://www.w3.org/2000/svg">
<rect x="0.5" y="0.5" width="839" height="43" rx="7.5" fill="#222222"/>
<path d="M19.7727 19.2727C19.7045 18.697 19.428 18.25 18.9432 17.9318C18.4583 17.6136 17.8636 17.4545 17.1591 17.4545C16.6439 17.4545 16.1932 17.5379 15.8068 17.7045C15.4242 17.8712 15.125 18.1004 14.9091 18.392C14.697 18.6837 14.5909 19.0152 14.5909 19.3864C14.5909 19.697 14.6648 19.964 14.8125 20.1875C14.964 20.4072 15.1572 20.5909 15.392 20.7386C15.6269 20.8826 15.8731 21.0019 16.1307 21.0966C16.3883 21.1875 16.625 21.2614 16.8409 21.3182L18.0227 21.6364C18.3258 21.7159 18.6629 21.8258 19.0341 21.9659C19.4091 22.1061 19.767 22.2973 20.108 22.5398C20.4527 22.7784 20.7367 23.0852 20.9602 23.4602C21.1837 23.8352 21.2955 24.2955 21.2955 24.8409C21.2955 25.4697 21.1307 26.0379 20.8011 26.5455C20.4754 27.053 19.9981 27.4564 19.3693 27.7557C18.7443 28.0549 17.9848 28.2045 17.0909 28.2045C16.2576 28.2045 15.536 28.0701 14.9261 27.8011C14.3201 27.5322 13.8428 27.1572 13.4943 26.6761C13.1496 26.1951 12.9545 25.6364 12.9091 25H14.3636C14.4015 25.4394 14.5492 25.803 14.8068 26.0909C15.0682 26.375 15.3977 26.5871 15.7955 26.7273C16.197 26.8636 16.6288 26.9318 17.0909 26.9318C17.6288 26.9318 18.1117 26.8447 18.5398 26.6705C18.9678 26.4924 19.3068 26.2462 19.5568 25.9318C19.8068 25.6136 19.9318 25.2424 19.9318 24.8182C19.9318 24.4318 19.8239 24.1174 19.608 23.875C19.392 23.6326 19.108 23.4356 18.7557 23.2841C18.4034 23.1326 18.0227 23 17.6136 22.8864L16.1818 22.4773C15.2727 22.2159 14.553 21.8428 14.0227 21.358C13.4924 20.8731 13.2273 20.2386 13.2273 19.4545C13.2273 18.803 13.4034 18.2348 13.7557 17.75C14.1117 17.2614 14.589 16.8826 15.1875 16.6136C15.7898 16.3409 16.4621 16.2045 17.2045 16.2045C17.9545 16.2045 18.6212 16.339 19.2045 16.608C19.7879 16.8731 20.25 17.2367 20.5909 17.6989C20.9356 18.161 21.1174 18.6856 21.1364 19.2727H19.7727ZM28.9304 24.4318V19.2727H30.2713V28H28.9304V26.5227H28.8395C28.6349 26.9659 28.3168 27.3428 27.8849 27.6534C27.4531 27.9602 26.9077 28.1136 26.2486 28.1136C25.7031 28.1136 25.2183 27.9943 24.794 27.7557C24.3698 27.5133 24.0365 27.1496 23.794 26.6648C23.5516 26.1761 23.4304 25.5606 23.4304 24.8182V19.2727H24.7713V24.7273C24.7713 25.3636 24.9493 25.8712 25.3054 26.25C25.6652 26.6288 26.1236 26.8182 26.6804 26.8182C27.0137 26.8182 27.3527 26.733 27.6974 26.5625C28.0459 26.392 28.3376 26.1307 28.5724 25.7784C28.8111 25.4261 28.9304 24.9773 28.9304 24.4318ZM32.7273 28V19.2727H34.0227V20.6364H34.1364C34.3182 20.1705 34.6117 19.8087 35.017 19.5511C35.4223 19.2898 35.9091 19.1591 36.4773 19.1591C37.053 19.1591 37.5322 19.2898 37.9148 19.5511C38.3011 19.8087 38.6023 20.1705 38.8182 20.6364H38.9091C39.1326 20.1856 39.4678 19.8277 39.9148 19.5625C40.3617 19.2936 40.8977 19.1591 41.5227 19.1591C42.303 19.1591 42.9413 19.4034 43.4375 19.892C43.9337 20.3769 44.1818 21.1326 44.1818 22.1591V28H42.8409V22.1591C42.8409 21.5152 42.6648 21.0549 42.3125 20.7784C41.9602 20.5019 41.5455 20.3636 41.0682 20.3636C40.4545 20.3636 39.9792 20.5492 39.642 20.9205C39.3049 21.2879 39.1364 21.7538 39.1364 22.3182V28H37.7727V22.0227C37.7727 21.5265 37.6117 21.1269 37.2898 20.8239C36.9678 20.517 36.553 20.3636 36.0455 20.3636C35.697 20.3636 35.3712 20.4564 35.0682 20.642C34.7689 20.8277 34.5265 21.0852 34.3409 21.4148C34.1591 21.7405 34.0682 22.1174 34.0682 22.5455V28H32.7273ZM46.6335 28V19.2727H47.929V20.6364H48.0426C48.2244 20.1705 48.518 19.8087 48.9233 19.5511C49.3286 19.2898 49.8153 19.1591 50.3835 19.1591C50.9593 19.1591 51.4384 19.2898 51.821 19.5511C52.2074 19.8087 52.5085 20.1705 52.7244 20.6364H52.8153C53.0388 20.1856 53.3741 19.8277 53.821 19.5625C54.268 19.2936 54.804 19.1591 55.429 19.1591C56.2093 19.1591 56.8475 19.4034 57.3438 19.892C57.84 20.3769 58.0881 21.1326 58.0881 22.1591V28H56.7472V22.1591C56.7472 21.5152 56.571 21.0549 56.2188 20.7784C55.8665 20.5019 55.4517 20.3636 54.9744 20.3636C54.3608 20.3636 53.8854 20.5492 53.5483 20.9205C53.2112 21.2879 53.0426 21.7538 53.0426 22.3182V28H51.679V22.0227C51.679 21.5265 51.518 21.1269 51.196 20.8239C50.8741 20.517 50.4593 20.3636 49.9517 20.3636C49.6032 20.3636 49.2775 20.4564 48.9744 20.642C48.6752 20.8277 48.4328 21.0852 48.2472 21.4148C48.0653 21.7405 47.9744 22.1174 47.9744 22.5455V28H46.6335ZM63.108 28.2045C62.5549 28.2045 62.053 28.1004 61.6023 27.892C61.1515 27.6799 60.7936 27.375 60.5284 26.9773C60.2633 26.5758 60.1307 26.0909 60.1307 25.5227C60.1307 25.0227 60.2292 24.6174 60.4261 24.3068C60.6231 23.9924 60.8864 23.7462 61.2159 23.5682C61.5455 23.3902 61.9091 23.2576 62.3068 23.1705C62.7083 23.0795 63.1117 23.0076 63.517 22.9545C64.0473 22.8864 64.4773 22.8352 64.8068 22.8011C65.1402 22.7633 65.3826 22.7008 65.5341 22.6136C65.6894 22.5265 65.767 22.375 65.767 22.1591V22.1136C65.767 21.553 65.6136 21.1174 65.3068 20.8068C65.0038 20.4962 64.5436 20.3409 63.9261 20.3409C63.286 20.3409 62.7841 20.4811 62.4205 20.7614C62.0568 21.0417 61.8011 21.3409 61.6534 21.6591L60.3807 21.2045C60.608 20.6742 60.911 20.2614 61.2898 19.9659C61.6723 19.6667 62.089 19.4583 62.5398 19.3409C62.9943 19.2197 63.4413 19.1591 63.8807 19.1591C64.161 19.1591 64.483 19.1932 64.8466 19.2614C65.214 19.3258 65.5682 19.4602 65.9091 19.6648C66.2538 19.8693 66.5398 20.178 66.767 20.5909C66.9943 21.0038 67.108 21.5568 67.108 22.25V28H65.767V26.8182H65.6989C65.608 27.0076 65.4564 27.2102 65.2443 27.4261C65.0322 27.642 64.75 27.8258 64.3977 27.9773C64.0455 28.1288 63.6155 28.2045 63.108 28.2045ZM63.3125 27C63.8428 27 64.2898 26.8958 64.6534 26.6875C65.0208 26.4792 65.2973 26.2102 65.483 25.8807C65.6723 25.5511 65.767 25.2045 65.767 24.8409V23.6136C65.7102 23.6818 65.5852 23.7443 65.392 23.8011C65.2027 23.8542 64.983 23.9015 64.733 23.9432C64.4867 23.9811 64.2462 24.0152 64.0114 24.0455C63.7803 24.072 63.5928 24.0947 63.4489 24.1136C63.1004 24.1591 62.7746 24.233 62.4716 24.3352C62.1723 24.4337 61.9299 24.5833 61.7443 24.7841C61.5625 24.9811 61.4716 25.25 61.4716 25.5909C61.4716 26.0568 61.6439 26.4091 61.9886 26.6477C62.3371 26.8826 62.7784 27 63.3125 27ZM69.5554 28V19.2727H70.8509V20.5909H70.9418C71.1009 20.1591 71.3887 19.8087 71.8054 19.5398C72.2221 19.2708 72.6918 19.1364 73.2145 19.1364C73.313 19.1364 73.4361 19.1383 73.5838 19.142C73.7315 19.1458 73.8433 19.1515 73.919 19.1591V20.5227C73.8736 20.5114 73.7694 20.4943 73.6065 20.4716C73.4474 20.4451 73.2789 20.4318 73.1009 20.4318C72.6766 20.4318 72.2978 20.5208 71.9645 20.6989C71.6349 20.8731 71.3736 21.1155 71.1804 21.4261C70.991 21.733 70.8963 22.0833 70.8963 22.4773V28H69.5554ZM75.5085 28V19.2727H76.8494V28H75.5085ZM76.1903 17.8182C75.929 17.8182 75.7036 17.7292 75.5142 17.5511C75.3286 17.3731 75.2358 17.1591 75.2358 16.9091C75.2358 16.6591 75.3286 16.4451 75.5142 16.267C75.7036 16.089 75.929 16 76.1903 16C76.4517 16 76.6752 16.089 76.8608 16.267C77.0502 16.4451 77.1449 16.6591 77.1449 16.9091C77.1449 17.1591 77.0502 17.3731 76.8608 17.5511C76.6752 17.7292 76.4517 17.8182 76.1903 17.8182ZM79.0554 28V26.9773L84.0099 20.6136V20.5227H79.2145V19.2727H85.7372V20.3409L80.919 26.6591V26.75H85.8963V28H79.0554ZM91.3707 28.1818C90.5298 28.1818 89.8045 27.9962 89.1946 27.625C88.5885 27.25 88.1207 26.7273 87.7912 26.0568C87.4654 25.3826 87.3026 24.5985 87.3026 23.7045C87.3026 22.8106 87.4654 22.0227 87.7912 21.3409C88.1207 20.6553 88.5791 20.1212 89.1662 19.7386C89.7571 19.3523 90.4465 19.1591 91.2344 19.1591C91.6889 19.1591 92.1378 19.2348 92.581 19.3864C93.0241 19.5379 93.4276 19.7841 93.7912 20.125C94.1548 20.4621 94.4446 20.9091 94.6605 21.4659C94.8764 22.0227 94.9844 22.7083 94.9844 23.5227V24.0909H88.2571V22.9318H93.6207C93.6207 22.4394 93.5223 22 93.3253 21.6136C93.1321 21.2273 92.8556 20.9223 92.4957 20.6989C92.1397 20.4754 91.7192 20.3636 91.2344 20.3636C90.7003 20.3636 90.2382 20.4962 89.848 20.7614C89.4616 21.0227 89.1643 21.3636 88.956 21.7841C88.7476 22.2045 88.6435 22.6553 88.6435 23.1364V23.9091C88.6435 24.5682 88.7571 25.1269 88.9844 25.5852C89.2154 26.0398 89.5355 26.3864 89.9446 26.625C90.3537 26.8598 90.8291 26.9773 91.3707 26.9773C91.723 26.9773 92.0412 26.928 92.3253 26.8295C92.6132 26.7273 92.8613 26.5758 93.0696 26.375C93.2779 26.1705 93.4389 25.9167 93.5526 25.6136L94.848 25.9773C94.7116 26.4167 94.4825 26.803 94.1605 27.1364C93.8385 27.4659 93.4408 27.7235 92.9673 27.9091C92.4938 28.0909 91.9616 28.1818 91.3707 28.1818ZM101.524 28V19.2727H102.82V20.5909H102.911C103.07 20.1591 103.357 19.8087 103.774 19.5398C104.191 19.2708 104.661 19.1364 105.183 19.1364C105.282 19.1364 105.405 19.1383 105.553 19.142C105.7 19.1458 105.812 19.1515 105.888 19.1591V20.5227C105.842 20.5114 105.738 20.4943 105.575 20.4716C105.416 20.4451 105.248 20.4318 105.07 20.4318C104.645 20.4318 104.267 20.5208 103.933 20.6989C103.604 20.8731 103.342 21.1155 103.149 21.4261C102.96 21.733 102.865 22.0833 102.865 22.4773V28H101.524ZM110.871 28.1818C110.03 28.1818 109.304 27.9962 108.695 27.625C108.089 27.25 107.621 26.7273 107.291 26.0568C106.965 25.3826 106.803 24.5985 106.803 23.7045C106.803 22.8106 106.965 22.0227 107.291 21.3409C107.621 20.6553 108.079 20.1212 108.666 19.7386C109.257 19.3523 109.946 19.1591 110.734 19.1591C111.189 19.1591 111.638 19.2348 112.081 19.3864C112.524 19.5379 112.928 19.7841 113.291 20.125C113.655 20.4621 113.945 20.9091 114.161 21.4659C114.376 22.0227 114.484 22.7083 114.484 23.5227V24.0909H107.757V22.9318H113.121C113.121 22.4394 113.022 22 112.825 21.6136C112.632 21.2273 112.356 20.9223 111.996 20.6989C111.64 20.4754 111.219 20.3636 110.734 20.3636C110.2 20.3636 109.738 20.4962 109.348 20.7614C108.962 21.0227 108.664 21.3636 108.456 21.7841C108.248 22.2045 108.143 22.6553 108.143 23.1364V23.9091C108.143 24.5682 108.257 25.1269 108.484 25.5852C108.715 26.0398 109.036 26.3864 109.445 26.625C109.854 26.8598 110.329 26.9773 110.871 26.9773C111.223 26.9773 111.541 26.928 111.825 26.8295C112.113 26.7273 112.361 26.5758 112.57 26.375C112.778 26.1705 112.939 25.9167 113.053 25.6136L114.348 25.9773C114.212 26.4167 113.982 26.803 113.661 27.1364C113.339 27.4659 112.941 27.7235 112.467 27.9091C111.994 28.0909 111.462 28.1818 110.871 28.1818ZM120.07 28.1818C119.251 28.1818 118.547 27.9886 117.956 27.6023C117.365 27.2159 116.911 26.6837 116.592 26.0057C116.274 25.3277 116.115 24.553 116.115 23.6818C116.115 22.7955 116.278 22.0133 116.604 21.3352C116.933 20.6534 117.392 20.1212 117.979 19.7386C118.57 19.3523 119.259 19.1591 120.047 19.1591C120.661 19.1591 121.214 19.2727 121.706 19.5C122.198 19.7273 122.602 20.0455 122.916 20.4545C123.231 20.8636 123.426 21.3409 123.501 21.8864H122.161C122.058 21.4886 121.831 21.1364 121.479 20.8295C121.13 20.5189 120.661 20.3636 120.07 20.3636C119.547 20.3636 119.089 20.5 118.695 20.7727C118.304 21.0417 118 21.4223 117.78 21.9148C117.564 22.4034 117.456 22.9773 117.456 23.6364C117.456 24.3106 117.562 24.8977 117.774 25.3977C117.99 25.8977 118.293 26.286 118.683 26.5625C119.077 26.839 119.539 26.9773 120.07 26.9773C120.418 26.9773 120.734 26.9167 121.018 26.7955C121.303 26.6742 121.543 26.5 121.74 26.2727C121.937 26.0455 122.077 25.7727 122.161 25.4545H123.501C123.426 25.9697 123.238 26.4337 122.939 26.8466C122.643 27.2557 122.251 27.5814 121.763 27.8239C121.278 28.0625 120.714 28.1818 120.07 28.1818ZM129.121 28.1818C128.28 28.1818 127.554 27.9962 126.945 27.625C126.339 27.25 125.871 26.7273 125.541 26.0568C125.215 25.3826 125.053 24.5985 125.053 23.7045C125.053 22.8106 125.215 22.0227 125.541 21.3409C125.871 20.6553 126.329 20.1212 126.916 19.7386C127.507 19.3523 128.196 19.1591 128.984 19.1591C129.439 19.1591 129.888 19.2348 130.331 19.3864C130.774 19.5379 131.178 19.7841 131.541 20.125C131.905 20.4621 132.195 20.9091 132.411 21.4659C132.626 22.0227 132.734 22.7083 132.734 23.5227V24.0909H126.007V22.9318H131.371C131.371 22.4394 131.272 22 131.075 21.6136C130.882 21.2273 130.606 20.9223 130.246 20.6989C129.89 20.4754 129.469 20.3636 128.984 20.3636C128.45 20.3636 127.988 20.4962 127.598 20.7614C127.212 21.0227 126.914 21.3636 126.706 21.7841C126.498 22.2045 126.393 22.6553 126.393 23.1364V23.9091C126.393 24.5682 126.507 25.1269 126.734 25.5852C126.965 26.0398 127.286 26.3864 127.695 26.625C128.104 26.8598 128.579 26.9773 129.121 26.9773C129.473 26.9773 129.791 26.928 130.075 26.8295C130.363 26.7273 130.611 26.5758 130.82 26.375C131.028 26.1705 131.189 25.9167 131.303 25.6136L132.598 25.9773C132.462 26.4167 132.232 26.803 131.911 27.1364C131.589 27.4659 131.191 27.7235 130.717 27.9091C130.244 28.0909 129.712 28.1818 129.121 28.1818ZM136.115 22.75V28H134.774V19.2727H136.07V20.6364H136.183C136.388 20.1932 136.698 19.8371 137.115 19.5682C137.532 19.2955 138.07 19.1591 138.729 19.1591C139.32 19.1591 139.837 19.2803 140.28 19.5227C140.723 19.7614 141.068 20.125 141.314 20.6136C141.56 21.0985 141.683 21.7121 141.683 22.4545V28H140.342V22.5455C140.342 21.8598 140.164 21.3258 139.808 20.9432C139.452 20.5568 138.964 20.3636 138.342 20.3636C137.914 20.3636 137.532 20.4564 137.195 20.642C136.861 20.8277 136.598 21.0985 136.405 21.4545C136.212 21.8106 136.115 22.2424 136.115 22.75ZM147.929 19.2727V20.4091H143.406V19.2727H147.929ZM144.724 17.1818H146.065V25.5C146.065 25.8788 146.12 26.1629 146.23 26.3523C146.344 26.5379 146.488 26.6629 146.662 26.7273C146.84 26.7879 147.027 26.8182 147.224 26.8182C147.372 26.8182 147.493 26.8106 147.588 26.7955C147.683 26.7765 147.759 26.7614 147.815 26.75L148.088 27.9545C147.997 27.9886 147.87 28.0227 147.707 28.0568C147.545 28.0947 147.338 28.1136 147.088 28.1136C146.709 28.1136 146.338 28.0322 145.974 27.8693C145.615 27.7064 145.315 27.4583 145.077 27.125C144.842 26.7917 144.724 26.3712 144.724 25.8636V17.1818ZM157.991 28.1818C157.173 28.1818 156.469 27.9886 155.878 27.6023C155.287 27.2159 154.832 26.6837 154.514 26.0057C154.196 25.3277 154.037 24.553 154.037 23.6818C154.037 22.7955 154.2 22.0133 154.526 21.3352C154.855 20.6534 155.313 20.1212 155.901 19.7386C156.491 19.3523 157.181 19.1591 157.969 19.1591C158.582 19.1591 159.135 19.2727 159.628 19.5C160.12 19.7273 160.524 20.0455 160.838 20.4545C161.152 20.8636 161.348 21.3409 161.423 21.8864H160.082C159.98 21.4886 159.753 21.1364 159.401 20.8295C159.052 20.5189 158.582 20.3636 157.991 20.3636C157.469 20.3636 157.01 20.5 156.616 20.7727C156.226 21.0417 155.921 21.4223 155.702 21.9148C155.486 22.4034 155.378 22.9773 155.378 23.6364C155.378 24.3106 155.484 24.8977 155.696 25.3977C155.912 25.8977 156.215 26.286 156.605 26.5625C156.999 26.839 157.461 26.9773 157.991 26.9773C158.34 26.9773 158.656 26.9167 158.94 26.7955C159.224 26.6742 159.465 26.5 159.662 26.2727C159.859 26.0455 159.999 25.7727 160.082 25.4545H161.423C161.348 25.9697 161.16 26.4337 160.861 26.8466C160.565 27.2557 160.173 27.5814 159.685 27.8239C159.2 28.0625 158.635 28.1818 157.991 28.1818ZM166.929 28.1818C166.141 28.1818 165.45 27.9943 164.855 27.6193C164.264 27.2443 163.802 26.7197 163.469 26.0455C163.139 25.3712 162.974 24.5833 162.974 23.6818C162.974 22.7727 163.139 21.9792 163.469 21.3011C163.802 20.6231 164.264 20.0966 164.855 19.7216C165.45 19.3466 166.141 19.1591 166.929 19.1591C167.717 19.1591 168.406 19.3466 168.997 19.7216C169.592 20.0966 170.054 20.6231 170.384 21.3011C170.717 21.9792 170.884 22.7727 170.884 23.6818C170.884 24.5833 170.717 25.3712 170.384 26.0455C170.054 26.7197 169.592 27.2443 168.997 27.6193C168.406 27.9943 167.717 28.1818 166.929 28.1818ZM166.929 26.9773C167.527 26.9773 168.02 26.8239 168.406 26.517C168.793 26.2102 169.079 25.8068 169.264 25.3068C169.45 24.8068 169.543 24.2652 169.543 23.6818C169.543 23.0985 169.45 22.5549 169.264 22.0511C169.079 21.5473 168.793 21.1402 168.406 20.8295C168.02 20.5189 167.527 20.3636 166.929 20.3636C166.33 20.3636 165.838 20.5189 165.452 20.8295C165.065 21.1402 164.779 21.5473 164.594 22.0511C164.408 22.5549 164.315 23.0985 164.315 23.6818C164.315 24.2652 164.408 24.8068 164.594 25.3068C164.779 25.8068 165.065 26.2102 165.452 26.517C165.838 26.8239 166.33 26.9773 166.929 26.9773ZM178.43 24.4318V19.2727H179.771V28H178.43V26.5227H178.339C178.135 26.9659 177.817 27.3428 177.385 27.6534C176.953 27.9602 176.408 28.1136 175.749 28.1136C175.203 28.1136 174.718 27.9943 174.294 27.7557C173.87 27.5133 173.536 27.1496 173.294 26.6648C173.052 26.1761 172.93 25.5606 172.93 24.8182V19.2727H174.271V24.7273C174.271 25.3636 174.449 25.8712 174.805 26.25C175.165 26.6288 175.624 26.8182 176.18 26.8182C176.514 26.8182 176.853 26.733 177.197 26.5625C177.546 26.392 177.838 26.1307 178.072 25.7784C178.311 25.4261 178.43 24.9773 178.43 24.4318ZM182.227 28V19.2727H183.523V20.5909H183.614C183.773 20.1591 184.061 19.8087 184.477 19.5398C184.894 19.2708 185.364 19.1364 185.886 19.1364C185.985 19.1364 186.108 19.1383 186.256 19.142C186.403 19.1458 186.515 19.1515 186.591 19.1591V20.5227C186.545 20.5114 186.441 20.4943 186.278 20.4716C186.119 20.4451 185.951 20.4318 185.773 20.4318C185.348 20.4318 184.97 20.5208 184.636 20.6989C184.307 20.8731 184.045 21.1155 183.852 21.4261C183.663 21.733 183.568 22.0833 183.568 22.4773V28H182.227ZM192.523 19.2727V20.4091H188V19.2727H192.523ZM189.318 17.1818H190.659V25.5C190.659 25.8788 190.714 26.1629 190.824 26.3523C190.938 26.5379 191.081 26.6629 191.256 26.7273C191.434 26.7879 191.621 26.8182 191.818 26.8182C191.966 26.8182 192.087 26.8106 192.182 26.7955C192.277 26.7765 192.352 26.7614 192.409 26.75L192.682 27.9545C192.591 27.9886 192.464 28.0227 192.301 28.0568C192.138 28.0947 191.932 28.1136 191.682 28.1136C191.303 28.1136 190.932 28.0322 190.568 27.8693C190.208 27.7064 189.909 27.4583 189.67 27.125C189.436 26.7917 189.318 26.3712 189.318 25.8636V17.1818ZM202.335 28.1818C201.608 28.1818 200.966 27.9981 200.409 27.6307C199.852 27.2595 199.417 26.7367 199.102 26.0625C198.788 25.3845 198.631 24.5833 198.631 23.6591C198.631 22.7424 198.788 21.947 199.102 21.2727C199.417 20.5985 199.854 20.0777 200.415 19.7102C200.975 19.3428 201.623 19.1591 202.358 19.1591C202.926 19.1591 203.375 19.2538 203.705 19.4432C204.038 19.6288 204.292 19.8409 204.466 20.0795C204.644 20.3144 204.782 20.5076 204.881 20.6591H204.994V16.3636H206.335V28H205.04V26.6591H204.881C204.782 26.8182 204.642 27.0189 204.46 27.2614C204.278 27.5 204.019 27.714 203.682 27.9034C203.345 28.089 202.896 28.1818 202.335 28.1818ZM202.517 26.9773C203.055 26.9773 203.509 26.8371 203.881 26.5568C204.252 26.2727 204.534 25.8807 204.727 25.3807C204.92 24.8769 205.017 24.2955 205.017 23.6364C205.017 22.9848 204.922 22.4148 204.733 21.9261C204.544 21.4337 204.263 21.0511 203.892 20.7784C203.521 20.5019 203.063 20.3636 202.517 20.3636C201.949 20.3636 201.475 20.5095 201.097 20.8011C200.722 21.089 200.439 21.4811 200.25 21.9773C200.064 22.4697 199.972 23.0227 199.972 23.6364C199.972 24.2576 200.066 24.822 200.256 25.3295C200.449 25.8333 200.733 26.2348 201.108 26.5341C201.487 26.8295 201.956 26.9773 202.517 26.9773ZM212.636 28.1818C211.795 28.1818 211.07 27.9962 210.46 27.625C209.854 27.25 209.386 26.7273 209.057 26.0568C208.731 25.3826 208.568 24.5985 208.568 23.7045C208.568 22.8106 208.731 22.0227 209.057 21.3409C209.386 20.6553 209.845 20.1212 210.432 19.7386C211.023 19.3523 211.712 19.1591 212.5 19.1591C212.955 19.1591 213.403 19.2348 213.847 19.3864C214.29 19.5379 214.693 19.7841 215.057 20.125C215.42 20.4621 215.71 20.9091 215.926 21.4659C216.142 22.0227 216.25 22.7083 216.25 23.5227V24.0909H209.523V22.9318H214.886C214.886 22.4394 214.788 22 214.591 21.6136C214.398 21.2273 214.121 20.9223 213.761 20.6989C213.405 20.4754 212.985 20.3636 212.5 20.3636C211.966 20.3636 211.504 20.4962 211.114 20.7614C210.727 21.0227 210.43 21.3636 210.222 21.7841C210.013 22.2045 209.909 22.6553 209.909 23.1364V23.9091C209.909 24.5682 210.023 25.1269 210.25 25.5852C210.481 26.0398 210.801 26.3864 211.21 26.625C211.619 26.8598 212.095 26.9773 212.636 26.9773C212.989 26.9773 213.307 26.928 213.591 26.8295C213.879 26.7273 214.127 26.5758 214.335 26.375C214.544 26.1705 214.705 25.9167 214.818 25.6136L216.114 25.9773C215.977 26.4167 215.748 26.803 215.426 27.1364C215.104 27.4659 214.706 27.7235 214.233 27.9091C213.759 28.0909 213.227 28.1818 212.636 28.1818ZM221.835 28.1818C221.017 28.1818 220.313 27.9886 219.722 27.6023C219.131 27.2159 218.676 26.6837 218.358 26.0057C218.04 25.3277 217.881 24.553 217.881 23.6818C217.881 22.7955 218.044 22.0133 218.369 21.3352C218.699 20.6534 219.157 20.1212 219.744 19.7386C220.335 19.3523 221.025 19.1591 221.812 19.1591C222.426 19.1591 222.979 19.2727 223.472 19.5C223.964 19.7273 224.367 20.0455 224.682 20.4545C224.996 20.8636 225.191 21.3409 225.267 21.8864H223.926C223.824 21.4886 223.597 21.1364 223.244 20.8295C222.896 20.5189 222.426 20.3636 221.835 20.3636C221.313 20.3636 220.854 20.5 220.46 20.7727C220.07 21.0417 219.765 21.4223 219.545 21.9148C219.33 22.4034 219.222 22.9773 219.222 23.6364C219.222 24.3106 219.328 24.8977 219.54 25.3977C219.756 25.8977 220.059 26.286 220.449 26.5625C220.843 26.839 221.305 26.9773 221.835 26.9773C222.184 26.9773 222.5 26.9167 222.784 26.7955C223.068 26.6742 223.309 26.5 223.506 26.2727C223.703 26.0455 223.843 25.7727 223.926 25.4545H225.267C225.191 25.9697 225.004 26.4337 224.705 26.8466C224.409 27.2557 224.017 27.5814 223.528 27.8239C223.044 28.0625 222.479 28.1818 221.835 28.1818ZM227.227 28V19.2727H228.568V28H227.227ZM227.909 17.8182C227.648 17.8182 227.422 17.7292 227.233 17.5511C227.047 17.3731 226.955 17.1591 226.955 16.9091C226.955 16.6591 227.047 16.4451 227.233 16.267C227.422 16.089 227.648 16 227.909 16C228.17 16 228.394 16.089 228.58 16.267C228.769 16.4451 228.864 16.6591 228.864 16.9091C228.864 17.1591 228.769 17.3731 228.58 17.5511C228.394 17.7292 228.17 17.8182 227.909 17.8182ZM237.206 21.2273L236.001 21.5682C235.926 21.3674 235.814 21.1723 235.666 20.983C235.522 20.7898 235.325 20.6307 235.075 20.5057C234.825 20.3807 234.505 20.3182 234.115 20.3182C233.581 20.3182 233.136 20.4413 232.78 20.6875C232.428 20.9299 232.251 21.2386 232.251 21.6136C232.251 21.947 232.373 22.2102 232.615 22.4034C232.857 22.5966 233.236 22.7576 233.751 22.8864L235.047 23.2045C235.827 23.3939 236.409 23.6837 236.791 24.0739C237.174 24.4602 237.365 24.9583 237.365 25.5682C237.365 26.0682 237.221 26.5152 236.933 26.9091C236.649 27.303 236.251 27.6136 235.74 27.8409C235.229 28.0682 234.634 28.1818 233.956 28.1818C233.066 28.1818 232.329 27.9886 231.746 27.6023C231.162 27.2159 230.793 26.6515 230.638 25.9091L231.911 25.5909C232.032 26.0606 232.261 26.4129 232.598 26.6477C232.939 26.8826 233.384 27 233.933 27C234.558 27 235.054 26.8674 235.422 26.6023C235.793 26.3333 235.979 26.0114 235.979 25.6364C235.979 25.3333 235.873 25.0795 235.661 24.875C235.448 24.6667 235.123 24.5114 234.683 24.4091L233.229 24.0682C232.429 23.8788 231.842 23.5852 231.467 23.1875C231.096 22.786 230.911 22.2841 230.911 21.6818C230.911 21.1894 231.049 20.7538 231.325 20.375C231.606 19.9962 231.986 19.6989 232.467 19.483C232.952 19.267 233.501 19.1591 234.115 19.1591C234.979 19.1591 235.657 19.3485 236.149 19.7273C236.645 20.1061 236.998 20.6061 237.206 21.2273ZM239.384 28V19.2727H240.724V28H239.384ZM240.065 17.8182C239.804 17.8182 239.579 17.7292 239.389 17.5511C239.204 17.3731 239.111 17.1591 239.111 16.9091C239.111 16.6591 239.204 16.4451 239.389 16.267C239.579 16.089 239.804 16 240.065 16C240.327 16 240.55 16.089 240.736 16.267C240.925 16.4451 241.02 16.6591 241.02 16.9091C241.02 17.1591 240.925 17.3731 240.736 17.5511C240.55 17.7292 240.327 17.8182 240.065 17.8182ZM246.726 28.1818C245.938 28.1818 245.247 27.9943 244.652 27.6193C244.061 27.2443 243.599 26.7197 243.266 26.0455C242.936 25.3712 242.771 24.5833 242.771 23.6818C242.771 22.7727 242.936 21.9792 243.266 21.3011C243.599 20.6231 244.061 20.0966 244.652 19.7216C245.247 19.3466 245.938 19.1591 246.726 19.1591C247.514 19.1591 248.203 19.3466 248.794 19.7216C249.389 20.0966 249.851 20.6231 250.18 21.3011C250.514 21.9792 250.68 22.7727 250.68 23.6818C250.68 24.5833 250.514 25.3712 250.18 26.0455C249.851 26.7197 249.389 27.2443 248.794 27.6193C248.203 27.9943 247.514 28.1818 246.726 28.1818ZM246.726 26.9773C247.324 26.9773 247.817 26.8239 248.203 26.517C248.589 26.2102 248.875 25.8068 249.061 25.3068C249.247 24.8068 249.339 24.2652 249.339 23.6818C249.339 23.0985 249.247 22.5549 249.061 22.0511C248.875 21.5473 248.589 21.1402 248.203 20.8295C247.817 20.5189 247.324 20.3636 246.726 20.3636C246.127 20.3636 245.635 20.5189 245.249 20.8295C244.862 21.1402 244.576 21.5473 244.391 22.0511C244.205 22.5549 244.112 23.0985 244.112 23.6818C244.112 24.2652 244.205 24.8068 244.391 25.3068C244.576 25.8068 244.862 26.2102 245.249 26.517C245.635 26.8239 246.127 26.9773 246.726 26.9773ZM254.068 22.75V28H252.727V19.2727H254.023V20.6364H254.136C254.341 20.1932 254.652 19.8371 255.068 19.5682C255.485 19.2955 256.023 19.1591 256.682 19.1591C257.273 19.1591 257.79 19.2803 258.233 19.5227C258.676 19.7614 259.021 20.125 259.267 20.6136C259.513 21.0985 259.636 21.7121 259.636 22.4545V28H258.295V22.5455C258.295 21.8598 258.117 21.3258 257.761 20.9432C257.405 20.5568 256.917 20.3636 256.295 20.3636C255.867 20.3636 255.485 20.4564 255.148 20.642C254.814 20.8277 254.551 21.0985 254.358 21.4545C254.165 21.8106 254.068 22.2424 254.068 22.75ZM268.268 21.2273L267.064 21.5682C266.988 21.3674 266.876 21.1723 266.729 20.983C266.585 20.7898 266.388 20.6307 266.138 20.5057C265.888 20.3807 265.568 20.3182 265.178 20.3182C264.643 20.3182 264.198 20.4413 263.842 20.6875C263.49 20.9299 263.314 21.2386 263.314 21.6136C263.314 21.947 263.435 22.2102 263.678 22.4034C263.92 22.5966 264.299 22.7576 264.814 22.8864L266.109 23.2045C266.89 23.3939 267.471 23.6837 267.854 24.0739C268.236 24.4602 268.428 24.9583 268.428 25.5682C268.428 26.0682 268.284 26.5152 267.996 26.9091C267.712 27.303 267.314 27.6136 266.803 27.8409C266.291 28.0682 265.696 28.1818 265.018 28.1818C264.128 28.1818 263.392 27.9886 262.808 27.6023C262.225 27.2159 261.856 26.6515 261.7 25.9091L262.973 25.5909C263.094 26.0606 263.323 26.4129 263.661 26.6477C264.001 26.8826 264.446 27 264.996 27C265.621 27 266.117 26.8674 266.484 26.6023C266.856 26.3333 267.041 26.0114 267.041 25.6364C267.041 25.3333 266.935 25.0795 266.723 24.875C266.511 24.6667 266.185 24.5114 265.746 24.4091L264.291 24.0682C263.492 23.8788 262.905 23.5852 262.53 23.1875C262.159 22.786 261.973 22.2841 261.973 21.6818C261.973 21.1894 262.111 20.7538 262.388 20.375C262.668 19.9962 263.049 19.6989 263.53 19.483C264.015 19.267 264.564 19.1591 265.178 19.1591C266.041 19.1591 266.719 19.3485 267.212 19.7273C267.708 20.1061 268.06 20.6061 268.268 21.2273ZM278.491 28.1818C277.704 28.1818 277.012 27.9943 276.418 27.6193C275.827 27.2443 275.365 26.7197 275.031 26.0455C274.702 25.3712 274.537 24.5833 274.537 23.6818C274.537 22.7727 274.702 21.9792 275.031 21.3011C275.365 20.6231 275.827 20.0966 276.418 19.7216C277.012 19.3466 277.704 19.1591 278.491 19.1591C279.279 19.1591 279.969 19.3466 280.56 19.7216C281.154 20.0966 281.616 20.6231 281.946 21.3011C282.279 21.9792 282.446 22.7727 282.446 23.6818C282.446 24.5833 282.279 25.3712 281.946 26.0455C281.616 26.7197 281.154 27.2443 280.56 27.6193C279.969 27.9943 279.279 28.1818 278.491 28.1818ZM278.491 26.9773C279.09 26.9773 279.582 26.8239 279.969 26.517C280.355 26.2102 280.641 25.8068 280.827 25.3068C281.012 24.8068 281.105 24.2652 281.105 23.6818C281.105 23.0985 281.012 22.5549 280.827 22.0511C280.641 21.5473 280.355 21.1402 279.969 20.8295C279.582 20.5189 279.09 20.3636 278.491 20.3636C277.893 20.3636 277.401 20.5189 277.014 20.8295C276.628 21.1402 276.342 21.5473 276.156 22.0511C275.971 22.5549 275.878 23.0985 275.878 23.6818C275.878 24.2652 275.971 24.8068 276.156 25.3068C276.342 25.8068 276.628 26.2102 277.014 26.517C277.401 26.8239 277.893 26.9773 278.491 26.9773ZM285.834 22.75V28H284.493V19.2727H285.788V20.6364H285.902C286.107 20.1932 286.417 19.8371 286.834 19.5682C287.25 19.2955 287.788 19.1591 288.447 19.1591C289.038 19.1591 289.555 19.2803 289.999 19.5227C290.442 19.7614 290.786 20.125 291.033 20.6136C291.279 21.0985 291.402 21.7121 291.402 22.4545V28H290.061V22.5455C290.061 21.8598 289.883 21.3258 289.527 20.9432C289.171 20.5568 288.682 20.3636 288.061 20.3636C287.633 20.3636 287.25 20.4564 286.913 20.642C286.58 20.8277 286.317 21.0985 286.124 21.4545C285.93 21.8106 285.834 22.2424 285.834 22.75ZM301.898 28.1818C301.11 28.1818 300.419 27.9943 299.824 27.6193C299.233 27.2443 298.771 26.7197 298.438 26.0455C298.108 25.3712 297.943 24.5833 297.943 23.6818C297.943 22.7727 298.108 21.9792 298.438 21.3011C298.771 20.6231 299.233 20.0966 299.824 19.7216C300.419 19.3466 301.11 19.1591 301.898 19.1591C302.686 19.1591 303.375 19.3466 303.966 19.7216C304.561 20.0966 305.023 20.6231 305.352 21.3011C305.686 21.9792 305.852 22.7727 305.852 23.6818C305.852 24.5833 305.686 25.3712 305.352 26.0455C305.023 26.7197 304.561 27.2443 303.966 27.6193C303.375 27.9943 302.686 28.1818 301.898 28.1818ZM301.898 26.9773C302.496 26.9773 302.989 26.8239 303.375 26.517C303.761 26.2102 304.047 25.8068 304.233 25.3068C304.419 24.8068 304.511 24.2652 304.511 23.6818C304.511 23.0985 304.419 22.5549 304.233 22.0511C304.047 21.5473 303.761 21.1402 303.375 20.8295C302.989 20.5189 302.496 20.3636 301.898 20.3636C301.299 20.3636 300.807 20.5189 300.42 20.8295C300.034 21.1402 299.748 21.5473 299.562 22.0511C299.377 22.5549 299.284 23.0985 299.284 23.6818C299.284 24.2652 299.377 24.8068 299.562 25.3068C299.748 25.8068 300.034 26.2102 300.42 26.517C300.807 26.8239 301.299 26.9773 301.898 26.9773ZM309.24 22.75V28H307.899V19.2727H309.195V20.6364H309.308C309.513 20.1932 309.823 19.8371 310.24 19.5682C310.657 19.2955 311.195 19.1591 311.854 19.1591C312.445 19.1591 312.962 19.2803 313.405 19.5227C313.848 19.7614 314.193 20.125 314.439 20.6136C314.685 21.0985 314.808 21.7121 314.808 22.4545V28H313.467V22.5455C313.467 21.8598 313.289 21.3258 312.933 20.9432C312.577 20.5568 312.089 20.3636 311.467 20.3636C311.039 20.3636 310.657 20.4564 310.32 20.642C309.986 20.8277 309.723 21.0985 309.53 21.4545C309.337 21.8106 309.24 22.2424 309.24 22.75ZM318.599 16.3636V28H317.259V16.3636H318.599ZM321.055 28V19.2727H322.396V28H321.055ZM321.737 17.8182C321.476 17.8182 321.25 17.7292 321.061 17.5511C320.875 17.3731 320.783 17.1591 320.783 16.9091C320.783 16.6591 320.875 16.4451 321.061 16.267C321.25 16.089 321.476 16 321.737 16C321.999 16 322.222 16.089 322.408 16.267C322.597 16.4451 322.692 16.6591 322.692 16.9091C322.692 17.1591 322.597 17.3731 322.408 17.5511C322.222 17.7292 321.999 17.8182 321.737 17.8182ZM326.193 22.75V28H324.852V19.2727H326.148V20.6364H326.261C326.466 20.1932 326.777 19.8371 327.193 19.5682C327.61 19.2955 328.148 19.1591 328.807 19.1591C329.398 19.1591 329.915 19.2803 330.358 19.5227C330.801 19.7614 331.146 20.125 331.392 20.6136C331.638 21.0985 331.761 21.7121 331.761 22.4545V28H330.42V22.5455C330.42 21.8598 330.242 21.3258 329.886 20.9432C329.53 20.5568 329.042 20.3636 328.42 20.3636C327.992 20.3636 327.61 20.4564 327.273 20.642C326.939 20.8277 326.676 21.0985 326.483 21.4545C326.29 21.8106 326.193 22.2424 326.193 22.75ZM337.871 28.1818C337.03 28.1818 336.304 27.9962 335.695 27.625C335.089 27.25 334.621 26.7273 334.291 26.0568C333.965 25.3826 333.803 24.5985 333.803 23.7045C333.803 22.8106 333.965 22.0227 334.291 21.3409C334.621 20.6553 335.079 20.1212 335.666 19.7386C336.257 19.3523 336.946 19.1591 337.734 19.1591C338.189 19.1591 338.638 19.2348 339.081 19.3864C339.524 19.5379 339.928 19.7841 340.291 20.125C340.655 20.4621 340.945 20.9091 341.161 21.4659C341.376 22.0227 341.484 22.7083 341.484 23.5227V24.0909H334.757V22.9318H340.121C340.121 22.4394 340.022 22 339.825 21.6136C339.632 21.2273 339.356 20.9223 338.996 20.6989C338.64 20.4754 338.219 20.3636 337.734 20.3636C337.2 20.3636 336.738 20.4962 336.348 20.7614C335.962 21.0227 335.664 21.3636 335.456 21.7841C335.248 22.2045 335.143 22.6553 335.143 23.1364V23.9091C335.143 24.5682 335.257 25.1269 335.484 25.5852C335.715 26.0398 336.036 26.3864 336.445 26.625C336.854 26.8598 337.329 26.9773 337.871 26.9773C338.223 26.9773 338.541 26.928 338.825 26.8295C339.113 26.7273 339.361 26.5758 339.57 26.375C339.778 26.1705 339.939 25.9167 340.053 25.6136L341.348 25.9773C341.212 26.4167 340.982 26.803 340.661 27.1364C340.339 27.4659 339.941 27.7235 339.467 27.9091C338.994 28.0909 338.462 28.1818 337.871 28.1818ZM351.32 28.1818C350.592 28.1818 349.95 27.9981 349.393 27.6307C348.837 27.2595 348.401 26.7367 348.087 26.0625C347.772 25.3845 347.615 24.5833 347.615 23.6591C347.615 22.7424 347.772 21.947 348.087 21.2727C348.401 20.5985 348.839 20.0777 349.399 19.7102C349.96 19.3428 350.607 19.1591 351.342 19.1591C351.911 19.1591 352.359 19.2538 352.689 19.4432C353.022 19.6288 353.276 19.8409 353.45 20.0795C353.628 20.3144 353.767 20.5076 353.865 20.6591H353.979V16.3636H355.32V28H354.024V26.6591H353.865C353.767 26.8182 353.626 27.0189 353.445 27.2614C353.263 27.5 353.003 27.714 352.666 27.9034C352.329 28.089 351.88 28.1818 351.32 28.1818ZM351.501 26.9773C352.039 26.9773 352.494 26.8371 352.865 26.5568C353.236 26.2727 353.518 25.8807 353.712 25.3807C353.905 24.8769 354.001 24.2955 354.001 23.6364C354.001 22.9848 353.907 22.4148 353.717 21.9261C353.528 21.4337 353.248 21.0511 352.876 20.7784C352.505 20.5019 352.047 20.3636 351.501 20.3636C350.933 20.3636 350.46 20.5095 350.081 20.8011C349.706 21.089 349.424 21.4811 349.234 21.9773C349.049 22.4697 348.956 23.0227 348.956 23.6364C348.956 24.2576 349.051 24.822 349.24 25.3295C349.433 25.8333 349.717 26.2348 350.092 26.5341C350.471 26.8295 350.941 26.9773 351.501 26.9773ZM361.621 28.1818C360.78 28.1818 360.054 27.9962 359.445 27.625C358.839 27.25 358.371 26.7273 358.041 26.0568C357.715 25.3826 357.553 24.5985 357.553 23.7045C357.553 22.8106 357.715 22.0227 358.041 21.3409C358.371 20.6553 358.829 20.1212 359.416 19.7386C360.007 19.3523 360.696 19.1591 361.484 19.1591C361.939 19.1591 362.388 19.2348 362.831 19.3864C363.274 19.5379 363.678 19.7841 364.041 20.125C364.405 20.4621 364.695 20.9091 364.911 21.4659C365.126 22.0227 365.234 22.7083 365.234 23.5227V24.0909H358.507V22.9318H363.871C363.871 22.4394 363.772 22 363.575 21.6136C363.382 21.2273 363.106 20.9223 362.746 20.6989C362.39 20.4754 361.969 20.3636 361.484 20.3636C360.95 20.3636 360.488 20.4962 360.098 20.7614C359.712 21.0227 359.414 21.3636 359.206 21.7841C358.998 22.2045 358.893 22.6553 358.893 23.1364V23.9091C358.893 24.5682 359.007 25.1269 359.234 25.5852C359.465 26.0398 359.786 26.3864 360.195 26.625C360.604 26.8598 361.079 26.9773 361.621 26.9773C361.973 26.9773 362.291 26.928 362.575 26.8295C362.863 26.7273 363.111 26.5758 363.32 26.375C363.528 26.1705 363.689 25.9167 363.803 25.6136L365.098 25.9773C364.962 26.4167 364.732 26.803 364.411 27.1364C364.089 27.4659 363.691 27.7235 363.217 27.9091C362.744 28.0909 362.212 28.1818 361.621 28.1818ZM371.161 19.2727V20.4091H366.456V19.2727H371.161ZM367.865 28V18.0682C367.865 17.5682 367.982 17.1515 368.217 16.8182C368.452 16.4848 368.757 16.2348 369.132 16.0682C369.507 15.9015 369.903 15.8182 370.32 15.8182C370.649 15.8182 370.918 15.8447 371.126 15.8977C371.335 15.9508 371.49 16 371.592 16.0455L371.206 17.2045C371.138 17.1818 371.043 17.1534 370.922 17.1193C370.804 17.0852 370.649 17.0682 370.456 17.0682C370.013 17.0682 369.693 17.1799 369.496 17.4034C369.303 17.6269 369.206 17.9545 369.206 18.3864V28H367.865ZM375.358 28.2045C374.805 28.2045 374.303 28.1004 373.852 27.892C373.402 27.6799 373.044 27.375 372.778 26.9773C372.513 26.5758 372.381 26.0909 372.381 25.5227C372.381 25.0227 372.479 24.6174 372.676 24.3068C372.873 23.9924 373.136 23.7462 373.466 23.5682C373.795 23.3902 374.159 23.2576 374.557 23.1705C374.958 23.0795 375.362 23.0076 375.767 22.9545C376.297 22.8864 376.727 22.8352 377.057 22.8011C377.39 22.7633 377.633 22.7008 377.784 22.6136C377.939 22.5265 378.017 22.375 378.017 22.1591V22.1136C378.017 21.553 377.864 21.1174 377.557 20.8068C377.254 20.4962 376.794 20.3409 376.176 20.3409C375.536 20.3409 375.034 20.4811 374.67 20.7614C374.307 21.0417 374.051 21.3409 373.903 21.6591L372.631 21.2045C372.858 20.6742 373.161 20.2614 373.54 19.9659C373.922 19.6667 374.339 19.4583 374.79 19.3409C375.244 19.2197 375.691 19.1591 376.131 19.1591C376.411 19.1591 376.733 19.1932 377.097 19.2614C377.464 19.3258 377.818 19.4602 378.159 19.6648C378.504 19.8693 378.79 20.178 379.017 20.5909C379.244 21.0038 379.358 21.5568 379.358 22.25V28H378.017V26.8182H377.949C377.858 27.0076 377.706 27.2102 377.494 27.4261C377.282 27.642 377 27.8258 376.648 27.9773C376.295 28.1288 375.866 28.2045 375.358 28.2045ZM375.562 27C376.093 27 376.54 26.8958 376.903 26.6875C377.271 26.4792 377.547 26.2102 377.733 25.8807C377.922 25.5511 378.017 25.2045 378.017 24.8409V23.6136C377.96 23.6818 377.835 23.7443 377.642 23.8011C377.453 23.8542 377.233 23.9015 376.983 23.9432C376.737 23.9811 376.496 24.0152 376.261 24.0455C376.03 24.072 375.843 24.0947 375.699 24.1136C375.35 24.1591 375.025 24.233 374.722 24.3352C374.422 24.4337 374.18 24.5833 373.994 24.7841C373.813 24.9811 373.722 25.25 373.722 25.5909C373.722 26.0568 373.894 26.4091 374.239 26.6477C374.587 26.8826 375.028 27 375.562 27ZM381.805 28V19.2727H383.101V20.6364H383.214C383.396 20.1705 383.69 19.8087 384.095 19.5511C384.5 19.2898 384.987 19.1591 385.555 19.1591C386.131 19.1591 386.61 19.2898 386.993 19.5511C387.379 19.8087 387.68 20.1705 387.896 20.6364H387.987C388.211 20.1856 388.546 19.8277 388.993 19.5625C389.44 19.2936 389.976 19.1591 390.601 19.1591C391.381 19.1591 392.019 19.4034 392.516 19.892C393.012 20.3769 393.26 21.1326 393.26 22.1591V28H391.919V22.1591C391.919 21.5152 391.743 21.0549 391.391 20.7784C391.038 20.5019 390.624 20.3636 390.146 20.3636C389.533 20.3636 389.057 20.5492 388.72 20.9205C388.383 21.2879 388.214 21.7538 388.214 22.3182V28H386.851V22.0227C386.851 21.5265 386.69 21.1269 386.368 20.8239C386.046 20.517 385.631 20.3636 385.124 20.3636C384.775 20.3636 384.449 20.4564 384.146 20.642C383.847 20.8277 383.605 21.0852 383.419 21.4148C383.237 21.7405 383.146 22.1174 383.146 22.5455V28H381.805ZM398.28 28.2045C397.727 28.2045 397.225 28.1004 396.774 27.892C396.323 27.6799 395.965 27.375 395.7 26.9773C395.435 26.5758 395.303 26.0909 395.303 25.5227C395.303 25.0227 395.401 24.6174 395.598 24.3068C395.795 23.9924 396.058 23.7462 396.388 23.5682C396.717 23.3902 397.081 23.2576 397.479 23.1705C397.88 23.0795 398.284 23.0076 398.689 22.9545C399.219 22.8864 399.649 22.8352 399.979 22.8011C400.312 22.7633 400.554 22.7008 400.706 22.6136C400.861 22.5265 400.939 22.375 400.939 22.1591V22.1136C400.939 21.553 400.786 21.1174 400.479 20.8068C400.176 20.4962 399.715 20.3409 399.098 20.3409C398.458 20.3409 397.956 20.4811 397.592 20.7614C397.229 21.0417 396.973 21.3409 396.825 21.6591L395.553 21.2045C395.78 20.6742 396.083 20.2614 396.462 19.9659C396.844 19.6667 397.261 19.4583 397.712 19.3409C398.166 19.2197 398.613 19.1591 399.053 19.1591C399.333 19.1591 399.655 19.1932 400.018 19.2614C400.386 19.3258 400.74 19.4602 401.081 19.6648C401.426 19.8693 401.712 20.178 401.939 20.5909C402.166 21.0038 402.28 21.5568 402.28 22.25V28H400.939V26.8182H400.871C400.78 27.0076 400.628 27.2102 400.416 27.4261C400.204 27.642 399.922 27.8258 399.57 27.9773C399.217 28.1288 398.787 28.2045 398.28 28.2045ZM398.484 27C399.015 27 399.462 26.8958 399.825 26.6875C400.193 26.4792 400.469 26.2102 400.655 25.8807C400.844 25.5511 400.939 25.2045 400.939 24.8409V23.6136C400.882 23.6818 400.757 23.7443 400.564 23.8011C400.375 23.8542 400.155 23.9015 399.905 23.9432C399.659 23.9811 399.418 24.0152 399.183 24.0455C398.952 24.072 398.765 24.0947 398.621 24.1136C398.272 24.1591 397.946 24.233 397.643 24.3352C397.344 24.4337 397.102 24.5833 396.916 24.7841C396.734 24.9811 396.643 25.25 396.643 25.5909C396.643 26.0568 396.816 26.4091 397.161 26.6477C397.509 26.8826 397.95 27 398.484 27ZM408.523 19.2727V20.4091H404V19.2727H408.523ZM405.318 17.1818H406.659V25.5C406.659 25.8788 406.714 26.1629 406.824 26.3523C406.938 26.5379 407.081 26.6629 407.256 26.7273C407.434 26.7879 407.621 26.8182 407.818 26.8182C407.966 26.8182 408.087 26.8106 408.182 26.7955C408.277 26.7765 408.352 26.7614 408.409 26.75L408.682 27.9545C408.591 27.9886 408.464 28.0227 408.301 28.0568C408.138 28.0947 407.932 28.1136 407.682 28.1136C407.303 28.1136 406.932 28.0322 406.568 27.8693C406.208 27.7064 405.909 27.4583 405.67 27.125C405.436 26.7917 405.318 26.3712 405.318 25.8636V17.1818ZM410.54 28V19.2727H411.881V28H410.54ZM411.222 17.8182C410.96 17.8182 410.735 17.7292 410.545 17.5511C410.36 17.3731 410.267 17.1591 410.267 16.9091C410.267 16.6591 410.36 16.4451 410.545 16.267C410.735 16.089 410.96 16 411.222 16C411.483 16 411.706 16.089 411.892 16.267C412.081 16.4451 412.176 16.6591 412.176 16.9091C412.176 17.1591 412.081 17.3731 411.892 17.5511C411.706 17.7292 411.483 17.8182 411.222 17.8182ZM417.882 28.1818C417.094 28.1818 416.403 27.9943 415.808 27.6193C415.217 27.2443 414.755 26.7197 414.422 26.0455C414.092 25.3712 413.928 24.5833 413.928 23.6818C413.928 22.7727 414.092 21.9792 414.422 21.3011C414.755 20.6231 415.217 20.0966 415.808 19.7216C416.403 19.3466 417.094 19.1591 417.882 19.1591C418.67 19.1591 419.359 19.3466 419.95 19.7216C420.545 20.0966 421.007 20.6231 421.337 21.3011C421.67 21.9792 421.837 22.7727 421.837 23.6818C421.837 24.5833 421.67 25.3712 421.337 26.0455C421.007 26.7197 420.545 27.2443 419.95 27.6193C419.359 27.9943 418.67 28.1818 417.882 28.1818ZM417.882 26.9773C418.481 26.9773 418.973 26.8239 419.359 26.517C419.746 26.2102 420.032 25.8068 420.217 25.3068C420.403 24.8068 420.496 24.2652 420.496 23.6818C420.496 23.0985 420.403 22.5549 420.217 22.0511C420.032 21.5473 419.746 21.1402 419.359 20.8295C418.973 20.5189 418.481 20.3636 417.882 20.3636C417.284 20.3636 416.791 20.5189 416.405 20.8295C416.018 21.1402 415.732 21.5473 415.547 22.0511C415.361 22.5549 415.268 23.0985 415.268 23.6818C415.268 24.2652 415.361 24.8068 415.547 25.3068C415.732 25.8068 416.018 26.2102 416.405 26.517C416.791 26.8239 417.284 26.9773 417.882 26.9773ZM425.224 22.75V28H423.884V19.2727H425.179V20.6364H425.293C425.497 20.1932 425.808 19.8371 426.224 19.5682C426.641 19.2955 427.179 19.1591 427.838 19.1591C428.429 19.1591 428.946 19.2803 429.389 19.5227C429.832 19.7614 430.177 20.125 430.423 20.6136C430.67 21.0985 430.793 21.7121 430.793 22.4545V28H429.452V22.5455C429.452 21.8598 429.274 21.3258 428.918 20.9432C428.562 20.5568 428.073 20.3636 427.452 20.3636C427.024 20.3636 426.641 20.4564 426.304 20.642C425.971 20.8277 425.707 21.0985 425.514 21.4545C425.321 21.8106 425.224 22.2424 425.224 22.75ZM440.311 28.2045C439.758 28.2045 439.256 28.1004 438.805 27.892C438.355 27.6799 437.997 27.375 437.732 26.9773C437.466 26.5758 437.334 26.0909 437.334 25.5227C437.334 25.0227 437.432 24.6174 437.629 24.3068C437.826 23.9924 438.089 23.7462 438.419 23.5682C438.749 23.3902 439.112 23.2576 439.51 23.1705C439.911 23.0795 440.315 23.0076 440.72 22.9545C441.25 22.8864 441.68 22.8352 442.01 22.8011C442.343 22.7633 442.586 22.7008 442.737 22.6136C442.893 22.5265 442.97 22.375 442.97 22.1591V22.1136C442.97 21.553 442.817 21.1174 442.51 20.8068C442.207 20.4962 441.747 20.3409 441.129 20.3409C440.489 20.3409 439.987 20.4811 439.624 20.7614C439.26 21.0417 439.004 21.3409 438.857 21.6591L437.584 21.2045C437.811 20.6742 438.114 20.2614 438.493 19.9659C438.875 19.6667 439.292 19.4583 439.743 19.3409C440.197 19.2197 440.644 19.1591 441.084 19.1591C441.364 19.1591 441.686 19.1932 442.05 19.2614C442.417 19.3258 442.771 19.4602 443.112 19.6648C443.457 19.8693 443.743 20.178 443.97 20.5909C444.197 21.0038 444.311 21.5568 444.311 22.25V28H442.97V26.8182H442.902C442.811 27.0076 442.66 27.2102 442.447 27.4261C442.235 27.642 441.953 27.8258 441.601 27.9773C441.249 28.1288 440.819 28.2045 440.311 28.2045ZM440.516 27C441.046 27 441.493 26.8958 441.857 26.6875C442.224 26.4792 442.5 26.2102 442.686 25.8807C442.875 25.5511 442.97 25.2045 442.97 24.8409V23.6136C442.913 23.6818 442.788 23.7443 442.595 23.8011C442.406 23.8542 442.186 23.9015 441.936 23.9432C441.69 23.9811 441.449 24.0152 441.214 24.0455C440.983 24.072 440.796 24.0947 440.652 24.1136C440.304 24.1591 439.978 24.233 439.675 24.3352C439.375 24.4337 439.133 24.5833 438.947 24.7841C438.766 24.9811 438.675 25.25 438.675 25.5909C438.675 26.0568 438.847 26.4091 439.192 26.6477C439.54 26.8826 439.982 27 440.516 27ZM448.099 22.75V28H446.759V19.2727H448.054V20.6364H448.168C448.372 20.1932 448.683 19.8371 449.099 19.5682C449.516 19.2955 450.054 19.1591 450.713 19.1591C451.304 19.1591 451.821 19.2803 452.264 19.5227C452.707 19.7614 453.052 20.125 453.298 20.6136C453.545 21.0985 453.668 21.7121 453.668 22.4545V28H452.327V22.5455C452.327 21.8598 452.149 21.3258 451.793 20.9432C451.437 20.5568 450.948 20.3636 450.327 20.3636C449.899 20.3636 449.516 20.4564 449.179 20.642C448.846 20.8277 448.582 21.0985 448.389 21.4545C448.196 21.8106 448.099 22.2424 448.099 22.75ZM459.413 28.1818C458.686 28.1818 458.044 27.9981 457.487 27.6307C456.93 27.2595 456.495 26.7367 456.18 26.0625C455.866 25.3845 455.709 24.5833 455.709 23.6591C455.709 22.7424 455.866 21.947 456.18 21.2727C456.495 20.5985 456.932 20.0777 457.493 19.7102C458.054 19.3428 458.701 19.1591 459.436 19.1591C460.004 19.1591 460.453 19.2538 460.783 19.4432C461.116 19.6288 461.37 19.8409 461.544 20.0795C461.722 20.3144 461.86 20.5076 461.959 20.6591H462.072V16.3636H463.413V28H462.118V26.6591H461.959C461.86 26.8182 461.72 27.0189 461.538 27.2614C461.357 27.5 461.097 27.714 460.76 27.9034C460.423 28.089 459.974 28.1818 459.413 28.1818ZM459.595 26.9773C460.133 26.9773 460.588 26.8371 460.959 26.5568C461.33 26.2727 461.612 25.8807 461.805 25.3807C461.999 24.8769 462.095 24.2955 462.095 23.6364C462.095 22.9848 462 22.4148 461.811 21.9261C461.622 21.4337 461.341 21.0511 460.97 20.7784C460.599 20.5019 460.141 20.3636 459.595 20.3636C459.027 20.3636 458.554 20.5095 458.175 20.8011C457.8 21.089 457.518 21.4811 457.328 21.9773C457.143 22.4697 457.05 23.0227 457.05 23.6364C457.05 24.2576 457.144 24.822 457.334 25.3295C457.527 25.8333 457.811 26.2348 458.186 26.5341C458.565 26.8295 459.035 26.9773 459.595 26.9773ZM474.351 19.2727V20.4091H469.828V19.2727H474.351ZM471.146 17.1818H472.487V25.5C472.487 25.8788 472.542 26.1629 472.652 26.3523C472.766 26.5379 472.91 26.6629 473.084 26.7273C473.262 26.7879 473.449 26.8182 473.646 26.8182C473.794 26.8182 473.915 26.8106 474.01 26.7955C474.105 26.7765 474.18 26.7614 474.237 26.75L474.51 27.9545C474.419 27.9886 474.292 28.0227 474.129 28.0568C473.966 28.0947 473.76 28.1136 473.51 28.1136C473.131 28.1136 472.76 28.0322 472.396 27.8693C472.036 27.7064 471.737 27.4583 471.499 27.125C471.264 26.7917 471.146 26.3712 471.146 25.8636V17.1818ZM477.896 22.75V28H476.555V16.3636H477.896V20.6364H478.01C478.214 20.1856 478.521 19.8277 478.93 19.5625C479.343 19.2936 479.893 19.1591 480.578 19.1591C481.173 19.1591 481.694 19.2784 482.141 19.517C482.588 19.7519 482.934 20.1136 483.18 20.6023C483.43 21.0871 483.555 21.7045 483.555 22.4545V28H482.214V22.5455C482.214 21.8523 482.035 21.3163 481.675 20.9375C481.319 20.5549 480.824 20.3636 480.192 20.3636C479.752 20.3636 479.358 20.4564 479.01 20.642C478.665 20.8277 478.393 21.0985 478.192 21.4545C477.995 21.8106 477.896 22.2424 477.896 22.75ZM489.668 28.1818C488.827 28.1818 488.101 27.9962 487.491 27.625C486.885 27.25 486.418 26.7273 486.088 26.0568C485.762 25.3826 485.599 24.5985 485.599 23.7045C485.599 22.8106 485.762 22.0227 486.088 21.3409C486.418 20.6553 486.876 20.1212 487.463 19.7386C488.054 19.3523 488.743 19.1591 489.531 19.1591C489.986 19.1591 490.435 19.2348 490.878 19.3864C491.321 19.5379 491.724 19.7841 492.088 20.125C492.452 20.4621 492.741 20.9091 492.957 21.4659C493.173 22.0227 493.281 22.7083 493.281 23.5227V24.0909H486.554V22.9318H491.918C491.918 22.4394 491.819 22 491.622 21.6136C491.429 21.2273 491.152 20.9223 490.793 20.6989C490.437 20.4754 490.016 20.3636 489.531 20.3636C488.997 20.3636 488.535 20.4962 488.145 20.7614C487.759 21.0227 487.461 21.3636 487.253 21.7841C487.045 22.2045 486.94 22.6553 486.94 23.1364V23.9091C486.94 24.5682 487.054 25.1269 487.281 25.5852C487.512 26.0398 487.832 26.3864 488.241 26.625C488.651 26.8598 489.126 26.9773 489.668 26.9773C490.02 26.9773 490.338 26.928 490.622 26.8295C490.91 26.7273 491.158 26.5758 491.366 26.375C491.575 26.1705 491.736 25.9167 491.849 25.6136L493.145 25.9773C493.009 26.4167 492.779 26.803 492.457 27.1364C492.135 27.4659 491.738 27.7235 491.264 27.9091C490.791 28.0909 490.259 28.1818 489.668 28.1818ZM495.321 28V19.2727H496.662V28H495.321ZM496.003 17.8182C495.741 17.8182 495.516 17.7292 495.327 17.5511C495.141 17.3731 495.048 17.1591 495.048 16.9091C495.048 16.6591 495.141 16.4451 495.327 16.267C495.516 16.089 495.741 16 496.003 16C496.264 16 496.488 16.089 496.673 16.267C496.863 16.4451 496.957 16.6591 496.957 16.9091C496.957 17.1591 496.863 17.3731 496.673 17.5511C496.488 17.7292 496.264 17.8182 496.003 17.8182ZM499.118 28V19.2727H500.413V20.5909H500.504C500.663 20.1591 500.951 19.8087 501.368 19.5398C501.785 19.2708 502.254 19.1364 502.777 19.1364C502.875 19.1364 502.999 19.1383 503.146 19.142C503.294 19.1458 503.406 19.1515 503.482 19.1591V20.5227C503.436 20.5114 503.332 20.4943 503.169 20.4716C503.01 20.4451 502.841 20.4318 502.663 20.4318C502.239 20.4318 501.86 20.5208 501.527 20.6989C501.197 20.8731 500.936 21.1155 500.743 21.4261C500.554 21.733 500.459 22.0833 500.459 22.4773V28H499.118ZM509.571 28V19.2727H510.912V28H509.571ZM510.253 17.8182C509.991 17.8182 509.766 17.7292 509.577 17.5511C509.391 17.3731 509.298 17.1591 509.298 16.9091C509.298 16.6591 509.391 16.4451 509.577 16.267C509.766 16.089 509.991 16 510.253 16C510.514 16 510.738 16.089 510.923 16.267C511.113 16.4451 511.207 16.6591 511.207 16.9091C511.207 17.1591 511.113 17.3731 510.923 17.5511C510.738 17.7292 510.514 17.8182 510.253 17.8182ZM513.368 28V19.2727H514.663V20.6364H514.777C514.959 20.1705 515.252 19.8087 515.658 19.5511C516.063 19.2898 516.55 19.1591 517.118 19.1591C517.694 19.1591 518.173 19.2898 518.555 19.5511C518.942 19.8087 519.243 20.1705 519.459 20.6364H519.55C519.773 20.1856 520.108 19.8277 520.555 19.5625C521.002 19.2936 521.538 19.1591 522.163 19.1591C522.944 19.1591 523.582 19.4034 524.078 19.892C524.574 20.3769 524.822 21.1326 524.822 22.1591V28H523.482V22.1591C523.482 21.5152 523.305 21.0549 522.953 20.7784C522.601 20.5019 522.186 20.3636 521.709 20.3636C521.095 20.3636 520.62 20.5492 520.283 20.9205C519.946 21.2879 519.777 21.7538 519.777 22.3182V28H518.413V22.0227C518.413 21.5265 518.252 21.1269 517.93 20.8239C517.608 20.517 517.194 20.3636 516.686 20.3636C516.338 20.3636 516.012 20.4564 515.709 20.642C515.41 20.8277 515.167 21.0852 514.982 21.4148C514.8 21.7405 514.709 22.1174 514.709 22.5455V28H513.368ZM527.274 31.2727V19.2727H528.57V20.6591H528.729C528.827 20.5076 528.964 20.3144 529.138 20.0795C529.316 19.8409 529.57 19.6288 529.899 19.4432C530.232 19.2538 530.683 19.1591 531.251 19.1591C531.986 19.1591 532.634 19.3428 533.195 19.7102C533.755 20.0777 534.193 20.5985 534.507 21.2727C534.821 21.947 534.979 22.7424 534.979 23.6591C534.979 24.5833 534.821 25.3845 534.507 26.0625C534.193 26.7367 533.757 27.2595 533.2 27.6307C532.643 27.9981 532.001 28.1818 531.274 28.1818C530.714 28.1818 530.265 28.089 529.928 27.9034C529.59 27.714 529.331 27.5 529.149 27.2614C528.967 27.0189 528.827 26.8182 528.729 26.6591H528.615V31.2727H527.274ZM528.592 23.6364C528.592 24.2955 528.689 24.8769 528.882 25.3807C529.075 25.8807 529.357 26.2727 529.729 26.5568C530.1 26.8371 530.554 26.9773 531.092 26.9773C531.653 26.9773 532.121 26.8295 532.496 26.5341C532.875 26.2348 533.159 25.8333 533.348 25.3295C533.541 24.822 533.638 24.2576 533.638 23.6364C533.638 23.0227 533.543 22.4697 533.354 21.9773C533.168 21.4811 532.886 21.089 532.507 20.8011C532.132 20.5095 531.661 20.3636 531.092 20.3636C530.547 20.3636 530.089 20.5019 529.717 20.7784C529.346 21.0511 529.066 21.4337 528.876 21.9261C528.687 22.4148 528.592 22.9848 528.592 23.6364ZM538.365 16.3636V28H537.024V16.3636H538.365ZM540.821 28V19.2727H542.162V28H540.821ZM541.503 17.8182C541.241 17.8182 541.016 17.7292 540.827 17.5511C540.641 17.3731 540.548 17.1591 540.548 16.9091C540.548 16.6591 540.641 16.4451 540.827 16.267C541.016 16.089 541.241 16 541.503 16C541.764 16 541.988 16.089 542.173 16.267C542.363 16.4451 542.457 16.6591 542.457 16.9091C542.457 17.1591 542.363 17.3731 542.173 17.5511C541.988 17.7292 541.764 17.8182 541.503 17.8182ZM548.163 28.1818C547.345 28.1818 546.641 27.9886 546.05 27.6023C545.459 27.2159 545.004 26.6837 544.686 26.0057C544.368 25.3277 544.209 24.553 544.209 23.6818C544.209 22.7955 544.372 22.0133 544.697 21.3352C545.027 20.6534 545.485 20.1212 546.072 19.7386C546.663 19.3523 547.353 19.1591 548.141 19.1591C548.754 19.1591 549.307 19.2727 549.8 19.5C550.292 19.7273 550.696 20.0455 551.01 20.4545C551.324 20.8636 551.519 21.3409 551.595 21.8864H550.254C550.152 21.4886 549.925 21.1364 549.572 20.8295C549.224 20.5189 548.754 20.3636 548.163 20.3636C547.641 20.3636 547.182 20.5 546.788 20.7727C546.398 21.0417 546.093 21.4223 545.874 21.9148C545.658 22.4034 545.55 22.9773 545.55 23.6364C545.55 24.3106 545.656 24.8977 545.868 25.3977C546.084 25.8977 546.387 26.286 546.777 26.5625C547.171 26.839 547.633 26.9773 548.163 26.9773C548.512 26.9773 548.828 26.9167 549.112 26.7955C549.396 26.6742 549.637 26.5 549.834 26.2727C550.031 26.0455 550.171 25.7727 550.254 25.4545H551.595C551.519 25.9697 551.332 26.4337 551.033 26.8466C550.737 27.2557 550.345 27.5814 549.857 27.8239C549.372 28.0625 548.807 28.1818 548.163 28.1818ZM556.124 28.2045C555.571 28.2045 555.069 28.1004 554.618 27.892C554.167 27.6799 553.809 27.375 553.544 26.9773C553.279 26.5758 553.146 26.0909 553.146 25.5227C553.146 25.0227 553.245 24.6174 553.442 24.3068C553.639 23.9924 553.902 23.7462 554.232 23.5682C554.561 23.3902 554.925 23.2576 555.322 23.1705C555.724 23.0795 556.127 23.0076 556.533 22.9545C557.063 22.8864 557.493 22.8352 557.822 22.8011C558.156 22.7633 558.398 22.7008 558.55 22.6136C558.705 22.5265 558.783 22.375 558.783 22.1591V22.1136C558.783 21.553 558.629 21.1174 558.322 20.8068C558.019 20.4962 557.559 20.3409 556.942 20.3409C556.302 20.3409 555.8 20.4811 555.436 20.7614C555.072 21.0417 554.817 21.3409 554.669 21.6591L553.396 21.2045C553.624 20.6742 553.927 20.2614 554.305 19.9659C554.688 19.6667 555.105 19.4583 555.555 19.3409C556.01 19.2197 556.457 19.1591 556.896 19.1591C557.177 19.1591 557.499 19.1932 557.862 19.2614C558.23 19.3258 558.584 19.4602 558.925 19.6648C559.269 19.8693 559.555 20.178 559.783 20.5909C560.01 21.0038 560.124 21.5568 560.124 22.25V28H558.783V26.8182H558.714C558.624 27.0076 558.472 27.2102 558.26 27.4261C558.048 27.642 557.766 27.8258 557.413 27.9773C557.061 28.1288 556.631 28.2045 556.124 28.2045ZM556.328 27C556.858 27 557.305 26.8958 557.669 26.6875C558.036 26.4792 558.313 26.2102 558.499 25.8807C558.688 25.5511 558.783 25.2045 558.783 24.8409V23.6136C558.726 23.6818 558.601 23.7443 558.408 23.8011C558.218 23.8542 557.999 23.9015 557.749 23.9432C557.502 23.9811 557.262 24.0152 557.027 24.0455C556.796 24.072 556.608 24.0947 556.464 24.1136C556.116 24.1591 555.79 24.233 555.487 24.3352C555.188 24.4337 554.946 24.5833 554.76 24.7841C554.578 24.9811 554.487 25.25 554.487 25.5909C554.487 26.0568 554.66 26.4091 555.004 26.6477C555.353 26.8826 555.794 27 556.328 27ZM566.366 19.2727V20.4091H561.844V19.2727H566.366ZM563.162 17.1818H564.503V25.5C564.503 25.8788 564.558 26.1629 564.668 26.3523C564.781 26.5379 564.925 26.6629 565.099 26.7273C565.277 26.7879 565.465 26.8182 565.662 26.8182C565.81 26.8182 565.931 26.8106 566.026 26.7955C566.12 26.7765 566.196 26.7614 566.253 26.75L566.526 27.9545C566.435 27.9886 566.308 28.0227 566.145 28.0568C565.982 28.0947 565.776 28.1136 565.526 28.1136C565.147 28.1136 564.776 28.0322 564.412 27.8693C564.052 27.7064 563.753 27.4583 563.514 27.125C563.279 26.7917 563.162 26.3712 563.162 25.8636V17.1818ZM568.384 28V19.2727H569.724V28H568.384ZM569.065 17.8182C568.804 17.8182 568.579 17.7292 568.389 17.5511C568.204 17.3731 568.111 17.1591 568.111 16.9091C568.111 16.6591 568.204 16.4451 568.389 16.267C568.579 16.089 568.804 16 569.065 16C569.327 16 569.55 16.089 569.736 16.267C569.925 16.4451 570.02 16.6591 570.02 16.9091C570.02 17.1591 569.925 17.3731 569.736 17.5511C569.55 17.7292 569.327 17.8182 569.065 17.8182ZM575.726 28.1818C574.938 28.1818 574.247 27.9943 573.652 27.6193C573.061 27.2443 572.599 26.7197 572.266 26.0455C571.936 25.3712 571.771 24.5833 571.771 23.6818C571.771 22.7727 571.936 21.9792 572.266 21.3011C572.599 20.6231 573.061 20.0966 573.652 19.7216C574.247 19.3466 574.938 19.1591 575.726 19.1591C576.514 19.1591 577.203 19.3466 577.794 19.7216C578.389 20.0966 578.851 20.6231 579.18 21.3011C579.514 21.9792 579.68 22.7727 579.68 23.6818C579.68 24.5833 579.514 25.3712 579.18 26.0455C578.851 26.7197 578.389 27.2443 577.794 27.6193C577.203 27.9943 576.514 28.1818 575.726 28.1818ZM575.726 26.9773C576.324 26.9773 576.817 26.8239 577.203 26.517C577.589 26.2102 577.875 25.8068 578.061 25.3068C578.247 24.8068 578.339 24.2652 578.339 23.6818C578.339 23.0985 578.247 22.5549 578.061 22.0511C577.875 21.5473 577.589 21.1402 577.203 20.8295C576.817 20.5189 576.324 20.3636 575.726 20.3636C575.127 20.3636 574.635 20.5189 574.249 20.8295C573.862 21.1402 573.576 21.5473 573.391 22.0511C573.205 22.5549 573.112 23.0985 573.112 23.6818C573.112 24.2652 573.205 24.8068 573.391 25.3068C573.576 25.8068 573.862 26.2102 574.249 26.517C574.635 26.8239 575.127 26.9773 575.726 26.9773ZM583.068 22.75V28H581.727V19.2727H583.023V20.6364H583.136C583.341 20.1932 583.652 19.8371 584.068 19.5682C584.485 19.2955 585.023 19.1591 585.682 19.1591C586.273 19.1591 586.79 19.2803 587.233 19.5227C587.676 19.7614 588.021 20.125 588.267 20.6136C588.513 21.0985 588.636 21.7121 588.636 22.4545V28H587.295V22.5455C587.295 21.8598 587.117 21.3258 586.761 20.9432C586.405 20.5568 585.917 20.3636 585.295 20.3636C584.867 20.3636 584.485 20.4564 584.148 20.642C583.814 20.8277 583.551 21.0985 583.358 21.4545C583.165 21.8106 583.068 22.2424 583.068 22.75ZM597.268 21.2273L596.064 21.5682C595.988 21.3674 595.876 21.1723 595.729 20.983C595.585 20.7898 595.388 20.6307 595.138 20.5057C594.888 20.3807 594.568 20.3182 594.178 20.3182C593.643 20.3182 593.198 20.4413 592.842 20.6875C592.49 20.9299 592.314 21.2386 592.314 21.6136C592.314 21.947 592.435 22.2102 592.678 22.4034C592.92 22.5966 593.299 22.7576 593.814 22.8864L595.109 23.2045C595.89 23.3939 596.471 23.6837 596.854 24.0739C597.236 24.4602 597.428 24.9583 597.428 25.5682C597.428 26.0682 597.284 26.5152 596.996 26.9091C596.712 27.303 596.314 27.6136 595.803 27.8409C595.291 28.0682 594.696 28.1818 594.018 28.1818C593.128 28.1818 592.392 27.9886 591.808 27.6023C591.225 27.2159 590.856 26.6515 590.7 25.9091L591.973 25.5909C592.094 26.0606 592.323 26.4129 592.661 26.6477C593.001 26.8826 593.446 27 593.996 27C594.621 27 595.117 26.8674 595.484 26.6023C595.856 26.3333 596.041 26.0114 596.041 25.6364C596.041 25.3333 595.935 25.0795 595.723 24.875C595.511 24.6667 595.185 24.5114 594.746 24.4091L593.291 24.0682C592.492 23.8788 591.905 23.5852 591.53 23.1875C591.159 22.786 590.973 22.2841 590.973 21.6818C590.973 21.1894 591.111 20.7538 591.388 20.375C591.668 19.9962 592.049 19.6989 592.53 19.483C593.015 19.267 593.564 19.1591 594.178 19.1591C595.041 19.1591 595.719 19.3485 596.212 19.7273C596.708 20.1061 597.06 20.6061 597.268 21.2273ZM607.832 19.2727V20.4091H603.128V19.2727H607.832ZM604.537 28V18.0682C604.537 17.5682 604.654 17.1515 604.889 16.8182C605.124 16.4848 605.429 16.2348 605.804 16.0682C606.179 15.9015 606.575 15.8182 606.991 15.8182C607.321 15.8182 607.59 15.8447 607.798 15.8977C608.007 15.9508 608.162 16 608.264 16.0455L607.878 17.2045C607.81 17.1818 607.715 17.1534 607.594 17.1193C607.476 17.0852 607.321 17.0682 607.128 17.0682C606.685 17.0682 606.365 17.1799 606.168 17.4034C605.974 17.6269 605.878 17.9545 605.878 18.3864V28H604.537ZM612.898 28.1818C612.11 28.1818 611.419 27.9943 610.824 27.6193C610.233 27.2443 609.771 26.7197 609.438 26.0455C609.108 25.3712 608.943 24.5833 608.943 23.6818C608.943 22.7727 609.108 21.9792 609.438 21.3011C609.771 20.6231 610.233 20.0966 610.824 19.7216C611.419 19.3466 612.11 19.1591 612.898 19.1591C613.686 19.1591 614.375 19.3466 614.966 19.7216C615.561 20.0966 616.023 20.6231 616.352 21.3011C616.686 21.9792 616.852 22.7727 616.852 23.6818C616.852 24.5833 616.686 25.3712 616.352 26.0455C616.023 26.7197 615.561 27.2443 614.966 27.6193C614.375 27.9943 613.686 28.1818 612.898 28.1818ZM612.898 26.9773C613.496 26.9773 613.989 26.8239 614.375 26.517C614.761 26.2102 615.047 25.8068 615.233 25.3068C615.419 24.8068 615.511 24.2652 615.511 23.6818C615.511 23.0985 615.419 22.5549 615.233 22.0511C615.047 21.5473 614.761 21.1402 614.375 20.8295C613.989 20.5189 613.496 20.3636 612.898 20.3636C612.299 20.3636 611.807 20.5189 611.42 20.8295C611.034 21.1402 610.748 21.5473 610.562 22.0511C610.377 22.5549 610.284 23.0985 610.284 23.6818C610.284 24.2652 610.377 24.8068 610.562 25.3068C610.748 25.8068 611.034 26.2102 611.42 26.517C611.807 26.8239 612.299 26.9773 612.898 26.9773ZM618.899 28V19.2727H620.195V20.5909H620.286C620.445 20.1591 620.732 19.8087 621.149 19.5398C621.566 19.2708 622.036 19.1364 622.558 19.1364C622.657 19.1364 622.78 19.1383 622.928 19.142C623.075 19.1458 623.187 19.1515 623.263 19.1591V20.5227C623.217 20.5114 623.113 20.4943 622.95 20.4716C622.791 20.4451 622.623 20.4318 622.445 20.4318C622.02 20.4318 621.642 20.5208 621.308 20.6989C620.979 20.8731 620.717 21.1155 620.524 21.4261C620.335 21.733 620.24 22.0833 620.24 22.4773V28H618.899ZM635.534 21.2273L634.33 21.5682C634.254 21.3674 634.142 21.1723 633.994 20.983C633.85 20.7898 633.653 20.6307 633.403 20.5057C633.153 20.3807 632.833 20.3182 632.443 20.3182C631.909 20.3182 631.464 20.4413 631.108 20.6875C630.756 20.9299 630.58 21.2386 630.58 21.6136C630.58 21.947 630.701 22.2102 630.943 22.4034C631.186 22.5966 631.564 22.7576 632.08 22.8864L633.375 23.2045C634.155 23.3939 634.737 23.6837 635.119 24.0739C635.502 24.4602 635.693 24.9583 635.693 25.5682C635.693 26.0682 635.549 26.5152 635.261 26.9091C634.977 27.303 634.58 27.6136 634.068 27.8409C633.557 28.0682 632.962 28.1818 632.284 28.1818C631.394 28.1818 630.657 27.9886 630.074 27.6023C629.491 27.2159 629.121 26.6515 628.966 25.9091L630.239 25.5909C630.36 26.0606 630.589 26.4129 630.926 26.6477C631.267 26.8826 631.712 27 632.261 27C632.886 27 633.383 26.8674 633.75 26.6023C634.121 26.3333 634.307 26.0114 634.307 25.6364C634.307 25.3333 634.201 25.0795 633.989 24.875C633.777 24.6667 633.451 24.5114 633.011 24.4091L631.557 24.0682C630.758 23.8788 630.17 23.5852 629.795 23.1875C629.424 22.786 629.239 22.2841 629.239 21.6818C629.239 21.1894 629.377 20.7538 629.653 20.375C629.934 19.9962 630.314 19.6989 630.795 19.483C631.28 19.267 631.83 19.1591 632.443 19.1591C633.307 19.1591 633.985 19.3485 634.477 19.7273C634.973 20.1061 635.326 20.6061 635.534 21.2273ZM641.257 28.1818C640.469 28.1818 639.778 27.9943 639.183 27.6193C638.592 27.2443 638.13 26.7197 637.797 26.0455C637.467 25.3712 637.303 24.5833 637.303 23.6818C637.303 22.7727 637.467 21.9792 637.797 21.3011C638.13 20.6231 638.592 20.0966 639.183 19.7216C639.778 19.3466 640.469 19.1591 641.257 19.1591C642.045 19.1591 642.734 19.3466 643.325 19.7216C643.92 20.0966 644.382 20.6231 644.712 21.3011C645.045 21.9792 645.212 22.7727 645.212 23.6818C645.212 24.5833 645.045 25.3712 644.712 26.0455C644.382 26.7197 643.92 27.2443 643.325 27.6193C642.734 27.9943 642.045 28.1818 641.257 28.1818ZM641.257 26.9773C641.856 26.9773 642.348 26.8239 642.734 26.517C643.121 26.2102 643.407 25.8068 643.592 25.3068C643.778 24.8068 643.871 24.2652 643.871 23.6818C643.871 23.0985 643.778 22.5549 643.592 22.0511C643.407 21.5473 643.121 21.1402 642.734 20.8295C642.348 20.5189 641.856 20.3636 641.257 20.3636C640.659 20.3636 640.166 20.5189 639.78 20.8295C639.393 21.1402 639.107 21.5473 638.922 22.0511C638.736 22.5549 638.643 23.0985 638.643 23.6818C638.643 24.2652 638.736 24.8068 638.922 25.3068C639.107 25.8068 639.393 26.2102 639.78 26.517C640.166 26.8239 640.659 26.9773 641.257 26.9773ZM650.804 28.1818C649.986 28.1818 649.281 27.9886 648.69 27.6023C648.099 27.2159 647.645 26.6837 647.327 26.0057C647.009 25.3277 646.849 24.553 646.849 23.6818C646.849 22.7955 647.012 22.0133 647.338 21.3352C647.668 20.6534 648.126 20.1212 648.713 19.7386C649.304 19.3523 649.993 19.1591 650.781 19.1591C651.395 19.1591 651.948 19.2727 652.44 19.5C652.933 19.7273 653.336 20.0455 653.651 20.4545C653.965 20.8636 654.16 21.3409 654.236 21.8864H652.895C652.793 21.4886 652.565 21.1364 652.213 20.8295C651.865 20.5189 651.395 20.3636 650.804 20.3636C650.281 20.3636 649.823 20.5 649.429 20.7727C649.039 21.0417 648.734 21.4223 648.514 21.9148C648.298 22.4034 648.19 22.9773 648.19 23.6364C648.19 24.3106 648.296 24.8977 648.509 25.3977C648.724 25.8977 649.027 26.286 649.418 26.5625C649.812 26.839 650.274 26.9773 650.804 26.9773C651.152 26.9773 651.469 26.9167 651.753 26.7955C652.037 26.6742 652.277 26.5 652.474 26.2727C652.671 26.0455 652.812 25.7727 652.895 25.4545H654.236C654.16 25.9697 653.973 26.4337 653.673 26.8466C653.378 27.2557 652.986 27.5814 652.497 27.8239C652.012 28.0625 651.448 28.1818 650.804 28.1818ZM656.196 28V19.2727H657.537V28H656.196ZM656.878 17.8182C656.616 17.8182 656.391 17.7292 656.202 17.5511C656.016 17.3731 655.923 17.1591 655.923 16.9091C655.923 16.6591 656.016 16.4451 656.202 16.267C656.391 16.089 656.616 16 656.878 16C657.139 16 657.363 16.089 657.548 16.267C657.738 16.4451 657.832 16.6591 657.832 16.9091C657.832 17.1591 657.738 17.3731 657.548 17.5511C657.363 17.7292 657.139 17.8182 656.878 17.8182ZM662.561 28.2045C662.008 28.2045 661.506 28.1004 661.055 27.892C660.605 27.6799 660.247 27.375 659.982 26.9773C659.716 26.5758 659.584 26.0909 659.584 25.5227C659.584 25.0227 659.682 24.6174 659.879 24.3068C660.076 23.9924 660.339 23.7462 660.669 23.5682C660.999 23.3902 661.362 23.2576 661.76 23.1705C662.161 23.0795 662.565 23.0076 662.97 22.9545C663.5 22.8864 663.93 22.8352 664.26 22.8011C664.593 22.7633 664.836 22.7008 664.987 22.6136C665.143 22.5265 665.22 22.375 665.22 22.1591V22.1136C665.22 21.553 665.067 21.1174 664.76 20.8068C664.457 20.4962 663.997 20.3409 663.379 20.3409C662.739 20.3409 662.237 20.4811 661.874 20.7614C661.51 21.0417 661.254 21.3409 661.107 21.6591L659.834 21.2045C660.061 20.6742 660.364 20.2614 660.743 19.9659C661.125 19.6667 661.542 19.4583 661.993 19.3409C662.447 19.2197 662.894 19.1591 663.334 19.1591C663.614 19.1591 663.936 19.1932 664.3 19.2614C664.667 19.3258 665.021 19.4602 665.362 19.6648C665.707 19.8693 665.993 20.178 666.22 20.5909C666.447 21.0038 666.561 21.5568 666.561 22.25V28H665.22V26.8182H665.152C665.061 27.0076 664.91 27.2102 664.697 27.4261C664.485 27.642 664.203 27.8258 663.851 27.9773C663.499 28.1288 663.069 28.2045 662.561 28.2045ZM662.766 27C663.296 27 663.743 26.8958 664.107 26.6875C664.474 26.4792 664.75 26.2102 664.936 25.8807C665.125 25.5511 665.22 25.2045 665.22 24.8409V23.6136C665.163 23.6818 665.038 23.7443 664.845 23.8011C664.656 23.8542 664.436 23.9015 664.186 23.9432C663.94 23.9811 663.699 24.0152 663.464 24.0455C663.233 24.072 663.046 24.0947 662.902 24.1136C662.554 24.1591 662.228 24.233 661.925 24.3352C661.625 24.4337 661.383 24.5833 661.197 24.7841C661.016 24.9811 660.925 25.25 660.925 25.5909C660.925 26.0568 661.097 26.4091 661.442 26.6477C661.79 26.8826 662.232 27 662.766 27ZM670.349 16.3636V28H669.009V16.3636H670.349ZM677.305 28V19.2727H678.601V20.6364H678.714C678.896 20.1705 679.19 19.8087 679.595 19.5511C680 19.2898 680.487 19.1591 681.055 19.1591C681.631 19.1591 682.11 19.2898 682.493 19.5511C682.879 19.8087 683.18 20.1705 683.396 20.6364H683.487C683.711 20.1856 684.046 19.8277 684.493 19.5625C684.94 19.2936 685.476 19.1591 686.101 19.1591C686.881 19.1591 687.519 19.4034 688.016 19.892C688.512 20.3769 688.76 21.1326 688.76 22.1591V28H687.419V22.1591C687.419 21.5152 687.243 21.0549 686.891 20.7784C686.538 20.5019 686.124 20.3636 685.646 20.3636C685.033 20.3636 684.557 20.5492 684.22 20.9205C683.883 21.2879 683.714 21.7538 683.714 22.3182V28H682.351V22.0227C682.351 21.5265 682.19 21.1269 681.868 20.8239C681.546 20.517 681.131 20.3636 680.624 20.3636C680.275 20.3636 679.949 20.4564 679.646 20.642C679.347 20.8277 679.105 21.0852 678.919 21.4148C678.737 21.7405 678.646 22.1174 678.646 22.5455V28H677.305ZM694.871 28.1818C694.03 28.1818 693.304 27.9962 692.695 27.625C692.089 27.25 691.621 26.7273 691.291 26.0568C690.965 25.3826 690.803 24.5985 690.803 23.7045C690.803 22.8106 690.965 22.0227 691.291 21.3409C691.621 20.6553 692.079 20.1212 692.666 19.7386C693.257 19.3523 693.946 19.1591 694.734 19.1591C695.189 19.1591 695.638 19.2348 696.081 19.3864C696.524 19.5379 696.928 19.7841 697.291 20.125C697.655 20.4621 697.945 20.9091 698.161 21.4659C698.376 22.0227 698.484 22.7083 698.484 23.5227V24.0909H691.757V22.9318H697.121C697.121 22.4394 697.022 22 696.825 21.6136C696.632 21.2273 696.356 20.9223 695.996 20.6989C695.64 20.4754 695.219 20.3636 694.734 20.3636C694.2 20.3636 693.738 20.4962 693.348 20.7614C692.962 21.0227 692.664 21.3636 692.456 21.7841C692.248 22.2045 692.143 22.6553 692.143 23.1364V23.9091C692.143 24.5682 692.257 25.1269 692.484 25.5852C692.715 26.0398 693.036 26.3864 693.445 26.625C693.854 26.8598 694.329 26.9773 694.871 26.9773C695.223 26.9773 695.541 26.928 695.825 26.8295C696.113 26.7273 696.361 26.5758 696.57 26.375C696.778 26.1705 696.939 25.9167 697.053 25.6136L698.348 25.9773C698.212 26.4167 697.982 26.803 697.661 27.1364C697.339 27.4659 696.941 27.7235 696.467 27.9091C695.994 28.0909 695.462 28.1818 694.871 28.1818ZM703.82 28.1818C703.092 28.1818 702.45 27.9981 701.893 27.6307C701.337 27.2595 700.901 26.7367 700.587 26.0625C700.272 25.3845 700.115 24.5833 700.115 23.6591C700.115 22.7424 700.272 21.947 700.587 21.2727C700.901 20.5985 701.339 20.0777 701.899 19.7102C702.46 19.3428 703.107 19.1591 703.842 19.1591C704.411 19.1591 704.859 19.2538 705.189 19.4432C705.522 19.6288 705.776 19.8409 705.95 20.0795C706.128 20.3144 706.267 20.5076 706.365 20.6591H706.479V16.3636H707.82V28H706.524V26.6591H706.365C706.267 26.8182 706.126 27.0189 705.945 27.2614C705.763 27.5 705.503 27.714 705.166 27.9034C704.829 28.089 704.38 28.1818 703.82 28.1818ZM704.001 26.9773C704.539 26.9773 704.994 26.8371 705.365 26.5568C705.736 26.2727 706.018 25.8807 706.212 25.3807C706.405 24.8769 706.501 24.2955 706.501 23.6364C706.501 22.9848 706.407 22.4148 706.217 21.9261C706.028 21.4337 705.748 21.0511 705.376 20.7784C705.005 20.5019 704.547 20.3636 704.001 20.3636C703.433 20.3636 702.96 20.5095 702.581 20.8011C702.206 21.089 701.924 21.4811 701.734 21.9773C701.549 22.4697 701.456 23.0227 701.456 23.6364C701.456 24.2576 701.551 24.822 701.74 25.3295C701.933 25.8333 702.217 26.2348 702.592 26.5341C702.971 26.8295 703.441 26.9773 704.001 26.9773ZM710.462 28V19.2727H711.803V28H710.462ZM711.143 17.8182C710.882 17.8182 710.657 17.7292 710.467 17.5511C710.282 17.3731 710.189 17.1591 710.189 16.9091C710.189 16.6591 710.282 16.4451 710.467 16.267C710.657 16.089 710.882 16 711.143 16C711.405 16 711.628 16.089 711.814 16.267C712.003 16.4451 712.098 16.6591 712.098 16.9091C712.098 17.1591 712.003 17.3731 711.814 17.5511C711.628 17.7292 711.405 17.8182 711.143 17.8182ZM716.827 28.2045C716.274 28.2045 715.772 28.1004 715.321 27.892C714.87 27.6799 714.512 27.375 714.247 26.9773C713.982 26.5758 713.849 26.0909 713.849 25.5227C713.849 25.0227 713.948 24.6174 714.145 24.3068C714.342 23.9924 714.605 23.7462 714.935 23.5682C715.264 23.3902 715.628 23.2576 716.026 23.1705C716.427 23.0795 716.83 23.0076 717.236 22.9545C717.766 22.8864 718.196 22.8352 718.526 22.8011C718.859 22.7633 719.101 22.7008 719.253 22.6136C719.408 22.5265 719.486 22.375 719.486 22.1591V22.1136C719.486 21.553 719.332 21.1174 719.026 20.8068C718.723 20.4962 718.262 20.3409 717.645 20.3409C717.005 20.3409 716.503 20.4811 716.139 20.7614C715.776 21.0417 715.52 21.3409 715.372 21.6591L714.099 21.2045C714.327 20.6742 714.63 20.2614 715.009 19.9659C715.391 19.6667 715.808 19.4583 716.259 19.3409C716.713 19.2197 717.16 19.1591 717.599 19.1591C717.88 19.1591 718.202 19.1932 718.565 19.2614C718.933 19.3258 719.287 19.4602 719.628 19.6648C719.973 19.8693 720.259 20.178 720.486 20.5909C720.713 21.0038 720.827 21.5568 720.827 22.25V28H719.486V26.8182H719.418C719.327 27.0076 719.175 27.2102 718.963 27.4261C718.751 27.642 718.469 27.8258 718.116 27.9773C717.764 28.1288 717.334 28.2045 716.827 28.2045ZM717.031 27C717.562 27 718.009 26.8958 718.372 26.6875C718.74 26.4792 719.016 26.2102 719.202 25.8807C719.391 25.5511 719.486 25.2045 719.486 24.8409V23.6136C719.429 23.6818 719.304 23.7443 719.111 23.8011C718.921 23.8542 718.702 23.9015 718.452 23.9432C718.205 23.9811 717.965 24.0152 717.73 24.0455C717.499 24.072 717.312 24.0947 717.168 24.1136C716.819 24.1591 716.493 24.233 716.19 24.3352C715.891 24.4337 715.649 24.5833 715.463 24.7841C715.281 24.9811 715.19 25.25 715.19 25.5909C715.19 26.0568 715.363 26.4091 715.707 26.6477C716.056 26.8826 716.497 27 717.031 27ZM729.115 16.3636V28H727.774V16.3636H729.115ZM731.571 28V19.2727H732.912V28H731.571ZM732.253 17.8182C731.991 17.8182 731.766 17.7292 731.577 17.5511C731.391 17.3731 731.298 17.1591 731.298 16.9091C731.298 16.6591 731.391 16.4451 731.577 16.267C731.766 16.089 731.991 16 732.253 16C732.514 16 732.738 16.089 732.923 16.267C733.113 16.4451 733.207 16.6591 733.207 16.9091C733.207 17.1591 733.113 17.3731 732.923 17.5511C732.738 17.7292 732.514 17.8182 732.253 17.8182ZM737.936 28.2045C737.383 28.2045 736.881 28.1004 736.43 27.892C735.98 27.6799 735.622 27.375 735.357 26.9773C735.091 26.5758 734.959 26.0909 734.959 25.5227C734.959 25.0227 735.057 24.6174 735.254 24.3068C735.451 23.9924 735.714 23.7462 736.044 23.5682C736.374 23.3902 736.737 23.2576 737.135 23.1705C737.536 23.0795 737.94 23.0076 738.345 22.9545C738.875 22.8864 739.305 22.8352 739.635 22.8011C739.968 22.7633 740.211 22.7008 740.362 22.6136C740.518 22.5265 740.595 22.375 740.595 22.1591V22.1136C740.595 21.553 740.442 21.1174 740.135 20.8068C739.832 20.4962 739.372 20.3409 738.754 20.3409C738.114 20.3409 737.612 20.4811 737.249 20.7614C736.885 21.0417 736.629 21.3409 736.482 21.6591L735.209 21.2045C735.436 20.6742 735.739 20.2614 736.118 19.9659C736.5 19.6667 736.917 19.4583 737.368 19.3409C737.822 19.2197 738.269 19.1591 738.709 19.1591C738.989 19.1591 739.311 19.1932 739.675 19.2614C740.042 19.3258 740.396 19.4602 740.737 19.6648C741.082 19.8693 741.368 20.178 741.595 20.5909C741.822 21.0038 741.936 21.5568 741.936 22.25V28H740.595V26.8182H740.527C740.436 27.0076 740.285 27.2102 740.072 27.4261C739.86 27.642 739.578 27.8258 739.226 27.9773C738.874 28.1288 738.444 28.2045 737.936 28.2045ZM738.141 27C738.671 27 739.118 26.8958 739.482 26.6875C739.849 26.4792 740.125 26.2102 740.311 25.8807C740.5 25.5511 740.595 25.2045 740.595 24.8409V23.6136C740.538 23.6818 740.413 23.7443 740.22 23.8011C740.031 23.8542 739.811 23.9015 739.561 23.9432C739.315 23.9811 739.074 24.0152 738.839 24.0455C738.608 24.072 738.421 24.0947 738.277 24.1136C737.929 24.1591 737.603 24.233 737.3 24.3352C737 24.4337 736.758 24.5833 736.572 24.7841C736.391 24.9811 736.3 25.25 736.3 25.5909C736.3 26.0568 736.472 26.4091 736.817 26.6477C737.165 26.8826 737.607 27 738.141 27ZM744.565 28V16.3636H745.906V20.6591H746.02C746.118 20.5076 746.255 20.3144 746.429 20.0795C746.607 19.8409 746.861 19.6288 747.19 19.4432C747.524 19.2538 747.974 19.1591 748.543 19.1591C749.277 19.1591 749.925 19.3428 750.486 19.7102C751.046 20.0777 751.484 20.5985 751.798 21.2727C752.113 21.947 752.27 22.7424 752.27 23.6591C752.27 24.5833 752.113 25.3845 751.798 26.0625C751.484 26.7367 751.048 27.2595 750.491 27.6307C749.935 27.9981 749.293 28.1818 748.565 28.1818C748.005 28.1818 747.556 28.089 747.219 27.9034C746.882 27.714 746.622 27.5 746.44 27.2614C746.259 27.0189 746.118 26.8182 746.02 26.6591H745.861V28H744.565ZM745.884 23.6364C745.884 24.2955 745.98 24.8769 746.173 25.3807C746.366 25.8807 746.649 26.2727 747.02 26.5568C747.391 26.8371 747.846 26.9773 748.384 26.9773C748.944 26.9773 749.412 26.8295 749.787 26.5341C750.166 26.2348 750.45 25.8333 750.639 25.3295C750.832 24.822 750.929 24.2576 750.929 23.6364C750.929 23.0227 750.834 22.4697 750.645 21.9773C750.459 21.4811 750.177 21.089 749.798 20.8011C749.423 20.5095 748.952 20.3636 748.384 20.3636C747.838 20.3636 747.38 20.5019 747.009 20.7784C746.637 21.0511 746.357 21.4337 746.168 21.9261C745.978 22.4148 745.884 22.9848 745.884 23.6364ZM754.321 28V19.2727H755.662V28H754.321ZM755.003 17.8182C754.741 17.8182 754.516 17.7292 754.327 17.5511C754.141 17.3731 754.048 17.1591 754.048 16.9091C754.048 16.6591 754.141 16.4451 754.327 16.267C754.516 16.089 754.741 16 755.003 16C755.264 16 755.488 16.089 755.673 16.267C755.863 16.4451 755.957 16.6591 755.957 16.9091C755.957 17.1591 755.863 17.3731 755.673 17.5511C755.488 17.7292 755.264 17.8182 755.003 17.8182ZM759.459 16.3636V28H758.118V16.3636H759.459ZM761.915 28V19.2727H763.256V28H761.915ZM762.597 17.8182C762.335 17.8182 762.11 17.7292 761.92 17.5511C761.735 17.3731 761.642 17.1591 761.642 16.9091C761.642 16.6591 761.735 16.4451 761.92 16.267C762.11 16.089 762.335 16 762.597 16C762.858 16 763.081 16.089 763.267 16.267C763.456 16.4451 763.551 16.6591 763.551 16.9091C763.551 17.1591 763.456 17.3731 763.267 17.5511C763.081 17.7292 762.858 17.8182 762.597 17.8182ZM769.507 19.2727V20.4091H764.984V19.2727H769.507ZM766.303 17.1818H767.643V25.5C767.643 25.8788 767.698 26.1629 767.808 26.3523C767.922 26.5379 768.066 26.6629 768.24 26.7273C768.418 26.7879 768.606 26.8182 768.803 26.8182C768.95 26.8182 769.071 26.8106 769.166 26.7955C769.261 26.7765 769.337 26.7614 769.393 26.75L769.666 27.9545C769.575 27.9886 769.448 28.0227 769.286 28.0568C769.123 28.0947 768.916 28.1136 768.666 28.1136C768.287 28.1136 767.916 28.0322 767.553 27.8693C767.193 27.7064 766.893 27.4583 766.655 27.125C766.42 26.7917 766.303 26.3712 766.303 25.8636V17.1818ZM772.388 31.2727C772.161 31.2727 771.958 31.2538 771.78 31.2159C771.602 31.1818 771.479 31.1477 771.411 31.1136L771.751 29.9318C772.077 30.0152 772.365 30.0455 772.615 30.0227C772.865 30 773.087 29.8883 773.28 29.6875C773.477 29.4905 773.657 29.1705 773.82 28.7273L774.07 28.0455L770.842 19.2727H772.297L774.706 26.2273H774.797L777.206 19.2727H778.661L774.956 29.2727C774.789 29.7235 774.583 30.0966 774.337 30.392C774.09 30.6913 773.804 30.9129 773.479 31.0568C773.157 31.2008 772.793 31.2727 772.388 31.2727Z" fill="#C0C0C3"/>
<rect x="804" y="8" width="28" height="28" rx="6" fill="#1D1D1D"/>
<path fill-rule="evenodd" clip-rule="evenodd" d="M811.703 15.5431C811.505 15.455 811.272 15.5048 811.128 15.6664C810.983 15.828 810.959 16.0645 811.068 16.252L814.421 22L811.068 27.7481C810.959 27.9355 810.983 28.172 811.128 28.3336C811.272 28.4952 811.505 28.545 811.703 28.4569L825.203 22.4569C825.384 22.3767 825.5 22.1976 825.5 22C825.5 21.8024 825.384 21.6234 825.203 21.5431L811.703 15.5431ZM815.346 21.6L812.712 17.086L823.769 22L812.712 26.914L815.346 22.4H819.5C819.721 22.4 819.9 22.2209 819.9 22C819.9 21.7791 819.721 21.6 819.5 21.6H815.346Z" fill="#C0C0C3"/>
<rect x="0.5" y="0.5" width="839" height="43" rx="7.5" stroke="#2D2D30"/>
</svg>
