<svg width="441" height="44" viewBox="0 0 441 44" fill="none" xmlns="http://www.w3.org/2000/svg">
<rect x="0.5" y="0.5" width="440" height="43" rx="7.5" fill="#222222"/>
<path d="M12.7727 17.6136V16.3636H21.5V17.6136H17.8409V28H16.4318V17.6136H12.7727ZM27.8054 24.4318V19.2727H29.1463V28H27.8054V26.5227H27.7145C27.5099 26.9659 27.1918 27.3428 26.7599 27.6534C26.3281 27.9602 25.7827 28.1136 25.1236 28.1136C24.5781 28.1136 24.0933 27.9943 23.669 27.7557C23.2448 27.5133 22.9115 27.1496 22.669 26.6648C22.4266 26.1761 22.3054 25.5606 22.3054 24.8182V19.2727H23.6463V24.7273C23.6463 25.3636 23.8243 25.8712 24.1804 26.25C24.5402 26.6288 24.9986 26.8182 25.5554 26.8182C25.8887 26.8182 26.2277 26.733 26.5724 26.5625C26.9209 26.392 27.2126 26.1307 27.4474 25.7784C27.6861 25.4261 27.8054 24.9773 27.8054 24.4318ZM31.6023 28V19.2727H32.8977V20.5909H32.9886C33.1477 20.1591 33.4356 19.8087 33.8523 19.5398C34.2689 19.2708 34.7386 19.1364 35.2614 19.1364C35.3598 19.1364 35.483 19.1383 35.6307 19.142C35.7784 19.1458 35.8902 19.1515 35.9659 19.1591V20.5227C35.9205 20.5114 35.8163 20.4943 35.6534 20.4716C35.4943 20.4451 35.3258 20.4318 35.1477 20.4318C34.7235 20.4318 34.3447 20.5208 34.0114 20.6989C33.6818 20.8731 33.4205 21.1155 33.2273 21.4261C33.0379 21.733 32.9432 22.0833 32.9432 22.4773V28H31.6023ZM38.8963 22.75V28H37.5554V19.2727H38.8509V20.6364H38.9645C39.169 20.1932 39.4796 19.8371 39.8963 19.5682C40.313 19.2955 40.8509 19.1591 41.5099 19.1591C42.1009 19.1591 42.6179 19.2803 43.0611 19.5227C43.5043 19.7614 43.849 20.125 44.0952 20.6136C44.3414 21.0985 44.4645 21.7121 44.4645 22.4545V28H43.1236V22.5455C43.1236 21.8598 42.9455 21.3258 42.5895 20.9432C42.2334 20.5568 41.7448 20.3636 41.1236 20.3636C40.6955 20.3636 40.313 20.4564 39.9759 20.642C39.6425 20.8277 39.3793 21.0985 39.1861 21.4545C38.9929 21.8106 38.8963 22.2424 38.8963 22.75ZM51.4148 28V19.2727H52.7557V28H51.4148ZM52.0966 17.8182C51.8352 17.8182 51.6098 17.7292 51.4205 17.5511C51.2348 17.3731 51.142 17.1591 51.142 16.9091C51.142 16.6591 51.2348 16.4451 51.4205 16.267C51.6098 16.089 51.8352 16 52.0966 16C52.358 16 52.5814 16.089 52.767 16.267C52.9564 16.4451 53.0511 16.6591 53.0511 16.9091C53.0511 17.1591 52.9564 17.3731 52.767 17.5511C52.5814 17.7292 52.358 17.8182 52.0966 17.8182ZM59.0071 19.2727V20.4091H54.4844V19.2727H59.0071ZM55.8026 17.1818H57.1435V25.5C57.1435 25.8788 57.1984 26.1629 57.3082 26.3523C57.4219 26.5379 57.5658 26.6629 57.7401 26.7273C57.9181 26.7879 58.1056 26.8182 58.3026 26.8182C58.4503 26.8182 58.5715 26.8106 58.6662 26.7955C58.7609 26.7765 58.8366 26.7614 58.8935 26.75L59.1662 27.9545C59.0753 27.9886 58.9484 28.0227 58.7855 28.0568C58.6226 28.0947 58.4162 28.1136 58.1662 28.1136C57.7874 28.1136 57.4162 28.0322 57.0526 27.8693C56.6927 27.7064 56.3935 27.4583 56.1548 27.125C55.92 26.7917 55.8026 26.3712 55.8026 25.8636V17.1818ZM65.5241 28V19.2727H66.8651V28H65.5241ZM66.206 17.8182C65.9446 17.8182 65.7192 17.7292 65.5298 17.5511C65.3442 17.3731 65.2514 17.1591 65.2514 16.9091C65.2514 16.6591 65.3442 16.4451 65.5298 16.267C65.7192 16.089 65.9446 16 66.206 16C66.4673 16 66.6908 16.089 66.8764 16.267C67.0658 16.4451 67.1605 16.6591 67.1605 16.9091C67.1605 17.1591 67.0658 17.3731 66.8764 17.5511C66.6908 17.7292 66.4673 17.8182 66.206 17.8182ZM70.6619 22.75V28H69.321V19.2727H70.6165V20.6364H70.7301C70.9347 20.1932 71.2453 19.8371 71.6619 19.5682C72.0786 19.2955 72.6165 19.1591 73.2756 19.1591C73.8665 19.1591 74.3835 19.2803 74.8267 19.5227C75.2699 19.7614 75.6146 20.125 75.8608 20.6136C76.107 21.0985 76.2301 21.7121 76.2301 22.4545V28H74.8892V22.5455C74.8892 21.8598 74.7112 21.3258 74.3551 20.9432C73.9991 20.5568 73.5104 20.3636 72.8892 20.3636C72.4612 20.3636 72.0786 20.4564 71.7415 20.642C71.4081 20.8277 71.1449 21.0985 70.9517 21.4545C70.7585 21.8106 70.6619 22.2424 70.6619 22.75ZM82.4759 19.2727V20.4091H77.9531V19.2727H82.4759ZM79.2713 17.1818H80.6122V25.5C80.6122 25.8788 80.6671 26.1629 80.777 26.3523C80.8906 26.5379 81.0346 26.6629 81.2088 26.7273C81.3868 26.7879 81.5743 26.8182 81.7713 26.8182C81.919 26.8182 82.0402 26.8106 82.1349 26.7955C82.2296 26.7765 82.3054 26.7614 82.3622 26.75L82.6349 27.9545C82.544 27.9886 82.4171 28.0227 82.2543 28.0568C82.0914 28.0947 81.8849 28.1136 81.6349 28.1136C81.2562 28.1136 80.8849 28.0322 80.5213 27.8693C80.1615 27.7064 79.8622 27.4583 79.6236 27.125C79.3887 26.7917 79.2713 26.3712 79.2713 25.8636V17.1818ZM87.9446 28.1818C87.1567 28.1818 86.4654 27.9943 85.8707 27.6193C85.2798 27.2443 84.8177 26.7197 84.4844 26.0455C84.1548 25.3712 83.9901 24.5833 83.9901 23.6818C83.9901 22.7727 84.1548 21.9792 84.4844 21.3011C84.8177 20.6231 85.2798 20.0966 85.8707 19.7216C86.4654 19.3466 87.1567 19.1591 87.9446 19.1591C88.7325 19.1591 89.4219 19.3466 90.0128 19.7216C90.6075 20.0966 91.0696 20.6231 91.3991 21.3011C91.7325 21.9792 91.8991 22.7727 91.8991 23.6818C91.8991 24.5833 91.7325 25.3712 91.3991 26.0455C91.0696 26.7197 90.6075 27.2443 90.0128 27.6193C89.4219 27.9943 88.7325 28.1818 87.9446 28.1818ZM87.9446 26.9773C88.5431 26.9773 89.0355 26.8239 89.4219 26.517C89.8082 26.2102 90.0942 25.8068 90.2798 25.3068C90.4654 24.8068 90.5582 24.2652 90.5582 23.6818C90.5582 23.0985 90.4654 22.5549 90.2798 22.0511C90.0942 21.5473 89.8082 21.1402 89.4219 20.8295C89.0355 20.5189 88.5431 20.3636 87.9446 20.3636C87.3461 20.3636 86.8537 20.5189 86.4673 20.8295C86.081 21.1402 85.795 21.5473 85.6094 22.0511C85.4238 22.5549 85.331 23.0985 85.331 23.6818C85.331 24.2652 85.4238 24.8068 85.6094 25.3068C85.795 25.8068 86.081 26.2102 86.4673 26.517C86.8537 26.8239 87.3461 26.9773 87.9446 26.9773ZM101.014 28.2045C100.461 28.2045 99.9593 28.1004 99.5085 27.892C99.0578 27.6799 98.6998 27.375 98.4347 26.9773C98.1695 26.5758 98.0369 26.0909 98.0369 25.5227C98.0369 25.0227 98.1354 24.6174 98.3324 24.3068C98.5294 23.9924 98.7926 23.7462 99.1222 23.5682C99.4517 23.3902 99.8153 23.2576 100.213 23.1705C100.615 23.0795 101.018 23.0076 101.423 22.9545C101.954 22.8864 102.384 22.8352 102.713 22.8011C103.046 22.7633 103.289 22.7008 103.44 22.6136C103.596 22.5265 103.673 22.375 103.673 22.1591V22.1136C103.673 21.553 103.52 21.1174 103.213 20.8068C102.91 20.4962 102.45 20.3409 101.832 20.3409C101.192 20.3409 100.69 20.4811 100.327 20.7614C99.9631 21.0417 99.7074 21.3409 99.5597 21.6591L98.2869 21.2045C98.5142 20.6742 98.8172 20.2614 99.196 19.9659C99.5786 19.6667 99.9953 19.4583 100.446 19.3409C100.901 19.2197 101.348 19.1591 101.787 19.1591C102.067 19.1591 102.389 19.1932 102.753 19.2614C103.12 19.3258 103.474 19.4602 103.815 19.6648C104.16 19.8693 104.446 20.178 104.673 20.5909C104.901 21.0038 105.014 21.5568 105.014 22.25V28H103.673V26.8182H103.605C103.514 27.0076 103.363 27.2102 103.151 27.4261C102.938 27.642 102.656 27.8258 102.304 27.9773C101.952 28.1288 101.522 28.2045 101.014 28.2045ZM101.219 27C101.749 27 102.196 26.8958 102.56 26.6875C102.927 26.4792 103.204 26.2102 103.389 25.8807C103.579 25.5511 103.673 25.2045 103.673 24.8409V23.6136C103.616 23.6818 103.491 23.7443 103.298 23.8011C103.109 23.8542 102.889 23.9015 102.639 23.9432C102.393 23.9811 102.152 24.0152 101.918 24.0455C101.687 24.072 101.499 24.0947 101.355 24.1136C101.007 24.1591 100.681 24.233 100.378 24.3352C100.079 24.4337 99.8362 24.5833 99.6506 24.7841C99.4688 24.9811 99.3778 25.25 99.3778 25.5909C99.3778 26.0568 99.5502 26.4091 99.8949 26.6477C100.243 26.8826 100.685 27 101.219 27ZM112.143 28V16.3636H113.484V20.6591H113.598C113.696 20.5076 113.833 20.3144 114.007 20.0795C114.185 19.8409 114.439 19.6288 114.768 19.4432C115.102 19.2538 115.553 19.1591 116.121 19.1591C116.856 19.1591 117.503 19.3428 118.064 19.7102C118.625 20.0777 119.062 20.5985 119.376 21.2727C119.691 21.947 119.848 22.7424 119.848 23.6591C119.848 24.5833 119.691 25.3845 119.376 26.0625C119.062 26.7367 118.626 27.2595 118.07 27.6307C117.513 27.9981 116.871 28.1818 116.143 28.1818C115.583 28.1818 115.134 28.089 114.797 27.9034C114.46 27.714 114.2 27.5 114.018 27.2614C113.837 27.0189 113.696 26.8182 113.598 26.6591H113.439V28H112.143ZM113.462 23.6364C113.462 24.2955 113.558 24.8769 113.751 25.3807C113.945 25.8807 114.227 26.2727 114.598 26.5568C114.969 26.8371 115.424 26.9773 115.962 26.9773C116.522 26.9773 116.99 26.8295 117.365 26.5341C117.744 26.2348 118.028 25.8333 118.217 25.3295C118.411 24.822 118.507 24.2576 118.507 23.6364C118.507 23.0227 118.412 22.4697 118.223 21.9773C118.037 21.4811 117.755 21.089 117.376 20.8011C117.001 20.5095 116.53 20.3636 115.962 20.3636C115.416 20.3636 114.958 20.5019 114.587 20.7784C114.215 21.0511 113.935 21.4337 113.746 21.9261C113.556 22.4148 113.462 22.9848 113.462 23.6364ZM127.399 24.4318V19.2727H128.74V28H127.399V26.5227H127.308C127.104 26.9659 126.786 27.3428 126.354 27.6534C125.922 27.9602 125.376 28.1136 124.717 28.1136C124.172 28.1136 123.687 27.9943 123.263 27.7557C122.839 27.5133 122.505 27.1496 122.263 26.6648C122.02 26.1761 121.899 25.5606 121.899 24.8182V19.2727H123.24V24.7273C123.24 25.3636 123.418 25.8712 123.774 26.25C124.134 26.6288 124.592 26.8182 125.149 26.8182C125.482 26.8182 125.821 26.733 126.166 26.5625C126.515 26.392 126.806 26.1307 127.041 25.7784C127.28 25.4261 127.399 24.9773 127.399 24.4318ZM132.537 16.3636V28H131.196V16.3636H132.537ZM136.334 16.3636V28H134.993V16.3636H136.334ZM142.449 28.1818C141.608 28.1818 140.883 27.9962 140.273 27.625C139.667 27.25 139.199 26.7273 138.869 26.0568C138.544 25.3826 138.381 24.5985 138.381 23.7045C138.381 22.8106 138.544 22.0227 138.869 21.3409C139.199 20.6553 139.657 20.1212 140.244 19.7386C140.835 19.3523 141.525 19.1591 142.312 19.1591C142.767 19.1591 143.216 19.2348 143.659 19.3864C144.102 19.5379 144.506 19.7841 144.869 20.125C145.233 20.4621 145.523 20.9091 145.739 21.4659C145.955 22.0227 146.062 22.7083 146.062 23.5227V24.0909H139.335V22.9318H144.699C144.699 22.4394 144.6 22 144.403 21.6136C144.21 21.2273 143.934 20.9223 143.574 20.6989C143.218 20.4754 142.797 20.3636 142.312 20.3636C141.778 20.3636 141.316 20.4962 140.926 20.7614C140.54 21.0227 140.242 21.3636 140.034 21.7841C139.826 22.2045 139.722 22.6553 139.722 23.1364V23.9091C139.722 24.5682 139.835 25.1269 140.062 25.5852C140.294 26.0398 140.614 26.3864 141.023 26.625C141.432 26.8598 141.907 26.9773 142.449 26.9773C142.801 26.9773 143.119 26.928 143.403 26.8295C143.691 26.7273 143.939 26.5758 144.148 26.375C144.356 26.1705 144.517 25.9167 144.631 25.6136L145.926 25.9773C145.79 26.4167 145.561 26.803 145.239 27.1364C144.917 27.4659 144.519 27.7235 144.045 27.9091C143.572 28.0909 143.04 28.1818 142.449 28.1818ZM151.898 19.2727V20.4091H147.375V19.2727H151.898ZM148.693 17.1818H150.034V25.5C150.034 25.8788 150.089 26.1629 150.199 26.3523C150.313 26.5379 150.456 26.6629 150.631 26.7273C150.809 26.7879 150.996 26.8182 151.193 26.8182C151.341 26.8182 151.462 26.8106 151.557 26.7955C151.652 26.7765 151.727 26.7614 151.784 26.75L152.057 27.9545C151.966 27.9886 151.839 28.0227 151.676 28.0568C151.513 28.0947 151.307 28.1136 151.057 28.1136C150.678 28.1136 150.307 28.0322 149.943 27.8693C149.583 27.7064 149.284 27.4583 149.045 27.125C148.811 26.7917 148.693 26.3712 148.693 25.8636V17.1818ZM159.756 16.3636V28H158.415V16.3636H159.756ZM162.212 28V19.2727H163.553V28H162.212ZM162.893 17.8182C162.632 17.8182 162.407 17.7292 162.217 17.5511C162.032 17.3731 161.939 17.1591 161.939 16.9091C161.939 16.6591 162.032 16.4451 162.217 16.267C162.407 16.089 162.632 16 162.893 16C163.155 16 163.378 16.089 163.564 16.267C163.753 16.4451 163.848 16.6591 163.848 16.9091C163.848 17.1591 163.753 17.3731 163.564 17.5511C163.378 17.7292 163.155 17.8182 162.893 17.8182ZM172.19 21.2273L170.986 21.5682C170.91 21.3674 170.798 21.1723 170.651 20.983C170.507 20.7898 170.31 20.6307 170.06 20.5057C169.81 20.3807 169.49 20.3182 169.099 20.3182C168.565 20.3182 168.12 20.4413 167.764 20.6875C167.412 20.9299 167.236 21.2386 167.236 21.6136C167.236 21.947 167.357 22.2102 167.599 22.4034C167.842 22.5966 168.221 22.7576 168.736 22.8864L170.031 23.2045C170.812 23.3939 171.393 23.6837 171.776 24.0739C172.158 24.4602 172.349 24.9583 172.349 25.5682C172.349 26.0682 172.205 26.5152 171.918 26.9091C171.634 27.303 171.236 27.6136 170.724 27.8409C170.213 28.0682 169.618 28.1818 168.94 28.1818C168.05 28.1818 167.313 27.9886 166.73 27.6023C166.147 27.2159 165.777 26.6515 165.622 25.9091L166.895 25.5909C167.016 26.0606 167.245 26.4129 167.582 26.6477C167.923 26.8826 168.368 27 168.918 27C169.543 27 170.039 26.8674 170.406 26.6023C170.777 26.3333 170.963 26.0114 170.963 25.6364C170.963 25.3333 170.857 25.0795 170.645 24.875C170.433 24.6667 170.107 24.5114 169.668 24.4091L168.213 24.0682C167.414 23.8788 166.827 23.5852 166.452 23.1875C166.08 22.786 165.895 22.2841 165.895 21.6818C165.895 21.1894 166.033 20.7538 166.31 20.375C166.59 19.9962 166.971 19.6989 167.452 19.483C167.937 19.267 168.486 19.1591 169.099 19.1591C169.963 19.1591 170.641 19.3485 171.134 19.7273C171.63 20.1061 171.982 20.6061 172.19 21.2273ZM178.163 19.2727V20.4091H173.641V19.2727H178.163ZM174.959 17.1818H176.3V25.5C176.3 25.8788 176.355 26.1629 176.464 26.3523C176.578 26.5379 176.722 26.6629 176.896 26.7273C177.074 26.7879 177.262 26.8182 177.459 26.8182C177.607 26.8182 177.728 26.8106 177.822 26.7955C177.917 26.7765 177.993 26.7614 178.05 26.75L178.322 27.9545C178.232 27.9886 178.105 28.0227 177.942 28.0568C177.779 28.0947 177.572 28.1136 177.322 28.1136C176.944 28.1136 176.572 28.0322 176.209 27.8693C175.849 27.7064 175.55 27.4583 175.311 27.125C175.076 26.7917 174.959 26.3712 174.959 25.8636V17.1818ZM190.862 21.2273L189.658 21.5682C189.582 21.3674 189.47 21.1723 189.322 20.983C189.179 20.7898 188.982 20.6307 188.732 20.5057C188.482 20.3807 188.161 20.3182 187.771 20.3182C187.237 20.3182 186.792 20.4413 186.436 20.6875C186.084 20.9299 185.908 21.2386 185.908 21.6136C185.908 21.947 186.029 22.2102 186.271 22.4034C186.514 22.5966 186.893 22.7576 187.408 22.8864L188.703 23.2045C189.483 23.3939 190.065 23.6837 190.447 24.0739C190.83 24.4602 191.021 24.9583 191.021 25.5682C191.021 26.0682 190.877 26.5152 190.589 26.9091C190.305 27.303 189.908 27.6136 189.396 27.8409C188.885 28.0682 188.29 28.1818 187.612 28.1818C186.722 28.1818 185.985 27.9886 185.402 27.6023C184.819 27.2159 184.449 26.6515 184.294 25.9091L185.567 25.5909C185.688 26.0606 185.917 26.4129 186.254 26.6477C186.595 26.8826 187.04 27 187.589 27C188.214 27 188.711 26.8674 189.078 26.6023C189.449 26.3333 189.635 26.0114 189.635 25.6364C189.635 25.3333 189.529 25.0795 189.317 24.875C189.105 24.6667 188.779 24.5114 188.339 24.4091L186.885 24.0682C186.086 23.8788 185.499 23.5852 185.124 23.1875C184.752 22.786 184.567 22.2841 184.567 21.6818C184.567 21.1894 184.705 20.7538 184.982 20.375C185.262 19.9962 185.643 19.6989 186.124 19.483C186.608 19.267 187.158 19.1591 187.771 19.1591C188.635 19.1591 189.313 19.3485 189.805 19.7273C190.302 20.1061 190.654 20.6061 190.862 21.2273ZM198.54 24.4318V19.2727H199.881V28H198.54V26.5227H198.449C198.244 26.9659 197.926 27.3428 197.494 27.6534C197.063 27.9602 196.517 28.1136 195.858 28.1136C195.312 28.1136 194.828 27.9943 194.403 27.7557C193.979 27.5133 193.646 27.1496 193.403 26.6648C193.161 26.1761 193.04 25.5606 193.04 24.8182V19.2727H194.381V24.7273C194.381 25.3636 194.559 25.8712 194.915 26.25C195.275 26.6288 195.733 26.8182 196.29 26.8182C196.623 26.8182 196.962 26.733 197.307 26.5625C197.655 26.392 197.947 26.1307 198.182 25.7784C198.42 25.4261 198.54 24.9773 198.54 24.4318ZM202.337 28V19.2727H203.678V28H202.337ZM203.018 17.8182C202.757 17.8182 202.532 17.7292 202.342 17.5511C202.157 17.3731 202.064 17.1591 202.064 16.9091C202.064 16.6591 202.157 16.4451 202.342 16.267C202.532 16.089 202.757 16 203.018 16C203.28 16 203.503 16.089 203.689 16.267C203.878 16.4451 203.973 16.6591 203.973 16.9091C203.973 17.1591 203.878 17.3731 203.689 17.5511C203.503 17.7292 203.28 17.8182 203.018 17.8182ZM209.929 19.2727V20.4091H205.406V19.2727H209.929ZM206.724 17.1818H208.065V25.5C208.065 25.8788 208.12 26.1629 208.23 26.3523C208.344 26.5379 208.488 26.6629 208.662 26.7273C208.84 26.7879 209.027 26.8182 209.224 26.8182C209.372 26.8182 209.493 26.8106 209.588 26.7955C209.683 26.7765 209.759 26.7614 209.815 26.75L210.088 27.9545C209.997 27.9886 209.87 28.0227 209.707 28.0568C209.545 28.0947 209.338 28.1136 209.088 28.1136C208.709 28.1136 208.338 28.0322 207.974 27.8693C207.615 27.7064 207.315 27.4583 207.077 27.125C206.842 26.7917 206.724 26.3712 206.724 25.8636V17.1818ZM214.514 28.2045C213.961 28.2045 213.459 28.1004 213.009 27.892C212.558 27.6799 212.2 27.375 211.935 26.9773C211.67 26.5758 211.537 26.0909 211.537 25.5227C211.537 25.0227 211.635 24.6174 211.832 24.3068C212.029 23.9924 212.293 23.7462 212.622 23.5682C212.952 23.3902 213.315 23.2576 213.713 23.1705C214.115 23.0795 214.518 23.0076 214.923 22.9545C215.454 22.8864 215.884 22.8352 216.213 22.8011C216.546 22.7633 216.789 22.7008 216.94 22.6136C217.096 22.5265 217.173 22.375 217.173 22.1591V22.1136C217.173 21.553 217.02 21.1174 216.713 20.8068C216.41 20.4962 215.95 20.3409 215.332 20.3409C214.692 20.3409 214.19 20.4811 213.827 20.7614C213.463 21.0417 213.207 21.3409 213.06 21.6591L211.787 21.2045C212.014 20.6742 212.317 20.2614 212.696 19.9659C213.079 19.6667 213.495 19.4583 213.946 19.3409C214.401 19.2197 214.848 19.1591 215.287 19.1591C215.567 19.1591 215.889 19.1932 216.253 19.2614C216.62 19.3258 216.974 19.4602 217.315 19.6648C217.66 19.8693 217.946 20.178 218.173 20.5909C218.401 21.0038 218.514 21.5568 218.514 22.25V28H217.173V26.8182H217.105C217.014 27.0076 216.863 27.2102 216.651 27.4261C216.438 27.642 216.156 27.8258 215.804 27.9773C215.452 28.1288 215.022 28.2045 214.514 28.2045ZM214.719 27C215.249 27 215.696 26.8958 216.06 26.6875C216.427 26.4792 216.704 26.2102 216.889 25.8807C217.079 25.5511 217.173 25.2045 217.173 24.8409V23.6136C217.116 23.6818 216.991 23.7443 216.798 23.8011C216.609 23.8542 216.389 23.9015 216.139 23.9432C215.893 23.9811 215.652 24.0152 215.418 24.0455C215.187 24.072 214.999 24.0947 214.855 24.1136C214.507 24.1591 214.181 24.233 213.878 24.3352C213.579 24.4337 213.336 24.5833 213.151 24.7841C212.969 24.9811 212.878 25.25 212.878 25.5909C212.878 26.0568 213.05 26.4091 213.395 26.6477C213.743 26.8826 214.185 27 214.719 27ZM221.143 28V16.3636H222.484V20.6591H222.598C222.696 20.5076 222.833 20.3144 223.007 20.0795C223.185 19.8409 223.439 19.6288 223.768 19.4432C224.102 19.2538 224.553 19.1591 225.121 19.1591C225.856 19.1591 226.503 19.3428 227.064 19.7102C227.625 20.0777 228.062 20.5985 228.376 21.2727C228.691 21.947 228.848 22.7424 228.848 23.6591C228.848 24.5833 228.691 25.3845 228.376 26.0625C228.062 26.7367 227.626 27.2595 227.07 27.6307C226.513 27.9981 225.871 28.1818 225.143 28.1818C224.583 28.1818 224.134 28.089 223.797 27.9034C223.46 27.714 223.2 27.5 223.018 27.2614C222.837 27.0189 222.696 26.8182 222.598 26.6591H222.439V28H221.143ZM222.462 23.6364C222.462 24.2955 222.558 24.8769 222.751 25.3807C222.945 25.8807 223.227 26.2727 223.598 26.5568C223.969 26.8371 224.424 26.9773 224.962 26.9773C225.522 26.9773 225.99 26.8295 226.365 26.5341C226.744 26.2348 227.028 25.8333 227.217 25.3295C227.411 24.822 227.507 24.2576 227.507 23.6364C227.507 23.0227 227.412 22.4697 227.223 21.9773C227.037 21.4811 226.755 21.089 226.376 20.8011C226.001 20.5095 225.53 20.3636 224.962 20.3636C224.416 20.3636 223.958 20.5019 223.587 20.7784C223.215 21.0511 222.935 21.4337 222.746 21.9261C222.556 22.4148 222.462 22.9848 222.462 23.6364ZM232.24 16.3636V28H230.899V16.3636H232.24ZM238.355 28.1818C237.514 28.1818 236.789 27.9962 236.179 27.625C235.573 27.25 235.105 26.7273 234.776 26.0568C234.45 25.3826 234.287 24.5985 234.287 23.7045C234.287 22.8106 234.45 22.0227 234.776 21.3409C235.105 20.6553 235.563 20.1212 236.151 19.7386C236.741 19.3523 237.431 19.1591 238.219 19.1591C238.673 19.1591 239.122 19.2348 239.565 19.3864C240.009 19.5379 240.412 19.7841 240.776 20.125C241.139 20.4621 241.429 20.9091 241.645 21.4659C241.861 22.0227 241.969 22.7083 241.969 23.5227V24.0909H235.241V22.9318H240.605C240.605 22.4394 240.507 22 240.31 21.6136C240.116 21.2273 239.84 20.9223 239.48 20.6989C239.124 20.4754 238.704 20.3636 238.219 20.3636C237.685 20.3636 237.223 20.4962 236.832 20.7614C236.446 21.0227 236.149 21.3636 235.94 21.7841C235.732 22.2045 235.628 22.6553 235.628 23.1364V23.9091C235.628 24.5682 235.741 25.1269 235.969 25.5852C236.2 26.0398 236.52 26.3864 236.929 26.625C237.338 26.8598 237.813 26.9773 238.355 26.9773C238.707 26.9773 239.026 26.928 239.31 26.8295C239.598 26.7273 239.846 26.5758 240.054 26.375C240.262 26.1705 240.423 25.9167 240.537 25.6136L241.832 25.9773C241.696 26.4167 241.467 26.803 241.145 27.1364C240.823 27.4659 240.425 27.7235 239.952 27.9091C239.478 28.0909 238.946 28.1818 238.355 28.1818ZM252.395 19.2727V20.4091H247.69V19.2727H252.395ZM249.099 28V18.0682C249.099 17.5682 249.217 17.1515 249.452 16.8182C249.687 16.4848 249.991 16.2348 250.366 16.0682C250.741 15.9015 251.137 15.8182 251.554 15.8182C251.884 15.8182 252.152 15.8447 252.361 15.8977C252.569 15.9508 252.724 16 252.827 16.0455L252.44 17.2045C252.372 17.1818 252.277 17.1534 252.156 17.1193C252.039 17.0852 251.884 17.0682 251.69 17.0682C251.247 17.0682 250.927 17.1799 250.73 17.4034C250.537 17.6269 250.44 17.9545 250.44 18.3864V28H249.099ZM257.46 28.1818C256.672 28.1818 255.981 27.9943 255.386 27.6193C254.795 27.2443 254.333 26.7197 254 26.0455C253.67 25.3712 253.506 24.5833 253.506 23.6818C253.506 22.7727 253.67 21.9792 254 21.3011C254.333 20.6231 254.795 20.0966 255.386 19.7216C255.981 19.3466 256.672 19.1591 257.46 19.1591C258.248 19.1591 258.938 19.3466 259.528 19.7216C260.123 20.0966 260.585 20.6231 260.915 21.3011C261.248 21.9792 261.415 22.7727 261.415 23.6818C261.415 24.5833 261.248 25.3712 260.915 26.0455C260.585 26.7197 260.123 27.2443 259.528 27.6193C258.938 27.9943 258.248 28.1818 257.46 28.1818ZM257.46 26.9773C258.059 26.9773 258.551 26.8239 258.938 26.517C259.324 26.2102 259.61 25.8068 259.795 25.3068C259.981 24.8068 260.074 24.2652 260.074 23.6818C260.074 23.0985 259.981 22.5549 259.795 22.0511C259.61 21.5473 259.324 21.1402 258.938 20.8295C258.551 20.5189 258.059 20.3636 257.46 20.3636C256.862 20.3636 256.369 20.5189 255.983 20.8295C255.597 21.1402 255.311 21.5473 255.125 22.0511C254.939 22.5549 254.847 23.0985 254.847 23.6818C254.847 24.2652 254.939 24.8068 255.125 25.3068C255.311 25.8068 255.597 26.2102 255.983 26.517C256.369 26.8239 256.862 26.9773 257.46 26.9773ZM263.462 28V19.2727H264.757V20.5909H264.848C265.007 20.1591 265.295 19.8087 265.712 19.5398C266.128 19.2708 266.598 19.1364 267.121 19.1364C267.219 19.1364 267.342 19.1383 267.49 19.142C267.638 19.1458 267.75 19.1515 267.825 19.1591V20.5227C267.78 20.5114 267.676 20.4943 267.513 20.4716C267.354 20.4451 267.185 20.4318 267.007 20.4318C266.583 20.4318 266.204 20.5208 265.871 20.6989C265.541 20.8731 265.28 21.1155 265.087 21.4261C264.897 21.733 264.803 22.0833 264.803 22.4773V28H263.462ZM276.483 28.2045C275.93 28.2045 275.428 28.1004 274.977 27.892C274.527 27.6799 274.169 27.375 273.903 26.9773C273.638 26.5758 273.506 26.0909 273.506 25.5227C273.506 25.0227 273.604 24.6174 273.801 24.3068C273.998 23.9924 274.261 23.7462 274.591 23.5682C274.92 23.3902 275.284 23.2576 275.682 23.1705C276.083 23.0795 276.487 23.0076 276.892 22.9545C277.422 22.8864 277.852 22.8352 278.182 22.8011C278.515 22.7633 278.758 22.7008 278.909 22.6136C279.064 22.5265 279.142 22.375 279.142 22.1591V22.1136C279.142 21.553 278.989 21.1174 278.682 20.8068C278.379 20.4962 277.919 20.3409 277.301 20.3409C276.661 20.3409 276.159 20.4811 275.795 20.7614C275.432 21.0417 275.176 21.3409 275.028 21.6591L273.756 21.2045C273.983 20.6742 274.286 20.2614 274.665 19.9659C275.047 19.6667 275.464 19.4583 275.915 19.3409C276.369 19.2197 276.816 19.1591 277.256 19.1591C277.536 19.1591 277.858 19.1932 278.222 19.2614C278.589 19.3258 278.943 19.4602 279.284 19.6648C279.629 19.8693 279.915 20.178 280.142 20.5909C280.369 21.0038 280.483 21.5568 280.483 22.25V28H279.142V26.8182H279.074C278.983 27.0076 278.831 27.2102 278.619 27.4261C278.407 27.642 278.125 27.8258 277.773 27.9773C277.42 28.1288 276.991 28.2045 276.483 28.2045ZM276.688 27C277.218 27 277.665 26.8958 278.028 26.6875C278.396 26.4792 278.672 26.2102 278.858 25.8807C279.047 25.5511 279.142 25.2045 279.142 24.8409V23.6136C279.085 23.6818 278.96 23.7443 278.767 23.8011C278.578 23.8542 278.358 23.9015 278.108 23.9432C277.862 23.9811 277.621 24.0152 277.386 24.0455C277.155 24.072 276.968 24.0947 276.824 24.1136C276.475 24.1591 276.15 24.233 275.847 24.3352C275.547 24.4337 275.305 24.5833 275.119 24.7841C274.938 24.9811 274.847 25.25 274.847 25.5909C274.847 26.0568 275.019 26.4091 275.364 26.6477C275.712 26.8826 276.153 27 276.688 27ZM284.271 22.75V28H282.93V19.2727H284.226V20.6364H284.339C284.544 20.1932 284.855 19.8371 285.271 19.5682C285.688 19.2955 286.226 19.1591 286.885 19.1591C287.476 19.1591 287.993 19.2803 288.436 19.5227C288.879 19.7614 289.224 20.125 289.47 20.6136C289.716 21.0985 289.839 21.7121 289.839 22.4545V28H288.499V22.5455C288.499 21.8598 288.321 21.3258 287.964 20.9432C287.608 20.5568 287.12 20.3636 286.499 20.3636C286.071 20.3636 285.688 20.4564 285.351 20.642C285.018 20.8277 284.754 21.0985 284.561 21.4545C284.368 21.8106 284.271 22.2424 284.271 22.75ZM300.335 28.1818C299.517 28.1818 298.813 27.9886 298.222 27.6023C297.631 27.2159 297.176 26.6837 296.858 26.0057C296.54 25.3277 296.381 24.553 296.381 23.6818C296.381 22.7955 296.544 22.0133 296.869 21.3352C297.199 20.6534 297.657 20.1212 298.244 19.7386C298.835 19.3523 299.525 19.1591 300.312 19.1591C300.926 19.1591 301.479 19.2727 301.972 19.5C302.464 19.7273 302.867 20.0455 303.182 20.4545C303.496 20.8636 303.691 21.3409 303.767 21.8864H302.426C302.324 21.4886 302.097 21.1364 301.744 20.8295C301.396 20.5189 300.926 20.3636 300.335 20.3636C299.813 20.3636 299.354 20.5 298.96 20.7727C298.57 21.0417 298.265 21.4223 298.045 21.9148C297.83 22.4034 297.722 22.9773 297.722 23.6364C297.722 24.3106 297.828 24.8977 298.04 25.3977C298.256 25.8977 298.559 26.286 298.949 26.5625C299.343 26.839 299.805 26.9773 300.335 26.9773C300.684 26.9773 301 26.9167 301.284 26.7955C301.568 26.6742 301.809 26.5 302.006 26.2727C302.203 26.0455 302.343 25.7727 302.426 25.4545H303.767C303.691 25.9697 303.504 26.4337 303.205 26.8466C302.909 27.2557 302.517 27.5814 302.028 27.8239C301.544 28.0625 300.979 28.1818 300.335 28.1818ZM307.068 16.3636V28H305.727V16.3636H307.068ZM309.524 28V19.2727H310.865V28H309.524ZM310.206 17.8182C309.945 17.8182 309.719 17.7292 309.53 17.5511C309.344 17.3731 309.251 17.1591 309.251 16.9091C309.251 16.6591 309.344 16.4451 309.53 16.267C309.719 16.089 309.945 16 310.206 16C310.467 16 310.691 16.089 310.876 16.267C311.066 16.4451 311.161 16.6591 311.161 16.9091C311.161 17.1591 311.066 17.3731 310.876 17.5511C310.691 17.7292 310.467 17.8182 310.206 17.8182ZM316.98 28.1818C316.139 28.1818 315.414 27.9962 314.804 27.625C314.198 27.25 313.73 26.7273 313.401 26.0568C313.075 25.3826 312.912 24.5985 312.912 23.7045C312.912 22.8106 313.075 22.0227 313.401 21.3409C313.73 20.6553 314.188 20.1212 314.776 19.7386C315.366 19.3523 316.056 19.1591 316.844 19.1591C317.298 19.1591 317.747 19.2348 318.19 19.3864C318.634 19.5379 319.037 19.7841 319.401 20.125C319.764 20.4621 320.054 20.9091 320.27 21.4659C320.486 22.0227 320.594 22.7083 320.594 23.5227V24.0909H313.866V22.9318H319.23C319.23 22.4394 319.132 22 318.935 21.6136C318.741 21.2273 318.465 20.9223 318.105 20.6989C317.749 20.4754 317.329 20.3636 316.844 20.3636C316.31 20.3636 315.848 20.4962 315.457 20.7614C315.071 21.0227 314.774 21.3636 314.565 21.7841C314.357 22.2045 314.253 22.6553 314.253 23.1364V23.9091C314.253 24.5682 314.366 25.1269 314.594 25.5852C314.825 26.0398 315.145 26.3864 315.554 26.625C315.963 26.8598 316.438 26.9773 316.98 26.9773C317.332 26.9773 317.651 26.928 317.935 26.8295C318.223 26.7273 318.471 26.5758 318.679 26.375C318.887 26.1705 319.048 25.9167 319.162 25.6136L320.457 25.9773C320.321 26.4167 320.092 26.803 319.77 27.1364C319.448 27.4659 319.05 27.7235 318.577 27.9091C318.103 28.0909 317.571 28.1818 316.98 28.1818ZM323.974 22.75V28H322.634V19.2727H323.929V20.6364H324.043C324.247 20.1932 324.558 19.8371 324.974 19.5682C325.391 19.2955 325.929 19.1591 326.588 19.1591C327.179 19.1591 327.696 19.2803 328.139 19.5227C328.582 19.7614 328.927 20.125 329.173 20.6136C329.42 21.0985 329.543 21.7121 329.543 22.4545V28H328.202V22.5455C328.202 21.8598 328.024 21.3258 327.668 20.9432C327.312 20.5568 326.823 20.3636 326.202 20.3636C325.774 20.3636 325.391 20.4564 325.054 20.642C324.721 20.8277 324.457 21.0985 324.264 21.4545C324.071 21.8106 323.974 22.2424 323.974 22.75ZM335.788 19.2727V20.4091H331.266V19.2727H335.788ZM332.584 17.1818H333.925V25.5C333.925 25.8788 333.98 26.1629 334.089 26.3523C334.203 26.5379 334.347 26.6629 334.521 26.7273C334.699 26.7879 334.887 26.8182 335.084 26.8182C335.232 26.8182 335.353 26.8106 335.447 26.7955C335.542 26.7765 335.618 26.7614 335.675 26.75L335.947 27.9545C335.857 27.9886 335.73 28.0227 335.567 28.0568C335.404 28.0947 335.197 28.1136 334.947 28.1136C334.569 28.1136 334.197 28.0322 333.834 27.8693C333.474 27.7064 333.175 27.4583 332.936 27.125C332.701 26.7917 332.584 26.3712 332.584 25.8636V17.1818ZM345.964 28.1818C345.124 28.1818 344.398 27.9962 343.788 27.625C343.182 27.25 342.714 26.7273 342.385 26.0568C342.059 25.3826 341.896 24.5985 341.896 23.7045C341.896 22.8106 342.059 22.0227 342.385 21.3409C342.714 20.6553 343.173 20.1212 343.76 19.7386C344.351 19.3523 345.04 19.1591 345.828 19.1591C346.283 19.1591 346.732 19.2348 347.175 19.3864C347.618 19.5379 348.021 19.7841 348.385 20.125C348.749 20.4621 349.038 20.9091 349.254 21.4659C349.47 22.0227 349.578 22.7083 349.578 23.5227V24.0909H342.851V22.9318H348.214C348.214 22.4394 348.116 22 347.919 21.6136C347.726 21.2273 347.449 20.9223 347.089 20.6989C346.733 20.4754 346.313 20.3636 345.828 20.3636C345.294 20.3636 344.832 20.4962 344.442 20.7614C344.055 21.0227 343.758 21.3636 343.55 21.7841C343.341 22.2045 343.237 22.6553 343.237 23.1364V23.9091C343.237 24.5682 343.351 25.1269 343.578 25.5852C343.809 26.0398 344.129 26.3864 344.538 26.625C344.947 26.8598 345.423 26.9773 345.964 26.9773C346.317 26.9773 346.635 26.928 346.919 26.8295C347.207 26.7273 347.455 26.5758 347.663 26.375C347.872 26.1705 348.033 25.9167 348.146 25.6136L349.442 25.9773C349.305 26.4167 349.076 26.803 348.754 27.1364C348.432 27.4659 348.035 27.7235 347.561 27.9091C347.088 28.0909 346.555 28.1818 345.964 28.1818ZM351.618 28V19.2727H352.913V20.6364H353.027C353.209 20.1705 353.502 19.8087 353.908 19.5511C354.313 19.2898 354.8 19.1591 355.368 19.1591C355.944 19.1591 356.423 19.2898 356.805 19.5511C357.192 19.8087 357.493 20.1705 357.709 20.6364H357.8C358.023 20.1856 358.358 19.8277 358.805 19.5625C359.252 19.2936 359.788 19.1591 360.413 19.1591C361.194 19.1591 361.832 19.4034 362.328 19.892C362.824 20.3769 363.072 21.1326 363.072 22.1591V28H361.732V22.1591C361.732 21.5152 361.555 21.0549 361.203 20.7784C360.851 20.5019 360.436 20.3636 359.959 20.3636C359.345 20.3636 358.87 20.5492 358.533 20.9205C358.196 21.2879 358.027 21.7538 358.027 22.3182V28H356.663V22.0227C356.663 21.5265 356.502 21.1269 356.18 20.8239C355.858 20.517 355.444 20.3636 354.936 20.3636C354.588 20.3636 354.262 20.4564 353.959 20.642C353.66 20.8277 353.417 21.0852 353.232 21.4148C353.05 21.7405 352.959 22.1174 352.959 22.5455V28H351.618ZM368.092 28.2045C367.539 28.2045 367.037 28.1004 366.587 27.892C366.136 27.6799 365.778 27.375 365.513 26.9773C365.248 26.5758 365.115 26.0909 365.115 25.5227C365.115 25.0227 365.214 24.6174 365.411 24.3068C365.607 23.9924 365.871 23.7462 366.2 23.5682C366.53 23.3902 366.893 23.2576 367.291 23.1705C367.693 23.0795 368.096 23.0076 368.501 22.9545C369.032 22.8864 369.462 22.8352 369.791 22.8011C370.125 22.7633 370.367 22.7008 370.518 22.6136C370.674 22.5265 370.751 22.375 370.751 22.1591V22.1136C370.751 21.553 370.598 21.1174 370.291 20.8068C369.988 20.4962 369.528 20.3409 368.911 20.3409C368.27 20.3409 367.768 20.4811 367.405 20.7614C367.041 21.0417 366.786 21.3409 366.638 21.6591L365.365 21.2045C365.592 20.6742 365.895 20.2614 366.274 19.9659C366.657 19.6667 367.073 19.4583 367.524 19.3409C367.979 19.2197 368.426 19.1591 368.865 19.1591C369.145 19.1591 369.467 19.1932 369.831 19.2614C370.198 19.3258 370.553 19.4602 370.893 19.6648C371.238 19.8693 371.524 20.178 371.751 20.5909C371.979 21.0038 372.092 21.5568 372.092 22.25V28H370.751V26.8182H370.683C370.592 27.0076 370.441 27.2102 370.229 27.4261C370.017 27.642 369.734 27.8258 369.382 27.9773C369.03 28.1288 368.6 28.2045 368.092 28.2045ZM368.297 27C368.827 27 369.274 26.8958 369.638 26.6875C370.005 26.4792 370.282 26.2102 370.467 25.8807C370.657 25.5511 370.751 25.2045 370.751 24.8409V23.6136C370.695 23.6818 370.57 23.7443 370.376 23.8011C370.187 23.8542 369.967 23.9015 369.717 23.9432C369.471 23.9811 369.231 24.0152 368.996 24.0455C368.765 24.072 368.577 24.0947 368.433 24.1136C368.085 24.1591 367.759 24.233 367.456 24.3352C367.157 24.4337 366.914 24.5833 366.729 24.7841C366.547 24.9811 366.456 25.25 366.456 25.5909C366.456 26.0568 366.628 26.4091 366.973 26.6477C367.321 26.8826 367.763 27 368.297 27ZM374.54 28V19.2727H375.881V28H374.54ZM375.222 17.8182C374.96 17.8182 374.735 17.7292 374.545 17.5511C374.36 17.3731 374.267 17.1591 374.267 16.9091C374.267 16.6591 374.36 16.4451 374.545 16.267C374.735 16.089 374.96 16 375.222 16C375.483 16 375.706 16.089 375.892 16.267C376.081 16.4451 376.176 16.6591 376.176 16.9091C376.176 17.1591 376.081 17.3731 375.892 17.5511C375.706 17.7292 375.483 17.8182 375.222 17.8182ZM379.678 16.3636V28H378.337V16.3636H379.678Z" fill="#C0C0C3"/>
<rect x="405" y="8" width="28" height="28" rx="6" fill="#1D1D1D"/>
<path fill-rule="evenodd" clip-rule="evenodd" d="M412.703 15.5431C412.505 15.455 412.272 15.5048 412.128 15.6664C411.983 15.828 411.959 16.0645 412.068 16.252L415.421 22L412.068 27.7481C411.959 27.9355 411.983 28.172 412.128 28.3336C412.272 28.4952 412.505 28.545 412.703 28.4569L426.203 22.4569C426.384 22.3767 426.5 22.1976 426.5 22C426.5 21.8024 426.384 21.6234 426.203 21.5431L412.703 15.5431ZM416.346 21.6L413.712 17.086L424.769 22L413.712 26.914L416.346 22.4H420.5C420.721 22.4 420.9 22.2209 420.9 22C420.9 21.7791 420.721 21.6 420.5 21.6H416.346Z" fill="#C0C0C3"/>
<rect x="0.5" y="0.5" width="440" height="43" rx="7.5" stroke="#2D2D30"/>
</svg>
