<svg width="100%" height="100%" viewBox="0 0 40 40" fill="none" xmlns="http://www.w3.org/2000/svg">
<rect x="0.5" y="0.5" width="39" height="39" rx="7.5" fill="#FCFCFD"/>
<path fill-rule="evenodd" clip-rule="evenodd" d="M22 14.848C22 13.6806 22.3228 12.8161 22.8554 12.2483C23.3822 11.6867 24.1909 11.3333 25.3352 11.3333C26.598 11.3333 27.4451 11.7407 27.9629 12.4085C28.4041 12.9775 28.6667 13.7908 28.6667 14.8443C28.6667 15.2125 28.9651 15.511 29.3333 15.511C29.7015 15.511 30 15.2125 30 14.8443C30 13.5766 29.6834 12.4514 29.0166 11.5915C28.1852 10.5192 26.8991 10 25.3352 10C23.9059 10 22.7136 10.4505 21.8829 11.3361C21.058 12.2156 20.6667 13.4418 20.6667 14.848V18H11.3333C10.597 18 10 18.597 10 19.3333V27.3333C10 28.0697 10.597 28.6667 11.3333 28.6667H23.3333C24.0697 28.6667 24.6667 28.0697 24.6667 27.3333V19.3333C24.6667 18.597 24.0697 18 23.3333 18H22V14.848ZM11.3333 19.3333L23.3333 19.3333V27.3333H11.3333V19.3333Z" fill="#64646B"/>
<rect x="0.5" y="0.5" width="39" height="39" rx="7.5" stroke="#EDEEF0"/>
</svg>