<svg width="100%" height="100%" viewBox="0 0 41 40" fill="none" xmlns="http://www.w3.org/2000/svg">
<rect x="0.832031" y="0.5" width="39" height="39" rx="7.5" fill="#FCFCFD"/>
<path fill-rule="evenodd" clip-rule="evenodd" d="M20.332 27.3327C19.9638 27.3327 19.6653 27.0342 19.6653 26.666L19.6653 14.9422L15.47 19.1374C15.2097 19.3978 14.7876 19.3978 14.5272 19.1374C14.2669 18.8771 14.2669 18.455 14.5272 18.1946L19.8606 12.8613C19.9856 12.7363 20.1552 12.666 20.332 12.666C20.5088 12.666 20.6783 12.7363 20.8034 12.8613L26.1367 18.1946C26.3971 18.455 26.3971 18.8771 26.1367 19.1374C25.8764 19.3978 25.4542 19.3978 25.1939 19.1374L20.9986 14.9422L20.9986 26.666C20.9986 27.0342 20.7002 27.3327 20.332 27.3327Z" fill="#64646B"/>
<rect x="0.832031" y="0.5" width="39" height="39" rx="7.5" stroke="#EDEEF0"/>
</svg>