<svg width="538" height="44" viewBox="0 0 538 44" fill="none" xmlns="http://www.w3.org/2000/svg">
<rect x="0.5" y="0.5" width="537" height="43" rx="7.5" fill="#222222"/>
<path d="M13.4091 28V16.3636H14.8182V21.5455H21.0227V16.3636H22.4318V28H21.0227V22.7955H14.8182V28H13.4091ZM28.7301 28.1818C27.8892 28.1818 27.1638 27.9962 26.554 27.625C25.9479 27.25 25.4801 26.7273 25.1506 26.0568C24.8248 25.3826 24.6619 24.5985 24.6619 23.7045C24.6619 22.8106 24.8248 22.0227 25.1506 21.3409C25.4801 20.6553 25.9384 20.1212 26.5256 19.7386C27.1165 19.3523 27.8059 19.1591 28.5938 19.1591C29.0483 19.1591 29.4972 19.2348 29.9403 19.3864C30.3835 19.5379 30.7869 19.7841 31.1506 20.125C31.5142 20.4621 31.804 20.9091 32.0199 21.4659C32.2358 22.0227 32.3438 22.7083 32.3438 23.5227V24.0909H25.6165V22.9318H30.9801C30.9801 22.4394 30.8816 22 30.6847 21.6136C30.4915 21.2273 30.215 20.9223 29.8551 20.6989C29.4991 20.4754 29.0786 20.3636 28.5938 20.3636C28.0597 20.3636 27.5975 20.4962 27.2074 20.7614C26.821 21.0227 26.5237 21.3636 26.3153 21.7841C26.107 22.2045 26.0028 22.6553 26.0028 23.1364V23.9091C26.0028 24.5682 26.1165 25.1269 26.3438 25.5852C26.5748 26.0398 26.8949 26.3864 27.304 26.625C27.7131 26.8598 28.1884 26.9773 28.7301 26.9773C29.0824 26.9773 29.4006 26.928 29.6847 26.8295C29.9725 26.7273 30.2206 26.5758 30.429 26.375C30.6373 26.1705 30.7983 25.9167 30.9119 25.6136L32.2074 25.9773C32.071 26.4167 31.8419 26.803 31.5199 27.1364C31.1979 27.4659 30.8002 27.7235 30.3267 27.9091C29.8532 28.0909 29.321 28.1818 28.7301 28.1818ZM35.7244 16.3636V28H34.3835V16.3636H35.7244ZM38.1804 31.2727V19.2727H39.4759V20.6591H39.6349C39.7334 20.5076 39.8698 20.3144 40.044 20.0795C40.2221 19.8409 40.4759 19.6288 40.8054 19.4432C41.1387 19.2538 41.5895 19.1591 42.1577 19.1591C42.8925 19.1591 43.5402 19.3428 44.1009 19.7102C44.6615 20.0777 45.099 20.5985 45.4134 21.2727C45.7277 21.947 45.8849 22.7424 45.8849 23.6591C45.8849 24.5833 45.7277 25.3845 45.4134 26.0625C45.099 26.7367 44.6634 27.2595 44.1065 27.6307C43.5497 27.9981 42.9077 28.1818 42.1804 28.1818C41.6198 28.1818 41.1709 28.089 40.8338 27.9034C40.4967 27.714 40.2372 27.5 40.0554 27.2614C39.8736 27.0189 39.7334 26.8182 39.6349 26.6591H39.5213V31.2727H38.1804ZM39.4986 23.6364C39.4986 24.2955 39.5952 24.8769 39.7884 25.3807C39.9815 25.8807 40.2637 26.2727 40.6349 26.5568C41.0062 26.8371 41.4607 26.9773 41.9986 26.9773C42.5592 26.9773 43.027 26.8295 43.402 26.5341C43.7808 26.2348 44.0649 25.8333 44.2543 25.3295C44.4474 24.822 44.544 24.2576 44.544 23.6364C44.544 23.0227 44.4493 22.4697 44.2599 21.9773C44.0743 21.4811 43.7921 21.089 43.4134 20.8011C43.0384 20.5095 42.5668 20.3636 41.9986 20.3636C41.4531 20.3636 40.9948 20.5019 40.6236 20.7784C40.2524 21.0511 39.9721 21.4337 39.7827 21.9261C39.5933 22.4148 39.4986 22.9848 39.4986 23.6364ZM52.4304 28V19.2727H53.7259V20.6364H53.8395C54.0213 20.1705 54.3149 19.8087 54.7202 19.5511C55.1255 19.2898 55.6122 19.1591 56.1804 19.1591C56.7562 19.1591 57.2353 19.2898 57.6179 19.5511C58.0043 19.8087 58.3054 20.1705 58.5213 20.6364H58.6122C58.8357 20.1856 59.1709 19.8277 59.6179 19.5625C60.0649 19.2936 60.6009 19.1591 61.2259 19.1591C62.0062 19.1591 62.6444 19.4034 63.1406 19.892C63.6368 20.3769 63.8849 21.1326 63.8849 22.1591V28H62.544V22.1591C62.544 21.5152 62.3679 21.0549 62.0156 20.7784C61.6634 20.5019 61.2486 20.3636 60.7713 20.3636C60.1577 20.3636 59.6823 20.5492 59.3452 20.9205C59.008 21.2879 58.8395 21.7538 58.8395 22.3182V28H57.4759V22.0227C57.4759 21.5265 57.3149 21.1269 56.9929 20.8239C56.6709 20.517 56.2562 20.3636 55.7486 20.3636C55.4001 20.3636 55.0743 20.4564 54.7713 20.642C54.4721 20.8277 54.2296 21.0852 54.044 21.4148C53.8622 21.7405 53.7713 22.1174 53.7713 22.5455V28H52.4304ZM69.9957 28.1818C69.1548 28.1818 68.4295 27.9962 67.8196 27.625C67.2135 27.25 66.7457 26.7273 66.4162 26.0568C66.0904 25.3826 65.9276 24.5985 65.9276 23.7045C65.9276 22.8106 66.0904 22.0227 66.4162 21.3409C66.7457 20.6553 67.2041 20.1212 67.7912 19.7386C68.3821 19.3523 69.0715 19.1591 69.8594 19.1591C70.3139 19.1591 70.7628 19.2348 71.206 19.3864C71.6491 19.5379 72.0526 19.7841 72.4162 20.125C72.7798 20.4621 73.0696 20.9091 73.2855 21.4659C73.5014 22.0227 73.6094 22.7083 73.6094 23.5227V24.0909H66.8821V22.9318H72.2457C72.2457 22.4394 72.1473 22 71.9503 21.6136C71.7571 21.2273 71.4806 20.9223 71.1207 20.6989C70.7647 20.4754 70.3442 20.3636 69.8594 20.3636C69.3253 20.3636 68.8632 20.4962 68.473 20.7614C68.0866 21.0227 67.7893 21.3636 67.581 21.7841C67.3726 22.2045 67.2685 22.6553 67.2685 23.1364V23.9091C67.2685 24.5682 67.3821 25.1269 67.6094 25.5852C67.8404 26.0398 68.1605 26.3864 68.5696 26.625C68.9787 26.8598 69.4541 26.9773 69.9957 26.9773C70.348 26.9773 70.6662 26.928 70.9503 26.8295C71.2382 26.7273 71.4863 26.5758 71.6946 26.375C71.9029 26.1705 72.0639 25.9167 72.1776 25.6136L73.473 25.9773C73.3366 26.4167 73.1075 26.803 72.7855 27.1364C72.4635 27.4659 72.0658 27.7235 71.5923 27.9091C71.1188 28.0909 70.5866 28.1818 69.9957 28.1818ZM83.6946 28.1818C82.8764 28.1818 82.1719 27.9886 81.581 27.6023C80.9901 27.2159 80.5355 26.6837 80.2173 26.0057C79.8991 25.3277 79.7401 24.553 79.7401 23.6818C79.7401 22.7955 79.9029 22.0133 80.2287 21.3352C80.5582 20.6534 81.0166 20.1212 81.6037 19.7386C82.1946 19.3523 82.884 19.1591 83.6719 19.1591C84.2855 19.1591 84.8385 19.2727 85.331 19.5C85.8234 19.7273 86.2268 20.0455 86.5412 20.4545C86.8556 20.8636 87.0507 21.3409 87.1264 21.8864H85.7855C85.6832 21.4886 85.456 21.1364 85.1037 20.8295C84.7552 20.5189 84.2855 20.3636 83.6946 20.3636C83.1719 20.3636 82.7135 20.5 82.3196 20.7727C81.9295 21.0417 81.6245 21.4223 81.4048 21.9148C81.1889 22.4034 81.081 22.9773 81.081 23.6364C81.081 24.3106 81.187 24.8977 81.3991 25.3977C81.6151 25.8977 81.9181 26.286 82.3082 26.5625C82.7022 26.839 83.1643 26.9773 83.6946 26.9773C84.0431 26.9773 84.3594 26.9167 84.6435 26.7955C84.9276 26.6742 85.1681 26.5 85.3651 26.2727C85.562 26.0455 85.7022 25.7727 85.7855 25.4545H87.1264C87.0507 25.9697 86.8632 26.4337 86.5639 26.8466C86.2685 27.2557 85.8764 27.5814 85.3878 27.8239C84.9029 28.0625 84.3385 28.1818 83.6946 28.1818ZM89.0866 28V19.2727H90.3821V20.5909H90.473C90.6321 20.1591 90.92 19.8087 91.3366 19.5398C91.7533 19.2708 92.223 19.1364 92.7457 19.1364C92.8442 19.1364 92.9673 19.1383 93.1151 19.142C93.2628 19.1458 93.3745 19.1515 93.4503 19.1591V20.5227C93.4048 20.5114 93.3007 20.4943 93.1378 20.4716C92.9787 20.4451 92.8101 20.4318 92.6321 20.4318C92.2079 20.4318 91.8291 20.5208 91.4957 20.6989C91.1662 20.8731 90.9048 21.1155 90.7116 21.4261C90.5223 21.733 90.4276 22.0833 90.4276 22.4773V28H89.0866ZM98.4332 28.1818C97.5923 28.1818 96.867 27.9962 96.2571 27.625C95.651 27.25 95.1832 26.7273 94.8537 26.0568C94.5279 25.3826 94.3651 24.5985 94.3651 23.7045C94.3651 22.8106 94.5279 22.0227 94.8537 21.3409C95.1832 20.6553 95.6416 20.1212 96.2287 19.7386C96.8196 19.3523 97.509 19.1591 98.2969 19.1591C98.7514 19.1591 99.2003 19.2348 99.6435 19.3864C100.087 19.5379 100.49 19.7841 100.854 20.125C101.217 20.4621 101.507 20.9091 101.723 21.4659C101.939 22.0227 102.047 22.7083 102.047 23.5227V24.0909H95.3196V22.9318H100.683C100.683 22.4394 100.585 22 100.388 21.6136C100.195 21.2273 99.9181 20.9223 99.5582 20.6989C99.2022 20.4754 98.7817 20.3636 98.2969 20.3636C97.7628 20.3636 97.3007 20.4962 96.9105 20.7614C96.5241 21.0227 96.2268 21.3636 96.0185 21.7841C95.8101 22.2045 95.706 22.6553 95.706 23.1364V23.9091C95.706 24.5682 95.8196 25.1269 96.0469 25.5852C96.2779 26.0398 96.598 26.3864 97.0071 26.625C97.4162 26.8598 97.8916 26.9773 98.4332 26.9773C98.7855 26.9773 99.1037 26.928 99.3878 26.8295C99.6757 26.7273 99.9238 26.5758 100.132 26.375C100.34 26.1705 100.501 25.9167 100.615 25.6136L101.911 25.9773C101.774 26.4167 101.545 26.803 101.223 27.1364C100.901 27.4659 100.503 27.7235 100.03 27.9091C99.5563 28.0909 99.0241 28.1818 98.4332 28.1818ZM106.655 28.2045C106.102 28.2045 105.6 28.1004 105.149 27.892C104.698 27.6799 104.34 27.375 104.075 26.9773C103.81 26.5758 103.678 26.0909 103.678 25.5227C103.678 25.0227 103.776 24.6174 103.973 24.3068C104.17 23.9924 104.433 23.7462 104.763 23.5682C105.092 23.3902 105.456 23.2576 105.854 23.1705C106.255 23.0795 106.659 23.0076 107.064 22.9545C107.594 22.8864 108.024 22.8352 108.354 22.8011C108.687 22.7633 108.929 22.7008 109.081 22.6136C109.236 22.5265 109.314 22.375 109.314 22.1591V22.1136C109.314 21.553 109.161 21.1174 108.854 20.8068C108.551 20.4962 108.09 20.3409 107.473 20.3409C106.833 20.3409 106.331 20.4811 105.967 20.7614C105.604 21.0417 105.348 21.3409 105.2 21.6591L103.928 21.2045C104.155 20.6742 104.458 20.2614 104.837 19.9659C105.219 19.6667 105.636 19.4583 106.087 19.3409C106.541 19.2197 106.988 19.1591 107.428 19.1591C107.708 19.1591 108.03 19.1932 108.393 19.2614C108.761 19.3258 109.115 19.4602 109.456 19.6648C109.801 19.8693 110.087 20.178 110.314 20.5909C110.541 21.0038 110.655 21.5568 110.655 22.25V28H109.314V26.8182H109.246C109.155 27.0076 109.003 27.2102 108.791 27.4261C108.579 27.642 108.297 27.8258 107.945 27.9773C107.592 28.1288 107.162 28.2045 106.655 28.2045ZM106.859 27C107.39 27 107.837 26.8958 108.2 26.6875C108.568 26.4792 108.844 26.2102 109.03 25.8807C109.219 25.5511 109.314 25.2045 109.314 24.8409V23.6136C109.257 23.6818 109.132 23.7443 108.939 23.8011C108.75 23.8542 108.53 23.9015 108.28 23.9432C108.034 23.9811 107.793 24.0152 107.558 24.0455C107.327 24.072 107.14 24.0947 106.996 24.1136C106.647 24.1591 106.321 24.233 106.018 24.3352C105.719 24.4337 105.477 24.5833 105.291 24.7841C105.109 24.9811 105.018 25.25 105.018 25.5909C105.018 26.0568 105.191 26.4091 105.536 26.6477C105.884 26.8826 106.325 27 106.859 27ZM116.898 19.2727V20.4091H112.375V19.2727H116.898ZM113.693 17.1818H115.034V25.5C115.034 25.8788 115.089 26.1629 115.199 26.3523C115.313 26.5379 115.456 26.6629 115.631 26.7273C115.809 26.7879 115.996 26.8182 116.193 26.8182C116.341 26.8182 116.462 26.8106 116.557 26.7955C116.652 26.7765 116.727 26.7614 116.784 26.75L117.057 27.9545C116.966 27.9886 116.839 28.0227 116.676 28.0568C116.513 28.0947 116.307 28.1136 116.057 28.1136C115.678 28.1136 115.307 28.0322 114.943 27.8693C114.583 27.7064 114.284 27.4583 114.045 27.125C113.811 26.7917 113.693 26.3712 113.693 25.8636V17.1818ZM122.48 28.1818C121.639 28.1818 120.914 27.9962 120.304 27.625C119.698 27.25 119.23 26.7273 118.901 26.0568C118.575 25.3826 118.412 24.5985 118.412 23.7045C118.412 22.8106 118.575 22.0227 118.901 21.3409C119.23 20.6553 119.688 20.1212 120.276 19.7386C120.866 19.3523 121.556 19.1591 122.344 19.1591C122.798 19.1591 123.247 19.2348 123.69 19.3864C124.134 19.5379 124.537 19.7841 124.901 20.125C125.264 20.4621 125.554 20.9091 125.77 21.4659C125.986 22.0227 126.094 22.7083 126.094 23.5227V24.0909H119.366V22.9318H124.73C124.73 22.4394 124.632 22 124.435 21.6136C124.241 21.2273 123.965 20.9223 123.605 20.6989C123.249 20.4754 122.829 20.3636 122.344 20.3636C121.81 20.3636 121.348 20.4962 120.957 20.7614C120.571 21.0227 120.274 21.3636 120.065 21.7841C119.857 22.2045 119.753 22.6553 119.753 23.1364V23.9091C119.753 24.5682 119.866 25.1269 120.094 25.5852C120.325 26.0398 120.645 26.3864 121.054 26.625C121.463 26.8598 121.938 26.9773 122.48 26.9773C122.832 26.9773 123.151 26.928 123.435 26.8295C123.723 26.7273 123.971 26.5758 124.179 26.375C124.387 26.1705 124.548 25.9167 124.662 25.6136L125.957 25.9773C125.821 26.4167 125.592 26.803 125.27 27.1364C124.948 27.4659 124.55 27.7235 124.077 27.9091C123.603 28.0909 123.071 28.1818 122.48 28.1818ZM135.202 28.2045C134.649 28.2045 134.147 28.1004 133.696 27.892C133.245 27.6799 132.887 27.375 132.622 26.9773C132.357 26.5758 132.224 26.0909 132.224 25.5227C132.224 25.0227 132.323 24.6174 132.52 24.3068C132.717 23.9924 132.98 23.7462 133.31 23.5682C133.639 23.3902 134.003 23.2576 134.401 23.1705C134.802 23.0795 135.205 23.0076 135.611 22.9545C136.141 22.8864 136.571 22.8352 136.901 22.8011C137.234 22.7633 137.476 22.7008 137.628 22.6136C137.783 22.5265 137.861 22.375 137.861 22.1591V22.1136C137.861 21.553 137.707 21.1174 137.401 20.8068C137.098 20.4962 136.637 20.3409 136.02 20.3409C135.38 20.3409 134.878 20.4811 134.514 20.7614C134.151 21.0417 133.895 21.3409 133.747 21.6591L132.474 21.2045C132.702 20.6742 133.005 20.2614 133.384 19.9659C133.766 19.6667 134.183 19.4583 134.634 19.3409C135.088 19.2197 135.535 19.1591 135.974 19.1591C136.255 19.1591 136.577 19.1932 136.94 19.2614C137.308 19.3258 137.662 19.4602 138.003 19.6648C138.348 19.8693 138.634 20.178 138.861 20.5909C139.088 21.0038 139.202 21.5568 139.202 22.25V28H137.861V26.8182H137.793C137.702 27.0076 137.55 27.2102 137.338 27.4261C137.126 27.642 136.844 27.8258 136.491 27.9773C136.139 28.1288 135.709 28.2045 135.202 28.2045ZM135.406 27C135.937 27 136.384 26.8958 136.747 26.6875C137.115 26.4792 137.391 26.2102 137.577 25.8807C137.766 25.5511 137.861 25.2045 137.861 24.8409V23.6136C137.804 23.6818 137.679 23.7443 137.486 23.8011C137.296 23.8542 137.077 23.9015 136.827 23.9432C136.58 23.9811 136.34 24.0152 136.105 24.0455C135.874 24.072 135.687 24.0947 135.543 24.1136C135.194 24.1591 134.868 24.233 134.565 24.3352C134.266 24.4337 134.024 24.5833 133.838 24.7841C133.656 24.9811 133.565 25.25 133.565 25.5909C133.565 26.0568 133.738 26.4091 134.082 26.6477C134.431 26.8826 134.872 27 135.406 27ZM149.672 31.4545C149.024 31.4545 148.467 31.3712 148.001 31.2045C147.536 31.0417 147.147 30.8258 146.837 30.5568C146.53 30.2917 146.286 30.0076 146.104 29.7045L147.172 28.9545C147.293 29.1136 147.446 29.2955 147.632 29.5C147.818 29.7083 148.071 29.8883 148.393 30.0398C148.719 30.1951 149.145 30.2727 149.672 30.2727C150.376 30.2727 150.958 30.1023 151.416 29.7614C151.875 29.4205 152.104 28.8864 152.104 28.1591V26.3864H151.99C151.892 26.5455 151.751 26.7424 151.57 26.9773C151.392 27.2083 151.134 27.4148 150.797 27.5966C150.464 27.7746 150.013 27.8636 149.445 27.8636C148.74 27.8636 148.107 27.697 147.547 27.3636C146.99 27.0303 146.549 26.5455 146.223 25.9091C145.901 25.2727 145.74 24.5 145.74 23.5909C145.74 22.697 145.897 21.9186 146.212 21.2557C146.526 20.589 146.964 20.0739 147.524 19.7102C148.085 19.3428 148.732 19.1591 149.467 19.1591C150.036 19.1591 150.486 19.2538 150.82 19.4432C151.157 19.6288 151.414 19.8409 151.592 20.0795C151.774 20.3144 151.914 20.5076 152.013 20.6591H152.149V19.2727H153.445V28.25C153.445 29 153.274 29.6098 152.933 30.0795C152.596 30.553 152.142 30.8996 151.57 31.1193C151.001 31.3428 150.369 31.4545 149.672 31.4545ZM149.626 26.6591C150.164 26.6591 150.619 26.536 150.99 26.2898C151.361 26.0436 151.643 25.6894 151.837 25.2273C152.03 24.7652 152.126 24.2121 152.126 23.5682C152.126 22.9394 152.032 22.3845 151.842 21.9034C151.653 21.4223 151.373 21.0455 151.001 20.7727C150.63 20.5 150.172 20.3636 149.626 20.3636C149.058 20.3636 148.585 20.5076 148.206 20.7955C147.831 21.0833 147.549 21.4697 147.359 21.9545C147.174 22.4394 147.081 22.9773 147.081 23.5682C147.081 24.1742 147.176 24.7102 147.365 25.1761C147.558 25.6383 147.842 26.0019 148.217 26.267C148.596 26.5284 149.066 26.6591 149.626 26.6591ZM155.899 28V19.2727H157.195V20.5909H157.286C157.445 20.1591 157.732 19.8087 158.149 19.5398C158.566 19.2708 159.036 19.1364 159.558 19.1364C159.657 19.1364 159.78 19.1383 159.928 19.142C160.075 19.1458 160.187 19.1515 160.263 19.1591V20.5227C160.217 20.5114 160.113 20.4943 159.95 20.4716C159.791 20.4451 159.623 20.4318 159.445 20.4318C159.02 20.4318 158.642 20.5208 158.308 20.6989C157.979 20.8731 157.717 21.1155 157.524 21.4261C157.335 21.733 157.24 22.0833 157.24 22.4773V28H155.899ZM165.132 28.1818C164.344 28.1818 163.653 27.9943 163.058 27.6193C162.467 27.2443 162.005 26.7197 161.672 26.0455C161.342 25.3712 161.178 24.5833 161.178 23.6818C161.178 22.7727 161.342 21.9792 161.672 21.3011C162.005 20.6231 162.467 20.0966 163.058 19.7216C163.653 19.3466 164.344 19.1591 165.132 19.1591C165.92 19.1591 166.609 19.3466 167.2 19.7216C167.795 20.0966 168.257 20.6231 168.587 21.3011C168.92 21.9792 169.087 22.7727 169.087 23.6818C169.087 24.5833 168.92 25.3712 168.587 26.0455C168.257 26.7197 167.795 27.2443 167.2 27.6193C166.609 27.9943 165.92 28.1818 165.132 28.1818ZM165.132 26.9773C165.731 26.9773 166.223 26.8239 166.609 26.517C166.996 26.2102 167.282 25.8068 167.467 25.3068C167.653 24.8068 167.746 24.2652 167.746 23.6818C167.746 23.0985 167.653 22.5549 167.467 22.0511C167.282 21.5473 166.996 21.1402 166.609 20.8295C166.223 20.5189 165.731 20.3636 165.132 20.3636C164.534 20.3636 164.041 20.5189 163.655 20.8295C163.268 21.1402 162.982 21.5473 162.797 22.0511C162.611 22.5549 162.518 23.0985 162.518 23.6818C162.518 24.2652 162.611 24.8068 162.797 25.3068C162.982 25.8068 163.268 26.2102 163.655 26.517C164.041 26.8239 164.534 26.9773 165.132 26.9773ZM176.634 24.4318V19.2727H177.974V28H176.634V26.5227H176.543C176.338 26.9659 176.02 27.3428 175.588 27.6534C175.156 27.9602 174.611 28.1136 173.952 28.1136C173.406 28.1136 172.921 27.9943 172.497 27.7557C172.073 27.5133 171.74 27.1496 171.497 26.6648C171.255 26.1761 171.134 25.5606 171.134 24.8182V19.2727H172.474V24.7273C172.474 25.3636 172.652 25.8712 173.009 26.25C173.368 26.6288 173.827 26.8182 174.384 26.8182C174.717 26.8182 175.056 26.733 175.401 26.5625C175.749 26.392 176.041 26.1307 176.276 25.7784C176.514 25.4261 176.634 24.9773 176.634 24.4318ZM181.771 22.75V28H180.43V19.2727H181.726V20.6364H181.839C182.044 20.1932 182.355 19.8371 182.771 19.5682C183.188 19.2955 183.726 19.1591 184.385 19.1591C184.976 19.1591 185.493 19.2803 185.936 19.5227C186.379 19.7614 186.724 20.125 186.97 20.6136C187.216 21.0985 187.339 21.7121 187.339 22.4545V28H185.999V22.5455C185.999 21.8598 185.821 21.3258 185.464 20.9432C185.108 20.5568 184.62 20.3636 183.999 20.3636C183.571 20.3636 183.188 20.4564 182.851 20.642C182.518 20.8277 182.254 21.0985 182.061 21.4545C181.868 21.8106 181.771 22.2424 181.771 22.75ZM193.085 28.1818C192.358 28.1818 191.716 27.9981 191.159 27.6307C190.602 27.2595 190.167 26.7367 189.852 26.0625C189.538 25.3845 189.381 24.5833 189.381 23.6591C189.381 22.7424 189.538 21.947 189.852 21.2727C190.167 20.5985 190.604 20.0777 191.165 19.7102C191.725 19.3428 192.373 19.1591 193.108 19.1591C193.676 19.1591 194.125 19.2538 194.455 19.4432C194.788 19.6288 195.042 19.8409 195.216 20.0795C195.394 20.3144 195.532 20.5076 195.631 20.6591H195.744V16.3636H197.085V28H195.79V26.6591H195.631C195.532 26.8182 195.392 27.0189 195.21 27.2614C195.028 27.5 194.769 27.714 194.432 27.9034C194.095 28.089 193.646 28.1818 193.085 28.1818ZM193.267 26.9773C193.805 26.9773 194.259 26.8371 194.631 26.5568C195.002 26.2727 195.284 25.8807 195.477 25.3807C195.67 24.8769 195.767 24.2955 195.767 23.6364C195.767 22.9848 195.672 22.4148 195.483 21.9261C195.294 21.4337 195.013 21.0511 194.642 20.7784C194.271 20.5019 193.813 20.3636 193.267 20.3636C192.699 20.3636 192.225 20.5095 191.847 20.8011C191.472 21.089 191.189 21.4811 191 21.9773C190.814 22.4697 190.722 23.0227 190.722 23.6364C190.722 24.2576 190.816 24.822 191.006 25.3295C191.199 25.8333 191.483 26.2348 191.858 26.5341C192.237 26.8295 192.706 26.9773 193.267 26.9773ZM199.909 28V16.3636H201.25V20.6591H201.364C201.462 20.5076 201.598 20.3144 201.773 20.0795C201.951 19.8409 202.205 19.6288 202.534 19.4432C202.867 19.2538 203.318 19.1591 203.886 19.1591C204.621 19.1591 205.269 19.3428 205.83 19.7102C206.39 20.0777 206.828 20.5985 207.142 21.2727C207.456 21.947 207.614 22.7424 207.614 23.6591C207.614 24.5833 207.456 25.3845 207.142 26.0625C206.828 26.7367 206.392 27.2595 205.835 27.6307C205.278 27.9981 204.636 28.1818 203.909 28.1818C203.348 28.1818 202.9 28.089 202.562 27.9034C202.225 27.714 201.966 27.5 201.784 27.2614C201.602 27.0189 201.462 26.8182 201.364 26.6591H201.205V28H199.909ZM201.227 23.6364C201.227 24.2955 201.324 24.8769 201.517 25.3807C201.71 25.8807 201.992 26.2727 202.364 26.5568C202.735 26.8371 203.189 26.9773 203.727 26.9773C204.288 26.9773 204.756 26.8295 205.131 26.5341C205.509 26.2348 205.794 25.8333 205.983 25.3295C206.176 24.822 206.273 24.2576 206.273 23.6364C206.273 23.0227 206.178 22.4697 205.989 21.9773C205.803 21.4811 205.521 21.089 205.142 20.8011C204.767 20.5095 204.295 20.3636 203.727 20.3636C203.182 20.3636 202.723 20.5019 202.352 20.7784C201.981 21.0511 201.701 21.4337 201.511 21.9261C201.322 22.4148 201.227 22.9848 201.227 23.6364ZM209.665 28V19.2727H210.96V20.5909H211.051C211.21 20.1591 211.498 19.8087 211.915 19.5398C212.331 19.2708 212.801 19.1364 213.324 19.1364C213.422 19.1364 213.545 19.1383 213.693 19.142C213.841 19.1458 213.953 19.1515 214.028 19.1591V20.5227C213.983 20.5114 213.879 20.4943 213.716 20.4716C213.557 20.4451 213.388 20.4318 213.21 20.4318C212.786 20.4318 212.407 20.5208 212.074 20.6989C211.744 20.8731 211.483 21.1155 211.29 21.4261C211.1 21.733 211.006 22.0833 211.006 22.4773V28H209.665ZM219.011 28.1818C218.17 28.1818 217.445 27.9962 216.835 27.625C216.229 27.25 215.761 26.7273 215.432 26.0568C215.106 25.3826 214.943 24.5985 214.943 23.7045C214.943 22.8106 215.106 22.0227 215.432 21.3409C215.761 20.6553 216.22 20.1212 216.807 19.7386C217.398 19.3523 218.087 19.1591 218.875 19.1591C219.33 19.1591 219.778 19.2348 220.222 19.3864C220.665 19.5379 221.068 19.7841 221.432 20.125C221.795 20.4621 222.085 20.9091 222.301 21.4659C222.517 22.0227 222.625 22.7083 222.625 23.5227V24.0909H215.898V22.9318H221.261C221.261 22.4394 221.163 22 220.966 21.6136C220.773 21.2273 220.496 20.9223 220.136 20.6989C219.78 20.4754 219.36 20.3636 218.875 20.3636C218.341 20.3636 217.879 20.4962 217.489 20.7614C217.102 21.0227 216.805 21.3636 216.597 21.7841C216.388 22.2045 216.284 22.6553 216.284 23.1364V23.9091C216.284 24.5682 216.398 25.1269 216.625 25.5852C216.856 26.0398 217.176 26.3864 217.585 26.625C217.994 26.8598 218.47 26.9773 219.011 26.9773C219.364 26.9773 219.682 26.928 219.966 26.8295C220.254 26.7273 220.502 26.5758 220.71 26.375C220.919 26.1705 221.08 25.9167 221.193 25.6136L222.489 25.9773C222.352 26.4167 222.123 26.803 221.801 27.1364C221.479 27.4659 221.081 27.7235 220.608 27.9091C220.134 28.0909 219.602 28.1818 219.011 28.1818ZM227.233 28.2045C226.68 28.2045 226.178 28.1004 225.727 27.892C225.277 27.6799 224.919 27.375 224.653 26.9773C224.388 26.5758 224.256 26.0909 224.256 25.5227C224.256 25.0227 224.354 24.6174 224.551 24.3068C224.748 23.9924 225.011 23.7462 225.341 23.5682C225.67 23.3902 226.034 23.2576 226.432 23.1705C226.833 23.0795 227.237 23.0076 227.642 22.9545C228.172 22.8864 228.602 22.8352 228.932 22.8011C229.265 22.7633 229.508 22.7008 229.659 22.6136C229.814 22.5265 229.892 22.375 229.892 22.1591V22.1136C229.892 21.553 229.739 21.1174 229.432 20.8068C229.129 20.4962 228.669 20.3409 228.051 20.3409C227.411 20.3409 226.909 20.4811 226.545 20.7614C226.182 21.0417 225.926 21.3409 225.778 21.6591L224.506 21.2045C224.733 20.6742 225.036 20.2614 225.415 19.9659C225.797 19.6667 226.214 19.4583 226.665 19.3409C227.119 19.2197 227.566 19.1591 228.006 19.1591C228.286 19.1591 228.608 19.1932 228.972 19.2614C229.339 19.3258 229.693 19.4602 230.034 19.6648C230.379 19.8693 230.665 20.178 230.892 20.5909C231.119 21.0038 231.233 21.5568 231.233 22.25V28H229.892V26.8182H229.824C229.733 27.0076 229.581 27.2102 229.369 27.4261C229.157 27.642 228.875 27.8258 228.523 27.9773C228.17 28.1288 227.741 28.2045 227.233 28.2045ZM227.438 27C227.968 27 228.415 26.8958 228.778 26.6875C229.146 26.4792 229.422 26.2102 229.608 25.8807C229.797 25.5511 229.892 25.2045 229.892 24.8409V23.6136C229.835 23.6818 229.71 23.7443 229.517 23.8011C229.328 23.8542 229.108 23.9015 228.858 23.9432C228.612 23.9811 228.371 24.0152 228.136 24.0455C227.905 24.072 227.718 24.0947 227.574 24.1136C227.225 24.1591 226.9 24.233 226.597 24.3352C226.297 24.4337 226.055 24.5833 225.869 24.7841C225.688 24.9811 225.597 25.25 225.597 25.5909C225.597 26.0568 225.769 26.4091 226.114 26.6477C226.462 26.8826 226.903 27 227.438 27ZM234.93 24.8182L234.908 23.1591H235.18L238.999 19.2727H240.658L236.589 23.3864H236.476L234.93 24.8182ZM233.68 28V16.3636H235.021V28H233.68ZM239.226 28L235.817 23.6818L236.771 22.75L240.93 28H239.226ZM242.384 28V19.2727H243.724V28H242.384ZM243.065 17.8182C242.804 17.8182 242.579 17.7292 242.389 17.5511C242.204 17.3731 242.111 17.1591 242.111 16.9091C242.111 16.6591 242.204 16.4451 242.389 16.267C242.579 16.089 242.804 16 243.065 16C243.327 16 243.55 16.089 243.736 16.267C243.925 16.4451 244.02 16.6591 244.02 16.9091C244.02 17.1591 243.925 17.3731 243.736 17.5511C243.55 17.7292 243.327 17.8182 243.065 17.8182ZM247.521 22.75V28H246.18V19.2727H247.476V20.6364H247.589C247.794 20.1932 248.105 19.8371 248.521 19.5682C248.938 19.2955 249.476 19.1591 250.135 19.1591C250.726 19.1591 251.243 19.2803 251.686 19.5227C252.129 19.7614 252.474 20.125 252.72 20.6136C252.966 21.0985 253.089 21.7121 253.089 22.4545V28H251.749V22.5455C251.749 21.8598 251.571 21.3258 251.214 20.9432C250.858 20.5568 250.37 20.3636 249.749 20.3636C249.321 20.3636 248.938 20.4564 248.601 20.642C248.268 20.8277 248.004 21.0985 247.811 21.4545C247.618 21.8106 247.521 22.2424 247.521 22.75ZM259.062 31.4545C258.415 31.4545 257.858 31.3712 257.392 31.2045C256.926 31.0417 256.538 30.8258 256.227 30.5568C255.92 30.2917 255.676 30.0076 255.494 29.7045L256.562 28.9545C256.684 29.1136 256.837 29.2955 257.023 29.5C257.208 29.7083 257.462 29.8883 257.784 30.0398C258.11 30.1951 258.536 30.2727 259.062 30.2727C259.767 30.2727 260.348 30.1023 260.807 29.7614C261.265 29.4205 261.494 28.8864 261.494 28.1591V26.3864H261.381C261.282 26.5455 261.142 26.7424 260.96 26.9773C260.782 27.2083 260.525 27.4148 260.188 27.5966C259.854 27.7746 259.403 27.8636 258.835 27.8636C258.131 27.8636 257.498 27.697 256.938 27.3636C256.381 27.0303 255.939 26.5455 255.614 25.9091C255.292 25.2727 255.131 24.5 255.131 23.5909C255.131 22.697 255.288 21.9186 255.602 21.2557C255.917 20.589 256.354 20.0739 256.915 19.7102C257.475 19.3428 258.123 19.1591 258.858 19.1591C259.426 19.1591 259.877 19.2538 260.21 19.4432C260.547 19.6288 260.805 19.8409 260.983 20.0795C261.165 20.3144 261.305 20.5076 261.403 20.6591H261.54V19.2727H262.835V28.25C262.835 29 262.665 29.6098 262.324 30.0795C261.987 30.553 261.532 30.8996 260.96 31.1193C260.392 31.3428 259.759 31.4545 259.062 31.4545ZM259.017 26.6591C259.555 26.6591 260.009 26.536 260.381 26.2898C260.752 26.0436 261.034 25.6894 261.227 25.2273C261.42 24.7652 261.517 24.2121 261.517 23.5682C261.517 22.9394 261.422 22.3845 261.233 21.9034C261.044 21.4223 260.763 21.0455 260.392 20.7727C260.021 20.5 259.563 20.3636 259.017 20.3636C258.449 20.3636 257.975 20.5076 257.597 20.7955C257.222 21.0833 256.939 21.4697 256.75 21.9545C256.564 22.4394 256.472 22.9773 256.472 23.5682C256.472 24.1742 256.566 24.7102 256.756 25.1761C256.949 25.6383 257.233 26.0019 257.608 26.267C257.987 26.5284 258.456 26.6591 259.017 26.6591ZM279.335 20H277.926C277.843 19.5947 277.697 19.2386 277.489 18.9318C277.284 18.625 277.034 18.3674 276.739 18.1591C276.447 17.947 276.123 17.7879 275.767 17.6818C275.411 17.5758 275.04 17.5227 274.653 17.5227C273.949 17.5227 273.311 17.7008 272.739 18.0568C272.17 18.4129 271.718 18.9375 271.381 19.6307C271.047 20.3239 270.881 21.1742 270.881 22.1818C270.881 23.1894 271.047 24.0398 271.381 24.733C271.718 25.4261 272.17 25.9508 272.739 26.3068C273.311 26.6629 273.949 26.8409 274.653 26.8409C275.04 26.8409 275.411 26.7879 275.767 26.6818C276.123 26.5758 276.447 26.4186 276.739 26.2102C277.034 25.9981 277.284 25.7386 277.489 25.4318C277.697 25.1212 277.843 24.7652 277.926 24.3636H279.335C279.229 24.9583 279.036 25.4905 278.756 25.9602C278.475 26.4299 278.127 26.8295 277.71 27.1591C277.294 27.4848 276.826 27.733 276.307 27.9034C275.792 28.0739 275.241 28.1591 274.653 28.1591C273.661 28.1591 272.778 27.9167 272.006 27.4318C271.233 26.947 270.625 26.2576 270.182 25.3636C269.739 24.4697 269.517 23.4091 269.517 22.1818C269.517 20.9545 269.739 19.8939 270.182 19C270.625 18.1061 271.233 17.4167 272.006 16.9318C272.778 16.447 273.661 16.2045 274.653 16.2045C275.241 16.2045 275.792 16.2898 276.307 16.4602C276.826 16.6307 277.294 16.8807 277.71 17.2102C278.127 17.536 278.475 17.9337 278.756 18.4034C279.036 18.8693 279.229 19.4015 279.335 20ZM281.43 28V19.2727H282.726V20.5909H282.817C282.976 20.1591 283.264 19.8087 283.68 19.5398C284.097 19.2708 284.567 19.1364 285.089 19.1364C285.188 19.1364 285.311 19.1383 285.459 19.142C285.607 19.1458 285.718 19.1515 285.794 19.1591V20.5227C285.749 20.5114 285.644 20.4943 285.482 20.4716C285.322 20.4451 285.154 20.4318 284.976 20.4318C284.552 20.4318 284.173 20.5208 283.839 20.6989C283.51 20.8731 283.249 21.1155 283.055 21.4261C282.866 21.733 282.771 22.0833 282.771 22.4773V28H281.43ZM290.663 28.1818C289.875 28.1818 289.184 27.9943 288.589 27.6193C287.999 27.2443 287.536 26.7197 287.203 26.0455C286.874 25.3712 286.709 24.5833 286.709 23.6818C286.709 22.7727 286.874 21.9792 287.203 21.3011C287.536 20.6231 287.999 20.0966 288.589 19.7216C289.184 19.3466 289.875 19.1591 290.663 19.1591C291.451 19.1591 292.141 19.3466 292.732 19.7216C293.326 20.0966 293.788 20.6231 294.118 21.3011C294.451 21.9792 294.618 22.7727 294.618 23.6818C294.618 24.5833 294.451 25.3712 294.118 26.0455C293.788 26.7197 293.326 27.2443 292.732 27.6193C292.141 27.9943 291.451 28.1818 290.663 28.1818ZM290.663 26.9773C291.262 26.9773 291.754 26.8239 292.141 26.517C292.527 26.2102 292.813 25.8068 292.999 25.3068C293.184 24.8068 293.277 24.2652 293.277 23.6818C293.277 23.0985 293.184 22.5549 292.999 22.0511C292.813 21.5473 292.527 21.1402 292.141 20.8295C291.754 20.5189 291.262 20.3636 290.663 20.3636C290.065 20.3636 289.572 20.5189 289.186 20.8295C288.8 21.1402 288.514 21.5473 288.328 22.0511C288.143 22.5549 288.05 23.0985 288.05 23.6818C288.05 24.2652 288.143 24.8068 288.328 25.3068C288.514 25.8068 288.8 26.2102 289.186 26.517C289.572 26.8239 290.065 26.9773 290.663 26.9773ZM302.847 21.2273L301.642 21.5682C301.566 21.3674 301.455 21.1723 301.307 20.983C301.163 20.7898 300.966 20.6307 300.716 20.5057C300.466 20.3807 300.146 20.3182 299.756 20.3182C299.222 20.3182 298.777 20.4413 298.42 20.6875C298.068 20.9299 297.892 21.2386 297.892 21.6136C297.892 21.947 298.013 22.2102 298.256 22.4034C298.498 22.5966 298.877 22.7576 299.392 22.8864L300.688 23.2045C301.468 23.3939 302.049 23.6837 302.432 24.0739C302.814 24.4602 303.006 24.9583 303.006 25.5682C303.006 26.0682 302.862 26.5152 302.574 26.9091C302.29 27.303 301.892 27.6136 301.381 27.8409C300.869 28.0682 300.275 28.1818 299.597 28.1818C298.706 28.1818 297.97 27.9886 297.386 27.6023C296.803 27.2159 296.434 26.6515 296.278 25.9091L297.551 25.5909C297.672 26.0606 297.902 26.4129 298.239 26.6477C298.58 26.8826 299.025 27 299.574 27C300.199 27 300.695 26.8674 301.062 26.6023C301.434 26.3333 301.619 26.0114 301.619 25.6364C301.619 25.3333 301.513 25.0795 301.301 24.875C301.089 24.6667 300.763 24.5114 300.324 24.4091L298.869 24.0682C298.07 23.8788 297.483 23.5852 297.108 23.1875C296.737 22.786 296.551 22.2841 296.551 21.6818C296.551 21.1894 296.689 20.7538 296.966 20.375C297.246 19.9962 297.627 19.6989 298.108 19.483C298.593 19.267 299.142 19.1591 299.756 19.1591C300.619 19.1591 301.297 19.3485 301.79 19.7273C302.286 20.1061 302.638 20.6061 302.847 21.2273ZM311.206 21.2273L310.001 21.5682C309.926 21.3674 309.814 21.1723 309.666 20.983C309.522 20.7898 309.325 20.6307 309.075 20.5057C308.825 20.3807 308.505 20.3182 308.115 20.3182C307.581 20.3182 307.136 20.4413 306.78 20.6875C306.428 20.9299 306.251 21.2386 306.251 21.6136C306.251 21.947 306.373 22.2102 306.615 22.4034C306.857 22.5966 307.236 22.7576 307.751 22.8864L309.047 23.2045C309.827 23.3939 310.409 23.6837 310.791 24.0739C311.174 24.4602 311.365 24.9583 311.365 25.5682C311.365 26.0682 311.221 26.5152 310.933 26.9091C310.649 27.303 310.251 27.6136 309.74 27.8409C309.229 28.0682 308.634 28.1818 307.956 28.1818C307.066 28.1818 306.329 27.9886 305.746 27.6023C305.162 27.2159 304.793 26.6515 304.638 25.9091L305.911 25.5909C306.032 26.0606 306.261 26.4129 306.598 26.6477C306.939 26.8826 307.384 27 307.933 27C308.558 27 309.054 26.8674 309.422 26.6023C309.793 26.3333 309.979 26.0114 309.979 25.6364C309.979 25.3333 309.873 25.0795 309.661 24.875C309.448 24.6667 309.123 24.5114 308.683 24.4091L307.229 24.0682C306.429 23.8788 305.842 23.5852 305.467 23.1875C305.096 22.786 304.911 22.2841 304.911 21.6818C304.911 21.1894 305.049 20.7538 305.325 20.375C305.606 19.9962 305.986 19.6989 306.467 19.483C306.952 19.267 307.501 19.1591 308.115 19.1591C308.979 19.1591 309.657 19.3485 310.149 19.7273C310.645 20.1061 310.998 20.6061 311.206 21.2273ZM318.384 22.3864V23.6364H313.293V22.3864H318.384ZM320.925 28V16.3636H322.334V26.75H327.743V28H320.925ZM329.743 28V19.2727H331.084V28H329.743ZM330.425 17.8182C330.163 17.8182 329.938 17.7292 329.749 17.5511C329.563 17.3731 329.47 17.1591 329.47 16.9091C329.47 16.6591 329.563 16.4451 329.749 16.267C329.938 16.089 330.163 16 330.425 16C330.686 16 330.91 16.089 331.095 16.267C331.285 16.4451 331.379 16.6591 331.379 16.9091C331.379 17.1591 331.285 17.3731 331.095 17.5511C330.91 17.7292 330.686 17.8182 330.425 17.8182ZM337.085 28.1818C336.267 28.1818 335.563 27.9886 334.972 27.6023C334.381 27.2159 333.926 26.6837 333.608 26.0057C333.29 25.3277 333.131 24.553 333.131 23.6818C333.131 22.7955 333.294 22.0133 333.619 21.3352C333.949 20.6534 334.407 20.1212 334.994 19.7386C335.585 19.3523 336.275 19.1591 337.062 19.1591C337.676 19.1591 338.229 19.2727 338.722 19.5C339.214 19.7273 339.617 20.0455 339.932 20.4545C340.246 20.8636 340.441 21.3409 340.517 21.8864H339.176C339.074 21.4886 338.847 21.1364 338.494 20.8295C338.146 20.5189 337.676 20.3636 337.085 20.3636C336.563 20.3636 336.104 20.5 335.71 20.7727C335.32 21.0417 335.015 21.4223 334.795 21.9148C334.58 22.4034 334.472 22.9773 334.472 23.6364C334.472 24.3106 334.578 24.8977 334.79 25.3977C335.006 25.8977 335.309 26.286 335.699 26.5625C336.093 26.839 336.555 26.9773 337.085 26.9773C337.434 26.9773 337.75 26.9167 338.034 26.7955C338.318 26.6742 338.559 26.5 338.756 26.2727C338.953 26.0455 339.093 25.7727 339.176 25.4545H340.517C340.441 25.9697 340.254 26.4337 339.955 26.8466C339.659 27.2557 339.267 27.5814 338.778 27.8239C338.294 28.0625 337.729 28.1818 337.085 28.1818ZM346.136 28.1818C345.295 28.1818 344.57 27.9962 343.96 27.625C343.354 27.25 342.886 26.7273 342.557 26.0568C342.231 25.3826 342.068 24.5985 342.068 23.7045C342.068 22.8106 342.231 22.0227 342.557 21.3409C342.886 20.6553 343.345 20.1212 343.932 19.7386C344.523 19.3523 345.212 19.1591 346 19.1591C346.455 19.1591 346.903 19.2348 347.347 19.3864C347.79 19.5379 348.193 19.7841 348.557 20.125C348.92 20.4621 349.21 20.9091 349.426 21.4659C349.642 22.0227 349.75 22.7083 349.75 23.5227V24.0909H343.023V22.9318H348.386C348.386 22.4394 348.288 22 348.091 21.6136C347.898 21.2273 347.621 20.9223 347.261 20.6989C346.905 20.4754 346.485 20.3636 346 20.3636C345.466 20.3636 345.004 20.4962 344.614 20.7614C344.227 21.0227 343.93 21.3636 343.722 21.7841C343.513 22.2045 343.409 22.6553 343.409 23.1364V23.9091C343.409 24.5682 343.523 25.1269 343.75 25.5852C343.981 26.0398 344.301 26.3864 344.71 26.625C345.119 26.8598 345.595 26.9773 346.136 26.9773C346.489 26.9773 346.807 26.928 347.091 26.8295C347.379 26.7273 347.627 26.5758 347.835 26.375C348.044 26.1705 348.205 25.9167 348.318 25.6136L349.614 25.9773C349.477 26.4167 349.248 26.803 348.926 27.1364C348.604 27.4659 348.206 27.7235 347.733 27.9091C347.259 28.0909 346.727 28.1818 346.136 28.1818ZM353.131 22.75V28H351.79V19.2727H353.085V20.6364H353.199C353.403 20.1932 353.714 19.8371 354.131 19.5682C354.547 19.2955 355.085 19.1591 355.744 19.1591C356.335 19.1591 356.852 19.2803 357.295 19.5227C357.739 19.7614 358.083 20.125 358.33 20.6136C358.576 21.0985 358.699 21.7121 358.699 22.4545V28H357.358V22.5455C357.358 21.8598 357.18 21.3258 356.824 20.9432C356.468 20.5568 355.979 20.3636 355.358 20.3636C354.93 20.3636 354.547 20.4564 354.21 20.642C353.877 20.8277 353.614 21.0985 353.42 21.4545C353.227 21.8106 353.131 22.2424 353.131 22.75ZM367.331 21.2273L366.126 21.5682C366.051 21.3674 365.939 21.1723 365.791 20.983C365.647 20.7898 365.45 20.6307 365.2 20.5057C364.95 20.3807 364.63 20.3182 364.24 20.3182C363.706 20.3182 363.261 20.4413 362.905 20.6875C362.553 20.9299 362.376 21.2386 362.376 21.6136C362.376 21.947 362.498 22.2102 362.74 22.4034C362.982 22.5966 363.361 22.7576 363.876 22.8864L365.172 23.2045C365.952 23.3939 366.534 23.6837 366.916 24.0739C367.299 24.4602 367.49 24.9583 367.49 25.5682C367.49 26.0682 367.346 26.5152 367.058 26.9091C366.774 27.303 366.376 27.6136 365.865 27.8409C365.354 28.0682 364.759 28.1818 364.081 28.1818C363.191 28.1818 362.454 27.9886 361.871 27.6023C361.287 27.2159 360.918 26.6515 360.763 25.9091L362.036 25.5909C362.157 26.0606 362.386 26.4129 362.723 26.6477C363.064 26.8826 363.509 27 364.058 27C364.683 27 365.179 26.8674 365.547 26.6023C365.918 26.3333 366.104 26.0114 366.104 25.6364C366.104 25.3333 365.998 25.0795 365.786 24.875C365.573 24.6667 365.248 24.5114 364.808 24.4091L363.354 24.0682C362.554 23.8788 361.967 23.5852 361.592 23.1875C361.221 22.786 361.036 22.2841 361.036 21.6818C361.036 21.1894 361.174 20.7538 361.45 20.375C361.731 19.9962 362.111 19.6989 362.592 19.483C363.077 19.267 363.626 19.1591 364.24 19.1591C365.104 19.1591 365.782 19.3485 366.274 19.7273C366.77 20.1061 367.123 20.6061 367.331 21.2273ZM369.509 28V19.2727H370.849V28H369.509ZM370.19 17.8182C369.929 17.8182 369.704 17.7292 369.514 17.5511C369.329 17.3731 369.236 17.1591 369.236 16.9091C369.236 16.6591 369.329 16.4451 369.514 16.267C369.704 16.089 369.929 16 370.19 16C370.452 16 370.675 16.089 370.861 16.267C371.05 16.4451 371.145 16.6591 371.145 16.9091C371.145 17.1591 371.05 17.3731 370.861 17.5511C370.675 17.7292 370.452 17.8182 370.19 17.8182ZM374.646 22.75V28H373.305V19.2727H374.601V20.6364H374.714C374.919 20.1932 375.23 19.8371 375.646 19.5682C376.063 19.2955 376.601 19.1591 377.26 19.1591C377.851 19.1591 378.368 19.2803 378.811 19.5227C379.254 19.7614 379.599 20.125 379.845 20.6136C380.091 21.0985 380.214 21.7121 380.214 22.4545V28H378.874V22.5455C378.874 21.8598 378.696 21.3258 378.339 20.9432C377.983 20.5568 377.495 20.3636 376.874 20.3636C376.446 20.3636 376.063 20.4564 375.726 20.642C375.393 20.8277 375.129 21.0985 374.936 21.4545C374.743 21.8106 374.646 22.2424 374.646 22.75ZM386.188 31.4545C385.54 31.4545 384.983 31.3712 384.517 31.2045C384.051 31.0417 383.663 30.8258 383.352 30.5568C383.045 30.2917 382.801 30.0076 382.619 29.7045L383.688 28.9545C383.809 29.1136 383.962 29.2955 384.148 29.5C384.333 29.7083 384.587 29.8883 384.909 30.0398C385.235 30.1951 385.661 30.2727 386.188 30.2727C386.892 30.2727 387.473 30.1023 387.932 29.7614C388.39 29.4205 388.619 28.8864 388.619 28.1591V26.3864H388.506C388.407 26.5455 388.267 26.7424 388.085 26.9773C387.907 27.2083 387.65 27.4148 387.312 27.5966C386.979 27.7746 386.528 27.8636 385.96 27.8636C385.256 27.8636 384.623 27.697 384.062 27.3636C383.506 27.0303 383.064 26.5455 382.739 25.9091C382.417 25.2727 382.256 24.5 382.256 23.5909C382.256 22.697 382.413 21.9186 382.727 21.2557C383.042 20.589 383.479 20.0739 384.04 19.7102C384.6 19.3428 385.248 19.1591 385.983 19.1591C386.551 19.1591 387.002 19.2538 387.335 19.4432C387.672 19.6288 387.93 19.8409 388.108 20.0795C388.29 20.3144 388.43 20.5076 388.528 20.6591H388.665V19.2727H389.96V28.25C389.96 29 389.79 29.6098 389.449 30.0795C389.112 30.553 388.657 30.8996 388.085 31.1193C387.517 31.3428 386.884 31.4545 386.188 31.4545ZM386.142 26.6591C386.68 26.6591 387.134 26.536 387.506 26.2898C387.877 26.0436 388.159 25.6894 388.352 25.2273C388.545 24.7652 388.642 24.2121 388.642 23.5682C388.642 22.9394 388.547 22.3845 388.358 21.9034C388.169 21.4223 387.888 21.0455 387.517 20.7727C387.146 20.5 386.688 20.3636 386.142 20.3636C385.574 20.3636 385.1 20.5076 384.722 20.7955C384.347 21.0833 384.064 21.4697 383.875 21.9545C383.689 22.4394 383.597 22.9773 383.597 23.5682C383.597 24.1742 383.691 24.7102 383.881 25.1761C384.074 25.6383 384.358 26.0019 384.733 26.267C385.112 26.5284 385.581 26.6591 386.142 26.6591ZM398.506 16.3636V28H397.097V16.3636H398.506ZM401.331 28V16.3636H405.263C406.176 16.3636 406.922 16.5284 407.501 16.858C408.085 17.1837 408.517 17.625 408.797 18.1818C409.077 18.7386 409.217 19.3598 409.217 20.0455C409.217 20.7311 409.077 21.3542 408.797 21.9148C408.52 22.4754 408.092 22.9223 407.513 23.2557C406.933 23.5852 406.191 23.75 405.286 23.75H402.467V22.5H405.24C405.865 22.5 406.367 22.392 406.746 22.1761C407.125 21.9602 407.399 21.6686 407.57 21.3011C407.744 20.9299 407.831 20.5114 407.831 20.0455C407.831 19.5795 407.744 19.1629 407.57 18.7955C407.399 18.428 407.123 18.1402 406.74 17.9318C406.357 17.7197 405.85 17.6136 405.217 17.6136H402.74V28H401.331ZM421.987 21.2273L420.783 21.5682C420.707 21.3674 420.595 21.1723 420.447 20.983C420.304 20.7898 420.107 20.6307 419.857 20.5057C419.607 20.3807 419.286 20.3182 418.896 20.3182C418.362 20.3182 417.917 20.4413 417.561 20.6875C417.209 20.9299 417.033 21.2386 417.033 21.6136C417.033 21.947 417.154 22.2102 417.396 22.4034C417.639 22.5966 418.018 22.7576 418.533 22.8864L419.828 23.2045C420.608 23.3939 421.19 23.6837 421.572 24.0739C421.955 24.4602 422.146 24.9583 422.146 25.5682C422.146 26.0682 422.002 26.5152 421.714 26.9091C421.43 27.303 421.033 27.6136 420.521 27.8409C420.01 28.0682 419.415 28.1818 418.737 28.1818C417.847 28.1818 417.11 27.9886 416.527 27.6023C415.944 27.2159 415.574 26.6515 415.419 25.9091L416.692 25.5909C416.813 26.0606 417.042 26.4129 417.379 26.6477C417.72 26.8826 418.165 27 418.714 27C419.339 27 419.836 26.8674 420.203 26.6023C420.574 26.3333 420.76 26.0114 420.76 25.6364C420.76 25.3333 420.654 25.0795 420.442 24.875C420.23 24.6667 419.904 24.5114 419.464 24.4091L418.01 24.0682C417.211 23.8788 416.624 23.5852 416.249 23.1875C415.877 22.786 415.692 22.2841 415.692 21.6818C415.692 21.1894 415.83 20.7538 416.107 20.375C416.387 19.9962 416.768 19.6989 417.249 19.483C417.733 19.267 418.283 19.1591 418.896 19.1591C419.76 19.1591 420.438 19.3485 420.93 19.7273C421.427 20.1061 421.779 20.6061 421.987 21.2273ZM427.96 19.2727V20.4091H423.438V19.2727H427.96ZM424.756 17.1818H426.097V25.5C426.097 25.8788 426.152 26.1629 426.261 26.3523C426.375 26.5379 426.519 26.6629 426.693 26.7273C426.871 26.7879 427.059 26.8182 427.256 26.8182C427.403 26.8182 427.525 26.8106 427.619 26.7955C427.714 26.7765 427.79 26.7614 427.847 26.75L428.119 27.9545C428.028 27.9886 427.902 28.0227 427.739 28.0568C427.576 28.0947 427.369 28.1136 427.119 28.1136C426.741 28.1136 426.369 28.0322 426.006 27.8693C425.646 27.7064 425.347 27.4583 425.108 27.125C424.873 26.7917 424.756 26.3712 424.756 25.8636V17.1818ZM429.977 28V19.2727H431.273V20.5909H431.364C431.523 20.1591 431.811 19.8087 432.227 19.5398C432.644 19.2708 433.114 19.1364 433.636 19.1364C433.735 19.1364 433.858 19.1383 434.006 19.142C434.153 19.1458 434.265 19.1515 434.341 19.1591V20.5227C434.295 20.5114 434.191 20.4943 434.028 20.4716C433.869 20.4451 433.701 20.4318 433.523 20.4318C433.098 20.4318 432.72 20.5208 432.386 20.6989C432.057 20.8731 431.795 21.1155 431.602 21.4261C431.413 21.733 431.318 22.0833 431.318 22.4773V28H429.977ZM438.499 28.2045C437.946 28.2045 437.444 28.1004 436.993 27.892C436.542 27.6799 436.184 27.375 435.919 26.9773C435.654 26.5758 435.521 26.0909 435.521 25.5227C435.521 25.0227 435.62 24.6174 435.817 24.3068C436.014 23.9924 436.277 23.7462 436.607 23.5682C436.936 23.3902 437.3 23.2576 437.697 23.1705C438.099 23.0795 438.502 23.0076 438.908 22.9545C439.438 22.8864 439.868 22.8352 440.197 22.8011C440.531 22.7633 440.773 22.7008 440.925 22.6136C441.08 22.5265 441.158 22.375 441.158 22.1591V22.1136C441.158 21.553 441.004 21.1174 440.697 20.8068C440.394 20.4962 439.934 20.3409 439.317 20.3409C438.677 20.3409 438.175 20.4811 437.811 20.7614C437.447 21.0417 437.192 21.3409 437.044 21.6591L435.771 21.2045C435.999 20.6742 436.302 20.2614 436.68 19.9659C437.063 19.6667 437.48 19.4583 437.93 19.3409C438.385 19.2197 438.832 19.1591 439.271 19.1591C439.552 19.1591 439.874 19.1932 440.237 19.2614C440.605 19.3258 440.959 19.4602 441.3 19.6648C441.644 19.8693 441.93 20.178 442.158 20.5909C442.385 21.0038 442.499 21.5568 442.499 22.25V28H441.158V26.8182H441.089C440.999 27.0076 440.847 27.2102 440.635 27.4261C440.423 27.642 440.141 27.8258 439.788 27.9773C439.436 28.1288 439.006 28.2045 438.499 28.2045ZM438.703 27C439.233 27 439.68 26.8958 440.044 26.6875C440.411 26.4792 440.688 26.2102 440.874 25.8807C441.063 25.5511 441.158 25.2045 441.158 24.8409V23.6136C441.101 23.6818 440.976 23.7443 440.783 23.8011C440.593 23.8542 440.374 23.9015 440.124 23.9432C439.877 23.9811 439.637 24.0152 439.402 24.0455C439.171 24.072 438.983 24.0947 438.839 24.1136C438.491 24.1591 438.165 24.233 437.862 24.3352C437.563 24.4337 437.321 24.5833 437.135 24.7841C436.953 24.9811 436.862 25.25 436.862 25.5909C436.862 26.0568 437.035 26.4091 437.379 26.6477C437.728 26.8826 438.169 27 438.703 27ZM448.741 19.2727V20.4091H444.219V19.2727H448.741ZM445.537 17.1818H446.878V25.5C446.878 25.8788 446.933 26.1629 447.043 26.3523C447.156 26.5379 447.3 26.6629 447.474 26.7273C447.652 26.7879 447.84 26.8182 448.037 26.8182C448.185 26.8182 448.306 26.8106 448.401 26.7955C448.495 26.7765 448.571 26.7614 448.628 26.75L448.901 27.9545C448.81 27.9886 448.683 28.0227 448.52 28.0568C448.357 28.0947 448.151 28.1136 447.901 28.1136C447.522 28.1136 447.151 28.0322 446.787 27.8693C446.427 27.7064 446.128 27.4583 445.889 27.125C445.654 26.7917 445.537 26.3712 445.537 25.8636V17.1818ZM454.324 28.1818C453.483 28.1818 452.758 27.9962 452.148 27.625C451.542 27.25 451.074 26.7273 450.744 26.0568C450.419 25.3826 450.256 24.5985 450.256 23.7045C450.256 22.8106 450.419 22.0227 450.744 21.3409C451.074 20.6553 451.532 20.1212 452.119 19.7386C452.71 19.3523 453.4 19.1591 454.188 19.1591C454.642 19.1591 455.091 19.2348 455.534 19.3864C455.977 19.5379 456.381 19.7841 456.744 20.125C457.108 20.4621 457.398 20.9091 457.614 21.4659C457.83 22.0227 457.938 22.7083 457.938 23.5227V24.0909H451.21V22.9318H456.574C456.574 22.4394 456.475 22 456.278 21.6136C456.085 21.2273 455.809 20.9223 455.449 20.6989C455.093 20.4754 454.672 20.3636 454.188 20.3636C453.653 20.3636 453.191 20.4962 452.801 20.7614C452.415 21.0227 452.117 21.3636 451.909 21.7841C451.701 22.2045 451.597 22.6553 451.597 23.1364V23.9091C451.597 24.5682 451.71 25.1269 451.938 25.5852C452.169 26.0398 452.489 26.3864 452.898 26.625C453.307 26.8598 453.782 26.9773 454.324 26.9773C454.676 26.9773 454.994 26.928 455.278 26.8295C455.566 26.7273 455.814 26.5758 456.023 26.375C456.231 26.1705 456.392 25.9167 456.506 25.6136L457.801 25.9773C457.665 26.4167 457.436 26.803 457.114 27.1364C456.792 27.4659 456.394 27.7235 455.92 27.9091C455.447 28.0909 454.915 28.1818 454.324 28.1818ZM463.5 31.4545C462.852 31.4545 462.295 31.3712 461.83 31.2045C461.364 31.0417 460.975 30.8258 460.665 30.5568C460.358 30.2917 460.114 30.0076 459.932 29.7045L461 28.9545C461.121 29.1136 461.275 29.2955 461.46 29.5C461.646 29.7083 461.9 29.8883 462.222 30.0398C462.547 30.1951 462.973 30.2727 463.5 30.2727C464.205 30.2727 464.786 30.1023 465.244 29.7614C465.703 29.4205 465.932 28.8864 465.932 28.1591V26.3864H465.818C465.72 26.5455 465.58 26.7424 465.398 26.9773C465.22 27.2083 464.962 27.4148 464.625 27.5966C464.292 27.7746 463.841 27.8636 463.273 27.8636C462.568 27.8636 461.936 27.697 461.375 27.3636C460.818 27.0303 460.377 26.5455 460.051 25.9091C459.729 25.2727 459.568 24.5 459.568 23.5909C459.568 22.697 459.725 21.9186 460.04 21.2557C460.354 20.589 460.792 20.0739 461.352 19.7102C461.913 19.3428 462.561 19.1591 463.295 19.1591C463.864 19.1591 464.314 19.2538 464.648 19.4432C464.985 19.6288 465.242 19.8409 465.42 20.0795C465.602 20.3144 465.742 20.5076 465.841 20.6591H465.977V19.2727H467.273V28.25C467.273 29 467.102 29.6098 466.761 30.0795C466.424 30.553 465.97 30.8996 465.398 31.1193C464.83 31.3428 464.197 31.4545 463.5 31.4545ZM463.455 26.6591C463.992 26.6591 464.447 26.536 464.818 26.2898C465.189 26.0436 465.472 25.6894 465.665 25.2273C465.858 24.7652 465.955 24.2121 465.955 23.5682C465.955 22.9394 465.86 22.3845 465.67 21.9034C465.481 21.4223 465.201 21.0455 464.83 20.7727C464.458 20.5 464 20.3636 463.455 20.3636C462.886 20.3636 462.413 20.5076 462.034 20.7955C461.659 21.0833 461.377 21.4697 461.188 21.9545C461.002 22.4394 460.909 22.9773 460.909 23.5682C460.909 24.1742 461.004 24.7102 461.193 25.1761C461.386 25.6383 461.67 26.0019 462.045 26.267C462.424 26.5284 462.894 26.6591 463.455 26.6591ZM470.591 31.2727C470.364 31.2727 470.161 31.2538 469.983 31.2159C469.805 31.1818 469.682 31.1477 469.614 31.1136L469.955 29.9318C470.28 30.0152 470.568 30.0455 470.818 30.0227C471.068 30 471.29 29.8883 471.483 29.6875C471.68 29.4905 471.86 29.1705 472.023 28.7273L472.273 28.0455L469.045 19.2727H470.5L472.909 26.2273H473L475.409 19.2727H476.864L473.159 29.2727C472.992 29.7235 472.786 30.0966 472.54 30.392C472.294 30.6913 472.008 30.9129 471.682 31.0568C471.36 31.2008 470.996 31.2727 470.591 31.2727Z" fill="#C0C0C3"/>
<rect x="502" y="8" width="28" height="28" rx="6" fill="#1D1D1D"/>
<path fill-rule="evenodd" clip-rule="evenodd" d="M509.703 15.5431C509.505 15.455 509.272 15.5048 509.128 15.6664C508.983 15.828 508.959 16.0645 509.068 16.252L512.421 22L509.068 27.7481C508.959 27.9355 508.983 28.172 509.128 28.3336C509.272 28.4952 509.505 28.545 509.703 28.4569L523.203 22.4569C523.384 22.3767 523.5 22.1976 523.5 22C523.5 21.8024 523.384 21.6234 523.203 21.5431L509.703 15.5431ZM513.346 21.6L510.712 17.086L521.769 22L510.712 26.914L513.346 22.4H517.5C517.721 22.4 517.9 22.2209 517.9 22C517.9 21.7791 517.721 21.6 517.5 21.6H513.346Z" fill="#C0C0C3"/>
<rect x="0.5" y="0.5" width="537" height="43" rx="7.5" stroke="#2D2D30"/>
</svg>
