<svg xmlns="http://www.w3.org/2000/svg" xmlns:xlink="http://www.w3.org/1999/xlink" viewBox="0 0 640 360" width="640" height="360" preserveAspectRatio="xMidYMid meet" style="width: 100%; height: 100%; transform: translate3d(0px, 0px, 0px); content-visibility: visible;"><defs><clipPath id="__lottie_element_3096"><rect width="640" height="360" x="0" y="0"/></clipPath><clipPath id="__lottie_element_3101"><path d="M0,0 L1280,0 L1280,720 L0,720z"/></clipPath></defs><g clip-path="url(#__lottie_element_3096)"><g transform="matrix(1,0,0,1,320,180)" opacity="1" style="display: block;"><g opacity="1" transform="matrix(1,0,0,1,0,0)"><path fill="rgb(17,17,17)" fill-opacity="1" d=" M272,-14 C272,-14 272,14 272,14 C272,18.415199279785156 268.4151916503906,22 264,22 C264,22 -264,22 -264,22 C-268.4151916503906,22 -272,18.415199279785156 -272,14 C-272,14 -272,-14 -272,-14 C-272,-18.415199279785156 -268.4151916503906,-22 -264,-22 C-264,-22 264,-22 264,-22 C268.4151916503906,-22 272,-18.415199279785156 272,-14z"/><path stroke-linecap="butt" stroke-linejoin="miter" fill-opacity="0" stroke-miterlimit="4" stroke="rgb(100,100,107)" stroke-opacity="1" stroke-width="1" d=" M272,-14 C272,-14 272,14 272,14 C272,18.415199279785156 268.4151916503906,22 264,22 C264,22 -264,22 -264,22 C-268.4151916503906,22 -272,18.415199279785156 -272,14 C-272,14 -272,-14 -272,-14 C-272,-18.415199279785156 -268.4151916503906,-22 -264,-22 C-264,-22 264,-22 264,-22 C268.4151916503906,-22 272,-18.415199279785156 272,-14z"/></g></g><g clip-path="url(#__lottie_element_3101)" transform="matrix(1,0,0,1,121,-180)" opacity="1" style="display: block;"><g transform="matrix(1,0,0,1,380.5,360)" opacity="0.8" style="display: none;"><g opacity="1" transform="matrix(1,0,0,1,0,0)"><path fill="rgb(44,115,192)" fill-opacity="1" d=" M0.5,-12 C0.5,-12 0.5,12 0.5,12 C0.5,12 -0.5,12 -0.5,12 C-0.5,12 -0.5,-12 -0.5,-12 C-0.5,-12 0.5,-12 0.5,-12z"/></g></g><g transform="matrix(1,0,0,1,380.5,360)" opacity="0.8" style="display: none;"><g opacity="1" transform="matrix(1,0,0,1,0,0)"><path fill="rgb(44,115,192)" fill-opacity="1" d=" M0.5,-12 C0.5,-12 0.5,12 0.5,12 C0.5,12 -0.5,12 -0.5,12 C-0.5,12 -0.5,-12 -0.5,-12 C-0.5,-12 0.5,-12 0.5,-12z"/></g></g><g transform="matrix(1,0,0,1,380.5,360)" opacity="0.8" style="display: none;"><g opacity="1" transform="matrix(1,0,0,1,0,0)"><path fill="rgb(44,115,192)" fill-opacity="1" d=" M0.5,-12 C0.5,-12 0.5,12 0.5,12 C0.5,12 -0.5,12 -0.5,12 C-0.5,12 -0.5,-12 -0.5,-12 C-0.5,-12 0.5,-12 0.5,-12z"/></g></g></g><g transform="matrix(1,0,0,1,196,186.28399658203125)" opacity="1" fill="rgb(192,192,195)" font-size="16" font-family="Inter" font-style="normal" font-weight="400" aria-label="What legal framework governs e-commerce transactions?" style="display: block;"><g stroke-linecap="butt" stroke-linejoin="round" stroke-miterlimit="4" transform="matrix(1,0,0,1,-136,-0.36376953125)" opacity="1" style="display: inherit;"><g><g transform="matrix(1,0,0,1,0,0)" opacity="1" style="display: block;"><path d=" M4.98,0 C4.98,0 7.55,-9.27 7.55,-9.27 C7.55,-9.27 7.64,-9.27 7.64,-9.27 C7.64,-9.27 10.2,0 10.2,0 C10.2,0 11.66,0 11.66,0 C11.66,0 14.84,-11.64 14.84,-11.64 C14.84,-11.64 13.41,-11.64 13.41,-11.64 C13.41,-11.64 10.98,-2.16 10.98,-2.16 C10.98,-2.16 10.86,-2.16 10.86,-2.16 C10.86,-2.16 8.39,-11.64 8.39,-11.64 C8.39,-11.64 6.8,-11.64 6.8,-11.64 C6.8,-11.64 4.32,-2.16 4.32,-2.16 C4.32,-2.16 4.2,-2.16 4.2,-2.16 C4.2,-2.16 1.77,-11.64 1.77,-11.64 C1.77,-11.64 0.34,-11.64 0.34,-11.64 C0.34,-11.64 3.52,0 3.52,0 C3.52,0 4.98,0 4.98,0z"/><g opacity="1" transform="matrix(0.1599999964237213,0,0,0.1599999964237213,0,0)"/></g></g></g><g stroke-linecap="butt" stroke-linejoin="round" stroke-miterlimit="4" transform="matrix(1,0,0,1,-120.81759643554688,-0.36376953125)" opacity="1" style="display: inherit;"><g><g transform="matrix(1,0,0,1,0,0)" opacity="1" style="display: block;"><path d=" M2.87,-6.55 C3.07,-6.9 3.34,-7.17 3.68,-7.36 C4.03,-7.54 4.42,-7.64 4.86,-7.64 C5.5,-7.64 5.99,-7.45 6.35,-7.07 C6.71,-6.68 6.89,-6.15 6.89,-5.45 C6.89,-5.45 6.89,0 6.89,0 C6.89,0 8.23,0 8.23,0 C8.23,0 8.23,-5.55 8.23,-5.55 C8.23,-6.3 8.1,-6.91 7.86,-7.4 C7.61,-7.89 7.26,-8.25 6.81,-8.49 C6.37,-8.72 5.84,-8.84 5.25,-8.84 C4.56,-8.84 4.02,-8.71 3.61,-8.44 C3.19,-8.17 2.89,-7.81 2.68,-7.36 C2.68,-7.36 2.57,-7.36 2.57,-7.36 C2.57,-7.36 2.57,-11.64 2.57,-11.64 C2.57,-11.64 1.23,-11.64 1.23,-11.64 C1.23,-11.64 1.23,0 1.23,0 C1.23,0 2.57,0 2.57,0 C2.57,0 2.57,-5.25 2.57,-5.25 C2.57,-5.76 2.67,-6.19 2.87,-6.55z"/><g opacity="1" transform="matrix(0.1599999964237213,0,0,0.1599999964237213,0,0)"/></g></g></g><g stroke-linecap="butt" stroke-linejoin="round" stroke-miterlimit="4" transform="matrix(1,0,0,1,-111.36319732666016,-0.36376953125)" opacity="1" style="display: inherit;"><g><g transform="matrix(1,0,0,1,0,0)" opacity="1" style="display: block;"><path d=" M2.68,-1.36 C2.33,-1.59 2.16,-1.94 2.16,-2.41 C2.16,-2.75 2.25,-3.02 2.43,-3.22 C2.62,-3.42 2.86,-3.57 3.16,-3.67 C3.46,-3.77 3.79,-3.84 4.14,-3.89 C4.28,-3.91 4.47,-3.93 4.7,-3.96 C4.93,-3.99 5.18,-4.02 5.42,-4.06 C5.67,-4.1 5.89,-4.15 6.08,-4.2 C6.27,-4.26 6.4,-4.32 6.45,-4.39 C6.45,-4.39 6.45,-3.16 6.45,-3.16 C6.45,-2.8 6.36,-2.45 6.17,-2.12 C5.99,-1.79 5.71,-1.52 5.34,-1.31 C4.98,-1.1 4.53,-1 4,-1 C3.47,-1 3.03,-1.12 2.68,-1.36z M5.09,-0.02 C5.44,-0.17 5.72,-0.36 5.93,-0.57 C6.14,-0.79 6.3,-0.99 6.39,-1.18 C6.39,-1.18 6.45,-1.18 6.45,-1.18 C6.45,-1.18 6.45,0 6.45,0 C6.45,0 7.8,0 7.8,0 C7.8,0 7.8,-5.75 7.8,-5.75 C7.8,-6.44 7.68,-7 7.45,-7.41 C7.23,-7.82 6.94,-8.13 6.6,-8.34 C6.26,-8.54 5.9,-8.68 5.54,-8.74 C5.17,-8.81 4.85,-8.84 4.57,-8.84 C4.13,-8.84 3.68,-8.78 3.23,-8.66 C2.78,-8.54 2.36,-8.33 1.98,-8.04 C1.6,-7.74 1.3,-7.33 1.07,-6.8 C1.07,-6.8 2.34,-6.34 2.34,-6.34 C2.49,-6.66 2.74,-6.96 3.11,-7.24 C3.47,-7.52 3.97,-7.66 4.61,-7.66 C5.23,-7.66 5.69,-7.5 6,-7.19 C6.3,-6.88 6.45,-6.45 6.45,-5.89 C6.45,-5.89 6.45,-5.84 6.45,-5.84 C6.45,-5.63 6.38,-5.47 6.22,-5.39 C6.07,-5.3 5.83,-5.24 5.5,-5.2 C5.17,-5.17 4.73,-5.11 4.2,-5.05 C3.8,-4.99 3.4,-4.92 3,-4.83 C2.6,-4.74 2.23,-4.61 1.9,-4.43 C1.57,-4.25 1.31,-4.01 1.11,-3.7 C0.92,-3.38 0.82,-2.98 0.82,-2.48 C0.82,-1.91 0.95,-1.43 1.22,-1.03 C1.48,-0.63 1.84,-0.32 2.29,-0.11 C2.74,0.1 3.24,0.2 3.8,0.2 C4.3,0.2 4.73,0.13 5.09,-0.02z"/><g opacity="1" transform="matrix(0.1599999964237213,0,0,0.1599999964237213,0,0)"/></g></g></g><g stroke-linecap="butt" stroke-linejoin="round" stroke-miterlimit="4" transform="matrix(1,0,0,1,-102.34080505371094,-0.36376953125)" opacity="1" style="display: inherit;"><g><g transform="matrix(1,0,0,1,0,0)" opacity="1" style="display: block;"><path d=" M1.82,-2.14 C1.82,-1.63 1.94,-1.21 2.17,-0.88 C2.41,-0.54 2.71,-0.29 3.07,-0.13 C3.43,0.03 3.8,0.11 4.18,0.11 C4.43,0.11 4.64,0.1 4.8,0.06 C4.96,0.02 5.09,-0.01 5.18,-0.05 C5.18,-0.05 4.91,-1.25 4.91,-1.25 C4.85,-1.24 4.78,-1.22 4.68,-1.21 C4.59,-1.19 4.47,-1.18 4.32,-1.18 C4.12,-1.18 3.93,-1.21 3.76,-1.28 C3.58,-1.34 3.44,-1.46 3.33,-1.65 C3.21,-1.84 3.16,-2.12 3.16,-2.5 C3.16,-2.5 3.16,-10.82 3.16,-10.82 C3.16,-10.82 1.82,-10.82 1.82,-10.82 C1.82,-10.82 1.82,-2.14 1.82,-2.14z M0.5,-8.73 C0.5,-8.73 0.5,-7.59 0.5,-7.59 C0.5,-7.59 5.02,-7.59 5.02,-7.59 C5.02,-7.59 5.02,-8.73 5.02,-8.73 C5.02,-8.73 0.5,-8.73 0.5,-8.73z"/><g opacity="1" transform="matrix(0.1599999964237213,0,0,0.1599999964237213,0,0)"/></g></g></g><g stroke-linecap="butt" stroke-linejoin="round" stroke-miterlimit="4" transform="matrix(1,0,0,1,-96.523193359375,-0.36376953125)" opacity="1" style="display: inherit;"><g><g style="display: none;"/></g></g><g stroke-linecap="butt" stroke-linejoin="round" stroke-miterlimit="4" transform="matrix(1,0,0,1,-92.02400207519531,-0.36376953125)" opacity="1" style="display: inherit;"><g><g transform="matrix(1,0,0,1,0,0)" opacity="1" style="display: block;"><path d=" M1.23,-11.64 C1.23,-11.64 1.23,0 1.23,0 C1.23,0 2.57,0 2.57,0 C2.57,0 2.57,-11.64 2.57,-11.64 C2.57,-11.64 1.23,-11.64 1.23,-11.64z"/><g opacity="1" transform="matrix(0.1599999964237213,0,0,0.1599999964237213,0,0)"/></g></g></g><g stroke-linecap="butt" stroke-linejoin="round" stroke-miterlimit="4" transform="matrix(1,0,0,1,-88.22879791259766,-0.36376953125)" opacity="1" style="display: inherit;"><g><g transform="matrix(1,0,0,1,0,0)" opacity="1" style="display: block;"><path d=" M6.48,-0.09 C6.96,-0.28 7.35,-0.53 7.68,-0.87 C8,-1.2 8.23,-1.58 8.36,-2.02 C8.36,-2.02 7.07,-2.39 7.07,-2.39 C6.95,-2.08 6.79,-1.83 6.59,-1.63 C6.38,-1.43 6.13,-1.27 5.84,-1.17 C5.56,-1.07 5.24,-1.02 4.89,-1.02 C4.34,-1.02 3.87,-1.14 3.46,-1.38 C3.05,-1.61 2.73,-1.96 2.5,-2.42 C2.27,-2.87 2.16,-3.43 2.16,-4.09 C2.16,-4.09 2.16,-4.86 2.16,-4.86 C2.16,-5.34 2.26,-5.8 2.47,-6.22 C2.68,-6.64 2.98,-6.98 3.37,-7.24 C3.75,-7.5 4.22,-7.64 4.75,-7.64 C5.23,-7.64 5.66,-7.52 6.01,-7.3 C6.37,-7.08 6.65,-6.77 6.84,-6.39 C7.04,-6 7.14,-5.56 7.14,-5.07 C7.14,-5.07 1.77,-5.07 1.77,-5.07 C1.77,-5.07 1.77,-3.91 1.77,-3.91 C1.77,-3.91 8.5,-3.91 8.5,-3.91 C8.5,-3.91 8.5,-4.48 8.5,-4.48 C8.5,-5.29 8.39,-5.98 8.18,-6.53 C7.96,-7.09 7.67,-7.54 7.31,-7.88 C6.94,-8.22 6.54,-8.46 6.1,-8.61 C5.65,-8.77 5.2,-8.84 4.75,-8.84 C3.96,-8.84 3.27,-8.65 2.68,-8.26 C2.1,-7.88 1.64,-7.35 1.31,-6.66 C0.98,-5.98 0.82,-5.19 0.82,-4.3 C0.82,-3.4 0.98,-2.62 1.31,-1.95 C1.64,-1.27 2.11,-0.75 2.71,-0.38 C3.32,0 4.05,0.18 4.89,0.18 C5.48,0.18 6.01,0.09 6.48,-0.09z"/><g opacity="1" transform="matrix(0.1599999964237213,0,0,0.1599999964237213,0,0)"/></g></g></g><g stroke-linecap="butt" stroke-linejoin="round" stroke-miterlimit="4" transform="matrix(1,0,0,1,-78.910400390625,-0.36376953125)" opacity="1" style="display: inherit;"><g><g transform="matrix(1,0,0,1,0,0)" opacity="1" style="display: block;"><path d=" M3.3,-1.74 C2.92,-2 2.64,-2.36 2.45,-2.83 C2.25,-3.29 2.16,-3.83 2.16,-4.43 C2.16,-5.02 2.25,-5.56 2.44,-6.05 C2.63,-6.53 2.91,-6.92 3.29,-7.2 C3.66,-7.49 4.14,-7.64 4.7,-7.64 C5.25,-7.64 5.71,-7.5 6.08,-7.23 C6.45,-6.95 6.73,-6.58 6.92,-6.1 C7.11,-5.62 7.2,-5.06 7.2,-4.43 C7.2,-3.79 7.11,-3.23 6.91,-2.77 C6.72,-2.31 6.44,-1.96 6.07,-1.71 C5.7,-1.46 5.24,-1.34 4.7,-1.34 C4.14,-1.34 3.68,-1.47 3.3,-1.74z M6.65,3.12 C7.22,2.9 7.68,2.55 8.01,2.08 C8.35,1.61 8.52,1 8.52,0.25 C8.52,0.25 8.52,-8.73 8.52,-8.73 C8.52,-8.73 7.23,-8.73 7.23,-8.73 C7.23,-8.73 7.23,-7.34 7.23,-7.34 C7.23,-7.34 7.09,-7.34 7.09,-7.34 C6.99,-7.49 6.85,-7.69 6.67,-7.92 C6.49,-8.16 6.24,-8.37 5.9,-8.56 C5.57,-8.75 5.11,-8.84 4.55,-8.84 C3.81,-8.84 3.16,-8.66 2.6,-8.29 C2.04,-7.93 1.6,-7.41 1.29,-6.75 C0.98,-6.08 0.82,-5.3 0.82,-4.41 C0.82,-3.5 0.98,-2.73 1.3,-2.09 C1.63,-1.45 2.07,-0.97 2.63,-0.64 C3.19,-0.3 3.82,-0.14 4.52,-0.14 C5.09,-0.14 5.54,-0.23 5.88,-0.41 C6.21,-0.59 6.47,-0.79 6.65,-1.03 C6.83,-1.26 6.97,-1.45 7.07,-1.61 C7.07,-1.61 7.18,-1.61 7.18,-1.61 C7.18,-1.61 7.18,0.16 7.18,0.16 C7.18,0.89 6.95,1.42 6.49,1.76 C6.04,2.1 5.45,2.27 4.75,2.27 C4.22,2.27 3.8,2.2 3.47,2.04 C3.15,1.89 2.9,1.71 2.71,1.5 C2.52,1.3 2.37,1.11 2.25,0.95 C2.25,0.95 1.18,1.7 1.18,1.7 C1.36,2.01 1.61,2.29 1.92,2.56 C2.23,2.83 2.61,3.04 3.08,3.21 C3.55,3.37 4.1,3.45 4.75,3.45 C5.45,3.45 6.08,3.34 6.65,3.12z"/><g opacity="1" transform="matrix(0.1599999964237213,0,0,0.1599999964237213,0,0)"/></g></g></g><g stroke-linecap="butt" stroke-linejoin="round" stroke-miterlimit="4" transform="matrix(1,0,0,1,-69.16000366210938,-0.36376953125)" opacity="1" style="display: inherit;"><g><g transform="matrix(1,0,0,1,0,0)" opacity="1" style="display: block;"><path d=" M2.68,-1.36 C2.33,-1.59 2.16,-1.94 2.16,-2.41 C2.16,-2.75 2.25,-3.02 2.43,-3.22 C2.62,-3.42 2.86,-3.57 3.16,-3.67 C3.46,-3.77 3.79,-3.84 4.14,-3.89 C4.28,-3.91 4.47,-3.93 4.7,-3.96 C4.93,-3.99 5.18,-4.02 5.42,-4.06 C5.67,-4.1 5.89,-4.15 6.08,-4.2 C6.27,-4.26 6.4,-4.32 6.45,-4.39 C6.45,-4.39 6.45,-3.16 6.45,-3.16 C6.45,-2.8 6.36,-2.45 6.17,-2.12 C5.99,-1.79 5.71,-1.52 5.34,-1.31 C4.98,-1.1 4.53,-1 4,-1 C3.47,-1 3.03,-1.12 2.68,-1.36z M5.09,-0.02 C5.44,-0.17 5.72,-0.36 5.93,-0.57 C6.14,-0.79 6.3,-0.99 6.39,-1.18 C6.39,-1.18 6.45,-1.18 6.45,-1.18 C6.45,-1.18 6.45,0 6.45,0 C6.45,0 7.8,0 7.8,0 C7.8,0 7.8,-5.75 7.8,-5.75 C7.8,-6.44 7.68,-7 7.45,-7.41 C7.23,-7.82 6.94,-8.13 6.6,-8.34 C6.26,-8.54 5.9,-8.68 5.54,-8.74 C5.17,-8.81 4.85,-8.84 4.57,-8.84 C4.13,-8.84 3.68,-8.78 3.23,-8.66 C2.78,-8.54 2.36,-8.33 1.98,-8.04 C1.6,-7.74 1.3,-7.33 1.07,-6.8 C1.07,-6.8 2.34,-6.34 2.34,-6.34 C2.49,-6.66 2.74,-6.96 3.11,-7.24 C3.47,-7.52 3.97,-7.66 4.61,-7.66 C5.23,-7.66 5.69,-7.5 6,-7.19 C6.3,-6.88 6.45,-6.45 6.45,-5.89 C6.45,-5.89 6.45,-5.84 6.45,-5.84 C6.45,-5.63 6.38,-5.47 6.22,-5.39 C6.07,-5.3 5.83,-5.24 5.5,-5.2 C5.17,-5.17 4.73,-5.11 4.2,-5.05 C3.8,-4.99 3.4,-4.92 3,-4.83 C2.6,-4.74 2.23,-4.61 1.9,-4.43 C1.57,-4.25 1.31,-4.01 1.11,-3.7 C0.92,-3.38 0.82,-2.98 0.82,-2.48 C0.82,-1.91 0.95,-1.43 1.22,-1.03 C1.48,-0.63 1.84,-0.32 2.29,-0.11 C2.74,0.1 3.24,0.2 3.8,0.2 C4.3,0.2 4.73,0.13 5.09,-0.02z"/><g opacity="1" transform="matrix(0.1599999964237213,0,0,0.1599999964237213,0,0)"/></g></g></g><g stroke-linecap="butt" stroke-linejoin="round" stroke-miterlimit="4" transform="matrix(1,0,0,1,-60.137603759765625,-0.36376953125)" opacity="1" style="display: inherit;"><g><g transform="matrix(1,0,0,1,0,0)" opacity="1" style="display: block;"><path d=" M1.23,-11.64 C1.23,-11.64 1.23,0 1.23,0 C1.23,0 2.57,0 2.57,0 C2.57,0 2.57,-11.64 2.57,-11.64 C2.57,-11.64 1.23,-11.64 1.23,-11.64z"/><g opacity="1" transform="matrix(0.1599999964237213,0,0,0.1599999964237213,0,0)"/></g></g></g><g stroke-linecap="butt" stroke-linejoin="round" stroke-miterlimit="4" transform="matrix(1,0,0,1,-56.342403411865234,-0.36376953125)" opacity="1" style="display: inherit;"><g><g style="display: none;"/></g></g><g stroke-linecap="butt" stroke-linejoin="round" stroke-miterlimit="4" transform="matrix(1,0,0,1,-51.84320068359375,-0.36376953125)" opacity="1" style="display: inherit;"><g><g transform="matrix(1,0,0,1,0,0)" opacity="1" style="display: block;"><path d=" M3.16,0 C3.16,0 3.16,-9.61 3.16,-9.61 C3.16,-10.05 3.26,-10.37 3.45,-10.6 C3.65,-10.82 3.97,-10.93 4.41,-10.93 C4.6,-10.93 4.76,-10.91 4.88,-10.88 C5,-10.85 5.09,-10.82 5.16,-10.8 C5.16,-10.8 5.55,-11.95 5.55,-11.95 C5.44,-12 5.29,-12.05 5.08,-12.1 C4.87,-12.16 4.6,-12.18 4.27,-12.18 C3.86,-12.18 3.46,-12.1 3.09,-11.93 C2.71,-11.77 2.41,-11.52 2.17,-11.18 C1.94,-10.85 1.82,-10.43 1.82,-9.93 C1.82,-9.93 1.82,0 1.82,0 C1.82,0 3.16,0 3.16,0z M0.41,-8.73 C0.41,-8.73 0.41,-7.59 0.41,-7.59 C0.41,-7.59 5.11,-7.59 5.11,-7.59 C5.11,-7.59 5.11,-8.73 5.11,-8.73 C5.11,-8.73 0.41,-8.73 0.41,-8.73z"/><g opacity="1" transform="matrix(0.1599999964237213,0,0,0.1599999964237213,0,0)"/></g></g></g><g stroke-linecap="butt" stroke-linejoin="round" stroke-miterlimit="4" transform="matrix(1,0,0,1,-46.070396423339844,-0.36376953125)" opacity="1" style="display: inherit;"><g><g transform="matrix(1,0,0,1,0,0)" opacity="1" style="display: block;"><path d=" M2.57,0 C2.57,0 2.57,-5.52 2.57,-5.52 C2.57,-5.92 2.66,-6.27 2.86,-6.58 C3.05,-6.89 3.31,-7.13 3.64,-7.3 C3.97,-7.48 4.35,-7.57 4.77,-7.57 C4.95,-7.57 5.12,-7.56 5.28,-7.53 C5.44,-7.51 5.55,-7.49 5.59,-7.48 C5.59,-7.48 5.59,-8.84 5.59,-8.84 C5.52,-8.85 5.4,-8.85 5.26,-8.86 C5.11,-8.86 4.98,-8.86 4.89,-8.86 C4.36,-8.86 3.89,-8.73 3.48,-8.46 C3.06,-8.19 2.77,-7.84 2.61,-7.41 C2.61,-7.41 2.52,-7.41 2.52,-7.41 C2.52,-7.41 2.52,-8.73 2.52,-8.73 C2.52,-8.73 1.23,-8.73 1.23,-8.73 C1.23,-8.73 1.23,0 1.23,0 C1.23,0 2.57,0 2.57,0z"/><g opacity="1" transform="matrix(0.1599999964237213,0,0,0.1599999964237213,0,0)"/></g></g></g><g stroke-linecap="butt" stroke-linejoin="round" stroke-miterlimit="4" transform="matrix(1,0,0,1,-40.115196228027344,-0.36376953125)" opacity="1" style="display: inherit;"><g><g transform="matrix(1,0,0,1,0,0)" opacity="1" style="display: block;"><path d=" M2.68,-1.36 C2.33,-1.59 2.16,-1.94 2.16,-2.41 C2.16,-2.75 2.25,-3.02 2.43,-3.22 C2.62,-3.42 2.86,-3.57 3.16,-3.67 C3.46,-3.77 3.79,-3.84 4.14,-3.89 C4.28,-3.91 4.47,-3.93 4.7,-3.96 C4.93,-3.99 5.18,-4.02 5.42,-4.06 C5.67,-4.1 5.89,-4.15 6.08,-4.2 C6.27,-4.26 6.4,-4.32 6.45,-4.39 C6.45,-4.39 6.45,-3.16 6.45,-3.16 C6.45,-2.8 6.36,-2.45 6.17,-2.12 C5.99,-1.79 5.71,-1.52 5.34,-1.31 C4.98,-1.1 4.53,-1 4,-1 C3.47,-1 3.03,-1.12 2.68,-1.36z M5.09,-0.02 C5.44,-0.17 5.72,-0.36 5.93,-0.57 C6.14,-0.79 6.3,-0.99 6.39,-1.18 C6.39,-1.18 6.45,-1.18 6.45,-1.18 C6.45,-1.18 6.45,0 6.45,0 C6.45,0 7.8,0 7.8,0 C7.8,0 7.8,-5.75 7.8,-5.75 C7.8,-6.44 7.68,-7 7.45,-7.41 C7.23,-7.82 6.94,-8.13 6.6,-8.34 C6.26,-8.54 5.9,-8.68 5.54,-8.74 C5.17,-8.81 4.85,-8.84 4.57,-8.84 C4.13,-8.84 3.68,-8.78 3.23,-8.66 C2.78,-8.54 2.36,-8.33 1.98,-8.04 C1.6,-7.74 1.3,-7.33 1.07,-6.8 C1.07,-6.8 2.34,-6.34 2.34,-6.34 C2.49,-6.66 2.74,-6.96 3.11,-7.24 C3.47,-7.52 3.97,-7.66 4.61,-7.66 C5.23,-7.66 5.69,-7.5 6,-7.19 C6.3,-6.88 6.45,-6.45 6.45,-5.89 C6.45,-5.89 6.45,-5.84 6.45,-5.84 C6.45,-5.63 6.38,-5.47 6.22,-5.39 C6.07,-5.3 5.83,-5.24 5.5,-5.2 C5.17,-5.17 4.73,-5.11 4.2,-5.05 C3.8,-4.99 3.4,-4.92 3,-4.83 C2.6,-4.74 2.23,-4.61 1.9,-4.43 C1.57,-4.25 1.31,-4.01 1.11,-3.7 C0.92,-3.38 0.82,-2.98 0.82,-2.48 C0.82,-1.91 0.95,-1.43 1.22,-1.03 C1.48,-0.63 1.84,-0.32 2.29,-0.11 C2.74,0.1 3.24,0.2 3.8,0.2 C4.3,0.2 4.73,0.13 5.09,-0.02z"/><g opacity="1" transform="matrix(0.1599999964237213,0,0,0.1599999964237213,0,0)"/></g></g></g><g stroke-linecap="butt" stroke-linejoin="round" stroke-miterlimit="4" transform="matrix(1,0,0,1,-31.092803955078125,-0.36376953125)" opacity="1" style="display: inherit;"><g><g transform="matrix(1,0,0,1,0,0)" opacity="1" style="display: block;"><path d=" M2.57,0 C2.57,0 2.57,-5.45 2.57,-5.45 C2.57,-5.88 2.66,-6.26 2.84,-6.59 C3.03,-6.92 3.27,-7.17 3.57,-7.36 C3.87,-7.54 4.2,-7.64 4.55,-7.64 C5.05,-7.64 5.47,-7.48 5.79,-7.18 C6.11,-6.87 6.27,-6.47 6.27,-5.98 C6.27,-5.98 6.27,0 6.27,0 C6.27,0 7.64,0 7.64,0 C7.64,0 7.64,-5.68 7.64,-5.68 C7.64,-6.25 7.8,-6.71 8.14,-7.08 C8.48,-7.45 8.95,-7.64 9.57,-7.64 C10.05,-7.64 10.46,-7.5 10.81,-7.22 C11.16,-6.95 11.34,-6.48 11.34,-5.84 C11.34,-5.84 11.34,0 11.34,0 C11.34,0 12.68,0 12.68,0 C12.68,0 12.68,-5.84 12.68,-5.84 C12.68,-6.87 12.43,-7.62 11.94,-8.11 C11.44,-8.6 10.8,-8.84 10.02,-8.84 C9.4,-8.84 8.86,-8.71 8.41,-8.44 C7.97,-8.17 7.63,-7.81 7.41,-7.36 C7.41,-7.36 7.32,-7.36 7.32,-7.36 C7.1,-7.83 6.8,-8.19 6.42,-8.45 C6.03,-8.71 5.55,-8.84 4.98,-8.84 C4.41,-8.84 3.92,-8.71 3.52,-8.45 C3.11,-8.19 2.82,-7.83 2.64,-7.36 C2.64,-7.36 2.52,-7.36 2.52,-7.36 C2.52,-7.36 2.52,-8.73 2.52,-8.73 C2.52,-8.73 1.23,-8.73 1.23,-8.73 C1.23,-8.73 1.23,0 1.23,0 C1.23,0 2.57,0 2.57,0z"/><g opacity="1" transform="matrix(0.1599999964237213,0,0,0.1599999964237213,0,0)"/></g></g></g><g stroke-linecap="butt" stroke-linejoin="round" stroke-miterlimit="4" transform="matrix(1,0,0,1,-17.18400001525879,-0.36376953125)" opacity="1" style="display: inherit;"><g><g transform="matrix(1,0,0,1,0,0)" opacity="1" style="display: block;"><path d=" M6.48,-0.09 C6.96,-0.28 7.35,-0.53 7.68,-0.87 C8,-1.2 8.23,-1.58 8.36,-2.02 C8.36,-2.02 7.07,-2.39 7.07,-2.39 C6.95,-2.08 6.79,-1.83 6.59,-1.63 C6.38,-1.43 6.13,-1.27 5.84,-1.17 C5.56,-1.07 5.24,-1.02 4.89,-1.02 C4.34,-1.02 3.87,-1.14 3.46,-1.38 C3.05,-1.61 2.73,-1.96 2.5,-2.42 C2.27,-2.87 2.16,-3.43 2.16,-4.09 C2.16,-4.09 2.16,-4.86 2.16,-4.86 C2.16,-5.34 2.26,-5.8 2.47,-6.22 C2.68,-6.64 2.98,-6.98 3.37,-7.24 C3.75,-7.5 4.22,-7.64 4.75,-7.64 C5.23,-7.64 5.66,-7.52 6.01,-7.3 C6.37,-7.08 6.65,-6.77 6.84,-6.39 C7.04,-6 7.14,-5.56 7.14,-5.07 C7.14,-5.07 1.77,-5.07 1.77,-5.07 C1.77,-5.07 1.77,-3.91 1.77,-3.91 C1.77,-3.91 8.5,-3.91 8.5,-3.91 C8.5,-3.91 8.5,-4.48 8.5,-4.48 C8.5,-5.29 8.39,-5.98 8.18,-6.53 C7.96,-7.09 7.67,-7.54 7.31,-7.88 C6.94,-8.22 6.54,-8.46 6.1,-8.61 C5.65,-8.77 5.2,-8.84 4.75,-8.84 C3.96,-8.84 3.27,-8.65 2.68,-8.26 C2.1,-7.88 1.64,-7.35 1.31,-6.66 C0.98,-5.98 0.82,-5.19 0.82,-4.3 C0.82,-3.4 0.98,-2.62 1.31,-1.95 C1.64,-1.27 2.11,-0.75 2.71,-0.38 C3.32,0 4.05,0.18 4.89,0.18 C5.48,0.18 6.01,0.09 6.48,-0.09z"/><g opacity="1" transform="matrix(0.1599999964237213,0,0,0.1599999964237213,0,0)"/></g></g></g><g stroke-linecap="butt" stroke-linejoin="round" stroke-miterlimit="4" transform="matrix(1,0,0,1,-7.8656005859375,-0.36376953125)" opacity="1" style="display: inherit;"><g><g transform="matrix(1,0,0,1,0,0)" opacity="1" style="display: block;"><path d=" M4.52,0 C4.52,0 6.43,-6.7 6.43,-6.7 C6.43,-6.7 6.57,-6.7 6.57,-6.7 C6.57,-6.7 8.48,0 8.48,0 C8.48,0 9.8,0 9.8,0 C9.8,0 12.45,-8.73 12.45,-8.73 C12.45,-8.73 11.05,-8.73 11.05,-8.73 C11.05,-8.73 9.16,-2.07 9.16,-2.07 C9.16,-2.07 9.07,-2.07 9.07,-2.07 C9.07,-2.07 7.23,-8.73 7.23,-8.73 C7.23,-8.73 5.8,-8.73 5.8,-8.73 C5.8,-8.73 3.93,-2.05 3.93,-2.05 C3.93,-2.05 3.84,-2.05 3.84,-2.05 C3.84,-2.05 1.95,-8.73 1.95,-8.73 C1.95,-8.73 0.55,-8.73 0.55,-8.73 C0.55,-8.73 3.2,0 3.2,0 C3.2,0 4.52,0 4.52,0z"/><g opacity="1" transform="matrix(0.1599999964237213,0,0,0.1599999964237213,0,0)"/></g></g></g><g stroke-linecap="butt" stroke-linejoin="round" stroke-miterlimit="4" transform="matrix(1,0,0,1,5.134402751922607,-0.36376953125)" opacity="1" style="display: inherit;"><g><g transform="matrix(1,0,0,1,0,0)" opacity="1" style="display: block;"><path d=" M3.3,-1.48 C2.91,-1.79 2.62,-2.19 2.44,-2.69 C2.25,-3.19 2.16,-3.73 2.16,-4.32 C2.16,-4.9 2.25,-5.44 2.44,-5.95 C2.62,-6.45 2.91,-6.86 3.3,-7.17 C3.68,-7.48 4.17,-7.64 4.77,-7.64 C5.37,-7.64 5.86,-7.48 6.25,-7.17 C6.64,-6.86 6.92,-6.45 7.11,-5.95 C7.29,-5.44 7.39,-4.9 7.39,-4.32 C7.39,-3.73 7.29,-3.19 7.11,-2.69 C6.92,-2.19 6.64,-1.79 6.25,-1.48 C5.86,-1.18 5.37,-1.02 4.77,-1.02 C4.17,-1.02 3.68,-1.18 3.3,-1.48z M6.84,-0.38 C7.44,-0.76 7.9,-1.28 8.23,-1.95 C8.56,-2.63 8.73,-3.42 8.73,-4.32 C8.73,-5.23 8.56,-6.02 8.23,-6.7 C7.9,-7.38 7.44,-7.9 6.84,-8.28 C6.25,-8.65 5.56,-8.84 4.77,-8.84 C3.98,-8.84 3.29,-8.65 2.7,-8.28 C2.11,-7.9 1.65,-7.38 1.32,-6.7 C0.98,-6.02 0.82,-5.23 0.82,-4.32 C0.82,-3.42 0.98,-2.63 1.32,-1.95 C1.65,-1.28 2.11,-0.76 2.7,-0.38 C3.29,-0.01 3.98,0.18 4.77,0.18 C5.56,0.18 6.25,-0.01 6.84,-0.38z"/><g opacity="1" transform="matrix(0.1599999964237213,0,0,0.1599999964237213,0,0)"/></g></g></g><g stroke-linecap="butt" stroke-linejoin="round" stroke-miterlimit="4" transform="matrix(1,0,0,1,14.67999267578125,-0.36376953125)" opacity="1" style="display: inherit;"><g><g transform="matrix(1,0,0,1,0,0)" opacity="1" style="display: block;"><path d=" M2.57,0 C2.57,0 2.57,-5.52 2.57,-5.52 C2.57,-5.92 2.66,-6.27 2.86,-6.58 C3.05,-6.89 3.31,-7.13 3.64,-7.3 C3.97,-7.48 4.35,-7.57 4.77,-7.57 C4.95,-7.57 5.12,-7.56 5.28,-7.53 C5.44,-7.51 5.55,-7.49 5.59,-7.48 C5.59,-7.48 5.59,-8.84 5.59,-8.84 C5.52,-8.85 5.4,-8.85 5.26,-8.86 C5.11,-8.86 4.98,-8.86 4.89,-8.86 C4.36,-8.86 3.89,-8.73 3.48,-8.46 C3.06,-8.19 2.77,-7.84 2.61,-7.41 C2.61,-7.41 2.52,-7.41 2.52,-7.41 C2.52,-7.41 2.52,-8.73 2.52,-8.73 C2.52,-8.73 1.23,-8.73 1.23,-8.73 C1.23,-8.73 1.23,0 1.23,0 C1.23,0 2.57,0 2.57,0z"/><g opacity="1" transform="matrix(0.1599999964237213,0,0,0.1599999964237213,0,0)"/></g></g></g><g stroke-linecap="butt" stroke-linejoin="round" stroke-miterlimit="4" transform="matrix(1,0,0,1,20.635202407836914,-0.36376953125)" opacity="1" style="display: inherit;"><g><g transform="matrix(1,0,0,1,0,0)" opacity="1" style="display: block;"><path d=" M8.48,0 C8.48,0 4.32,-5.25 4.32,-5.25 C4.32,-5.25 3.36,-4.32 3.36,-4.32 C3.36,-4.32 6.77,0 6.77,0 C6.77,0 8.48,0 8.48,0z M2.57,0 C2.57,0 2.57,-11.64 2.57,-11.64 C2.57,-11.64 1.23,-11.64 1.23,-11.64 C1.23,-11.64 1.23,0 1.23,0 C1.23,0 2.57,0 2.57,0z M4.02,-4.61 C4.02,-4.61 4.14,-4.61 4.14,-4.61 C4.14,-4.61 8.2,-8.73 8.2,-8.73 C8.2,-8.73 6.55,-8.73 6.55,-8.73 C6.55,-8.73 2.73,-4.84 2.73,-4.84 C2.73,-4.84 2.45,-4.84 2.45,-4.84 C2.45,-4.84 2.48,-3.18 2.48,-3.18 C2.48,-3.18 4.02,-4.61 4.02,-4.61z"/><g opacity="1" transform="matrix(0.1599999964237213,0,0,0.1599999964237213,0,0)"/></g></g></g><g stroke-linecap="butt" stroke-linejoin="round" stroke-miterlimit="4" transform="matrix(1,0,0,1,29.33919906616211,-0.36376953125)" opacity="1" style="display: inherit;"><g><g style="display: none;"/></g></g><g stroke-linecap="butt" stroke-linejoin="round" stroke-miterlimit="4" transform="matrix(1,0,0,1,33.83839416503906,-0.36376953125)" opacity="1" style="display: inherit;"><g><g transform="matrix(1,0,0,1,0,0)" opacity="1" style="display: block;"><path d=" M3.3,-1.74 C2.92,-2 2.64,-2.36 2.45,-2.83 C2.25,-3.29 2.16,-3.83 2.16,-4.43 C2.16,-5.02 2.25,-5.56 2.44,-6.05 C2.63,-6.53 2.91,-6.92 3.29,-7.2 C3.66,-7.49 4.14,-7.64 4.7,-7.64 C5.25,-7.64 5.71,-7.5 6.08,-7.23 C6.45,-6.95 6.73,-6.58 6.92,-6.1 C7.11,-5.62 7.2,-5.06 7.2,-4.43 C7.2,-3.79 7.11,-3.23 6.91,-2.77 C6.72,-2.31 6.44,-1.96 6.07,-1.71 C5.7,-1.46 5.24,-1.34 4.7,-1.34 C4.14,-1.34 3.68,-1.47 3.3,-1.74z M6.65,3.12 C7.22,2.9 7.68,2.55 8.01,2.08 C8.35,1.61 8.52,1 8.52,0.25 C8.52,0.25 8.52,-8.73 8.52,-8.73 C8.52,-8.73 7.23,-8.73 7.23,-8.73 C7.23,-8.73 7.23,-7.34 7.23,-7.34 C7.23,-7.34 7.09,-7.34 7.09,-7.34 C6.99,-7.49 6.85,-7.69 6.67,-7.92 C6.49,-8.16 6.24,-8.37 5.9,-8.56 C5.57,-8.75 5.11,-8.84 4.55,-8.84 C3.81,-8.84 3.16,-8.66 2.6,-8.29 C2.04,-7.93 1.6,-7.41 1.29,-6.75 C0.98,-6.08 0.82,-5.3 0.82,-4.41 C0.82,-3.5 0.98,-2.73 1.3,-2.09 C1.63,-1.45 2.07,-0.97 2.63,-0.64 C3.19,-0.3 3.82,-0.14 4.52,-0.14 C5.09,-0.14 5.54,-0.23 5.88,-0.41 C6.21,-0.59 6.47,-0.79 6.65,-1.03 C6.83,-1.26 6.97,-1.45 7.07,-1.61 C7.07,-1.61 7.18,-1.61 7.18,-1.61 C7.18,-1.61 7.18,0.16 7.18,0.16 C7.18,0.89 6.95,1.42 6.49,1.76 C6.04,2.1 5.45,2.27 4.75,2.27 C4.22,2.27 3.8,2.2 3.47,2.04 C3.15,1.89 2.9,1.71 2.71,1.5 C2.52,1.3 2.37,1.11 2.25,0.95 C2.25,0.95 1.18,1.7 1.18,1.7 C1.36,2.01 1.61,2.29 1.92,2.56 C2.23,2.83 2.61,3.04 3.08,3.21 C3.55,3.37 4.1,3.45 4.75,3.45 C5.45,3.45 6.08,3.34 6.65,3.12z"/><g opacity="1" transform="matrix(0.1599999964237213,0,0,0.1599999964237213,0,0)"/></g></g></g><g stroke-linecap="butt" stroke-linejoin="round" stroke-miterlimit="4" transform="matrix(1,0,0,1,43.58879470825195,-0.36376953125)" opacity="1" style="display: inherit;"><g><g transform="matrix(1,0,0,1,0,0)" opacity="1" style="display: block;"><path d=" M3.3,-1.48 C2.91,-1.79 2.62,-2.19 2.44,-2.69 C2.25,-3.19 2.16,-3.73 2.16,-4.32 C2.16,-4.9 2.25,-5.44 2.44,-5.95 C2.62,-6.45 2.91,-6.86 3.3,-7.17 C3.68,-7.48 4.17,-7.64 4.77,-7.64 C5.37,-7.64 5.86,-7.48 6.25,-7.17 C6.64,-6.86 6.92,-6.45 7.11,-5.95 C7.29,-5.44 7.39,-4.9 7.39,-4.32 C7.39,-3.73 7.29,-3.19 7.11,-2.69 C6.92,-2.19 6.64,-1.79 6.25,-1.48 C5.86,-1.18 5.37,-1.02 4.77,-1.02 C4.17,-1.02 3.68,-1.18 3.3,-1.48z M6.84,-0.38 C7.44,-0.76 7.9,-1.28 8.23,-1.95 C8.56,-2.63 8.73,-3.42 8.73,-4.32 C8.73,-5.23 8.56,-6.02 8.23,-6.7 C7.9,-7.38 7.44,-7.9 6.84,-8.28 C6.25,-8.65 5.56,-8.84 4.77,-8.84 C3.98,-8.84 3.29,-8.65 2.7,-8.28 C2.11,-7.9 1.65,-7.38 1.32,-6.7 C0.98,-6.02 0.82,-5.23 0.82,-4.32 C0.82,-3.42 0.98,-2.63 1.32,-1.95 C1.65,-1.28 2.11,-0.76 2.7,-0.38 C3.29,-0.01 3.98,0.18 4.77,0.18 C5.56,0.18 6.25,-0.01 6.84,-0.38z"/><g opacity="1" transform="matrix(0.1599999964237213,0,0,0.1599999964237213,0,0)"/></g></g></g><g stroke-linecap="butt" stroke-linejoin="round" stroke-miterlimit="4" transform="matrix(1,0,0,1,53.13439178466797,-0.36376953125)" opacity="1" style="display: inherit;"><g><g transform="matrix(1,0,0,1,0,0)" opacity="1" style="display: block;"><path d=" M6.91,-8.73 C6.91,-8.73 4.5,-1.77 4.5,-1.77 C4.5,-1.77 4.41,-1.77 4.41,-1.77 C4.41,-1.77 2,-8.73 2,-8.73 C2,-8.73 0.55,-8.73 0.55,-8.73 C0.55,-8.73 3.77,0 3.77,0 C3.77,0 5.14,0 5.14,0 C5.14,0 8.36,-8.73 8.36,-8.73 C8.36,-8.73 6.91,-8.73 6.91,-8.73z"/><g opacity="1" transform="matrix(0.1599999964237213,0,0,0.1599999964237213,0,0)"/></g></g></g><g stroke-linecap="butt" stroke-linejoin="round" stroke-miterlimit="4" transform="matrix(1,0,0,1,62.0432014465332,-0.36376953125)" opacity="1" style="display: inherit;"><g><g transform="matrix(1,0,0,1,0,0)" opacity="1" style="display: block;"><path d=" M6.48,-0.09 C6.96,-0.28 7.35,-0.53 7.68,-0.87 C8,-1.2 8.23,-1.58 8.36,-2.02 C8.36,-2.02 7.07,-2.39 7.07,-2.39 C6.95,-2.08 6.79,-1.83 6.59,-1.63 C6.38,-1.43 6.13,-1.27 5.84,-1.17 C5.56,-1.07 5.24,-1.02 4.89,-1.02 C4.34,-1.02 3.87,-1.14 3.46,-1.38 C3.05,-1.61 2.73,-1.96 2.5,-2.42 C2.27,-2.87 2.16,-3.43 2.16,-4.09 C2.16,-4.09 2.16,-4.86 2.16,-4.86 C2.16,-5.34 2.26,-5.8 2.47,-6.22 C2.68,-6.64 2.98,-6.98 3.37,-7.24 C3.75,-7.5 4.22,-7.64 4.75,-7.64 C5.23,-7.64 5.66,-7.52 6.01,-7.3 C6.37,-7.08 6.65,-6.77 6.84,-6.39 C7.04,-6 7.14,-5.56 7.14,-5.07 C7.14,-5.07 1.77,-5.07 1.77,-5.07 C1.77,-5.07 1.77,-3.91 1.77,-3.91 C1.77,-3.91 8.5,-3.91 8.5,-3.91 C8.5,-3.91 8.5,-4.48 8.5,-4.48 C8.5,-5.29 8.39,-5.98 8.18,-6.53 C7.96,-7.09 7.67,-7.54 7.31,-7.88 C6.94,-8.22 6.54,-8.46 6.1,-8.61 C5.65,-8.77 5.2,-8.84 4.75,-8.84 C3.96,-8.84 3.27,-8.65 2.68,-8.26 C2.1,-7.88 1.64,-7.35 1.31,-6.66 C0.98,-5.98 0.82,-5.19 0.82,-4.3 C0.82,-3.4 0.98,-2.62 1.31,-1.95 C1.64,-1.27 2.11,-0.75 2.71,-0.38 C3.32,0 4.05,0.18 4.89,0.18 C5.48,0.18 6.01,0.09 6.48,-0.09z"/><g opacity="1" transform="matrix(0.1599999964237213,0,0,0.1599999964237213,0,0)"/></g></g></g><g stroke-linecap="butt" stroke-linejoin="round" stroke-miterlimit="4" transform="matrix(1,0,0,1,71.36160278320312,-0.36376953125)" opacity="1" style="display: inherit;"><g><g transform="matrix(1,0,0,1,0,0)" opacity="1" style="display: block;"><path d=" M2.57,0 C2.57,0 2.57,-5.52 2.57,-5.52 C2.57,-5.92 2.66,-6.27 2.86,-6.58 C3.05,-6.89 3.31,-7.13 3.64,-7.3 C3.97,-7.48 4.35,-7.57 4.77,-7.57 C4.95,-7.57 5.12,-7.56 5.28,-7.53 C5.44,-7.51 5.55,-7.49 5.59,-7.48 C5.59,-7.48 5.59,-8.84 5.59,-8.84 C5.52,-8.85 5.4,-8.85 5.26,-8.86 C5.11,-8.86 4.98,-8.86 4.89,-8.86 C4.36,-8.86 3.89,-8.73 3.48,-8.46 C3.06,-8.19 2.77,-7.84 2.61,-7.41 C2.61,-7.41 2.52,-7.41 2.52,-7.41 C2.52,-7.41 2.52,-8.73 2.52,-8.73 C2.52,-8.73 1.23,-8.73 1.23,-8.73 C1.23,-8.73 1.23,0 1.23,0 C1.23,0 2.57,0 2.57,0z"/><g opacity="1" transform="matrix(0.1599999964237213,0,0,0.1599999964237213,0,0)"/></g></g></g><g stroke-linecap="butt" stroke-linejoin="round" stroke-miterlimit="4" transform="matrix(1,0,0,1,77.3167953491211,-0.36376953125)" opacity="1" style="display: inherit;"><g><g transform="matrix(1,0,0,1,0,0)" opacity="1" style="display: block;"><path d=" M2.86,-6.55 C3.05,-6.9 3.32,-7.17 3.65,-7.36 C3.99,-7.54 4.37,-7.64 4.8,-7.64 C5.42,-7.64 5.91,-7.44 6.26,-7.06 C6.62,-6.68 6.8,-6.14 6.8,-5.45 C6.8,-5.45 6.8,0 6.8,0 C6.8,0 8.14,0 8.14,0 C8.14,0 8.14,-5.55 8.14,-5.55 C8.14,-6.29 8.01,-6.9 7.77,-7.39 C7.52,-7.88 7.18,-8.24 6.73,-8.48 C6.29,-8.72 5.77,-8.84 5.18,-8.84 C4.52,-8.84 3.98,-8.71 3.57,-8.43 C3.15,-8.16 2.84,-7.81 2.64,-7.36 C2.64,-7.36 2.52,-7.36 2.52,-7.36 C2.52,-7.36 2.52,-8.73 2.52,-8.73 C2.52,-8.73 1.23,-8.73 1.23,-8.73 C1.23,-8.73 1.23,0 1.23,0 C1.23,0 2.57,0 2.57,0 C2.57,0 2.57,-5.25 2.57,-5.25 C2.57,-5.76 2.66,-6.19 2.86,-6.55z"/><g opacity="1" transform="matrix(0.1599999964237213,0,0,0.1599999964237213,0,0)"/></g></g></g><g stroke-linecap="butt" stroke-linejoin="round" stroke-miterlimit="4" transform="matrix(1,0,0,1,86.68000030517578,-0.36376953125)" opacity="1" style="display: inherit;"><g><g transform="matrix(1,0,0,1,0,0)" opacity="1" style="display: block;"><path d=" M6.36,-8.27 C5.86,-8.65 5.18,-8.84 4.32,-8.84 C3.7,-8.84 3.16,-8.73 2.67,-8.52 C2.19,-8.3 1.81,-8 1.53,-7.62 C1.25,-7.25 1.11,-6.81 1.11,-6.32 C1.11,-5.72 1.3,-5.21 1.67,-4.82 C2.05,-4.42 2.63,-4.12 3.43,-3.93 C3.43,-3.93 4.89,-3.59 4.89,-3.59 C5.33,-3.49 5.65,-3.33 5.86,-3.13 C6.08,-2.92 6.18,-2.67 6.18,-2.36 C6.18,-1.99 6,-1.67 5.63,-1.4 C5.26,-1.13 4.76,-1 4.14,-1 C3.59,-1 3.14,-1.12 2.8,-1.35 C2.46,-1.59 2.23,-1.94 2.11,-2.41 C2.11,-2.41 0.84,-2.09 0.84,-2.09 C1,-1.35 1.37,-0.78 1.95,-0.4 C2.53,-0.01 3.27,0.18 4.16,0.18 C4.84,0.18 5.43,0.07 5.94,-0.16 C6.45,-0.39 6.85,-0.7 7.14,-1.09 C7.43,-1.48 7.57,-1.93 7.57,-2.43 C7.57,-3.04 7.38,-3.54 6.99,-3.93 C6.61,-4.32 6.03,-4.61 5.25,-4.8 C5.25,-4.8 3.95,-5.11 3.95,-5.11 C3.44,-5.24 3.06,-5.4 2.82,-5.6 C2.58,-5.79 2.45,-6.05 2.45,-6.39 C2.45,-6.76 2.63,-7.07 2.99,-7.32 C3.34,-7.56 3.78,-7.68 4.32,-7.68 C4.71,-7.68 5.03,-7.62 5.28,-7.49 C5.53,-7.37 5.73,-7.21 5.87,-7.02 C6.02,-6.83 6.13,-6.63 6.2,-6.43 C6.2,-6.43 7.41,-6.77 7.41,-6.77 C7.2,-7.39 6.85,-7.89 6.36,-8.27z"/><g opacity="1" transform="matrix(0.1599999964237213,0,0,0.1599999964237213,0,0)"/></g></g></g><g stroke-linecap="butt" stroke-linejoin="round" stroke-miterlimit="4" transform="matrix(1,0,0,1,95.04319763183594,-0.36376953125)" opacity="1" style="display: inherit;"><g><g style="display: none;"/></g></g><g stroke-linecap="butt" stroke-linejoin="round" stroke-miterlimit="4" transform="matrix(1,0,0,1,99.54239654541016,-0.36376953125)" opacity="1" style="display: inherit;"><g><g transform="matrix(1,0,0,1,0,0)" opacity="1" style="display: block;"><path d=" M6.48,-0.09 C6.96,-0.28 7.35,-0.53 7.68,-0.87 C8,-1.2 8.23,-1.58 8.36,-2.02 C8.36,-2.02 7.07,-2.39 7.07,-2.39 C6.95,-2.08 6.79,-1.83 6.59,-1.63 C6.38,-1.43 6.13,-1.27 5.84,-1.17 C5.56,-1.07 5.24,-1.02 4.89,-1.02 C4.34,-1.02 3.87,-1.14 3.46,-1.38 C3.05,-1.61 2.73,-1.96 2.5,-2.42 C2.27,-2.87 2.16,-3.43 2.16,-4.09 C2.16,-4.09 2.16,-4.86 2.16,-4.86 C2.16,-5.34 2.26,-5.8 2.47,-6.22 C2.68,-6.64 2.98,-6.98 3.37,-7.24 C3.75,-7.5 4.22,-7.64 4.75,-7.64 C5.23,-7.64 5.66,-7.52 6.01,-7.3 C6.37,-7.08 6.65,-6.77 6.84,-6.39 C7.04,-6 7.14,-5.56 7.14,-5.07 C7.14,-5.07 1.77,-5.07 1.77,-5.07 C1.77,-5.07 1.77,-3.91 1.77,-3.91 C1.77,-3.91 8.5,-3.91 8.5,-3.91 C8.5,-3.91 8.5,-4.48 8.5,-4.48 C8.5,-5.29 8.39,-5.98 8.18,-6.53 C7.96,-7.09 7.67,-7.54 7.31,-7.88 C6.94,-8.22 6.54,-8.46 6.1,-8.61 C5.65,-8.77 5.2,-8.84 4.75,-8.84 C3.96,-8.84 3.27,-8.65 2.68,-8.26 C2.1,-7.88 1.64,-7.35 1.31,-6.66 C0.98,-5.98 0.82,-5.19 0.82,-4.3 C0.82,-3.4 0.98,-2.62 1.31,-1.95 C1.64,-1.27 2.11,-0.75 2.71,-0.38 C3.32,0 4.05,0.18 4.89,0.18 C5.48,0.18 6.01,0.09 6.48,-0.09z"/><g opacity="1" transform="matrix(0.1599999964237213,0,0,0.1599999964237213,0,0)"/></g></g></g><g stroke-linecap="butt" stroke-linejoin="round" stroke-miterlimit="4" transform="matrix(1,0,0,1,108.86080169677734,-0.36376953125)" opacity="1" style="display: inherit;"><g><g transform="matrix(1,0,0,1,0,0)" opacity="1" style="display: block;"><path d=" M1.14,-5.61 C1.14,-5.61 1.14,-4.36 1.14,-4.36 C1.14,-4.36 6.23,-4.36 6.23,-4.36 C6.23,-4.36 6.23,-5.61 6.23,-5.61 C6.23,-5.61 1.14,-5.61 1.14,-5.61z"/><g opacity="1" transform="matrix(0.1599999964237213,0,0,0.1599999964237213,0,0)"/></g></g></g><g stroke-linecap="butt" stroke-linejoin="round" stroke-miterlimit="4" transform="matrix(1,0,0,1,116.22400665283203,-0.36376953125)" opacity="1" style="display: inherit;"><g><g transform="matrix(1,0,0,1,0,0)" opacity="1" style="display: block;"><path d=" M6.47,-0.18 C6.96,-0.42 7.35,-0.75 7.64,-1.16 C7.94,-1.57 8.13,-2.03 8.2,-2.55 C8.2,-2.55 6.86,-2.55 6.86,-2.55 C6.78,-2.23 6.64,-1.95 6.44,-1.73 C6.25,-1.5 6.01,-1.33 5.72,-1.2 C5.44,-1.08 5.12,-1.02 4.77,-1.02 C4.24,-1.02 3.78,-1.16 3.39,-1.44 C3,-1.71 2.69,-2.1 2.48,-2.6 C2.27,-3.1 2.16,-3.69 2.16,-4.36 C2.16,-5.02 2.27,-5.6 2.49,-6.09 C2.7,-6.58 3.01,-6.96 3.4,-7.23 C3.79,-7.5 4.25,-7.64 4.77,-7.64 C5.36,-7.64 5.83,-7.48 6.18,-7.17 C6.53,-6.86 6.76,-6.51 6.86,-6.11 C6.86,-6.11 8.2,-6.11 8.2,-6.11 C8.13,-6.66 7.93,-7.14 7.62,-7.55 C7.3,-7.95 6.9,-8.27 6.41,-8.5 C5.92,-8.73 5.36,-8.84 4.75,-8.84 C3.96,-8.84 3.27,-8.65 2.68,-8.26 C2.1,-7.88 1.64,-7.35 1.31,-6.67 C0.98,-5.99 0.82,-5.2 0.82,-4.32 C0.82,-3.45 0.98,-2.67 1.3,-1.99 C1.61,-1.32 2.07,-0.78 2.66,-0.4 C3.25,-0.01 3.95,0.18 4.77,0.18 C5.42,0.18 5.98,0.06 6.47,-0.18z"/><g opacity="1" transform="matrix(0.1599999964237213,0,0,0.1599999964237213,0,0)"/></g></g></g><g stroke-linecap="butt" stroke-linejoin="round" stroke-miterlimit="4" transform="matrix(1,0,0,1,125.15518188476562,-0.36376953125)" opacity="1" style="display: inherit;"><g><g transform="matrix(1,0,0,1,0,0)" opacity="1" style="display: block;"><path d=" M3.3,-1.48 C2.91,-1.79 2.62,-2.19 2.44,-2.69 C2.25,-3.19 2.16,-3.73 2.16,-4.32 C2.16,-4.9 2.25,-5.44 2.44,-5.95 C2.62,-6.45 2.91,-6.86 3.3,-7.17 C3.68,-7.48 4.17,-7.64 4.77,-7.64 C5.37,-7.64 5.86,-7.48 6.25,-7.17 C6.64,-6.86 6.92,-6.45 7.11,-5.95 C7.29,-5.44 7.39,-4.9 7.39,-4.32 C7.39,-3.73 7.29,-3.19 7.11,-2.69 C6.92,-2.19 6.64,-1.79 6.25,-1.48 C5.86,-1.18 5.37,-1.02 4.77,-1.02 C4.17,-1.02 3.68,-1.18 3.3,-1.48z M6.84,-0.38 C7.44,-0.76 7.9,-1.28 8.23,-1.95 C8.56,-2.63 8.73,-3.42 8.73,-4.32 C8.73,-5.23 8.56,-6.02 8.23,-6.7 C7.9,-7.38 7.44,-7.9 6.84,-8.28 C6.25,-8.65 5.56,-8.84 4.77,-8.84 C3.98,-8.84 3.29,-8.65 2.7,-8.28 C2.11,-7.9 1.65,-7.38 1.32,-6.7 C0.98,-6.02 0.82,-5.23 0.82,-4.32 C0.82,-3.42 0.98,-2.63 1.32,-1.95 C1.65,-1.28 2.11,-0.76 2.7,-0.38 C3.29,-0.01 3.98,0.18 4.77,0.18 C5.56,0.18 6.25,-0.01 6.84,-0.38z"/><g opacity="1" transform="matrix(0.1599999964237213,0,0,0.1599999964237213,0,0)"/></g></g></g><g stroke-linecap="butt" stroke-linejoin="round" stroke-miterlimit="4" transform="matrix(1,0,0,1,134.7008056640625,-0.36376953125)" opacity="1" style="display: inherit;"><g><g transform="matrix(1,0,0,1,0,0)" opacity="1" style="display: block;"><path d=" M2.57,0 C2.57,0 2.57,-5.45 2.57,-5.45 C2.57,-5.88 2.66,-6.26 2.84,-6.59 C3.03,-6.92 3.27,-7.17 3.57,-7.36 C3.87,-7.54 4.2,-7.64 4.55,-7.64 C5.05,-7.64 5.47,-7.48 5.79,-7.18 C6.11,-6.87 6.27,-6.47 6.27,-5.98 C6.27,-5.98 6.27,0 6.27,0 C6.27,0 7.64,0 7.64,0 C7.64,0 7.64,-5.68 7.64,-5.68 C7.64,-6.25 7.8,-6.71 8.14,-7.08 C8.48,-7.45 8.95,-7.64 9.57,-7.64 C10.05,-7.64 10.46,-7.5 10.81,-7.22 C11.16,-6.95 11.34,-6.48 11.34,-5.84 C11.34,-5.84 11.34,0 11.34,0 C11.34,0 12.68,0 12.68,0 C12.68,0 12.68,-5.84 12.68,-5.84 C12.68,-6.87 12.43,-7.62 11.94,-8.11 C11.44,-8.6 10.8,-8.84 10.02,-8.84 C9.4,-8.84 8.86,-8.71 8.41,-8.44 C7.97,-8.17 7.63,-7.81 7.41,-7.36 C7.41,-7.36 7.32,-7.36 7.32,-7.36 C7.1,-7.83 6.8,-8.19 6.42,-8.45 C6.03,-8.71 5.55,-8.84 4.98,-8.84 C4.41,-8.84 3.92,-8.71 3.52,-8.45 C3.11,-8.19 2.82,-7.83 2.64,-7.36 C2.64,-7.36 2.52,-7.36 2.52,-7.36 C2.52,-7.36 2.52,-8.73 2.52,-8.73 C2.52,-8.73 1.23,-8.73 1.23,-8.73 C1.23,-8.73 1.23,0 1.23,0 C1.23,0 2.57,0 2.57,0z"/><g opacity="1" transform="matrix(0.1599999964237213,0,0,0.1599999964237213,0,0)"/></g></g></g><g stroke-linecap="butt" stroke-linejoin="round" stroke-miterlimit="4" transform="matrix(1,0,0,1,148.609619140625,-0.36376953125)" opacity="1" style="display: inherit;"><g><g transform="matrix(1,0,0,1,0,0)" opacity="1" style="display: block;"><path d=" M2.57,0 C2.57,0 2.57,-5.45 2.57,-5.45 C2.57,-5.88 2.66,-6.26 2.84,-6.59 C3.03,-6.92 3.27,-7.17 3.57,-7.36 C3.87,-7.54 4.2,-7.64 4.55,-7.64 C5.05,-7.64 5.47,-7.48 5.79,-7.18 C6.11,-6.87 6.27,-6.47 6.27,-5.98 C6.27,-5.98 6.27,0 6.27,0 C6.27,0 7.64,0 7.64,0 C7.64,0 7.64,-5.68 7.64,-5.68 C7.64,-6.25 7.8,-6.71 8.14,-7.08 C8.48,-7.45 8.95,-7.64 9.57,-7.64 C10.05,-7.64 10.46,-7.5 10.81,-7.22 C11.16,-6.95 11.34,-6.48 11.34,-5.84 C11.34,-5.84 11.34,0 11.34,0 C11.34,0 12.68,0 12.68,0 C12.68,0 12.68,-5.84 12.68,-5.84 C12.68,-6.87 12.43,-7.62 11.94,-8.11 C11.44,-8.6 10.8,-8.84 10.02,-8.84 C9.4,-8.84 8.86,-8.71 8.41,-8.44 C7.97,-8.17 7.63,-7.81 7.41,-7.36 C7.41,-7.36 7.32,-7.36 7.32,-7.36 C7.1,-7.83 6.8,-8.19 6.42,-8.45 C6.03,-8.71 5.55,-8.84 4.98,-8.84 C4.41,-8.84 3.92,-8.71 3.52,-8.45 C3.11,-8.19 2.82,-7.83 2.64,-7.36 C2.64,-7.36 2.52,-7.36 2.52,-7.36 C2.52,-7.36 2.52,-8.73 2.52,-8.73 C2.52,-8.73 1.23,-8.73 1.23,-8.73 C1.23,-8.73 1.23,0 1.23,0 C1.23,0 2.57,0 2.57,0z"/><g opacity="1" transform="matrix(0.1599999964237213,0,0,0.1599999964237213,0,0)"/></g></g></g><g stroke-linecap="butt" stroke-linejoin="round" stroke-miterlimit="4" transform="matrix(1,0,0,1,162.5183868408203,-0.36376953125)" opacity="1" style="display: inherit;"><g><g transform="matrix(1,0,0,1,0,0)" opacity="1" style="display: block;"><path d=" M6.48,-0.09 C6.96,-0.28 7.35,-0.53 7.68,-0.87 C8,-1.2 8.23,-1.58 8.36,-2.02 C8.36,-2.02 7.07,-2.39 7.07,-2.39 C6.95,-2.08 6.79,-1.83 6.59,-1.63 C6.38,-1.43 6.13,-1.27 5.84,-1.17 C5.56,-1.07 5.24,-1.02 4.89,-1.02 C4.34,-1.02 3.87,-1.14 3.46,-1.38 C3.05,-1.61 2.73,-1.96 2.5,-2.42 C2.27,-2.87 2.16,-3.43 2.16,-4.09 C2.16,-4.09 2.16,-4.86 2.16,-4.86 C2.16,-5.34 2.26,-5.8 2.47,-6.22 C2.68,-6.64 2.98,-6.98 3.37,-7.24 C3.75,-7.5 4.22,-7.64 4.75,-7.64 C5.23,-7.64 5.66,-7.52 6.01,-7.3 C6.37,-7.08 6.65,-6.77 6.84,-6.39 C7.04,-6 7.14,-5.56 7.14,-5.07 C7.14,-5.07 1.77,-5.07 1.77,-5.07 C1.77,-5.07 1.77,-3.91 1.77,-3.91 C1.77,-3.91 8.5,-3.91 8.5,-3.91 C8.5,-3.91 8.5,-4.48 8.5,-4.48 C8.5,-5.29 8.39,-5.98 8.18,-6.53 C7.96,-7.09 7.67,-7.54 7.31,-7.88 C6.94,-8.22 6.54,-8.46 6.1,-8.61 C5.65,-8.77 5.2,-8.84 4.75,-8.84 C3.96,-8.84 3.27,-8.65 2.68,-8.26 C2.1,-7.88 1.64,-7.35 1.31,-6.66 C0.98,-5.98 0.82,-5.19 0.82,-4.3 C0.82,-3.4 0.98,-2.62 1.31,-1.95 C1.64,-1.27 2.11,-0.75 2.71,-0.38 C3.32,0 4.05,0.18 4.89,0.18 C5.48,0.18 6.01,0.09 6.48,-0.09z"/><g opacity="1" transform="matrix(0.1599999964237213,0,0,0.1599999964237213,0,0)"/></g></g></g><g stroke-linecap="butt" stroke-linejoin="round" stroke-miterlimit="4" transform="matrix(1,0,0,1,171.8367919921875,-0.36376953125)" opacity="1" style="display: inherit;"><g><g transform="matrix(1,0,0,1,0,0)" opacity="1" style="display: block;"><path d=" M2.57,0 C2.57,0 2.57,-5.52 2.57,-5.52 C2.57,-5.92 2.66,-6.27 2.86,-6.58 C3.05,-6.89 3.31,-7.13 3.64,-7.3 C3.97,-7.48 4.35,-7.57 4.77,-7.57 C4.95,-7.57 5.12,-7.56 5.28,-7.53 C5.44,-7.51 5.55,-7.49 5.59,-7.48 C5.59,-7.48 5.59,-8.84 5.59,-8.84 C5.52,-8.85 5.4,-8.85 5.26,-8.86 C5.11,-8.86 4.98,-8.86 4.89,-8.86 C4.36,-8.86 3.89,-8.73 3.48,-8.46 C3.06,-8.19 2.77,-7.84 2.61,-7.41 C2.61,-7.41 2.52,-7.41 2.52,-7.41 C2.52,-7.41 2.52,-8.73 2.52,-8.73 C2.52,-8.73 1.23,-8.73 1.23,-8.73 C1.23,-8.73 1.23,0 1.23,0 C1.23,0 2.57,0 2.57,0z"/><g opacity="1" transform="matrix(0.1599999964237213,0,0,0.1599999964237213,0,0)"/></g></g></g><g stroke-linecap="butt" stroke-linejoin="round" stroke-miterlimit="4" transform="matrix(1,0,0,1,177.7919921875,-0.36376953125)" opacity="1" style="display: inherit;"><g><g transform="matrix(1,0,0,1,0,0)" opacity="1" style="display: block;"><path d=" M6.47,-0.18 C6.96,-0.42 7.35,-0.75 7.64,-1.16 C7.94,-1.57 8.13,-2.03 8.2,-2.55 C8.2,-2.55 6.86,-2.55 6.86,-2.55 C6.78,-2.23 6.64,-1.95 6.44,-1.73 C6.25,-1.5 6.01,-1.33 5.72,-1.2 C5.44,-1.08 5.12,-1.02 4.77,-1.02 C4.24,-1.02 3.78,-1.16 3.39,-1.44 C3,-1.71 2.69,-2.1 2.48,-2.6 C2.27,-3.1 2.16,-3.69 2.16,-4.36 C2.16,-5.02 2.27,-5.6 2.49,-6.09 C2.7,-6.58 3.01,-6.96 3.4,-7.23 C3.79,-7.5 4.25,-7.64 4.77,-7.64 C5.36,-7.64 5.83,-7.48 6.18,-7.17 C6.53,-6.86 6.76,-6.51 6.86,-6.11 C6.86,-6.11 8.2,-6.11 8.2,-6.11 C8.13,-6.66 7.93,-7.14 7.62,-7.55 C7.3,-7.95 6.9,-8.27 6.41,-8.5 C5.92,-8.73 5.36,-8.84 4.75,-8.84 C3.96,-8.84 3.27,-8.65 2.68,-8.26 C2.1,-7.88 1.64,-7.35 1.31,-6.67 C0.98,-5.99 0.82,-5.2 0.82,-4.32 C0.82,-3.45 0.98,-2.67 1.3,-1.99 C1.61,-1.32 2.07,-0.78 2.66,-0.4 C3.25,-0.01 3.95,0.18 4.77,0.18 C5.42,0.18 5.98,0.06 6.47,-0.18z"/><g opacity="1" transform="matrix(0.1599999964237213,0,0,0.1599999964237213,0,0)"/></g></g></g><g stroke-linecap="butt" stroke-linejoin="round" stroke-miterlimit="4" transform="matrix(1,0,0,1,186.7231903076172,-0.36376953125)" opacity="1" style="display: inherit;"><g><g transform="matrix(1,0,0,1,0,0)" opacity="1" style="display: block;"><path d=" M6.48,-0.09 C6.96,-0.28 7.35,-0.53 7.68,-0.87 C8,-1.2 8.23,-1.58 8.36,-2.02 C8.36,-2.02 7.07,-2.39 7.07,-2.39 C6.95,-2.08 6.79,-1.83 6.59,-1.63 C6.38,-1.43 6.13,-1.27 5.84,-1.17 C5.56,-1.07 5.24,-1.02 4.89,-1.02 C4.34,-1.02 3.87,-1.14 3.46,-1.38 C3.05,-1.61 2.73,-1.96 2.5,-2.42 C2.27,-2.87 2.16,-3.43 2.16,-4.09 C2.16,-4.09 2.16,-4.86 2.16,-4.86 C2.16,-5.34 2.26,-5.8 2.47,-6.22 C2.68,-6.64 2.98,-6.98 3.37,-7.24 C3.75,-7.5 4.22,-7.64 4.75,-7.64 C5.23,-7.64 5.66,-7.52 6.01,-7.3 C6.37,-7.08 6.65,-6.77 6.84,-6.39 C7.04,-6 7.14,-5.56 7.14,-5.07 C7.14,-5.07 1.77,-5.07 1.77,-5.07 C1.77,-5.07 1.77,-3.91 1.77,-3.91 C1.77,-3.91 8.5,-3.91 8.5,-3.91 C8.5,-3.91 8.5,-4.48 8.5,-4.48 C8.5,-5.29 8.39,-5.98 8.18,-6.53 C7.96,-7.09 7.67,-7.54 7.31,-7.88 C6.94,-8.22 6.54,-8.46 6.1,-8.61 C5.65,-8.77 5.2,-8.84 4.75,-8.84 C3.96,-8.84 3.27,-8.65 2.68,-8.26 C2.1,-7.88 1.64,-7.35 1.31,-6.66 C0.98,-5.98 0.82,-5.19 0.82,-4.3 C0.82,-3.4 0.98,-2.62 1.31,-1.95 C1.64,-1.27 2.11,-0.75 2.71,-0.38 C3.32,0 4.05,0.18 4.89,0.18 C5.48,0.18 6.01,0.09 6.48,-0.09z"/><g opacity="1" transform="matrix(0.1599999964237213,0,0,0.1599999964237213,0,0)"/></g></g></g><g stroke-linecap="butt" stroke-linejoin="round" stroke-miterlimit="4" transform="matrix(1,0,0,1,196.04159545898438,-0.36376953125)" opacity="1" style="display: inherit;"><g><g style="display: none;"/></g></g><g stroke-linecap="butt" stroke-linejoin="round" stroke-miterlimit="4" transform="matrix(1,0,0,1,200.54078674316406,-0.36376953125)" opacity="1" style="display: inherit;"><g><g transform="matrix(1,0,0,1,0,0)" opacity="1" style="display: block;"><path d=" M1.82,-2.14 C1.82,-1.63 1.94,-1.21 2.17,-0.88 C2.41,-0.54 2.71,-0.29 3.07,-0.13 C3.43,0.03 3.8,0.11 4.18,0.11 C4.43,0.11 4.64,0.1 4.8,0.06 C4.96,0.02 5.09,-0.01 5.18,-0.05 C5.18,-0.05 4.91,-1.25 4.91,-1.25 C4.85,-1.24 4.78,-1.22 4.68,-1.21 C4.59,-1.19 4.47,-1.18 4.32,-1.18 C4.12,-1.18 3.93,-1.21 3.76,-1.28 C3.58,-1.34 3.44,-1.46 3.33,-1.65 C3.21,-1.84 3.16,-2.12 3.16,-2.5 C3.16,-2.5 3.16,-10.82 3.16,-10.82 C3.16,-10.82 1.82,-10.82 1.82,-10.82 C1.82,-10.82 1.82,-2.14 1.82,-2.14z M0.5,-8.73 C0.5,-8.73 0.5,-7.59 0.5,-7.59 C0.5,-7.59 5.02,-7.59 5.02,-7.59 C5.02,-7.59 5.02,-8.73 5.02,-8.73 C5.02,-8.73 0.5,-8.73 0.5,-8.73z"/><g opacity="1" transform="matrix(0.1599999964237213,0,0,0.1599999964237213,0,0)"/></g></g></g><g stroke-linecap="butt" stroke-linejoin="round" stroke-miterlimit="4" transform="matrix(1,0,0,1,206.3583984375,-0.36376953125)" opacity="1" style="display: inherit;"><g><g transform="matrix(1,0,0,1,0,0)" opacity="1" style="display: block;"><path d=" M2.57,0 C2.57,0 2.57,-5.52 2.57,-5.52 C2.57,-5.92 2.66,-6.27 2.86,-6.58 C3.05,-6.89 3.31,-7.13 3.64,-7.3 C3.97,-7.48 4.35,-7.57 4.77,-7.57 C4.95,-7.57 5.12,-7.56 5.28,-7.53 C5.44,-7.51 5.55,-7.49 5.59,-7.48 C5.59,-7.48 5.59,-8.84 5.59,-8.84 C5.52,-8.85 5.4,-8.85 5.26,-8.86 C5.11,-8.86 4.98,-8.86 4.89,-8.86 C4.36,-8.86 3.89,-8.73 3.48,-8.46 C3.06,-8.19 2.77,-7.84 2.61,-7.41 C2.61,-7.41 2.52,-7.41 2.52,-7.41 C2.52,-7.41 2.52,-8.73 2.52,-8.73 C2.52,-8.73 1.23,-8.73 1.23,-8.73 C1.23,-8.73 1.23,0 1.23,0 C1.23,0 2.57,0 2.57,0z"/><g opacity="1" transform="matrix(0.1599999964237213,0,0,0.1599999964237213,0,0)"/></g></g></g><g stroke-linecap="butt" stroke-linejoin="round" stroke-miterlimit="4" transform="matrix(1,0,0,1,212.3135986328125,-0.36376953125)" opacity="1" style="display: inherit;"><g><g transform="matrix(1,0,0,1,0,0)" opacity="1" style="display: block;"><path d=" M2.68,-1.36 C2.33,-1.59 2.16,-1.94 2.16,-2.41 C2.16,-2.75 2.25,-3.02 2.43,-3.22 C2.62,-3.42 2.86,-3.57 3.16,-3.67 C3.46,-3.77 3.79,-3.84 4.14,-3.89 C4.28,-3.91 4.47,-3.93 4.7,-3.96 C4.93,-3.99 5.18,-4.02 5.42,-4.06 C5.67,-4.1 5.89,-4.15 6.08,-4.2 C6.27,-4.26 6.4,-4.32 6.45,-4.39 C6.45,-4.39 6.45,-3.16 6.45,-3.16 C6.45,-2.8 6.36,-2.45 6.17,-2.12 C5.99,-1.79 5.71,-1.52 5.34,-1.31 C4.98,-1.1 4.53,-1 4,-1 C3.47,-1 3.03,-1.12 2.68,-1.36z M5.09,-0.02 C5.44,-0.17 5.72,-0.36 5.93,-0.57 C6.14,-0.79 6.3,-0.99 6.39,-1.18 C6.39,-1.18 6.45,-1.18 6.45,-1.18 C6.45,-1.18 6.45,0 6.45,0 C6.45,0 7.8,0 7.8,0 C7.8,0 7.8,-5.75 7.8,-5.75 C7.8,-6.44 7.68,-7 7.45,-7.41 C7.23,-7.82 6.94,-8.13 6.6,-8.34 C6.26,-8.54 5.9,-8.68 5.54,-8.74 C5.17,-8.81 4.85,-8.84 4.57,-8.84 C4.13,-8.84 3.68,-8.78 3.23,-8.66 C2.78,-8.54 2.36,-8.33 1.98,-8.04 C1.6,-7.74 1.3,-7.33 1.07,-6.8 C1.07,-6.8 2.34,-6.34 2.34,-6.34 C2.49,-6.66 2.74,-6.96 3.11,-7.24 C3.47,-7.52 3.97,-7.66 4.61,-7.66 C5.23,-7.66 5.69,-7.5 6,-7.19 C6.3,-6.88 6.45,-6.45 6.45,-5.89 C6.45,-5.89 6.45,-5.84 6.45,-5.84 C6.45,-5.63 6.38,-5.47 6.22,-5.39 C6.07,-5.3 5.83,-5.24 5.5,-5.2 C5.17,-5.17 4.73,-5.11 4.2,-5.05 C3.8,-4.99 3.4,-4.92 3,-4.83 C2.6,-4.74 2.23,-4.61 1.9,-4.43 C1.57,-4.25 1.31,-4.01 1.11,-3.7 C0.92,-3.38 0.82,-2.98 0.82,-2.48 C0.82,-1.91 0.95,-1.43 1.22,-1.03 C1.48,-0.63 1.84,-0.32 2.29,-0.11 C2.74,0.1 3.24,0.2 3.8,0.2 C4.3,0.2 4.73,0.13 5.09,-0.02z"/><g opacity="1" transform="matrix(0.1599999964237213,0,0,0.1599999964237213,0,0)"/></g></g></g><g stroke-linecap="butt" stroke-linejoin="round" stroke-miterlimit="4" transform="matrix(1,0,0,1,221.3359832763672,-0.36376953125)" opacity="1" style="display: inherit;"><g><g transform="matrix(1,0,0,1,0,0)" opacity="1" style="display: block;"><path d=" M2.86,-6.55 C3.05,-6.9 3.32,-7.17 3.65,-7.36 C3.99,-7.54 4.37,-7.64 4.8,-7.64 C5.42,-7.64 5.91,-7.44 6.26,-7.06 C6.62,-6.68 6.8,-6.14 6.8,-5.45 C6.8,-5.45 6.8,0 6.8,0 C6.8,0 8.14,0 8.14,0 C8.14,0 8.14,-5.55 8.14,-5.55 C8.14,-6.29 8.01,-6.9 7.77,-7.39 C7.52,-7.88 7.18,-8.24 6.73,-8.48 C6.29,-8.72 5.77,-8.84 5.18,-8.84 C4.52,-8.84 3.98,-8.71 3.57,-8.43 C3.15,-8.16 2.84,-7.81 2.64,-7.36 C2.64,-7.36 2.52,-7.36 2.52,-7.36 C2.52,-7.36 2.52,-8.73 2.52,-8.73 C2.52,-8.73 1.23,-8.73 1.23,-8.73 C1.23,-8.73 1.23,0 1.23,0 C1.23,0 2.57,0 2.57,0 C2.57,0 2.57,-5.25 2.57,-5.25 C2.57,-5.76 2.66,-6.19 2.86,-6.55z"/><g opacity="1" transform="matrix(0.1599999964237213,0,0,0.1599999964237213,0,0)"/></g></g></g><g stroke-linecap="butt" stroke-linejoin="round" stroke-miterlimit="4" transform="matrix(1,0,0,1,230.69920349121094,-0.36376953125)" opacity="1" style="display: inherit;"><g><g transform="matrix(1,0,0,1,0,0)" opacity="1" style="display: block;"><path d=" M6.36,-8.27 C5.86,-8.65 5.18,-8.84 4.32,-8.84 C3.7,-8.84 3.16,-8.73 2.67,-8.52 C2.19,-8.3 1.81,-8 1.53,-7.62 C1.25,-7.25 1.11,-6.81 1.11,-6.32 C1.11,-5.72 1.3,-5.21 1.67,-4.82 C2.05,-4.42 2.63,-4.12 3.43,-3.93 C3.43,-3.93 4.89,-3.59 4.89,-3.59 C5.33,-3.49 5.65,-3.33 5.86,-3.13 C6.08,-2.92 6.18,-2.67 6.18,-2.36 C6.18,-1.99 6,-1.67 5.63,-1.4 C5.26,-1.13 4.76,-1 4.14,-1 C3.59,-1 3.14,-1.12 2.8,-1.35 C2.46,-1.59 2.23,-1.94 2.11,-2.41 C2.11,-2.41 0.84,-2.09 0.84,-2.09 C1,-1.35 1.37,-0.78 1.95,-0.4 C2.53,-0.01 3.27,0.18 4.16,0.18 C4.84,0.18 5.43,0.07 5.94,-0.16 C6.45,-0.39 6.85,-0.7 7.14,-1.09 C7.43,-1.48 7.57,-1.93 7.57,-2.43 C7.57,-3.04 7.38,-3.54 6.99,-3.93 C6.61,-4.32 6.03,-4.61 5.25,-4.8 C5.25,-4.8 3.95,-5.11 3.95,-5.11 C3.44,-5.24 3.06,-5.4 2.82,-5.6 C2.58,-5.79 2.45,-6.05 2.45,-6.39 C2.45,-6.76 2.63,-7.07 2.99,-7.32 C3.34,-7.56 3.78,-7.68 4.32,-7.68 C4.71,-7.68 5.03,-7.62 5.28,-7.49 C5.53,-7.37 5.73,-7.21 5.87,-7.02 C6.02,-6.83 6.13,-6.63 6.2,-6.43 C6.2,-6.43 7.41,-6.77 7.41,-6.77 C7.2,-7.39 6.85,-7.89 6.36,-8.27z"/><g opacity="1" transform="matrix(0.1599999964237213,0,0,0.1599999964237213,0,0)"/></g></g></g><g stroke-linecap="butt" stroke-linejoin="round" stroke-miterlimit="4" transform="matrix(1,0,0,1,239.06240844726562,-0.36376953125)" opacity="1" style="display: inherit;"><g><g transform="matrix(1,0,0,1,0,0)" opacity="1" style="display: block;"><path d=" M2.68,-1.36 C2.33,-1.59 2.16,-1.94 2.16,-2.41 C2.16,-2.75 2.25,-3.02 2.43,-3.22 C2.62,-3.42 2.86,-3.57 3.16,-3.67 C3.46,-3.77 3.79,-3.84 4.14,-3.89 C4.28,-3.91 4.47,-3.93 4.7,-3.96 C4.93,-3.99 5.18,-4.02 5.42,-4.06 C5.67,-4.1 5.89,-4.15 6.08,-4.2 C6.27,-4.26 6.4,-4.32 6.45,-4.39 C6.45,-4.39 6.45,-3.16 6.45,-3.16 C6.45,-2.8 6.36,-2.45 6.17,-2.12 C5.99,-1.79 5.71,-1.52 5.34,-1.31 C4.98,-1.1 4.53,-1 4,-1 C3.47,-1 3.03,-1.12 2.68,-1.36z M5.09,-0.02 C5.44,-0.17 5.72,-0.36 5.93,-0.57 C6.14,-0.79 6.3,-0.99 6.39,-1.18 C6.39,-1.18 6.45,-1.18 6.45,-1.18 C6.45,-1.18 6.45,0 6.45,0 C6.45,0 7.8,0 7.8,0 C7.8,0 7.8,-5.75 7.8,-5.75 C7.8,-6.44 7.68,-7 7.45,-7.41 C7.23,-7.82 6.94,-8.13 6.6,-8.34 C6.26,-8.54 5.9,-8.68 5.54,-8.74 C5.17,-8.81 4.85,-8.84 4.57,-8.84 C4.13,-8.84 3.68,-8.78 3.23,-8.66 C2.78,-8.54 2.36,-8.33 1.98,-8.04 C1.6,-7.74 1.3,-7.33 1.07,-6.8 C1.07,-6.8 2.34,-6.34 2.34,-6.34 C2.49,-6.66 2.74,-6.96 3.11,-7.24 C3.47,-7.52 3.97,-7.66 4.61,-7.66 C5.23,-7.66 5.69,-7.5 6,-7.19 C6.3,-6.88 6.45,-6.45 6.45,-5.89 C6.45,-5.89 6.45,-5.84 6.45,-5.84 C6.45,-5.63 6.38,-5.47 6.22,-5.39 C6.07,-5.3 5.83,-5.24 5.5,-5.2 C5.17,-5.17 4.73,-5.11 4.2,-5.05 C3.8,-4.99 3.4,-4.92 3,-4.83 C2.6,-4.74 2.23,-4.61 1.9,-4.43 C1.57,-4.25 1.31,-4.01 1.11,-3.7 C0.92,-3.38 0.82,-2.98 0.82,-2.48 C0.82,-1.91 0.95,-1.43 1.22,-1.03 C1.48,-0.63 1.84,-0.32 2.29,-0.11 C2.74,0.1 3.24,0.2 3.8,0.2 C4.3,0.2 4.73,0.13 5.09,-0.02z"/><g opacity="1" transform="matrix(0.1599999964237213,0,0,0.1599999964237213,0,0)"/></g></g></g><g stroke-linecap="butt" stroke-linejoin="round" stroke-miterlimit="4" transform="matrix(1,0,0,1,248.08480834960938,-0.36376953125)" opacity="1" style="display: inherit;"><g><g transform="matrix(1,0,0,1,0,0)" opacity="1" style="display: block;"><path d=" M6.47,-0.18 C6.96,-0.42 7.35,-0.75 7.64,-1.16 C7.94,-1.57 8.13,-2.03 8.2,-2.55 C8.2,-2.55 6.86,-2.55 6.86,-2.55 C6.78,-2.23 6.64,-1.95 6.44,-1.73 C6.25,-1.5 6.01,-1.33 5.72,-1.2 C5.44,-1.08 5.12,-1.02 4.77,-1.02 C4.24,-1.02 3.78,-1.16 3.39,-1.44 C3,-1.71 2.69,-2.1 2.48,-2.6 C2.27,-3.1 2.16,-3.69 2.16,-4.36 C2.16,-5.02 2.27,-5.6 2.49,-6.09 C2.7,-6.58 3.01,-6.96 3.4,-7.23 C3.79,-7.5 4.25,-7.64 4.77,-7.64 C5.36,-7.64 5.83,-7.48 6.18,-7.17 C6.53,-6.86 6.76,-6.51 6.86,-6.11 C6.86,-6.11 8.2,-6.11 8.2,-6.11 C8.13,-6.66 7.93,-7.14 7.62,-7.55 C7.3,-7.95 6.9,-8.27 6.41,-8.5 C5.92,-8.73 5.36,-8.84 4.75,-8.84 C3.96,-8.84 3.27,-8.65 2.68,-8.26 C2.1,-7.88 1.64,-7.35 1.31,-6.67 C0.98,-5.99 0.82,-5.2 0.82,-4.32 C0.82,-3.45 0.98,-2.67 1.3,-1.99 C1.61,-1.32 2.07,-0.78 2.66,-0.4 C3.25,-0.01 3.95,0.18 4.77,0.18 C5.42,0.18 5.98,0.06 6.47,-0.18z"/><g opacity="1" transform="matrix(0.1599999964237213,0,0,0.1599999964237213,0,0)"/></g></g></g><g stroke-linecap="butt" stroke-linejoin="round" stroke-miterlimit="4" transform="matrix(1,0,0,1,257.0160217285156,-0.36376953125)" opacity="1" style="display: inherit;"><g><g transform="matrix(1,0,0,1,0,0)" opacity="1" style="display: block;"><path d=" M1.82,-2.14 C1.82,-1.63 1.94,-1.21 2.17,-0.88 C2.41,-0.54 2.71,-0.29 3.07,-0.13 C3.43,0.03 3.8,0.11 4.18,0.11 C4.43,0.11 4.64,0.1 4.8,0.06 C4.96,0.02 5.09,-0.01 5.18,-0.05 C5.18,-0.05 4.91,-1.25 4.91,-1.25 C4.85,-1.24 4.78,-1.22 4.68,-1.21 C4.59,-1.19 4.47,-1.18 4.32,-1.18 C4.12,-1.18 3.93,-1.21 3.76,-1.28 C3.58,-1.34 3.44,-1.46 3.33,-1.65 C3.21,-1.84 3.16,-2.12 3.16,-2.5 C3.16,-2.5 3.16,-10.82 3.16,-10.82 C3.16,-10.82 1.82,-10.82 1.82,-10.82 C1.82,-10.82 1.82,-2.14 1.82,-2.14z M0.5,-8.73 C0.5,-8.73 0.5,-7.59 0.5,-7.59 C0.5,-7.59 5.02,-7.59 5.02,-7.59 C5.02,-7.59 5.02,-8.73 5.02,-8.73 C5.02,-8.73 0.5,-8.73 0.5,-8.73z"/><g opacity="1" transform="matrix(0.1599999964237213,0,0,0.1599999964237213,0,0)"/></g></g></g><g stroke-linecap="butt" stroke-linejoin="round" stroke-miterlimit="4" transform="matrix(1,0,0,1,262.8336181640625,-0.36376953125)" opacity="1" style="display: inherit;"><g><g transform="matrix(1,0,0,1,0,0)" opacity="1" style="display: block;"><path d=" M2.58,-10.45 C2.77,-10.63 2.86,-10.84 2.86,-11.09 C2.86,-11.34 2.77,-11.55 2.58,-11.73 C2.39,-11.91 2.17,-12 1.91,-12 C1.65,-12 1.42,-11.91 1.24,-11.73 C1.05,-11.55 0.95,-11.34 0.95,-11.09 C0.95,-10.84 1.05,-10.63 1.24,-10.45 C1.42,-10.27 1.65,-10.18 1.91,-10.18 C2.17,-10.18 2.39,-10.27 2.58,-10.45z M2.57,0 C2.57,0 2.57,-8.73 2.57,-8.73 C2.57,-8.73 1.23,-8.73 1.23,-8.73 C1.23,-8.73 1.23,0 1.23,0 C1.23,0 2.57,0 2.57,0z"/><g opacity="1" transform="matrix(0.1599999964237213,0,0,0.1599999964237213,0,0)"/></g></g></g><g stroke-linecap="butt" stroke-linejoin="round" stroke-miterlimit="4" transform="matrix(1,0,0,1,266.6287841796875,-0.36376953125)" opacity="1" style="display: inherit;"><g><g transform="matrix(1,0,0,1,0,0)" opacity="1" style="display: block;"><path d=" M3.3,-1.48 C2.91,-1.79 2.62,-2.19 2.44,-2.69 C2.25,-3.19 2.16,-3.73 2.16,-4.32 C2.16,-4.9 2.25,-5.44 2.44,-5.95 C2.62,-6.45 2.91,-6.86 3.3,-7.17 C3.68,-7.48 4.17,-7.64 4.77,-7.64 C5.37,-7.64 5.86,-7.48 6.25,-7.17 C6.64,-6.86 6.92,-6.45 7.11,-5.95 C7.29,-5.44 7.39,-4.9 7.39,-4.32 C7.39,-3.73 7.29,-3.19 7.11,-2.69 C6.92,-2.19 6.64,-1.79 6.25,-1.48 C5.86,-1.18 5.37,-1.02 4.77,-1.02 C4.17,-1.02 3.68,-1.18 3.3,-1.48z M6.84,-0.38 C7.44,-0.76 7.9,-1.28 8.23,-1.95 C8.56,-2.63 8.73,-3.42 8.73,-4.32 C8.73,-5.23 8.56,-6.02 8.23,-6.7 C7.9,-7.38 7.44,-7.9 6.84,-8.28 C6.25,-8.65 5.56,-8.84 4.77,-8.84 C3.98,-8.84 3.29,-8.65 2.7,-8.28 C2.11,-7.9 1.65,-7.38 1.32,-6.7 C0.98,-6.02 0.82,-5.23 0.82,-4.32 C0.82,-3.42 0.98,-2.63 1.32,-1.95 C1.65,-1.28 2.11,-0.76 2.7,-0.38 C3.29,-0.01 3.98,0.18 4.77,0.18 C5.56,0.18 6.25,-0.01 6.84,-0.38z"/><g opacity="1" transform="matrix(0.1599999964237213,0,0,0.1599999964237213,0,0)"/></g></g></g><g stroke-linecap="butt" stroke-linejoin="round" stroke-miterlimit="4" transform="matrix(1,0,0,1,276.1744079589844,-0.36376953125)" opacity="1" style="display: inherit;"><g><g transform="matrix(1,0,0,1,0,0)" opacity="1" style="display: block;"><path d=" M2.86,-6.55 C3.05,-6.9 3.32,-7.17 3.65,-7.36 C3.99,-7.54 4.37,-7.64 4.8,-7.64 C5.42,-7.64 5.91,-7.44 6.26,-7.06 C6.62,-6.68 6.8,-6.14 6.8,-5.45 C6.8,-5.45 6.8,0 6.8,0 C6.8,0 8.14,0 8.14,0 C8.14,0 8.14,-5.55 8.14,-5.55 C8.14,-6.29 8.01,-6.9 7.77,-7.39 C7.52,-7.88 7.18,-8.24 6.73,-8.48 C6.29,-8.72 5.77,-8.84 5.18,-8.84 C4.52,-8.84 3.98,-8.71 3.57,-8.43 C3.15,-8.16 2.84,-7.81 2.64,-7.36 C2.64,-7.36 2.52,-7.36 2.52,-7.36 C2.52,-7.36 2.52,-8.73 2.52,-8.73 C2.52,-8.73 1.23,-8.73 1.23,-8.73 C1.23,-8.73 1.23,0 1.23,0 C1.23,0 2.57,0 2.57,0 C2.57,0 2.57,-5.25 2.57,-5.25 C2.57,-5.76 2.66,-6.19 2.86,-6.55z"/><g opacity="1" transform="matrix(0.1599999964237213,0,0,0.1599999964237213,0,0)"/></g></g></g><g stroke-linecap="butt" stroke-linejoin="round" stroke-miterlimit="4" transform="matrix(1,0,0,1,285.53759765625,-0.36376953125)" opacity="1" style="display: inherit;"><g><g transform="matrix(1,0,0,1,0,0)" opacity="1" style="display: block;"><path d=" M6.36,-8.27 C5.86,-8.65 5.18,-8.84 4.32,-8.84 C3.7,-8.84 3.16,-8.73 2.67,-8.52 C2.19,-8.3 1.81,-8 1.53,-7.62 C1.25,-7.25 1.11,-6.81 1.11,-6.32 C1.11,-5.72 1.3,-5.21 1.67,-4.82 C2.05,-4.42 2.63,-4.12 3.43,-3.93 C3.43,-3.93 4.89,-3.59 4.89,-3.59 C5.33,-3.49 5.65,-3.33 5.86,-3.13 C6.08,-2.92 6.18,-2.67 6.18,-2.36 C6.18,-1.99 6,-1.67 5.63,-1.4 C5.26,-1.13 4.76,-1 4.14,-1 C3.59,-1 3.14,-1.12 2.8,-1.35 C2.46,-1.59 2.23,-1.94 2.11,-2.41 C2.11,-2.41 0.84,-2.09 0.84,-2.09 C1,-1.35 1.37,-0.78 1.95,-0.4 C2.53,-0.01 3.27,0.18 4.16,0.18 C4.84,0.18 5.43,0.07 5.94,-0.16 C6.45,-0.39 6.85,-0.7 7.14,-1.09 C7.43,-1.48 7.57,-1.93 7.57,-2.43 C7.57,-3.04 7.38,-3.54 6.99,-3.93 C6.61,-4.32 6.03,-4.61 5.25,-4.8 C5.25,-4.8 3.95,-5.11 3.95,-5.11 C3.44,-5.24 3.06,-5.4 2.82,-5.6 C2.58,-5.79 2.45,-6.05 2.45,-6.39 C2.45,-6.76 2.63,-7.07 2.99,-7.32 C3.34,-7.56 3.78,-7.68 4.32,-7.68 C4.71,-7.68 5.03,-7.62 5.28,-7.49 C5.53,-7.37 5.73,-7.21 5.87,-7.02 C6.02,-6.83 6.13,-6.63 6.2,-6.43 C6.2,-6.43 7.41,-6.77 7.41,-6.77 C7.2,-7.39 6.85,-7.89 6.36,-8.27z"/><g opacity="1" transform="matrix(0.1599999964237213,0,0,0.1599999964237213,0,0)"/></g></g></g><g stroke-linecap="butt" stroke-linejoin="round" stroke-miterlimit="4" transform="matrix(1,0,0,1,293.9007873535156,-0.36376953125)" opacity="1" style="display: inherit;"><g><g transform="matrix(1,0,0,1,0,0)" opacity="1" style="display: block;"><path d=" M4.22,-0.05 C4.37,-0.14 4.5,-0.27 4.59,-0.42 C4.68,-0.58 4.73,-0.75 4.73,-0.93 C4.73,-1.21 4.63,-1.45 4.43,-1.65 C4.23,-1.85 3.98,-1.95 3.7,-1.95 C3.42,-1.95 3.18,-1.85 2.98,-1.65 C2.78,-1.45 2.68,-1.21 2.68,-0.93 C2.68,-0.65 2.78,-0.41 2.98,-0.21 C3.18,-0.01 3.42,0.09 3.7,0.09 C3.89,0.09 4.07,0.04 4.22,-0.05z M4.34,-3.27 C4.34,-3.27 4.34,-3.34 4.34,-3.34 C4.35,-3.81 4.4,-4.2 4.49,-4.52 C4.58,-4.83 4.73,-5.1 4.93,-5.33 C5.13,-5.56 5.39,-5.78 5.73,-5.99 C6.06,-6.19 6.35,-6.43 6.58,-6.69 C6.82,-6.96 7,-7.26 7.13,-7.6 C7.25,-7.93 7.32,-8.31 7.32,-8.73 C7.32,-9.32 7.18,-9.84 6.91,-10.31 C6.64,-10.77 6.26,-11.13 5.76,-11.4 C5.27,-11.66 4.69,-11.8 4.02,-11.8 C3.41,-11.8 2.85,-11.67 2.35,-11.43 C1.85,-11.19 1.44,-10.84 1.14,-10.38 C0.83,-9.92 0.67,-9.37 0.64,-8.73 C0.64,-8.73 2.07,-8.73 2.07,-8.73 C2.1,-9.17 2.21,-9.54 2.4,-9.81 C2.6,-10.09 2.84,-10.29 3.12,-10.42 C3.41,-10.55 3.71,-10.61 4.02,-10.61 C4.38,-10.61 4.7,-10.54 4.99,-10.39 C5.29,-10.24 5.52,-10.03 5.69,-9.76 C5.87,-9.49 5.95,-9.17 5.95,-8.8 C5.95,-8.5 5.9,-8.22 5.8,-7.98 C5.69,-7.73 5.55,-7.51 5.38,-7.33 C5.2,-7.14 5,-6.98 4.77,-6.84 C4.4,-6.62 4.08,-6.37 3.82,-6.11 C3.55,-5.84 3.35,-5.5 3.2,-5.07 C3.06,-4.64 2.98,-4.06 2.98,-3.34 C2.98,-3.34 2.98,-3.27 2.98,-3.27 C2.98,-3.27 4.34,-3.27 4.34,-3.27z"/><g opacity="1" transform="matrix(0.1599999964237213,0,0,0.1599999964237213,0,0)"/></g></g></g></g><g transform="matrix(1,0,0,1,570,180)" opacity="1" style="display: block;"><g opacity="1" transform="matrix(1,0,0,1,0,0)"><path fill="rgb(29,29,29)" fill-opacity="1" d=" M14,-8 C14,-8 14,8 14,8 C14,11.311400413513184 11.311400413513184,14 8,14 C8,14 -8,14 -8,14 C-11.311400413513184,14 -14,11.311400413513184 -14,8 C-14,8 -14,-8 -14,-8 C-14,-11.311400413513184 -11.311400413513184,-14 -8,-14 C-8,-14 8,-14 8,-14 C11.311400413513184,-14 14,-11.311400413513184 14,-8z"/></g></g><g transform="matrix(1,0,0,1,570.25,180)" opacity="1" style="display: block;"><g opacity="1" transform="matrix(1,0,0,1,0,0)"><path fill="rgb(192,192,195)" fill-opacity="1" d=" M-5.538000106811523,-4.914000034332275 C-5.538000106811523,-4.914000034332275 -2.9040000438690186,-0.4000000059604645 -2.9040000438690186,-0.4000000059604645 C-2.9040000438690186,-0.4000000059604645 1.25,-0.4000000059604645 1.25,-0.4000000059604645 C1.4709999561309814,-0.4000000059604645 1.649999976158142,-0.22100000083446503 1.649999976158142,0 C1.649999976158142,0.22100000083446503 1.4709999561309814,0.4000000059604645 1.25,0.4000000059604645 C1.25,0.4000000059604645 -2.9040000438690186,0.4000000059604645 -2.9040000438690186,0.4000000059604645 C-2.9040000438690186,0.4000000059604645 -5.538000106811523,4.914000034332275 -5.538000106811523,4.914000034332275 C-5.538000106811523,4.914000034332275 5.519000053405762,0 5.519000053405762,0 C5.519000053405762,0 -5.538000106811523,-4.914000034332275 -5.538000106811523,-4.914000034332275z M-7.122000217437744,-6.334000110626221 C-6.9770002365112305,-6.495999813079834 -6.744999885559082,-6.545000076293945 -6.546999931335449,-6.456999778747559 C-6.546999931335449,-6.456999778747559 6.953000068664551,-0.4569999873638153 6.953000068664551,-0.4569999873638153 C7.132999897003174,-0.37700000405311584 7.25,-0.1979999989271164 7.25,0 C7.25,0.1979999989271164 7.132999897003174,0.37700000405311584 6.953000068664551,0.4569999873638153 C6.953000068664551,0.4569999873638153 -6.546999931335449,6.456999778747559 -6.546999931335449,6.456999778747559 C-6.744999885559082,6.545000076293945 -6.9770002365112305,6.495999813079834 -7.122000217437744,6.334000110626221 C-7.267000198364258,6.171999931335449 -7.290999889373779,5.934999942779541 -7.182000160217285,5.748000144958496 C-7.182000160217285,5.748000144958496 -3.8289999961853027,0 -3.8289999961853027,0 C-3.8289999961853027,0 -7.182000160217285,-5.748000144958496 -7.182000160217285,-5.748000144958496 C-7.290999889373779,-5.934999942779541 -7.267000198364258,-6.171999931335449 -7.122000217437744,-6.334000110626221z"/></g></g></g></svg>