<svg width="627" height="44" viewBox="0 0 627 44" fill="none" xmlns="http://www.w3.org/2000/svg">
<rect x="0.5" y="0.5" width="626" height="43" rx="7.5" fill="#222222"/>
<path d="M15.5227 28L12.3409 16.3636H13.7727L16.2045 25.8409H16.3182L18.7955 16.3636H20.3864L22.8636 25.8409H22.9773L25.4091 16.3636H26.8409L23.6591 28H22.2045L19.6364 18.7273H19.5455L16.9773 28H15.5227ZM29.7557 22.75V28H28.4148V16.3636H29.7557V20.6364H29.8693C30.0739 20.1856 30.3807 19.8277 30.7898 19.5625C31.2027 19.2936 31.7519 19.1591 32.4375 19.1591C33.0322 19.1591 33.553 19.2784 34 19.517C34.447 19.7519 34.7936 20.1136 35.0398 20.6023C35.2898 21.0871 35.4148 21.7045 35.4148 22.4545V28H34.0739V22.5455C34.0739 21.8523 33.8939 21.3163 33.5341 20.9375C33.178 20.5549 32.6837 20.3636 32.0511 20.3636C31.6117 20.3636 31.2178 20.4564 30.8693 20.642C30.5246 20.8277 30.2519 21.0985 30.0511 21.4545C29.8542 21.8106 29.7557 22.2424 29.7557 22.75ZM40.4361 28.2045C39.883 28.2045 39.3812 28.1004 38.9304 27.892C38.4796 27.6799 38.1217 27.375 37.8565 26.9773C37.5914 26.5758 37.4588 26.0909 37.4588 25.5227C37.4588 25.0227 37.5573 24.6174 37.7543 24.3068C37.9512 23.9924 38.2145 23.7462 38.544 23.5682C38.8736 23.3902 39.2372 23.2576 39.6349 23.1705C40.0365 23.0795 40.4399 23.0076 40.8452 22.9545C41.3755 22.8864 41.8054 22.8352 42.1349 22.8011C42.4683 22.7633 42.7107 22.7008 42.8622 22.6136C43.0175 22.5265 43.0952 22.375 43.0952 22.1591V22.1136C43.0952 21.553 42.9418 21.1174 42.6349 20.8068C42.3319 20.4962 41.8717 20.3409 41.2543 20.3409C40.6141 20.3409 40.1122 20.4811 39.7486 20.7614C39.3849 21.0417 39.1293 21.3409 38.9815 21.6591L37.7088 21.2045C37.9361 20.6742 38.2391 20.2614 38.6179 19.9659C39.0005 19.6667 39.4171 19.4583 39.8679 19.3409C40.3224 19.2197 40.7694 19.1591 41.2088 19.1591C41.4891 19.1591 41.8111 19.1932 42.1747 19.2614C42.5421 19.3258 42.8963 19.4602 43.2372 19.6648C43.5819 19.8693 43.8679 20.178 44.0952 20.5909C44.3224 21.0038 44.4361 21.5568 44.4361 22.25V28H43.0952V26.8182H43.027C42.9361 27.0076 42.7846 27.2102 42.5724 27.4261C42.3603 27.642 42.0781 27.8258 41.7259 27.9773C41.3736 28.1288 40.9437 28.2045 40.4361 28.2045ZM40.6406 27C41.1709 27 41.6179 26.8958 41.9815 26.6875C42.349 26.4792 42.6255 26.2102 42.8111 25.8807C43.0005 25.5511 43.0952 25.2045 43.0952 24.8409V23.6136C43.0384 23.6818 42.9134 23.7443 42.7202 23.8011C42.5308 23.8542 42.3111 23.9015 42.0611 23.9432C41.8149 23.9811 41.5743 24.0152 41.3395 24.0455C41.1084 24.072 40.9209 24.0947 40.777 24.1136C40.4285 24.1591 40.1027 24.233 39.7997 24.3352C39.5005 24.4337 39.258 24.5833 39.0724 24.7841C38.8906 24.9811 38.7997 25.25 38.7997 25.5909C38.7997 26.0568 38.9721 26.4091 39.3168 26.6477C39.6652 26.8826 40.1065 27 40.6406 27ZM50.679 19.2727V20.4091H46.1562V19.2727H50.679ZM47.4744 17.1818H48.8153V25.5C48.8153 25.8788 48.8703 26.1629 48.9801 26.3523C49.0938 26.5379 49.2377 26.6629 49.4119 26.7273C49.59 26.7879 49.7775 26.8182 49.9744 26.8182C50.1222 26.8182 50.2434 26.8106 50.3381 26.7955C50.4328 26.7765 50.5085 26.7614 50.5653 26.75L50.8381 27.9545C50.7472 27.9886 50.6203 28.0227 50.4574 28.0568C50.2945 28.0947 50.0881 28.1136 49.8381 28.1136C49.4593 28.1136 49.0881 28.0322 48.7244 27.8693C48.3646 27.7064 48.0653 27.4583 47.8267 27.125C47.5919 26.7917 47.4744 26.3712 47.4744 25.8636V17.1818ZM59.7642 28.2045C59.2112 28.2045 58.7093 28.1004 58.2585 27.892C57.8078 27.6799 57.4498 27.375 57.1847 26.9773C56.9195 26.5758 56.7869 26.0909 56.7869 25.5227C56.7869 25.0227 56.8854 24.6174 57.0824 24.3068C57.2794 23.9924 57.5426 23.7462 57.8722 23.5682C58.2017 23.3902 58.5653 23.2576 58.9631 23.1705C59.3646 23.0795 59.768 23.0076 60.1733 22.9545C60.7036 22.8864 61.1335 22.8352 61.4631 22.8011C61.7964 22.7633 62.0388 22.7008 62.1903 22.6136C62.3456 22.5265 62.4233 22.375 62.4233 22.1591V22.1136C62.4233 21.553 62.2699 21.1174 61.9631 20.8068C61.66 20.4962 61.1998 20.3409 60.5824 20.3409C59.9422 20.3409 59.4403 20.4811 59.0767 20.7614C58.7131 21.0417 58.4574 21.3409 58.3097 21.6591L57.0369 21.2045C57.2642 20.6742 57.5672 20.2614 57.946 19.9659C58.3286 19.6667 58.7453 19.4583 59.196 19.3409C59.6506 19.2197 60.0975 19.1591 60.5369 19.1591C60.8172 19.1591 61.1392 19.1932 61.5028 19.2614C61.8703 19.3258 62.2244 19.4602 62.5653 19.6648C62.91 19.8693 63.196 20.178 63.4233 20.5909C63.6506 21.0038 63.7642 21.5568 63.7642 22.25V28H62.4233V26.8182H62.3551C62.2642 27.0076 62.1127 27.2102 61.9006 27.4261C61.6884 27.642 61.4063 27.8258 61.054 27.9773C60.7017 28.1288 60.2718 28.2045 59.7642 28.2045ZM59.9688 27C60.4991 27 60.946 26.8958 61.3097 26.6875C61.6771 26.4792 61.9536 26.2102 62.1392 25.8807C62.3286 25.5511 62.4233 25.2045 62.4233 24.8409V23.6136C62.3665 23.6818 62.2415 23.7443 62.0483 23.8011C61.8589 23.8542 61.6392 23.9015 61.3892 23.9432C61.143 23.9811 60.9025 24.0152 60.6676 24.0455C60.4366 24.072 60.2491 24.0947 60.1051 24.1136C59.7566 24.1591 59.4309 24.233 59.1278 24.3352C58.8286 24.4337 58.5862 24.5833 58.4006 24.7841C58.2188 24.9811 58.1278 25.25 58.1278 25.5909C58.1278 26.0568 58.3002 26.4091 58.6449 26.6477C58.9934 26.8826 59.4347 27 59.9688 27ZM66.2116 28V19.2727H67.5071V20.5909H67.598C67.7571 20.1591 68.045 19.8087 68.4616 19.5398C68.8783 19.2708 69.348 19.1364 69.8707 19.1364C69.9692 19.1364 70.0923 19.1383 70.2401 19.142C70.3878 19.1458 70.4995 19.1515 70.5753 19.1591V20.5227C70.5298 20.5114 70.4257 20.4943 70.2628 20.4716C70.1037 20.4451 69.9351 20.4318 69.7571 20.4318C69.3329 20.4318 68.9541 20.5208 68.6207 20.6989C68.2912 20.8731 68.0298 21.1155 67.8366 21.4261C67.6473 21.733 67.5526 22.0833 67.5526 22.4773V28H66.2116ZM75.5582 28.1818C74.7173 28.1818 73.992 27.9962 73.3821 27.625C72.776 27.25 72.3082 26.7273 71.9787 26.0568C71.6529 25.3826 71.4901 24.5985 71.4901 23.7045C71.4901 22.8106 71.6529 22.0227 71.9787 21.3409C72.3082 20.6553 72.7666 20.1212 73.3537 19.7386C73.9446 19.3523 74.634 19.1591 75.4219 19.1591C75.8764 19.1591 76.3253 19.2348 76.7685 19.3864C77.2116 19.5379 77.6151 19.7841 77.9787 20.125C78.3423 20.4621 78.6321 20.9091 78.848 21.4659C79.0639 22.0227 79.1719 22.7083 79.1719 23.5227V24.0909H72.4446V22.9318H77.8082C77.8082 22.4394 77.7098 22 77.5128 21.6136C77.3196 21.2273 77.0431 20.9223 76.6832 20.6989C76.3272 20.4754 75.9067 20.3636 75.4219 20.3636C74.8878 20.3636 74.4257 20.4962 74.0355 20.7614C73.6491 21.0227 73.3518 21.3636 73.1435 21.7841C72.9351 22.2045 72.831 22.6553 72.831 23.1364V23.9091C72.831 24.5682 72.9446 25.1269 73.1719 25.5852C73.4029 26.0398 73.723 26.3864 74.1321 26.625C74.5412 26.8598 75.0166 26.9773 75.5582 26.9773C75.9105 26.9773 76.2287 26.928 76.5128 26.8295C76.8007 26.7273 77.0488 26.5758 77.2571 26.375C77.4654 26.1705 77.6264 25.9167 77.7401 25.6136L79.0355 25.9773C78.8991 26.4167 78.67 26.803 78.348 27.1364C78.026 27.4659 77.6283 27.7235 77.1548 27.9091C76.6813 28.0909 76.1491 28.1818 75.5582 28.1818ZM89.5071 19.2727V20.4091H84.9844V19.2727H89.5071ZM86.3026 17.1818H87.6435V25.5C87.6435 25.8788 87.6984 26.1629 87.8082 26.3523C87.9219 26.5379 88.0658 26.6629 88.2401 26.7273C88.4181 26.7879 88.6056 26.8182 88.8026 26.8182C88.9503 26.8182 89.0715 26.8106 89.1662 26.7955C89.2609 26.7765 89.3366 26.7614 89.3935 26.75L89.6662 27.9545C89.5753 27.9886 89.4484 28.0227 89.2855 28.0568C89.1226 28.0947 88.9162 28.1136 88.6662 28.1136C88.2874 28.1136 87.9162 28.0322 87.5526 27.8693C87.1927 27.7064 86.8935 27.4583 86.6548 27.125C86.42 26.7917 86.3026 26.3712 86.3026 25.8636V17.1818ZM93.0526 22.75V28H91.7116V16.3636H93.0526V20.6364H93.1662C93.3707 20.1856 93.6776 19.8277 94.0866 19.5625C94.4995 19.2936 95.0488 19.1591 95.7344 19.1591C96.3291 19.1591 96.8499 19.2784 97.2969 19.517C97.7438 19.7519 98.0904 20.1136 98.3366 20.6023C98.5866 21.0871 98.7116 21.7045 98.7116 22.4545V28H97.3707V22.5455C97.3707 21.8523 97.1908 21.3163 96.831 20.9375C96.4749 20.5549 95.9806 20.3636 95.348 20.3636C94.9086 20.3636 94.5147 20.4564 94.1662 20.642C93.8215 20.8277 93.5488 21.0985 93.348 21.4545C93.151 21.8106 93.0526 22.2424 93.0526 22.75ZM104.824 28.1818C103.983 28.1818 103.258 27.9962 102.648 27.625C102.042 27.25 101.574 26.7273 101.244 26.0568C100.919 25.3826 100.756 24.5985 100.756 23.7045C100.756 22.8106 100.919 22.0227 101.244 21.3409C101.574 20.6553 102.032 20.1212 102.619 19.7386C103.21 19.3523 103.9 19.1591 104.688 19.1591C105.142 19.1591 105.591 19.2348 106.034 19.3864C106.477 19.5379 106.881 19.7841 107.244 20.125C107.608 20.4621 107.898 20.9091 108.114 21.4659C108.33 22.0227 108.438 22.7083 108.438 23.5227V24.0909H101.71V22.9318H107.074C107.074 22.4394 106.975 22 106.778 21.6136C106.585 21.2273 106.309 20.9223 105.949 20.6989C105.593 20.4754 105.172 20.3636 104.688 20.3636C104.153 20.3636 103.691 20.4962 103.301 20.7614C102.915 21.0227 102.617 21.3636 102.409 21.7841C102.201 22.2045 102.097 22.6553 102.097 23.1364V23.9091C102.097 24.5682 102.21 25.1269 102.438 25.5852C102.669 26.0398 102.989 26.3864 103.398 26.625C103.807 26.8598 104.282 26.9773 104.824 26.9773C105.176 26.9773 105.494 26.928 105.778 26.8295C106.066 26.7273 106.314 26.5758 106.523 26.375C106.731 26.1705 106.892 25.9167 107.006 25.6136L108.301 25.9773C108.165 26.4167 107.936 26.803 107.614 27.1364C107.292 27.4659 106.894 27.7235 106.42 27.9091C105.947 28.0909 105.415 28.1818 104.824 28.1818ZM114.977 31.2727V19.2727H116.273V20.6591H116.432C116.53 20.5076 116.667 20.3144 116.841 20.0795C117.019 19.8409 117.273 19.6288 117.602 19.4432C117.936 19.2538 118.386 19.1591 118.955 19.1591C119.689 19.1591 120.337 19.3428 120.898 19.7102C121.458 20.0777 121.896 20.5985 122.21 21.2727C122.525 21.947 122.682 22.7424 122.682 23.6591C122.682 24.5833 122.525 25.3845 122.21 26.0625C121.896 26.7367 121.46 27.2595 120.903 27.6307C120.347 27.9981 119.705 28.1818 118.977 28.1818C118.417 28.1818 117.968 28.089 117.631 27.9034C117.294 27.714 117.034 27.5 116.852 27.2614C116.67 27.0189 116.53 26.8182 116.432 26.6591H116.318V31.2727H114.977ZM116.295 23.6364C116.295 24.2955 116.392 24.8769 116.585 25.3807C116.778 25.8807 117.061 26.2727 117.432 26.5568C117.803 26.8371 118.258 26.9773 118.795 26.9773C119.356 26.9773 119.824 26.8295 120.199 26.5341C120.578 26.2348 120.862 25.8333 121.051 25.3295C121.244 24.822 121.341 24.2576 121.341 23.6364C121.341 23.0227 121.246 22.4697 121.057 21.9773C120.871 21.4811 120.589 21.089 120.21 20.8011C119.835 20.5095 119.364 20.3636 118.795 20.3636C118.25 20.3636 117.792 20.5019 117.42 20.7784C117.049 21.0511 116.769 21.4337 116.58 21.9261C116.39 22.4148 116.295 22.9848 116.295 23.6364ZM128.273 28.1818C127.485 28.1818 126.794 27.9943 126.199 27.6193C125.608 27.2443 125.146 26.7197 124.812 26.0455C124.483 25.3712 124.318 24.5833 124.318 23.6818C124.318 22.7727 124.483 21.9792 124.812 21.3011C125.146 20.6231 125.608 20.0966 126.199 19.7216C126.794 19.3466 127.485 19.1591 128.273 19.1591C129.061 19.1591 129.75 19.3466 130.341 19.7216C130.936 20.0966 131.398 20.6231 131.727 21.3011C132.061 21.9792 132.227 22.7727 132.227 23.6818C132.227 24.5833 132.061 25.3712 131.727 26.0455C131.398 26.7197 130.936 27.2443 130.341 27.6193C129.75 27.9943 129.061 28.1818 128.273 28.1818ZM128.273 26.9773C128.871 26.9773 129.364 26.8239 129.75 26.517C130.136 26.2102 130.422 25.8068 130.608 25.3068C130.794 24.8068 130.886 24.2652 130.886 23.6818C130.886 23.0985 130.794 22.5549 130.608 22.0511C130.422 21.5473 130.136 21.1402 129.75 20.8295C129.364 20.5189 128.871 20.3636 128.273 20.3636C127.674 20.3636 127.182 20.5189 126.795 20.8295C126.409 21.1402 126.123 21.5473 125.938 22.0511C125.752 22.5549 125.659 23.0985 125.659 23.6818C125.659 24.2652 125.752 24.8068 125.938 25.3068C126.123 25.8068 126.409 26.2102 126.795 26.517C127.182 26.8239 127.674 26.9773 128.273 26.9773ZM138.07 19.2727V20.4091H133.547V19.2727H138.07ZM134.865 17.1818H136.206V25.5C136.206 25.8788 136.261 26.1629 136.371 26.3523C136.484 26.5379 136.628 26.6629 136.803 26.7273C136.981 26.7879 137.168 26.8182 137.365 26.8182C137.513 26.8182 137.634 26.8106 137.729 26.7955C137.823 26.7765 137.899 26.7614 137.956 26.75L138.229 27.9545C138.138 27.9886 138.011 28.0227 137.848 28.0568C137.685 28.0947 137.479 28.1136 137.229 28.1136C136.85 28.1136 136.479 28.0322 136.115 27.8693C135.755 27.7064 135.456 27.4583 135.217 27.125C134.982 26.7917 134.865 26.3712 134.865 25.8636V17.1818ZM143.652 28.1818C142.811 28.1818 142.086 27.9962 141.476 27.625C140.87 27.25 140.402 26.7273 140.072 26.0568C139.747 25.3826 139.584 24.5985 139.584 23.7045C139.584 22.8106 139.747 22.0227 140.072 21.3409C140.402 20.6553 140.86 20.1212 141.447 19.7386C142.038 19.3523 142.728 19.1591 143.516 19.1591C143.97 19.1591 144.419 19.2348 144.862 19.3864C145.305 19.5379 145.709 19.7841 146.072 20.125C146.436 20.4621 146.726 20.9091 146.942 21.4659C147.158 22.0227 147.266 22.7083 147.266 23.5227V24.0909H140.538V22.9318H145.902C145.902 22.4394 145.804 22 145.607 21.6136C145.413 21.2273 145.137 20.9223 144.777 20.6989C144.421 20.4754 144 20.3636 143.516 20.3636C142.982 20.3636 142.519 20.4962 142.129 20.7614C141.743 21.0227 141.446 21.3636 141.237 21.7841C141.029 22.2045 140.925 22.6553 140.925 23.1364V23.9091C140.925 24.5682 141.038 25.1269 141.266 25.5852C141.497 26.0398 141.817 26.3864 142.226 26.625C142.635 26.8598 143.11 26.9773 143.652 26.9773C144.004 26.9773 144.322 26.928 144.607 26.8295C144.894 26.7273 145.143 26.5758 145.351 26.375C145.559 26.1705 145.72 25.9167 145.834 25.6136L147.129 25.9773C146.993 26.4167 146.764 26.803 146.442 27.1364C146.12 27.4659 145.722 27.7235 145.249 27.9091C144.775 28.0909 144.243 28.1818 143.652 28.1818ZM150.646 22.75V28H149.305V19.2727H150.601V20.6364H150.714C150.919 20.1932 151.23 19.8371 151.646 19.5682C152.063 19.2955 152.601 19.1591 153.26 19.1591C153.851 19.1591 154.368 19.2803 154.811 19.5227C155.254 19.7614 155.599 20.125 155.845 20.6136C156.091 21.0985 156.214 21.7121 156.214 22.4545V28H154.874V22.5455C154.874 21.8598 154.696 21.3258 154.339 20.9432C153.983 20.5568 153.495 20.3636 152.874 20.3636C152.446 20.3636 152.063 20.4564 151.726 20.642C151.393 20.8277 151.129 21.0985 150.936 21.4545C150.743 21.8106 150.646 22.2424 150.646 22.75ZM162.46 19.2727V20.4091H157.938V19.2727H162.46ZM159.256 17.1818H160.597V25.5C160.597 25.8788 160.652 26.1629 160.761 26.3523C160.875 26.5379 161.019 26.6629 161.193 26.7273C161.371 26.7879 161.559 26.8182 161.756 26.8182C161.903 26.8182 162.025 26.8106 162.119 26.7955C162.214 26.7765 162.29 26.7614 162.347 26.75L162.619 27.9545C162.528 27.9886 162.402 28.0227 162.239 28.0568C162.076 28.0947 161.869 28.1136 161.619 28.1136C161.241 28.1136 160.869 28.0322 160.506 27.8693C160.146 27.7064 159.847 27.4583 159.608 27.125C159.373 26.7917 159.256 26.3712 159.256 25.8636V17.1818ZM164.477 28V19.2727H165.818V28H164.477ZM165.159 17.8182C164.898 17.8182 164.672 17.7292 164.483 17.5511C164.297 17.3731 164.205 17.1591 164.205 16.9091C164.205 16.6591 164.297 16.4451 164.483 16.267C164.672 16.089 164.898 16 165.159 16C165.42 16 165.644 16.089 165.83 16.267C166.019 16.4451 166.114 16.6591 166.114 16.9091C166.114 17.1591 166.019 17.3731 165.83 17.5511C165.644 17.7292 165.42 17.8182 165.159 17.8182ZM170.842 28.2045C170.289 28.2045 169.787 28.1004 169.337 27.892C168.886 27.6799 168.528 27.375 168.263 26.9773C167.998 26.5758 167.865 26.0909 167.865 25.5227C167.865 25.0227 167.964 24.6174 168.161 24.3068C168.357 23.9924 168.621 23.7462 168.95 23.5682C169.28 23.3902 169.643 23.2576 170.041 23.1705C170.443 23.0795 170.846 23.0076 171.251 22.9545C171.782 22.8864 172.212 22.8352 172.541 22.8011C172.875 22.7633 173.117 22.7008 173.268 22.6136C173.424 22.5265 173.501 22.375 173.501 22.1591V22.1136C173.501 21.553 173.348 21.1174 173.041 20.8068C172.738 20.4962 172.278 20.3409 171.661 20.3409C171.02 20.3409 170.518 20.4811 170.155 20.7614C169.791 21.0417 169.536 21.3409 169.388 21.6591L168.115 21.2045C168.342 20.6742 168.645 20.2614 169.024 19.9659C169.407 19.6667 169.823 19.4583 170.274 19.3409C170.729 19.2197 171.176 19.1591 171.615 19.1591C171.895 19.1591 172.217 19.1932 172.581 19.2614C172.948 19.3258 173.303 19.4602 173.643 19.6648C173.988 19.8693 174.274 20.178 174.501 20.5909C174.729 21.0038 174.842 21.5568 174.842 22.25V28H173.501V26.8182H173.433C173.342 27.0076 173.191 27.2102 172.979 27.4261C172.767 27.642 172.484 27.8258 172.132 27.9773C171.78 28.1288 171.35 28.2045 170.842 28.2045ZM171.047 27C171.577 27 172.024 26.8958 172.388 26.6875C172.755 26.4792 173.032 26.2102 173.217 25.8807C173.407 25.5511 173.501 25.2045 173.501 24.8409V23.6136C173.445 23.6818 173.32 23.7443 173.126 23.8011C172.937 23.8542 172.717 23.9015 172.467 23.9432C172.221 23.9811 171.981 24.0152 171.746 24.0455C171.515 24.072 171.327 24.0947 171.183 24.1136C170.835 24.1591 170.509 24.233 170.206 24.3352C169.907 24.4337 169.664 24.5833 169.479 24.7841C169.297 24.9811 169.206 25.25 169.206 25.5909C169.206 26.0568 169.378 26.4091 169.723 26.6477C170.071 26.8826 170.513 27 171.047 27ZM178.631 16.3636V28H177.29V16.3636H178.631ZM185.587 28V19.2727H186.928V28H185.587ZM186.268 17.8182C186.007 17.8182 185.782 17.7292 185.592 17.5511C185.407 17.3731 185.314 17.1591 185.314 16.9091C185.314 16.6591 185.407 16.4451 185.592 16.267C185.782 16.089 186.007 16 186.268 16C186.53 16 186.753 16.089 186.939 16.267C187.128 16.4451 187.223 16.6591 187.223 16.9091C187.223 17.1591 187.128 17.3731 186.939 17.5511C186.753 17.7292 186.53 17.8182 186.268 17.8182ZM189.384 28V19.2727H190.679V20.6364H190.793C190.974 20.1705 191.268 19.8087 191.673 19.5511C192.079 19.2898 192.565 19.1591 193.134 19.1591C193.709 19.1591 194.188 19.2898 194.571 19.5511C194.957 19.8087 195.259 20.1705 195.474 20.6364H195.565C195.789 20.1856 196.124 19.8277 196.571 19.5625C197.018 19.2936 197.554 19.1591 198.179 19.1591C198.959 19.1591 199.598 19.4034 200.094 19.892C200.59 20.3769 200.838 21.1326 200.838 22.1591V28H199.497V22.1591C199.497 21.5152 199.321 21.0549 198.969 20.7784C198.616 20.5019 198.202 20.3636 197.724 20.3636C197.111 20.3636 196.635 20.5492 196.298 20.9205C195.961 21.2879 195.793 21.7538 195.793 22.3182V28H194.429V22.0227C194.429 21.5265 194.268 21.1269 193.946 20.8239C193.624 20.517 193.209 20.3636 192.702 20.3636C192.353 20.3636 192.027 20.4564 191.724 20.642C191.425 20.8277 191.183 21.0852 190.997 21.4148C190.815 21.7405 190.724 22.1174 190.724 22.5455V28H189.384ZM203.29 31.2727V19.2727H204.585V20.6591H204.744C204.843 20.5076 204.979 20.3144 205.153 20.0795C205.331 19.8409 205.585 19.6288 205.915 19.4432C206.248 19.2538 206.699 19.1591 207.267 19.1591C208.002 19.1591 208.65 19.3428 209.21 19.7102C209.771 20.0777 210.208 20.5985 210.523 21.2727C210.837 21.947 210.994 22.7424 210.994 23.6591C210.994 24.5833 210.837 25.3845 210.523 26.0625C210.208 26.7367 209.773 27.2595 209.216 27.6307C208.659 27.9981 208.017 28.1818 207.29 28.1818C206.729 28.1818 206.28 28.089 205.943 27.9034C205.606 27.714 205.347 27.5 205.165 27.2614C204.983 27.0189 204.843 26.8182 204.744 26.6591H204.631V31.2727H203.29ZM204.608 23.6364C204.608 24.2955 204.705 24.8769 204.898 25.3807C205.091 25.8807 205.373 26.2727 205.744 26.5568C206.116 26.8371 206.57 26.9773 207.108 26.9773C207.669 26.9773 208.136 26.8295 208.511 26.5341C208.89 26.2348 209.174 25.8333 209.364 25.3295C209.557 24.822 209.653 24.2576 209.653 23.6364C209.653 23.0227 209.559 22.4697 209.369 21.9773C209.184 21.4811 208.902 21.089 208.523 20.8011C208.148 20.5095 207.676 20.3636 207.108 20.3636C206.563 20.3636 206.104 20.5019 205.733 20.7784C205.362 21.0511 205.081 21.4337 204.892 21.9261C204.703 22.4148 204.608 22.9848 204.608 23.6364ZM214.381 16.3636V28H213.04V16.3636H214.381ZM216.837 28V19.2727H218.178V28H216.837ZM217.518 17.8182C217.257 17.8182 217.032 17.7292 216.842 17.5511C216.657 17.3731 216.564 17.1591 216.564 16.9091C216.564 16.6591 216.657 16.4451 216.842 16.267C217.032 16.089 217.257 16 217.518 16C217.78 16 218.003 16.089 218.189 16.267C218.378 16.4451 218.473 16.6591 218.473 16.9091C218.473 17.1591 218.378 17.3731 218.189 17.5511C218.003 17.7292 217.78 17.8182 217.518 17.8182ZM224.179 28.1818C223.361 28.1818 222.656 27.9886 222.065 27.6023C221.474 27.2159 221.02 26.6837 220.702 26.0057C220.384 25.3277 220.224 24.553 220.224 23.6818C220.224 22.7955 220.387 22.0133 220.713 21.3352C221.043 20.6534 221.501 20.1212 222.088 19.7386C222.679 19.3523 223.368 19.1591 224.156 19.1591C224.77 19.1591 225.323 19.2727 225.815 19.5C226.308 19.7273 226.711 20.0455 227.026 20.4545C227.34 20.8636 227.535 21.3409 227.611 21.8864H226.27C226.168 21.4886 225.94 21.1364 225.588 20.8295C225.24 20.5189 224.77 20.3636 224.179 20.3636C223.656 20.3636 223.198 20.5 222.804 20.7727C222.414 21.0417 222.109 21.4223 221.889 21.9148C221.673 22.4034 221.565 22.9773 221.565 23.6364C221.565 24.3106 221.671 24.8977 221.884 25.3977C222.099 25.8977 222.402 26.286 222.793 26.5625C223.187 26.839 223.649 26.9773 224.179 26.9773C224.527 26.9773 224.844 26.9167 225.128 26.7955C225.412 26.6742 225.652 26.5 225.849 26.2727C226.046 26.0455 226.187 25.7727 226.27 25.4545H227.611C227.535 25.9697 227.348 26.4337 227.048 26.8466C226.753 27.2557 226.361 27.5814 225.872 27.8239C225.387 28.0625 224.823 28.1818 224.179 28.1818ZM232.139 28.2045C231.586 28.2045 231.084 28.1004 230.634 27.892C230.183 27.6799 229.825 27.375 229.56 26.9773C229.295 26.5758 229.162 26.0909 229.162 25.5227C229.162 25.0227 229.26 24.6174 229.457 24.3068C229.654 23.9924 229.918 23.7462 230.247 23.5682C230.577 23.3902 230.94 23.2576 231.338 23.1705C231.74 23.0795 232.143 23.0076 232.548 22.9545C233.079 22.8864 233.509 22.8352 233.838 22.8011C234.171 22.7633 234.414 22.7008 234.565 22.6136C234.721 22.5265 234.798 22.375 234.798 22.1591V22.1136C234.798 21.553 234.645 21.1174 234.338 20.8068C234.035 20.4962 233.575 20.3409 232.957 20.3409C232.317 20.3409 231.815 20.4811 231.452 20.7614C231.088 21.0417 230.832 21.3409 230.685 21.6591L229.412 21.2045C229.639 20.6742 229.942 20.2614 230.321 19.9659C230.704 19.6667 231.12 19.4583 231.571 19.3409C232.026 19.2197 232.473 19.1591 232.912 19.1591C233.192 19.1591 233.514 19.1932 233.878 19.2614C234.245 19.3258 234.599 19.4602 234.94 19.6648C235.285 19.8693 235.571 20.178 235.798 20.5909C236.026 21.0038 236.139 21.5568 236.139 22.25V28H234.798V26.8182H234.73C234.639 27.0076 234.488 27.2102 234.276 27.4261C234.063 27.642 233.781 27.8258 233.429 27.9773C233.077 28.1288 232.647 28.2045 232.139 28.2045ZM232.344 27C232.874 27 233.321 26.8958 233.685 26.6875C234.052 26.4792 234.329 26.2102 234.514 25.8807C234.704 25.5511 234.798 25.2045 234.798 24.8409V23.6136C234.741 23.6818 234.616 23.7443 234.423 23.8011C234.234 23.8542 234.014 23.9015 233.764 23.9432C233.518 23.9811 233.277 24.0152 233.043 24.0455C232.812 24.072 232.624 24.0947 232.48 24.1136C232.132 24.1591 231.806 24.233 231.503 24.3352C231.204 24.4337 230.961 24.5833 230.776 24.7841C230.594 24.9811 230.503 25.25 230.503 25.5909C230.503 26.0568 230.675 26.4091 231.02 26.6477C231.368 26.8826 231.81 27 232.344 27ZM242.382 19.2727V20.4091H237.859V19.2727H242.382ZM239.178 17.1818H240.518V25.5C240.518 25.8788 240.573 26.1629 240.683 26.3523C240.797 26.5379 240.941 26.6629 241.115 26.7273C241.293 26.7879 241.481 26.8182 241.678 26.8182C241.825 26.8182 241.946 26.8106 242.041 26.7955C242.136 26.7765 242.212 26.7614 242.268 26.75L242.541 27.9545C242.45 27.9886 242.323 28.0227 242.161 28.0568C241.998 28.0947 241.791 28.1136 241.541 28.1136C241.162 28.1136 240.791 28.0322 240.428 27.8693C240.068 27.7064 239.768 27.4583 239.53 27.125C239.295 26.7917 239.178 26.3712 239.178 25.8636V17.1818ZM244.399 28V19.2727H245.74V28H244.399ZM245.081 17.8182C244.82 17.8182 244.594 17.7292 244.405 17.5511C244.219 17.3731 244.126 17.1591 244.126 16.9091C244.126 16.6591 244.219 16.4451 244.405 16.267C244.594 16.089 244.82 16 245.081 16C245.342 16 245.566 16.089 245.751 16.267C245.941 16.4451 246.036 16.6591 246.036 16.9091C246.036 17.1591 245.941 17.3731 245.751 17.5511C245.566 17.7292 245.342 17.8182 245.081 17.8182ZM251.741 28.1818C250.954 28.1818 250.262 27.9943 249.668 27.6193C249.077 27.2443 248.615 26.7197 248.281 26.0455C247.952 25.3712 247.787 24.5833 247.787 23.6818C247.787 22.7727 247.952 21.9792 248.281 21.3011C248.615 20.6231 249.077 20.0966 249.668 19.7216C250.262 19.3466 250.954 19.1591 251.741 19.1591C252.529 19.1591 253.219 19.3466 253.81 19.7216C254.404 20.0966 254.866 20.6231 255.196 21.3011C255.529 21.9792 255.696 22.7727 255.696 23.6818C255.696 24.5833 255.529 25.3712 255.196 26.0455C254.866 26.7197 254.404 27.2443 253.81 27.6193C253.219 27.9943 252.529 28.1818 251.741 28.1818ZM251.741 26.9773C252.34 26.9773 252.832 26.8239 253.219 26.517C253.605 26.2102 253.891 25.8068 254.077 25.3068C254.262 24.8068 254.355 24.2652 254.355 23.6818C254.355 23.0985 254.262 22.5549 254.077 22.0511C253.891 21.5473 253.605 21.1402 253.219 20.8295C252.832 20.5189 252.34 20.3636 251.741 20.3636C251.143 20.3636 250.651 20.5189 250.264 20.8295C249.878 21.1402 249.592 21.5473 249.406 22.0511C249.221 22.5549 249.128 23.0985 249.128 23.6818C249.128 24.2652 249.221 24.8068 249.406 25.3068C249.592 25.8068 249.878 26.2102 250.264 26.517C250.651 26.8239 251.143 26.9773 251.741 26.9773ZM259.084 22.75V28H257.743V19.2727H259.038V20.6364H259.152C259.357 20.1932 259.667 19.8371 260.084 19.5682C260.5 19.2955 261.038 19.1591 261.697 19.1591C262.288 19.1591 262.805 19.2803 263.249 19.5227C263.692 19.7614 264.036 20.125 264.283 20.6136C264.529 21.0985 264.652 21.7121 264.652 22.4545V28H263.311V22.5455C263.311 21.8598 263.133 21.3258 262.777 20.9432C262.421 20.5568 261.932 20.3636 261.311 20.3636C260.883 20.3636 260.5 20.4564 260.163 20.642C259.83 20.8277 259.567 21.0985 259.374 21.4545C259.18 21.8106 259.084 22.2424 259.084 22.75ZM273.284 21.2273L272.08 21.5682C272.004 21.3674 271.892 21.1723 271.744 20.983C271.6 20.7898 271.403 20.6307 271.153 20.5057C270.903 20.3807 270.583 20.3182 270.193 20.3182C269.659 20.3182 269.214 20.4413 268.858 20.6875C268.506 20.9299 268.33 21.2386 268.33 21.6136C268.33 21.947 268.451 22.2102 268.693 22.4034C268.936 22.5966 269.314 22.7576 269.83 22.8864L271.125 23.2045C271.905 23.3939 272.487 23.6837 272.869 24.0739C273.252 24.4602 273.443 24.9583 273.443 25.5682C273.443 26.0682 273.299 26.5152 273.011 26.9091C272.727 27.303 272.33 27.6136 271.818 27.8409C271.307 28.0682 270.712 28.1818 270.034 28.1818C269.144 28.1818 268.407 27.9886 267.824 27.6023C267.241 27.2159 266.871 26.6515 266.716 25.9091L267.989 25.5909C268.11 26.0606 268.339 26.4129 268.676 26.6477C269.017 26.8826 269.462 27 270.011 27C270.636 27 271.133 26.8674 271.5 26.6023C271.871 26.3333 272.057 26.0114 272.057 25.6364C272.057 25.3333 271.951 25.0795 271.739 24.875C271.527 24.6667 271.201 24.5114 270.761 24.4091L269.307 24.0682C268.508 23.8788 267.92 23.5852 267.545 23.1875C267.174 22.786 266.989 22.2841 266.989 21.6818C266.989 21.1894 267.127 20.7538 267.403 20.375C267.684 19.9962 268.064 19.6989 268.545 19.483C269.03 19.267 269.58 19.1591 270.193 19.1591C271.057 19.1591 271.735 19.3485 272.227 19.7273C272.723 20.1061 273.076 20.6061 273.284 21.2273ZM283.507 28.1818C282.719 28.1818 282.028 27.9943 281.433 27.6193C280.842 27.2443 280.38 26.7197 280.047 26.0455C279.717 25.3712 279.553 24.5833 279.553 23.6818C279.553 22.7727 279.717 21.9792 280.047 21.3011C280.38 20.6231 280.842 20.0966 281.433 19.7216C282.028 19.3466 282.719 19.1591 283.507 19.1591C284.295 19.1591 284.984 19.3466 285.575 19.7216C286.17 20.0966 286.632 20.6231 286.962 21.3011C287.295 21.9792 287.462 22.7727 287.462 23.6818C287.462 24.5833 287.295 25.3712 286.962 26.0455C286.632 26.7197 286.17 27.2443 285.575 27.6193C284.984 27.9943 284.295 28.1818 283.507 28.1818ZM283.507 26.9773C284.106 26.9773 284.598 26.8239 284.984 26.517C285.371 26.2102 285.657 25.8068 285.842 25.3068C286.028 24.8068 286.121 24.2652 286.121 23.6818C286.121 23.0985 286.028 22.5549 285.842 22.0511C285.657 21.5473 285.371 21.1402 284.984 20.8295C284.598 20.5189 284.106 20.3636 283.507 20.3636C282.909 20.3636 282.416 20.5189 282.03 20.8295C281.643 21.1402 281.357 21.5473 281.172 22.0511C280.986 22.5549 280.893 23.0985 280.893 23.6818C280.893 24.2652 280.986 24.8068 281.172 25.3068C281.357 25.8068 281.643 26.2102 282.03 26.517C282.416 26.8239 282.909 26.9773 283.507 26.9773ZM293.395 19.2727V20.4091H288.69V19.2727H293.395ZM290.099 28V18.0682C290.099 17.5682 290.217 17.1515 290.452 16.8182C290.687 16.4848 290.991 16.2348 291.366 16.0682C291.741 15.9015 292.137 15.8182 292.554 15.8182C292.884 15.8182 293.152 15.8447 293.361 15.8977C293.569 15.9508 293.724 16 293.827 16.0455L293.44 17.2045C293.372 17.1818 293.277 17.1534 293.156 17.1193C293.039 17.0852 292.884 17.0682 292.69 17.0682C292.247 17.0682 291.927 17.1799 291.73 17.4034C291.537 17.6269 291.44 17.9545 291.44 18.3864V28H290.099ZM299.774 28V19.2727H301.07V20.6364H301.183C301.365 20.1705 301.659 19.8087 302.064 19.5511C302.469 19.2898 302.956 19.1591 303.524 19.1591C304.1 19.1591 304.579 19.2898 304.962 19.5511C305.348 19.8087 305.649 20.1705 305.865 20.6364H305.956C306.179 20.1856 306.515 19.8277 306.962 19.5625C307.409 19.2936 307.945 19.1591 308.57 19.1591C309.35 19.1591 309.988 19.4034 310.484 19.892C310.981 20.3769 311.229 21.1326 311.229 22.1591V28H309.888V22.1591C309.888 21.5152 309.712 21.0549 309.359 20.7784C309.007 20.5019 308.592 20.3636 308.115 20.3636C307.501 20.3636 307.026 20.5492 306.689 20.9205C306.352 21.2879 306.183 21.7538 306.183 22.3182V28H304.82V22.0227C304.82 21.5265 304.659 21.1269 304.337 20.8239C304.015 20.517 303.6 20.3636 303.092 20.3636C302.744 20.3636 302.418 20.4564 302.115 20.642C301.816 20.8277 301.573 21.0852 301.388 21.4148C301.206 21.7405 301.115 22.1174 301.115 22.5455V28H299.774ZM314.232 31.2727C314.004 31.2727 313.802 31.2538 313.624 31.2159C313.446 31.1818 313.322 31.1477 313.254 31.1136L313.595 29.9318C313.921 30.0152 314.209 30.0455 314.459 30.0227C314.709 30 314.93 29.8883 315.124 29.6875C315.321 29.4905 315.5 29.1705 315.663 28.7273L315.913 28.0455L312.686 19.2727H314.141L316.55 26.2273H316.641L319.05 19.2727H320.504L316.8 29.2727C316.633 29.7235 316.427 30.0966 316.18 30.392C315.934 30.6913 315.648 30.9129 315.322 31.0568C315 31.2008 314.637 31.2727 314.232 31.2727ZM330.32 28.1818C329.501 28.1818 328.797 27.9886 328.206 27.6023C327.615 27.2159 327.161 26.6837 326.842 26.0057C326.524 25.3277 326.365 24.553 326.365 23.6818C326.365 22.7955 326.528 22.0133 326.854 21.3352C327.183 20.6534 327.642 20.1212 328.229 19.7386C328.82 19.3523 329.509 19.1591 330.297 19.1591C330.911 19.1591 331.464 19.2727 331.956 19.5C332.448 19.7273 332.852 20.0455 333.166 20.4545C333.481 20.8636 333.676 21.3409 333.751 21.8864H332.411C332.308 21.4886 332.081 21.1364 331.729 20.8295C331.38 20.5189 330.911 20.3636 330.32 20.3636C329.797 20.3636 329.339 20.5 328.945 20.7727C328.554 21.0417 328.25 21.4223 328.03 21.9148C327.814 22.4034 327.706 22.9773 327.706 23.6364C327.706 24.3106 327.812 24.8977 328.024 25.3977C328.24 25.8977 328.543 26.286 328.933 26.5625C329.327 26.839 329.789 26.9773 330.32 26.9773C330.668 26.9773 330.984 26.9167 331.268 26.7955C331.553 26.6742 331.793 26.5 331.99 26.2727C332.187 26.0455 332.327 25.7727 332.411 25.4545H333.751C333.676 25.9697 333.488 26.4337 333.189 26.8466C332.893 27.2557 332.501 27.5814 332.013 27.8239C331.528 28.0625 330.964 28.1818 330.32 28.1818ZM337.053 16.3636V28H335.712V16.3636H337.053ZM339.509 28V19.2727H340.849V28H339.509ZM340.19 17.8182C339.929 17.8182 339.704 17.7292 339.514 17.5511C339.329 17.3731 339.236 17.1591 339.236 16.9091C339.236 16.6591 339.329 16.4451 339.514 16.267C339.704 16.089 339.929 16 340.19 16C340.452 16 340.675 16.089 340.861 16.267C341.05 16.4451 341.145 16.6591 341.145 16.9091C341.145 17.1591 341.05 17.3731 340.861 17.5511C340.675 17.7292 340.452 17.8182 340.19 17.8182ZM346.964 28.1818C346.124 28.1818 345.398 27.9962 344.788 27.625C344.182 27.25 343.714 26.7273 343.385 26.0568C343.059 25.3826 342.896 24.5985 342.896 23.7045C342.896 22.8106 343.059 22.0227 343.385 21.3409C343.714 20.6553 344.173 20.1212 344.76 19.7386C345.351 19.3523 346.04 19.1591 346.828 19.1591C347.283 19.1591 347.732 19.2348 348.175 19.3864C348.618 19.5379 349.021 19.7841 349.385 20.125C349.749 20.4621 350.038 20.9091 350.254 21.4659C350.47 22.0227 350.578 22.7083 350.578 23.5227V24.0909H343.851V22.9318H349.214C349.214 22.4394 349.116 22 348.919 21.6136C348.726 21.2273 348.449 20.9223 348.089 20.6989C347.733 20.4754 347.313 20.3636 346.828 20.3636C346.294 20.3636 345.832 20.4962 345.442 20.7614C345.055 21.0227 344.758 21.3636 344.55 21.7841C344.341 22.2045 344.237 22.6553 344.237 23.1364V23.9091C344.237 24.5682 344.351 25.1269 344.578 25.5852C344.809 26.0398 345.129 26.3864 345.538 26.625C345.947 26.8598 346.423 26.9773 346.964 26.9773C347.317 26.9773 347.635 26.928 347.919 26.8295C348.207 26.7273 348.455 26.5758 348.663 26.375C348.872 26.1705 349.033 25.9167 349.146 25.6136L350.442 25.9773C350.305 26.4167 350.076 26.803 349.754 27.1364C349.432 27.4659 349.035 27.7235 348.561 27.9091C348.088 28.0909 347.555 28.1818 346.964 28.1818ZM353.959 22.75V28H352.618V19.2727H353.913V20.6364H354.027C354.232 20.1932 354.542 19.8371 354.959 19.5682C355.375 19.2955 355.913 19.1591 356.572 19.1591C357.163 19.1591 357.68 19.2803 358.124 19.5227C358.567 19.7614 358.911 20.125 359.158 20.6136C359.404 21.0985 359.527 21.7121 359.527 22.4545V28H358.186V22.5455C358.186 21.8598 358.008 21.3258 357.652 20.9432C357.296 20.5568 356.807 20.3636 356.186 20.3636C355.758 20.3636 355.375 20.4564 355.038 20.642C354.705 20.8277 354.442 21.0985 354.249 21.4545C354.055 21.8106 353.959 22.2424 353.959 22.75ZM365.773 19.2727V20.4091H361.25V19.2727H365.773ZM362.568 17.1818H363.909V25.5C363.909 25.8788 363.964 26.1629 364.074 26.3523C364.188 26.5379 364.331 26.6629 364.506 26.7273C364.684 26.7879 364.871 26.8182 365.068 26.8182C365.216 26.8182 365.337 26.8106 365.432 26.7955C365.527 26.7765 365.602 26.7614 365.659 26.75L365.932 27.9545C365.841 27.9886 365.714 28.0227 365.551 28.0568C365.388 28.0947 365.182 28.1136 364.932 28.1136C364.553 28.1136 364.182 28.0322 363.818 27.8693C363.458 27.7064 363.159 27.4583 362.92 27.125C362.686 26.7917 362.568 26.3712 362.568 25.8636V17.1818ZM369.425 16.3636V17.3864C369.425 17.697 369.368 18.0284 369.254 18.3807C369.144 18.7292 368.982 19.0682 368.766 19.3977C368.554 19.7235 368.296 20.0076 367.993 20.25L367.266 19.6591C367.504 19.3182 367.711 18.964 367.885 18.5966C368.063 18.2254 368.152 17.8295 368.152 17.4091V16.3636H369.425ZM376.143 21.2273L374.939 21.5682C374.863 21.3674 374.751 21.1723 374.604 20.983C374.46 20.7898 374.263 20.6307 374.013 20.5057C373.763 20.3807 373.443 20.3182 373.053 20.3182C372.518 20.3182 372.073 20.4413 371.717 20.6875C371.365 20.9299 371.189 21.2386 371.189 21.6136C371.189 21.947 371.31 22.2102 371.553 22.4034C371.795 22.5966 372.174 22.7576 372.689 22.8864L373.984 23.2045C374.765 23.3939 375.346 23.6837 375.729 24.0739C376.111 24.4602 376.303 24.9583 376.303 25.5682C376.303 26.0682 376.159 26.5152 375.871 26.9091C375.587 27.303 375.189 27.6136 374.678 27.8409C374.166 28.0682 373.571 28.1818 372.893 28.1818C372.003 28.1818 371.267 27.9886 370.683 27.6023C370.1 27.2159 369.731 26.6515 369.575 25.9091L370.848 25.5909C370.969 26.0606 371.198 26.4129 371.536 26.6477C371.876 26.8826 372.321 27 372.871 27C373.496 27 373.992 26.8674 374.359 26.6023C374.731 26.3333 374.916 26.0114 374.916 25.6364C374.916 25.3333 374.81 25.0795 374.598 24.875C374.386 24.6667 374.06 24.5114 373.621 24.4091L372.166 24.0682C371.367 23.8788 370.78 23.5852 370.405 23.1875C370.034 22.786 369.848 22.2841 369.848 21.6818C369.848 21.1894 369.986 20.7538 370.263 20.375C370.543 19.9962 370.924 19.6989 371.405 19.483C371.89 19.267 372.439 19.1591 373.053 19.1591C373.916 19.1591 374.594 19.3485 375.087 19.7273C375.583 20.1061 375.935 20.6061 376.143 21.2273ZM386.116 28.1818C385.389 28.1818 384.747 27.9981 384.19 27.6307C383.634 27.2595 383.198 26.7367 382.884 26.0625C382.569 25.3845 382.412 24.5833 382.412 23.6591C382.412 22.7424 382.569 21.947 382.884 21.2727C383.198 20.5985 383.635 20.0777 384.196 19.7102C384.757 19.3428 385.404 19.1591 386.139 19.1591C386.707 19.1591 387.156 19.2538 387.486 19.4432C387.819 19.6288 388.073 19.8409 388.247 20.0795C388.425 20.3144 388.563 20.5076 388.662 20.6591H388.776V16.3636H390.116V28H388.821V26.6591H388.662C388.563 26.8182 388.423 27.0189 388.241 27.2614C388.06 27.5 387.8 27.714 387.463 27.9034C387.126 28.089 386.677 28.1818 386.116 28.1818ZM386.298 26.9773C386.836 26.9773 387.291 26.8371 387.662 26.5568C388.033 26.2727 388.315 25.8807 388.509 25.3807C388.702 24.8769 388.798 24.2955 388.798 23.6364C388.798 22.9848 388.704 22.4148 388.514 21.9261C388.325 21.4337 388.045 21.0511 387.673 20.7784C387.302 20.5019 386.844 20.3636 386.298 20.3636C385.73 20.3636 385.257 20.5095 384.878 20.8011C384.503 21.089 384.221 21.4811 384.031 21.9773C383.846 22.4697 383.753 23.0227 383.753 23.6364C383.753 24.2576 383.848 24.822 384.037 25.3295C384.23 25.8333 384.514 26.2348 384.889 26.5341C385.268 26.8295 385.738 26.9773 386.298 26.9773ZM395.327 28.2045C394.774 28.2045 394.272 28.1004 393.821 27.892C393.37 27.6799 393.012 27.375 392.747 26.9773C392.482 26.5758 392.349 26.0909 392.349 25.5227C392.349 25.0227 392.448 24.6174 392.645 24.3068C392.842 23.9924 393.105 23.7462 393.435 23.5682C393.764 23.3902 394.128 23.2576 394.526 23.1705C394.927 23.0795 395.33 23.0076 395.736 22.9545C396.266 22.8864 396.696 22.8352 397.026 22.8011C397.359 22.7633 397.601 22.7008 397.753 22.6136C397.908 22.5265 397.986 22.375 397.986 22.1591V22.1136C397.986 21.553 397.832 21.1174 397.526 20.8068C397.223 20.4962 396.762 20.3409 396.145 20.3409C395.505 20.3409 395.003 20.4811 394.639 20.7614C394.276 21.0417 394.02 21.3409 393.872 21.6591L392.599 21.2045C392.827 20.6742 393.13 20.2614 393.509 19.9659C393.891 19.6667 394.308 19.4583 394.759 19.3409C395.213 19.2197 395.66 19.1591 396.099 19.1591C396.38 19.1591 396.702 19.1932 397.065 19.2614C397.433 19.3258 397.787 19.4602 398.128 19.6648C398.473 19.8693 398.759 20.178 398.986 20.5909C399.213 21.0038 399.327 21.5568 399.327 22.25V28H397.986V26.8182H397.918C397.827 27.0076 397.675 27.2102 397.463 27.4261C397.251 27.642 396.969 27.8258 396.616 27.9773C396.264 28.1288 395.834 28.2045 395.327 28.2045ZM395.531 27C396.062 27 396.509 26.8958 396.872 26.6875C397.24 26.4792 397.516 26.2102 397.702 25.8807C397.891 25.5511 397.986 25.2045 397.986 24.8409V23.6136C397.929 23.6818 397.804 23.7443 397.611 23.8011C397.421 23.8542 397.202 23.9015 396.952 23.9432C396.705 23.9811 396.465 24.0152 396.23 24.0455C395.999 24.072 395.812 24.0947 395.668 24.1136C395.319 24.1591 394.993 24.233 394.69 24.3352C394.391 24.4337 394.149 24.5833 393.963 24.7841C393.781 24.9811 393.69 25.25 393.69 25.5909C393.69 26.0568 393.863 26.4091 394.207 26.6477C394.556 26.8826 394.997 27 395.531 27ZM405.57 19.2727V20.4091H401.047V19.2727H405.57ZM402.365 17.1818H403.706V25.5C403.706 25.8788 403.761 26.1629 403.871 26.3523C403.984 26.5379 404.128 26.6629 404.303 26.7273C404.481 26.7879 404.668 26.8182 404.865 26.8182C405.013 26.8182 405.134 26.8106 405.229 26.7955C405.323 26.7765 405.399 26.7614 405.456 26.75L405.729 27.9545C405.638 27.9886 405.511 28.0227 405.348 28.0568C405.185 28.0947 404.979 28.1136 404.729 28.1136C404.35 28.1136 403.979 28.0322 403.615 27.8693C403.255 27.7064 402.956 27.4583 402.717 27.125C402.482 26.7917 402.365 26.3712 402.365 25.8636V17.1818ZM410.155 28.2045C409.602 28.2045 409.1 28.1004 408.649 27.892C408.198 27.6799 407.84 27.375 407.575 26.9773C407.31 26.5758 407.178 26.0909 407.178 25.5227C407.178 25.0227 407.276 24.6174 407.473 24.3068C407.67 23.9924 407.933 23.7462 408.263 23.5682C408.592 23.3902 408.956 23.2576 409.354 23.1705C409.755 23.0795 410.159 23.0076 410.564 22.9545C411.094 22.8864 411.524 22.8352 411.854 22.8011C412.187 22.7633 412.429 22.7008 412.581 22.6136C412.736 22.5265 412.814 22.375 412.814 22.1591V22.1136C412.814 21.553 412.661 21.1174 412.354 20.8068C412.051 20.4962 411.59 20.3409 410.973 20.3409C410.333 20.3409 409.831 20.4811 409.467 20.7614C409.104 21.0417 408.848 21.3409 408.7 21.6591L407.428 21.2045C407.655 20.6742 407.958 20.2614 408.337 19.9659C408.719 19.6667 409.136 19.4583 409.587 19.3409C410.041 19.2197 410.488 19.1591 410.928 19.1591C411.208 19.1591 411.53 19.1932 411.893 19.2614C412.261 19.3258 412.615 19.4602 412.956 19.6648C413.301 19.8693 413.587 20.178 413.814 20.5909C414.041 21.0038 414.155 21.5568 414.155 22.25V28H412.814V26.8182H412.746C412.655 27.0076 412.503 27.2102 412.291 27.4261C412.079 27.642 411.797 27.8258 411.445 27.9773C411.092 28.1288 410.662 28.2045 410.155 28.2045ZM410.359 27C410.89 27 411.337 26.8958 411.7 26.6875C412.068 26.4792 412.344 26.2102 412.53 25.8807C412.719 25.5511 412.814 25.2045 412.814 24.8409V23.6136C412.757 23.6818 412.632 23.7443 412.439 23.8011C412.25 23.8542 412.03 23.9015 411.78 23.9432C411.534 23.9811 411.293 24.0152 411.058 24.0455C410.827 24.072 410.64 24.0947 410.496 24.1136C410.147 24.1591 409.821 24.233 409.518 24.3352C409.219 24.4337 408.977 24.5833 408.791 24.7841C408.609 24.9811 408.518 25.25 408.518 25.5909C408.518 26.0568 408.691 26.4091 409.036 26.6477C409.384 26.8826 409.825 27 410.359 27ZM422.443 22.75V28H421.102V16.3636H422.443V20.6364H422.557C422.761 20.1856 423.068 19.8277 423.477 19.5625C423.89 19.2936 424.439 19.1591 425.125 19.1591C425.72 19.1591 426.241 19.2784 426.688 19.517C427.134 19.7519 427.481 20.1136 427.727 20.6023C427.977 21.0871 428.102 21.7045 428.102 22.4545V28H426.761V22.5455C426.761 21.8523 426.581 21.3163 426.222 20.9375C425.866 20.5549 425.371 20.3636 424.739 20.3636C424.299 20.3636 423.905 20.4564 423.557 20.642C423.212 20.8277 422.939 21.0985 422.739 21.4545C422.542 21.8106 422.443 22.2424 422.443 22.75ZM433.124 28.2045C432.571 28.2045 432.069 28.1004 431.618 27.892C431.167 27.6799 430.809 27.375 430.544 26.9773C430.279 26.5758 430.146 26.0909 430.146 25.5227C430.146 25.0227 430.245 24.6174 430.442 24.3068C430.639 23.9924 430.902 23.7462 431.232 23.5682C431.561 23.3902 431.925 23.2576 432.322 23.1705C432.724 23.0795 433.127 23.0076 433.533 22.9545C434.063 22.8864 434.493 22.8352 434.822 22.8011C435.156 22.7633 435.398 22.7008 435.55 22.6136C435.705 22.5265 435.783 22.375 435.783 22.1591V22.1136C435.783 21.553 435.629 21.1174 435.322 20.8068C435.019 20.4962 434.559 20.3409 433.942 20.3409C433.302 20.3409 432.8 20.4811 432.436 20.7614C432.072 21.0417 431.817 21.3409 431.669 21.6591L430.396 21.2045C430.624 20.6742 430.927 20.2614 431.305 19.9659C431.688 19.6667 432.105 19.4583 432.555 19.3409C433.01 19.2197 433.457 19.1591 433.896 19.1591C434.177 19.1591 434.499 19.1932 434.862 19.2614C435.23 19.3258 435.584 19.4602 435.925 19.6648C436.269 19.8693 436.555 20.178 436.783 20.5909C437.01 21.0038 437.124 21.5568 437.124 22.25V28H435.783V26.8182H435.714C435.624 27.0076 435.472 27.2102 435.26 27.4261C435.048 27.642 434.766 27.8258 434.413 27.9773C434.061 28.1288 433.631 28.2045 433.124 28.2045ZM433.328 27C433.858 27 434.305 26.8958 434.669 26.6875C435.036 26.4792 435.313 26.2102 435.499 25.8807C435.688 25.5511 435.783 25.2045 435.783 24.8409V23.6136C435.726 23.6818 435.601 23.7443 435.408 23.8011C435.218 23.8542 434.999 23.9015 434.749 23.9432C434.502 23.9811 434.262 24.0152 434.027 24.0455C433.796 24.072 433.608 24.0947 433.464 24.1136C433.116 24.1591 432.79 24.233 432.487 24.3352C432.188 24.4337 431.946 24.5833 431.76 24.7841C431.578 24.9811 431.487 25.25 431.487 25.5909C431.487 26.0568 431.66 26.4091 432.004 26.6477C432.353 26.8826 432.794 27 433.328 27ZM440.912 22.75V28H439.571V19.2727H440.866V20.6364H440.98C441.185 20.1932 441.495 19.8371 441.912 19.5682C442.329 19.2955 442.866 19.1591 443.526 19.1591C444.116 19.1591 444.634 19.2803 445.077 19.5227C445.52 19.7614 445.865 20.125 446.111 20.6136C446.357 21.0985 446.48 21.7121 446.48 22.4545V28H445.139V22.5455C445.139 21.8598 444.961 21.3258 444.605 20.9432C444.249 20.5568 443.76 20.3636 443.139 20.3636C442.711 20.3636 442.329 20.4564 441.991 20.642C441.658 20.8277 441.395 21.0985 441.202 21.4545C441.009 21.8106 440.912 22.2424 440.912 22.75ZM452.226 28.1818C451.499 28.1818 450.857 27.9981 450.3 27.6307C449.743 27.2595 449.307 26.7367 448.993 26.0625C448.679 25.3845 448.521 24.5833 448.521 23.6591C448.521 22.7424 448.679 21.947 448.993 21.2727C449.307 20.5985 449.745 20.0777 450.305 19.7102C450.866 19.3428 451.514 19.1591 452.249 19.1591C452.817 19.1591 453.266 19.2538 453.595 19.4432C453.929 19.6288 454.182 19.8409 454.357 20.0795C454.535 20.3144 454.673 20.5076 454.771 20.6591H454.885V16.3636H456.226V28H454.93V26.6591H454.771C454.673 26.8182 454.533 27.0189 454.351 27.2614C454.169 27.5 453.91 27.714 453.572 27.9034C453.235 28.089 452.786 28.1818 452.226 28.1818ZM452.408 26.9773C452.946 26.9773 453.4 26.8371 453.771 26.5568C454.143 26.2727 454.425 25.8807 454.618 25.3807C454.811 24.8769 454.908 24.2955 454.908 23.6364C454.908 22.9848 454.813 22.4148 454.624 21.9261C454.434 21.4337 454.154 21.0511 453.783 20.7784C453.411 20.5019 452.953 20.3636 452.408 20.3636C451.839 20.3636 451.366 20.5095 450.987 20.8011C450.612 21.089 450.33 21.4811 450.141 21.9773C449.955 22.4697 449.862 23.0227 449.862 23.6364C449.862 24.2576 449.957 24.822 450.146 25.3295C450.339 25.8333 450.624 26.2348 450.999 26.5341C451.377 26.8295 451.847 26.9773 452.408 26.9773ZM460.209 16.3636V28H458.868V16.3636H460.209ZM462.665 28V19.2727H464.006V28H462.665ZM463.347 17.8182C463.085 17.8182 462.86 17.7292 462.67 17.5511C462.485 17.3731 462.392 17.1591 462.392 16.9091C462.392 16.6591 462.485 16.4451 462.67 16.267C462.86 16.089 463.085 16 463.347 16C463.608 16 463.831 16.089 464.017 16.267C464.206 16.4451 464.301 16.6591 464.301 16.9091C464.301 17.1591 464.206 17.3731 464.017 17.5511C463.831 17.7292 463.608 17.8182 463.347 17.8182ZM467.803 22.75V28H466.462V19.2727H467.757V20.6364H467.871C468.075 20.1932 468.386 19.8371 468.803 19.5682C469.219 19.2955 469.757 19.1591 470.416 19.1591C471.007 19.1591 471.524 19.2803 471.967 19.5227C472.411 19.7614 472.755 20.125 473.001 20.6136C473.248 21.0985 473.371 21.7121 473.371 22.4545V28H472.03V22.5455C472.03 21.8598 471.852 21.3258 471.496 20.9432C471.14 20.5568 470.651 20.3636 470.03 20.3636C469.602 20.3636 469.219 20.4564 468.882 20.642C468.549 20.8277 468.286 21.0985 468.092 21.4545C467.899 21.8106 467.803 22.2424 467.803 22.75ZM479.344 31.4545C478.696 31.4545 478.139 31.3712 477.673 31.2045C477.207 31.0417 476.819 30.8258 476.509 30.5568C476.202 30.2917 475.957 30.0076 475.776 29.7045L476.844 28.9545C476.965 29.1136 477.118 29.2955 477.304 29.5C477.49 29.7083 477.743 29.8883 478.065 30.0398C478.391 30.1951 478.817 30.2727 479.344 30.2727C480.048 30.2727 480.63 30.1023 481.088 29.7614C481.546 29.4205 481.776 28.8864 481.776 28.1591V26.3864H481.662C481.563 26.5455 481.423 26.7424 481.241 26.9773C481.063 27.2083 480.806 27.4148 480.469 27.5966C480.135 27.7746 479.685 27.8636 479.116 27.8636C478.412 27.8636 477.779 27.697 477.219 27.3636C476.662 27.0303 476.221 26.5455 475.895 25.9091C475.573 25.2727 475.412 24.5 475.412 23.5909C475.412 22.697 475.569 21.9186 475.884 21.2557C476.198 20.589 476.635 20.0739 477.196 19.7102C477.757 19.3428 478.404 19.1591 479.139 19.1591C479.707 19.1591 480.158 19.2538 480.491 19.4432C480.829 19.6288 481.086 19.8409 481.264 20.0795C481.446 20.3144 481.586 20.5076 481.685 20.6591H481.821V19.2727H483.116V28.25C483.116 29 482.946 29.6098 482.605 30.0795C482.268 30.553 481.813 30.8996 481.241 31.1193C480.673 31.3428 480.041 31.4545 479.344 31.4545ZM479.298 26.6591C479.836 26.6591 480.291 26.536 480.662 26.2898C481.033 26.0436 481.315 25.6894 481.509 25.2273C481.702 24.7652 481.798 24.2121 481.798 23.5682C481.798 22.9394 481.704 22.3845 481.514 21.9034C481.325 21.4223 481.045 21.0455 480.673 20.7727C480.302 20.5 479.844 20.3636 479.298 20.3636C478.73 20.3636 478.257 20.5076 477.878 20.7955C477.503 21.0833 477.221 21.4697 477.031 21.9545C476.846 22.4394 476.753 22.9773 476.753 23.5682C476.753 24.1742 476.848 24.7102 477.037 25.1761C477.23 25.6383 477.514 26.0019 477.889 26.267C478.268 26.5284 478.738 26.6591 479.298 26.6591ZM490.071 31.2727V19.2727H491.366V20.6591H491.526C491.624 20.5076 491.76 20.3144 491.935 20.0795C492.113 19.8409 492.366 19.6288 492.696 19.4432C493.029 19.2538 493.48 19.1591 494.048 19.1591C494.783 19.1591 495.431 19.3428 495.991 19.7102C496.552 20.0777 496.99 20.5985 497.304 21.2727C497.618 21.947 497.776 22.7424 497.776 23.6591C497.776 24.5833 497.618 25.3845 497.304 26.0625C496.99 26.7367 496.554 27.2595 495.997 27.6307C495.44 27.9981 494.798 28.1818 494.071 28.1818C493.51 28.1818 493.062 28.089 492.724 27.9034C492.387 27.714 492.128 27.5 491.946 27.2614C491.764 27.0189 491.624 26.8182 491.526 26.6591H491.412V31.2727H490.071ZM491.389 23.6364C491.389 24.2955 491.486 24.8769 491.679 25.3807C491.872 25.8807 492.154 26.2727 492.526 26.5568C492.897 26.8371 493.351 26.9773 493.889 26.9773C494.45 26.9773 494.918 26.8295 495.293 26.5341C495.671 26.2348 495.955 25.8333 496.145 25.3295C496.338 24.822 496.435 24.2576 496.435 23.6364C496.435 23.0227 496.34 22.4697 496.151 21.9773C495.965 21.4811 495.683 21.089 495.304 20.8011C494.929 20.5095 494.457 20.3636 493.889 20.3636C493.344 20.3636 492.885 20.5019 492.514 20.7784C492.143 21.0511 491.863 21.4337 491.673 21.9261C491.484 22.4148 491.389 22.9848 491.389 23.6364ZM499.821 28V19.2727H501.116V20.5909H501.207C501.366 20.1591 501.654 19.8087 502.071 19.5398C502.488 19.2708 502.957 19.1364 503.48 19.1364C503.579 19.1364 503.702 19.1383 503.849 19.142C503.997 19.1458 504.109 19.1515 504.185 19.1591V20.5227C504.139 20.5114 504.035 20.4943 503.872 20.4716C503.713 20.4451 503.545 20.4318 503.366 20.4318C502.942 20.4318 502.563 20.5208 502.23 20.6989C501.901 20.8731 501.639 21.1155 501.446 21.4261C501.257 21.733 501.162 22.0833 501.162 22.4773V28H499.821ZM508.342 28.2045C507.789 28.2045 507.287 28.1004 506.837 27.892C506.386 27.6799 506.028 27.375 505.763 26.9773C505.498 26.5758 505.365 26.0909 505.365 25.5227C505.365 25.0227 505.464 24.6174 505.661 24.3068C505.857 23.9924 506.121 23.7462 506.45 23.5682C506.78 23.3902 507.143 23.2576 507.541 23.1705C507.943 23.0795 508.346 23.0076 508.751 22.9545C509.282 22.8864 509.712 22.8352 510.041 22.8011C510.375 22.7633 510.617 22.7008 510.768 22.6136C510.924 22.5265 511.001 22.375 511.001 22.1591V22.1136C511.001 21.553 510.848 21.1174 510.541 20.8068C510.238 20.4962 509.778 20.3409 509.161 20.3409C508.52 20.3409 508.018 20.4811 507.655 20.7614C507.291 21.0417 507.036 21.3409 506.888 21.6591L505.615 21.2045C505.842 20.6742 506.145 20.2614 506.524 19.9659C506.907 19.6667 507.323 19.4583 507.774 19.3409C508.229 19.2197 508.676 19.1591 509.115 19.1591C509.395 19.1591 509.717 19.1932 510.081 19.2614C510.448 19.3258 510.803 19.4602 511.143 19.6648C511.488 19.8693 511.774 20.178 512.001 20.5909C512.229 21.0038 512.342 21.5568 512.342 22.25V28H511.001V26.8182H510.933C510.842 27.0076 510.691 27.2102 510.479 27.4261C510.267 27.642 509.984 27.8258 509.632 27.9773C509.28 28.1288 508.85 28.2045 508.342 28.2045ZM508.547 27C509.077 27 509.524 26.8958 509.888 26.6875C510.255 26.4792 510.532 26.2102 510.717 25.8807C510.907 25.5511 511.001 25.2045 511.001 24.8409V23.6136C510.945 23.6818 510.82 23.7443 510.626 23.8011C510.437 23.8542 510.217 23.9015 509.967 23.9432C509.721 23.9811 509.481 24.0152 509.246 24.0455C509.015 24.072 508.827 24.0947 508.683 24.1136C508.335 24.1591 508.009 24.233 507.706 24.3352C507.407 24.4337 507.164 24.5833 506.979 24.7841C506.797 24.9811 506.706 25.25 506.706 25.5909C506.706 26.0568 506.878 26.4091 507.223 26.6477C507.571 26.8826 508.013 27 508.547 27ZM518.335 28.1818C517.517 28.1818 516.813 27.9886 516.222 27.6023C515.631 27.2159 515.176 26.6837 514.858 26.0057C514.54 25.3277 514.381 24.553 514.381 23.6818C514.381 22.7955 514.544 22.0133 514.869 21.3352C515.199 20.6534 515.657 20.1212 516.244 19.7386C516.835 19.3523 517.525 19.1591 518.312 19.1591C518.926 19.1591 519.479 19.2727 519.972 19.5C520.464 19.7273 520.867 20.0455 521.182 20.4545C521.496 20.8636 521.691 21.3409 521.767 21.8864H520.426C520.324 21.4886 520.097 21.1364 519.744 20.8295C519.396 20.5189 518.926 20.3636 518.335 20.3636C517.813 20.3636 517.354 20.5 516.96 20.7727C516.57 21.0417 516.265 21.4223 516.045 21.9148C515.83 22.4034 515.722 22.9773 515.722 23.6364C515.722 24.3106 515.828 24.8977 516.04 25.3977C516.256 25.8977 516.559 26.286 516.949 26.5625C517.343 26.839 517.805 26.9773 518.335 26.9773C518.684 26.9773 519 26.9167 519.284 26.7955C519.568 26.6742 519.809 26.5 520.006 26.2727C520.203 26.0455 520.343 25.7727 520.426 25.4545H521.767C521.691 25.9697 521.504 26.4337 521.205 26.8466C520.909 27.2557 520.517 27.5814 520.028 27.8239C519.544 28.0625 518.979 28.1818 518.335 28.1818ZM527.523 19.2727V20.4091H523V19.2727H527.523ZM524.318 17.1818H525.659V25.5C525.659 25.8788 525.714 26.1629 525.824 26.3523C525.938 26.5379 526.081 26.6629 526.256 26.7273C526.434 26.7879 526.621 26.8182 526.818 26.8182C526.966 26.8182 527.087 26.8106 527.182 26.7955C527.277 26.7765 527.352 26.7614 527.409 26.75L527.682 27.9545C527.591 27.9886 527.464 28.0227 527.301 28.0568C527.138 28.0947 526.932 28.1136 526.682 28.1136C526.303 28.1136 525.932 28.0322 525.568 27.8693C525.208 27.7064 524.909 27.4583 524.67 27.125C524.436 26.7917 524.318 26.3712 524.318 25.8636V17.1818ZM529.54 28V19.2727H530.881V28H529.54ZM530.222 17.8182C529.96 17.8182 529.735 17.7292 529.545 17.5511C529.36 17.3731 529.267 17.1591 529.267 16.9091C529.267 16.6591 529.36 16.4451 529.545 16.267C529.735 16.089 529.96 16 530.222 16C530.483 16 530.706 16.089 530.892 16.267C531.081 16.4451 531.176 16.6591 531.176 16.9091C531.176 17.1591 531.081 17.3731 530.892 17.5511C530.706 17.7292 530.483 17.8182 530.222 17.8182ZM536.882 28.1818C536.064 28.1818 535.359 27.9886 534.768 27.6023C534.178 27.2159 533.723 26.6837 533.405 26.0057C533.087 25.3277 532.928 24.553 532.928 23.6818C532.928 22.7955 533.09 22.0133 533.416 21.3352C533.746 20.6534 534.204 20.1212 534.791 19.7386C535.382 19.3523 536.071 19.1591 536.859 19.1591C537.473 19.1591 538.026 19.2727 538.518 19.5C539.011 19.7273 539.414 20.0455 539.729 20.4545C540.043 20.8636 540.238 21.3409 540.314 21.8864H538.973C538.871 21.4886 538.643 21.1364 538.291 20.8295C537.943 20.5189 537.473 20.3636 536.882 20.3636C536.359 20.3636 535.901 20.5 535.507 20.7727C535.117 21.0417 534.812 21.4223 534.592 21.9148C534.376 22.4034 534.268 22.9773 534.268 23.6364C534.268 24.3106 534.375 24.8977 534.587 25.3977C534.803 25.8977 535.106 26.286 535.496 26.5625C535.89 26.839 536.352 26.9773 536.882 26.9773C537.231 26.9773 537.547 26.9167 537.831 26.7955C538.115 26.6742 538.356 26.5 538.553 26.2727C538.75 26.0455 538.89 25.7727 538.973 25.4545H540.314C540.238 25.9697 540.051 26.4337 539.751 26.8466C539.456 27.2557 539.064 27.5814 538.575 27.8239C538.09 28.0625 537.526 28.1818 536.882 28.1818ZM545.933 28.1818C545.092 28.1818 544.367 27.9962 543.757 27.625C543.151 27.25 542.683 26.7273 542.354 26.0568C542.028 25.3826 541.865 24.5985 541.865 23.7045C541.865 22.8106 542.028 22.0227 542.354 21.3409C542.683 20.6553 543.142 20.1212 543.729 19.7386C544.32 19.3523 545.009 19.1591 545.797 19.1591C546.251 19.1591 546.7 19.2348 547.143 19.3864C547.587 19.5379 547.99 19.7841 548.354 20.125C548.717 20.4621 549.007 20.9091 549.223 21.4659C549.439 22.0227 549.547 22.7083 549.547 23.5227V24.0909H542.82V22.9318H548.183C548.183 22.4394 548.085 22 547.888 21.6136C547.695 21.2273 547.418 20.9223 547.058 20.6989C546.702 20.4754 546.282 20.3636 545.797 20.3636C545.263 20.3636 544.801 20.4962 544.411 20.7614C544.024 21.0227 543.727 21.3636 543.518 21.7841C543.31 22.2045 543.206 22.6553 543.206 23.1364V23.9091C543.206 24.5682 543.32 25.1269 543.547 25.5852C543.778 26.0398 544.098 26.3864 544.507 26.625C544.916 26.8598 545.392 26.9773 545.933 26.9773C546.286 26.9773 546.604 26.928 546.888 26.8295C547.176 26.7273 547.424 26.5758 547.632 26.375C547.84 26.1705 548.001 25.9167 548.115 25.6136L549.411 25.9773C549.274 26.4167 549.045 26.803 548.723 27.1364C548.401 27.4659 548.003 27.7235 547.53 27.9091C547.056 28.0909 546.524 28.1818 545.933 28.1818ZM557.768 21.2273L556.564 21.5682C556.488 21.3674 556.376 21.1723 556.229 20.983C556.085 20.7898 555.888 20.6307 555.638 20.5057C555.388 20.3807 555.068 20.3182 554.678 20.3182C554.143 20.3182 553.698 20.4413 553.342 20.6875C552.99 20.9299 552.814 21.2386 552.814 21.6136C552.814 21.947 552.935 22.2102 553.178 22.4034C553.42 22.5966 553.799 22.7576 554.314 22.8864L555.609 23.2045C556.39 23.3939 556.971 23.6837 557.354 24.0739C557.736 24.4602 557.928 24.9583 557.928 25.5682C557.928 26.0682 557.784 26.5152 557.496 26.9091C557.212 27.303 556.814 27.6136 556.303 27.8409C555.791 28.0682 555.196 28.1818 554.518 28.1818C553.628 28.1818 552.892 27.9886 552.308 27.6023C551.725 27.2159 551.356 26.6515 551.2 25.9091L552.473 25.5909C552.594 26.0606 552.823 26.4129 553.161 26.6477C553.501 26.8826 553.946 27 554.496 27C555.121 27 555.617 26.8674 555.984 26.6023C556.356 26.3333 556.541 26.0114 556.541 25.6364C556.541 25.3333 556.435 25.0795 556.223 24.875C556.011 24.6667 555.685 24.5114 555.246 24.4091L553.791 24.0682C552.992 23.8788 552.405 23.5852 552.03 23.1875C551.659 22.786 551.473 22.2841 551.473 21.6818C551.473 21.1894 551.611 20.7538 551.888 20.375C552.168 19.9962 552.549 19.6989 553.03 19.483C553.515 19.267 554.064 19.1591 554.678 19.1591C555.541 19.1591 556.219 19.3485 556.712 19.7273C557.208 20.1061 557.56 20.6061 557.768 21.2273ZM561.696 24.7273V24.6591C561.704 23.9356 561.779 23.3598 561.923 22.9318C562.067 22.5038 562.272 22.1572 562.537 21.892C562.802 21.6269 563.12 21.3826 563.491 21.1591C563.715 21.0227 563.916 20.8617 564.094 20.6761C564.272 20.4867 564.412 20.2689 564.514 20.0227C564.62 19.7765 564.673 19.5038 564.673 19.2045C564.673 18.8333 564.586 18.5114 564.412 18.2386C564.238 17.9659 564.005 17.7557 563.713 17.608C563.421 17.4602 563.098 17.3864 562.741 17.3864C562.431 17.3864 562.132 17.4508 561.844 17.5795C561.556 17.7083 561.315 17.911 561.122 18.1875C560.929 18.464 560.817 18.8258 560.787 19.2727H559.355C559.385 18.6288 559.552 18.0777 559.855 17.6193C560.162 17.161 560.565 16.8106 561.065 16.5682C561.569 16.3258 562.128 16.2045 562.741 16.2045C563.408 16.2045 563.988 16.3371 564.48 16.6023C564.976 16.8674 565.359 17.2311 565.628 17.6932C565.901 18.1553 566.037 18.6818 566.037 19.2727C566.037 19.6894 565.973 20.0663 565.844 20.4034C565.719 20.7405 565.537 21.0417 565.298 21.3068C565.063 21.572 564.779 21.8068 564.446 22.0114C564.113 22.2197 563.846 22.4394 563.645 22.6705C563.444 22.8977 563.298 23.1686 563.207 23.483C563.116 23.7973 563.067 24.1894 563.06 24.6591V24.7273H561.696ZM562.423 28.0909C562.143 28.0909 561.902 27.9905 561.702 27.7898C561.501 27.589 561.401 27.3485 561.401 27.0682C561.401 26.7879 561.501 26.5473 561.702 26.3466C561.902 26.1458 562.143 26.0455 562.423 26.0455C562.704 26.0455 562.944 26.1458 563.145 26.3466C563.346 26.5473 563.446 26.7879 563.446 27.0682C563.446 27.2538 563.399 27.4242 563.304 27.5795C563.213 27.7348 563.09 27.8598 562.935 27.9545C562.783 28.0455 562.613 28.0909 562.423 28.0909Z" fill="#C0C0C3"/>
<rect x="591" y="8" width="28" height="28" rx="6" fill="#1D1D1D"/>
<path fill-rule="evenodd" clip-rule="evenodd" d="M598.703 15.5431C598.505 15.455 598.272 15.5048 598.128 15.6664C597.983 15.828 597.959 16.0645 598.068 16.252L601.421 22L598.068 27.7481C597.959 27.9355 597.983 28.172 598.128 28.3336C598.272 28.4952 598.505 28.545 598.703 28.4569L612.203 22.4569C612.384 22.3767 612.5 22.1976 612.5 22C612.5 21.8024 612.384 21.6234 612.203 21.5431L598.703 15.5431ZM602.346 21.6L599.712 17.086L610.769 22L599.712 26.914L602.346 22.4H606.5C606.721 22.4 606.9 22.2209 606.9 22C606.9 21.7791 606.721 21.6 606.5 21.6H602.346Z" fill="#C0C0C3"/>
<rect x="0.5" y="0.5" width="626" height="43" rx="7.5" stroke="#2D2D30"/>
</svg>
