<svg width="589" height="44" viewBox="0 0 589 44" fill="none" xmlns="http://www.w3.org/2000/svg">
<rect x="0.5" y="0.5" width="588" height="43" rx="7.5" fill="#222222"/>
<path d="M15.5227 28L12.3409 16.3636H13.7727L16.2045 25.8409H16.3182L18.7955 16.3636H20.3864L22.8636 25.8409H22.9773L25.4091 16.3636H26.8409L23.6591 28H22.2045L19.6364 18.7273H19.5455L16.9773 28H15.5227ZM28.4148 28V19.2727H29.7557V28H28.4148ZM29.0966 17.8182C28.8352 17.8182 28.6098 17.7292 28.4205 17.5511C28.2348 17.3731 28.142 17.1591 28.142 16.9091C28.142 16.6591 28.2348 16.4451 28.4205 16.267C28.6098 16.089 28.8352 16 29.0966 16C29.358 16 29.5814 16.089 29.767 16.267C29.9564 16.4451 30.0511 16.6591 30.0511 16.9091C30.0511 17.1591 29.9564 17.3731 29.767 17.5511C29.5814 17.7292 29.358 17.8182 29.0966 17.8182ZM33.5526 16.3636V28H32.2116V16.3636H33.5526ZM37.3494 16.3636V28H36.0085V16.3636H37.3494ZM48.1009 19.2727V20.4091H43.5781V19.2727H48.1009ZM44.8963 17.1818H46.2372V25.5C46.2372 25.8788 46.2921 26.1629 46.402 26.3523C46.5156 26.5379 46.6596 26.6629 46.8338 26.7273C47.0118 26.7879 47.1993 26.8182 47.3963 26.8182C47.544 26.8182 47.6652 26.8106 47.7599 26.7955C47.8546 26.7765 47.9304 26.7614 47.9872 26.75L48.2599 27.9545C48.169 27.9886 48.0421 28.0227 47.8793 28.0568C47.7164 28.0947 47.5099 28.1136 47.2599 28.1136C46.8812 28.1136 46.5099 28.0322 46.1463 27.8693C45.7865 27.7064 45.4872 27.4583 45.2486 27.125C45.0137 26.7917 44.8963 26.3712 44.8963 25.8636V17.1818ZM51.6463 22.75V28H50.3054V16.3636H51.6463V20.6364H51.7599C51.9645 20.1856 52.2713 19.8277 52.6804 19.5625C53.0933 19.2936 53.6425 19.1591 54.3281 19.1591C54.9228 19.1591 55.4437 19.2784 55.8906 19.517C56.3376 19.7519 56.6842 20.1136 56.9304 20.6023C57.1804 21.0871 57.3054 21.7045 57.3054 22.4545V28H55.9645V22.5455C55.9645 21.8523 55.7846 21.3163 55.4247 20.9375C55.0687 20.5549 54.5743 20.3636 53.9418 20.3636C53.5024 20.3636 53.1084 20.4564 52.7599 20.642C52.4152 20.8277 52.1425 21.0985 51.9418 21.4545C51.7448 21.8106 51.6463 22.2424 51.6463 22.75ZM63.4176 28.1818C62.5767 28.1818 61.8513 27.9962 61.2415 27.625C60.6354 27.25 60.1676 26.7273 59.8381 26.0568C59.5123 25.3826 59.3494 24.5985 59.3494 23.7045C59.3494 22.8106 59.5123 22.0227 59.8381 21.3409C60.1676 20.6553 60.6259 20.1212 61.2131 19.7386C61.804 19.3523 62.4934 19.1591 63.2812 19.1591C63.7358 19.1591 64.1847 19.2348 64.6278 19.3864C65.071 19.5379 65.4744 19.7841 65.8381 20.125C66.2017 20.4621 66.4915 20.9091 66.7074 21.4659C66.9233 22.0227 67.0312 22.7083 67.0312 23.5227V24.0909H60.304V22.9318H65.6676C65.6676 22.4394 65.5691 22 65.3722 21.6136C65.179 21.2273 64.9025 20.9223 64.5426 20.6989C64.1866 20.4754 63.7661 20.3636 63.2812 20.3636C62.7472 20.3636 62.285 20.4962 61.8949 20.7614C61.5085 21.0227 61.2112 21.3636 61.0028 21.7841C60.7945 22.2045 60.6903 22.6553 60.6903 23.1364V23.9091C60.6903 24.5682 60.804 25.1269 61.0312 25.5852C61.2623 26.0398 61.5824 26.3864 61.9915 26.625C62.4006 26.8598 62.8759 26.9773 63.4176 26.9773C63.7699 26.9773 64.0881 26.928 64.3722 26.8295C64.66 26.7273 64.9081 26.5758 65.1165 26.375C65.3248 26.1705 65.4858 25.9167 65.5994 25.6136L66.8949 25.9773C66.7585 26.4167 66.5294 26.803 66.2074 27.1364C65.8854 27.4659 65.4877 27.7235 65.0142 27.9091C64.5407 28.0909 64.0085 28.1818 63.4176 28.1818ZM73.571 28V19.2727H74.8665V20.5909H74.9574C75.1165 20.1591 75.4044 19.8087 75.821 19.5398C76.2377 19.2708 76.7074 19.1364 77.2301 19.1364C77.3286 19.1364 77.4517 19.1383 77.5994 19.142C77.7472 19.1458 77.8589 19.1515 77.9347 19.1591V20.5227C77.8892 20.5114 77.785 20.4943 77.6222 20.4716C77.4631 20.4451 77.2945 20.4318 77.1165 20.4318C76.6922 20.4318 76.3134 20.5208 75.9801 20.6989C75.6506 20.8731 75.3892 21.1155 75.196 21.4261C75.0066 21.733 74.9119 22.0833 74.9119 22.4773V28H73.571ZM82.9176 28.1818C82.0767 28.1818 81.3513 27.9962 80.7415 27.625C80.1354 27.25 79.6676 26.7273 79.3381 26.0568C79.0123 25.3826 78.8494 24.5985 78.8494 23.7045C78.8494 22.8106 79.0123 22.0227 79.3381 21.3409C79.6676 20.6553 80.1259 20.1212 80.7131 19.7386C81.304 19.3523 81.9934 19.1591 82.7812 19.1591C83.2358 19.1591 83.6847 19.2348 84.1278 19.3864C84.571 19.5379 84.9744 19.7841 85.3381 20.125C85.7017 20.4621 85.9915 20.9091 86.2074 21.4659C86.4233 22.0227 86.5312 22.7083 86.5312 23.5227V24.0909H79.804V22.9318H85.1676C85.1676 22.4394 85.0691 22 84.8722 21.6136C84.679 21.2273 84.4025 20.9223 84.0426 20.6989C83.6866 20.4754 83.2661 20.3636 82.7812 20.3636C82.2472 20.3636 81.785 20.4962 81.3949 20.7614C81.0085 21.0227 80.7112 21.3636 80.5028 21.7841C80.2945 22.2045 80.1903 22.6553 80.1903 23.1364V23.9091C80.1903 24.5682 80.304 25.1269 80.5312 25.5852C80.7623 26.0398 81.0824 26.3864 81.4915 26.625C81.9006 26.8598 82.3759 26.9773 82.9176 26.9773C83.2699 26.9773 83.5881 26.928 83.8722 26.8295C84.16 26.7273 84.4081 26.5758 84.6165 26.375C84.8248 26.1705 84.9858 25.9167 85.0994 25.6136L86.3949 25.9773C86.2585 26.4167 86.0294 26.803 85.7074 27.1364C85.3854 27.4659 84.9877 27.7235 84.5142 27.9091C84.0407 28.0909 83.5085 28.1818 82.9176 28.1818ZM92.1165 28.1818C91.2983 28.1818 90.5938 27.9886 90.0028 27.6023C89.4119 27.2159 88.9574 26.6837 88.6392 26.0057C88.321 25.3277 88.1619 24.553 88.1619 23.6818C88.1619 22.7955 88.3248 22.0133 88.6506 21.3352C88.9801 20.6534 89.4384 20.1212 90.0256 19.7386C90.6165 19.3523 91.3059 19.1591 92.0938 19.1591C92.7074 19.1591 93.2604 19.2727 93.7528 19.5C94.2453 19.7273 94.6487 20.0455 94.9631 20.4545C95.2775 20.8636 95.4725 21.3409 95.5483 21.8864H94.2074C94.1051 21.4886 93.8778 21.1364 93.5256 20.8295C93.1771 20.5189 92.7074 20.3636 92.1165 20.3636C91.5938 20.3636 91.1354 20.5 90.7415 20.7727C90.3513 21.0417 90.0464 21.4223 89.8267 21.9148C89.6108 22.4034 89.5028 22.9773 89.5028 23.6364C89.5028 24.3106 89.6089 24.8977 89.821 25.3977C90.0369 25.8977 90.34 26.286 90.7301 26.5625C91.1241 26.839 91.5862 26.9773 92.1165 26.9773C92.465 26.9773 92.7812 26.9167 93.0653 26.7955C93.3494 26.6742 93.59 26.5 93.7869 26.2727C93.9839 26.0455 94.1241 25.7727 94.2074 25.4545H95.5483C95.4725 25.9697 95.285 26.4337 94.9858 26.8466C94.6903 27.2557 94.2983 27.5814 93.8097 27.8239C93.3248 28.0625 92.7604 28.1818 92.1165 28.1818ZM101.168 28.1818C100.327 28.1818 99.6013 27.9962 98.9915 27.625C98.3854 27.25 97.9176 26.7273 97.5881 26.0568C97.2623 25.3826 97.0994 24.5985 97.0994 23.7045C97.0994 22.8106 97.2623 22.0227 97.5881 21.3409C97.9176 20.6553 98.3759 20.1212 98.9631 19.7386C99.554 19.3523 100.243 19.1591 101.031 19.1591C101.486 19.1591 101.935 19.2348 102.378 19.3864C102.821 19.5379 103.224 19.7841 103.588 20.125C103.952 20.4621 104.241 20.9091 104.457 21.4659C104.673 22.0227 104.781 22.7083 104.781 23.5227V24.0909H98.054V22.9318H103.418C103.418 22.4394 103.319 22 103.122 21.6136C102.929 21.2273 102.652 20.9223 102.293 20.6989C101.937 20.4754 101.516 20.3636 101.031 20.3636C100.497 20.3636 100.035 20.4962 99.6449 20.7614C99.2585 21.0227 98.9612 21.3636 98.7528 21.7841C98.5445 22.2045 98.4403 22.6553 98.4403 23.1364V23.9091C98.4403 24.5682 98.554 25.1269 98.7812 25.5852C99.0123 26.0398 99.3324 26.3864 99.7415 26.625C100.151 26.8598 100.626 26.9773 101.168 26.9773C101.52 26.9773 101.838 26.928 102.122 26.8295C102.41 26.7273 102.658 26.5758 102.866 26.375C103.075 26.1705 103.236 25.9167 103.349 25.6136L104.645 25.9773C104.509 26.4167 104.279 26.803 103.957 27.1364C103.635 27.4659 103.238 27.7235 102.764 27.9091C102.291 28.0909 101.759 28.1818 101.168 28.1818ZM108.162 22.75V28H106.821V19.2727H108.116V20.6364H108.23C108.435 20.1932 108.745 19.8371 109.162 19.5682C109.579 19.2955 110.116 19.1591 110.776 19.1591C111.366 19.1591 111.884 19.2803 112.327 19.5227C112.77 19.7614 113.115 20.125 113.361 20.6136C113.607 21.0985 113.73 21.7121 113.73 22.4545V28H112.389V22.5455C112.389 21.8598 112.211 21.3258 111.855 20.9432C111.499 20.5568 111.01 20.3636 110.389 20.3636C109.961 20.3636 109.579 20.4564 109.241 20.642C108.908 20.8277 108.645 21.0985 108.452 21.4545C108.259 21.8106 108.162 22.2424 108.162 22.75ZM119.976 19.2727V20.4091H115.453V19.2727H119.976ZM116.771 17.1818H118.112V25.5C118.112 25.8788 118.167 26.1629 118.277 26.3523C118.391 26.5379 118.535 26.6629 118.709 26.7273C118.887 26.7879 119.074 26.8182 119.271 26.8182C119.419 26.8182 119.54 26.8106 119.635 26.7955C119.73 26.7765 119.805 26.7614 119.862 26.75L120.135 27.9545C120.044 27.9886 119.917 28.0227 119.754 28.0568C119.591 28.0947 119.385 28.1136 119.135 28.1136C118.756 28.1136 118.385 28.0322 118.021 27.8693C117.661 27.7064 117.362 27.4583 117.124 27.125C116.889 26.7917 116.771 26.3712 116.771 25.8636V17.1818ZM130.038 28.1818C129.22 28.1818 128.516 27.9886 127.925 27.6023C127.334 27.2159 126.879 26.6837 126.561 26.0057C126.243 25.3277 126.084 24.553 126.084 23.6818C126.084 22.7955 126.247 22.0133 126.572 21.3352C126.902 20.6534 127.36 20.1212 127.947 19.7386C128.538 19.3523 129.228 19.1591 130.016 19.1591C130.629 19.1591 131.182 19.2727 131.675 19.5C132.167 19.7273 132.571 20.0455 132.885 20.4545C133.199 20.8636 133.394 21.3409 133.47 21.8864H132.129C132.027 21.4886 131.8 21.1364 131.447 20.8295C131.099 20.5189 130.629 20.3636 130.038 20.3636C129.516 20.3636 129.057 20.5 128.663 20.7727C128.273 21.0417 127.968 21.4223 127.749 21.9148C127.533 22.4034 127.425 22.9773 127.425 23.6364C127.425 24.3106 127.531 24.8977 127.743 25.3977C127.959 25.8977 128.262 26.286 128.652 26.5625C129.046 26.839 129.508 26.9773 130.038 26.9773C130.387 26.9773 130.703 26.9167 130.987 26.7955C131.271 26.6742 131.512 26.5 131.709 26.2727C131.906 26.0455 132.046 25.7727 132.129 25.4545H133.47C133.394 25.9697 133.207 26.4337 132.908 26.8466C132.612 27.2557 132.22 27.5814 131.732 27.8239C131.247 28.0625 130.682 28.1818 130.038 28.1818ZM136.771 22.75V28H135.43V16.3636H136.771V20.6364H136.885C137.089 20.1856 137.396 19.8277 137.805 19.5625C138.218 19.2936 138.768 19.1591 139.453 19.1591C140.048 19.1591 140.569 19.2784 141.016 19.517C141.463 19.7519 141.809 20.1136 142.055 20.6023C142.305 21.0871 142.43 21.7045 142.43 22.4545V28H141.089V22.5455C141.089 21.8523 140.91 21.3163 140.55 20.9375C140.194 20.5549 139.699 20.3636 139.067 20.3636C138.627 20.3636 138.233 20.4564 137.885 20.642C137.54 20.8277 137.268 21.0985 137.067 21.4545C136.87 21.8106 136.771 22.2424 136.771 22.75ZM147.452 28.2045C146.899 28.2045 146.397 28.1004 145.946 27.892C145.495 27.6799 145.137 27.375 144.872 26.9773C144.607 26.5758 144.474 26.0909 144.474 25.5227C144.474 25.0227 144.573 24.6174 144.77 24.3068C144.967 23.9924 145.23 23.7462 145.56 23.5682C145.889 23.3902 146.253 23.2576 146.651 23.1705C147.052 23.0795 147.455 23.0076 147.861 22.9545C148.391 22.8864 148.821 22.8352 149.151 22.8011C149.484 22.7633 149.726 22.7008 149.878 22.6136C150.033 22.5265 150.111 22.375 150.111 22.1591V22.1136C150.111 21.553 149.957 21.1174 149.651 20.8068C149.348 20.4962 148.887 20.3409 148.27 20.3409C147.63 20.3409 147.128 20.4811 146.764 20.7614C146.401 21.0417 146.145 21.3409 145.997 21.6591L144.724 21.2045C144.952 20.6742 145.255 20.2614 145.634 19.9659C146.016 19.6667 146.433 19.4583 146.884 19.3409C147.338 19.2197 147.785 19.1591 148.224 19.1591C148.505 19.1591 148.827 19.1932 149.19 19.2614C149.558 19.3258 149.912 19.4602 150.253 19.6648C150.598 19.8693 150.884 20.178 151.111 20.5909C151.338 21.0038 151.452 21.5568 151.452 22.25V28H150.111V26.8182H150.043C149.952 27.0076 149.8 27.2102 149.588 27.4261C149.376 27.642 149.094 27.8258 148.741 27.9773C148.389 28.1288 147.959 28.2045 147.452 28.2045ZM147.656 27C148.187 27 148.634 26.8958 148.997 26.6875C149.365 26.4792 149.641 26.2102 149.827 25.8807C150.016 25.5511 150.111 25.2045 150.111 24.8409V23.6136C150.054 23.6818 149.929 23.7443 149.736 23.8011C149.546 23.8542 149.327 23.9015 149.077 23.9432C148.83 23.9811 148.59 24.0152 148.355 24.0455C148.124 24.072 147.937 24.0947 147.793 24.1136C147.444 24.1591 147.118 24.233 146.815 24.3352C146.516 24.4337 146.274 24.5833 146.088 24.7841C145.906 24.9811 145.815 25.25 145.815 25.5909C145.815 26.0568 145.988 26.4091 146.332 26.6477C146.681 26.8826 147.122 27 147.656 27ZM155.24 22.75V28H153.899V19.2727H155.195V20.6364H155.308C155.513 20.1932 155.823 19.8371 156.24 19.5682C156.657 19.2955 157.195 19.1591 157.854 19.1591C158.445 19.1591 158.962 19.2803 159.405 19.5227C159.848 19.7614 160.193 20.125 160.439 20.6136C160.685 21.0985 160.808 21.7121 160.808 22.4545V28H159.467V22.5455C159.467 21.8598 159.289 21.3258 158.933 20.9432C158.577 20.5568 158.089 20.3636 157.467 20.3636C157.039 20.3636 156.657 20.4564 156.32 20.642C155.986 20.8277 155.723 21.0985 155.53 21.4545C155.337 21.8106 155.24 22.2424 155.24 22.75ZM166.781 31.4545C166.134 31.4545 165.577 31.3712 165.111 31.2045C164.645 31.0417 164.257 30.8258 163.946 30.5568C163.639 30.2917 163.395 30.0076 163.213 29.7045L164.281 28.9545C164.402 29.1136 164.556 29.2955 164.741 29.5C164.927 29.7083 165.181 29.8883 165.503 30.0398C165.829 30.1951 166.255 30.2727 166.781 30.2727C167.486 30.2727 168.067 30.1023 168.526 29.7614C168.984 29.4205 169.213 28.8864 169.213 28.1591V26.3864H169.099C169.001 26.5455 168.861 26.7424 168.679 26.9773C168.501 27.2083 168.243 27.4148 167.906 27.5966C167.573 27.7746 167.122 27.8636 166.554 27.8636C165.849 27.8636 165.217 27.697 164.656 27.3636C164.099 27.0303 163.658 26.5455 163.332 25.9091C163.01 25.2727 162.849 24.5 162.849 23.5909C162.849 22.697 163.007 21.9186 163.321 21.2557C163.635 20.589 164.073 20.0739 164.634 19.7102C165.194 19.3428 165.842 19.1591 166.577 19.1591C167.145 19.1591 167.596 19.2538 167.929 19.4432C168.266 19.6288 168.524 19.8409 168.702 20.0795C168.884 20.3144 169.024 20.5076 169.122 20.6591H169.259V19.2727H170.554V28.25C170.554 29 170.384 29.6098 170.043 30.0795C169.705 30.553 169.251 30.8996 168.679 31.1193C168.111 31.3428 167.478 31.4545 166.781 31.4545ZM166.736 26.6591C167.274 26.6591 167.728 26.536 168.099 26.2898C168.471 26.0436 168.753 25.6894 168.946 25.2273C169.139 24.7652 169.236 24.2121 169.236 23.5682C169.236 22.9394 169.141 22.3845 168.952 21.9034C168.762 21.4223 168.482 21.0455 168.111 20.7727C167.74 20.5 167.281 20.3636 166.736 20.3636C166.168 20.3636 165.694 20.5076 165.315 20.7955C164.94 21.0833 164.658 21.4697 164.469 21.9545C164.283 22.4394 164.19 22.9773 164.19 23.5682C164.19 24.1742 164.285 24.7102 164.474 25.1761C164.668 25.6383 164.952 26.0019 165.327 26.267C165.705 26.5284 166.175 26.6591 166.736 26.6591ZM176.668 28.1818C175.827 28.1818 175.101 27.9962 174.491 27.625C173.885 27.25 173.418 26.7273 173.088 26.0568C172.762 25.3826 172.599 24.5985 172.599 23.7045C172.599 22.8106 172.762 22.0227 173.088 21.3409C173.418 20.6553 173.876 20.1212 174.463 19.7386C175.054 19.3523 175.743 19.1591 176.531 19.1591C176.986 19.1591 177.435 19.2348 177.878 19.3864C178.321 19.5379 178.724 19.7841 179.088 20.125C179.452 20.4621 179.741 20.9091 179.957 21.4659C180.173 22.0227 180.281 22.7083 180.281 23.5227V24.0909H173.554V22.9318H178.918C178.918 22.4394 178.819 22 178.622 21.6136C178.429 21.2273 178.152 20.9223 177.793 20.6989C177.437 20.4754 177.016 20.3636 176.531 20.3636C175.997 20.3636 175.535 20.4962 175.145 20.7614C174.759 21.0227 174.461 21.3636 174.253 21.7841C174.045 22.2045 173.94 22.6553 173.94 23.1364V23.9091C173.94 24.5682 174.054 25.1269 174.281 25.5852C174.512 26.0398 174.832 26.3864 175.241 26.625C175.651 26.8598 176.126 26.9773 176.668 26.9773C177.02 26.9773 177.338 26.928 177.622 26.8295C177.91 26.7273 178.158 26.5758 178.366 26.375C178.575 26.1705 178.736 25.9167 178.849 25.6136L180.145 25.9773C180.009 26.4167 179.779 26.803 179.457 27.1364C179.135 27.4659 178.738 27.7235 178.264 27.9091C177.791 28.0909 177.259 28.1818 176.668 28.1818ZM188.503 21.2273L187.298 21.5682C187.223 21.3674 187.111 21.1723 186.963 20.983C186.819 20.7898 186.622 20.6307 186.372 20.5057C186.122 20.3807 185.802 20.3182 185.412 20.3182C184.878 20.3182 184.433 20.4413 184.077 20.6875C183.724 20.9299 183.548 21.2386 183.548 21.6136C183.548 21.947 183.67 22.2102 183.912 22.4034C184.154 22.5966 184.533 22.7576 185.048 22.8864L186.344 23.2045C187.124 23.3939 187.705 23.6837 188.088 24.0739C188.471 24.4602 188.662 24.9583 188.662 25.5682C188.662 26.0682 188.518 26.5152 188.23 26.9091C187.946 27.303 187.548 27.6136 187.037 27.8409C186.526 28.0682 185.931 28.1818 185.253 28.1818C184.363 28.1818 183.626 27.9886 183.043 27.6023C182.459 27.2159 182.09 26.6515 181.935 25.9091L183.207 25.5909C183.329 26.0606 183.558 26.4129 183.895 26.6477C184.236 26.8826 184.681 27 185.23 27C185.855 27 186.351 26.8674 186.719 26.6023C187.09 26.3333 187.276 26.0114 187.276 25.6364C187.276 25.3333 187.17 25.0795 186.957 24.875C186.745 24.6667 186.42 24.5114 185.98 24.4091L184.526 24.0682C183.726 23.8788 183.139 23.5852 182.764 23.1875C182.393 22.786 182.207 22.2841 182.207 21.6818C182.207 21.1894 182.346 20.7538 182.622 20.375C182.902 19.9962 183.283 19.6989 183.764 19.483C184.249 19.267 184.798 19.1591 185.412 19.1591C186.276 19.1591 186.954 19.3485 187.446 19.7273C187.942 20.1061 188.295 20.6061 188.503 21.2273ZM195.18 28V19.2727H196.521V28H195.18ZM195.862 17.8182C195.601 17.8182 195.375 17.7292 195.186 17.5511C195 17.3731 194.908 17.1591 194.908 16.9091C194.908 16.6591 195 16.4451 195.186 16.267C195.375 16.089 195.601 16 195.862 16C196.124 16 196.347 16.089 196.533 16.267C196.722 16.4451 196.817 16.6591 196.817 16.9091C196.817 17.1591 196.722 17.3731 196.533 17.5511C196.347 17.7292 196.124 17.8182 195.862 17.8182ZM200.318 22.75V28H198.977V19.2727H200.273V20.6364H200.386C200.591 20.1932 200.902 19.8371 201.318 19.5682C201.735 19.2955 202.273 19.1591 202.932 19.1591C203.523 19.1591 204.04 19.2803 204.483 19.5227C204.926 19.7614 205.271 20.125 205.517 20.6136C205.763 21.0985 205.886 21.7121 205.886 22.4545V28H204.545V22.5455C204.545 21.8598 204.367 21.3258 204.011 20.9432C203.655 20.5568 203.167 20.3636 202.545 20.3636C202.117 20.3636 201.735 20.4564 201.398 20.642C201.064 20.8277 200.801 21.0985 200.608 21.4545C200.415 21.8106 200.318 22.2424 200.318 22.75ZM214.178 16.3636V28H212.837V16.3636H214.178ZM219.202 28.2045C218.649 28.2045 218.147 28.1004 217.696 27.892C217.245 27.6799 216.887 27.375 216.622 26.9773C216.357 26.5758 216.224 26.0909 216.224 25.5227C216.224 25.0227 216.323 24.6174 216.52 24.3068C216.717 23.9924 216.98 23.7462 217.31 23.5682C217.639 23.3902 218.003 23.2576 218.401 23.1705C218.802 23.0795 219.205 23.0076 219.611 22.9545C220.141 22.8864 220.571 22.8352 220.901 22.8011C221.234 22.7633 221.476 22.7008 221.628 22.6136C221.783 22.5265 221.861 22.375 221.861 22.1591V22.1136C221.861 21.553 221.707 21.1174 221.401 20.8068C221.098 20.4962 220.637 20.3409 220.02 20.3409C219.38 20.3409 218.878 20.4811 218.514 20.7614C218.151 21.0417 217.895 21.3409 217.747 21.6591L216.474 21.2045C216.702 20.6742 217.005 20.2614 217.384 19.9659C217.766 19.6667 218.183 19.4583 218.634 19.3409C219.088 19.2197 219.535 19.1591 219.974 19.1591C220.255 19.1591 220.577 19.1932 220.94 19.2614C221.308 19.3258 221.662 19.4602 222.003 19.6648C222.348 19.8693 222.634 20.178 222.861 20.5909C223.088 21.0038 223.202 21.5568 223.202 22.25V28H221.861V26.8182H221.793C221.702 27.0076 221.55 27.2102 221.338 27.4261C221.126 27.642 220.844 27.8258 220.491 27.9773C220.139 28.1288 219.709 28.2045 219.202 28.2045ZM219.406 27C219.937 27 220.384 26.8958 220.747 26.6875C221.115 26.4792 221.391 26.2102 221.577 25.8807C221.766 25.5511 221.861 25.2045 221.861 24.8409V23.6136C221.804 23.6818 221.679 23.7443 221.486 23.8011C221.296 23.8542 221.077 23.9015 220.827 23.9432C220.58 23.9811 220.34 24.0152 220.105 24.0455C219.874 24.072 219.687 24.0947 219.543 24.1136C219.194 24.1591 218.868 24.233 218.565 24.3352C218.266 24.4337 218.024 24.5833 217.838 24.7841C217.656 24.9811 217.565 25.25 217.565 25.5909C217.565 26.0568 217.738 26.4091 218.082 26.6477C218.431 26.8826 218.872 27 219.406 27ZM225.831 28V16.3636H227.172V20.6591H227.286C227.384 20.5076 227.52 20.3144 227.695 20.0795C227.873 19.8409 228.126 19.6288 228.456 19.4432C228.789 19.2538 229.24 19.1591 229.808 19.1591C230.543 19.1591 231.191 19.3428 231.751 19.7102C232.312 20.0777 232.75 20.5985 233.064 21.2727C233.378 21.947 233.536 22.7424 233.536 23.6591C233.536 24.5833 233.378 25.3845 233.064 26.0625C232.75 26.7367 232.314 27.2595 231.757 27.6307C231.2 27.9981 230.558 28.1818 229.831 28.1818C229.27 28.1818 228.821 28.089 228.484 27.9034C228.147 27.714 227.888 27.5 227.706 27.2614C227.524 27.0189 227.384 26.8182 227.286 26.6591H227.126V28H225.831ZM227.149 23.6364C227.149 24.2955 227.246 24.8769 227.439 25.3807C227.632 25.8807 227.914 26.2727 228.286 26.5568C228.657 26.8371 229.111 26.9773 229.649 26.9773C230.21 26.9773 230.678 26.8295 231.053 26.5341C231.431 26.2348 231.715 25.8333 231.905 25.3295C232.098 24.822 232.195 24.2576 232.195 23.6364C232.195 23.0227 232.1 22.4697 231.911 21.9773C231.725 21.4811 231.443 21.089 231.064 20.8011C230.689 20.5095 230.217 20.3636 229.649 20.3636C229.104 20.3636 228.645 20.5019 228.274 20.7784C227.903 21.0511 227.623 21.4337 227.433 21.9261C227.244 22.4148 227.149 22.9848 227.149 23.6364ZM239.132 28.1818C238.344 28.1818 237.653 27.9943 237.058 27.6193C236.467 27.2443 236.005 26.7197 235.672 26.0455C235.342 25.3712 235.178 24.5833 235.178 23.6818C235.178 22.7727 235.342 21.9792 235.672 21.3011C236.005 20.6231 236.467 20.0966 237.058 19.7216C237.653 19.3466 238.344 19.1591 239.132 19.1591C239.92 19.1591 240.609 19.3466 241.2 19.7216C241.795 20.0966 242.257 20.6231 242.587 21.3011C242.92 21.9792 243.087 22.7727 243.087 23.6818C243.087 24.5833 242.92 25.3712 242.587 26.0455C242.257 26.7197 241.795 27.2443 241.2 27.6193C240.609 27.9943 239.92 28.1818 239.132 28.1818ZM239.132 26.9773C239.731 26.9773 240.223 26.8239 240.609 26.517C240.996 26.2102 241.282 25.8068 241.467 25.3068C241.653 24.8068 241.746 24.2652 241.746 23.6818C241.746 23.0985 241.653 22.5549 241.467 22.0511C241.282 21.5473 240.996 21.1402 240.609 20.8295C240.223 20.5189 239.731 20.3636 239.132 20.3636C238.534 20.3636 238.041 20.5189 237.655 20.8295C237.268 21.1402 236.982 21.5473 236.797 22.0511C236.611 22.5549 236.518 23.0985 236.518 23.6818C236.518 24.2652 236.611 24.8068 236.797 25.3068C236.982 25.8068 237.268 26.2102 237.655 26.517C238.041 26.8239 238.534 26.9773 239.132 26.9773ZM245.134 28V19.2727H246.429V20.5909H246.52C246.679 20.1591 246.967 19.8087 247.384 19.5398C247.8 19.2708 248.27 19.1364 248.793 19.1364C248.891 19.1364 249.014 19.1383 249.162 19.142C249.31 19.1458 249.421 19.1515 249.497 19.1591V20.5227C249.452 20.5114 249.348 20.4943 249.185 20.4716C249.026 20.4451 248.857 20.4318 248.679 20.4318C248.255 20.4318 247.876 20.5208 247.543 20.6989C247.213 20.8731 246.952 21.1155 246.759 21.4261C246.569 21.733 246.474 22.0833 246.474 22.4773V28H245.134ZM256.928 16.3636V28H255.587V16.3636H256.928ZM261.952 28.2045C261.399 28.2045 260.897 28.1004 260.446 27.892C259.995 27.6799 259.637 27.375 259.372 26.9773C259.107 26.5758 258.974 26.0909 258.974 25.5227C258.974 25.0227 259.073 24.6174 259.27 24.3068C259.467 23.9924 259.73 23.7462 260.06 23.5682C260.389 23.3902 260.753 23.2576 261.151 23.1705C261.552 23.0795 261.955 23.0076 262.361 22.9545C262.891 22.8864 263.321 22.8352 263.651 22.8011C263.984 22.7633 264.226 22.7008 264.378 22.6136C264.533 22.5265 264.611 22.375 264.611 22.1591V22.1136C264.611 21.553 264.457 21.1174 264.151 20.8068C263.848 20.4962 263.387 20.3409 262.77 20.3409C262.13 20.3409 261.628 20.4811 261.264 20.7614C260.901 21.0417 260.645 21.3409 260.497 21.6591L259.224 21.2045C259.452 20.6742 259.755 20.2614 260.134 19.9659C260.516 19.6667 260.933 19.4583 261.384 19.3409C261.838 19.2197 262.285 19.1591 262.724 19.1591C263.005 19.1591 263.327 19.1932 263.69 19.2614C264.058 19.3258 264.412 19.4602 264.753 19.6648C265.098 19.8693 265.384 20.178 265.611 20.5909C265.838 21.0038 265.952 21.5568 265.952 22.25V28H264.611V26.8182H264.543C264.452 27.0076 264.3 27.2102 264.088 27.4261C263.876 27.642 263.594 27.8258 263.241 27.9773C262.889 28.1288 262.459 28.2045 261.952 28.2045ZM262.156 27C262.687 27 263.134 26.8958 263.497 26.6875C263.865 26.4792 264.141 26.2102 264.327 25.8807C264.516 25.5511 264.611 25.2045 264.611 24.8409V23.6136C264.554 23.6818 264.429 23.7443 264.236 23.8011C264.046 23.8542 263.827 23.9015 263.577 23.9432C263.33 23.9811 263.09 24.0152 262.855 24.0455C262.624 24.072 262.437 24.0947 262.293 24.1136C261.944 24.1591 261.618 24.233 261.315 24.3352C261.016 24.4337 260.774 24.5833 260.588 24.7841C260.406 24.9811 260.315 25.25 260.315 25.5909C260.315 26.0568 260.488 26.4091 260.832 26.6477C261.181 26.8826 261.622 27 262.156 27ZM270.376 28L267.717 19.2727H269.126L271.013 25.9545H271.104L272.967 19.2727H274.399L276.24 25.9318H276.331L278.217 19.2727H279.626L276.967 28H275.649L273.74 21.2955H273.604L271.695 28H270.376ZM287.581 21.2273L286.376 21.5682C286.301 21.3674 286.189 21.1723 286.041 20.983C285.897 20.7898 285.7 20.6307 285.45 20.5057C285.2 20.3807 284.88 20.3182 284.49 20.3182C283.956 20.3182 283.511 20.4413 283.155 20.6875C282.803 20.9299 282.626 21.2386 282.626 21.6136C282.626 21.947 282.748 22.2102 282.99 22.4034C283.232 22.5966 283.611 22.7576 284.126 22.8864L285.422 23.2045C286.202 23.3939 286.784 23.6837 287.166 24.0739C287.549 24.4602 287.74 24.9583 287.74 25.5682C287.74 26.0682 287.596 26.5152 287.308 26.9091C287.024 27.303 286.626 27.6136 286.115 27.8409C285.604 28.0682 285.009 28.1818 284.331 28.1818C283.441 28.1818 282.704 27.9886 282.121 27.6023C281.537 27.2159 281.168 26.6515 281.013 25.9091L282.286 25.5909C282.407 26.0606 282.636 26.4129 282.973 26.6477C283.314 26.8826 283.759 27 284.308 27C284.933 27 285.429 26.8674 285.797 26.6023C286.168 26.3333 286.354 26.0114 286.354 25.6364C286.354 25.3333 286.248 25.0795 286.036 24.875C285.823 24.6667 285.498 24.5114 285.058 24.4091L283.604 24.0682C282.804 23.8788 282.217 23.5852 281.842 23.1875C281.471 22.786 281.286 22.2841 281.286 21.6818C281.286 21.1894 281.424 20.7538 281.7 20.375C281.981 19.9962 282.361 19.6989 282.842 19.483C283.327 19.267 283.876 19.1591 284.49 19.1591C285.354 19.1591 286.032 19.3485 286.524 19.7273C287.02 20.1061 287.373 20.6061 287.581 21.2273ZM296.827 28.2045C296.274 28.2045 295.772 28.1004 295.321 27.892C294.87 27.6799 294.512 27.375 294.247 26.9773C293.982 26.5758 293.849 26.0909 293.849 25.5227C293.849 25.0227 293.948 24.6174 294.145 24.3068C294.342 23.9924 294.605 23.7462 294.935 23.5682C295.264 23.3902 295.628 23.2576 296.026 23.1705C296.427 23.0795 296.83 23.0076 297.236 22.9545C297.766 22.8864 298.196 22.8352 298.526 22.8011C298.859 22.7633 299.101 22.7008 299.253 22.6136C299.408 22.5265 299.486 22.375 299.486 22.1591V22.1136C299.486 21.553 299.332 21.1174 299.026 20.8068C298.723 20.4962 298.262 20.3409 297.645 20.3409C297.005 20.3409 296.503 20.4811 296.139 20.7614C295.776 21.0417 295.52 21.3409 295.372 21.6591L294.099 21.2045C294.327 20.6742 294.63 20.2614 295.009 19.9659C295.391 19.6667 295.808 19.4583 296.259 19.3409C296.713 19.2197 297.16 19.1591 297.599 19.1591C297.88 19.1591 298.202 19.1932 298.565 19.2614C298.933 19.3258 299.287 19.4602 299.628 19.6648C299.973 19.8693 300.259 20.178 300.486 20.5909C300.713 21.0038 300.827 21.5568 300.827 22.25V28H299.486V26.8182H299.418C299.327 27.0076 299.175 27.2102 298.963 27.4261C298.751 27.642 298.469 27.8258 298.116 27.9773C297.764 28.1288 297.334 28.2045 296.827 28.2045ZM297.031 27C297.562 27 298.009 26.8958 298.372 26.6875C298.74 26.4792 299.016 26.2102 299.202 25.8807C299.391 25.5511 299.486 25.2045 299.486 24.8409V23.6136C299.429 23.6818 299.304 23.7443 299.111 23.8011C298.921 23.8542 298.702 23.9015 298.452 23.9432C298.205 23.9811 297.965 24.0152 297.73 24.0455C297.499 24.072 297.312 24.0947 297.168 24.1136C296.819 24.1591 296.493 24.233 296.19 24.3352C295.891 24.4337 295.649 24.5833 295.463 24.7841C295.281 24.9811 295.19 25.25 295.19 25.5909C295.19 26.0568 295.363 26.4091 295.707 26.6477C296.056 26.8826 296.497 27 297.031 27ZM307.161 19.2727V20.4091H302.456V19.2727H307.161ZM303.865 28V18.0682C303.865 17.5682 303.982 17.1515 304.217 16.8182C304.452 16.4848 304.757 16.2348 305.132 16.0682C305.507 15.9015 305.903 15.8182 306.32 15.8182C306.649 15.8182 306.918 15.8447 307.126 15.8977C307.335 15.9508 307.49 16 307.592 16.0455L307.206 17.2045C307.138 17.1818 307.043 17.1534 306.922 17.1193C306.804 17.0852 306.649 17.0682 306.456 17.0682C306.013 17.0682 305.693 17.1799 305.496 17.4034C305.303 17.6269 305.206 17.9545 305.206 18.3864V28H303.865ZM312.926 19.2727V20.4091H308.222V19.2727H312.926ZM309.631 28V18.0682C309.631 17.5682 309.748 17.1515 309.983 16.8182C310.218 16.4848 310.523 16.2348 310.898 16.0682C311.273 15.9015 311.669 15.8182 312.085 15.8182C312.415 15.8182 312.684 15.8447 312.892 15.8977C313.1 15.9508 313.256 16 313.358 16.0455L312.972 17.2045C312.903 17.1818 312.809 17.1534 312.688 17.1193C312.57 17.0852 312.415 17.0682 312.222 17.0682C311.778 17.0682 311.458 17.1799 311.261 17.4034C311.068 17.6269 310.972 17.9545 310.972 18.3864V28H309.631ZM318.105 28.1818C317.264 28.1818 316.539 27.9962 315.929 27.625C315.323 27.25 314.855 26.7273 314.526 26.0568C314.2 25.3826 314.037 24.5985 314.037 23.7045C314.037 22.8106 314.2 22.0227 314.526 21.3409C314.855 20.6553 315.313 20.1212 315.901 19.7386C316.491 19.3523 317.181 19.1591 317.969 19.1591C318.423 19.1591 318.872 19.2348 319.315 19.3864C319.759 19.5379 320.162 19.7841 320.526 20.125C320.889 20.4621 321.179 20.9091 321.395 21.4659C321.611 22.0227 321.719 22.7083 321.719 23.5227V24.0909H314.991V22.9318H320.355C320.355 22.4394 320.257 22 320.06 21.6136C319.866 21.2273 319.59 20.9223 319.23 20.6989C318.874 20.4754 318.454 20.3636 317.969 20.3636C317.435 20.3636 316.973 20.4962 316.582 20.7614C316.196 21.0227 315.899 21.3636 315.69 21.7841C315.482 22.2045 315.378 22.6553 315.378 23.1364V23.9091C315.378 24.5682 315.491 25.1269 315.719 25.5852C315.95 26.0398 316.27 26.3864 316.679 26.625C317.088 26.8598 317.563 26.9773 318.105 26.9773C318.457 26.9773 318.776 26.928 319.06 26.8295C319.348 26.7273 319.596 26.5758 319.804 26.375C320.012 26.1705 320.173 25.9167 320.287 25.6136L321.582 25.9773C321.446 26.4167 321.217 26.803 320.895 27.1364C320.573 27.4659 320.175 27.7235 319.702 27.9091C319.228 28.0909 318.696 28.1818 318.105 28.1818ZM327.304 28.1818C326.486 28.1818 325.781 27.9886 325.19 27.6023C324.599 27.2159 324.145 26.6837 323.827 26.0057C323.509 25.3277 323.349 24.553 323.349 23.6818C323.349 22.7955 323.512 22.0133 323.838 21.3352C324.168 20.6534 324.626 20.1212 325.213 19.7386C325.804 19.3523 326.493 19.1591 327.281 19.1591C327.895 19.1591 328.448 19.2727 328.94 19.5C329.433 19.7273 329.836 20.0455 330.151 20.4545C330.465 20.8636 330.66 21.3409 330.736 21.8864H329.395C329.293 21.4886 329.065 21.1364 328.713 20.8295C328.365 20.5189 327.895 20.3636 327.304 20.3636C326.781 20.3636 326.323 20.5 325.929 20.7727C325.539 21.0417 325.234 21.4223 325.014 21.9148C324.798 22.4034 324.69 22.9773 324.69 23.6364C324.69 24.3106 324.796 24.8977 325.009 25.3977C325.224 25.8977 325.527 26.286 325.918 26.5625C326.312 26.839 326.774 26.9773 327.304 26.9773C327.652 26.9773 327.969 26.9167 328.253 26.7955C328.537 26.6742 328.777 26.5 328.974 26.2727C329.171 26.0455 329.312 25.7727 329.395 25.4545H330.736C330.66 25.9697 330.473 26.4337 330.173 26.8466C329.878 27.2557 329.486 27.5814 328.997 27.8239C328.512 28.0625 327.948 28.1818 327.304 28.1818ZM336.491 19.2727V20.4091H331.969V19.2727H336.491ZM333.287 17.1818H334.628V25.5C334.628 25.8788 334.683 26.1629 334.793 26.3523C334.906 26.5379 335.05 26.6629 335.224 26.7273C335.402 26.7879 335.59 26.8182 335.787 26.8182C335.935 26.8182 336.056 26.8106 336.151 26.7955C336.245 26.7765 336.321 26.7614 336.378 26.75L336.651 27.9545C336.56 27.9886 336.433 28.0227 336.27 28.0568C336.107 28.0947 335.901 28.1136 335.651 28.1136C335.272 28.1136 334.901 28.0322 334.537 27.8693C334.177 27.7064 333.878 27.4583 333.639 27.125C333.404 26.7917 333.287 26.3712 333.287 25.8636V17.1818ZM346.554 28.1818C345.766 28.1818 345.075 27.9943 344.48 27.6193C343.889 27.2443 343.427 26.7197 343.094 26.0455C342.764 25.3712 342.599 24.5833 342.599 23.6818C342.599 22.7727 342.764 21.9792 343.094 21.3011C343.427 20.6231 343.889 20.0966 344.48 19.7216C345.075 19.3466 345.766 19.1591 346.554 19.1591C347.342 19.1591 348.031 19.3466 348.622 19.7216C349.217 20.0966 349.679 20.6231 350.009 21.3011C350.342 21.9792 350.509 22.7727 350.509 23.6818C350.509 24.5833 350.342 25.3712 350.009 26.0455C349.679 26.7197 349.217 27.2443 348.622 27.6193C348.031 27.9943 347.342 28.1818 346.554 28.1818ZM346.554 26.9773C347.152 26.9773 347.645 26.8239 348.031 26.517C348.418 26.2102 348.704 25.8068 348.889 25.3068C349.075 24.8068 349.168 24.2652 349.168 23.6818C349.168 23.0985 349.075 22.5549 348.889 22.0511C348.704 21.5473 348.418 21.1402 348.031 20.8295C347.645 20.5189 347.152 20.3636 346.554 20.3636C345.955 20.3636 345.463 20.5189 345.077 20.8295C344.69 21.1402 344.404 21.5473 344.219 22.0511C344.033 22.5549 343.94 23.0985 343.94 23.6818C343.94 24.2652 344.033 24.8068 344.219 25.3068C344.404 25.8068 344.69 26.2102 345.077 26.517C345.463 26.8239 345.955 26.9773 346.554 26.9773ZM358.055 24.4318V19.2727H359.396V28H358.055V26.5227H357.964C357.76 26.9659 357.442 27.3428 357.01 27.6534C356.578 27.9602 356.033 28.1136 355.374 28.1136C354.828 28.1136 354.343 27.9943 353.919 27.7557C353.495 27.5133 353.161 27.1496 352.919 26.6648C352.677 26.1761 352.555 25.5606 352.555 24.8182V19.2727H353.896V24.7273C353.896 25.3636 354.074 25.8712 354.43 26.25C354.79 26.6288 355.249 26.8182 355.805 26.8182C356.139 26.8182 356.478 26.733 356.822 26.5625C357.171 26.392 357.463 26.1307 357.697 25.7784C357.936 25.4261 358.055 24.9773 358.055 24.4318ZM361.852 28V19.2727H363.148V20.5909H363.239C363.398 20.1591 363.686 19.8087 364.102 19.5398C364.519 19.2708 364.989 19.1364 365.511 19.1364C365.61 19.1364 365.733 19.1383 365.881 19.142C366.028 19.1458 366.14 19.1515 366.216 19.1591V20.5227C366.17 20.5114 366.066 20.4943 365.903 20.4716C365.744 20.4451 365.576 20.4318 365.398 20.4318C364.973 20.4318 364.595 20.5208 364.261 20.6989C363.932 20.8731 363.67 21.1155 363.477 21.4261C363.288 21.733 363.193 22.0833 363.193 22.4773V28H361.852ZM375.964 28.1818C375.124 28.1818 374.398 27.9962 373.788 27.625C373.182 27.25 372.714 26.7273 372.385 26.0568C372.059 25.3826 371.896 24.5985 371.896 23.7045C371.896 22.8106 372.059 22.0227 372.385 21.3409C372.714 20.6553 373.173 20.1212 373.76 19.7386C374.351 19.3523 375.04 19.1591 375.828 19.1591C376.283 19.1591 376.732 19.2348 377.175 19.3864C377.618 19.5379 378.021 19.7841 378.385 20.125C378.749 20.4621 379.038 20.9091 379.254 21.4659C379.47 22.0227 379.578 22.7083 379.578 23.5227V24.0909H372.851V22.9318H378.214C378.214 22.4394 378.116 22 377.919 21.6136C377.726 21.2273 377.449 20.9223 377.089 20.6989C376.733 20.4754 376.313 20.3636 375.828 20.3636C375.294 20.3636 374.832 20.4962 374.442 20.7614C374.055 21.0227 373.758 21.3636 373.55 21.7841C373.341 22.2045 373.237 22.6553 373.237 23.1364V23.9091C373.237 24.5682 373.351 25.1269 373.578 25.5852C373.809 26.0398 374.129 26.3864 374.538 26.625C374.947 26.8598 375.423 26.9773 375.964 26.9773C376.317 26.9773 376.635 26.928 376.919 26.8295C377.207 26.7273 377.455 26.5758 377.663 26.375C377.872 26.1705 378.033 25.9167 378.146 25.6136L379.442 25.9773C379.305 26.4167 379.076 26.803 378.754 27.1364C378.432 27.4659 378.035 27.7235 377.561 27.9091C377.088 28.0909 376.555 28.1818 375.964 28.1818ZM381.618 28V19.2727H382.913V20.6364H383.027C383.209 20.1705 383.502 19.8087 383.908 19.5511C384.313 19.2898 384.8 19.1591 385.368 19.1591C385.944 19.1591 386.423 19.2898 386.805 19.5511C387.192 19.8087 387.493 20.1705 387.709 20.6364H387.8C388.023 20.1856 388.358 19.8277 388.805 19.5625C389.252 19.2936 389.788 19.1591 390.413 19.1591C391.194 19.1591 391.832 19.4034 392.328 19.892C392.824 20.3769 393.072 21.1326 393.072 22.1591V28H391.732V22.1591C391.732 21.5152 391.555 21.0549 391.203 20.7784C390.851 20.5019 390.436 20.3636 389.959 20.3636C389.345 20.3636 388.87 20.5492 388.533 20.9205C388.196 21.2879 388.027 21.7538 388.027 22.3182V28H386.663V22.0227C386.663 21.5265 386.502 21.1269 386.18 20.8239C385.858 20.517 385.444 20.3636 384.936 20.3636C384.588 20.3636 384.262 20.4564 383.959 20.642C383.66 20.8277 383.417 21.0852 383.232 21.4148C383.05 21.7405 382.959 22.1174 382.959 22.5455V28H381.618ZM395.524 31.2727V19.2727H396.82V20.6591H396.979C397.077 20.5076 397.214 20.3144 397.388 20.0795C397.566 19.8409 397.82 19.6288 398.149 19.4432C398.482 19.2538 398.933 19.1591 399.501 19.1591C400.236 19.1591 400.884 19.3428 401.445 19.7102C402.005 20.0777 402.443 20.5985 402.757 21.2727C403.071 21.947 403.229 22.7424 403.229 23.6591C403.229 24.5833 403.071 25.3845 402.757 26.0625C402.443 26.7367 402.007 27.2595 401.45 27.6307C400.893 27.9981 400.251 28.1818 399.524 28.1818C398.964 28.1818 398.515 28.089 398.178 27.9034C397.84 27.714 397.581 27.5 397.399 27.2614C397.217 27.0189 397.077 26.8182 396.979 26.6591H396.865V31.2727H395.524ZM396.842 23.6364C396.842 24.2955 396.939 24.8769 397.132 25.3807C397.325 25.8807 397.607 26.2727 397.979 26.5568C398.35 26.8371 398.804 26.9773 399.342 26.9773C399.903 26.9773 400.371 26.8295 400.746 26.5341C401.125 26.2348 401.409 25.8333 401.598 25.3295C401.791 24.822 401.888 24.2576 401.888 23.6364C401.888 23.0227 401.793 22.4697 401.604 21.9773C401.418 21.4811 401.136 21.089 400.757 20.8011C400.382 20.5095 399.911 20.3636 399.342 20.3636C398.797 20.3636 398.339 20.5019 397.967 20.7784C397.596 21.0511 397.316 21.4337 397.126 21.9261C396.937 22.4148 396.842 22.9848 396.842 23.6364ZM406.615 16.3636V28H405.274V16.3636H406.615ZM412.616 28.1818C411.829 28.1818 411.137 27.9943 410.543 27.6193C409.952 27.2443 409.49 26.7197 409.156 26.0455C408.827 25.3712 408.662 24.5833 408.662 23.6818C408.662 22.7727 408.827 21.9792 409.156 21.3011C409.49 20.6231 409.952 20.0966 410.543 19.7216C411.137 19.3466 411.829 19.1591 412.616 19.1591C413.404 19.1591 414.094 19.3466 414.685 19.7216C415.279 20.0966 415.741 20.6231 416.071 21.3011C416.404 21.9792 416.571 22.7727 416.571 23.6818C416.571 24.5833 416.404 25.3712 416.071 26.0455C415.741 26.7197 415.279 27.2443 414.685 27.6193C414.094 27.9943 413.404 28.1818 412.616 28.1818ZM412.616 26.9773C413.215 26.9773 413.707 26.8239 414.094 26.517C414.48 26.2102 414.766 25.8068 414.952 25.3068C415.137 24.8068 415.23 24.2652 415.23 23.6818C415.23 23.0985 415.137 22.5549 414.952 22.0511C414.766 21.5473 414.48 21.1402 414.094 20.8295C413.707 20.5189 413.215 20.3636 412.616 20.3636C412.018 20.3636 411.526 20.5189 411.139 20.8295C410.753 21.1402 410.467 21.5473 410.281 22.0511C410.096 22.5549 410.003 23.0985 410.003 23.6818C410.003 24.2652 410.096 24.8068 410.281 25.3068C410.467 25.8068 410.753 26.2102 411.139 26.517C411.526 26.8239 412.018 26.9773 412.616 26.9773ZM419.169 31.2727C418.942 31.2727 418.739 31.2538 418.561 31.2159C418.383 31.1818 418.26 31.1477 418.192 31.1136L418.533 29.9318C418.858 30.0152 419.146 30.0455 419.396 30.0227C419.646 30 419.868 29.8883 420.061 29.6875C420.258 29.4905 420.438 29.1705 420.601 28.7273L420.851 28.0455L417.624 19.2727H419.078L421.487 26.2273H421.578L423.987 19.2727H425.442L421.737 29.2727C421.571 29.7235 421.364 30.0966 421.118 30.392C420.872 30.6913 420.586 30.9129 420.26 31.0568C419.938 31.2008 419.574 31.2727 419.169 31.2727ZM430.558 28.1818C429.717 28.1818 428.992 27.9962 428.382 27.625C427.776 27.25 427.308 26.7273 426.979 26.0568C426.653 25.3826 426.49 24.5985 426.49 23.7045C426.49 22.8106 426.653 22.0227 426.979 21.3409C427.308 20.6553 427.767 20.1212 428.354 19.7386C428.945 19.3523 429.634 19.1591 430.422 19.1591C430.876 19.1591 431.325 19.2348 431.768 19.3864C432.212 19.5379 432.615 19.7841 432.979 20.125C433.342 20.4621 433.632 20.9091 433.848 21.4659C434.064 22.0227 434.172 22.7083 434.172 23.5227V24.0909H427.445V22.9318H432.808C432.808 22.4394 432.71 22 432.513 21.6136C432.32 21.2273 432.043 20.9223 431.683 20.6989C431.327 20.4754 430.907 20.3636 430.422 20.3636C429.888 20.3636 429.426 20.4962 429.036 20.7614C428.649 21.0227 428.352 21.3636 428.143 21.7841C427.935 22.2045 427.831 22.6553 427.831 23.1364V23.9091C427.831 24.5682 427.945 25.1269 428.172 25.5852C428.403 26.0398 428.723 26.3864 429.132 26.625C429.541 26.8598 430.017 26.9773 430.558 26.9773C430.911 26.9773 431.229 26.928 431.513 26.8295C431.801 26.7273 432.049 26.5758 432.257 26.375C432.465 26.1705 432.626 25.9167 432.74 25.6136L434.036 25.9773C433.899 26.4167 433.67 26.803 433.348 27.1364C433.026 27.4659 432.628 27.7235 432.155 27.9091C431.681 28.0909 431.149 28.1818 430.558 28.1818ZM439.871 28.1818C439.03 28.1818 438.304 27.9962 437.695 27.625C437.089 27.25 436.621 26.7273 436.291 26.0568C435.965 25.3826 435.803 24.5985 435.803 23.7045C435.803 22.8106 435.965 22.0227 436.291 21.3409C436.621 20.6553 437.079 20.1212 437.666 19.7386C438.257 19.3523 438.946 19.1591 439.734 19.1591C440.189 19.1591 440.638 19.2348 441.081 19.3864C441.524 19.5379 441.928 19.7841 442.291 20.125C442.655 20.4621 442.945 20.9091 443.161 21.4659C443.376 22.0227 443.484 22.7083 443.484 23.5227V24.0909H436.757V22.9318H442.121C442.121 22.4394 442.022 22 441.825 21.6136C441.632 21.2273 441.356 20.9223 440.996 20.6989C440.64 20.4754 440.219 20.3636 439.734 20.3636C439.2 20.3636 438.738 20.4962 438.348 20.7614C437.962 21.0227 437.664 21.3636 437.456 21.7841C437.248 22.2045 437.143 22.6553 437.143 23.1364V23.9091C437.143 24.5682 437.257 25.1269 437.484 25.5852C437.715 26.0398 438.036 26.3864 438.445 26.625C438.854 26.8598 439.329 26.9773 439.871 26.9773C440.223 26.9773 440.541 26.928 440.825 26.8295C441.113 26.7273 441.361 26.5758 441.57 26.375C441.778 26.1705 441.939 25.9167 442.053 25.6136L443.348 25.9773C443.212 26.4167 442.982 26.803 442.661 27.1364C442.339 27.4659 441.941 27.7235 441.467 27.9091C440.994 28.0909 440.462 28.1818 439.871 28.1818ZM453.57 28.1818C452.751 28.1818 452.047 27.9886 451.456 27.6023C450.865 27.2159 450.411 26.6837 450.092 26.0057C449.774 25.3277 449.615 24.553 449.615 23.6818C449.615 22.7955 449.778 22.0133 450.104 21.3352C450.433 20.6534 450.892 20.1212 451.479 19.7386C452.07 19.3523 452.759 19.1591 453.547 19.1591C454.161 19.1591 454.714 19.2727 455.206 19.5C455.698 19.7273 456.102 20.0455 456.416 20.4545C456.731 20.8636 456.926 21.3409 457.001 21.8864H455.661C455.558 21.4886 455.331 21.1364 454.979 20.8295C454.63 20.5189 454.161 20.3636 453.57 20.3636C453.047 20.3636 452.589 20.5 452.195 20.7727C451.804 21.0417 451.5 21.4223 451.28 21.9148C451.064 22.4034 450.956 22.9773 450.956 23.6364C450.956 24.3106 451.062 24.8977 451.274 25.3977C451.49 25.8977 451.793 26.286 452.183 26.5625C452.577 26.839 453.039 26.9773 453.57 26.9773C453.918 26.9773 454.234 26.9167 454.518 26.7955C454.803 26.6742 455.043 26.5 455.24 26.2727C455.437 26.0455 455.577 25.7727 455.661 25.4545H457.001C456.926 25.9697 456.738 26.4337 456.439 26.8466C456.143 27.2557 455.751 27.5814 455.263 27.8239C454.778 28.0625 454.214 28.1818 453.57 28.1818ZM462.507 28.1818C461.719 28.1818 461.028 27.9943 460.433 27.6193C459.842 27.2443 459.38 26.7197 459.047 26.0455C458.717 25.3712 458.553 24.5833 458.553 23.6818C458.553 22.7727 458.717 21.9792 459.047 21.3011C459.38 20.6231 459.842 20.0966 460.433 19.7216C461.028 19.3466 461.719 19.1591 462.507 19.1591C463.295 19.1591 463.984 19.3466 464.575 19.7216C465.17 20.0966 465.632 20.6231 465.962 21.3011C466.295 21.9792 466.462 22.7727 466.462 23.6818C466.462 24.5833 466.295 25.3712 465.962 26.0455C465.632 26.7197 465.17 27.2443 464.575 27.6193C463.984 27.9943 463.295 28.1818 462.507 28.1818ZM462.507 26.9773C463.106 26.9773 463.598 26.8239 463.984 26.517C464.371 26.2102 464.657 25.8068 464.842 25.3068C465.028 24.8068 465.121 24.2652 465.121 23.6818C465.121 23.0985 465.028 22.5549 464.842 22.0511C464.657 21.5473 464.371 21.1402 463.984 20.8295C463.598 20.5189 463.106 20.3636 462.507 20.3636C461.909 20.3636 461.416 20.5189 461.03 20.8295C460.643 21.1402 460.357 21.5473 460.172 22.0511C459.986 22.5549 459.893 23.0985 459.893 23.6818C459.893 24.2652 459.986 24.8068 460.172 25.3068C460.357 25.8068 460.643 26.2102 461.03 26.517C461.416 26.8239 461.909 26.9773 462.507 26.9773ZM469.849 22.75V28H468.509V19.2727H469.804V20.6364H469.918C470.122 20.1932 470.433 19.8371 470.849 19.5682C471.266 19.2955 471.804 19.1591 472.463 19.1591C473.054 19.1591 473.571 19.2803 474.014 19.5227C474.457 19.7614 474.802 20.125 475.048 20.6136C475.295 21.0985 475.418 21.7121 475.418 22.4545V28H474.077V22.5455C474.077 21.8598 473.899 21.3258 473.543 20.9432C473.187 20.5568 472.698 20.3636 472.077 20.3636C471.649 20.3636 471.266 20.4564 470.929 20.642C470.596 20.8277 470.332 21.0985 470.139 21.4545C469.946 21.8106 469.849 22.2424 469.849 22.75ZM481.663 19.2727V20.4091H477.141V19.2727H481.663ZM478.459 17.1818H479.8V25.5C479.8 25.8788 479.855 26.1629 479.964 26.3523C480.078 26.5379 480.222 26.6629 480.396 26.7273C480.574 26.7879 480.762 26.8182 480.959 26.8182C481.107 26.8182 481.228 26.8106 481.322 26.7955C481.417 26.7765 481.493 26.7614 481.55 26.75L481.822 27.9545C481.732 27.9886 481.605 28.0227 481.442 28.0568C481.279 28.0947 481.072 28.1136 480.822 28.1136C480.444 28.1136 480.072 28.0322 479.709 27.8693C479.349 27.7064 479.05 27.4583 478.811 27.125C478.576 26.7917 478.459 26.3712 478.459 25.8636V17.1818ZM483.68 28V19.2727H484.976V20.5909H485.067C485.226 20.1591 485.514 19.8087 485.93 19.5398C486.347 19.2708 486.817 19.1364 487.339 19.1364C487.438 19.1364 487.561 19.1383 487.709 19.142C487.857 19.1458 487.968 19.1515 488.044 19.1591V20.5227C487.999 20.5114 487.894 20.4943 487.732 20.4716C487.572 20.4451 487.404 20.4318 487.226 20.4318C486.802 20.4318 486.423 20.5208 486.089 20.6989C485.76 20.8731 485.499 21.1155 485.305 21.4261C485.116 21.733 485.021 22.0833 485.021 22.4773V28H483.68ZM492.202 28.2045C491.649 28.2045 491.147 28.1004 490.696 27.892C490.245 27.6799 489.887 27.375 489.622 26.9773C489.357 26.5758 489.224 26.0909 489.224 25.5227C489.224 25.0227 489.323 24.6174 489.52 24.3068C489.717 23.9924 489.98 23.7462 490.31 23.5682C490.639 23.3902 491.003 23.2576 491.401 23.1705C491.802 23.0795 492.205 23.0076 492.611 22.9545C493.141 22.8864 493.571 22.8352 493.901 22.8011C494.234 22.7633 494.476 22.7008 494.628 22.6136C494.783 22.5265 494.861 22.375 494.861 22.1591V22.1136C494.861 21.553 494.707 21.1174 494.401 20.8068C494.098 20.4962 493.637 20.3409 493.02 20.3409C492.38 20.3409 491.878 20.4811 491.514 20.7614C491.151 21.0417 490.895 21.3409 490.747 21.6591L489.474 21.2045C489.702 20.6742 490.005 20.2614 490.384 19.9659C490.766 19.6667 491.183 19.4583 491.634 19.3409C492.088 19.2197 492.535 19.1591 492.974 19.1591C493.255 19.1591 493.577 19.1932 493.94 19.2614C494.308 19.3258 494.662 19.4602 495.003 19.6648C495.348 19.8693 495.634 20.178 495.861 20.5909C496.088 21.0038 496.202 21.5568 496.202 22.25V28H494.861V26.8182H494.793C494.702 27.0076 494.55 27.2102 494.338 27.4261C494.126 27.642 493.844 27.8258 493.491 27.9773C493.139 28.1288 492.709 28.2045 492.202 28.2045ZM492.406 27C492.937 27 493.384 26.8958 493.747 26.6875C494.115 26.4792 494.391 26.2102 494.577 25.8807C494.766 25.5511 494.861 25.2045 494.861 24.8409V23.6136C494.804 23.6818 494.679 23.7443 494.486 23.8011C494.296 23.8542 494.077 23.9015 493.827 23.9432C493.58 23.9811 493.34 24.0152 493.105 24.0455C492.874 24.072 492.687 24.0947 492.543 24.1136C492.194 24.1591 491.868 24.233 491.565 24.3352C491.266 24.4337 491.024 24.5833 490.838 24.7841C490.656 24.9811 490.565 25.25 490.565 25.5909C490.565 26.0568 490.738 26.4091 491.082 26.6477C491.431 26.8826 491.872 27 492.406 27ZM502.195 28.1818C501.376 28.1818 500.672 27.9886 500.081 27.6023C499.49 27.2159 499.036 26.6837 498.717 26.0057C498.399 25.3277 498.24 24.553 498.24 23.6818C498.24 22.7955 498.403 22.0133 498.729 21.3352C499.058 20.6534 499.517 20.1212 500.104 19.7386C500.695 19.3523 501.384 19.1591 502.172 19.1591C502.786 19.1591 503.339 19.2727 503.831 19.5C504.323 19.7273 504.727 20.0455 505.041 20.4545C505.356 20.8636 505.551 21.3409 505.626 21.8864H504.286C504.183 21.4886 503.956 21.1364 503.604 20.8295C503.255 20.5189 502.786 20.3636 502.195 20.3636C501.672 20.3636 501.214 20.5 500.82 20.7727C500.429 21.0417 500.125 21.4223 499.905 21.9148C499.689 22.4034 499.581 22.9773 499.581 23.6364C499.581 24.3106 499.687 24.8977 499.899 25.3977C500.115 25.8977 500.418 26.286 500.808 26.5625C501.202 26.839 501.664 26.9773 502.195 26.9773C502.543 26.9773 502.859 26.9167 503.143 26.7955C503.428 26.6742 503.668 26.5 503.865 26.2727C504.062 26.0455 504.202 25.7727 504.286 25.4545H505.626C505.551 25.9697 505.363 26.4337 505.064 26.8466C504.768 27.2557 504.376 27.5814 503.888 27.8239C503.403 28.0625 502.839 28.1818 502.195 28.1818ZM511.382 19.2727V20.4091H506.859V19.2727H511.382ZM508.178 17.1818H509.518V25.5C509.518 25.8788 509.573 26.1629 509.683 26.3523C509.797 26.5379 509.941 26.6629 510.115 26.7273C510.293 26.7879 510.481 26.8182 510.678 26.8182C510.825 26.8182 510.946 26.8106 511.041 26.7955C511.136 26.7765 511.212 26.7614 511.268 26.75L511.541 27.9545C511.45 27.9886 511.323 28.0227 511.161 28.0568C510.998 28.0947 510.791 28.1136 510.541 28.1136C510.162 28.1136 509.791 28.0322 509.428 27.8693C509.068 27.7064 508.768 27.4583 508.53 27.125C508.295 26.7917 508.178 26.3712 508.178 25.8636V17.1818ZM519.425 21.2273L518.22 21.5682C518.144 21.3674 518.033 21.1723 517.885 20.983C517.741 20.7898 517.544 20.6307 517.294 20.5057C517.044 20.3807 516.724 20.3182 516.334 20.3182C515.8 20.3182 515.355 20.4413 514.999 20.6875C514.646 20.9299 514.47 21.2386 514.47 21.6136C514.47 21.947 514.591 22.2102 514.834 22.4034C515.076 22.5966 515.455 22.7576 515.97 22.8864L517.266 23.2045C518.046 23.3939 518.627 23.6837 519.01 24.0739C519.393 24.4602 519.584 24.9583 519.584 25.5682C519.584 26.0682 519.44 26.5152 519.152 26.9091C518.868 27.303 518.47 27.6136 517.959 27.8409C517.447 28.0682 516.853 28.1818 516.175 28.1818C515.285 28.1818 514.548 27.9886 513.964 27.6023C513.381 27.2159 513.012 26.6515 512.857 25.9091L514.129 25.5909C514.25 26.0606 514.48 26.4129 514.817 26.6477C515.158 26.8826 515.603 27 516.152 27C516.777 27 517.273 26.8674 517.641 26.6023C518.012 26.3333 518.197 26.0114 518.197 25.6364C518.197 25.3333 518.091 25.0795 517.879 24.875C517.667 24.6667 517.341 24.5114 516.902 24.4091L515.447 24.0682C514.648 23.8788 514.061 23.5852 513.686 23.1875C513.315 22.786 513.129 22.2841 513.129 21.6818C513.129 21.1894 513.268 20.7538 513.544 20.375C513.824 19.9962 514.205 19.6989 514.686 19.483C515.171 19.267 515.72 19.1591 516.334 19.1591C517.197 19.1591 517.875 19.3485 518.368 19.7273C518.864 20.1061 519.216 20.6061 519.425 21.2273ZM523.352 24.7273V24.6591C523.36 23.9356 523.436 23.3598 523.58 22.9318C523.723 22.5038 523.928 22.1572 524.193 21.892C524.458 21.6269 524.777 21.3826 525.148 21.1591C525.371 21.0227 525.572 20.8617 525.75 20.6761C525.928 20.4867 526.068 20.2689 526.17 20.0227C526.277 19.7765 526.33 19.5038 526.33 19.2045C526.33 18.8333 526.242 18.5114 526.068 18.2386C525.894 17.9659 525.661 17.7557 525.369 17.608C525.078 17.4602 524.754 17.3864 524.398 17.3864C524.087 17.3864 523.788 17.4508 523.5 17.5795C523.212 17.7083 522.972 17.911 522.778 18.1875C522.585 18.464 522.473 18.8258 522.443 19.2727H521.011C521.042 18.6288 521.208 18.0777 521.511 17.6193C521.818 17.161 522.222 16.8106 522.722 16.5682C523.225 16.3258 523.784 16.2045 524.398 16.2045C525.064 16.2045 525.644 16.3371 526.136 16.6023C526.633 16.8674 527.015 17.2311 527.284 17.6932C527.557 18.1553 527.693 18.6818 527.693 19.2727C527.693 19.6894 527.629 20.0663 527.5 20.4034C527.375 20.7405 527.193 21.0417 526.955 21.3068C526.72 21.572 526.436 21.8068 526.102 22.0114C525.769 22.2197 525.502 22.4394 525.301 22.6705C525.1 22.8977 524.955 23.1686 524.864 23.483C524.773 23.7973 524.723 24.1894 524.716 24.6591V24.7273H523.352ZM524.08 28.0909C523.799 28.0909 523.559 27.9905 523.358 27.7898C523.157 27.589 523.057 27.3485 523.057 27.0682C523.057 26.7879 523.157 26.5473 523.358 26.3466C523.559 26.1458 523.799 26.0455 524.08 26.0455C524.36 26.0455 524.6 26.1458 524.801 26.3466C525.002 26.5473 525.102 26.7879 525.102 27.0682C525.102 27.2538 525.055 27.4242 524.96 27.5795C524.869 27.7348 524.746 27.8598 524.591 27.9545C524.439 28.0455 524.269 28.0909 524.08 28.0909Z" fill="#C0C0C3"/>
<rect x="553" y="8" width="28" height="28" rx="6" fill="#1D1D1D"/>
<path fill-rule="evenodd" clip-rule="evenodd" d="M560.703 15.5431C560.505 15.455 560.272 15.5048 560.128 15.6664C559.983 15.828 559.959 16.0645 560.068 16.252L563.421 22L560.068 27.7481C559.959 27.9355 559.983 28.172 560.128 28.3336C560.272 28.4952 560.505 28.545 560.703 28.4569L574.203 22.4569C574.384 22.3767 574.5 22.1976 574.5 22C574.5 21.8024 574.384 21.6234 574.203 21.5431L560.703 15.5431ZM564.346 21.6L561.712 17.086L572.769 22L561.712 26.914L564.346 22.4H568.5C568.721 22.4 568.9 22.2209 568.9 22C568.9 21.7791 568.721 21.6 568.5 21.6H564.346Z" fill="#C0C0C3"/>
<rect x="0.5" y="0.5" width="588" height="43" rx="7.5" stroke="#2D2D30"/>
</svg>
