<svg width="159" height="32" viewBox="0 0 159 32" fill="none" xmlns="http://www.w3.org/2000/svg">
<path fill-rule="evenodd" clip-rule="evenodd" d="M31.7624 0H0V32H31.7624V0ZM9.5506 7.94527C9.50757 7.95583 9.46548 7.96616 9.42578 7.9741C9.60687 8.3692 9.80849 8.75404 10.0114 9.14141C10.134 9.37531 10.257 9.61012 10.3763 9.84869C10.8335 10.7123 11.288 11.5733 11.7415 12.4324C12.7023 14.2521 13.6586 16.0636 14.6271 17.8751C14.7405 18.0565 14.737 18.2574 14.7338 18.4443C14.7332 18.475 14.7327 18.5054 14.7327 18.5352V24.6606H16.9505V18.3767C16.9505 18.2447 16.9769 18.1127 17.0297 18.0071C17.7954 16.5418 18.5677 15.0764 19.34 13.6111C20.1122 12.1457 20.8845 10.6804 21.6502 9.21502C21.7207 9.05396 21.8026 8.90058 21.8844 8.74755C22.0172 8.49921 22.1494 8.25181 22.2311 7.9741C21.7206 7.88609 21.2102 7.89196 20.6997 7.89782C20.4445 7.90076 20.1893 7.90369 19.934 7.89489C19.4693 8.81371 19.0131 9.73253 18.5569 10.6514C17.8725 12.0296 17.1882 13.4078 16.4753 14.786C16.2905 15.1556 16.1056 15.5253 15.8944 15.8685C15.7266 15.6 15.5909 15.3209 15.4532 15.0379C15.3742 14.8756 15.2946 14.712 15.208 14.5484C14.4105 12.9335 13.6281 11.3035 12.8493 9.68129C12.5968 9.15516 12.3446 8.62984 12.0924 8.10611C12.066 8.0269 12.0132 7.92129 11.9076 7.94769C11.736 7.94109 11.5644 7.93284 11.3928 7.92459C10.878 7.89984 10.3631 7.87509 9.84822 7.89489C9.75591 7.89489 9.65068 7.92071 9.5506 7.94527Z" fill="#151515"/>
<path d="M88.9503 6.33691C89.2408 6.36332 89.2936 6.70655 89.32 6.91777C89.3992 8.00028 89.4256 9.05638 89.4256 10.1389C89.4784 11.1686 89.4784 12.1719 89.4784 13.2016C90.0592 12.7528 90.6137 12.2775 91.3002 12.0135C92.3827 11.5382 93.7028 11.5382 94.7589 12.0927C95.8942 12.6735 96.6863 13.7825 97.0824 14.9706C97.452 16.1059 97.5576 17.3204 97.4784 18.5085C97.3728 19.9079 97.0031 21.3072 96.1847 22.4425C95.7094 23.1026 95.0758 23.6834 94.2837 23.9739C93.0163 24.4227 91.617 24.2643 90.4817 23.5514C90.1385 23.3402 89.8216 23.0234 89.5048 22.7594C89.3728 23.1818 89.2672 23.5778 89.1352 24.0003C88.5279 24.0003 87.947 24.0531 87.3398 23.9475C87.5774 22.997 87.5774 21.9937 87.6038 21.0168C87.6566 17.558 87.6038 14.0993 87.5774 10.6669C87.4982 9.32041 87.6038 7.97387 87.3662 6.65374C87.9206 6.49533 88.4223 6.33691 88.9503 6.33691ZM93.386 13.4656C92.8579 13.36 92.3299 13.36 91.8018 13.4128C90.8513 13.5448 90.0856 14.2049 89.4784 14.8914C89.452 15.129 89.4784 15.3402 89.452 15.5778V21.0696C89.4256 21.2544 89.584 21.3864 89.716 21.492C90.6401 22.3897 92.013 22.8122 93.2804 22.4953C93.8876 22.3369 94.4157 21.9409 94.7061 21.3864C95.155 20.6207 95.3134 19.7231 95.3926 18.8518C95.4454 18.1917 95.5246 17.5052 95.4454 16.8452C95.419 16.0795 95.2606 15.261 94.8645 14.6009C94.5477 14.0465 94.0196 13.5976 93.386 13.4656ZM101.254 6.81216C101.624 6.68015 102.046 6.70655 102.416 6.86497C102.759 7.07619 102.997 7.39302 103.155 7.76266C103.393 8.55473 102.759 9.45242 101.94 9.55803C101.307 9.63724 100.62 9.2676 100.435 8.63394C100.171 7.94747 100.567 7.10259 101.254 6.81216ZM44.9371 8.2643C45.8348 7.65704 46.8909 7.18179 47.9998 7.18179C49.1352 7.15539 50.2969 7.2346 51.3266 7.73625C51.749 7.92107 52.1715 8.13229 52.5411 8.44913C52.2771 8.89797 51.9338 9.294 51.617 9.69004C51.1946 9.45242 50.7985 9.18839 50.3497 9.02998C49.2408 8.63394 47.9734 8.55473 46.8645 9.00357C45.9404 9.37321 45.1748 10.0861 44.6995 10.9574C44.3827 11.5646 44.0922 12.2247 43.9602 12.9112C43.8546 13.5712 43.8018 14.2577 43.7754 14.9442C43.749 15.8419 43.6962 16.766 43.749 17.6636C43.9074 18.931 44.3299 20.1983 45.2012 21.1488C45.9404 22.0201 47.0493 22.5217 48.1847 22.6273C48.7655 22.6537 49.3728 22.6537 49.9536 22.5217C50.6665 22.3633 51.2738 21.9937 51.9338 21.7032C52.3035 22.0729 52.6467 22.4953 52.9635 22.9442C52.4883 23.2082 51.9866 23.4722 51.4586 23.6834C50.0857 24.2379 48.5279 24.2643 47.0757 24.1059C46.0196 23.8947 45.0427 23.3402 44.2243 22.6537C43.2738 21.8353 42.5873 20.7528 42.1913 19.5646C41.9008 18.7726 41.7688 17.9277 41.6896 17.1092C41.6632 16.4755 41.584 15.8683 41.6632 15.2346C41.6896 14.0465 41.8744 12.8848 42.3497 11.7759C42.8777 10.4029 43.7226 9.10919 44.9371 8.2643Z" fill="#151515"/>
<path d="M132.249 8.89806C132.856 8.71324 133.49 8.55483 134.123 8.44922C134.018 9.61094 133.939 10.7726 133.912 11.9608C134.889 11.9872 135.892 11.9872 136.869 12.0136C136.711 12.4624 136.526 12.9113 136.315 13.3337C135.47 13.3337 134.652 13.3337 133.807 13.3337C133.807 14.4162 133.807 15.4987 133.807 16.5812C133.807 17.4261 133.859 18.2974 133.833 19.1423C133.859 20.1192 133.807 21.0961 133.912 22.0466C133.939 22.4426 134.308 22.7331 134.652 22.8387C135.259 22.9707 135.892 22.9179 136.473 22.7859C136.632 23.1291 136.711 23.5251 136.685 23.8948C136.156 24.1852 135.523 24.238 134.916 24.2908C134.071 24.3172 133.12 24.1852 132.513 23.5251C132.011 23.0499 132.064 22.3106 131.985 21.6769C131.932 20.304 131.958 18.9047 131.932 17.5317C131.932 16.1324 131.932 14.7066 131.932 13.3073C131.404 13.3073 130.876 13.3073 130.348 13.3073C130.321 12.8585 130.321 12.3832 130.348 11.9344C130.876 11.9344 131.378 11.9344 131.906 11.9344C132.09 10.9311 132.09 9.90136 132.249 8.89806ZM60.0641 11.6703C60.5657 11.6967 61.0674 11.6703 61.5426 11.8288C62.6515 12.1984 63.5756 12.9641 64.1565 13.9674C64.6581 14.8387 65.0014 15.8156 65.0278 16.8189C65.0806 18.1654 65.1334 19.5647 64.7109 20.8585C64.3149 22.073 63.47 23.1555 62.3083 23.7628C61.173 24.3436 59.8 24.4756 58.5855 24.1324C57.4766 23.842 56.5261 23.1027 55.8924 22.1522C55.1796 21.1225 54.9419 19.8816 54.9155 18.6406C54.8891 17.4525 54.8627 16.238 55.2588 15.1027C55.6284 13.9938 56.3413 12.9641 57.3446 12.3304C57.7934 12.04 58.2951 11.8024 58.8231 11.6967C59.2456 11.6439 59.668 11.6703 60.0641 11.6703ZM59.1136 13.2017C58.4799 13.3601 57.8726 13.7297 57.5294 14.2842C57.0278 15.1027 56.9485 16.0796 56.8957 17.0037C56.8429 17.6901 56.8957 18.3766 56.9486 19.0631C57.0542 19.8816 57.2126 20.7529 57.6086 21.4921C58.0311 22.2842 58.9287 22.6802 59.8 22.733C60.6185 22.7858 61.5162 22.5746 62.0971 21.941C62.5723 21.4129 62.8363 20.7528 62.9419 20.04C63.074 19.1687 63.0476 18.2974 63.0212 17.4261C62.9948 16.5284 62.9155 15.5779 62.5459 14.733C62.3347 14.205 61.9387 13.7561 61.437 13.4921C60.7505 13.0697 59.8792 13.0169 59.1136 13.2017ZM68.3281 12.0664C68.8825 11.8816 69.437 11.7495 70.0179 11.6439C70.2555 12.172 70.3875 12.7528 70.4403 13.3337C70.8363 13.1225 71.1268 12.8056 71.4964 12.568C72.3149 11.9608 73.3182 11.5911 74.3479 11.6439C74.5855 11.6703 74.7967 11.7231 75.008 11.8288C75.3512 12.0136 75.7208 12.1984 76.0113 12.4624C76.3017 12.7528 76.5129 13.1225 76.7241 13.4921C77.1994 13.2809 77.5426 12.9113 77.9651 12.6208C78.6779 12.1192 79.4964 11.7231 80.3941 11.6439C81.2126 11.5647 82.0311 11.8288 82.6383 12.3832C82.9023 12.6472 83.1928 12.9113 83.3248 13.2545C83.4568 13.5977 83.5096 13.9674 83.536 14.337C83.668 16.2644 83.5888 18.2182 83.668 20.1456C83.668 21.4393 83.668 22.7066 83.668 24.0004C83.0344 24.0004 82.4007 24.0268 81.7406 24.0004C81.7406 22.073 81.7406 20.1456 81.7406 18.2182C81.7406 16.9773 81.767 15.7363 81.6614 14.4954C81.6086 14.0994 81.3974 13.7297 81.0806 13.4921C80.7109 13.2545 80.2357 13.2809 79.8132 13.3073C79.0476 13.3865 78.4403 13.8618 77.8594 14.3106C77.5954 14.5482 77.305 14.7594 77.041 14.9971C76.9618 15.0499 76.9882 15.1819 76.9882 15.2611C76.9882 18.1654 76.9882 21.0697 76.9882 23.974C76.3545 23.974 75.7208 23.974 75.0872 23.974V17.1885C75.0872 16.634 75.0872 16.0796 75.0608 15.5515C75.0344 14.9971 75.0872 14.3898 74.8231 13.8882C74.4271 13.3337 73.6614 13.2281 73.0542 13.3865C72.1037 13.6241 71.2588 14.205 70.5459 14.8651C70.4403 14.9443 70.4403 15.0763 70.4403 15.2083C70.4403 18.139 70.4403 21.0697 70.4403 24.0004C69.8859 24.0268 69.3314 24.0268 68.7769 24.0004C68.7241 21.0169 68.7505 18.007 68.6713 14.9971C68.6449 14.3106 68.6449 13.6241 68.5657 12.9641C68.4865 12.6472 68.3809 12.3568 68.3281 12.0664ZM100.803 11.9608C101.411 11.8816 102.018 11.7759 102.625 11.6439C102.704 13.3337 102.678 15.0235 102.678 16.7132C102.678 19.1423 102.678 21.5713 102.678 24.0004C102.044 24.0268 101.411 24.0268 100.777 24.0004C100.751 20.5152 100.777 17.0565 100.777 13.5713C100.803 13.0433 100.777 12.4888 100.803 11.9608ZM125.279 11.7231C126.572 11.9608 127.681 13.1489 127.708 14.4954C127.787 16.502 127.681 18.5086 127.708 20.5152V21.1225C127.708 21.5185 127.734 21.9146 127.84 22.3106C127.919 22.7066 128.288 22.9179 128.579 23.1555C128.315 23.5251 128.077 23.9476 127.734 24.2644C127.523 24.4492 127.259 24.238 127.1 24.1324C126.652 23.7892 126.335 23.2875 126.071 22.7859C125.648 23.0235 125.358 23.3667 124.935 23.6043C124.249 24.0532 123.43 24.3172 122.586 24.2908C121.846 24.3172 121.081 24.1852 120.421 23.842C119.338 23.2611 118.731 21.9938 118.757 20.8057C118.757 19.6439 119.338 18.5086 120.262 17.8222C121.371 16.9773 122.797 16.7132 124.143 16.6076C124.751 16.5548 125.384 16.5548 126.018 16.5284C126.044 15.9212 125.991 15.3139 125.912 14.7066C125.833 14.205 125.595 13.6769 125.12 13.4129C124.566 13.1225 123.906 13.0961 123.272 13.2017C122.11 13.3337 121.028 13.8354 120.077 14.5218C119.813 14.1522 119.549 13.809 119.338 13.4129C119.232 13.2281 119.391 13.0697 119.549 12.9905C120.817 12.2776 122.216 11.6703 123.694 11.6967H124.328C124.645 11.6703 124.962 11.6703 125.279 11.7231ZM124.487 17.7694C123.906 17.8222 123.298 17.8486 122.744 18.007C122.057 18.1918 121.424 18.6406 121.054 19.2479C120.843 19.5911 120.843 20.0136 120.817 20.4096C120.817 20.8321 120.764 21.3073 120.922 21.7033C121.081 22.1258 121.371 22.5218 121.793 22.6802C122.269 22.8915 122.823 22.9179 123.351 22.8651C123.985 22.7858 124.539 22.4426 125.015 22.073C125.411 21.7297 125.807 21.3073 125.833 20.7528C125.912 19.7759 125.886 18.7991 125.912 17.8222C125.437 17.8222 124.962 17.7165 124.487 17.7694ZM145.186 11.7495C146.269 12.0136 147.246 12.6736 147.879 13.5713C148.407 14.3106 148.751 15.1555 148.909 16.0532C149.041 16.8981 149.094 17.7694 149.041 18.6142C149.015 20.0136 148.592 21.4129 147.747 22.5218C147.061 23.4195 146.005 23.9476 144.922 24.1588C143.602 24.3964 142.176 24.1588 141.067 23.3667C140.09 22.6802 139.483 21.5713 139.14 20.4624C138.955 19.8816 138.929 19.3007 138.876 18.6934C138.85 17.6901 138.85 16.6868 139.034 15.7099C139.298 14.601 139.853 13.5185 140.698 12.7264C141.331 12.1456 142.123 11.7759 142.968 11.6703C143.708 11.5911 144.447 11.6175 145.186 11.7495ZM143.1 13.1753C142.203 13.2809 141.49 13.9938 141.199 14.8123C140.83 15.6835 140.883 16.634 140.856 17.5581C140.883 18.4294 140.883 19.3007 141.041 20.172C141.147 20.7529 141.331 21.3337 141.727 21.7826C142.097 22.2314 142.652 22.5218 143.206 22.6274C143.417 22.6802 143.655 22.7066 143.866 22.7066H144.077L144.288 22.6802C144.737 22.6274 145.16 22.4954 145.556 22.2842C146.031 22.0202 146.374 21.5185 146.559 21.0169C146.797 20.4096 146.823 19.7496 146.876 19.1159C146.902 18.3502 146.929 17.5845 146.876 16.8189C146.823 16.0268 146.718 15.2083 146.348 14.4954C146.005 13.9674 145.529 13.5185 144.949 13.2545C144.394 13.0961 143.734 13.0961 143.1 13.1753ZM152.288 12.0928C152.869 11.9344 153.424 11.7495 154.005 11.6175C154.322 12.1984 154.374 12.8849 154.401 13.5185C154.691 13.3073 154.929 13.0169 155.193 12.7528C156.011 11.9344 157.226 11.4327 158.387 11.6439V11.8024C158.123 12.3568 157.965 12.9641 157.727 13.5449C157.701 13.6505 157.543 13.6241 157.463 13.6241C156.962 13.6241 156.407 13.6241 155.958 13.8882C155.51 14.1522 155.114 14.4954 154.797 14.9179C154.48 15.3139 154.533 15.8684 154.533 16.3436C154.506 17.0301 154.48 17.7165 154.506 18.403C154.506 20.2512 154.506 22.1258 154.506 23.974C153.873 24.0004 153.239 24.0004 152.605 23.974C152.605 21.9146 152.605 19.8288 152.605 17.7694C152.605 16.37 152.605 14.9443 152.553 13.5449C152.5 13.0697 152.341 12.5944 152.288 12.0928ZM106.427 12.1192C106.982 11.9344 107.562 11.7231 108.143 11.7231C108.355 12.2776 108.487 12.8585 108.566 13.4393C109.067 13.1225 109.49 12.7 110.018 12.4096C111.021 11.8288 112.236 11.4063 113.371 11.8288C114.031 12.0664 114.691 12.436 115.087 13.0433C115.404 13.4657 115.483 14.0466 115.536 14.5746C115.642 16.4492 115.615 18.3238 115.615 20.2248C115.615 21.4921 115.642 22.733 115.642 24.0004C115.008 24.0268 114.374 24.0268 113.741 24.0004C113.741 21.941 113.688 19.8552 113.688 17.7958C113.661 16.634 113.714 15.4987 113.582 14.337C113.397 13.7826 112.869 13.3337 112.288 13.3073C111.866 13.2809 111.417 13.2809 110.995 13.4393C110.097 13.7826 109.279 14.337 108.539 14.9443C108.513 17.9542 108.539 20.9905 108.539 24.0004C107.985 24.0004 107.43 24.0268 106.876 24.0004C106.876 22.2842 106.823 20.568 106.823 18.8519C106.797 17.0829 106.823 15.3403 106.718 13.5713C106.691 13.0697 106.533 12.5944 106.427 12.1192Z" fill="#151515"/>
</svg>
